<svg id="레이어_1" data-name="레이어 1" xmlns="http://www.w3.org/2000/svg" width="50" height="50" viewBox="0 0 50 50"><defs><style>.cls-1{fill:#fafafa;stroke:#c8c8c8;stroke-miterlimit:10;stroke-width:1.4px;}.cls-2{fill:#a0a0a0;}.cls-3{fill:#c8c8c8;}.cls-4{fill:#b7afef;}.cls-5{fill:#fff;}</style></defs><title>dial</title><rect class="cls-1" x="0.7" y="0.7" width="48.6" height="48.6" rx="8.1" ry="8.1"/><path class="cls-2" d="M25,10.11h0a0.78,0.78,0,0,0-.77.77v2.5a0.78,0.78,0,0,0,.77.77h0a0.78,0.78,0,0,0,.77-0.77v-2.5A0.78,0.78,0,0,0,25,10.11Z" transform="translate(0 0)"/><path class="cls-3" d="M13.37,14.34h0a0.78,0.78,0,0,0-.1,1.09l1.61,1.92a0.78,0.78,0,0,0,1.09.1h0a0.78,0.78,0,0,0,.1-1.09l-1.61-1.92A0.78,0.78,0,0,0,13.37,14.34Z" transform="translate(0 0)"/><path class="cls-3" d="M7.19,25.06h0a0.78,0.78,0,0,0,.63.9l2.46,0.43a0.78,0.78,0,0,0,.9-0.63h0a0.78,0.78,0,0,0-.63-0.9l-2.46-.43A0.78,0.78,0,0,0,7.19,25.06Z" transform="translate(0 0)"/><path class="cls-3" d="M9.34,37.24h0a0.78,0.78,0,0,0,1.06.28l2.17-1.25a0.78,0.78,0,0,0,.28-1.06h0a0.78,0.78,0,0,0-1.06-.28L9.62,36.18A0.78,0.78,0,0,0,9.34,37.24Z" transform="translate(0 0)"/><path class="cls-3" d="M40.66,37.24h0a0.78,0.78,0,0,0-.28-1.06l-2.17-1.25a0.78,0.78,0,0,0-1.06.28h0a0.78,0.78,0,0,0,.28,1.06l2.17,1.25A0.78,0.78,0,0,0,40.66,37.24Z" transform="translate(0 0)"/><path class="cls-3" d="M42.81,25.06h0a0.78,0.78,0,0,0-.9-0.63l-2.46.43a0.78,0.78,0,0,0-.63.9h0a0.78,0.78,0,0,0,.9.63L42.19,26A0.78,0.78,0,0,0,42.81,25.06Z" transform="translate(0 0)"/><path class="cls-3" d="M36.63,14.34h0a0.78,0.78,0,0,0-1.09.1l-1.61,1.92a0.78,0.78,0,0,0,.1,1.09h0a0.78,0.78,0,0,0,1.09-.1l1.61-1.92A0.78,0.78,0,0,0,36.63,14.34Z" transform="translate(0 0)"/><circle class="cls-4" cx="25" cy="28.2" r="11.69"/><circle class="cls-5" cx="20.29" cy="22" r="2.17"/></svg>