<svg id="레이어_1" data-name="레이어 1" xmlns="http://www.w3.org/2000/svg" width="50" height="50" viewBox="0 0 50 50"><defs><style>.cls-1{fill:#fafafa;stroke:#c8c8c8;stroke-miterlimit:10;stroke-width:1.4px;}.cls-2{fill:#ffc088;}</style></defs><title>display</title><rect class="cls-1" x="0.7" y="0.7" width="48.6" height="48.6" rx="8.1" ry="8.1"/><path class="cls-2" d="M40.69,9.9H9.31a1.74,1.74,0,0,0-1.74,1.74V34.31a1.74,1.74,0,0,0,1.74,1.74H40.69a1.74,1.74,0,0,0,1.74-1.74V11.65A1.74,1.74,0,0,0,40.69,9.9ZM40,32.7H10V11.91H40V32.7Z" transform="translate(0 0)"/><path class="cls-2" d="M32.85,38.52H17.14a1.58,1.58,0,0,0-1.58,1.58H34.44A1.58,1.58,0,0,0,32.85,38.52Z" transform="translate(0 0)"/><rect class="cls-2" x="24.22" y="36.06" width="1.51" height="2.46"/></svg>