<svg id="레이어_1" data-name="레이어 1" xmlns="http://www.w3.org/2000/svg" width="50" height="50" viewBox="0 0 50 50"><defs><style>.cls-1{fill:#fafafa;stroke:#c8c8c8;stroke-miterlimit:10;stroke-width:1.4px;}.cls-2{fill:#c8c8c8;}.cls-3{fill:#b7afef;}.cls-4{fill:none;}.cls-5{fill:#bcbcbc;}</style></defs><title>env3</title><rect class="cls-1" x="0.7" y="0.7" width="48.6" height="48.6" rx="8.1" ry="8.1"/><path class="cls-2" d="M26.27,18.18h0c0.4-4.05,5.18-10.49,5.18-10.49s4.79,6.44,5.18,10.49h0a5,5,0,0,1,0,.51,5.22,5.22,0,0,1-10.43,0A4.18,4.18,0,0,0,26.27,18.18Z" transform="translate(0 0)"/><path class="cls-3" d="M13.34,31.72V16.34H17V31.72A4.7,4.7,0,1,1,13.34,31.72Z" transform="translate(0 0)"/><path class="cls-2" d="M26,33.84a5.41,5.41,0,0,0,5.41,5.41V28.43A5.41,5.41,0,0,0,26,33.84Z" transform="translate(0 0)"/><path class="cls-3" d="M36.77,33.84a5.41,5.41,0,0,0-5.41-5.41V39.25A5.41,5.41,0,0,0,36.77,33.84Z" transform="translate(0 0)"/><path class="cls-3" d="M40.78,33.49H38.49a0.35,0.35,0,0,0-.35.35h0a0.35,0.35,0,0,0,.35.35h2.29a0.35,0.35,0,0,0,.35-0.35h0a0.35,0.35,0,0,0-.35-0.35h0Z" transform="translate(0 0)"/><path class="cls-3" d="M39.7,38.24l-2-1.15a0.35,0.35,0,0,0-.48.13h0a0.35,0.35,0,0,0,.13.48h0l2,1.15a0.35,0.35,0,0,0,.48-0.13h0a0.35,0.35,0,0,0-.13-0.48h0Z" transform="translate(0 0)"/><path class="cls-3" d="M36.38,41.82l-1.15-2a0.35,0.35,0,0,0-.48-0.13h0a0.35,0.35,0,0,0-.13.48h0l1.15,2a0.35,0.35,0,0,0,.48.13h0a0.35,0.35,0,0,0,.13-0.48h0Z" transform="translate(0 0)"/><path class="cls-3" d="M39.35,28.83l-2,1.15a0.35,0.35,0,0,0-.13.48h0a0.35,0.35,0,0,0,.48.13h0l2-1.15A0.35,0.35,0,0,0,39.83,29h0a0.35,0.35,0,0,0-.46-0.18h0Z" transform="translate(0 0)"/><path class="cls-3" d="M35.77,25.51l-1.15,2a0.35,0.35,0,0,0,.13.48h0a0.35,0.35,0,0,0,.48-0.13h0l1.15-2a0.35,0.35,0,0,0-.13-0.48h0a0.35,0.35,0,0,0-.48.13h0Z" transform="translate(0 0)"/><line class="cls-4" x1="31.36" y1="33.84" x2="33.02" y2="32.85"/><path class="cls-5" d="M18.72,30.77V11.18a3.53,3.53,0,1,0-7.05,0v19.6A6.32,6.32,0,1,0,18.72,30.77ZM15.19,41.54a5.51,5.51,0,0,1-2.71-10.31V11.17a2.71,2.71,0,0,1,5.42,0v20A5.51,5.51,0,0,1,15.19,41.54Z" transform="translate(0 0)"/></svg>