<svg id="레이어_1" data-name="레이어 1" xmlns="http://www.w3.org/2000/svg" width="50" height="50" viewBox="0 0 50 50"><defs><style>.cls-1{fill:#fafafa;stroke:#c8c8c8;stroke-miterlimit:10;stroke-width:1.4px;}.cls-2{fill:#b7afef;}.cls-3{fill:#bcbcbc;}.cls-4{fill:#a0a0a0;}.cls-5{fill:#c8c8c8;}</style></defs><title>ir</title><rect class="cls-1" x="0.7" y="0.7" width="48.6" height="48.6" rx="8.1" ry="8.1"/><path class="cls-2" d="M22.42,16.53H11.13V35.7H22.42a0.76,0.76,0,0,0,.76-0.76V17.29A0.76,0.76,0,0,0,22.42,16.53Z" transform="translate(-3.53 -1.11)"/><path class="cls-3" d="M23.15,27.83v4.72A2.36,2.36,0,0,0,23.15,27.83Z" transform="translate(-3.53 -1.11)"/><path class="cls-3" d="M23.15,19.67V24.4A2.36,2.36,0,0,0,23.15,19.67Z" transform="translate(-3.53 -1.11)"/><circle class="cls-4" cx="27.37" cy="21.57" r="0.52" transform="translate(-4.76 40.36) rotate(-73.07)"/><circle class="cls-4" cx="29.12" cy="22.1" r="0.52" transform="translate(-4.07 42.35) rotate(-72.97)"/><circle class="cls-4" cx="30.86" cy="22.63" r="0.52" transform="matrix(0.29, -0.96, 0.96, 0.29, -3.3, 44.45)"/><circle class="cls-4" cx="32.61" cy="23.16" r="0.52" transform="translate(-2.58 46.49) rotate(-73.06)"/><circle class="cls-4" cx="34.35" cy="23.69" r="0.52" transform="matrix(0.29, -0.96, 0.96, 0.29, -1.88, 48.5)"/><circle class="cls-4" cx="36.1" cy="24.22" r="0.52" transform="translate(-1.13 50.57) rotate(-73.05)"/><circle class="cls-4" cx="37.84" cy="24.76" r="0.52" transform="translate(-0.37 52.66) rotate(-73.12)"/><circle class="cls-4" cx="39.58" cy="25.29" r="0.52" transform="translate(0.31 54.64) rotate(-73.02)"/><circle class="cls-4" cx="41.33" cy="25.82" r="0.52" transform="translate(1.07 56.73) rotate(-73.08)"/><circle class="cls-4" cx="43.07" cy="26.35" r="0.52" transform="translate(-9.3 12.45) rotate(-16.79)"/><circle class="cls-4" cx="41.33" cy="26.88" r="0.52" transform="translate(-9.58 12.13) rotate(-16.98)"/><circle class="cls-4" cx="39.58" cy="27.41" r="0.52" transform="translate(-9.81 11.63) rotate(-16.97)"/><circle class="cls-4" cx="37.84" cy="27.94" r="0.52" transform="matrix(0.96, -0.29, 0.29, 0.96, -10.03, 11.13)"/><circle class="cls-4" cx="36.09" cy="28.48" r="0.52" transform="translate(-10.27 10.66) rotate(-16.97)"/><circle class="cls-4" cx="34.35" cy="29.01" r="0.52" transform="translate(-10.5 10.17) rotate(-16.97)"/><circle class="cls-4" cx="32.61" cy="29.54" r="0.52" transform="translate(-10.72 9.66) rotate(-16.94)"/><polygon class="cls-4" points="27.59 28.94 27.98 30.07 26.33 30.01 24.67 29.96 25.93 28.89 27.2 27.82 27.59 28.94"/><path class="cls-5" d="M45.93,31.52a0.67,0.67,0,0,1-.67.67h0a0.67,0.67,0,0,1-.67-0.67V20.71A0.67,0.67,0,0,1,45.25,20h0a0.67,0.67,0,0,1,.67.67V31.52Z" transform="translate(-3.53 -1.11)"/></svg>