<svg id="레이어_1" data-name="레이어 1" xmlns="http://www.w3.org/2000/svg" width="50" height="50" viewBox="0 0 50 50"><defs><style>.cls-1{fill:#fafafa;stroke:#c8c8c8;stroke-miterlimit:10;stroke-width:1.4px;}.cls-2{fill:#ffc088;}.cls-3{fill:#c8c8c8;}</style></defs><title>led</title><rect class="cls-1" x="0.7" y="0.7" width="48.6" height="48.6" rx="8.1" ry="8.1"/><rect class="cls-2" x="14.97" y="34.67" width="20.07" height="2.16"/><path class="cls-3" d="M25,13.72h0a0.78,0.78,0,0,1-.78-0.78V8.3A0.78,0.78,0,0,1,25,7.52h0a0.78,0.78,0,0,1,.78.78v4.64A0.78,0.78,0,0,1,25,13.72Z" transform="translate(0 0)"/><path class="cls-3" d="M19.58,15.17h0a0.78,0.78,0,0,1-1.06-.28l-2.32-4a0.78,0.78,0,0,1,.28-1.06h0a0.78,0.78,0,0,1,1.06.28l2.32,4A0.78,0.78,0,0,1,19.58,15.17Z" transform="translate(0 0)"/><path class="cls-3" d="M15.62,19.14h0a0.78,0.78,0,0,1-1.06.28l-4-2.32A0.78,0.78,0,0,1,10.25,16h0a0.78,0.78,0,0,1,1.06-.28l4,2.32A0.78,0.78,0,0,1,15.62,19.14Z" transform="translate(0 0)"/><path class="cls-3" d="M34.38,19.14h0a0.78,0.78,0,0,1,.28-1.06l4-2.32a0.78,0.78,0,0,1,1.06.28h0a0.78,0.78,0,0,1-.28,1.06l-4,2.32A0.78,0.78,0,0,1,34.38,19.14Z" transform="translate(0 0)"/><path class="cls-3" d="M30.42,15.17h0a0.78,0.78,0,0,1-.28-1.06l2.32-4a0.78,0.78,0,0,1,1.06-.28h0a0.78,0.78,0,0,1,.28,1.06l-2.32,4A0.78,0.78,0,0,1,30.42,15.17Z" transform="translate(0 0)"/><path class="cls-2" d="M19.6,37.63v3.87a1,1,0,1,0,1.93,0V37.63H19.6Z" transform="translate(0 0)"/><path class="cls-2" d="M28.46,37.63v3.87a1,1,0,1,0,1.93,0V37.63H28.46Z" transform="translate(0 0)"/><path class="cls-2" d="M33.57,33.86V24.64a8.57,8.57,0,1,0-17.15,0v9.22H33.57Z" transform="translate(0 0)"/></svg>