<svg id="레이어_1" data-name="레이어 1" xmlns="http://www.w3.org/2000/svg" width="50" height="50" viewBox="0 0 50 50"><defs><style>.cls-1{fill:#fafafa;stroke:#c8c8c8;stroke-miterlimit:10;stroke-width:1.4px;}.cls-2{fill:#b7afef;}.cls-3{fill:#c8c8c8;}</style></defs><title>mic</title><rect class="cls-1" x="0.7" y="0.7" width="48.6" height="48.6" rx="8.1" ry="8.1"/><path class="cls-2" d="M32.28,15.84V14.95a7.28,7.28,0,1,0-14.56,0v0.89h6.34v1.8H17.72v2.09h6.34v1.8H17.72v2.09h6.34v1.8H17.72v2.09h6.34v1.8H17.72v0.89a7.28,7.28,0,0,0,14.56,0V29.32H25.94v-1.8h6.34V25.42H25.94v-1.8h6.34V21.53H25.94v-1.8h6.34V17.64H25.94v-1.8h6.34Z" transform="translate(0 0)"/><path class="cls-3" d="M34.06,29.32v1.1a9.06,9.06,0,0,1-18.11,0v-1.1H13.26v1.27a11.74,11.74,0,1,0,23.48,0V29.32H34.06Z" transform="translate(0 0)"/></svg>