<svg id="레이어_1" data-name="레이어 1" xmlns="http://www.w3.org/2000/svg" width="50" height="50" viewBox="0 0 50 50"><defs><style>.cls-1{fill:#fafafa;stroke:#c8c8c8;stroke-miterlimit:10;stroke-width:1.4px;}.cls-2{fill:#a7a7a7;}</style></defs><title>number</title><rect class="cls-1" x="0.7" y="0.7" width="48.6" height="48.6" rx="7.46" ry="7.46"/><path class="cls-2" d="M20.62,20.89v18H17.9V23.66H16.4l0.67-2.77h3.55Z" transform="translate(-5 -5)"/><path class="cls-2" d="M31.14,38.93H22l1.19-2q5.7-9.73,5.7-11.19a2.24,2.24,0,0,0-.53-1.55A1.77,1.77,0,0,0,27,23.56a1.72,1.72,0,0,0-1.07.32,1.85,1.85,0,0,0-.62.75H22.41a5.81,5.81,0,0,1,1.95-3,4.6,4.6,0,0,1,5.93.56,4.86,4.86,0,0,1,1.32,3.47,9.85,9.85,0,0,1-1.16,3.8q-1,2-3.67,6.71h4.35v2.73h0Z" transform="translate(-5 -5)"/><path class="cls-2" d="M41.49,29.18a4.93,4.93,0,1,0-8.29-4.56h2.9A2.2,2.2,0,1,1,38,27.93v2.75a2.87,2.87,0,1,1-2.2,4.72H32.7A5.61,5.61,0,1,0,41.49,29.18Z" transform="translate(-5 -5)"/></svg>