<svg id="레이어_1" data-name="레이어 1" xmlns="http://www.w3.org/2000/svg" width="50" height="50" viewBox="0 0 50 50"><defs><style>.cls-1{fill:#fafafa;stroke:#c8c8c8;stroke-miterlimit:10;stroke-width:1.4px;}.cls-2{fill:#a7a7a7;}</style></defs><title>random</title><rect class="cls-1" x="0.7" y="0.7" width="48.6" height="48.6" rx="7.46" ry="7.46"/><path class="cls-2" d="M28,30.12L20.41,19.87a0.4,0.4,0,0,0-.56-0.09h0L9.61,27.35a0.41,0.41,0,0,0-.08.56l7.56,10.25a0.41,0.41,0,0,0,.56.08l10.24-7.57A0.4,0.4,0,0,0,28,30.12ZM15.1,28.46a1.17,1.17,0,1,1-1-1.33h0A1.17,1.17,0,0,1,15.1,28.46Zm4.81,0.7a1.17,1.17,0,1,1-1-1.31h0A1.17,1.17,0,0,1,19.91,29.16Zm4.84,0.75a1.17,1.17,0,1,1-1-1.34,1.17,1.17,0,0,1,1,1.34h0Z" transform="translate(0 0)"/><path class="cls-2" d="M40.22,13.59l-12.6-1.9a0.41,0.41,0,0,0-.46.34l-1.9,12.6a0.41,0.41,0,0,0,.34.46L38.2,27a0.41,0.41,0,0,0,.46-0.32l1.9-12.6a0.41,0.41,0,0,0-.32-0.48h0Zm-10.5,9.58A1.17,1.17,0,1,1,30,21.51a1.17,1.17,0,0,1-.25,1.66Zm1-6.81A1.17,1.17,0,1,1,31,14.7a1.17,1.17,0,0,1-.25,1.66l0,0h0Zm2.89,3.92a1.17,1.17,0,1,1,.25-1.66,1.17,1.17,0,0,1-.25,1.66h0Zm2.86,3.9a1.17,1.17,0,1,1,.25-1.66,1.17,1.17,0,0,1-.25,1.66Zm1-6.81a1.17,1.17,0,1,1,.25-1.66,1.17,1.17,0,0,1-.25,1.66l0,0v0Z" transform="translate(0 0)"/></svg>