<svg id="레이어_1" data-name="레이어 1" xmlns="http://www.w3.org/2000/svg" width="50" height="50" viewBox="0 0 50 50"><defs><style>.cls-1{fill:#fafafa;stroke:#c8c8c8;stroke-miterlimit:10;stroke-width:1.4px;}.cls-2{fill:#c8c8c8;}.cls-3{fill:#ffc088;}</style></defs><title>speaker</title><rect class="cls-1" x="0.7" y="0.7" width="48.6" height="48.6" rx="8.1" ry="8.1"/><path class="cls-2" d="M29.88,22l1.5-1.5a6.36,6.36,0,0,1,0,9L29.88,28A4.24,4.24,0,0,0,29.88,22Z" transform="translate(0.22 0)"/><path class="cls-2" d="M34.37,32.49L32.87,31a8.48,8.48,0,0,0,0-12l1.5-1.5A10.59,10.59,0,0,1,34.37,32.49Z" transform="translate(0.22 0)"/><path class="cls-2" d="M35.87,34l1.5,1.5a14.83,14.83,0,0,0,0-21L35.87,16A12.71,12.71,0,0,1,35.87,34Z" transform="translate(0.22 0)"/><polygon class="cls-3" points="13.49 18.91 8.07 18.91 8.07 25 8.07 31.09 13.49 31.09 13.49 18.91"/><path class="cls-3" d="M24.26,10.25a3.63,3.63,0,0,0-1.63,1L14.08,18.9V31.1l8.55,7.63a3.63,3.63,0,0,0,1.63,1,1.28,1.28,0,0,0,1.37-1.28v-27A1.28,1.28,0,0,0,24.26,10.25Z" transform="translate(0.22 0)"/></svg>