<svg id="레이어_1" data-name="레이어 1" xmlns="http://www.w3.org/2000/svg" width="50" height="50" viewBox="0 0 50 50"><defs><style>.cls-1{fill:#fafafa;stroke:#c8c8c8;stroke-miterlimit:10;stroke-width:1.4px;}.cls-2{fill:#b7afef;}.cls-3{fill:#c8c8c8;}</style></defs><title>ultrasonic</title><rect class="cls-1" x="0.7" y="0.7" width="48.6" height="48.6" rx="8.1" ry="8.1"/><path class="cls-2" d="M12.54,15.71A10.63,10.63,0,1,0,23.17,26.34,10.63,10.63,0,0,0,12.54,15.71Zm7.9,9.82h-1.3a6.65,6.65,0,0,0-5.79-5.79v-1.3A7.94,7.94,0,0,1,20.44,25.53Zm-8.71-1.89a2.82,2.82,0,0,0-1.89,1.89H8.25A4.37,4.37,0,0,1,11.73,22v1.59ZM9.84,27.15A2.83,2.83,0,0,0,11.73,29v1.59a4.37,4.37,0,0,1-3.48-3.48H9.84ZM13.35,29a2.82,2.82,0,0,0,1.89-1.89h1.59a4.37,4.37,0,0,1-3.48,3.48V29Zm1.89-3.51a2.82,2.82,0,0,0-1.89-1.89V22a4.37,4.37,0,0,1,3.48,3.48H15.24Zm-3.51-7.09v1.3a6.65,6.65,0,0,0-5.79,5.79H4.64A7.94,7.94,0,0,1,11.73,18.44ZM4.64,27.15h1.3a6.65,6.65,0,0,0,5.79,5.79v1.3A7.94,7.94,0,0,1,4.64,27.15Zm8.71,7.08v-1.3a6.65,6.65,0,0,0,5.79-5.79h1.3A7.94,7.94,0,0,1,13.35,34.23Z" transform="translate(5.73 -1.34)"/><path class="cls-3" d="M24.8,23.34l1.5-1.5a6.36,6.36,0,0,1,0,9l-1.5-1.5A4.24,4.24,0,0,0,24.8,23.34Z" transform="translate(5.73 -1.34)"/><path class="cls-3" d="M29.29,33.83l-1.5-1.5a8.48,8.48,0,0,0,0-12l1.5-1.5A10.59,10.59,0,0,1,29.29,33.83Z" transform="translate(5.73 -1.34)"/><path class="cls-3" d="M30.79,35.33l1.5,1.5a14.83,14.83,0,0,0,0-21l-1.5,1.5A12.71,12.71,0,0,1,30.79,35.33Z" transform="translate(5.73 -1.34)"/></svg>