<svg id="레이어_1" data-name="레이어 1" xmlns="http://www.w3.org/2000/svg" width="57" height="44" viewBox="0 0 57 44"><defs><style>.cls-1,.cls-3{fill:#fff;}.cls-2{fill:none;}.cls-2,.cls-3{stroke:#bcbcbc;stroke-miterlimit:10;}.cls-4{fill:#bcbec0;}</style></defs><title>and</title><rect class="cls-1" width="57" height="44"/><line class="cls-2" x1="0.59" y1="0.5" y2="0.5"/><line class="cls-2" x1="0.59" y1="43.5" y2="43.5"/><path class="cls-3" d="M13.71,22h0C8.59,12.32,3.38,2.49,3,1.78A3,3,0,0,0,.49.5" transform="translate(0 0)"/><path class="cls-3" d="M13.74,22h0c5.12,9.68,10.32,19.51,10.71,20.22A3,3,0,0,0,27,43.5" transform="translate(0 0)"/><path class="cls-3" d="M13.74,22h0C18.86,12.32,24.06,2.49,24.45,1.78A3,3,0,0,1,27,.5" transform="translate(0 0)"/><path class="cls-3" d="M13.71,22h0C8.59,31.68,3.38,41.51,3,42.22A3,3,0,0,1,.49,43.5" transform="translate(0 0)"/><line class="cls-2" x1="57" y1="43.5" x2="26.61" y2="43.5"/><line class="cls-2" x1="57" y1="0.5" x2="26.61" y2="0.5"/><path class="cls-4" d="M28.29,17.23a4.08,4.08,0,1,0,1.87,7.7v0.46h2.21V21.31a4.08,4.08,0,0,0-4.08-4.08h0Zm0,6a1.87,1.87,0,1,1,1.87-1.87h0a1.87,1.87,0,0,1-1.87,1.82h0v0.05Z" transform="translate(0 0)"/><path class="cls-4" d="M48.7,10.61v7a4.08,4.08,0,1,0,2.22,3.65V10.61H48.7ZM46.92,23.13a1.82,1.82,0,1,1,1.82-1.82h0A1.82,1.82,0,0,1,46.92,23.13Z" transform="translate(0 0)"/><path class="cls-4" d="M41.65,21.09a4.07,4.07,0,0,0-5.89-3.43V17.23H33.5v8.16h2.26V21.31a1.82,1.82,0,0,1,3.64,0h0v4.08h2.26v-4.3h0Z" transform="translate(0 0)"/></svg>