<svg id="레이어_1" data-name="레이어 1" xmlns="http://www.w3.org/2000/svg" width="38" height="38" viewBox="0 0 38 38"><defs><style>.cls-1{fill:#fff;opacity:0;}.cls-2{fill:#a7a7a7;}.cls-3{fill:#da1c5c;}</style></defs><title>breake</title><rect class="cls-1" width="38" height="38"/><circle class="cls-2" cx="15.57" cy="6.29" r="1.76" transform="translate(5.15 22.93) rotate(-64.92)"/><path class="cls-2" d="M9.8,13.4a1.09,1.09,0,0,0,.52,1.44l1.73,0.81a1.08,1.08,0,0,0,1.44-.52l2.43-5.19A1.08,1.08,0,0,0,15.4,8.5l-1.73-.81a1.08,1.08,0,0,0-1.44.52Z" transform="translate(1.88 5.21)"/><path class="cls-2" d="M14.81,21.94A0.92,0.92,0,0,1,14.08,23h0A0.92,0.92,0,0,1,13,22.3l-1.41-7.17A0.92,0.92,0,0,1,12.32,14h0a0.92,0.92,0,0,1,1.08.73Z" transform="translate(1.88 5.21)"/><path class="cls-2" d="M5.48,15L8.4,16.39l1.37-2.91a0.92,0.92,0,1,1,1.67.79L9.68,18a0.93,0.93,0,0,1-1.23.45h0L4.7,16.7A0.92,0.92,0,0,1,5.48,15Z" transform="translate(1.88 5.21)"/><path class="cls-2" d="M15.07,8.85a0.76,0.76,0,0,1,1,.5l0.78,2.53,2.54-.78a0.76,0.76,0,0,1,.45,1.46l-3.26,1h0a0.77,0.77,0,0,1-.7-0.14,0.76,0.76,0,0,1-.25-0.37l-1-3.26A0.76,0.76,0,0,1,15.07,8.85Z" transform="translate(1.88 5.21)"/><path class="cls-2" d="M14,8.52a0.77,0.77,0,0,1-.92.56L10.5,8.44,9.86,11a0.76,0.76,0,1,1-1.48-.37L9.2,7.34h0a0.77,0.77,0,0,1,.48-0.53,0.8,0.8,0,0,1,.44,0L13.44,7.6A0.76,0.76,0,0,1,14,8.52Z" transform="translate(1.88 5.21)"/><path class="cls-3" d="M21,7V20.57a2.26,2.26,0,0,0,2.26,2.26h4.52a2.26,2.26,0,0,0,2.26-2.26V7a2.26,2.26,0,0,0-2.26-2.26H23.29A2.26,2.26,0,0,0,21,7Zm1.81,13.11V14.6h1.43v1l1.27-.92,1.27-.92-1.27-.93-1.27-.92v1H22.84V7.46a1,1,0,0,1,1.08-1h3.25a1,1,0,0,1,1.08,1V20.12a1,1,0,0,1-1.08,1H23.92A1,1,0,0,1,22.84,20.12Z" transform="translate(1.88 5.21)"/></svg>