<svg id="레이어_1" data-name="레이어 1" xmlns="http://www.w3.org/2000/svg" width="38" height="38" viewBox="0 0 38 38"><defs><style>.cls-1{fill:#fff;opacity:0;}.cls-2{fill:#a7a7a7;}</style></defs><title>custom</title><rect class="cls-1" width="38" height="38"/><path class="cls-2" d="M14.6,20a1.16,1.16,0,0,1-1.59.41h0a1.16,1.16,0,0,1-.41-1.59L19.12,7.75a1.16,1.16,0,0,1,1.59-.41h0a1.16,1.16,0,0,1,.41,1.59Z" transform="translate(2.13 5.52)"/><path class="cls-2" d="M5.78,13.48l5.13-5.13A1.16,1.16,0,1,0,9.27,6.7L3.32,12.64a1.19,1.19,0,0,0,0,1.66l5.95,5.95a1.16,1.16,0,1,0,1.64-1.65Z" transform="translate(2.13 5.52)"/><path class="cls-2" d="M28,13.46l-5.1,5.16a1.16,1.16,0,1,0,1.65,1.64l5.92-6a1.19,1.19,0,0,0,0-1.66l-6-5.92A1.16,1.16,0,1,0,22.8,8.35Z" transform="translate(2.13 5.52)"/></svg>