<svg id="레이어_1" data-name="레이어 1" xmlns="http://www.w3.org/2000/svg" width="39.99" height="20" viewBox="0 0 39.99 20"><defs><style>.cls-1{fill:#fff;fill-opacity:0;}.cls-2{fill:#a7a7a7;}</style></defs><title>break</title><rect class="cls-1" width="39.99" height="20"/><path class="cls-2" d="M26.45,15.86a4,4,0,1,0,1.82,7.56v0.45h2.17v-4a4,4,0,0,0-4-4h0Zm0,5.83a1.83,1.83,0,0,1-1.83-1.83h0A1.83,1.83,0,0,1,26.45,18h0a1.83,1.83,0,0,1,1.83,1.83h0a1.83,1.83,0,0,1-1.83,1.83h0Z" transform="translate(0.54 -9.34)"/><path class="cls-2" d="M17.44,15.87a4,4,0,1,0,0,8h1.77v-2H17.44A2,2,0,0,1,15.79,21h5.55A4.14,4.14,0,0,0,17.44,15.87Zm0,2.06a1.94,1.94,0,0,1,1.65.92h-3.3A2,2,0,0,1,17.44,17.93Z" transform="translate(0.54 -9.34)"/><path class="cls-2" d="M-0.54,10.48v9.39a4,4,0,1,0,2.22-3.58V10.48H-0.54Zm2.22,9.39a1.78,1.78,0,0,1,1.75-1.81h0a1.78,1.78,0,0,1,1.81,1.75h0a1.78,1.78,0,0,1-1.75,1.81h0A1.79,1.79,0,0,1,1.68,19.87Z" transform="translate(0.54 -9.34)"/><polygon class="cls-2" points="39.57 14.53 35.78 10.74 39.99 6.53 36.86 6.53 34.21 9.17 34.21 9.16 34.21 1.17 31.99 1.17 31.99 4.43 31.99 6.95 31.99 10.08 31.99 11.39 31.99 11.77 31.99 14.53 34.21 14.53 34.21 12.31 34.21 12.31 36.44 14.53 39.57 14.53"/><path class="cls-2" d="M10.6,23.87v-4A1.85,1.85,0,0,1,12.45,18V15.87a4,4,0,0,0-4,4v4H10.6Z" transform="translate(0.54 -9.34)"/></svg>