<svg id="레이어_1" data-name="레이어 1" xmlns="http://www.w3.org/2000/svg" width="66.68" height="20" viewBox="0 0 66.68 20"><defs><style>.cls-1{fill:#fff;fill-opacity:0;}.cls-2{fill:#a7a7a7;}</style></defs><title>condition</title><rect class="cls-1" width="66.64" height="20"/><rect class="cls-2" x="36.02" y="6.58" width="2.2" height="7.95"/><circle class="cls-2" cx="37.12" cy="3.18" r="1.2"/><rect class="cls-2" x="46.32" y="6.58" width="2.2" height="7.95"/><circle class="cls-2" cx="47.42" cy="3.18" r="1.2"/><path class="cls-2" d="M40,15.77a4,4,0,1,0,4,4A4,4,0,0,0,40,15.77Zm0,5.7a1.8,1.8,0,1,1,1.8-1.8h0a1.79,1.79,0,0,1-1.73,1.85H40V21.47Z" transform="translate(13.64 -9.24)"/><path class="cls-2" d="M19.08,10.38v5.79a3.42,3.42,0,0,0-1.8-.4,4,4,0,1,0,4,4V10.38h-2.2ZM17.24,21.52a1.8,1.8,0,0,1-1.8-1.8h0a1.8,1.8,0,0,1,1.8-1.8h0a1.8,1.8,0,0,1,1.8,1.8h0a1.79,1.79,0,0,1-1.78,1.8h0Z" transform="translate(13.64 -9.24)"/><path class="cls-2" d="M31.58,15.82v-2.2h-2V11.24h-2.1v2.4h-1.8v2.2h1.8v4a4,4,0,0,0,4,4v-2.1A1.79,1.79,0,0,1,29.68,20h0V15.91h1.9V15.82Z" transform="translate(13.64 -9.24)"/><path class="cls-2" d="M-8.24,20.87a1.75,1.75,0,0,1-1.4.7,1.8,1.8,0,0,1-1.8-1.8h0A1.8,1.8,0,0,1-9.64,18h0a1.75,1.75,0,0,1,1.4.7h2.4a4,4,0,0,0-3.8-2.9,4,4,0,0,0-4,4,4,4,0,0,0,4,4,4,4,0,0,0,3.8-2.9h-2.4Z" transform="translate(13.64 -9.24)"/><path class="cls-2" d="M12.24,19.62a4,4,0,0,0-4-3.8,5.84,5.84,0,0,0-1.8.4V15.87H4.24v7.9h2.2v-3.9a1.8,1.8,0,0,1,1.8-1.8h0a1.8,1.8,0,0,1,1.8,1.8h0v3.9h2.2V19.62h0Z" transform="translate(13.64 -9.24)"/><path class="cls-2" d="M53,19.62a4,4,0,0,0-4-3.8,5.84,5.84,0,0,0-1.76.42V15.89H45v7.9h2.2v-3.9a1.8,1.8,0,1,1,3.6,0h0v3.9H53V19.64h0Z" transform="translate(13.64 -9.24)"/><path class="cls-2" d="M-0.76,15.82a4,4,0,0,0-3.95,4,4,4,0,0,0,4,3.95,4,4,0,0,0,3.95-4,4,4,0,0,0-4-4h0v0.05Zm0,5.74a1.77,1.77,0,0,1-1.77-1.77A1.77,1.77,0,0,1-.76,18,1.77,1.77,0,0,1,1,19.79H1A1.77,1.77,0,0,1-.75,21.57h0Z" transform="translate(13.64 -9.24)"/></svg>