<svg id="레이어_1" data-name="레이어 1" xmlns="http://www.w3.org/2000/svg" width="14.13" height="20" viewBox="0 0 14.13 20"><defs><style>.cls-1{fill:#fff;fill-opacity:0;}.cls-2{fill:#58595b;}</style></defs><title>equalTo</title><rect class="cls-1" x="0.01" width="14.12" height="20"/><path class="cls-2" d="M0.87,10.92H5.42a0.87,0.87,0,0,1,.87.87h0a0.87,0.87,0,0,1-.87.87H0.87A0.87,0.87,0,0,1,0,11.8H0a0.87,0.87,0,0,1,.87-0.87h0Z" transform="translate(0.01)"/><path class="cls-2" d="M0.87,7.34H5.42a0.87,0.87,0,0,1,.87.87h0a0.87,0.87,0,0,1-.87.87H0.87A0.87,0.87,0,0,1,0,8.22H0A0.87,0.87,0,0,1,.86,7.34h0Z" transform="translate(0.01)"/><path class="cls-2" d="M8.7,10.92h4.55a0.87,0.87,0,0,1,.87.87h0a0.87,0.87,0,0,1-.87.87H8.7a0.87,0.87,0,0,1-.87-0.87h0A0.87,0.87,0,0,1,8.7,10.92Z" transform="translate(0.01)"/><path class="cls-2" d="M8.7,7.34h4.55a0.87,0.87,0,0,1,.87.87h0a0.87,0.87,0,0,1-.87.87H8.7a0.87,0.87,0,0,1-.87-0.87h0A0.87,0.87,0,0,1,8.7,7.34Z" transform="translate(0.01)"/></svg>