<svg id="레이어_1" data-name="레이어 1" xmlns="http://www.w3.org/2000/svg" width="8.6" height="20" viewBox="0 0 8.6 20"><defs><style>.cls-1{fill:#fff;fill-opacity:0;}.cls-2{fill:#58595b;}</style></defs><title>greaterThanOrEqualTo</title><rect class="cls-1" width="8.6" height="20"/><rect class="cls-1" x="0.03" y="4" width="8.57" height="12"/><path class="cls-2" d="M0.9,13.37H7.73a0.87,0.87,0,0,1,.87.87h0a0.87,0.87,0,0,1-.87.87H0.9A0.87,0.87,0,0,1,0,14.27s0,0,0,0H0a0.87,0.87,0,0,1,.87-0.87h0Z" transform="translate(0)"/><rect class="cls-2" x="3.45" y="2.67" width="1.74" height="9.19" rx="0.87" ry="0.87" transform="translate(-4.09 8.15) rotate(-65.29)"/><path class="cls-2" d="M0.57,11.15L7.34,8a0.87,0.87,0,0,1,1.15.43h0a0.87,0.87,0,0,1-.43,1.15L1.3,12.73A0.87,0.87,0,0,1,.14,12.3h0A0.87,0.87,0,0,1,.57,11.15Z" transform="translate(0)"/></svg>