<svg id="레이어_1" data-name="레이어 1" xmlns="http://www.w3.org/2000/svg" width="8.52" height="20" viewBox="0 0 8.52 20"><defs><style>.cls-1{fill:#fff;fill-opacity:0;}.cls-2{fill:#58595b;}</style></defs><title>greaterThan</title><rect class="cls-1" width="8.51" height="20"/><path class="cls-2" d="M1.24,6.09L8,9.21a0.87,0.87,0,0,1,.43,1.15h0a0.87,0.87,0,0,1-1.15.43L0.51,7.67A0.87,0.87,0,0,1,.09,6.52h0A0.87,0.87,0,0,1,1.24,6.09Z"/><path class="cls-2" d="M0.51,12.33L7.28,9.21a0.87,0.87,0,0,1,1.15.43h0A0.87,0.87,0,0,1,8,10.79L1.24,13.91a0.87,0.87,0,0,1-1.15-.43h0A0.87,0.87,0,0,1,.51,12.33Z"/></svg>