<svg id="레이어_1" data-name="레이어 1" xmlns="http://www.w3.org/2000/svg" width="8.6" height="20" viewBox="0 0 8.6 20"><defs><style>.cls-1{fill:#fff;fill-opacity:0;}.cls-2{fill:#58595b;}</style></defs><title>lessThanOrEqualTo</title><rect class="cls-1" width="8.6" height="20"/><rect class="cls-1" x="0.03" y="4" width="8.57" height="12"/><path class="cls-2" d="M7.73,13.37H0.9a0.87,0.87,0,0,0-.87.87H0a0.87,0.87,0,0,0,.87.87H7.73a0.87,0.87,0,0,0,.87-0.87h0a0.87,0.87,0,0,0-.87-0.87h0Z"/><rect class="cls-2" x="-0.28" y="6.39" width="9.19" height="1.74" rx="0.87" ry="0.87" transform="translate(-2.64 2.47) rotate(-24.71)"/><path class="cls-2" d="M7.34,12.73L0.57,9.61A0.87,0.87,0,0,1,.14,8.46h0A0.87,0.87,0,0,1,1.3,8l6.77,3.11a0.87,0.87,0,0,1,.43,1.15h0A0.87,0.87,0,0,1,7.34,12.73Z"/></svg>