<svg id="레이어_1" data-name="레이어 1" xmlns="http://www.w3.org/2000/svg" width="8.51" height="20" viewBox="0 0 8.51 20"><defs><style>.cls-1{fill:#fff;fill-opacity:0;}.cls-2{fill:#58595b;}</style></defs><title>lessThan</title><rect class="cls-1" width="8.51" height="20"/><path class="cls-2" d="M7.27,13.9L0.51,10.79A0.87,0.87,0,0,1,.08,9.63h0a0.87,0.87,0,0,1,1.15-.43L8,12.32a0.87,0.87,0,0,1,.43,1.15h0A0.87,0.87,0,0,1,7.27,13.9Z" transform="translate(0)"/><path class="cls-2" d="M8,7.68L1.23,10.79a0.87,0.87,0,0,1-1.15-.43h0A0.87,0.87,0,0,1,.5,9.21L7.27,6.1a0.87,0.87,0,0,1,1.15.43h0A0.87,0.87,0,0,1,8,7.68Z" transform="translate(0)"/></svg>