<svg id="레이어_1" data-name="레이어 1" xmlns="http://www.w3.org/2000/svg" width="12.4" height="20" viewBox="0 0 12.4 20"><defs><style>.cls-1{fill:#fff;fill-opacity:0;}.cls-2{fill:#58595b;}</style></defs><title>notEqualTo</title><rect class="cls-1" width="12.4" height="20"/><path class="cls-2" d="M1,4H1a0.87,0.87,0,0,1,.87.87V11.7a0.87,0.87,0,0,1-.87.87H1A0.87,0.87,0,0,1,.11,11.7V4.87A0.87,0.87,0,0,1,1,4Z"/><circle class="cls-2" cx="0.99" cy="15.01" r="0.99"/><path class="cls-2" d="M7,10.92h4.55a0.87,0.87,0,0,1,.87.87h0a0.87,0.87,0,0,1-.87.87H7a0.87,0.87,0,0,1-.87-0.87h0A0.87,0.87,0,0,1,7,10.92Z"/><path class="cls-2" d="M7,7.34h4.55a0.87,0.87,0,0,1,.87.87h0a0.87,0.87,0,0,1-.87.87H7a0.87,0.87,0,0,1-.87-0.87h0A0.87,0.87,0,0,1,7,7.34Z"/></svg>