<svg id="레이어_1" data-name="레이어 1" xmlns="http://www.w3.org/2000/svg" width="46" height="44" viewBox="0 0 46 44"><defs><style>.cls-1,.cls-3{fill:#fff;}.cls-2{fill:none;}.cls-2,.cls-3{stroke:#26cad3;stroke-miterlimit:10;stroke-width:2px;}.cls-4{fill:#bcbec0;}</style></defs><title>oroN</title><rect class="cls-1" width="46" height="44"/><line class="cls-2" x1="0.6" y1="1" y2="1"/><line class="cls-2" x1="0.6" y1="43" y2="43"/><path class="cls-3" d="M13.7,22h0C8.6,12.53,3.4,3,3,2.27A3.15,3.15,0,0,0,.5,1" transform="translate(0 0)"/><path class="cls-3" d="M13.7,22h0C18.8,31.47,24,41,24.4,41.73A3.15,3.15,0,0,0,26.9,43" transform="translate(0 0)"/><path class="cls-3" d="M13.7,22h0C18.8,12.53,24,3,24.4,2.27A3.15,3.15,0,0,1,26.9,1" transform="translate(0 0)"/><path class="cls-3" d="M13.7,22h0C8.6,31.47,3.4,41,3,41.73A3.15,3.15,0,0,1,.5,43" transform="translate(0 0)"/><line class="cls-2" x1="46" y1="43" x2="26.5" y2="43"/><line class="cls-2" x1="46" y1="1" x2="26.5" y2="1"/><path class="cls-4" d="M30.9,17.3a4,4,0,0,0-4,4v0.1a4.1,4.1,0,0,0,4.1,4,4,4,0,0,0,4-4V21.3a4,4,0,0,0-4-4H30.9Zm0,5.8a1.8,1.8,0,1,1,1.8-1.8h0a1.79,1.79,0,0,1-1.78,1.8h0Z" transform="translate(0 0)"/><path class="cls-4" d="M38.3,25.4V21.3a1.88,1.88,0,0,1,1.9-1.8h0V17.2a4.14,4.14,0,0,0-1.9.5V17.2H36.1v8.1A16.2,16.2,0,0,0,38.3,25.4Z" transform="translate(0 0)"/></svg>