<?xml version="1.0" encoding="utf-8"?>
<!-- Generator: Adobe Illustrator 16.0.0, SVG Export Plug-In . SVG Version: 6.00 Build 0)  -->
<!DOCTYPE svg PUBLIC "-//W3C//DTD SVG 1.1//EN" "http://www.w3.org/Graphics/SVG/1.1/DTD/svg11.dtd">
<svg version="1.1" id="Layer_1" xmlns="http://www.w3.org/2000/svg" xmlns:xlink="http://www.w3.org/1999/xlink" x="0px" y="0px"
	 width="158px" height="178px" viewBox="0 0 158 178" enable-background="new 0 0 158 178" xml:space="preserve">
<g opacity="0.1">
	<g>
		<rect x="87.288" y="26.682" fill="#26CAD3" width="26.068" height="65.18"/>
		<path fill="#26CAD3" d="M100.32,102.914c7.101,0,12.862,5.754,12.862,12.854c0,7.098-5.762,12.852-12.862,12.852
			c-7.108,0-12.858-5.754-12.858-12.852C87.462,108.668,93.212,102.914,100.32,102.914z"/>
	</g>
	<g>
		<path fill="#26CAD3" d="M16.704,77.655c0-35.218,21.781-65.331,52.598-77.655H36.765C14.753,18.038,0.554,45.25,0,75.799v3.704
			C0.988,134.069,45.522,178,100.323,178c21.469,0,41.359-6.744,57.677-18.227v-21.61c-15.006,14.306-35.307,23.108-57.677,23.108
			C54.142,161.271,16.704,123.833,16.704,77.655z"/>
		<path fill="#26CAD3" d="M158,17.141V0h-26.653C141.32,3.996,150.351,9.847,158,17.141z"/>
	</g>
</g>
</svg>
