<?xml version="1.0" encoding="utf-8"?>
<!-- Generator: Adobe Illustrator 16.0.0, SVG Export Plug-In . SVG Version: 6.00 Build 0)  -->
<!DOCTYPE svg PUBLIC "-//W3C//DTD SVG 1.1//EN" "http://www.w3.org/Graphics/SVG/1.1/DTD/svg11.dtd">
<svg version="1.1" id="Layer_1" xmlns="http://www.w3.org/2000/svg" xmlns:xlink="http://www.w3.org/1999/xlink" x="0px" y="0px"
	 width="158px" height="178px" viewBox="0 0 158 178" enable-background="new 0 0 158 178" xml:space="preserve">
<g opacity="0.1">
	<polygon fill="#26CAD3" points="57.932,76.214 85.147,112.955 155.483,41.563 85.71,94.848 	"/>
	<path fill="#939393" d="M158,137.508c-20.506,19.477-49.994,27.566-78.273,20.199c-35.029-9.133-60.158-39.891-62.104-76.057
		c-5.866,0-11.733,0-17.625,0C2.375,135.533,46.761,178,100.699,178c21.245,0,41.004-6.588,57.301-17.863V137.508z"/>
	<g>
		<path fill="#939393" d="M69.726,0H35.879C15,17.546,1.306,43.434,0,72.699v0.051c15.116-9.512,30.218-19.036,45.339-28.547
			c-4.979-3.789-9.984-7.605-14.991-11.42C39.942,17.597,53.86,6.363,69.726,0z"/>
		<path fill="#939393" d="M158,16.9V0h-26.294C141.603,3.974,150.485,9.754,158,16.9z"/>
	</g>
</g>
</svg>
