<svg id="Layer_1" data-name="Layer 1" xmlns="http://www.w3.org/2000/svg" viewBox="0 0 120 30"><defs><style>.cls-1{fill:#fff;fill-opacity:0;}.cls-2{fill:#26cad3;}</style></defs><title>goBackOn</title><path class="cls-1" d="M120,28A2,2,0,0,1,118,30H2A2,2,0,0,1,0,28V2.09A2,2,0,0,1,2,0H118a2,2,0,0,1,2,2.07V28Z" transform="translate(0 -0.02)"/><path class="cls-2" d="M10.51,15l5-5a1.12,1.12,0,1,0-1.59-1.59L8.13,14.18a1.14,1.14,0,0,0,0,1.6l5.74,5.74A1.12,1.12,0,1,0,15.47,20Z" transform="translate(0 -0.02)"/></svg>