<svg id="Layer_1" data-name="Layer 1" xmlns="http://www.w3.org/2000/svg" viewBox="0 0 118 88"><defs><style>.cls-1{fill:#26cad3;}.cls-2{fill:none;stroke:#fff;stroke-miterlimit:10;}.cls-3{fill:#fff;}</style></defs><title>landingGettingStartOn</title><rect class="cls-1" width="118" height="88"/><path class="cls-2" d="M69,20.68H49A3.28,3.28,0,0,0,45.76,24v21.7l4.39-4H69a3.28,3.28,0,0,0,3.28-3.28V24A3.28,3.28,0,0,0,69,20.68Z"/><circle class="cls-3" cx="62.9" cy="29.71" r="3.66"/><path class="cls-3" d="M68.17,41.61v-4.5a5,5,0,0,0-2-4,4.47,4.47,0,0,1-6.49,0,5,5,0,0,0-2,4v4.5H68.17Z"/><path class="cls-3" d="M57.16,25.5a0.54,0.54,0,0,1-.54.54H48.56A0.54,0.54,0,0,1,48,25.5h0A0.54,0.54,0,0,1,48.56,25h8.06a0.54,0.54,0,0,1,.54.54h0Z"/><path class="cls-3" d="M57.16,27.64a0.54,0.54,0,0,1-.54.54H48.56A0.54,0.54,0,0,1,48,27.64h0a0.54,0.54,0,0,1,.54-0.54h8.06a0.54,0.54,0,0,1,.54.54h0Z"/><path class="cls-3" d="M52,29.79a0.54,0.54,0,0,1-.54.54H48.56A0.54,0.54,0,0,1,48,29.79h0a0.54,0.54,0,0,1,.54-0.54h2.88a0.54,0.54,0,0,1,.54.54h0Z"/></svg>