<svg id="Layer_1" data-name="Layer 1" xmlns="http://www.w3.org/2000/svg" width="117.98" height="87.99" viewBox="0 0 117.98 87.99">
  <defs>
    <style>
      .cls-1 {
        fill: #26cad3;
      }

      .cls-2 {
        fill: #fff;
      }

      .cls-3 {
        fill: none;
        stroke: #fff;
        stroke-miterlimit: 10;
      }
    </style>
  </defs>
  <title>landingNewProjectOn</title>
  <rect class="cls-1" width="117.98" height="87.99"/>
  <polygon class="cls-2" points="63.99 19.44 63.99 24.8 69.34 24.8 69.34 24.8 63.99 19.44"/>
  <polygon class="cls-3" points="64.22 19.19 48.4 19.19 48.4 45.65 69.58 45.65 69.58 24.55 64.22 19.19"/>
  <polygon class="cls-2" points="63.99 19.44 63.99 24.8 69.34 24.8 69.34 24.8 63.99 19.44"/>
  <path class="cls-2" d="M55.72,33.19h0a1.16,1.16,0,0,1,1.15,1.16v7.91a1.16,1.16,0,0,1-1.15,1.16h0a1.16,1.16,0,0,1-1.15-1.16V34.35A1.16,1.16,0,0,1,55.72,33.19Z" transform="translate(-0.01)"/>
  <rect class="cls-2" x="50.59" y="37.14" width="10.23" height="2.31" rx="1.15" ry="1.15"/>
</svg>
