<svg id="Layer_1" data-name="Layer 1" xmlns="http://www.w3.org/2000/svg" viewBox="0 0 118 88"><defs><style>.cls-1{fill:#26cad3;}.cls-2{fill:none;stroke:#fff;stroke-miterlimit:10;}.cls-3{fill:#fff;}</style></defs><title>landingOpenAsOn</title><rect class="cls-1" width="118" height="88"/><polygon class="cls-2" points="64.23 19.19 48.41 19.19 48.41 45.66 69.59 45.66 69.59 24.55 64.23 19.19"/><polygon class="cls-3" points="64 19.44 64 24.8 69.35 24.8 69.35 24.8 64 19.44"/><path class="cls-3" d="M60.17,37.22L56.4,33.45h0a1.11,1.11,0,0,0-.17-0.14l-0.1-.05L56,33.19l-0.13,0-0.09,0-0.23,0-0.23,0-0.08,0-0.14,0-0.1.05-0.11.06a1.12,1.12,0,0,0-.17.13h0L51,37.22a1.18,1.18,0,0,0,1.67,1.66l1.76-1.76v5.12a1.18,1.18,0,0,0,2.36,0V37.13l1.76,1.76A1.18,1.18,0,0,0,60.17,37.22Z"/></svg>