<?xml version="1.0" encoding="utf-8"?>
<!-- Generator: Adobe Illustrator 16.0.0, SVG Export Plug-In . SVG Version: 6.00 Build 0)  -->
<!DOCTYPE svg PUBLIC "-//W3C//DTD SVG 1.1//EN" "http://www.w3.org/Graphics/SVG/1.1/DTD/svg11.dtd">
<svg version="1.1" id="Layer_1" xmlns="http://www.w3.org/2000/svg" xmlns:xlink="http://www.w3.org/1999/xlink" x="0px" y="0px"
	 width="40px" height="40px" viewBox="0 0 40 40" enable-background="new 0 0 40 40" xml:space="preserve">
<rect x="0" fill="#ED1C24" width="40" height="40"/>
<path fill="#FFFFFF" d="M21.703,19.999l4.949-4.946c0.472-0.471,0.472-1.233,0-1.705c-0.471-0.471-1.236-0.471-1.707,0l-4.95,4.946
	l-4.942-4.945c-0.471-0.471-1.234-0.471-1.705,0c-0.471,0.471-0.471,1.233,0,1.705L18.294,20l-4.946,4.945
	c-0.471,0.473-0.471,1.234,0,1.705c0.471,0.473,1.234,0.473,1.705,0l4.942-4.944l4.95,4.944c0.471,0.473,1.236,0.473,1.707,0
	c0.472-0.471,0.472-1.232,0-1.705L21.703,19.999z"/>
</svg>
