<?xml version="1.0" encoding="utf-8"?>
<!-- Generator: Adobe Illustrator 16.0.0, SVG Export Plug-In . SVG Version: 6.00 Build 0)  -->
<!DOCTYPE svg PUBLIC "-//W3C//DTD SVG 1.1//EN" "http://www.w3.org/Graphics/SVG/1.1/DTD/svg11.dtd">
<svg version="1.1" id="Layer_1" xmlns="http://www.w3.org/2000/svg" xmlns:xlink="http://www.w3.org/1999/xlink" x="0px" y="0px"
	 width="50px" height="50px" viewBox="0 0 50 50" enable-background="new 0 0 50 50" xml:space="preserve">
<rect opacity="0" fill="#FFFFFF" width="50" height="50"/>
<g>
	<g>
		<path fill="#FBB851" d="M2.819,43.3c-2.379,0-3.348-1.436-2.158-3.496L22.833,1.515c1.193-2.061,3.138-1.997,4.328,0.058
			l22.178,38.202c1.193,2.058,0.215,3.525-2.162,3.525H2.819z"/>
	</g>
	<rect x="21.68" y="13.039" fill="#594C72" width="6.492" height="16.211"/>
	<path fill="#594C72" d="M24.932,31.997c1.769,0,3.195,1.433,3.195,3.199c0,1.765-1.426,3.195-3.195,3.195
		c-1.766,0-3.194-1.431-3.194-3.195C21.738,33.43,23.167,31.997,24.932,31.997z"/>
</g>
</svg>
