<svg id="레이어_1" data-name="레이어 1" xmlns="http://www.w3.org/2000/svg" viewBox="0 0 80.05 80"><defs><style>.cls-1,.cls-12{fill:#fff;}.cls-1{opacity:0;}.cls-2{fill:#26cad3;}.cls-3{fill:#7c64ed;}.cls-4{fill:#f1f2f2;stroke:#d1d3d4;}.cls-12,.cls-13,.cls-4{stroke-miterlimit:10;}.cls-5{fill:#b7afef;}.cls-6{fill:#d1d1d1;}.cls-7{fill:#f9c941;}.cls-8{fill:#414042;}.cls-9{fill:#443a35;}.cls-10{fill:#231f20;}.cls-11{fill:#90e0de;}.cls-12{stroke:#939598;}.cls-13{fill:none;stroke:#7c64ed;}</style></defs><title>wizardImage</title><rect class="cls-1" x="0.02" width="80" height="80"/><circle class="cls-2" cx="39.58" cy="45.47" r="30.27"/><path class="cls-3" d="M44.13,61.64H35.18a4.57,4.57,0,0,0-4.57,4.57v8.22a30.42,30.42,0,0,0,18.08-.06V66.21A4.57,4.57,0,0,0,44.13,61.64Z" transform="translate(0.02 -0.03)"/><rect class="cls-4" x="18.87" y="32.82" width="42.3" height="28.81"/><path class="cls-5" d="M23.79,50a4,4,0,0,0,4,4h24.5a4,4,0,0,0,4-4V43H23.79v7Z" transform="translate(0.02 -0.03)"/><polygon class="cls-3" points="61.18 32.82 18.87 32.82 4.55 36.08 18.87 34.63 18.87 42.98 61.18 42.98 61.18 34.63 75.5 36.08 61.18 32.82"/><rect class="cls-6" x="18.86" y="34.63" width="42.3" height="8.35"/><rect x="26.79" y="45.47" width="2.88" height="5.98" rx="0.82" ry="0.82"/><rect x="50.38" y="45.47" width="2.88" height="5.98" rx="0.82" ry="0.82"/><circle class="cls-7" cx="35.93" cy="49.56" r="0.45"/><circle class="cls-7" cx="37.98" cy="49.56" r="0.45"/><circle class="cls-7" cx="40.02" cy="49.56" r="0.45"/><circle class="cls-7" cx="42.07" cy="49.56" r="0.45"/><circle class="cls-7" cx="44.12" cy="49.56" r="0.45"/><circle class="cls-7" cx="37.98" cy="51.33" r="0.45"/><circle class="cls-7" cx="40.02" cy="51.33" r="0.45"/><circle class="cls-7" cx="42.07" cy="51.33" r="0.45"/><path class="cls-8" d="M44.07,54.86H35.93a0.49,0.49,0,0,0-.49.49h0a0.49,0.49,0,0,0,.49.49h8.14a0.49,0.49,0,0,0,.49-0.49h0A0.49,0.49,0,0,0,44.07,54.86Z" transform="translate(0.02 -0.03)"/><path class="cls-9" d="M18.74,34.66C8.38,34.66,0,36.53,0,38.83S8.38,43,18.74,43h0.11V34.67H18.74Z" transform="translate(0.02 -0.03)"/><path class="cls-9" d="M61.26,43C71.62,43,80,41.13,80,38.83s-8.4-4.16-18.76-4.16H61.15V43h0.11Z" transform="translate(0.02 -0.03)"/><path class="cls-3" d="M18.85,32.85s9.31-6.29,9.45-21.55c0,0-.14-3.17,2.06-3.23S41.44,8.59,45.57,6.81a6.71,6.71,0,0,0,0-4.12c-0.74-2.06,1.93-1.4,1.93-1.4s8.56,1.4,11.84,2.9l-7,.56s-1.15,0-.52,1.37c0.35,0.77,2.48,5.27,2.48,5.27s0.66,1.33-.47,1.78S48.13,16.35,48.68,17,61.15,32.85,61.15,32.85H18.85Z" transform="translate(0.02 -0.03)"/><path class="cls-10" d="M23.1,26.47S20.86,31,18.85,32.85h42.3s-2.94-4.23-3.22-6.38H23.1Z" transform="translate(0.02 -0.03)"/><path class="cls-11" d="M33.29,21.61c0-.26-1-0.48-2.29-0.53,0-1.31-.26-2.29-0.53-2.29s-0.48,1-.53,2.29c-1.31,0-2.29.26-2.29,0.53s1,0.48,2.29.53c0,1.31.26,2.29,0.53,2.29s0.48-1,.53-2.29C32.31,22.09,33.29,21.87,33.29,21.61Z" transform="translate(0.02 -0.03)"/><path class="cls-11" d="M49.29,10.59c0-.26-1-0.48-2.29-0.53,0-1.31-.26-2.29-0.53-2.29s-0.48,1-.53,2.29c-1.31,0-2.29.26-2.29,0.53s1,0.48,2.29.53c0,1.31.26,2.29,0.53,2.29s0.48-1,.53-2.29C48.3,11.07,49.29,10.85,49.29,10.59Z" transform="translate(0.02 -0.03)"/><path class="cls-11" d="M45.32,18.79c0-.26-1-0.48-2.29-0.53C43,17,42.76,16,42.5,16S42,17,42,18.26c-1.31,0-2.29.26-2.29,0.53s1,0.48,2.29.53c0,1.31.26,2.29,0.53,2.29s0.48-1,.53-2.29C44.33,19.27,45.32,19,45.32,18.79Z" transform="translate(0.02 -0.03)"/><path class="cls-11" d="M35,11.48a1.62,1.62,0,0,0-1.15-.26,1.62,1.62,0,0,0-.26-1.15,1.62,1.62,0,0,0-.26,1.15,1.62,1.62,0,0,0-1.15.26,1.62,1.62,0,0,0,1.15.26,1.62,1.62,0,0,0,.26,1.15,1.62,1.62,0,0,0,.26-1.15A1.62,1.62,0,0,0,35,11.48Z" transform="translate(0.02 -0.03)"/><path class="cls-11" d="M37.76,18.24A1.62,1.62,0,0,0,36.61,18a1.62,1.62,0,0,0-.26-1.15A1.62,1.62,0,0,0,36.09,18a1.62,1.62,0,0,0-1.15.26,1.62,1.62,0,0,0,1.15.26,1.62,1.62,0,0,0,.26,1.15,1.62,1.62,0,0,0,.26-1.15A1.62,1.62,0,0,0,37.76,18.24Z" transform="translate(0.02 -0.03)"/><path class="cls-11" d="M50.36,4.72a1.62,1.62,0,0,0-1.15-.26,1.62,1.62,0,0,0-.26-1.15,1.62,1.62,0,0,0-.26,1.15,1.62,1.62,0,0,0-1.15.26A1.62,1.62,0,0,0,48.69,5a1.62,1.62,0,0,0,.26,1.15A1.62,1.62,0,0,0,49.21,5,1.62,1.62,0,0,0,50.36,4.72Z" transform="translate(0.02 -0.03)"/><path class="cls-11" d="M50.7,23.61a1.62,1.62,0,0,0-1.15-.26,1.62,1.62,0,0,0-.26-1.15A1.62,1.62,0,0,0,49,23.34a1.62,1.62,0,0,0-1.15.26,1.62,1.62,0,0,0,1.15.26A1.62,1.62,0,0,0,49.29,25a1.62,1.62,0,0,0,.26-1.15A1.62,1.62,0,0,0,50.7,23.61Z" transform="translate(0.02 -0.03)"/><path class="cls-12" d="M56.69,69a1.08,1.08,0,0,1-1.16,1L54.66,70,54.72,70l3.49,3.49a1,1,0,0,1-1.39,1.39l0.24,0.24a1,1,0,1,1-1.39,1.39l-0.24-.24A1,1,0,0,1,54,77.68l-0.48-.48a1,1,0,1,1-1.39,1.39l-3-3-0.94-.94-0.78-.78a2.88,2.88,0,0,1,0-4.07l1.48-1.48a2.87,2.87,0,0,1,2.78-.74l4,0.31A1.08,1.08,0,0,1,56.69,69Z" transform="translate(0.02 -0.03)"/><line class="cls-12" x1="56.85" y1="74.87" x2="54.47" y2="72.49"/><line class="cls-12" x1="55.53" y1="76.33" x2="53.08" y2="73.88"/><line class="cls-12" x1="53.92" y1="77.5" x2="51.69" y2="75.27"/><path class="cls-12" d="M22.37,69a1.08,1.08,0,0,0,1.16,1L24.4,70,24.33,70l-3.49,3.49a1,1,0,0,0,1.39,1.39L22,75.14a1,1,0,1,0,1.39,1.39l0.24-.24A1,1,0,0,0,25,77.68l0.48-.48a1,1,0,1,0,1.39,1.39l3-3,0.94-.94,0.78-.78a2.88,2.88,0,0,0,0-4.07l-1.48-1.48a2.87,2.87,0,0,0-2.78-.74l-4,.31A1.08,1.08,0,0,0,22.37,69Z" transform="translate(0.02 -0.03)"/><line class="cls-12" x1="22.26" y1="74.87" x2="24.64" y2="72.49"/><line class="cls-12" x1="23.58" y1="76.33" x2="26.03" y2="73.88"/><line class="cls-12" x1="25.18" y1="77.5" x2="27.41" y2="75.27"/><circle class="cls-13" cx="26.25" cy="47.85" r="9.95"/><circle class="cls-13" cx="53.77" cy="47.85" r="9.95"/><path class="cls-13" d="M43.81,48.41a9.39,9.39,0,0,0-7.64,0" transform="translate(0.02 -0.03)"/><path class="cls-10" d="M26,61.67l4.86,3a4.53,4.53,0,0,1,.89-1.52,19.07,19.07,0,0,1,7.9,2.62,7.6,7.6,0,0,0-5-4.14" transform="translate(0.02 -0.03)"/><path class="cls-10" d="M53.3,61.67l-4.86,3a4.53,4.53,0,0,0-.89-1.52,19.07,19.07,0,0,0-7.9,2.62,7.6,7.6,0,0,1,5-4.14" transform="translate(0.02 -0.03)"/><line class="cls-10" x1="39.68" y1="65.58" x2="39.68" y2="66.07"/><path class="cls-11" d="M45.32,70.35c0-.26-1-0.48-2.29-0.53,0-1.31-.26-2.29-0.53-2.29s-0.48,1-.53,2.29c-1.31,0-2.29.26-2.29,0.53s1,0.48,2.29.53c0,1.31.26,2.29,0.53,2.29s0.48-1,.53-2.29C44.33,70.83,45.32,70.62,45.32,70.35Z" transform="translate(0.02 -0.03)"/><path class="cls-11" d="M47.38,66.1a1.62,1.62,0,0,0-1.15-.26A1.62,1.62,0,0,0,46,64.69a1.62,1.62,0,0,0-.26,1.15,1.62,1.62,0,0,0-1.15.26,1.62,1.62,0,0,0,1.15.26A1.62,1.62,0,0,0,46,67.51a1.62,1.62,0,0,0,.26-1.15A1.62,1.62,0,0,0,47.38,66.1Z" transform="translate(0.02 -0.03)"/><path class="cls-11" d="M35,73a1.62,1.62,0,0,0-1.15-.26,1.62,1.62,0,0,0-.26-1.15,1.62,1.62,0,0,0-.26,1.15,1.62,1.62,0,0,0-1.15.26,1.62,1.62,0,0,0,1.15.26,1.62,1.62,0,0,0,.26,1.15,1.62,1.62,0,0,0,.26-1.15A1.62,1.62,0,0,0,35,73Z" transform="translate(0.02 -0.03)"/><path class="cls-11" d="M35.65,65.86a1.62,1.62,0,0,0-1.15-.26,1.62,1.62,0,0,0-.26-1.15A1.62,1.62,0,0,0,34,65.6a1.62,1.62,0,0,0-1.15.26,1.62,1.62,0,0,0,1.15.26,1.62,1.62,0,0,0,.26,1.15,1.62,1.62,0,0,0,.26-1.15A1.62,1.62,0,0,0,35.65,65.86Z" transform="translate(0.02 -0.03)"/><path class="cls-11" d="M38.29,69.75a0.91,0.91,0,0,0-.64-0.15A0.91,0.91,0,0,0,37.5,69a0.91,0.91,0,0,0-.15.64,0.91,0.91,0,0,0-.64.15,0.91,0.91,0,0,0,.64.15,0.91,0.91,0,0,0,.15.64,0.91,0.91,0,0,0,.15-0.64A0.91,0.91,0,0,0,38.29,69.75Z" transform="translate(0.02 -0.03)"/></svg>