<svg id="레이어_1" data-name="레이어 1" xmlns="http://www.w3.org/2000/svg" width="50" height="50" viewBox="0 0 50 50"><defs><style>.cls-1{fill:#fafafa;stroke:#c8c8c8;stroke-miterlimit:10;stroke-width:1.4px;}.cls-2{fill:#c8c8c8;}.cls-3{fill:#ffe66c;}</style></defs><title>battery</title><rect class="cls-1" x="0.7" y="0.7" width="48.6" height="48.6" rx="8.1" ry="8.1"/><path class="cls-2" d="M10,21.72H8.56a0.72,0.72,0,0,0-.72.72v5.12a0.72,0.72,0,0,0,.72.72H10V21.72Z" transform="translate(0 0)"/><path class="cls-2" d="M40.31,16.2h-29A1.84,1.84,0,0,0,9.51,18V32a1.84,1.84,0,0,0,1.84,1.84h29A1.84,1.84,0,0,0,42.15,32V18A1.84,1.84,0,0,0,40.31,16.2ZM41.09,32a0.74,0.74,0,0,1-.74.74h-29A0.74,0.74,0,0,1,10.65,32V18a0.74,0.74,0,0,1,.74-0.74h29a0.74,0.74,0,0,1,.74.74V32Z" transform="translate(0 0)"/><path class="cls-3" d="M26.56,18.12L18.61,31.88h21a0.66,0.66,0,0,0,.66-0.66V18.78a0.66,0.66,0,0,0-.66-0.66H26.56Z" transform="translate(0 0)"/></svg>