<svg id="레이어_1" data-name="레이어 1" xmlns="http://www.w3.org/2000/svg" width="50" height="50" viewBox="0 0 50 50"><defs><style>.cls-1{fill:#d1d3d4;}.cls-2{fill:#a7a9ac;}.cls-3{fill:#808285;}.cls-4{fill:#f1f1f1;}</style></defs><title>empty</title><rect class="cls-1" width="50" height="50" rx="9.07" ry="9.07"/><polygon class="cls-2" points="33.73 21.1 16.23 21.1 13.32 24.95 36.63 24.95 33.73 21.1"/><rect class="cls-3" x="16.23" y="21.1" width="17.5" height="3.85"/><path class="cls-4" d="M12.48,19.39a0.71,0.71,0,0,0-.56,0L7.68,20.92h0a0.42,0.42,0,0,0,0,.7L13.33,25l2.9-3.85Z" transform="translate(0 -0.08)"/><path class="cls-4" d="M37.46,19.39a0.71,0.71,0,0,1,.56,0l4.25,1.53h0a0.42,0.42,0,0,1,0,.7L36.62,25l-2.9-3.85Z" transform="translate(0 -0.08)"/><path class="cls-4" d="M13.33,25V40.4a0.23,0.23,0,0,0,.23.23H36.39a0.23,0.23,0,0,0,.23-0.23V25H13.33Z" transform="translate(0 -0.08)"/><rect class="cls-2" x="19.71" y="18.22" width="5.21" height="5.21" transform="translate(-7.31 13.38) rotate(-29.07)"/><rect class="cls-2" x="26.88" y="13.62" width="5.21" height="5.21" transform="matrix(0.57, -0.82, 0.82, 0.57, -0.65, 31.14)"/><rect class="cls-2" x="19.71" y="9.4" width="5.21" height="5.21"/></svg>