<svg id="레이어_1" data-name="레이어 1" xmlns="http://www.w3.org/2000/svg" width="1658.28" height="445.74" viewBox="0 0 1658.28 445.74"><defs><style>.cls-1{fill:#fafafa;stroke:#c8c8c8;stroke-miterlimit:10;stroke-width:1.4px;}.cls-2{fill:#c8c8c8;}.cls-3{fill:#b7afef;}.cls-4{fill:#382faf;}.cls-5{fill:#bcbcbc;}</style></defs><title>env</title><rect class="cls-1" x="1597.58" y="385.04" width="60" height="60" rx="10" ry="10"/><path class="cls-2" d="M1620.52,229.11v0c0.49-5,6.4-13,6.4-13s5.91,7.95,6.4,13v0a6.14,6.14,0,0,1,0,.64,6.44,6.44,0,0,1-12.88,0C1620.48,229.55,1620.5,229.33,1620.52,229.11Z" transform="translate(0 0)"/><path class="cls-3" d="M1604.56,245.83v-19h4.57v19A5.8,5.8,0,1,1,1604.56,245.83Z" transform="translate(0 0)"/><path class="cls-2" d="M1620.13,248.45a6.68,6.68,0,0,0,6.68,6.67V241.77A6.67,6.67,0,0,0,1620.13,248.45Z" transform="translate(0 0)"/><path class="cls-3" d="M1633.48,248.45a6.67,6.67,0,0,0-6.67-6.67v13.35A6.67,6.67,0,0,0,1633.48,248.45Z" transform="translate(0 0)"/><path class="cls-3" d="M1638.43,248h-2.83a0.43,0.43,0,0,0-.43.43h0a0.43,0.43,0,0,0,.43.43h2.83a0.43,0.43,0,0,0,.43-0.43h0A0.43,0.43,0,0,0,1638.43,248Z" transform="translate(0 0)"/><path class="cls-3" d="M1637.09,253.89l-2.45-1.41a0.43,0.43,0,0,0-.59.16h0a0.43,0.43,0,0,0,.16.59l2.45,1.41a0.43,0.43,0,0,0,.59-0.16h0A0.43,0.43,0,0,0,1637.09,253.89Z" transform="translate(0 0)"/><path class="cls-3" d="M1633,258.3l-1.42-2.45a0.43,0.43,0,0,0-.59-0.16h0a0.43,0.43,0,0,0-.16.59l1.41,2.45a0.43,0.43,0,0,0,.59.16h0A0.43,0.43,0,0,0,1633,258.3Z" transform="translate(0 0)"/><path class="cls-3" d="M1636.66,242.26l-2.45,1.42a0.43,0.43,0,0,0-.16.59h0a0.43,0.43,0,0,0,.59.16l2.45-1.41a0.43,0.43,0,0,0,.16-0.59h0A0.43,0.43,0,0,0,1636.66,242.26Z" transform="translate(0 0)"/><path class="cls-3" d="M1632.24,238.16l-1.42,2.45a0.43,0.43,0,0,0,.16.59h0a0.43,0.43,0,0,0,.59-0.16l1.41-2.45a0.43,0.43,0,0,0-.16-0.59h0A0.43,0.43,0,0,0,1632.24,238.16Z" transform="translate(0 0)"/><line class="cls-4" x1="1626.8" y1="248.45" x2="1628.85" y2="247.22"/><path class="cls-5" d="M1611.19,244.66V220.47a4.35,4.35,0,1,0-8.71,0v24.19A7.81,7.81,0,1,0,1611.19,244.66Zm-4.35,13.29a6.81,6.81,0,0,1-3.35-12.73V220.46a3.34,3.34,0,1,1,6.69,0v24.75A6.81,6.81,0,0,1,1606.84,257.95Z" transform="translate(0 0)"/><rect class="cls-1" x="0.7" y="0.7" width="48.6" height="48.6" rx="8.1" ry="8.1"/><path class="cls-2" d="M26.27,18.18v0c0.4-4.05,5.18-10.49,5.18-10.49s4.79,6.44,5.18,10.49v0a5,5,0,0,1,0,.51,5.22,5.22,0,0,1-10.43,0C26.24,18.53,26.25,18.35,26.27,18.18Z" transform="translate(0 0)"/><path class="cls-3" d="M13.34,31.72V16.34H17V31.72A4.7,4.7,0,1,1,13.34,31.72Z" transform="translate(0 0)"/><path class="cls-2" d="M26,33.84a5.41,5.41,0,0,0,5.41,5.41V28.43A5.41,5.41,0,0,0,26,33.84Z" transform="translate(0 0)"/><path class="cls-3" d="M36.77,33.84a5.41,5.41,0,0,0-5.41-5.41V39.25A5.41,5.41,0,0,0,36.77,33.84Z" transform="translate(0 0)"/><path class="cls-3" d="M40.78,33.49H38.49a0.35,0.35,0,0,0-.35.35h0a0.35,0.35,0,0,0,.35.35h2.29a0.35,0.35,0,0,0,.35-0.35h0A0.35,0.35,0,0,0,40.78,33.49Z" transform="translate(0 0)"/><path class="cls-3" d="M39.7,38.24l-2-1.15a0.35,0.35,0,0,0-.48.13h0a0.35,0.35,0,0,0,.13.48l2,1.15a0.35,0.35,0,0,0,.48-0.13h0A0.35,0.35,0,0,0,39.7,38.24Z" transform="translate(0 0)"/><path class="cls-3" d="M36.38,41.82l-1.15-2a0.35,0.35,0,0,0-.48-0.13h0a0.35,0.35,0,0,0-.13.48l1.15,2a0.35,0.35,0,0,0,.48.13h0A0.35,0.35,0,0,0,36.38,41.82Z" transform="translate(0 0)"/><path class="cls-3" d="M39.35,28.83l-2,1.15a0.35,0.35,0,0,0-.13.48h0a0.35,0.35,0,0,0,.48.13l2-1.15A0.35,0.35,0,0,0,39.83,29h0A0.35,0.35,0,0,0,39.35,28.83Z" transform="translate(0 0)"/><path class="cls-3" d="M35.77,25.51l-1.15,2a0.35,0.35,0,0,0,.13.48h0a0.35,0.35,0,0,0,.48-0.13l1.15-2a0.35,0.35,0,0,0-.13-0.48h0A0.35,0.35,0,0,0,35.77,25.51Z" transform="translate(0 0)"/><line class="cls-4" x1="31.36" y1="33.84" x2="33.02" y2="32.85"/><path class="cls-5" d="M18.72,30.77V11.18a3.53,3.53,0,1,0-7.05,0v19.6A6.32,6.32,0,1,0,18.72,30.77ZM15.19,41.54a5.51,5.51,0,0,1-2.71-10.31V11.17a2.71,2.71,0,1,1,5.42,0v20A5.51,5.51,0,0,1,15.19,41.54Z" transform="translate(0 0)"/></svg>