<svg id="레이어_1" data-name="레이어 1" xmlns="http://www.w3.org/2000/svg" width="50" height="50" viewBox="0 0 50 50"><defs><style>.cls-1{fill:#fafafa;stroke:#c8c8c8;stroke-miterlimit:10;stroke-width:1.4px;}.cls-2{fill:#b7afef;}.cls-3{fill:#c8c8c8;}.cls-4{fill:#a0a0a0;}</style></defs><title>gyro</title><rect class="cls-1" x="0.7" y="0.7" width="48.6" height="48.6" rx="8.1" ry="8.1"/><polygon class="cls-2" points="25 28.5 15.89 23.05 15.26 23.41 15.26 34.67 25 40.29 34.74 34.67 34.74 23.41 34.63 23.35 25 28.5"/><path class="cls-3" d="M33.51,41.89l-2.46-1.42a1.84,1.84,0,0,0,0-.31V29.65A1.87,1.87,0,0,0,30.16,28l-9.1-5.25h0V19.63a0.91,0.91,0,1,0-1.82,0v3.13h0L10.09,28a1.87,1.87,0,0,0-.94,1.62V40.15a1.84,1.84,0,0,0,0,.31L6.74,41.89a0.91,0.91,0,0,0,.91,1.58l2.69-1.55L19.19,47a1.87,1.87,0,0,0,1.87,0l8.86-5.11,2.69,1.55A0.91,0.91,0,1,0,33.51,41.89Zm-14.3,2.68a0.36,0.36,0,0,1-.54.32l-7.5-4.28A0.36,0.36,0,0,1,11,40.28V30.72a0.36,0.36,0,0,1,.54-0.32L19,34.69a0.36,0.36,0,0,1,.18.32v9.56ZM19.94,33l-7.06-4a0.36,0.36,0,0,1,0-.63l7.07-4a0.36,0.36,0,0,1,.36,0l7.06,4a0.36,0.36,0,0,1,0,.63L20.3,33A0.36,0.36,0,0,1,19.94,33Zm9.14,7.62-7.5,4.28A0.36,0.36,0,0,1,21,44.57V35a0.36,0.36,0,0,1,.18-0.32l7.5-4.28a0.36,0.36,0,0,1,.54.32v9.56A0.36,0.36,0,0,1,29.08,40.6Z" transform="translate(4.88 -5.67)"/><path class="cls-4" d="M4.94,46.79h-2l2.4-2.4a0.54,0.54,0,0,0-.38-0.92H1.62a0.54,0.54,0,0,0,0,1.08h2L1.25,46.94a0.53,0.53,0,0,0,.17.88H1.49l0.13,0H4.94A0.54,0.54,0,0,0,4.94,46.79Z" transform="translate(4.88 -5.67)"/><path class="cls-4" d="M37.73,45.67L39,44.39a0.54,0.54,0,1,0-.76-0.76L37,44.91l-1.28-1.28a0.54,0.54,0,1,0-.76.76l1.28,1.28-1.28,1.28a0.54,0.54,0,0,0,.76.76L37,46.43l1.28,1.28A0.54,0.54,0,0,0,39,46.95Z" transform="translate(4.88 -5.67)"/><path class="cls-4" d="M22.16,13.63a0.54,0.54,0,0,0-.76,0l-1.28,1.28-1.28-1.28a0.54,0.54,0,0,0-.76.76l1.5,1.5v1.44a0.54,0.54,0,1,0,1.08,0V15.89l1.5-1.5A0.54,0.54,0,0,0,22.16,13.63Z" transform="translate(4.88 -5.67)"/></svg>