<?xml version="1.0" encoding="utf-8"?>
<!-- Generator: Adobe Illustrator 16.0.0, SVG Export Plug-In . SVG Version: 6.00 Build 0)  -->
<!DOCTYPE svg PUBLIC "-//W3C//DTD SVG 1.1//EN" "http://www.w3.org/Graphics/SVG/1.1/DTD/svg11.dtd">
<svg version="1.1" id="Layer_1" xmlns="http://www.w3.org/2000/svg" xmlns:xlink="http://www.w3.org/1999/xlink" x="0px" y="0px"
	 width="60px" height="60px" viewBox="0 0 60 60" enable-background="new 0 0 60 60" xml:space="preserve">
<path fill="#FFFFFF" stroke="#5093FF" stroke-miterlimit="10" d="M59.5,49.499c0,5.522-4.477,10-10,10H10.499
	c-5.522,0-10-4.478-10-10V10.501c0-5.523,4.478-10,10-10H49.5c5.523,0,10,4.477,10,10V49.499z"/>
<g>
	<path fill="#6B6B6B" d="M19.961,25.69c0,0.291-0.236,0.527-0.528,0.527h-5.477c-0.291,0-0.528-0.236-0.528-0.527v-9.698
		c0-0.293,0.237-0.529,0.528-0.529h5.477c0.292,0,0.528,0.236,0.528,0.529V25.69z"/>
	<path fill="#6B6B6B" d="M40.039,15.992c0-0.293,0.236-0.529,0.528-0.529h5.478c0.29,0,0.526,0.236,0.526,0.529v9.698
		c0,0.291-0.236,0.527-0.526,0.527h-5.478c-0.292,0-0.528-0.236-0.528-0.527V15.992z"/>
	<path fill="#6B6B6B" d="M19.961,50.732c0,0.287-0.236,0.525-0.528,0.525h-5.477c-0.291,0-0.528-0.238-0.528-0.525v-9.704
		c0-0.289,0.237-0.528,0.528-0.528h5.477c0.292,0,0.528,0.239,0.528,0.528V50.732z"/>
	<path fill="#6B6B6B" d="M40.039,41.028c0-0.289,0.236-0.528,0.528-0.528h5.478c0.29,0,0.526,0.239,0.526,0.528v9.704
		c0,0.287-0.236,0.525-0.526,0.525h-5.478c-0.292,0-0.528-0.238-0.528-0.525V41.028z"/>
	<g>
		<polygon fill="#85C1BD" points="24.961,21.586 24.961,20.096 20.773,20.096 19.961,18.11 19.961,23.572 20.773,21.586 		"/>
		<polygon fill="#85C1BD" points="39.226,20.096 35.039,20.096 35.039,21.586 39.226,21.586 40.039,23.572 40.039,18.11 		"/>
		<polygon fill="#85C1BD" points="36.291,45.133 36.291,43.622 23.709,43.622 23.709,45.133 20.773,45.133 19.961,43.149 
			19.961,48.611 20.773,46.624 23.709,46.624 23.709,47.642 36.291,47.642 36.291,46.624 39.226,46.624 40.039,48.611 
			40.039,43.149 39.226,45.133 		"/>
	</g>
	<rect x="28.315" y="12.075" fill="#85C1BD" width="3.369" height="4.308"/>
	<rect x="24.961" y="15.664" fill="#85C1BD" width="10.078" height="4.295"/>
	<polygon fill="#00608D" points="42.146,7.38 42.146,8.63 17.854,8.63 17.854,7.38 17.407,7.38 17.407,13.938 17.854,13.938 
		17.854,12.69 42.146,12.69 42.146,13.938 42.594,13.938 42.594,7.38 	"/>
	<g>
		<g>
			<rect x="21.766" y="18.867" fill="#85C1BD" width="3.886" height="8.562"/>
			<rect x="34.348" y="18.867" fill="#85C1BD" width="3.887" height="8.562"/>
		</g>
	</g>
	<path fill="#00608D" d="M38.599,26.815c-1.106,0-2.004-0.896-2.004-2.003v-4.683v-1.252v-0.092c0-1.327-2.953-2.402-6.595-2.402
		c-3.643,0-6.595,1.076-6.595,2.402v0.092v1.252v4.683c0,1.107-0.896,2.003-2.003,2.003h-0.427l3.21,14.943h2.421v6.265
		c0,1.048,0.848,1.896,1.895,1.896h2.998c1.047,0,1.894-0.849,1.894-1.896v-6.265h2.423l3.21-14.943H38.599z"/>
	<path fill="#40ACC6" d="M32.208,36.955c0,0.871-0.573,1.583-1.281,1.583h-1.853c-0.708,0-1.283-0.712-1.283-1.583V23.898
		c0-0.873,0.575-1.582,1.283-1.582h1.853c0.708,0,1.281,0.709,1.281,1.582V36.955z"/>
	<g>
		<path fill="#40ACC6" d="M25.479,23.052c0.973-0.158,1.753,3.352,1.733,7.798c-0.02,4.447-0.816,4.576-1.77,0.287
			C24.489,26.848,24.505,23.21,25.479,23.052z"/>
	</g>
	<g>
		<path fill="#40ACC6" d="M34.521,23.052c-0.974-0.158-1.754,3.352-1.733,7.798c0.021,4.447,0.817,4.576,1.771,0.287
			C35.511,26.848,35.494,23.21,34.521,23.052z"/>
	</g>
	<rect x="28.227" y="40.214" fill="#85C1BD" width="3.546" height="10.296"/>
	<rect x="23.547" y="50.51" fill="#00608D" width="12.905" height="2.111"/>
</g>
</svg>
