<svg id="레이어_1" data-name="레이어 1" xmlns="http://www.w3.org/2000/svg" width="50" height="50" viewBox="0 0 50 50"><defs><style>.cls-1{fill:#fafafa;stroke:#c8c8c8;stroke-miterlimit:10;stroke-width:1.4px;}.cls-2{fill:#a0a0a0;}.cls-3{fill:#ffc088;}</style></defs><title>motor</title><rect class="cls-1" x="0.7" y="0.7" width="48.6" height="48.6" rx="8.1" ry="8.1"/><rect class="cls-2" x="7.55" y="24.31" width="3.93" height="1.38"/><path class="cls-3" d="M40.93,21V19.1a3.76,3.76,0,0,0-3.76-3.76H35.46V34.66h1.71a3.76,3.76,0,0,0,3.76-3.76V29h1.52V21H40.93Z" transform="translate(0 0)"/><rect class="cls-3" x="11.48" y="21.83" width="1.59" height="6.35"/><path class="cls-3" d="M16.84,15.34a3.76,3.76,0,0,0-3.76,3.76V30.9a3.76,3.76,0,0,0,3.76,3.76H34.65V15.34H16.84Z" transform="translate(0 0)"/></svg>