<svg id="레이어_1" data-name="레이어 1" xmlns="http://www.w3.org/2000/svg" width="50" height="50" viewBox="0 0 50 50"><defs><style>.cls-1{fill:#fafafa;stroke:#c8c8c8;stroke-miterlimit:10;stroke-width:1.4px;}.cls-2{fill:#ffe66c;}.cls-3{fill:#c8c8c8;}</style></defs><title>network</title><rect class="cls-1" x="0.7" y="0.7" width="48.6" height="48.6" rx="8.1" ry="8.1"/><path class="cls-2" d="M25,19.3a2.6,2.6,0,0,0-1,5v15h2v-15A2.6,2.6,0,0,0,25,19.3Z" transform="translate(0 0)"/><path class="cls-3" d="M38.26,21.32s0-.08,0-0.12c0-.4-0.06-0.8-0.11-1.19V20Q38,19.34,37.9,18.75l0-.06q-0.14-.58-0.34-1.14l0-.13c-0.06-.17-0.13-0.34-0.19-0.51l-0.06-.15-0.15-.35L37,16.18c-0.06-.14-0.13-0.27-0.2-0.4l-0.15-.28-0.1-.17c-0.1-.18-0.21-0.37-0.33-0.55l0-.08L36,14.38l0-.06q-0.2-.29-0.41-0.56l-0.07-.1L35,13.12l0,0L34.7,12.8l-0.1-.11-0.24-.25-0.19-.18L34,12.13l-0.42-.38-0.15-.13-0.27-.22-0.27-.21L32.58,11l-0.21-.14-0.2-.14h0l0,0.08-0.86,1.32h0a11.68,11.68,0,0,1,1.13.84l0.05,0,0.47,0.42L33,13.44l0.44,0.45,0,0a11.7,11.7,0,0,1,1.3,1.67l0,0c0.12,0.18.23,0.37,0.33,0.56l0,0.08c0.1,0.18.2,0.37,0.29,0.56l0,0.06c0.1,0.21.2,0.43,0.28,0.64v0q0.11,0.28.21,0.57l0.07,0.22,0.12,0.42c0,0.08,0,.16.07,0.25s0.08,0.32.11,0.48l0,0.22c0,0.19.07,0.39,0.1,0.59l0,0.24c0,0.15,0,.3,0,0.46s0,0.15,0,.23,0,0.44,0,.66v0c0,0.22,0,.44,0,0.65s0,0.15,0,.23,0,0.3,0,.45l0,0.24c0,0.19-.06.39-0.09,0.58l0,0.23c0,0.16-.07.32-0.11,0.47L36.18,25l-0.12.41L36,25.67c-0.06.19-.13,0.38-0.2,0.56l0,0.05c-0.09.22-.18,0.43-0.28,0.64l0,0.07c-0.09.19-.19,0.37-0.28,0.55l0,0.08c-0.11.19-.22,0.37-0.33,0.55l0,0a11.61,11.61,0,0,1-1.29,1.67l0,0L33,30.37l-0.08.07-0.46.41-0.06.05-0.53.42h0l-0.59.41,0.91,1.4h0L32.39,33l0.18-.12,0.49-.36,0.12-.09,0.28-.23,0.13-.11L34,31.69l0.15-.14,0.19-.18,0.23-.25L34.7,31l0.25-.27,0-.06,0.44-.54,0.08-.1c0.14-.18.28-0.37,0.41-0.56l0-.06,0.21-.32L36.22,29c0.11-.18.22-0.36,0.32-0.54l0.1-.17L36.79,28c0.07-.13.14-0.26,0.2-0.4l0.1-.23,0.15-.34,0.07-.15,0.19-.51,0-.13q0.19-.56.34-1.14l0-.06q0.14-.59.23-1.2V23.8c0.06-.39.09-0.79,0.11-1.19,0,0,0-.08,0-0.12,0-.2,0-0.39,0-0.59S38.27,21.52,38.26,21.32Z" transform="translate(0 0)"/><path class="cls-3" d="M31.61,21.91a6.66,6.66,0,0,0-3-5.59l-0.91,1.4a5,5,0,0,1,0,8.39l0.91,1.4A6.66,6.66,0,0,0,31.61,21.91Z" transform="translate(0 0)"/><path class="cls-3" d="M34.93,21.91a10,10,0,0,0-4.58-8.42l-0.91,1.4a8.36,8.36,0,0,1,0,14l0.91,1.4A10,10,0,0,0,34.93,21.91Z" transform="translate(0 0)"/><path class="cls-3" d="M17.53,30.82l-0.47-.41L17,30.34l-0.44-.44,0,0a11.61,11.61,0,0,1-1.29-1.66l0,0C15.09,28,15,27.79,14.87,27.6l0-.08c-0.1-.18-0.2-0.37-0.29-0.56l0-.06c-0.1-.21-0.19-0.42-0.28-0.64l0,0q-0.11-.28-0.21-0.57l-0.07-.21L13.81,25l-0.06-.25c0-.16-0.08-0.32-0.11-0.48l0-.21q-0.05-.29-0.09-0.58c0-.08,0-0.16,0-0.24s0-.3,0-0.45l0-.23c0-.22,0-0.43,0-0.65v0c0-.22,0-0.43,0-0.65l0-.23c0-.15,0-0.3,0-0.45s0-.16,0-0.24,0.06-.38.09-0.57,0-.15,0-0.23,0.07-.31.11-0.47l0.07-.25c0-.14.08-0.28,0.12-0.41L14,18.16c0.06-.19.13-0.38,0.21-0.56l0,0c0.09-.22.18-0.43,0.28-0.64l0-.07q0.14-.28.28-0.55l0-.09c0.1-.19.21-0.37,0.33-0.55l0,0A11.72,11.72,0,0,1,16.51,14l0,0L17,13.48l0.08-.07L17.53,13,17.59,13l0.53-.42h0l0.59-.41-0.91-1.4h0l-0.22.15L17.41,11l-0.49.36-0.11.09-0.28.23-0.13.11L16,12.17l-0.15.14-0.19.18-0.23.24-0.11.11L15,13.11l0,0.06-0.44.53-0.08.1c-0.14.18-.28,0.37-0.41,0.56l0,0.06-0.21.31-0.05.08c-0.11.18-.22,0.36-0.32,0.54l-0.09.17-0.15.28c-0.07.13-.13,0.26-0.2,0.4l-0.1.22-0.15.34-0.06.15c-0.07.17-.13,0.34-0.19,0.51l0,0.13c-0.13.37-.24,0.75-0.34,1.14l0,0.06c-0.09.39-.17,0.79-0.23,1.2V20c-0.06.39-.09,0.78-0.11,1.18,0,0,0,.08,0,0.12,0,0.19,0,.39,0,0.58s0,0.39,0,.58c0,0,0,.08,0,0.12,0,0.4.06,0.8,0.11,1.19v0.06c0.06,0.41.14,0.81,0.23,1.2l0,0.06q0.14,0.58.34,1.14l0,0.13c0.06,0.17.12,0.34,0.19,0.51L12.75,27l0.15,0.35L13,27.61c0.06,0.13.13,0.27,0.2,0.4l0.15,0.28,0.09,0.17c0.1,0.18.21,0.37,0.33,0.54l0,0.08L14,29.4l0,0.06L14.48,30l0.08,0.1L15,30.66l0,0L15.29,31l0.1,0.11,0.24,0.25,0.19,0.18L16,31.65,16.38,32l0.15,0.13,0.27,0.22,0.27,0.2,0.33,0.24L17.6,33l0.2,0.14h0L17.85,33l0.85-1.32h0a11.88,11.88,0,0,1-1.13-.83Z" transform="translate(0 0)"/><path class="cls-3" d="M22.34,17.72l-0.91-1.4a6.66,6.66,0,0,0,0,11.19l0.91-1.4A5,5,0,0,1,22.34,17.72Z" transform="translate(0 0)"/><path class="cls-3" d="M16.72,21.91a8.32,8.32,0,0,1,3.8-7l-0.9-1.4a10,10,0,0,0,0,16.78l0.9-1.4A8.32,8.32,0,0,1,16.72,21.91Z" transform="translate(0 0)"/></svg>