<svg id="레이어_1" data-name="레이어 1" xmlns="http://www.w3.org/2000/svg" viewBox="0 0 60 60"><defs><style>.cls-1{fill:#d1d3d4;}.cls-2{fill:#a7a9ac;}.cls-3{fill:#808285;}.cls-4{fill:#f1f1f1;}</style></defs><title>moduleBoxBasic</title><rect class="cls-1" width="60" height="60" rx="12" ry="12"/><polygon class="cls-2" points="40.47 25.32 19.47 25.32 15.99 29.94 43.95 29.94 40.47 25.32"/><rect class="cls-3" x="19.47" y="25.32" width="21" height="4.62"/><path class="cls-4" d="M15,23.17a0.85,0.85,0,0,0-.67,0L9.21,25h0a0.5,0.5,0,0,0,0,.85L16,29.94l3.48-4.62Z"/><path class="cls-4" d="M45,23.17a0.85,0.85,0,0,1,.67,0L50.72,25h0a0.5,0.5,0,0,1,0,.85L43.91,30l-3.48-4.62Z"/><path class="cls-4" d="M16,29.94V47.26a1.4,1.4,0,0,0,1.4,1.4H42.55a1.4,1.4,0,0,0,1.4-1.4h0V29.94H16Z"/><rect class="cls-2" x="23.65" y="21.77" width="6.25" height="6.25" transform="translate(-8.72 16.15) rotate(-29.07)"/><rect class="cls-2" x="32.26" y="16.25" width="6.25" height="6.25" transform="translate(-0.69 37.43) rotate(-55.29)"/><rect class="cls-2" x="23.65" y="11.28" width="6.25" height="6.25"/></svg>