<?xml version="1.0" encoding="utf-8"?>
<!-- Generator: Adobe Illustrator 16.0.0, SVG Export Plug-In . SVG Version: 6.00 Build 0)  -->
<!DOCTYPE svg PUBLIC "-//W3C//DTD SVG 1.1//EN" "http://www.w3.org/Graphics/SVG/1.1/DTD/svg11.dtd">
<svg version="1.1" id="Layer_1" xmlns="http://www.w3.org/2000/svg" xmlns:xlink="http://www.w3.org/1999/xlink" x="0px" y="0px"
	 width="60px" height="60px" viewBox="0 0 60 60" enable-background="new 0 0 60 60" xml:space="preserve">
<path fill="#FFFFFF" stroke="#5093FF" stroke-miterlimit="10" d="M59.5,49.498c0,5.523-4.477,10-10,10h-39c-5.522,0-10-4.477-10-10
	V10.501c0-5.523,4.478-10,10-10h39c5.523,0,10,4.477,10,10V49.498z"/>
<polygon fill="none" stroke="#5093FF" stroke-miterlimit="10" points="36.951,15.903 24.074,15.903 24.074,37.445 41.309,37.445 
	41.309,20.262 "/>
<polygon fill="#5093FF" points="36.951,15.903 36.951,20.262 41.309,20.262 41.309,20.262 "/>
<polygon fill="#FFFFFF" stroke="#5093FF" stroke-miterlimit="10" points="31.568,22.554 18.691,22.554 18.691,44.096 35.926,44.096 
	35.926,26.912 "/>
<polygon fill="#5093FF" points="31.568,22.554 31.568,26.912 35.926,26.912 35.926,26.912 "/>
<path fill="#5093FF" d="M28.198,40.111l3.208-3.207l0.004-0.006c0.045-0.045,0.086-0.094,0.121-0.146
	c0.02-0.025,0.033-0.055,0.045-0.084c0.016-0.031,0.035-0.059,0.047-0.088c0.016-0.035,0.023-0.072,0.035-0.107
	c0.006-0.027,0.018-0.055,0.023-0.08c0.014-0.066,0.02-0.131,0.02-0.197s-0.006-0.133-0.02-0.197
	c-0.006-0.023-0.016-0.049-0.021-0.072c-0.01-0.037-0.021-0.078-0.037-0.115c-0.012-0.029-0.027-0.055-0.043-0.082
	c-0.014-0.031-0.029-0.063-0.049-0.09c-0.033-0.053-0.072-0.098-0.113-0.143c-0.004-0.002-0.008-0.008-0.012-0.012l-3.208-3.209
	c-0.391-0.391-1.027-0.391-1.417,0c-0.393,0.395-0.393,1.029,0,1.42l1.495,1.496h-4.356c-0.554,0-1.002,0.449-1.002,1.004
	c0,0.553,0.448,1.004,1.002,1.004h4.356l-1.495,1.494c-0.393,0.391-0.393,1.027,0,1.418C27.17,40.504,27.807,40.504,28.198,40.111z"
	/>
</svg>
