<?xml version="1.0" encoding="utf-8"?>
<!-- Generator: Adobe Illustrator 16.0.0, SVG Export Plug-In . SVG Version: 6.00 Build 0)  -->
<!DOCTYPE svg PUBLIC "-//W3C//DTD SVG 1.1//EN" "http://www.w3.org/Graphics/SVG/1.1/DTD/svg11.dtd">
<svg version="1.1" id="Layer_1" xmlns="http://www.w3.org/2000/svg" xmlns:xlink="http://www.w3.org/1999/xlink" x="0px" y="0px"
	 width="60px" height="60px" viewBox="0 0 60 60" enable-background="new 0 0 60 60" xml:space="preserve">
<path fill="#FFFFFF" stroke="#5093FF" stroke-miterlimit="10" d="M59.5,49.498c0,5.523-4.477,10-10,10H10.499
	c-5.522,0-10-4.477-10-10V10.501c0-5.523,4.478-10,10-10H49.5c5.523,0,10,4.477,10,10V49.498z"/>
<g>
	<path fill="#40ACC6" d="M30.913,12.265V8.441c0-0.504-0.409-0.913-0.913-0.913c-0.504,0-0.914,0.409-0.914,0.913v3.824h-0.302
		v31.827h2.431V12.265H30.913z"/>
	<g>
		<g>
			<path fill="#00608D" d="M38.96,8.196c0,0.369-0.299,0.667-0.667,0.667h-5.831c-0.369,0-0.668-0.298-0.668-0.667l0,0
				c0-0.369,0.299-0.668,0.668-0.668h5.831C38.661,7.528,38.96,7.827,38.96,8.196L38.96,8.196z"/>
			<path fill="#00608D" d="M28.028,8.196c0,0.369-0.299,0.667-0.667,0.667h-5.831c-0.368,0-0.667-0.298-0.667-0.667l0,0
				c0-0.369,0.299-0.668,0.667-0.668h5.831C27.729,7.528,28.028,7.827,28.028,8.196L28.028,8.196z"/>
		</g>
	</g>
	<g>
		<g>
			<path fill="#6B6B6B" d="M19.129,47.977v-8.621h-2.612V50.59c0,1.039,0.843,1.883,1.882,1.883c1.041,0,1.884-0.844,1.884-1.883
				v-2.613H19.129z"/>
			<path fill="#6B6B6B" d="M40.872,47.977v-8.621h2.61V50.59c0,1.039-0.843,1.883-1.883,1.883c-1.039,0-1.883-0.844-1.883-1.883
				v-2.613H40.872z"/>
		</g>
	</g>
	<path fill="#00608D" d="M40.325,35.588h-1.701v3.035v4.617c0,1.141-0.925,2.066-2.066,2.066H23.441
		c-1.141,0-2.065-0.926-2.065-2.066v-4.617v-3.035h-1.7h-3.159v3.035h3.159v8.627h1.7v1.092c0,1.141,0.925,2.064,2.065,2.064h13.117
		c1.142,0,2.066-0.924,2.066-2.064V47.25h1.701v-8.627h3.157v-3.035H40.325z"/>
	<g>
		<g>
			<path fill="#85C1BD" d="M27.761,46.459c0,0.303-0.244,0.549-0.545,0.549h-4.652c-0.302,0-0.546-0.246-0.546-0.549l0,0
				c0-0.301,0.244-0.547,0.546-0.547h4.652C27.517,45.912,27.761,46.158,27.761,46.459L27.761,46.459z"/>
			<path fill="#85C1BD" d="M37.983,46.459c0,0.303-0.245,0.549-0.547,0.549h-4.652c-0.301,0-0.546-0.246-0.546-0.549l0,0
				c0-0.301,0.245-0.547,0.546-0.547h4.652C37.738,45.912,37.983,46.158,37.983,46.459L37.983,46.459z"/>
		</g>
	</g>
</g>
</svg>
