<svg id="레이어_1" data-name="레이어 1" xmlns="http://www.w3.org/2000/svg" viewBox="0 0 60 60"><defs><style>.cls-1,.cls-2{opacity:0;}.cls-2,.cls-4{fill:#fff;}.cls-3{fill:#fafafa;}.cls-3,.cls-4,.cls-5{stroke:#969696;stroke-miterlimit:10;}.cls-5{fill:#b7afef;}.cls-6{fill:#969696;}.cls-7{fill:#382faf;}</style></defs><title>moduleBoxEnv</title><rect class="cls-2" x="0.5" y="0.5" width="59" height="59"/><rect class="cls-3" x="0.5" y="0.5" width="59" height="59" rx="9.83" ry="9.83"/><path class="cls-4" d="M15.9,37V13.22a4.28,4.28,0,1,1,8.56,0V37A7.68,7.68,0,1,1,15.9,37Z" transform="translate(0 0)"/><path class="cls-4" d="M33.63,21.72v0c0.49-4.92,6.29-12.74,6.29-12.74s5.81,7.82,6.29,12.74v0a6,6,0,0,1,0,.63,6.33,6.33,0,0,1-12.66,0C33.6,22.14,33.61,21.93,33.63,21.72Z" transform="translate(0 0)"/><path class="cls-5" d="M18.18,38.72V22.08h4V38.72A5.08,5.08,0,1,1,18.18,38.72Z" transform="translate(0 0)"/><path class="cls-5" d="M33.25,40.73a6.56,6.56,0,0,0,6.56,6.56V34.17A6.56,6.56,0,0,0,33.25,40.73Z" transform="translate(0 0)"/><path class="cls-4" d="M46.38,40.73a6.56,6.56,0,0,0-6.56-6.56V47.29A6.56,6.56,0,0,0,46.38,40.73Z" transform="translate(0 0)"/><path class="cls-6" d="M51.25,40.3H48.47a0.43,0.43,0,0,0-.43.43h0a0.43,0.43,0,0,0,.43.43h2.78a0.43,0.43,0,0,0,.43-0.43h0A0.43,0.43,0,0,0,51.25,40.3Z" transform="translate(0 0)"/><path class="cls-6" d="M49.93,46.08l-2.41-1.39a0.43,0.43,0,0,0-.58.16h0a0.43,0.43,0,0,0,.16.58l2.41,1.39a0.43,0.43,0,0,0,.58-0.16h0A0.43,0.43,0,0,0,49.93,46.08Z" transform="translate(0 0)"/><path class="cls-6" d="M45.9,50.42L44.51,48a0.43,0.43,0,0,0-.58-0.16h0a0.43,0.43,0,0,0-.16.58l1.39,2.41a0.43,0.43,0,0,0,.58.16h0A0.43,0.43,0,0,0,45.9,50.42Z" transform="translate(0 0)"/><path class="cls-6" d="M49.51,34.64L47.1,36a0.43,0.43,0,0,0-.16.58h0a0.43,0.43,0,0,0,.58.16l2.41-1.39a0.43,0.43,0,0,0,.16-0.58h0A0.43,0.43,0,0,0,49.51,34.64Z" transform="translate(0 0)"/><path class="cls-6" d="M45.17,30.61L43.77,33a0.43,0.43,0,0,0,.16.58h0a0.43,0.43,0,0,0,.58-0.16L45.91,31a0.43,0.43,0,0,0-.16-0.58h0A0.43,0.43,0,0,0,45.17,30.61Z" transform="translate(0 0)"/><line class="cls-7" x1="39.82" y1="40.73" x2="41.82" y2="39.52"/></svg>