<svg id="레이어_1" data-name="레이어 1" xmlns="http://www.w3.org/2000/svg" viewBox="0 0 60 60"><defs><style>.cls-1{opacity:0;}.cls-2{fill:#fafafa;}.cls-2,.cls-4,.cls-5{stroke:#969696;stroke-miterlimit:10;}.cls-3{fill:#969696;}.cls-4{fill:#b7afef;}.cls-5{fill:#fff;}</style></defs><title>moduleBoxVolume</title><rect class="cls-2" x="0.5" y="0.5" width="59" height="59" rx="9.83" ry="9.83"/><path class="cls-3" d="M30,11.92h0a0.94,0.94,0,0,0-.94.94v3a0.94,0.94,0,0,0,.94.94h0a0.94,0.94,0,0,0,.94-0.94v-3A0.94,0.94,0,0,0,30,11.92Z" transform="translate(0 0)"/><path class="cls-3" d="M15.89,17.06h0a0.94,0.94,0,0,0-.12,1.32l2,2.33a0.94,0.94,0,0,0,1.32.12h0a0.94,0.94,0,0,0,.12-1.32l-2-2.33A0.94,0.94,0,0,0,15.89,17.06Z" transform="translate(0 0)"/><path class="cls-3" d="M8.37,30.07h0a0.94,0.94,0,0,0,.76,1.09l3,0.53a0.94,0.94,0,0,0,1.09-.76h0a0.94,0.94,0,0,0-.76-1.09l-3-.53A0.94,0.94,0,0,0,8.37,30.07Z" transform="translate(0 0)"/><path class="cls-3" d="M11,44.86h0a0.94,0.94,0,0,0,1.28.34l2.63-1.52a0.94,0.94,0,0,0,.34-1.28h0A0.94,0.94,0,0,0,14,42.06l-2.63,1.52A0.94,0.94,0,0,0,11,44.86Z" transform="translate(0 0)"/><path class="cls-3" d="M49,44.86h0a0.94,0.94,0,0,0-.34-1.28L46,42.06a0.94,0.94,0,0,0-1.28.34h0a0.94,0.94,0,0,0,.34,1.28l2.63,1.52A0.94,0.94,0,0,0,49,44.86Z" transform="translate(0 0)"/><path class="cls-3" d="M51.63,30.07h0a0.94,0.94,0,0,0-1.09-.76l-3,.53a0.94,0.94,0,0,0-.76,1.09h0a0.94,0.94,0,0,0,1.09.76l3-.53A0.94,0.94,0,0,0,51.63,30.07Z" transform="translate(0 0)"/><path class="cls-3" d="M44.11,17.06h0a0.94,0.94,0,0,0-1.32.12l-2,2.33A0.94,0.94,0,0,0,41,20.83h0a0.94,0.94,0,0,0,1.32-.12l2-2.33A0.94,0.94,0,0,0,44.11,17.06Z" transform="translate(0 0)"/><circle class="cls-4" cx="30" cy="33.88" r="14.19"/><circle class="cls-5" cx="24.29" cy="26.35" r="2.63"/></svg>