<svg id="레이어_1" data-name="레이어 1" xmlns="http://www.w3.org/2000/svg" width="38" height="38" viewBox="0 0 38 38"><defs><style>.cls-1{fill:#fff;opacity:0;}.cls-2{fill:#a7a7a7;}</style></defs><title>delay</title><rect class="cls-1" width="38" height="38"/><path class="cls-2" d="M17.14,0.59A12.93,12.93,0,1,0,30.07,13.51,12.92,12.92,0,0,0,17.14.59Zm0,23.34A10.42,10.42,0,1,1,27.56,13.51,10.42,10.42,0,0,1,17.14,23.93Z" transform="translate(1.86 5.49)"/><path class="cls-2" d="M17.14,14.91A1.14,1.14,0,0,1,16,13.77h0a1.14,1.14,0,0,1,1.14-1.14h3.31a1.14,1.14,0,0,1,1.14,1.14h0a1.14,1.14,0,0,1-1.14,1.14H17.14Z" transform="translate(1.86 5.49)"/><path class="cls-2" d="M18.28,13.77a1.14,1.14,0,0,1-1.13,1.14h0A1.14,1.14,0,0,1,16,13.77v-6a1.14,1.14,0,0,1,1.14-1.14h0a1.14,1.14,0,0,1,1.13,1.14v6Z" transform="translate(1.86 5.49)"/></svg>