<svg id="레이어_1" data-name="레이어 1" xmlns="http://www.w3.org/2000/svg" width="38" height="38" viewBox="0 0 38 38"><defs><style>.cls-1{fill:#fff;opacity:0;}.cls-2{fill:#ff8e1d;}.cls-3{fill:#ffc088;}</style></defs><title>display</title><rect class="cls-1" width="38" height="38"/><path class="cls-2" d="M29.31,1.49H4.15a1.4,1.4,0,0,0-1.4,1.4V21.06a1.4,1.4,0,0,0,1.4,1.4h12v2H10.44A1.27,1.27,0,0,0,9.17,25.7H24.29A1.27,1.27,0,0,0,23,24.43h-5.7v-2h12a1.4,1.4,0,0,0,1.4-1.4V2.89A1.4,1.4,0,0,0,29.31,1.49Z" transform="translate(2.27 5.4)"/><rect class="cls-3" x="6.98" y="8.51" width="24.04" height="16.66"/></svg>