<svg id="레이어_1" data-name="레이어 1" xmlns="http://www.w3.org/2000/svg" width="38" height="38" viewBox="0 0 38 38"><defs><style>.cls-1{fill:#fff;opacity:0;}.cls-2{fill:#ff8e1d;}.cls-3{fill:#ffc088;}</style></defs><title>led</title><rect class="cls-1" width="38" height="38"/><path class="cls-2" d="M23.56,22.91V15.32a6.78,6.78,0,1,0-13.56,0v7.59H8.85v2H24.72v-2H23.56Z" transform="translate(2.19 5.45)"/><path class="cls-3" d="M19,7h0a0.71,0.71,0,0,1-.5-0.86l0.93-3.47a0.71,0.71,0,0,1,.86-0.5h0a0.71,0.71,0,0,1,.5.86L19.85,6.49A0.71,0.71,0,0,1,19,7Z" transform="translate(2.19 5.45)"/><path class="cls-3" d="M14.59,7h0a0.71,0.71,0,0,1-.86-0.5L12.8,3.06a0.71,0.71,0,0,1,.5-0.86h0a0.71,0.71,0,0,1,.86.5l0.93,3.47A0.71,0.71,0,0,1,14.59,7Z" transform="translate(2.19 5.45)"/><path class="cls-3" d="M10.81,9.26h0a0.71,0.71,0,0,1-1,0L7.27,6.72a0.71,0.71,0,0,1,0-1h0a0.71,0.71,0,0,1,1,0l2.54,2.54A0.71,0.71,0,0,1,10.81,9.26Z" transform="translate(2.19 5.45)"/><path class="cls-3" d="M22.82,9.15h0a0.71,0.71,0,0,1,0-1l2.54-2.54a0.71,0.71,0,0,1,1,0h0a0.71,0.71,0,0,1,0,1L23.81,9.15A0.71,0.71,0,0,1,22.82,9.15Z" transform="translate(2.19 5.45)"/></svg>