<svg id="레이어_1" data-name="레이어 1" xmlns="http://www.w3.org/2000/svg" width="38" height="38" viewBox="0 0 38 38"><defs><style>.cls-1{fill:#fff;opacity:0;}.cls-2{fill:#57b3ff;}.cls-3{fill:#585858;}</style></defs><title>loop</title><rect class="cls-1" width="38" height="38"/><path class="cls-2" d="M16.35,11.49l-0.12.13-1.51,1.52L13.2,11.62l-0.12-.13a4.69,4.69,0,1,0,0,6.63l1.63-1.63,1.63,1.63A4.69,4.69,0,1,0,16.35,11.49ZM11.4,16.44a2.31,2.31,0,1,1,0-3.27h0l0.51,0.51L13,14.81Zm9.9,0a2.31,2.31,0,0,1-3.27,0l-1.64-1.63,1.12-1.12L18,13.18h0A2.31,2.31,0,0,1,21.3,16.44Z" transform="translate(1.81 4.32)"/><path class="cls-3" d="M29.3,9.86a5,5,0,0,0-4.95,5h0V26h2.59V19.16A5,5,0,1,0,29.3,9.86Zm0,7.31a2.35,2.35,0,1,1,2.36-2.35A2.35,2.35,0,0,1,29.3,17.17Z" transform="translate(1.81 4.32)"/><path class="cls-3" d="M2.72,14.55V3.35H0.12v11.2h0a5,5,0,0,0,5,5V16.9A2.35,2.35,0,0,1,2.72,14.55Z" transform="translate(1.81 4.32)"/></svg>