<svg id="레이어_1" data-name="레이어 1" xmlns="http://www.w3.org/2000/svg" width="38" height="38" viewBox="0 0 38 38"><defs><style>.cls-1{fill:#fff;opacity:0;}.cls-2{fill:#a7a7a7;}</style></defs><title>math</title><rect class="cls-1" width="38" height="38"/><path class="cls-2" d="M12.73,19.76L15.45,17a1.06,1.06,0,0,0,0-1.4,0.91,0.91,0,0,0-1.4,0l-2.71,2.71L8.62,15.64a0.91,0.91,0,0,0-1.4,0,0.91,0.91,0,0,0,0,1.4l2.71,2.71-2.8,2.8a0.91,0.91,0,0,0,0,1.4,0.91,0.91,0,0,0,1.4,0l2.71-2.71L14,24a0.91,0.91,0,0,0,1.4,0,1.06,1.06,0,0,0,0-1.4Z" transform="translate(2.24 5.47)"/><path class="cls-2" d="M27.08,7.77a1.06,1.06,0,0,1-1,1H18.25a1.06,1.06,0,0,1-1-1h0a1.06,1.06,0,0,1,1-1H26a1,1,0,0,1,1,1h0Z" transform="translate(2.24 5.47)"/><path class="cls-2" d="M27.08,19.14a1.06,1.06,0,0,1-1,1.05H18.25a1.06,1.06,0,0,1-1-1.05h0a1.06,1.06,0,0,1,1-1.05H26a1,1,0,0,1,1,1.05h0Z" transform="translate(2.24 5.47)"/><path class="cls-2" d="M15.18,6.72h-2.8V3.83a1,1,0,1,0-2.1,0V6.72H7.48a1,1,0,0,0,0,2.1h2.89v2.89a1,1,0,1,0,2.1,0V8.82h2.89a1.06,1.06,0,0,0,1-1A1.3,1.3,0,0,0,15.18,6.72Z" transform="translate(2.24 5.47)"/><circle class="cls-2" cx="24.42" cy="28.37" r="1.05"/><circle class="cls-2" cx="24.42" cy="20.76" r="1.05"/></svg>