<svg id="레이어_1" data-name="레이어 1" xmlns="http://www.w3.org/2000/svg" width="38" height="38" viewBox="0 0 38 38"><defs><style>.cls-1{fill:#fff;opacity:0;}.cls-2{fill:#ffc088;}.cls-3{fill:#ff8e1d;}</style></defs><title>motor</title><rect class="cls-1" width="38" height="38"/><path class="cls-2" d="M29.7,10.17V8.68a3,3,0,0,0-3-3H25.32V21.15h1.37a3,3,0,0,0,3-3V16.64h1.22V10.17H29.7Z" transform="translate(2.07 5.59)"/><path class="cls-3" d="M24.36,5.66h-14a3,3,0,0,0-3,3v2.18H6.1v1.85H3V14.1H6.1V16H7.37v2.18a3,3,0,0,0,3,3h14V5.66Z" transform="translate(2.07 5.59)"/></svg>