<svg id="레이어_1" data-name="레이어 1" xmlns="http://www.w3.org/2000/svg" width="38" height="38" viewBox="0 0 38 38"><defs><style>.cls-1{fill:#fff;opacity:0;}.cls-2{fill:#a7a7a7;}</style></defs><title>number</title><rect class="cls-1" width="38" height="38"/><path class="cls-2" d="M8.39,5.53V21.19H6V7.94H4.72L5.3,5.53H8.39Z" transform="translate(2.44 5.57)"/><path class="cls-2" d="M17.55,21.23h-8l1-1.74q5-8.47,5-9.74a2,2,0,0,0-.46-1.35,1.54,1.54,0,0,0-1.18-.55,1.5,1.5,0,0,0-.93.28,1.61,1.61,0,0,0-.54.65H9.95a5.06,5.06,0,0,1,1.7-2.61,4,4,0,0,1,5.16.49,4.23,4.23,0,0,1,1.15,3,8.57,8.57,0,0,1-1,3.31q-0.87,1.74-3.19,5.84h3.79V21.2h0v0Z" transform="translate(2.44 5.57)"/><path class="cls-2" d="M26.55,12.74a4.29,4.29,0,1,0-7.21-4h2.52a1.91,1.91,0,1,1,1.65,2.88V14a2.5,2.5,0,1,1-1.91,4.11H18.9A4.88,4.88,0,1,0,26.55,12.74Z" transform="translate(2.44 5.57)"/></svg>