<svg id="레이어_1" data-name="레이어 1" xmlns="http://www.w3.org/2000/svg" width="38" height="38" viewBox="0 0 38 38"><defs><style>.cls-1{fill:#fff;opacity:0;}.cls-2{fill:#ffc088;}.cls-3{fill:#ff8e1d;}</style></defs><title>speaker</title><rect class="cls-1" width="38" height="38"/><path class="cls-2" d="M20.7,11l1.24-1.24a5.27,5.27,0,0,1,0,7.44L20.7,15.92A3.51,3.51,0,0,0,20.7,11Z" transform="translate(2.52 5.56)"/><path class="cls-2" d="M24.42,19.64L23.18,18.4a7,7,0,0,0,0-9.92l1.24-1.24A8.77,8.77,0,0,1,24.42,19.64Z" transform="translate(2.52 5.56)"/><path class="cls-2" d="M25.66,20.88l1.24,1.24a12.28,12.28,0,0,0,0-17.36L25.66,6A10.53,10.53,0,0,1,25.66,20.88Z" transform="translate(2.52 5.56)"/><path class="cls-3" d="M16.05,1.23a3,3,0,0,0-1.35.85L7.61,8.4H2.46V18.48H7.61l7.09,6.33a3,3,0,0,0,1.35.85,1.06,1.06,0,0,0,1.13-1.06V2.28A1.06,1.06,0,0,0,16.05,1.23Z" transform="translate(2.52 5.56)"/><rect class="cls-3" x="4.98" y="13.96" width="5.02" height="10.08"/></svg>