<svg id="레이어_1" data-name="레이어 1" xmlns="http://www.w3.org/2000/svg" width="38" height="38" viewBox="0 0 38 38"><defs><style>.cls-1{fill:#fff;opacity:0;}.cls-2{fill:#585858;}.cls-3{fill:#f6c;}</style></defs><title>while</title><rect class="cls-1" width="38" height="38"/><path class="cls-2" d="M23.64,16.39V7.5H21.3v8.89h0a4.48,4.48,0,0,0,4.48,4.48V18.52A2.13,2.13,0,0,1,23.64,16.39Z" transform="translate(2 4.81)"/><rect class="cls-2" x="20.42" y="16.39" width="2.24" height="9.29"/><circle class="cls-2" cx="21.54" cy="13.56" r="1.24"/><path class="cls-2" d="M17.77,15.33a3.23,3.23,0,0,0-4.32-3V7.5H11.22V20.87h2.24v-5.5a1,1,0,0,1,2.09,0v5.5h2.24V15.33h0Z" transform="translate(2 4.81)"/><path class="cls-3" d="M8.44,12.14v5.42a1.16,1.16,0,0,1-2.33,0V14.48h0V12.14H4v5.42a1.16,1.16,0,0,1-2.33,0V12.14H-0.5v5.53h0A3.29,3.29,0,0,0,5,20a3.29,3.29,0,0,0,5.53-2.31h0V12.14H8.44Z" transform="translate(2 4.81)"/><path class="cls-2" d="M30.13,12.14a4.36,4.36,0,1,0,0,8.72h1.92V18.63H30.13a2.12,2.12,0,0,1-1.8-1h6A4.35,4.35,0,0,0,30.13,12.14Zm0,2.24a2.12,2.12,0,0,1,1.8,1H28.34A2.12,2.12,0,0,1,30.13,14.38Z" transform="translate(2 4.81)"/></svg>