<svg id="레이어_1" data-name="레이어 1" xmlns="http://www.w3.org/2000/svg" width="50" height="50" viewBox="0 0 50 50"><defs><style>.cls-1{fill:#c8c8c8;stroke:#c8c8c8;stroke-miterlimit:10;stroke-width:1.4px;}.cls-2{fill:#a0a0a0;}</style></defs><title>dail</title><rect class="cls-1" x="0.7" y="0.7" width="48.6" height="48.6" rx="8.1" ry="8.1"/><path class="cls-2" d="M71.72-33.18h0a0.78,0.78,0,0,0-.77.77v2.5a0.78,0.78,0,0,0,.77.77h0a0.78,0.78,0,0,0,.77-0.77v-2.5A0.78,0.78,0,0,0,71.72-33.18Z" transform="translate(-46.72 43.29)"/><path class="cls-2" d="M60.09-29h0a0.78,0.78,0,0,0-.1,1.09l1.61,1.92a0.78,0.78,0,0,0,1.09.1h0a0.78,0.78,0,0,0,.1-1.09l-1.61-1.92A0.78,0.78,0,0,0,60.09-29Z" transform="translate(-46.72 43.29)"/><path class="cls-2" d="M53.91-18.23h0a0.78,0.78,0,0,0,.63.9L57-16.9a0.78,0.78,0,0,0,.9-0.63h0a0.78,0.78,0,0,0-.63-0.9l-2.46-.43A0.78,0.78,0,0,0,53.91-18.23Z" transform="translate(-46.72 43.29)"/><path class="cls-2" d="M56.06-6.05h0a0.78,0.78,0,0,0,1.06.28L59.28-7a0.78,0.78,0,0,0,.28-1.06h0a0.78,0.78,0,0,0-1.06-.28L56.34-7.11A0.78,0.78,0,0,0,56.06-6.05Z" transform="translate(-46.72 43.29)"/><path class="cls-2" d="M87.39-6.05h0a0.78,0.78,0,0,0-.28-1.06L84.94-8.36a0.78,0.78,0,0,0-1.06.28h0A0.78,0.78,0,0,0,84.16-7l2.17,1.25A0.78,0.78,0,0,0,87.39-6.05Z" transform="translate(-46.72 43.29)"/><path class="cls-2" d="M89.53-18.23h0a0.78,0.78,0,0,0-.9-0.63l-2.46.43a0.78,0.78,0,0,0-.63.9h0a0.78,0.78,0,0,0,.9.63l2.46-.43A0.78,0.78,0,0,0,89.53-18.23Z" transform="translate(-46.72 43.29)"/><path class="cls-2" d="M83.35-29h0a0.78,0.78,0,0,0-1.09.1l-1.61,1.92a0.78,0.78,0,0,0,.1,1.09h0a0.78,0.78,0,0,0,1.09-.1l1.61-1.92A0.78,0.78,0,0,0,83.35-29Z" transform="translate(-46.72 43.29)"/><path class="cls-2" d="M71.72-26.79A11.69,11.69,0,0,0,60-15.09,11.69,11.69,0,0,0,71.72-3.4,11.69,11.69,0,0,0,83.41-15.09,11.69,11.69,0,0,0,71.72-26.79ZM67-19.13a2.17,2.17,0,0,1-2.17-2.17A2.17,2.17,0,0,1,67-23.46a2.17,2.17,0,0,1,2.17,2.17A2.17,2.17,0,0,1,67-19.13Z" transform="translate(-46.72 43.29)"/></svg>