<svg id="레이어_1" data-name="레이어 1" xmlns="http://www.w3.org/2000/svg" width="50" height="50" viewBox="0 0 50 50"><defs><style>.cls-1{fill:#c8c8c8;stroke:#c8c8c8;stroke-miterlimit:10;stroke-width:1.4px;}.cls-2{fill:#a0a0a0;}</style></defs><title>display</title><rect class="cls-1" x="0.7" y="0.7" width="48.6" height="48.6" rx="8.1" ry="8.1"/><path class="cls-2" d="M71.48-13.08H40.1a1.74,1.74,0,0,0-1.74,1.74V11.33a1.74,1.74,0,0,0,1.74,1.74H71.48a1.74,1.74,0,0,0,1.74-1.74V-11.34A1.74,1.74,0,0,0,71.48-13.08ZM70.78,9.71h-30V-11.07h30V9.71Z" transform="translate(-30.79 22.99)"/><path class="cls-2" d="M63.64,15.53H47.93a1.58,1.58,0,0,0-1.58,1.58H65.23A1.58,1.58,0,0,0,63.64,15.53Z" transform="translate(-30.79 22.99)"/><rect class="cls-2" x="24.22" y="36.06" width="1.51" height="2.46"/></svg>