<svg id="레이어_1" data-name="레이어 1" xmlns="http://www.w3.org/2000/svg" width="50" height="50" viewBox="0 0 50 50"><defs><style>.cls-1{fill:#c8c8c8;stroke:#c8c8c8;stroke-miterlimit:10;stroke-width:1.4px;}.cls-2{fill:#a0a0a0;}</style></defs><title>env</title><rect class="cls-1" x="0.7" y="0.7" width="48.6" height="48.6" rx="8.1" ry="8.1"/><path class="cls-2" d="M65.17-22.85v0c0.4-4.05,5.18-10.49,5.18-10.49s4.79,6.44,5.18,10.49v0a5,5,0,0,1,0,.51,5.21,5.21,0,0,1-5.22,5.21,5.21,5.21,0,0,1-5.22-5.21C65.15-22.5,65.16-22.68,65.17-22.85Z" transform="translate(-38.9 41.03)"/><path class="cls-2" d="M52.25-9.31V-24.69h3.7V-9.31A4.7,4.7,0,0,1,58.79-5,4.69,4.69,0,0,1,54.1-.3,4.69,4.69,0,0,1,49.4-5,4.7,4.7,0,0,1,52.25-9.31Z" transform="translate(-38.9 41.03)"/><path class="cls-2" d="M64.86-7.19a5.41,5.41,0,0,0,5.41,5.41V-12.6A5.41,5.41,0,0,0,64.86-7.19Z" transform="translate(-38.9 41.03)"/><path class="cls-2" d="M75.67-7.19a5.41,5.41,0,0,0-5.41-5.41V-1.79A5.41,5.41,0,0,0,75.67-7.19Z" transform="translate(-38.9 41.03)"/><path class="cls-2" d="M79.69-7.54H77.4a0.35,0.35,0,0,0-.35.35h0a0.35,0.35,0,0,0,.35.35h2.29A0.35,0.35,0,0,0,80-7.19h0A0.35,0.35,0,0,0,79.69-7.54Z" transform="translate(-38.9 41.03)"/><path class="cls-2" d="M78.6-2.79l-2-1.15a0.35,0.35,0,0,0-.48.13h0a0.35,0.35,0,0,0,.13.48l2,1.15a0.35,0.35,0,0,0,.48-0.13h0A0.35,0.35,0,0,0,78.6-2.79Z" transform="translate(-38.9 41.03)"/><path class="cls-2" d="M75.28,0.79l-1.15-2a0.35,0.35,0,0,0-.48-0.13h0a0.35,0.35,0,0,0-.13.48l1.15,2a0.35,0.35,0,0,0,.48.13h0A0.35,0.35,0,0,0,75.28.79Z" transform="translate(-38.9 41.03)"/><path class="cls-2" d="M78.25-12.21l-2,1.15a0.35,0.35,0,0,0-.13.48h0a0.35,0.35,0,0,0,.48.13l2-1.15a0.35,0.35,0,0,0,.13-0.48h0A0.35,0.35,0,0,0,78.25-12.21Z" transform="translate(-38.9 41.03)"/><path class="cls-2" d="M74.67-15.53l-1.15,2a0.35,0.35,0,0,0,.13.48h0a0.35,0.35,0,0,0,.48-0.13l1.15-2a0.35,0.35,0,0,0-.13-0.48h0A0.35,0.35,0,0,0,74.67-15.53Z" transform="translate(-38.9 41.03)"/><line class="cls-2" x1="31.36" y1="33.84" x2="33.02" y2="32.85"/><path class="cls-2" d="M57.62-10.26v-19.6a3.53,3.53,0,0,0-3.53-3.53,3.53,3.53,0,0,0-3.53,3.53v19.6A6.32,6.32,0,0,0,47.77-5,6.33,6.33,0,0,0,54.1,1.32,6.33,6.33,0,0,0,60.42-5,6.32,6.32,0,0,0,57.62-10.26ZM54.09,0.51A5.51,5.51,0,0,1,48.58-5a5.51,5.51,0,0,1,2.8-4.8V-29.86a2.71,2.71,0,0,1,2.71-2.71,2.71,2.71,0,0,1,2.71,2.71v20A5.51,5.51,0,0,1,59.61-5,5.51,5.51,0,0,1,54.09.51Z" transform="translate(-38.9 41.03)"/></svg>