<svg id="레이어_1" data-name="레이어 1" xmlns="http://www.w3.org/2000/svg" width="50" height="50" viewBox="0 0 50 50"><defs><style>.cls-1{fill:#c8c8c8;stroke:#c8c8c8;stroke-miterlimit:10;stroke-width:1.4px;}.cls-2{fill:#a0a0a0;}</style></defs><title>gyro</title><rect class="cls-1" x="0.7" y="0.7" width="48.6" height="48.6" rx="8.1" ry="8.1"/><polygon class="cls-2" points="25 28.5 15.89 23.05 15.26 23.41 15.26 34.67 25 40.29 34.74 34.67 34.74 23.41 34.63 23.35 25 28.5"/><path class="cls-2" d="M78.15-5.43L75.69-6.85a1.84,1.84,0,0,0,0-.31V-17.67a1.87,1.87,0,0,0-.93-1.62l-9.1-5.25h0v-3.13a0.91,0.91,0,0,0-.91-0.91,0.91,0.91,0,0,0-.91.91v3.13h0l-9.1,5.25a1.87,1.87,0,0,0-.94,1.62V-7.16a1.84,1.84,0,0,0,0,.31L51.38-5.43A0.91,0.91,0,0,0,51-4.19a0.91,0.91,0,0,0,1.24.33L55-5.4,63.83-.29a1.87,1.87,0,0,0,1.87,0L74.56-5.4l2.69,1.55a0.91,0.91,0,0,0,1.24-.33A0.91,0.91,0,0,0,78.15-5.43ZM63.85-2.75a0.36,0.36,0,0,1-.54.32l-7.5-4.28A0.36,0.36,0,0,1,55.63-7V-16.6a0.36,0.36,0,0,1,.54-0.32l7.5,4.28a0.36,0.36,0,0,1,.18.32v9.56Zm0.73-11.59-7.06-4a0.36,0.36,0,0,1,0-.63l7.07-4a0.36,0.36,0,0,1,.36,0L72-19a0.36,0.36,0,0,1,0,.63l-7.07,4A0.36,0.36,0,0,1,64.58-14.34Zm9.14,7.62-7.5,4.28a0.36,0.36,0,0,1-.54-0.32v-9.56a0.36,0.36,0,0,1,.18-0.32l7.5-4.28a0.36,0.36,0,0,1,.54.32V-7A0.36,0.36,0,0,1,73.72-6.72Z" transform="translate(-39.76 41.65)"/><path class="cls-2" d="M49.58-.53h-2L50-2.93a0.54,0.54,0,0,0,.12-0.17,0.54,0.54,0,0,0,0-.41,0.54,0.54,0,0,0-.29-0.29,0.54,0.54,0,0,0-.21,0H46.26a0.54,0.54,0,0,0-.54.54,0.54,0.54,0,0,0,.54.54h2L45.89-.38a0.53,0.53,0,0,0-.17.39,0.54,0.54,0,0,0,.34.5h0.07l0.13,0h3.32A0.54,0.54,0,0,0,49.58-.53Z" transform="translate(-39.76 41.65)"/><path class="cls-2" d="M82.37-1.65l1.28-1.28a0.54,0.54,0,0,0,0-.76,0.54,0.54,0,0,0-.76,0L81.61-2.41,80.33-3.69a0.54,0.54,0,0,0-.76,0,0.54,0.54,0,0,0,0,.76l1.28,1.28L79.57-.37a0.54,0.54,0,0,0,.76.76L81.61-.89l1.28,1.28a0.54,0.54,0,0,0,.76-0.76Z" transform="translate(-39.76 41.65)"/><path class="cls-2" d="M66.8-33.69a0.54,0.54,0,0,0-.76,0l-1.28,1.28-1.28-1.28a0.54,0.54,0,0,0-.76,0,0.54,0.54,0,0,0,0,.76l1.5,1.5V-30a0.54,0.54,0,0,0,.54.54A0.54,0.54,0,0,0,65.3-30v-1.44l1.5-1.5A0.54,0.54,0,0,0,66.8-33.69Z" transform="translate(-39.76 41.65)"/></svg>