<svg id="레이어_1" data-name="레이어 1" xmlns="http://www.w3.org/2000/svg" width="50" height="50" viewBox="0 0 50 50"><defs><style>.cls-1{fill:#c8c8c8;stroke:#c8c8c8;stroke-miterlimit:10;stroke-width:1.4px;}.cls-2{fill:#a0a0a0;}</style></defs><title>ir</title><rect class="cls-1" x="0.7" y="0.7" width="48.6" height="48.6" rx="8.1" ry="8.1"/><path class="cls-2" d="M66.82-30.85H55.53v19.17H66.82a0.76,0.76,0,0,0,.76-0.76V-30.09A0.76,0.76,0,0,0,66.82-30.85Z" transform="translate(-47.93 46.27)"/><path class="cls-2" d="M67.55-19.55v4.72a2.36,2.36,0,0,0,2.36-2.36A2.36,2.36,0,0,0,67.55-19.55Z" transform="translate(-47.93 46.27)"/><path class="cls-2" d="M67.55-27.71V-23a2.36,2.36,0,0,0,2.36-2.36A2.36,2.36,0,0,0,67.55-27.71Z" transform="translate(-47.93 46.27)"/><circle class="cls-2" cx="71.78" cy="-25.81" r="0.52" transform="translate(27.64 96.63) rotate(-73.07)"/><circle class="cls-2" cx="73.52" cy="-25.28" r="0.52" transform="translate(28.23 98.68) rotate(-72.97)"/><circle class="cls-2" cx="75.26" cy="-24.75" r="0.52" transform="translate(29.09 100.73) rotate(-73.06)"/><circle class="cls-2" cx="77.01" cy="-24.22" r="0.52" transform="translate(29.81 102.77) rotate(-73.06)"/><circle class="cls-2" cx="78.75" cy="-23.69" r="0.52" transform="translate(30.44 104.82) rotate(-72.99)"/><circle class="cls-2" cx="80.5" cy="-23.16" r="0.52" transform="matrix(0.29, -0.96, 0.96, 0.29, 31.25, 106.86)"/><circle class="cls-2" cx="82.24" cy="-22.63" r="0.52" transform="matrix(0.29, -0.96, 0.96, 0.29, 32.08, 108.91)"/><circle class="cls-2" cx="83.98" cy="-22.09" r="0.52" transform="translate(32.65 110.95) rotate(-73.02)"/><circle class="cls-2" cx="85.73" cy="-21.56" r="0.52" transform="translate(33.47 113) rotate(-73.08)"/><circle class="cls-2" cx="87.47" cy="-21.03" r="0.52" transform="translate(-38.13 70.63) rotate(-16.79)"/><circle class="cls-2" cx="85.73" cy="-20.5" r="0.52" transform="translate(-38.21 70.41) rotate(-16.98)"/><circle class="cls-2" cx="83.98" cy="-19.97" r="0.52" transform="matrix(0.96, -0.29, 0.29, 0.96, -38.44, 69.91)"/><circle class="cls-2" cx="82.24" cy="-19.44" r="0.52" transform="translate(-38.69 69.4) rotate(-16.95)"/><circle class="cls-2" cx="80.5" cy="-18.9" r="0.52" transform="translate(-38.91 68.94) rotate(-16.97)"/><circle class="cls-2" cx="78.75" cy="-18.37" r="0.52" transform="translate(-39.14 68.45) rotate(-16.97)"/><circle class="cls-2" cx="77.01" cy="-17.84" r="0.52" transform="translate(-39.39 67.92) rotate(-16.94)"/><polygon class="cls-2" points="27.59 28.94 27.98 30.07 26.33 30.01 24.67 29.96 25.93 28.89 27.2 27.82 27.59 28.94"/><path class="cls-2" d="M90.33-15.86a0.67,0.67,0,0,1-.67.67h0A0.67,0.67,0,0,1,89-15.86V-26.67a0.67,0.67,0,0,1,.67-0.67h0a0.67,0.67,0,0,1,.67.67v10.81Z" transform="translate(-47.93 46.27)"/></svg>