<svg id="레이어_1" data-name="레이어 1" xmlns="http://www.w3.org/2000/svg" width="50" height="50" viewBox="0 0 50 50"><defs><style>.cls-1{fill:#c8c8c8;stroke:#c8c8c8;stroke-miterlimit:10;stroke-width:1.4px;}.cls-2{fill:#a0a0a0;}</style></defs><title>led</title><rect class="cls-1" x="0.7" y="0.7" width="48.6" height="48.6" rx="8.1" ry="8.1"/><rect class="cls-2" x="14.97" y="34.67" width="20.07" height="2.16"/><path class="cls-2" d="M17.79,13.73h0A0.78,0.78,0,0,1,17,13V8.31a0.78,0.78,0,0,1,.78-0.78h0a0.78,0.78,0,0,1,.78.78V13A0.78,0.78,0,0,1,17.79,13.73Z" transform="translate(7.21 -0.01)"/><path class="cls-2" d="M12.37,15.18h0a0.78,0.78,0,0,1-1.06-.28L9,10.88a0.78,0.78,0,0,1,.28-1.06h0a0.78,0.78,0,0,1,1.06.28l2.32,4A0.78,0.78,0,0,1,12.37,15.18Z" transform="translate(7.21 -0.01)"/><path class="cls-2" d="M8.41,19.15h0a0.78,0.78,0,0,1-1.06.28l-4-2.32A0.78,0.78,0,0,1,3,16H3a0.78,0.78,0,0,1,1.06-.28l4,2.32A0.78,0.78,0,0,1,8.41,19.15Z" transform="translate(7.21 -0.01)"/><path class="cls-2" d="M27.17,19.15h0a0.78,0.78,0,0,1,.28-1.06l4-2.32a0.78,0.78,0,0,1,1.06.28h0a0.78,0.78,0,0,1-.28,1.06l-4,2.32A0.78,0.78,0,0,1,27.17,19.15Z" transform="translate(7.21 -0.01)"/><path class="cls-2" d="M23.21,15.18h0a0.78,0.78,0,0,1-.28-1.06l2.32-4a0.78,0.78,0,0,1,1.06-.28h0a0.78,0.78,0,0,1,.28,1.06l-2.32,4A0.78,0.78,0,0,1,23.21,15.18Z" transform="translate(7.21 -0.01)"/><path class="cls-2" d="M12.39,37.64v3.87a1,1,0,1,0,1.93,0V37.64H12.39Z" transform="translate(7.21 -0.01)"/><path class="cls-2" d="M21.25,37.64v3.87a1,1,0,1,0,1.93,0V37.64H21.25Z" transform="translate(7.21 -0.01)"/><path class="cls-2" d="M26.36,33.87V24.65a8.57,8.57,0,1,0-17.15,0v9.22H26.36Z" transform="translate(7.21 -0.01)"/></svg>