<svg id="레이어_1" data-name="레이어 1" xmlns="http://www.w3.org/2000/svg" width="50" height="50" viewBox="0 0 50 50"><defs><style>.cls-1{fill:#c8c8c8;stroke:#c8c8c8;stroke-miterlimit:10;stroke-width:1.4px;}.cls-2{fill:#a0a0a0;}</style></defs><title>mic</title><rect class="cls-1" x="0.7" y="0.7" width="48.6" height="48.6" rx="8.1" ry="8.1"/><path class="cls-2" d="M78.52-25.44v-0.89a7.28,7.28,0,0,0-7.28-7.28A7.28,7.28,0,0,0,64-26.33v0.89h6.34v1.8H64v2.09h6.34v1.8H64v2.09h6.34v1.8H64v2.09h6.34V-12H64v0.89A7.28,7.28,0,0,0,71.24-3.8a7.28,7.28,0,0,0,7.28-7.28V-12H72.18v-1.8h6.34v-2.09H72.18v-1.8h6.34v-2.09H72.18v-1.8h6.34v-2.09H72.18v-1.8h6.34Z" transform="translate(-46.24 41.28)"/><path class="cls-2" d="M80.3-12v1.1a9.06,9.06,0,0,1-9.06,9.06,9.06,9.06,0,0,1-9.06-9.06V-12H59.5v1.27A11.74,11.74,0,0,0,71.24,1,11.74,11.74,0,0,0,83-10.69V-12H80.3Z" transform="translate(-46.24 41.28)"/></svg>