<svg id="레이어_1" data-name="레이어 1" xmlns="http://www.w3.org/2000/svg" width="50" height="50" viewBox="0 0 50 50"><defs><style>.cls-1{fill:#c8c8c8;stroke:#c8c8c8;stroke-miterlimit:10;stroke-width:1.4px;}.cls-2{fill:#a0a0a0;}</style></defs><title>network</title><rect class="cls-1" x="0.7" y="0.7" width="48.6" height="48.6" rx="8.1" ry="8.1"/><path class="cls-2" d="M71.29-23.59a2.6,2.6,0,0,0-2.6,2.6,2.6,2.6,0,0,0,1.6,2.4v15h2v-15A2.6,2.6,0,0,0,73.9-21,2.6,2.6,0,0,0,71.29-23.59Z" transform="translate(-46.29 42.9)"/><path class="cls-2" d="M84.56-21.57s0-.08,0-0.12c0-.4-0.06-0.8-0.11-1.19v-0.06q-0.09-.61-0.23-1.21l0-.06q-0.14-.58-0.34-1.14l0-.13c-0.06-.17-0.13-0.34-0.19-0.51l-0.06-.15-0.15-.35-0.1-.23c-0.06-.14-0.13-0.27-0.2-0.4l-0.15-.28-0.1-.17c-0.1-.18-0.21-0.37-0.33-0.55l0-.08-0.21-.32,0-.06q-0.2-.29-0.41-0.56l-0.07-.1-0.45-.55,0,0L81-30.1l-0.1-.11-0.24-.25-0.19-.18-0.15-.14-0.42-.38-0.15-.13-0.27-.22L79.2-31.7l-0.33-.24-0.21-.14-0.2-.14h0l0,0.08-0.86,1.32h0a11.68,11.68,0,0,1,1.13.84l0.05,0,0.47,0.42,0.07,0.07L79.72-29l0,0a11.7,11.7,0,0,1,1.3,1.67l0,0c0.12,0.18.23,0.37,0.33,0.56l0,0.08c0.1,0.18.2,0.37,0.29,0.56l0,0.06c0.1,0.21.2,0.43,0.28,0.64v0q0.11,0.28.21,0.57l0.07,0.22,0.12,0.42c0,0.08,0,.16.07,0.25s0.08,0.32.11,0.48l0,0.22c0,0.19.07,0.39,0.1,0.59l0,0.24c0,0.15,0,.3,0,0.46s0,0.15,0,.23,0,0.44,0,.66v0c0,0.22,0,.44,0,0.65s0,0.15,0,.23,0,0.3,0,.45l0,0.24c0,0.19-.06.39-0.09,0.58l0,0.23c0,0.16-.07.32-0.11,0.47l-0.07.25-0.12.41-0.07.22c-0.06.19-.13,0.38-0.2,0.56l0,0.05c-0.09.22-.18,0.43-0.28,0.64l0,0.07c-0.09.19-.19,0.37-0.28,0.55l0,0.08c-0.11.19-.22,0.37-0.33,0.55l0,0A11.61,11.61,0,0,1,79.76-13l0,0-0.44.44-0.08.07L78.74-12,78.68-12l-0.53.42h0l-0.59.41,0.91,1.4h0l0.22-.15L78.86-10l0.49-.36,0.12-.09,0.28-.23,0.13-.11,0.44-.39,0.15-.14,0.19-.18,0.23-.25L81-11.88l0.25-.27,0-.06,0.44-.54,0.08-.1c0.14-.18.28-0.37,0.41-0.56l0-.06,0.21-.32,0.05-.08c0.11-.18.22-0.36,0.32-0.54l0.1-.17,0.15-.28c0.07-.13.14-0.26,0.2-0.4l0.1-.23,0.15-.34L83.6-16l0.19-.51,0-.13q0.19-.56.34-1.14l0-.06q0.14-.59.23-1.2V-19.1c0.06-.39.09-0.79,0.11-1.19,0,0,0-.08,0-0.12,0-.2,0-0.39,0-0.59S84.57-21.38,84.56-21.57Z" transform="translate(-46.29 42.9)"/><path class="cls-2" d="M77.91-21a6.66,6.66,0,0,0-3-5.59L74-25.18A5,5,0,0,1,76.24-21,5,5,0,0,1,74-16.8l0.91,1.4A6.66,6.66,0,0,0,77.91-21Z" transform="translate(-46.29 42.9)"/><path class="cls-2" d="M81.22-21a10,10,0,0,0-4.58-8.42L75.73-28a8.36,8.36,0,0,1,3.82,7,8.36,8.36,0,0,1-3.82,7l0.91,1.4A10,10,0,0,0,81.22-21Z" transform="translate(-46.29 42.9)"/><path class="cls-2" d="M63.82-12.08l-0.47-.41-0.07-.07L62.85-13l0,0a11.61,11.61,0,0,1-1.29-1.66l0,0c-0.11-.18-0.22-0.37-0.33-0.56l0-.08c-0.1-.18-0.2-0.37-0.29-0.56l0-.06c-0.1-.21-0.19-0.42-0.28-0.64l0,0Q60.4-17,60.3-17.24l-0.07-.21-0.12-.42L60-18.12c0-.16-0.08-0.32-0.11-0.48l0-.21q-0.05-.29-0.09-0.58c0-.08,0-0.16,0-0.24s0-.3,0-0.45l0-.23c0-.22,0-0.43,0-0.65v0c0-.22,0-0.43,0-0.65l0-.23c0-.15,0-0.3,0-0.45s0-.16,0-0.24,0.06-.38.09-0.57,0-.15,0-0.23S60-23.7,60-23.86l0.07-.25c0-.14.08-0.28,0.12-0.41l0.07-.22c0.06-.19.13-0.38,0.21-0.56l0,0c0.09-.22.18-0.43,0.28-0.64l0-.07q0.14-.28.28-0.55l0-.09c0.1-.19.21-0.37,0.33-0.55l0,0a11.72,11.72,0,0,1,1.29-1.66l0,0,0.44-.44,0.08-.07,0.46-.41,0.06-.05,0.53-.42h0L65-30.78l-0.91-1.4h0L63.87-32l-0.17.12-0.49.36-0.11.09-0.28.23-0.13.11-0.44.39-0.15.14-0.19.18-0.23.24-0.11.11-0.25.27,0,0.06-0.44.53-0.08.1c-0.14.18-.28,0.37-0.41,0.56l0,0.06-0.21.31-0.05.08c-0.11.18-.22,0.36-0.32,0.54l-0.09.17-0.15.28c-0.07.13-.13,0.26-0.2,0.4l-0.1.22L59-26.12,59-26c-0.07.17-.13,0.34-0.19,0.51l0,0.13c-0.13.37-.24,0.75-0.34,1.14l0,0.06c-0.09.39-.17,0.79-0.23,1.2v0.06c-0.06.39-.09,0.78-0.11,1.18,0,0,0,.08,0,0.12,0,0.19,0,.39,0,0.58s0,0.39,0,.58c0,0,0,.08,0,0.12,0,0.4.06,0.8,0.11,1.19V-19c0.06,0.41.14,0.81,0.23,1.2l0,0.06q0.14,0.58.34,1.14l0,0.13c0.06,0.17.12,0.34,0.19,0.51L59-15.86l0.15,0.35,0.1,0.22c0.06,0.13.13,0.27,0.2,0.4l0.15,0.28,0.09,0.17c0.1,0.18.21,0.37,0.33,0.54l0,0.08,0.21,0.32,0,0.06,0.41,0.56,0.08,0.1,0.45,0.54,0,0,0.25,0.27,0.1,0.11,0.24,0.25,0.19,0.18,0.15,0.14,0.42,0.38,0.15,0.13,0.27,0.22,0.27,0.2,0.33,0.24L63.9-9.94,64.1-9.8h0l0.05-.08L65-11.2h0A11.88,11.88,0,0,1,63.88-12Z" transform="translate(-46.29 42.9)"/><path class="cls-2" d="M68.63-25.18l-0.91-1.4a6.66,6.66,0,0,0-3,5.59,6.66,6.66,0,0,0,3,5.59l0.91-1.4A5,5,0,0,1,66.35-21,5,5,0,0,1,68.63-25.18Z" transform="translate(-46.29 42.9)"/><path class="cls-2" d="M63-21a8.32,8.32,0,0,1,3.8-7l-0.9-1.4A10,10,0,0,0,61.35-21a10,10,0,0,0,4.56,8.39l0.9-1.4A8.32,8.32,0,0,1,63-21Z" transform="translate(-46.29 42.9)"/></svg>