<svg id="레이어_1" data-name="레이어 1" xmlns="http://www.w3.org/2000/svg" width="49.6" height="49.6" viewBox="0 0 49.6 49.6"><defs><style>.cls-1{fill:#c8c8c8;stroke:#c8c8c8;stroke-miterlimit:10;stroke-width:1.4px;}.cls-2{fill:#a0a0a0;}</style></defs><title>speaker</title><rect class="cls-1" x="0.7" y="0.7" width="48.2" height="48.2" rx="8.03" ry="8.03"/><path class="cls-2" d="M60.87-.87l1.49-1.49a6.31,6.31,0,0,1,0,8.92L60.87,5.07A4.2,4.2,0,0,0,60.87-.87Z" transform="translate(-31.01 22.7)"/><path class="cls-2" d="M65.32,9.53L63.84,8a8.41,8.41,0,0,0,0-11.89l1.49-1.49A10.51,10.51,0,0,1,65.32,9.53Z" transform="translate(-31.01 22.7)"/><path class="cls-2" d="M66.81,11L68.3,12.5a14.71,14.71,0,0,0,0-20.8L66.81-6.81A12.61,12.61,0,0,1,66.81,11Z" transform="translate(-31.01 22.7)"/><polygon class="cls-2" points="13.38 18.76 8.01 18.76 8.01 24.8 8.01 30.84 13.38 30.84 13.38 18.76"/><path class="cls-2" d="M55.3-12.53a3.6,3.6,0,0,0-1.62,1L45.2-3.95V8.15l8.48,7.57a3.6,3.6,0,0,0,1.62,1,1.27,1.27,0,0,0,1.35-1.27V-11.27A1.27,1.27,0,0,0,55.3-12.53Z" transform="translate(-31.01 22.7)"/></svg>