<svg id="레이어_1" data-name="레이어 1" xmlns="http://www.w3.org/2000/svg" width="50" height="50" viewBox="0 0 50 50"><defs><style>.cls-1{fill:#c8c8c8;stroke:#c8c8c8;stroke-miterlimit:10;stroke-width:1.4px;}.cls-2{fill:#a0a0a0;}</style></defs><title>ultrasonic</title><rect class="cls-1" x="0.7" y="0.7" width="48.6" height="48.6" rx="8.1" ry="8.1"/><path class="cls-2" d="M65.7-30.67A10.63,10.63,0,0,0,55.07-20,10.63,10.63,0,0,0,65.7-9.41,10.63,10.63,0,0,0,76.33-20,10.63,10.63,0,0,0,65.7-30.67Zm7.9,9.82H72.3a6.65,6.65,0,0,0-5.79-5.79v-1.3A7.94,7.94,0,0,1,73.6-20.85Zm-8.71-1.89A2.82,2.82,0,0,0,63-20.85H61.41a4.37,4.37,0,0,1,3.48-3.48v1.59ZM63-19.23a2.83,2.83,0,0,0,1.89,1.89v1.59a4.37,4.37,0,0,1-3.48-3.48H63Zm3.51,1.89a2.82,2.82,0,0,0,1.89-1.89H70a4.37,4.37,0,0,1-3.48,3.48v-1.59Zm1.89-3.51a2.82,2.82,0,0,0-1.89-1.89v-1.59A4.37,4.37,0,0,1,70-20.85H68.4Zm-3.51-7.09v1.3a6.65,6.65,0,0,0-5.79,5.79H57.8A7.94,7.94,0,0,1,64.89-27.94ZM57.8-19.23h1.3a6.65,6.65,0,0,0,5.79,5.79v1.3A7.94,7.94,0,0,1,57.8-19.23Zm8.71,7.08v-1.3a6.65,6.65,0,0,0,5.79-5.79h1.3A7.94,7.94,0,0,1,66.51-12.15Z" transform="translate(-47.43 45.04)"/><path class="cls-2" d="M78-23l1.5-1.5a6.36,6.36,0,0,1,0,9L78-17A4.24,4.24,0,0,0,78-23Z" transform="translate(-47.43 45.04)"/><path class="cls-2" d="M82.45-12.55L81-14a8.48,8.48,0,0,0,0-12l1.5-1.5A10.59,10.59,0,0,1,82.45-12.55Z" transform="translate(-47.43 45.04)"/><path class="cls-2" d="M84-11.05l1.5,1.5a14.83,14.83,0,0,0,0-21L84-29A12.71,12.71,0,0,1,84-11.05Z" transform="translate(-47.43 45.04)"/></svg>