<svg id="레이어_1" data-name="레이어 1" xmlns="http://www.w3.org/2000/svg" viewBox="0 0 30 30"><defs><style>.cls-1{fill:#231f20;opacity:0.4;}.cls-2{fill:#fff;}</style></defs><title>100fit</title><rect class="cls-1" width="30" height="30" rx="2" ry="2"/><path class="cls-2" d="M4,18.83a0.19,0.19,0,0,1-.15,0,0.25,0.25,0,0,1,0-.16V13l-0.6.57q-0.16.15-.24,0L2.41,13a0.11,0.11,0,0,1,0-.12,0.45,0.45,0,0,1,.11-0.13L4,11.32a0.36,0.36,0,0,1,.23-0.09H4.87a0.38,0.38,0,0,1,.25,0,0.62,0.62,0,0,1,0,.29v7a0.25,0.25,0,0,1,0,.16,0.18,0.18,0,0,1-.15,0H4Z" transform="translate(0 0)"/><path class="cls-2" d="M9.62,18.93A2.12,2.12,0,0,1,7.7,17.87a3.84,3.84,0,0,1-.46-1.23A8,8,0,0,1,7.09,15q0-.39,0-0.83a6.08,6.08,0,0,1,.14-0.87,4.49,4.49,0,0,1,.28-0.83A2.65,2.65,0,0,1,8,11.81a2.08,2.08,0,0,1,.68-0.48,2.21,2.21,0,0,1,.92-0.18,2.17,2.17,0,0,1,.92.18,2.1,2.1,0,0,1,.67.48,2.56,2.56,0,0,1,.46.7,4.69,4.69,0,0,1,.28.83,6.19,6.19,0,0,1,.14.88q0,0.44,0,.82A8,8,0,0,1,12,16.63a3.9,3.9,0,0,1-.46,1.23,2.24,2.24,0,0,1-.78.79A2.16,2.16,0,0,1,9.62,18.93Zm0-6.52a0.89,0.89,0,0,0-.46.13,1.05,1.05,0,0,0-.38.44,2.91,2.91,0,0,0-.25.81A7,7,0,0,0,8.44,15a7.1,7.1,0,0,0,.09,1.26,2.83,2.83,0,0,0,.25.81,1.06,1.06,0,0,0,.38.43,0.9,0.9,0,0,0,.92,0,1.06,1.06,0,0,0,.38-0.43,2.84,2.84,0,0,0,.25-0.81A7.1,7.1,0,0,0,10.8,15a7,7,0,0,0-.09-1.25A2.91,2.91,0,0,0,10.46,13a1.06,1.06,0,0,0-.38-0.44A0.89,0.89,0,0,0,9.62,12.42Z" transform="translate(0 0)"/><path class="cls-2" d="M15.3,18.93a2.12,2.12,0,0,1-1.92-1.07,3.84,3.84,0,0,1-.46-1.23,8,8,0,0,1-.15-1.6q0-.39,0-0.83A6.08,6.08,0,0,1,13,13.34a4.49,4.49,0,0,1,.28-0.83,2.65,2.65,0,0,1,.46-0.7,2.08,2.08,0,0,1,.68-0.48,2.21,2.21,0,0,1,.92-0.18,2.17,2.17,0,0,1,.92.18,2.1,2.1,0,0,1,.67.48,2.56,2.56,0,0,1,.46.7,4.69,4.69,0,0,1,.28.83,6.19,6.19,0,0,1,.14.88q0,0.44,0,.82a8,8,0,0,1-.15,1.59,3.9,3.9,0,0,1-.46,1.23,2.24,2.24,0,0,1-.78.79A2.16,2.16,0,0,1,15.3,18.93Zm0-6.52a0.89,0.89,0,0,0-.46.13,1.05,1.05,0,0,0-.38.44,2.91,2.91,0,0,0-.25.81A7,7,0,0,0,14.12,15a7.1,7.1,0,0,0,.09,1.26,2.83,2.83,0,0,0,.25.81,1.06,1.06,0,0,0,.38.43,0.9,0.9,0,0,0,.92,0,1.06,1.06,0,0,0,.38-0.43,2.84,2.84,0,0,0,.25-0.81A7.1,7.1,0,0,0,16.49,15a7,7,0,0,0-.09-1.25A2.91,2.91,0,0,0,16.14,13a1.06,1.06,0,0,0-.38-0.44A0.89,0.89,0,0,0,15.3,12.42Z" transform="translate(0 0)"/><path class="cls-2" d="M22.17,14.67a1.44,1.44,0,0,1-.58.46,2,2,0,0,1-.79.14A2,2,0,0,1,20,15.11a1.5,1.5,0,0,1-.56-0.44A1.76,1.76,0,0,1,19.1,14a3.44,3.44,0,0,1,0-1.63,1.85,1.85,0,0,1,.32-0.67A1.56,1.56,0,0,1,20,11.26a1.86,1.86,0,0,1,.83-0.17,1.84,1.84,0,0,1,.82.17,1.56,1.56,0,0,1,.56.46,1.92,1.92,0,0,1,.32.67,3.12,3.12,0,0,1,.1.81,3.06,3.06,0,0,1-.1.83A1.74,1.74,0,0,1,22.17,14.67ZM20.8,12.28a0.47,0.47,0,0,0-.42.21,1.36,1.36,0,0,0-.14.71,1.58,1.58,0,0,0,.12.64,0.44,0.44,0,0,0,.44.28,0.45,0.45,0,0,0,.4-0.21,1.36,1.36,0,0,0,.14-0.71,1.36,1.36,0,0,0-.14-0.71A0.45,0.45,0,0,0,20.8,12.28Zm1.08,6.58a0.21,0.21,0,0,1-.12.12l-0.18,0H20.71a0.31,0.31,0,0,1-.19,0s0-.09,0-0.19l4.22-7.63a0.27,0.27,0,0,1,.09-0.1L25,11h1a0.24,0.24,0,0,1,.2.05,0.23,0.23,0,0,1,0,.2Zm5.32-.6a1.45,1.45,0,0,1-.58.46,2,2,0,0,1-.79.14A2,2,0,0,1,25,18.7a1.51,1.51,0,0,1-.56-0.44,1.75,1.75,0,0,1-.32-0.66,3.44,3.44,0,0,1,0-1.63,1.85,1.85,0,0,1,.32-0.67A1.55,1.55,0,0,1,25,14.85a1.86,1.86,0,0,1,.83-0.17,1.83,1.83,0,0,1,.82.17,1.55,1.55,0,0,1,.56.45,1.92,1.92,0,0,1,.32.67,3.12,3.12,0,0,1,.1.81,3.06,3.06,0,0,1-.1.83A1.74,1.74,0,0,1,27.2,18.26Zm-1.37-2.39a0.47,0.47,0,0,0-.42.21,1.36,1.36,0,0,0-.14.71,1.58,1.58,0,0,0,.12.64,0.44,0.44,0,0,0,.44.28,0.45,0.45,0,0,0,.4-0.21,1.36,1.36,0,0,0,.14-0.71,1.36,1.36,0,0,0-.14-0.71A0.45,0.45,0,0,0,25.83,15.87Z" transform="translate(0 0)"/><polygon class="cls-2" points="2.28 2.28 2.28 6.65 3.8 6.65 3.8 3.8 6.65 3.8 6.65 2.28 2.28 2.28"/><polygon class="cls-2" points="27.72 2.28 23.35 2.28 23.35 3.8 26.2 3.8 26.2 6.65 27.72 6.65 27.72 2.28"/><polygon class="cls-2" points="27.72 27.72 27.72 23.35 26.2 23.35 26.2 26.2 23.35 26.2 23.35 27.72 27.72 27.72"/><polygon class="cls-2" points="2.28 27.72 6.65 27.72 6.65 26.2 3.8 26.2 3.8 23.35 2.28 23.35 2.28 27.72"/></svg>