<svg id="레이어_1" data-name="레이어 1" xmlns="http://www.w3.org/2000/svg" viewBox="0 0 22 22"><defs><style>.cls-1{fill:#939393;}.cls-2{fill:#fafafa;}</style></defs><title>background</title><circle class="cls-1" cx="11" cy="11" r="11"/><path class="cls-2" d="M4.83,1.9l0,0Z" transform="translate(0)"/><path class="cls-2" d="M5.72,1.35l0,0Z" transform="translate(0)"/><path class="cls-2" d="M4,2.53l0,0Z" transform="translate(0)"/><path class="cls-2" d="M3.23,3.22l0,0Z" transform="translate(0)"/><path class="cls-2" d="M6.68,0.88l0,0Z" transform="translate(0)"/><path class="cls-2" d="M8.77,0.23h0Z" transform="translate(0)"/><path class="cls-2" d="M7.7,0.51h0Z" transform="translate(0)"/><path class="cls-2" d="M0.85,6.77l0-.08Z" transform="translate(0)"/><path class="cls-2" d="M0.48,7.79l0-.1Z" transform="translate(0)"/><path class="cls-2" d="M0.21,8.85l0-.11Z" transform="translate(0)"/><path class="cls-2" d="M12.09,0.05c0.3,0,.59.08,0.88,0.13C12.67,0.13,12.38.08,12.09,0.05Z" transform="translate(0)"/><path class="cls-2" d="M2.49,4l0,0Z" transform="translate(0)"/><path class="cls-2" d="M1.86,4.88l0,0Z" transform="translate(0)"/><path class="cls-2" d="M1.31,5.8l0-.06Z" transform="translate(0)"/><path class="cls-2" d="M14.17,0.47c0.32,0.1.64,0.21,0.95,0.34C14.81,0.68,14.49.57,14.17,0.47Z" transform="translate(0)"/><path class="cls-2" d="M21,6.4q0.21,0.45.38,0.93C21.25,7,21.12,6.71,21,6.4Z" transform="translate(0)"/><path class="cls-2" d="M21.38,7.38q0.16,0.47.28,1C21.58,8,21.49,7.69,21.38,7.38Z" transform="translate(0)"/><path class="cls-2" d="M20.5,5.48q0.25,0.43.46,0.89C20.82,6.06,20.67,5.77,20.5,5.48Z" transform="translate(0)"/><path class="cls-2" d="M21.88,9.46c0,0.32.07,0.65,0.09,1C22,10.11,21.93,9.78,21.88,9.46Z" transform="translate(0)"/><path class="cls-2" d="M21.68,8.4q0.12,0.48.19,1C21.82,9,21.76,8.72,21.68,8.4Z" transform="translate(0)"/><path class="cls-2" d="M19.29,3.78Q19,3.4,18.6,3.06,19,3.4,19.29,3.78Z" transform="translate(0)"/><path class="cls-2" d="M19.94,4.61q0.29,0.41.54,0.84Q20.23,5,19.94,4.61Z" transform="translate(0)"/><path class="cls-2" d="M13.15,0.21c0.32,0.06.63,0.14,0.94,0.23C13.78,0.36,13.47.28,13.15,0.21Z" transform="translate(0)"/><path class="cls-2" d="M15.16,0.82q0.47,0.19.92,0.43C15.78,1.09,15.47.95,15.16,0.82Z" transform="translate(0)"/><path class="cls-2" d="M19.31,3.8q0.33,0.38.62,0.79Q19.63,4.18,19.31,3.8Z" transform="translate(0)"/><path class="cls-2" d="M16.09,1.26q0.45,0.24.88,0.51C16.69,1.59,16.4,1.41,16.09,1.26Z" transform="translate(0)"/><path class="cls-2" d="M1.92,11.48a9.08,9.08,0,0,0,16.74,4.36L17,14.6,22,11.49c0-.16,0-0.32,0-0.49s0-.32,0-0.49H20.05A9.08,9.08,0,0,0,3.31,6.15L4.95,7.4,0,10.5c0,0.17,0,.33,0,0.5s0,0.32,0,.48h1.9Z" transform="translate(0)"/><path class="cls-2" d="M11.49,0L11,0h0Z" transform="translate(0)"/><path class="cls-2" d="M17.82,2.38q0.4,0.31.76,0.66Q18.22,2.69,17.82,2.38Z" transform="translate(0)"/><path class="cls-2" d="M17,1.78q0.43,0.28.82,0.59Q17.41,2.06,17,1.78Z" transform="translate(0)"/><path class="cls-2" d="M0.05,9.94v0Z" transform="translate(0)"/><path class="cls-2" d="M13.15,21.79c0.32-.06.63-0.14,0.94-0.23C13.78,21.64,13.47,21.72,13.15,21.79Z" transform="translate(0)"/><path class="cls-2" d="M12.09,21.95c0.3,0,.59-0.08.88-0.13C12.67,21.87,12.38,21.92,12.09,21.95Z" transform="translate(0)"/><path class="cls-2" d="M18.59,18.95q-0.37.35-.77,0.67Q18.22,19.3,18.59,18.95Z" transform="translate(0)"/><path class="cls-2" d="M15.16,21.18c0.32-.13.63-0.27,0.93-0.43Q15.63,21,15.16,21.18Z" transform="translate(0)"/><path class="cls-2" d="M14.17,21.53c0.32-.1.64-0.21,0.95-0.34C14.81,21.32,14.49,21.43,14.17,21.53Z" transform="translate(0)"/><path class="cls-2" d="M16.09,20.74q0.46-.24.89-0.52Q16.55,20.5,16.09,20.74Z" transform="translate(0)"/><path class="cls-2" d="M18.59,18.95q0.37-.35.7-0.74Q19,18.59,18.59,18.95Z" transform="translate(0)"/><path class="cls-2" d="M21.88,12.54c0-.32.08-0.65,0.09-1C22,11.89,21.93,12.22,21.88,12.54Z" transform="translate(0)"/><path class="cls-2" d="M19.94,17.39q0.3-.41.55-0.85Q20.24,17,19.94,17.39Z" transform="translate(0)"/><path class="cls-2" d="M20.5,16.52q0.26-.44.47-0.9Q20.76,16.09,20.5,16.52Z" transform="translate(0)"/><path class="cls-2" d="M19.3,18.2q0.33-.38.63-0.8Q19.64,17.82,19.3,18.2Z" transform="translate(0)"/><path class="cls-2" d="M21,15.6q0.21-.46.38-0.94Q21.19,15.14,21,15.6Z" transform="translate(0)"/><path class="cls-2" d="M21.68,13.61c0.08-.32.14-0.65,0.19-1Q21.79,13.12,21.68,13.61Z" transform="translate(0)"/><path class="cls-2" d="M17,20.22q0.43-.28.83-0.6Q17.42,19.94,17,20.22Z" transform="translate(0)"/><path class="cls-2" d="M21.38,14.63q0.17-.48.29-1Q21.54,14.15,21.38,14.63Z" transform="translate(0)"/><path class="cls-2" d="M0.48,14.2l0,0.11Z" transform="translate(0)"/><path class="cls-2" d="M11,22h0l0.49,0Z" transform="translate(0)"/><path class="cls-2" d="M1.85,17.11l0,0.06Z" transform="translate(0)"/><path class="cls-2" d="M1.3,16.19l0,0.07Z" transform="translate(0)"/><path class="cls-2" d="M5.72,20.65l0,0Z" transform="translate(0)"/><path class="cls-2" d="M0.84,15.22l0,0.09Z" transform="translate(0)"/><path class="cls-2" d="M7.7,21.49h0Z" transform="translate(0)"/><path class="cls-2" d="M6.68,21.12l0,0Z" transform="translate(0)"/><path class="cls-2" d="M4.82,20.1l0,0Z" transform="translate(0)"/><path class="cls-2" d="M8.77,21.77h0Z" transform="translate(0)"/><path class="cls-2" d="M2.52,18l0,0Z" transform="translate(0)"/><path class="cls-2" d="M4,19.46l0,0Z" transform="translate(0)"/><path class="cls-2" d="M3.2,18.75l0,0Z" transform="translate(0)"/><path class="cls-2" d="M0.05,12.05v0Z" transform="translate(0)"/><path class="cls-2" d="M0.21,13.14l0,0.13Z" transform="translate(0)"/><polygon class="cls-1" points="8.11 4.8 8.11 6.83 6.68 6.44 6.68 15.26 13.89 17.2 13.89 15.18 8.11 13.62 8.11 6.83 13.89 8.38 13.89 15.18 15.32 15.56 15.32 6.74 8.11 4.8"/></svg>