<svg id="레이어_1" data-name="레이어 1" xmlns="http://www.w3.org/2000/svg" viewBox="0 0 30 30"><defs><style>.cls-1{fill:#231f20;opacity:0.4;}.cls-2{fill:none;stroke:#fff;stroke-miterlimit:10;stroke-width:1.5px;}.cls-3{fill:#fff;}</style></defs><title>cui</title><rect class="cls-1" width="30" height="30" rx="2" ry="2"/><rect class="cls-2" x="3.33" y="5.74" width="23.33" height="18.67" rx="1.56" ry="1.56"/><line class="cls-2" x1="9.42" y1="5.74" x2="9.42" y2="24.41"/><path class="cls-3" d="M22.64,10.57a0.73,0.73,0,0,1-.73.73H13a0.73,0.73,0,0,1-.73-0.73h0A0.73,0.73,0,0,1,13,9.84h8.91a0.73,0.73,0,0,1,.73.73h0Z"/><path class="cls-3" d="M22.64,13.77a0.73,0.73,0,0,1-.73.73H13a0.73,0.73,0,0,1-.73-0.73h0A0.73,0.73,0,0,1,13,13h8.91a0.73,0.73,0,0,1,.73.73h0Z"/><path class="cls-3" d="M18.3,17a0.73,0.73,0,0,1-.73.73H13A0.73,0.73,0,0,1,12.27,17h0A0.73,0.73,0,0,1,13,16.23h4.57a0.73,0.73,0,0,1,.73.73h0Z"/><path class="cls-3" d="M7.86,8.63a0.73,0.73,0,0,1-.73.73H5.48a0.73,0.73,0,0,1-.73-0.73h0A0.73,0.73,0,0,1,5.48,7.9H7.13a0.73,0.73,0,0,1,.73.73h0Z"/><path class="cls-3" d="M7.86,11.05a0.73,0.73,0,0,1-.73.73H5.48a0.73,0.73,0,0,1-.73-0.73h0a0.73,0.73,0,0,1,.73-0.73H7.13a0.73,0.73,0,0,1,.73.73h0Z"/></svg>