<svg id="레이어_1" data-name="레이어 1" xmlns="http://www.w3.org/2000/svg" width="44" height="44" viewBox="0 0 44 44"><defs><style>.cls-1{fill:#fff;opacity:0;}.cls-2{fill:#939393;}</style></defs><title>gui</title><rect class="cls-1" width="44" height="44"/><path class="cls-2" d="M27.4,12.78V9H16.6v1.6H14.17a0.9,0.9,0,0,1-.9-0.9V8.41h8.13V4.59H10.6V8.41h2v5.94a1.57,1.57,0,0,0,1.57,1.57h2.46v1.49H27.4V13.6H16.6v1.59H14.17a0.9,0.9,0,0,1-.9-0.9V11a1.56,1.56,0,0,0,.87.27H16.6v1.49H27.4Z" transform="translate(3 11)"/><path class="cls-2" d="M29.83,1H8.13A1.67,1.67,0,0,0,6.5,2.66V19.33A1.67,1.67,0,0,0,8.17,21H29.8a1.67,1.67,0,0,0,1.7-1.64V2.66A1.67,1.67,0,0,0,29.83,1ZM29.41,18.68a0.43,0.43,0,0,1-.43.43H9a0.43,0.43,0,0,1-.43-0.43V3.32A0.43,0.43,0,0,1,9,2.89H29a0.43,0.43,0,0,1,.43.43V18.68Z" transform="translate(3 11)"/></svg>