<svg id="레이어_1" data-name="레이어 1" xmlns="http://www.w3.org/2000/svg" viewBox="0 0 66 22"><defs><style>.cls-1{fill:#fff;fill-opacity:0;}.cls-2{fill:#26cad3;}</style></defs><title>liveMapOn</title><rect class="cls-1" width="66" height="22"/><path class="cls-2" d="M10.51,14.95a0.15,0.15,0,0,1-.17.17H9.8a0.15,0.15,0,0,1-.17-0.17V7L8,10.94,7.45,12.4,6.94,13.67l-0.37.91-0.14.36a0.19,0.19,0,0,1-.18.12H5.7a0.19,0.19,0,0,1-.12,0,0.22,0.22,0,0,1-.06-0.09L2.21,7v8a0.15,0.15,0,0,1-.17.17H1.5a0.15,0.15,0,0,1-.17-0.17V6.55a0.56,0.56,0,0,1,0-.29,0.56,0.56,0,0,1,.29,0h0.9a0.3,0.3,0,0,1,.14,0,0.23,0.23,0,0,1,.08.12L6,14.12l3.1-7.78a0.19,0.19,0,0,1,.19-0.13h0.91a0.56,0.56,0,0,1,.29,0,0.56,0.56,0,0,1,0,.29v8.4Z"/><path class="cls-2" d="M17.94,11.88a4.1,4.1,0,0,1-.2,1.31,3.83,3.83,0,0,1-.54,1.06,2.92,2.92,0,0,1-1,.78,3.05,3.05,0,0,1-1.33.28A3.09,3.09,0,0,1,13.54,15a2.9,2.9,0,0,1-1-.78A3.77,3.77,0,0,1,12,13.19a4.21,4.21,0,0,1-.2-1.31,3.71,3.71,0,0,1,.73-2.38,2.84,2.84,0,0,1,2.34-1,3.23,3.23,0,0,1,1.33.26,2.64,2.64,0,0,1,1,.79A3.73,3.73,0,0,1,17.94,11.88Zm-0.89,0a3.59,3.59,0,0,0-.15-1.06,3.17,3.17,0,0,0-.41-0.88A2.12,2.12,0,0,0,14,9.37a2.17,2.17,0,0,0-.71.57,3,3,0,0,0-.43.88,3.85,3.85,0,0,0,0,2.12,2.81,2.81,0,0,0,.43.86,2,2,0,0,0,1.62.78,2,2,0,0,0,.91-0.2,2.26,2.26,0,0,0,.71-0.58,3,3,0,0,0,.41-0.86A3.62,3.62,0,0,0,17.05,11.88Z"/><path class="cls-2" d="M24.17,14.95a0.15,0.15,0,0,1-.17.17H23.53a0.15,0.15,0,0,1-.17-0.17V14a2.19,2.19,0,0,1-2.09,1.22,2.34,2.34,0,0,1-2-1,4,4,0,0,1-.66-2.42q0-3.37,2.66-3.37a2.75,2.75,0,0,1,1.28.29,1.87,1.87,0,0,1,.81.74V5.74a0.15,0.15,0,0,1,.17-0.17H24a0.15,0.15,0,0,1,.17.17v9.2ZM19.5,11.86a5.34,5.34,0,0,0,.09,1,2.75,2.75,0,0,0,.28.81,1.91,1.91,0,0,0,.64.66,1.72,1.72,0,0,0,.91.23,1.46,1.46,0,0,0,.85-0.25,2.18,2.18,0,0,0,.61-0.64,3,3,0,0,0,.37-0.88,4,4,0,0,0,.12-1,4.29,4.29,0,0,0-.13-1.07,2.67,2.67,0,0,0-.37-0.85,1.81,1.81,0,0,0-.61-0.56,1.68,1.68,0,0,0-.84-0.2,1.7,1.7,0,0,0-1.55.88,2.76,2.76,0,0,0-.28.81A5.21,5.21,0,0,0,19.5,11.86Z"/><path class="cls-2" d="M30.8,14.95a0.15,0.15,0,0,1-.17.17H30.2A0.15,0.15,0,0,1,30,14.95V14a2.17,2.17,0,0,1-.83,1,2.49,2.49,0,0,1-1.31.32q-2.24,0-2.24-2.51v-4a0.15,0.15,0,0,1,.17-0.17h0.48a0.15,0.15,0,0,1,.17.17v3.79q0,2,1.56,2a1.7,1.7,0,0,0,.82-0.2,1.87,1.87,0,0,0,.62-0.54,2.53,2.53,0,0,0,.38-0.8,3.14,3.14,0,0,0,.12-1V8.79a0.15,0.15,0,0,1,.17-0.17h0.48a0.15,0.15,0,0,1,.17.17v4.82c0,0.26,0,.5,0,0.71S30.8,14.74,30.8,14.95Z"/><path class="cls-2" d="M33,15.12H32.48a0.15,0.15,0,0,1-.17-0.17V5.74a0.15,0.15,0,0,1,.17-0.17H33a0.15,0.15,0,0,1,.17.17v9.2A0.15,0.15,0,0,1,33,15.12Z"/><path class="cls-2" d="M35,12.1a3.19,3.19,0,0,0,.14,1.06,2.06,2.06,0,0,0,.44.77,2,2,0,0,0,.69.48,2.31,2.31,0,0,0,.89.17,4.32,4.32,0,0,0,.9-0.09,2.73,2.73,0,0,0,.78-0.29q0.16-.07.16,0.08v0.54a0.19,0.19,0,0,1-.13.17,4.38,4.38,0,0,1-.83.23,5.28,5.28,0,0,1-.94.08,2.82,2.82,0,0,1-2.23-.86,3.82,3.82,0,0,1-.76-2.59A3.8,3.8,0,0,1,34.9,9.4a2.5,2.5,0,0,1,2-.95,2.64,2.64,0,0,1,1.16.24,2.26,2.26,0,0,1,.84.72,3.83,3.83,0,0,1,.61,2.28q0,0.16,0,.24a0.18,0.18,0,0,1,0,.12,0.19,0.19,0,0,1-.13,0H35Zm3.6-.68a3.65,3.65,0,0,0-.1-0.88,2.26,2.26,0,0,0-.3-0.7,1.43,1.43,0,0,0-1.28-.71,1.68,1.68,0,0,0-1.4.72,3.25,3.25,0,0,0-.36.74,2.77,2.77,0,0,0-.16.82h3.6Z"/><path class="cls-2" d="M52.56,14.95a0.15,0.15,0,0,1-.17.17H51.85a0.15,0.15,0,0,1-.17-0.17V7l-1.6,3.95L49.5,12.4,49,13.67l-0.37.91-0.14.36a0.19,0.19,0,0,1-.18.12H47.75a0.19,0.19,0,0,1-.12,0,0.22,0.22,0,0,1-.06-0.09L44.25,7v8a0.15,0.15,0,0,1-.17.17H43.55a0.15,0.15,0,0,1-.17-0.17V6.55a0.55,0.55,0,0,1,0-.29,0.56,0.56,0,0,1,.29,0h0.9a0.3,0.3,0,0,1,.14,0,0.23,0.23,0,0,1,.08.12L48,14.12l3.1-7.78a0.19,0.19,0,0,1,.19-0.13h0.91a0.56,0.56,0,0,1,.29,0,0.56,0.56,0,0,1,0,.29v8.4Z"/><path class="cls-2" d="M54.62,9.63a0.13,0.13,0,0,1-.11,0,0.07,0.07,0,0,1-.05-0.08V9.12a0.27,0.27,0,0,1,.17-0.25,3.06,3.06,0,0,1,.89-0.32,5.53,5.53,0,0,1,1-.09A2.35,2.35,0,0,1,58.31,9a2.39,2.39,0,0,1,.55,1.72v3q0,0.36,0,.64c0,0.19,0,.37,0,0.55a0.15,0.15,0,0,1-.17.17H58.31a0.15,0.15,0,0,1-.17-0.17V14a1.89,1.89,0,0,1-.85.95,2.58,2.58,0,0,1-1.29.34,2.13,2.13,0,0,1-1.78-.71A1.64,1.64,0,0,1,53.94,14a2.16,2.16,0,0,1-.1-0.63,2.26,2.26,0,0,1,.34-1.26,2.06,2.06,0,0,1,1-.79A8.36,8.36,0,0,1,57.89,11H58V10.69a1.71,1.71,0,0,0-.34-1.15,1.44,1.44,0,0,0-1.15-.4,4.4,4.4,0,0,0-1,.11A3.14,3.14,0,0,0,54.62,9.63ZM58,11.73H57.82a6.63,6.63,0,0,0-1.19.05,4.27,4.27,0,0,0-.87.21,1.52,1.52,0,0,0-.76.53,1.42,1.42,0,0,0-.25.85,1.58,1.58,0,0,0,.1.56,0.83,0.83,0,0,0,.3.4,1.5,1.5,0,0,0,1,.29,1.79,1.79,0,0,0,.77-0.17A1.83,1.83,0,0,0,57.49,14a2.19,2.19,0,0,0,.41-0.77A3.57,3.57,0,0,0,58,12.14V11.73Z"/><path class="cls-2" d="M60.14,8.79a0.15,0.15,0,0,1,.17-0.17h0.46a0.15,0.15,0,0,1,.17.17l-0.06.9a1.87,1.87,0,0,1,.81-0.85,2.94,2.94,0,0,1,2.53-.07,2.24,2.24,0,0,1,.82.69,3,3,0,0,1,.47,1,5.29,5.29,0,0,1,.15,1.28,5.2,5.2,0,0,1-.17,1.38,3.51,3.51,0,0,1-.5,1.1,2.44,2.44,0,0,1-.82.74,2.34,2.34,0,0,1-1.14.27A2.63,2.63,0,0,1,61.75,15a1.91,1.91,0,0,1-.8-0.79v2.58a0.15,0.15,0,0,1-.17.17H60.32a0.18,0.18,0,0,1-.13,0,0.15,0.15,0,0,1-.05-0.12v-8Zm4.63,3a4.66,4.66,0,0,0-.1-1A2.43,2.43,0,0,0,64.36,10a1.8,1.8,0,0,0-.59-0.58,1.68,1.68,0,0,0-.9-0.22,1.71,1.71,0,0,0-.85.2,1.73,1.73,0,0,0-.59.56,2.66,2.66,0,0,0-.35.82,4,4,0,0,0-.12,1,3.55,3.55,0,0,0,.52,2.11,1.73,1.73,0,0,0,2.21.52,1.73,1.73,0,0,0,.6-0.57,2.82,2.82,0,0,0,.37-0.89A4.92,4.92,0,0,0,64.78,11.78Z"/></svg>