<svg id="레이어_1" data-name="레이어 1" xmlns="http://www.w3.org/2000/svg" width="44" height="44" viewBox="0 0 44 44"><defs><style>.cls-1{fill:#fff;opacity:0;}.cls-2{fill:#26cad3;}</style></defs><title>openProjectOn</title><rect class="cls-1" width="44" height="44"/><path class="cls-2" d="M24.19,12H14.5V32h16V18.31Zm4.09,17.69H16.72V14.31H24v4.21h4.31V29.69Z" transform="translate(-0.5 0)"/><path class="cls-2" d="M27,24.17l-2.74-2.74h0l-0.13-.1-0.07,0-0.08,0-0.09,0-0.07,0-0.17,0-0.17,0-0.06,0-0.1,0-0.07,0-0.08,0-0.12.1h0l-2.74,2.74a0.86,0.86,0,1,0,1.21,1.21l1.28-1.28v3.73a0.86,0.86,0,0,0,1.72,0V24.1l1.28,1.28A0.86,0.86,0,0,0,27,24.17Z" transform="translate(-0.5 0)"/></svg>