<svg id="레이어_1" data-name="레이어 1" xmlns="http://www.w3.org/2000/svg" width="33.8" height="33.8" viewBox="0 0 33.8 33.8"><defs><style>.cls-1{fill:#a7a7a7;stroke:#808285;stroke-miterlimit:10;stroke-width:0.8px;}.cls-2{fill:#6d6e71;}</style></defs><title>delay</title><rect class="cls-1" x="0.4" y="0.4" width="33" height="33" rx="6.6" ry="6.6"/><path class="cls-2" d="M17.4,8.44a9,9,0,1,0,9,9v0A9,9,0,0,0,17.4,8.44Zm0,16.19a7.22,7.22,0,1,1,7.23-7.26,7.22,7.22,0,0,1-7.23,7.26h0Z" transform="translate(-0.5 -0.5)"/><path class="cls-2" d="M17.4,18.34a0.79,0.79,0,0,1-.79-0.79h0a0.79,0.79,0,0,1,.79-0.77h2.29a0.79,0.79,0,0,1,.79.79h0a0.79,0.79,0,0,1-.79.79H17.4v0Z" transform="translate(-0.5 -0.5)"/><path class="cls-2" d="M18.19,17.58a0.79,0.79,0,0,1-.79.76h0a0.79,0.79,0,0,1-.79-0.79V13.38a0.79,0.79,0,0,1,.79-0.77h0a0.79,0.79,0,0,1,.79.79v4.17h0Z" transform="translate(-0.5 -0.5)"/></svg>