<svg id="레이어_1" data-name="레이어 1" xmlns="http://www.w3.org/2000/svg" viewBox="0 0 34 34"><defs><style>.cls-1,.cls-3{fill:#a7a7a7;}.cls-1{stroke:#808285;stroke-miterlimit:10;}.cls-2{fill:#6d6e71;}</style></defs><title>landom</title><rect class="cls-1" x="0.5" y="0.5" width="33" height="33" rx="6.5" ry="6.5"/><path class="cls-2" d="M19,20.52a0.27,0.27,0,0,1-.06.38l-7,5.18A0.28,0.28,0,0,1,11.58,26L6.41,19a0.28,0.28,0,0,1,.06-0.39l7-5.17a0.27,0.27,0,0,1,.38.06Z" transform="translate(0 -0.01)"/><path class="cls-2" d="M27.41,9.21a0.28,0.28,0,0,1,.23.31l-1.3,8.62a0.28,0.28,0,0,1-.31.23l-8.62-1.3a0.28,0.28,0,0,1-.23-0.31l1.3-8.62a0.28,0.28,0,0,1,.31-0.23Z" transform="translate(0 -0.01)"/><circle class="cls-3" cx="9.43" cy="19.27" r="0.8" transform="translate(-11.03 25.7) rotate(-81.39)"/><circle class="cls-3" cx="12.72" cy="19.77" r="0.8" transform="translate(-8.71 29.4) rotate(-81.45)"/><circle class="cls-3" cx="16.02" cy="20.26" r="0.8" transform="translate(-6.41 33.06) rotate(-81.41)"/><circle class="cls-3" cx="19.73" cy="15.12" r="0.8" transform="translate(-5.12 14.68) rotate(-36.45)"/><circle class="cls-3" cx="24.39" cy="15.82" r="0.8" transform="translate(-4.63 17.56) rotate(-36.42)"/><circle class="cls-3" cx="20.43" cy="10.46" r="0.8" transform="translate(-2.22 14.17) rotate(-36.42)"/><circle class="cls-3" cx="25.09" cy="11.17" r="0.8" transform="translate(-1.73 17.07) rotate(-36.43)"/><circle class="cls-3" cx="22.41" cy="13.15" r="0.8" transform="translate(-3.43 15.87) rotate(-36.43)"/></svg>