<svg id="레이어_1" data-name="레이어 1" xmlns="http://www.w3.org/2000/svg" width="33.8" height="33.8" viewBox="0 0 33.8 33.8"><defs><style>.cls-1{fill:#a7a7a7;stroke:#808285;stroke-miterlimit:10;stroke-width:0.8px;}.cls-2{fill:#6d6e71;}.cls-3{fill:#d1d1d1;}</style></defs><title>break</title><rect class="cls-1" x="0.4" y="0.4" width="33" height="33" rx="6.6" ry="6.6"/><circle class="cls-2" cx="16.23" cy="11.75" r="1.32" transform="translate(-1.79 20.97) rotate(-64.92)"/><rect class="cls-2" x="11.21" y="14.27" width="5.95" height="3.07" rx="0.82" ry="0.82" transform="translate(-6.64 21.45) rotate(-64.91)"/><path class="cls-2" d="M15.65,23.54a0.69,0.69,0,0,1-.54.81h0a0.7,0.7,0,0,1-.82-0.54l-1-5.41a0.69,0.69,0,0,1,.54-0.79h0a0.7,0.7,0,0,1,.82.54Z" transform="translate(-0.5 -0.5)"/><path class="cls-2" d="M8.66,18.33l2.19,1,1-2.19a0.7,0.7,0,0,1,1.31.5l0,0.09-1.36,2.78a0.7,0.7,0,0,1-.92.36l-0.05,0h0L8,19.56A0.7,0.7,0,0,1,8.66,18.33Z" transform="translate(-0.5 -0.5)"/><path class="cls-2" d="M15.86,13.67a0.57,0.57,0,0,1,.72.38h0L17.17,16l1.94-.59a0.57,0.57,0,0,1,.34,1.1h0L17,17.25h0a0.58,0.58,0,0,1-.53-0.1,0.57,0.57,0,0,1-.18-0.28l-0.82-2.48a0.57,0.57,0,0,1,.38-0.71h0Z" transform="translate(-0.5 -0.5)"/><path class="cls-2" d="M15,13.43a0.57,0.57,0,0,1-.69.42h0l-1.94-.49L11.93,15.3A0.57,0.57,0,0,1,10.81,15h0l0.62-2.49h0a0.58,0.58,0,0,1,.36-0.4,0.6,0.6,0,0,1,.33,0l2.5,0.63A0.57,0.57,0,0,1,15,13.43Z" transform="translate(-0.5 -0.5)"/><path class="cls-3" d="M20.31,12.29V22.48a1.7,1.7,0,0,0,1.7,1.7h3.45a1.7,1.7,0,0,0,1.65-1.7V12.29a1.7,1.7,0,0,0-1.7-1.7H22a1.7,1.7,0,0,0-1.74,1.66S20.31,12.28,20.31,12.29Zm1.37,9.87V18h1.08v0.78l1-.7,1-.7-1-.7-1-.69v0.78h-1V12.63a0.78,0.78,0,0,1,.81-0.74H25a0.78,0.78,0,0,1,.82.74h0v9.53a0.78,0.78,0,0,1-.81.74H22.52a0.78,0.78,0,0,1-.82-0.74h0Z" transform="translate(-0.5 -0.5)"/></svg>