<svg id="레이어_1" data-name="레이어 1" xmlns="http://www.w3.org/2000/svg" width="44" height="44" viewBox="0 0 44 44"><defs><style>.cls-1{fill:#fff;stroke:#bcbcbc;stroke-miterlimit:10;}.cls-2{fill:#57b3ff;}.cls-3{fill:#585858;}</style></defs><title>loopOn</title><rect class="cls-1" x="0.5" y="0.5" width="43" height="43" rx="8.6" ry="8.6"/><path class="cls-2" d="M21.7,19.49l-0.12.17L20.16,21l-1.43-1.39-0.12-.12a4.43,4.43,0,1,0,0,6.32l1.54-1.54,1.54,1.54A4.43,4.43,0,1,0,21.7,19.49ZM17,24.17a2.19,2.19,0,1,1,0-3.1h0l0.48,0.48,1.07,1.07Zm9.34,0a2.18,2.18,0,0,1-3.08,0h0l-1.54-1.54,1.07-1.07,0.48-.48h0a2.19,2.19,0,0,1,3.1,3.09h0Z" transform="translate(-0.5 -0.5)"/><path class="cls-3" d="M33.94,17.95a4.68,4.68,0,0,0-4.68,4.68h0V33.21h2.45V26.74A4.68,4.68,0,1,0,33.94,17.95Zm0,6.91a2.23,2.23,0,1,1,2.24-2.23,2.23,2.23,0,0,1-2.24,2.23h0Z" transform="translate(-0.5 -0.5)"/><path class="cls-3" d="M8.83,22.37V11.8H6.38V22.38h0a4.68,4.68,0,0,0,4.68,4.68h0V24.6a2.23,2.23,0,0,1-2.23-2.23h0Z" transform="translate(-0.5 -0.5)"/></svg>