<svg id="레이어_1" data-name="레이어 1" xmlns="http://www.w3.org/2000/svg" width="34.8" height="34.8" viewBox="0 0 34.8 34.8"><defs><style>.cls-1{fill:#a7a7a7;stroke:#808285;stroke-miterlimit:10;stroke-width:0.8px;}.cls-2{fill:#6d6e71;}</style></defs><title>comment</title><rect class="cls-1" x="0.4" y="0.4" width="34" height="34" rx="6.8" ry="6.8"/><path class="cls-2" d="M15.63,25.71a0.84,0.84,0,0,1-.85.85H8.38a0.84,0.84,0,0,1-.85-0.85h0a0.85,0.85,0,0,1,.85-0.84h6.4a0.84,0.84,0,0,1,.85.84h0Z" transform="translate(3.4 -9.41)"/><path class="cls-2" d="M12.79,29.07a0.84,0.84,0,0,1-.85.84H8.38a0.85,0.85,0,0,1-.85-0.84h0a0.85,0.85,0,0,1,.85-0.85h3.56a0.85,0.85,0,0,1,.85.85h0Z" transform="translate(3.4 -9.41)"/><path class="cls-2" d="M21.79,19.74H6.21a1.59,1.59,0,0,0-1.59,1.59V32.28a1.59,1.59,0,0,0,1.59,1.59H21.79a1.59,1.59,0,0,0,1.59-1.59V21.33A1.59,1.59,0,0,0,21.79,19.74Zm0,12.44H6.19v-9.6H21.81v9.6Z" transform="translate(3.4 -9.41)"/></svg>