<svg id="레이어_1" data-name="레이어 1" xmlns="http://www.w3.org/2000/svg" viewBox="0 0 34 34"><defs><style>.cls-1{fill:#fff;stroke:#939393;stroke-miterlimit:10;}.cls-2{fill:#a7a7a7;}</style></defs><title>paletteMathOn</title><rect class="cls-1" x="0.5" y="0.5" width="33" height="33" rx="6.5" ry="6.5"/><path class="cls-2" d="M13.51,22.45l2.4-2.4a0.88,0.88,0,0,0-1.25-1.25l-2.4,2.4-2.4-2.4A0.88,0.88,0,1,0,8.6,20L11,22.4,8.6,24.8a0.9,0.9,0,0,0,1.25,1.3l2.4-2.4,2.4,2.4a0.88,0.88,0,0,0,1.25-1.25Z"/><path class="cls-2" d="M26,11.92a0.88,0.88,0,0,1-.88.88h-6.8a0.88,0.88,0,0,1-.88-0.88h0A0.88,0.88,0,0,1,18.28,11h6.87a0.88,0.88,0,0,1,.88.88h0Z"/><path class="cls-2" d="M26,21.87a0.88,0.88,0,0,1-.88.88h-6.8a0.88,0.88,0,0,1-.88-0.88h0A0.89,0.89,0,0,1,18.35,21h6.8a0.89,0.89,0,0,1,.88.88h0Z"/><path class="cls-2" d="M15.65,11H13.14V8.53a0.88,0.88,0,1,0-1.77,0V11H8.86a0.89,0.89,0,0,0,0,1.77h2.51v2.51a0.88,0.88,0,1,0,1.77,0V12.81h2.51A0.91,0.91,0,1,0,15.65,11Z"/><circle class="cls-2" cx="21.74" cy="25.21" r="0.88"/><circle class="cls-2" cx="21.74" cy="18.53" r="0.88"/></svg>