<svg id="레이어_1" data-name="레이어 1" xmlns="http://www.w3.org/2000/svg" width="33.8" height="33.8" viewBox="0 0 33.8 33.8"><defs><style>.cls-1{fill:#a7a7a7;stroke:#808285;stroke-miterlimit:10;stroke-width:0.8px;}.cls-2{fill:#6d6e71;}</style></defs><title>custom</title><rect class="cls-1" x="0.4" y="0.4" width="33" height="33" rx="6.6" ry="6.6"/><path class="cls-2" d="M15.21,22.61a1,1,0,0,1-1.27.33h0a1,1,0,0,1-.33-1.27l5.2-8.84a1,1,0,0,1,1.27-.33h0a1,1,0,0,1,.33,1.27Z" transform="translate(-0.5 -0.5)"/><path class="cls-2" d="M8.18,17.4l4.09-4.09A1,1,0,1,0,11,12L6.22,16.73a1,1,0,0,0,0,1.33L11,22.81a1,1,0,1,0,1.31-1.31Z" transform="translate(-0.5 -0.5)"/><path class="cls-2" d="M25.85,17.38L21.79,21.5a1,1,0,1,0,1.32,1.31l4.72-4.73a1,1,0,0,0,0-1.33L23.06,12a1,1,0,1,0-1.31,1.32Z" transform="translate(-0.5 -0.5)"/></svg>