<svg id="레이어_1" data-name="레이어 1" xmlns="http://www.w3.org/2000/svg" width="44" height="44" viewBox="0 0 44 44"><defs><style>.cls-1{fill:#fff;stroke:#bcbcbc;stroke-miterlimit:10;}.cls-2{fill:#585858;}.cls-3{fill:#f6c;}</style></defs><title>whileOn</title><rect class="cls-1" x="0.5" y="0.5" width="43" height="43" rx="8.6" ry="8.6"/><path class="cls-2" d="M28.62,69.37V60H26.47v9.33h0a4.12,4.12,0,0,0,4.12,4.12h0V71.32a2,2,0,0,1-2-2h0Z" transform="translate(-0.5 -44.76)"/><rect class="cls-2" x="23.32" y="18.79" width="2.06" height="9.93"/><circle class="cls-2" cx="24.34" cy="16.42" r="1.13"/><path class="cls-2" d="M34.6,65.44a4,4,0,1,0-.78,8l0.33,0h2.21V71.41H34.59a2,2,0,0,1-1.66-.92h5.54A4,4,0,0,0,34.6,65.44Zm0,2.06a2,2,0,0,1,1.66.92H32.95A2,2,0,0,1,34.6,67.5Z" transform="translate(-0.5 -44.76)"/><path class="cls-2" d="M23.22,68.39a3,3,0,0,0-3-2.93,3,3,0,0,0-1,.18V60H17.17V73.48h2.06V68.43a1,1,0,1,1,2,0v5.06h2.06V68.43h0Z" transform="translate(-0.5 -44.76)"/><path class="cls-3" d="M14.62,65.44v5a1.08,1.08,0,1,1-2.15,0h0V67.59h0V65.44h-2v5a1.08,1.08,0,1,1-2.15,0h0v-5h-2V70.5h0a3,3,0,0,0,5.07,2.12,3,3,0,0,0,5.06-2.12h0V65.44H14.62Z" transform="translate(-0.5 -44.76)"/></svg>