<svg id="레이어_1" data-name="레이어 1" xmlns="http://www.w3.org/2000/svg" width="34" height="34" viewBox="0 0 34 34"><defs><style>.cls-1{fill:#414141;stroke:#303030;stroke-miterlimit:10;}.cls-2{fill:#d1d1d1;}</style></defs><title>loop</title><rect class="cls-1" x="0.5" y="0.5" width="33" height="33" rx="6.6" ry="6.6"/><path class="cls-2" d="M16.89,15.19l-0.09.13-1.1,1.07-1.1-1.07-0.09-.09a3.4,3.4,0,1,0,0,4.85L15.7,18.9l1.18,1.18A3.4,3.4,0,1,0,16.89,15.19ZM13.3,18.78a1.68,1.68,0,1,1,0-2.37h0l0.37,0.37,0.82,0.82Zm7.17,0a1.67,1.67,0,0,1-2.36,0h0L16.92,17.6l0.82-.82,0.37-.37h0a1.68,1.68,0,0,1,2.38,2.37h0Z" transform="translate(-0.5 -0.5)"/><path class="cls-2" d="M26.28,14a3.59,3.59,0,0,0-3.59,3.59h0v8.12h1.88v-5A3.59,3.59,0,1,0,26.28,14Zm0,5.3A1.71,1.71,0,1,1,28,17.6a1.71,1.71,0,0,1-1.72,1.71h0Z" transform="translate(-0.5 -0.5)"/><path class="cls-2" d="M7,17.4V9.29H5.12v8.12h0A3.59,3.59,0,0,0,8.72,21h0V19.11A1.71,1.71,0,0,1,7,17.4H7Z" transform="translate(-0.5 -0.5)"/></svg>