<svg id="레이어_1" data-name="레이어 1" xmlns="http://www.w3.org/2000/svg" width="43.8" height="43.8" viewBox="0 0 43.8 43.8"><defs><style>.cls-1{fill:#fff;stroke:#bcbcbc;stroke-miterlimit:10;stroke-width:0.8px;}.cls-2{fill:#bcbcbc;}.cls-3{fill:#da1c5c;}</style></defs><title>breakeOn</title><rect class="cls-1" x="0.4" y="0.4" width="43" height="43" rx="8.6" ry="8.6"/><circle class="cls-2" cx="20.88" cy="15.04" r="1.72" transform="translate(-2.09 27.08) rotate(-64.92)"/><rect class="cls-2" x="14.35" y="18.33" width="7.75" height="4" rx="1.07" ry="1.07" transform="matrix(0.42, -0.91, 0.91, 0.42, -8.41, 27.72)"/><path class="cls-2" d="M20.12,30.4a0.9,0.9,0,0,1-.69,1.07h0a0.91,0.91,0,0,1-1.08-.66h0l-1.37-7a0.9,0.9,0,0,1,.7-1h0a0.91,0.91,0,0,1,1.07.7Z" transform="translate(-0.5 -0.5)"/><path class="cls-2" d="M11,23.61l2.86,1.33,1.29-2.84a0.91,0.91,0,1,1,1.71.64v0.13l-1.71,3.62A0.91,0.91,0,0,1,14,27H13.89L10.2,25.22A0.91,0.91,0,0,1,11,23.61Z" transform="translate(-0.5 -0.5)"/><path class="cls-2" d="M20.39,17.54a0.74,0.74,0,0,1,1,.43l0,0.06h0l0.77,2.53,2.53-.77a0.75,0.75,0,0,1,.44,1.43h0l-3.18,1h0a0.76,0.76,0,0,1-.69-0.13A0.74,0.74,0,0,1,21,21.7l-1.08-3.23a0.74,0.74,0,0,1,.43-1l0.06,0h0v0.06Z" transform="translate(-0.5 -0.5)"/><path class="cls-2" d="M19.36,17.23a0.74,0.74,0,0,1-.9.55h0l-2.52-.65-0.63,2.54a0.77,0.77,0,0,1-1.5-.3h0l0.81-3.22h0a0.76,0.76,0,0,1,.47-0.55,0.78,0.78,0,0,1,.48,0l3.26,0.82A0.74,0.74,0,0,1,19.36,17.23Z" transform="translate(-0.5 -0.5)"/><path class="cls-3" d="M26.19,15.74V29a2.21,2.21,0,0,0,2.21,2.21h4.49A2.21,2.21,0,0,0,35,29V15.74a2.21,2.21,0,0,0-2.21-2.21H28.46a2.21,2.21,0,0,0-2.27,2.15h0v0ZM28,28.61V23.16h1.41v1l1.26-.91,1.26-.91-1.26-.91-1.26-.9v1H28V16.15a1,1,0,0,1,1-1h3.27a1,1,0,0,1,1.06.89s0,0.06,0,.09h0V28.61a1,1,0,0,1-1,1H29.07A1,1,0,0,1,28,28.7s0-.06,0-0.09h0Z" transform="translate(-0.5 -0.5)"/></svg>