<svg id="레이어_1" data-name="레이어 1" xmlns="http://www.w3.org/2000/svg" viewBox="0 0 34 34"><defs><style>.cls-1{fill:#fff;stroke:#939393;stroke-miterlimit:10;}.cls-2{fill:#bcbcbc;}.cls-3{fill:#da1c5c;}</style></defs><title>paletteBreakOn</title><rect class="cls-1" x="0.5" y="0.5" width="33" height="33" rx="6.5" ry="6.5"/><circle class="cls-2" cx="15.79" cy="11.15" r="1.37" transform="translate(-1.01 20.71) rotate(-64.88)"/><path class="cls-2" d="M19.48,15.29a0.59,0.59,0,0,0-.74-0.39h0l-2,.61-0.61-2V13.45a0.83,0.83,0,0,0-.46-0.61l-1.35-.63H14.14l-2.59-.64a0.62,0.62,0,0,0-.35,0,0.6,0.6,0,0,0-.37.42l-0.64,2.59a0.6,0.6,0,0,0,1.16.29l0.5-2L13,13.11,11.32,16.7h0L10.19,19,7.91,18a0.72,0.72,0,0,0-.61,1.31l2.93,1.37a0.72,0.72,0,0,0,1-.3l0-.05,1-2.23,0.5,0.24,1,5.34a0.72,0.72,0,0,0,1.41-.28l-1-5.31h0l1.28-2.74,0.35,1.12a0.6,0.6,0,0,0,.19.29,0.61,0.61,0,0,0,.55.11L19.09,16A0.6,0.6,0,0,0,19.48,15.29Z"/><path class="cls-3" d="M20,11.71V22.29a1.76,1.76,0,0,0,1.76,1.76h3.53a1.76,1.76,0,0,0,1.76-1.76h0V11.71a1.76,1.76,0,0,0-1.76-1.76H21.82a1.76,1.76,0,0,0-1.77,1.75h0Zm1.41,10.23V17.63h1.12v0.81l1-.72,1-.72-1-.72-1-.72v0.81H21.47V12.06a0.81,0.81,0,0,1,.84-0.76h2.54a0.81,0.81,0,0,1,.85.76v9.88a0.81,0.81,0,0,1-.85.76H22.31a0.81,0.81,0,0,1-.84-0.76h0Z"/></svg>