<svg id="레이어_1" data-name="레이어 1" xmlns="http://www.w3.org/2000/svg" width="34" height="34" viewBox="0 0 34 34"><defs><style>.cls-1{fill:#414141;stroke:#303030;stroke-miterlimit:10;}.cls-2{fill:#d1d1d1;}</style></defs><title>while</title><rect class="cls-1" x="0.5" y="0.5" width="33" height="33" rx="6.6" ry="6.6"/><path class="cls-2" d="M22.2,19.5V12.34H20.55V19.5h0a3.16,3.16,0,0,0,3.16,3.16h0V21a1.5,1.5,0,0,1-1.51-1.49h0Z" transform="translate(-0.5 -0.5)"/><rect class="cls-2" x="18.01" y="14.54" width="1.58" height="7.62"/><circle class="cls-2" cx="18.8" cy="12.72" r="0.87"/><path class="cls-2" d="M26.79,16.49a3.09,3.09,0,1,0-.35,6.16h1.7V21.07H26.78a1.49,1.49,0,0,1-1.27-.71h4.25A3.08,3.08,0,0,0,26.79,16.49Zm0,1.58a1.49,1.49,0,0,1,1.27.71H25.52A1.49,1.49,0,0,1,26.79,18.07Z" transform="translate(-0.5 -0.5)"/><path class="cls-2" d="M18.05,18.75a2.32,2.32,0,0,0-2.31-2.25,2.29,2.29,0,0,0-.74.14v-4.3H13.41V22.66H15V18.78a0.74,0.74,0,0,1,1.48,0v3.88h1.58V18.78h0v0Z" transform="translate(-0.5 -0.5)"/><path class="cls-2" d="M11.45,16.49v3.83a0.83,0.83,0,1,1-1.65,0V18.14h0V16.49H8.29v3.83a0.83,0.83,0,1,1-1.65,0h0V16.49H5.13v3.88h0A2.33,2.33,0,0,0,9,22a2.33,2.33,0,0,0,3.88-1.63h0V16.49H11.45Z" transform="translate(-0.5 -0.5)"/></svg>