<svg id="레이어_1" data-name="레이어 1" xmlns="http://www.w3.org/2000/svg" width="44" height="44" viewBox="0 0 44 44"><defs><style>.cls-1{fill:#fff;stroke:#bcbcbc;stroke-miterlimit:10;}.cls-2{fill:#a7a7a7;}</style></defs><title>delayOn</title><rect class="cls-1" x="0.5" y="0.5" width="43" height="43" rx="8.6" ry="8.6"/><path class="cls-2" d="M22.5,10.83A11.67,11.67,0,1,0,34.17,22.5h0A11.67,11.67,0,0,0,22.5,10.83h0Zm0,21.05a9.41,9.41,0,1,1,.06,0H22.5Z" transform="translate(-0.5 -0.5)"/><path class="cls-2" d="M22.5,23.73a1,1,0,0,1-1-1h0a1,1,0,0,1,1-1h3a1,1,0,0,1,1,1h0a1,1,0,0,1-1,1h-3Z" transform="translate(-0.5 -0.5)"/><path class="cls-2" d="M23.53,22.74a1,1,0,0,1-1,1h0a1,1,0,0,1-1-1V17.22a1,1,0,0,1,1-1h0a1,1,0,0,1,1,1v5.43h0v0.09Z" transform="translate(-0.5 -0.5)"/></svg>