<svg id="레이어_1" data-name="레이어 1" xmlns="http://www.w3.org/2000/svg" width="44" height="44" viewBox="0 0 44 44"><defs><style>.cls-1{fill:#fff;stroke:#bcbcbc;stroke-miterlimit:10;}.cls-2{fill:#a7a7a7;}</style></defs><title>customOn</title><rect class="cls-1" x="0.5" y="0.5" width="43" height="43" rx="8.6" ry="8.6"/><path class="cls-2" d="M19.65,29.29a1.26,1.26,0,0,1-1.66.43h0a1.26,1.26,0,0,1-.43-1.66l6.78-11.52A1.26,1.26,0,0,1,26,16.11h0a1.26,1.26,0,0,1,.43,1.66Z" transform="translate(-0.5 -0.5)"/><path class="cls-2" d="M10.49,22.5l5.32-5.28a1.26,1.26,0,1,0-1.7-1.76L7.93,21.62a1.26,1.26,0,0,0,0,1.73l6.19,6.19a1.26,1.26,0,1,0,1.71-1.71Z" transform="translate(-0.5 -0.5)"/><path class="cls-2" d="M33.51,22.47l-5.3,5.37a1.26,1.26,0,1,0,1.71,1.71l6.15-6.16a1.26,1.26,0,0,0,0-1.73l-6.21-6.15a1.26,1.26,0,1,0-1.7,1.71Z" transform="translate(-0.5 -0.5)"/></svg>