<svg id="레이어_1" data-name="레이어 1" xmlns="http://www.w3.org/2000/svg" viewBox="0 0 107 36"><defs><style>.cls-1{isolation:isolate;font-size:12px;fill:#6d6d6d;font-family:NanumGothic;}.cls-2{fill:#939393;}.cls-3{fill:#fff;opacity:0;}</style></defs><title>addAction</title><text class="cls-1" transform="translate(36.5 21.6)">Add Action</text><path class="cls-2" d="M24.1,16.62H19.88V12.41a1.37,1.37,0,1,0-2.74,0h0v4.22H12.92a1.37,1.37,0,1,0,0,2.74h4.22v4.22a1.37,1.37,0,0,0,2.74,0V19.37h4.22A1.38,1.38,0,0,0,25.5,18,1.35,1.35,0,0,0,24.1,16.62Z" transform="translate(0 0.01)"/><path class="cls-2" d="M18.51,7a11,11,0,1,0,11,11A11,11,0,0,0,18.51,7Zm0,20a9,9,0,1,1,9-9A9,9,0,0,1,18.51,27Z" transform="translate(0 0.01)"/><rect class="cls-3" width="107" height="36"/></svg>