<svg id="레이어_1" data-name="레이어 1" xmlns="http://www.w3.org/2000/svg" viewBox="0 0 107 36"><defs><style>.cls-1{isolation:isolate;font-size:12px;fill:#6d6d6d;font-family:NanumGothic;}.cls-2{fill:#25cbd3;}.cls-3{fill:#fff;opacity:0;}</style></defs><title>autoActionOn</title><text class="cls-1" transform="translate(34.34 21.61)">Auto Action</text><path class="cls-2" d="M16.34,7a11,11,0,0,0,0,22A11.12,11.12,0,0,0,18,28.88v-7.4a4,4,0,0,0-.09-7.42v3.31a1.53,1.53,0,1,1-3.07,0V14.06a4,4,0,0,0-.09,7.42v5.68A9.3,9.3,0,1,1,24,12.8l-2.16,1.59L23.2,15.2l4.14,2.53A11,11,0,0,0,16.34,7Z" transform="translate(0 0.01)"/><rect class="cls-3" width="107" height="36"/></svg>