<svg id="레이어_1" data-name="레이어 1" xmlns="http://www.w3.org/2000/svg" width="60" height="60" viewBox="0 0 60 60"><defs><style>.cls-1{fill:#fafafa;stroke:#c8c8c8;stroke-miterlimit:10;stroke-width:1.4px;}.cls-2{fill:#c8c8c8;}.cls-3{fill:#ffe66c;}</style></defs><title>battery</title><rect class="cls-1" x="0.7" y="0.7" width="58.6" height="58.6" rx="9" ry="9"/><path class="cls-2" d="M11.47,26H9.71a0.88,0.88,0,0,0-.88.88v6.32a0.88,0.88,0,0,0,.88.88h1.76V26Z" transform="translate(0 0)"/><path class="cls-2" d="M48.9,19.11H13.16a2.28,2.28,0,0,0-2.28,2.28h0v17.2a2.28,2.28,0,0,0,2.28,2.28H48.9a2.28,2.28,0,0,0,2.28-2.28V21.41a2.28,2.28,0,0,0-2.26-2.3h0Zm1,19.45a0.91,0.91,0,0,1-.91.91H13.2a0.91,0.91,0,0,1-.91-0.91V21.42a0.91,0.91,0,0,1,.91-0.91H48.95a0.91,0.91,0,0,1,.91.91V38.58Z" transform="translate(0 0)"/><path class="cls-3" d="M31.92,21.51l-9.81,17H48.05a0.82,0.82,0,0,0,.78-0.83V22.33A0.82,0.82,0,0,0,48,21.51H31.92Z" transform="translate(0 0)"/></svg>