<svg id="레이어_1" data-name="레이어 1" xmlns="http://www.w3.org/2000/svg" width="60" height="60" viewBox="0 0 60 60"><defs><style>.cls-1{fill:#d1d3d4;stroke:#c8c8c8;stroke-miterlimit:10;stroke-width:1.4px;}.cls-2{fill:#a7a9ac;}.cls-3{fill:#939598;}.cls-4{fill:#f1f1f1;}</style></defs><title>empty</title><rect class="cls-1" x="0.7" y="0.7" width="58.6" height="58.6" rx="9" ry="9"/><polygon class="cls-2" points="40.5 25.36 19.5 25.36 16.02 29.97 43.98 29.97 40.5 25.36"/><rect class="cls-3" x="19.5" y="25.35" width="21" height="4.62"/><path class="cls-4" d="M15,23.19a0.85,0.85,0,0,0-.67,0L9.24,25h0a0.5,0.5,0,0,0,0,.85L16,29.95l3.48-4.62Z" transform="translate(0 0)"/><path class="cls-4" d="M45,23.19a0.85,0.85,0,0,1,.67,0L50.77,25h0a0.5,0.5,0,0,1,0,.85L44,30,40.5,25.35Z" transform="translate(0 0)"/><path class="cls-4" d="M16,30V47.29a1.4,1.4,0,0,0,1.4,1.4H42.58A1.4,1.4,0,0,0,44,47.29V30H16Z" transform="translate(0 0)"/><rect class="cls-2" x="23.68" y="21.81" width="6.25" height="6.25" transform="translate(-8.74 16.17) rotate(-29.07)"/><rect class="cls-2" x="32.28" y="16.28" width="6.25" height="6.25" transform="translate(-0.71 37.45) rotate(-55.28)"/><rect class="cls-2" x="23.69" y="11.31" width="6.25" height="6.25"/></svg>