<svg id="레이어_1" data-name="레이어 1" xmlns="http://www.w3.org/2000/svg" width="60" height="60" viewBox="0 0 60 60"><defs><style>.cls-1{fill:#fafafa;stroke:#c8c8c8;stroke-miterlimit:10;stroke-width:1.4px;}.cls-2{fill:#c8c8c8;}.cls-3{fill:#b7afef;}.cls-4{fill:none;}.cls-5{fill:#bcbcbc;}</style></defs><title>environment</title><rect class="cls-1" x="0.7" y="0.7" width="58.6" height="58.6" rx="9" ry="9"/><path class="cls-2" d="M31.57,21.61h0c0.49-5,6.4-13,6.4-13s5.91,8,6.4,13h0a6.14,6.14,0,0,1,0,.64,6.44,6.44,0,1,1-12.88,0C31.53,22,31.55,21.8,31.57,21.61Z" transform="translate(0 0)"/><path class="cls-3" d="M15.61,38.3v-19h4.57v19A5.8,5.8,0,1,1,15.61,38.3Z" transform="translate(0 0)"/><path class="cls-2" d="M31.18,40.92a6.68,6.68,0,0,0,6.67,6.69h0V34.24a6.67,6.67,0,0,0-6.68,6.66S31.18,40.91,31.18,40.92Z" transform="translate(0 0)"/><path class="cls-3" d="M44.53,40.92a6.67,6.67,0,0,0-6.67-6.67h0V47.61a6.67,6.67,0,0,0,6.67-6.67v0Z" transform="translate(0 0)"/><path class="cls-3" d="M49.49,40.48H46.66a0.43,0.43,0,0,0-.43.43h0a0.43,0.43,0,0,0,.43.43h2.83a0.43,0.43,0,0,0,.43-0.43h0a0.43,0.43,0,0,0-.43-0.43h0Z" transform="translate(0 0)"/><path class="cls-3" d="M48.14,46.35l-2.45-1.41a0.43,0.43,0,0,0-.59.16h0a0.43,0.43,0,0,0,.16.59h0l2.45,1.41a0.43,0.43,0,0,0,.59-0.16h0a0.43,0.43,0,0,0-.16-0.59h0Z" transform="translate(0 0)"/><path class="cls-3" d="M44.05,50.77l-1.41-2.45a0.43,0.43,0,0,0-.59-0.16h0a0.43,0.43,0,0,0-.16.59h0L43.3,51.2a0.43,0.43,0,0,0,.59.16h0a0.43,0.43,0,0,0,.16-0.59h0Z" transform="translate(0 0)"/><path class="cls-3" d="M47.71,34.73l-2.45,1.41a0.43,0.43,0,0,0-.16.59h0a0.43,0.43,0,0,0,.59.16h0l2.45-1.41a0.43,0.43,0,0,0,.16-0.59h0a0.43,0.43,0,0,0-.59-0.16h0Z" transform="translate(0 0)"/><path class="cls-3" d="M43.3,30.61l-1.42,2.47a0.43,0.43,0,0,0,.16.59h0a0.43,0.43,0,0,0,.59-0.16h0L44,31.06a0.43,0.43,0,0,0-.16-0.59h0A0.43,0.43,0,0,0,43.3,30.61Z" transform="translate(0 0)"/><line class="cls-4" x1="37.86" y1="40.91" x2="39.9" y2="39.69"/><path class="cls-5" d="M22.24,37.13V12.94a4.35,4.35,0,0,0-8.71,0V37.13A7.81,7.81,0,1,0,22.24,37.13ZM17.89,50.42a6.81,6.81,0,0,1-3.35-12.73V12.93a3.35,3.35,0,0,1,6.69,0V37.68A6.81,6.81,0,0,1,17.89,50.42Z" transform="translate(0 0)"/></svg>