<svg id="레이어_1" data-name="레이어 1" xmlns="http://www.w3.org/2000/svg" width="60" height="60" viewBox="0 0 60 60"><defs><style>.cls-1{fill:#fafafa;stroke:#c8c8c8;stroke-miterlimit:10;stroke-width:1.4px;}.cls-2{fill:#b7afef;}.cls-3{fill:#c8c8c8;}.cls-4{fill:#a0a0a0;}</style></defs><title>gyro</title><rect class="cls-1" x="0.7" y="0.7" width="58.6" height="58.6" rx="9" ry="9"/><polygon class="cls-2" points="30 34.32 18.75 27.59 17.97 28.04 17.97 41.94 30 48.88 42.03 41.94 42.03 28.04 41.89 27.96 30 34.32"/><path class="cls-3" d="M46.53,43.83l-3-1.75a2.27,2.27,0,0,0,0-.39v-13a2.31,2.31,0,0,0-1.15-2L31.15,20.25h0V16.37a1.13,1.13,0,0,0-2.25,0v3.86h0l-11.29,6.5a2.31,2.31,0,0,0-1.15,2v13a2.27,2.27,0,0,0,0,.39l-3,1.71a1.15,1.15,0,1,0,1.12,2h0l3.32-2,10.93,6.31a2.31,2.31,0,0,0,2.31,0l10.94-6.31,3.28,2A1.16,1.16,0,1,0,46.53,43.83ZM28.87,47.15a0.45,0.45,0,0,1-.67.39l-9.26-5.29a0.45,0.45,0,0,1-.22-0.42V30.06a0.45,0.45,0,0,1,.65-0.39L28.63,35a0.45,0.45,0,0,1,.23.39v11.8h0Zm0.91-14.32-8.72-5a0.44,0.44,0,0,1,0-.77l8.72-5a0.44,0.44,0,0,1,.44,0l8.72,5a0.44,0.44,0,0,1,0,.77l-8.73,5A0.44,0.44,0,0,1,29.78,32.83Zm11.28,9.4L31.8,47.52a0.45,0.45,0,0,1-.67-0.39V35.35A0.45,0.45,0,0,1,31.37,35l9.26-5.29a0.45,0.45,0,0,1,.67.39V41.83a0.45,0.45,0,0,1-.25.42v0Z" transform="translate(0 0)"/><path class="cls-4" d="M11.26,49.9H8.76l3-3a0.66,0.66,0,0,0-.5-1.07H7.16a0.67,0.67,0,1,0,0,1.33h2.5l-3,3a0.66,0.66,0,0,0,.21,1.09h4.34A0.68,0.68,0,1,0,11.26,49.9Z" transform="translate(0 0)"/><path class="cls-4" d="M51.73,48.51l1.58-1.58A0.66,0.66,0,0,0,52.37,46h0l-1.58,1.58L49.21,46a0.66,0.66,0,0,0-.94.94l1.58,1.58L48.27,50.1a0.66,0.66,0,0,0,.94.94l1.58-1.58L52.37,51a0.66,0.66,0,1,0,.94-0.94Z" transform="translate(0 0)"/><path class="cls-4" d="M32.52,9a0.66,0.66,0,0,0-.93,0h0L30,10.54,28.42,9a0.66,0.66,0,0,0-.94.94l1.89,1.85v1.78a0.67,0.67,0,0,0,1.33,0V11.75L32.55,9.9a0.66,0.66,0,0,0,0-.93h0Z" transform="translate(0 0)"/></svg>