<svg id="레이어_1" data-name="레이어 1" xmlns="http://www.w3.org/2000/svg" width="60" height="60" viewBox="0 0 60 60"><defs><style>.cls-1{fill:#fafafa;stroke:#c8c8c8;stroke-miterlimit:10;stroke-width:1.4px;}.cls-2{fill:#b7afef;}.cls-3{fill:#c8c8c8;}</style></defs><title>mic</title><rect class="cls-1" x="0.7" y="0.7" width="58.6" height="58.6" rx="9" ry="9"/><path class="cls-2" d="M39,18.69v-1.1a9,9,0,0,0-18,0h0v1.1h7.83v2.18H21v2.58h7.83v2.22H21v2.58h7.83v2.22H21V33h7.83v2.22H21v1.1a9,9,0,0,0,18,0v-1.1H31.16V33.11H39V30.53H31.16V28.3H39V25.72H31.16V23.5H39V20.87H31.16V18.69H39Z" transform="translate(0 0)"/><path class="cls-3" d="M41.18,35.33v1.36a11.18,11.18,0,0,1-22.36,0h0V35.33H15.51v1.54a14.5,14.5,0,1,0,29,0V35.33H41.18Z" transform="translate(0 0)"/></svg>