<svg id="레이어_1" data-name="레이어 1" xmlns="http://www.w3.org/2000/svg" width="60" height="60" viewBox="0 0 60 60"><defs><style>.cls-1{fill:#fafafa;stroke:#c8c8c8;stroke-miterlimit:10;stroke-width:1.4px;}.cls-2{fill:#b4b4b4;}</style></defs><title>miniCar</title><rect class="cls-1" x="0.7" y="0.7" width="58.6" height="58.6" rx="9" ry="9"/><path class="cls-2" d="M39.77,26.5h5.07A0.49,0.49,0,0,0,45.33,26h0V17a0.49,0.49,0,0,0-.49-0.49H39.77a0.49,0.49,0,0,0-.49.49h0v2l-0.75,1.84H37.62V19.7H36.1V19.63a1.92,1.92,0,0,0-1.44-1.43V16.74h-3.1V14h9.68v1.15h0.41V9.08H41.23v1.16H18.77V9.08H18.35v6.07h0.41V14h9.68v2.75h-3.1v1.46a1.92,1.92,0,0,0-1.44,1.43V19.7H22.38v1.14H21.47L20.71,19V17a0.49,0.49,0,0,0-.49-0.49H15.16a0.49,0.49,0,0,0-.49.49v9a0.49,0.49,0,0,0,.49.49h5.07A0.49,0.49,0,0,0,20.71,26V24l0.75-1.84h0.92V27A1.85,1.85,0,0,1,22,27H21.65l3,13.82h2.24V42.6H24.18V44H21.47l-0.75-1.84v-2a0.49,0.49,0,0,0-.49-0.49H15.16a0.49,0.49,0,0,0-.49.49h0v9a0.49,0.49,0,0,0,.49.49h5.07a0.49,0.49,0,0,0,.49-0.49h0v-2l0.75-1.84h2.72v0.94h2.68v0.35a1.75,1.75,0,0,0,1.5,1.73V49H24v2H36V49H31.64V48.4a1.75,1.75,0,0,0,1.5-1.73V46.32h2.68V45.38h2.71l0.75,1.84v2a0.49,0.49,0,0,0,.49.49h5.07a0.49,0.49,0,0,0,.49-0.49h0v-9a0.49,0.49,0,0,0-.49-0.49H39.77a0.49,0.49,0,0,0-.49.49h0v2L38.53,44H35.82V42.6H33.14V40.87h2.24l3-13.82H38a1.85,1.85,0,0,1-.34,0v-4.8h0.92l0.75,1.84v2A0.49,0.49,0,0,0,39.77,26.5Z" transform="translate(0 0)"/></svg>