<svg id="레이어_1" data-name="레이어 1" xmlns="http://www.w3.org/2000/svg" width="60" height="60" viewBox="0 0 60 60"><defs><style>.cls-1{fill:#fafafa;stroke:#c8c8c8;stroke-miterlimit:10;stroke-width:1.4px;}.cls-2{fill:#a0a0a0;}.cls-3{fill:#ffc088;}</style></defs><title>motor</title><rect class="cls-1" x="0.7" y="0.7" width="58.6" height="58.6" rx="9" ry="9"/><rect class="cls-2" x="8.46" y="29.15" width="4.85" height="1.7"/><path class="cls-3" d="M49.66,25v-2.3A4.65,4.65,0,0,0,45,18.07h-2.1V41.93H45a4.65,4.65,0,0,0,4.65-4.65h0V35h1.88V25H49.66v0Z" transform="translate(0 0)"/><rect class="cls-3" x="13.31" y="26.08" width="1.97" height="7.83"/><path class="cls-3" d="M19.92,18.07a4.65,4.65,0,0,0-4.65,4.65h0V37.28a4.65,4.65,0,0,0,4.65,4.65h22V18.07h-22Z" transform="translate(0 0)"/></svg>