<svg id="레이어_1" data-name="레이어 1" xmlns="http://www.w3.org/2000/svg" width="60" height="60" viewBox="0 0 60 60"><defs><style>.cls-1{fill:#fafafa;stroke:#c8c8c8;stroke-miterlimit:10;stroke-width:1.4px;}.cls-2{fill:#ffe66c;}.cls-3{fill:#c8c8c8;}</style></defs><title>network</title><rect class="cls-1" x="0.7" y="0.7" width="58.6" height="58.6" rx="9" ry="9"/><path class="cls-2" d="M30,23a3.21,3.21,0,0,0-1.24,6.18V47.69h2.49V29.15A3.21,3.21,0,0,0,30,23Z" transform="translate(0 0)"/><path class="cls-3" d="M46.37,25.46V25.32a10,10,0,0,0-.14-1.47V23.77q-0.13-.77-0.3-1.49V22.21q-0.18-.72-0.42-1.41l-0.06-.16c-0.08-.21-0.15-0.42-0.24-0.63l-0.08-.19-0.19-.43-0.13-.28c-0.08-.17-0.16-0.33-0.25-0.5l-0.18-.35L44.26,18c-0.13-.23-0.26-0.45-0.4-0.67l-0.06-.1-0.26-.39V16.82Q43.3,16.47,43,16.13L42.88,16c-0.18-.23-0.37-0.45-0.56-0.67V15.27L42,14.94l-0.13-.13-0.29-.31-0.23-.22-0.18-.17-0.52-.47-0.19-.16-0.33-.27L39.76,13l-0.41-.3-0.25-.18-0.25-.17h0l-0.06.1L37.73,14h0a14.42,14.42,0,0,1,1.4,1L39.19,15l0.58,0.51,0.09,0.08,0.55,0.55v0A14.44,14.44,0,0,1,42,18.3h0c0.14,0.22.28,0.46,0.41,0.69l0,0.1q0.2,0.34.36,0.69v0.07c0.13,0.26.24,0.53,0.35,0.79h0q0.14,0.35.26,0.71l0.09,0.27,0.15,0.52a1.67,1.67,0,0,0,.08.3,4.16,4.16,0,0,1,.24.77l0,0.27a4.51,4.51,0,0,0,.12.72v0.3a2.13,2.13,0,0,0,0,.56,0.5,0.5,0,0,1,0,.28v2a2.49,2.49,0,0,1,0,.56v0.3a4.2,4.2,0,0,1-.11.71,0.5,0.5,0,0,1-.06.28,3.68,3.68,0,0,0-.13.58L43.8,30l-0.15.51-0.09.27c-0.08.23-.16,0.46-0.25,0.69v0.06c-0.11.27-.22,0.53-0.35,0.79V32.4c-0.11.23-.23,0.46-0.35,0.68l-0.06.1c-0.13.23-.27,0.46-0.41,0.68h0A14.33,14.33,0,0,1,40.45,36l0,0.06-0.54.55-0.09.09-0.57.51-0.08.06q-0.32.27-.66,0.52h0c-0.24.18-.48,0.34-0.72,0.5L38.85,40h0l0.27-.19,0.22-.15,0.6-.44,0.14-.11,0.35-.28,0.16-.14,0.54-.48L41.31,38l0.23-.22,0.29-.3L42,37.43l0.3-.33,0-.1,0.55-.66,0.11-.1c0.18-.23.34-0.46,0.51-0.69l0-.07,0.26-.39,0.06-.1c0.14-.22.27-0.45,0.4-0.67l0.12-.21,0.18-.35c0.09-.16.17-0.33,0.25-0.49l0.1-.27,0.18-.43,0.08-.19,0.24-.63,0.06-.16q0.24-.69.42-1.41V30.1q0.17-.73.29-1.48v-0.1c0.07-.48.12-1,0.14-1.47V26.18C46.34,25.94,46.39,25.7,46.37,25.46Z" transform="translate(0 0)"/><path class="cls-3" d="M38.17,26.18a8.22,8.22,0,0,0-3.76-6.9L33.29,21a6.16,6.16,0,0,1,0,10.35l1.12,1.73A8.22,8.22,0,0,0,38.17,26.18Z" transform="translate(0 0)"/><path class="cls-3" d="M42.26,26.18a12.38,12.38,0,0,0-5.66-10.4l-1.12,1.73a10.32,10.32,0,0,1,0,17.33l1.12,1.73A12.38,12.38,0,0,0,42.26,26.18Z" transform="translate(0 0)"/><path class="cls-3" d="M20.78,37.18c-0.2-.16-0.39-0.34-0.57-0.51l-0.08-.08c-0.19-.18-0.37-0.36-0.55-0.55v0a14.33,14.33,0,0,1-1.6-2h0c-0.14-.22-0.28-0.45-0.41-0.69l0-.1c-0.13-.23-0.24-0.46-0.36-0.69V32.39c-0.12-.26-0.24-0.52-0.35-0.79h0l-0.26-.7-0.09-.26-0.15-.52-0.08-.3A1.3,1.3,0,0,1,16,29.14l-0.05-.26q-0.07-.36-0.12-0.72v-0.3a2.49,2.49,0,0,0-.05-0.56V25.07a2.53,2.53,0,0,1,.05-0.56,0.58,0.58,0,0,0,0-.3c0-.1.07-0.47,0.11-0.71A0.47,0.47,0,0,1,16,23.22a3.68,3.68,0,0,0,.13-0.58c0-.19,0-0.21.08-0.31l0.15-.51,0.09-.27c0.08-.23.16-0.46,0.25-0.69V20.8c0.11-.27.22-0.53,0.35-0.79V19.93q0.17-.35.35-0.68l0.06-.11c0.13-.23.26-0.46,0.4-0.68h0a14.47,14.47,0,0,1,1.59-2l0-.06c0.18-.19.35-0.37,0.54-0.54l0.09-.09,0.56-.5,0.07-.06c0.21-.18.43-0.35,0.66-0.52h0c0.23-.17.48-0.34,0.72-0.5L21,12.41h0l-0.28.19-0.21.15-0.6.44-0.14.11-0.35.28-0.16.14-0.54.48-0.18.17-0.23.22-0.29.3L18,15l-0.3.33-0.06.07q-0.29.33-.54,0.66l-0.1.13c-0.17.22-.34,0.46-0.5,0.69l0,0.07-0.26.39-0.06.1c-0.14.22-.27,0.44-0.4,0.67l-0.12.21-0.19.35c-0.09.16-.17,0.33-0.24,0.49l-0.13.28-0.19.43L14.79,20c-0.08.21-.16,0.41-0.23,0.63l-0.06.16a14,14,0,0,0-.41,1.4v0.07c-0.12.48-.21,1-0.29,1.48v0.08c-0.07.48-.12,1-0.14,1.46V27a9.9,9.9,0,0,0,.14,1.46v0.07A14.34,14.34,0,0,0,14.09,30v0.07q0.18,0.71.41,1.41l0.06,0.16q0.1,0.31.24,0.63l0.08,0.19,0.19,0.43,0.13,0.28,0.24,0.49L15.63,34l0.12,0.21c0.13,0.23.26,0.45,0.4,0.67L16.2,35l0.26,0.39v0.07L17,36.15l0.09,0.12c0.18,0.23.37,0.45,0.56,0.67V37L18,37.38l0.13,0.13,0.29,0.31L18.66,38l0.18,0.17,0.52,0.46,0.19,0.16,0.33,0.27,0.33,0.25,0.41,0.29,0.25,0.17L21.12,40h0l0.06-.1,1-1.63h0a14.66,14.66,0,0,1-1.39-1Z" transform="translate(0 0)"/><path class="cls-3" d="M26.71,21l-1.12-1.73a8.22,8.22,0,0,0,0,13.81l1.12-1.73A6.16,6.16,0,0,1,26.71,21Z" transform="translate(0 0)"/><path class="cls-3" d="M19.78,26.18a10.28,10.28,0,0,1,4.69-8.63l-1.12-1.73a12.34,12.34,0,0,0,0,20.71l1.12-1.73A10.28,10.28,0,0,1,19.78,26.18Z" transform="translate(0 0)"/></svg>