<svg id="레이어_1" data-name="레이어 1" xmlns="http://www.w3.org/2000/svg" width="60" height="60" viewBox="0 0 60 60"><defs><style>.cls-1{fill:#fafafa;stroke:#c8c8c8;stroke-miterlimit:10;stroke-width:1.4px;}.cls-2{fill:#a7a7a7;}</style></defs><title>number</title><rect class="cls-1" x="0.7" y="0.7" width="58.6" height="58.6" rx="9" ry="9"/><path class="cls-2" d="M18.69,19V40.77H15.41V22.35H13.6L14.41,19h4.28Z" transform="translate(0 0)"/><path class="cls-2" d="M31.38,40.77h-11l1.44-2.47q6.87-11.73,6.87-13.49a2.7,2.7,0,0,0-.64-1.87,2.13,2.13,0,0,0-1.67-.71,2.07,2.07,0,0,0-1.29.39,2.23,2.23,0,0,0-.75.91H20.85a7,7,0,0,1,2.35-3.6,5.54,5.54,0,0,1,7.15.68,5.86,5.86,0,0,1,1.59,4.19,11.88,11.88,0,0,1-1.4,4.58q-1.15,2.43-4.43,8.09h5.25v3.29h0Z" transform="translate(0 0)"/><path class="cls-2" d="M43.85,29a5.94,5.94,0,1,0-10-5.5h3.5a2.65,2.65,0,1,1,2.32,4v3.31A3.46,3.46,0,1,1,37,36.51H33.25A6.77,6.77,0,1,0,43.85,29Z" transform="translate(0 0)"/></svg>