<svg id="Layer_1" data-name="Layer 1" xmlns="http://www.w3.org/2000/svg" width="60" height="60" viewBox="0 0 60 60"><defs><style>.cls-1{fill:#fff;stroke:#c8c8c8;stroke-miterlimit:10;stroke-width:1.4px;}.cls-2{fill:#c8c8c8;}</style></defs><title>other</title><rect class="cls-1" x="0.7" y="0.7" width="58.6" height="58.6" rx="9" ry="9"/><polygon class="cls-1" points="36.95 15.9 24.07 15.9 24.07 37.45 41.31 37.45 41.31 20.26 36.95 15.9"/><polygon class="cls-2" points="36.95 15.9 36.95 20.26 41.31 20.26 41.31 20.26 36.95 15.9"/><polygon class="cls-1" points="31.57 22.55 18.69 22.55 18.69 44.1 35.93 44.1 35.93 26.91 31.57 22.55"/><polygon class="cls-2" points="31.57 22.55 31.57 26.91 35.93 26.91 35.93 26.91 31.57 22.55"/><path class="cls-2" d="M28.2,40.11l3.21-3.21h0l0.12-.15a0.34,0.34,0,0,0,0-.08V36.58s0-.07,0-0.11V36.39a0.94,0.94,0,0,0,0-.2,0.93,0.93,0,0,0,0-.2V35.92a0.85,0.85,0,0,0,0-.12V35.63l-0.11-.14h0L28.2,32.28a1,1,0,0,0-1.42,1.42l1.5,1.5H23.92a1,1,0,0,0,0,2h4.36l-1.5,1.49A1,1,0,1,0,28.2,40.11Z" transform="translate(0 0)"/></svg>