<svg id="레이어_1" data-name="레이어 1" xmlns="http://www.w3.org/2000/svg" width="60" height="60" viewBox="0 0 60 60"><defs><style>.cls-1{fill:#fafafa;stroke:#c8c8c8;stroke-miterlimit:10;stroke-width:1.4px;}.cls-2{fill:#a7a7a7;}</style></defs><title>random</title><rect class="cls-1" x="0.7" y="0.7" width="58.6" height="58.6" rx="9" ry="9"/><path class="cls-2" d="M33.59,36.17L24.47,23.81a0.48,0.48,0,0,0-.67-0.11h0L11.44,32.83a0.49,0.49,0,0,0-.1.68l9.12,12.36a0.49,0.49,0,0,0,.68.1l12.35-9.13A0.48,0.48,0,0,0,33.59,36.17Zm-15.53-2a1.41,1.41,0,1,1-1.19-1.6h0A1.41,1.41,0,0,1,18.06,34.17ZM23.86,35a1.41,1.41,0,1,1-1.22-1.58h0A1.41,1.41,0,0,1,23.86,35Zm5.83,0.91a1.41,1.41,0,1,1-1.19-1.61,1.41,1.41,0,0,1,1.19,1.61h0Z" transform="translate(0 0)"/><path class="cls-2" d="M48.35,16.24L33.16,13.95a0.49,0.49,0,0,0-.55.41L30.32,29.55a0.49,0.49,0,0,0,.41.55l15.19,2.29A0.49,0.49,0,0,0,46.47,32l2.29-15.19a0.49,0.49,0,0,0-.39-0.58h0ZM35.69,27.79a1.41,1.41,0,1,1,.3-2,1.41,1.41,0,0,1-.3,2Zm1.24-8.21a1.41,1.41,0,1,1,.3-2,1.41,1.41,0,0,1-.3,2l0,0h0Zm3.48,4.73a1.41,1.41,0,1,1,.3-2,1.41,1.41,0,0,1-.3,2l0,0h0ZM43.86,29a1.41,1.41,0,1,1,.3-2,1.41,1.41,0,0,1-.3,2ZM45.1,20.8a1.14,1.14,0,1,1,.06,0l-0.06,0v0Z" transform="translate(0 0)"/></svg>