<svg id="레이어_1" data-name="레이어 1" xmlns="http://www.w3.org/2000/svg" width="60" height="60" viewBox="0 0 60 60"><defs><style>.cls-1{fill:#fafafa;stroke:#c8c8c8;stroke-miterlimit:10;stroke-width:1.4px;}.cls-2{fill:#b4b4b4;}.cls-3{fill:#fff;}</style></defs><title>segway</title><rect class="cls-1" x="0.7" y="0.7" width="58.6" height="58.6" rx="9" ry="9"/><path class="cls-2" d="M30.86,13.36V9.77a0.86,0.86,0,0,0-1.71,0v3.59H28.86V43.22h2.28V13.36H30.86Z" transform="translate(0 0)"/><path class="cls-2" d="M38.41,9.54a0.63,0.63,0,0,1-.63.63H32.31a0.63,0.63,0,0,1-.63-0.63h0a0.63,0.63,0,0,1,.63-0.63h5.47a0.63,0.63,0,0,1,.63.63h0Z" transform="translate(0 0)"/><path class="cls-2" d="M28.15,9.54a0.63,0.63,0,0,1-.63.63H22a0.63,0.63,0,0,1-.63-0.63h0A0.63,0.63,0,0,1,22,8.91h5.47a0.63,0.63,0,0,1,.63.63h0Z" transform="translate(0 0)"/><path class="cls-2" d="M19.8,46.87V38.78H17.35V49.32a1.77,1.77,0,0,0,3.53,0V46.87H19.8Z" transform="translate(0 0)"/><path class="cls-2" d="M40.2,46.87V38.78h2.45V49.32a1.77,1.77,0,1,1-3.53,0V46.87H40.2Z" transform="translate(0 0)"/><path class="cls-2" d="M39.69,35.24h-1.6v7.18a1.94,1.94,0,0,1-1.94,1.94H23.85a1.94,1.94,0,0,1-1.94-1.94V35.24H17.35v2.85h3v8.09h1.59v1a1.94,1.94,0,0,0,1.94,1.94H36.15a1.94,1.94,0,0,0,1.94-1.94v-1h1.6V38.09h3V35.24h-3Z" transform="translate(0 0)"/><path class="cls-3" d="M27.9,45.44a0.51,0.51,0,0,1-.5.52H23a0.51,0.51,0,0,1-.51-0.51h0A0.51,0.51,0,0,1,23,44.93h4.36a0.51,0.51,0,0,1,.51.51h0Z" transform="translate(0 0)"/><path class="cls-3" d="M37.49,45.44A0.51,0.51,0,0,1,37,46H32.61a0.51,0.51,0,0,1-.51-0.51h0A0.51,0.51,0,0,1,32.61,45H37a0.51,0.51,0,0,1,.51.51h0Z" transform="translate(0 0)"/></svg>