<svg id="레이어_1" data-name="레이어 1" xmlns="http://www.w3.org/2000/svg" width="20" height="20" viewBox="0 0 20 20"><defs><style>.cls-1{fill:#fff;fill-opacity:0;}.cls-2{fill:#382faf;}.cls-3{fill:#7c64ed;}</style></defs><title>dial</title><rect class="cls-1" width="20" height="20"/><path class="cls-2" d="M10,2.41h0a0.41,0.41,0,0,0-.41.41V4.15a0.41,0.41,0,0,0,.41.41h0a0.41,0.41,0,0,0,.41-0.41V2.82A0.41,0.41,0,0,0,10,2.41Z"/><path class="cls-2" d="M3.93,4.62h0a0.41,0.41,0,0,0,0,.57l0.84,1a0.41,0.41,0,0,0,.57,0h0a0.41,0.41,0,0,0,0-.56l-0.83-1a0.41,0.41,0,0,0-.58,0h0Z"/><path class="cls-2" d="M0.71,10.21h0a0.41,0.41,0,0,0,.33.47l1.29,0.23a0.41,0.41,0,0,0,.47-0.33h0a0.41,0.41,0,0,0-.33-0.47l-1.3-.22A0.41,0.41,0,0,0,.71,10.21Z"/><path class="cls-2" d="M1.83,16.57h0a0.41,0.41,0,0,0,.55.15L3.51,16a0.41,0.41,0,0,0,.15-0.55h0a0.41,0.41,0,0,0-.55-0.17h0L2,16a0.41,0.41,0,0,0-.19.54Z"/><path class="cls-2" d="M18.17,16.57h0A0.41,0.41,0,0,0,18,16h0l-1.13-.67a0.41,0.41,0,0,0-.55.15h0a0.41,0.41,0,0,0,.15.55L17.6,16.7a0.41,0.41,0,0,0,.57-0.1h0v0Z"/><path class="cls-2" d="M19.29,10.21h0a0.41,0.41,0,0,0-.47-0.33l-1.29.23a0.41,0.41,0,0,0-.33.47h0a0.41,0.41,0,0,0,.47.33L19,10.67A0.41,0.41,0,0,0,19.29,10.21Z"/><path class="cls-2" d="M16.07,4.62h0a0.41,0.41,0,0,0-.57,0l-0.83,1a0.41,0.41,0,0,0,0,.57h0a0.41,0.41,0,0,0,.57,0l0.84-1a0.41,0.41,0,0,0,0-.57h0Z"/><path class="cls-3" d="M10,6.12a5.73,5.73,0,1,0,5.73,5.73h0A5.73,5.73,0,0,0,10,6.12ZM7.69,9.87A1.06,1.06,0,1,1,8.75,8.81h0A1.06,1.06,0,0,1,7.69,9.87h0Z"/></svg>