<svg id="레이어_1" data-name="레이어 1" xmlns="http://www.w3.org/2000/svg" width="20" height="20" viewBox="0 0 20 20"><defs><style>.cls-1{fill:#fff;fill-opacity:0;}.cls-2{fill:#ff8e1d;}.cls-3{fill:#ffc088;}</style></defs><title>display</title><rect class="cls-1" width="20" height="20"/><path class="cls-2" d="M18.39,1.93H1.61a0.93,0.93,0,0,0-.95.91h0V15a0.93,0.93,0,0,0,.93.93h8v1.33H5.8a0.85,0.85,0,0,0-.84.82H15a0.85,0.85,0,0,0-.85-0.85h-3.8V15.89h8a0.93,0.93,0,0,0,1-.88h0V2.87a0.93,0.93,0,0,0-.93-0.93h0Z"/><rect class="cls-3" x="1.99" y="3.01" width="16.03" height="11.11"/></svg>