<svg id="레이어_1" data-name="레이어 1" xmlns="http://www.w3.org/2000/svg" width="20" height="20" viewBox="0 0 20 20"><defs><style>.cls-1{fill:#fff;fill-opacity:0;}.cls-2{fill:#b7afef;}.cls-3{fill:#7c64ed;}</style></defs><title>environment</title><rect class="cls-1" width="20" height="20"/><path class="cls-2" d="M11.09,6.52h0c0.24-2.24,2.85-5.79,2.85-5.79s2.63,3.54,2.85,5.77h0a2.47,2.47,0,0,1,0,.28,2.87,2.87,0,0,1-5.74,0h0A1.3,1.3,0,0,0,11.09,6.52Z"/><path class="cls-3" d="M13.94,18.23a3.45,3.45,0,1,0-3.45-3.45h0A3.45,3.45,0,0,0,13.94,18.23Zm0-6.41a3,3,0,0,1,0,5.93V11.82Z"/><path class="cls-3" d="M7.88,13.13V2.62a1.89,1.89,0,0,0-3.77,0V13.13A3.38,3.38,0,1,0,7.88,13.13Zm-1-6.21H5V2.67a0.94,0.94,0,1,1,1.89,0V6.92Z"/></svg>