<svg id="레이어_1" data-name="레이어 1" xmlns="http://www.w3.org/2000/svg" width="20" height="20" viewBox="0 0 20 20"><defs><style>.cls-1{fill:#fff;fill-opacity:0;}.cls-2{fill:#7c64ed;}.cls-3{fill:#b7afef;}</style></defs><title>gyro</title><rect class="cls-1" width="20" height="20"/><path class="cls-2" d="M18.41,15.09L17,14.29V7.51a0.87,0.87,0,0,0-.43-0.75L10.7,3.37V1.69a0.7,0.7,0,0,0-1.41,0V3.37L3.43,6.76A0.87,0.87,0,0,0,3,7.51v6.78l-1.4.81a0.7,0.7,0,0,0,.7,1.22h0l1.4-.81L9.57,18.9a0.87,0.87,0,0,0,.87,0l5.87-3.39,1.4,0.81a0.7,0.7,0,1,0,.7-1.22h0Z"/><path class="cls-3" d="M8.89,16.87L4.61,14.4a0.24,0.24,0,0,1-.12-0.21V8.9a0.24,0.24,0,0,1,.35-0.23l4.29,2.47a0.24,0.24,0,0,1,.12.21v5.32A0.24,0.24,0,0,1,9,16.9H9Z"/><path class="cls-3" d="M11.11,16.87L15.4,14.4a0.24,0.24,0,0,0,.12-0.21V8.9a0.24,0.24,0,0,0-.35-0.23l-4.29,2.47a0.24,0.24,0,0,0-.12.21v5.32a0.24,0.24,0,0,0,.24.24Z"/><path class="cls-3" d="M14,7.33L10.11,9.54a0.28,0.28,0,0,1-.27,0L6,7.33a0.28,0.28,0,0,1,0-.49L9.86,4.67a0.28,0.28,0,0,1,.27,0L14,6.85A0.28,0.28,0,0,1,14,7.33Z"/></svg>