<svg id="레이어_1" data-name="레이어 1" xmlns="http://www.w3.org/2000/svg" width="20" height="20" viewBox="0 0 20 20"><defs><style>.cls-1{fill:#fff;fill-opacity:0;}.cls-2{fill:#7c64ed;}.cls-3{fill:#b7afef;}.cls-4{fill:#382faf;}.cls-5{fill:none;stroke:#382faf;stroke-miterlimit:10;stroke-width:0.8px;}</style></defs><title>ir</title><rect class="cls-1" width="20" height="20"/><path class="cls-2" d="M6.73,4.88h-6V15.12h6a0.41,0.41,0,0,0,.41-0.41h0V5.28A0.41,0.41,0,0,0,6.73,4.88Z"/><path class="cls-3" d="M7.13,10.92v2.53A1.26,1.26,0,1,0,7.13,10.92Z"/><path class="cls-3" d="M7.13,6.56V9.09A1.27,1.27,0,1,0,7.13,6.56Z"/><polygon class="cls-4" points="12.08 11.88 12.41 12.85 10.99 12.8 9.57 12.75 10.66 11.84 11.74 10.92 12.08 11.88"/><path class="cls-4" d="M19.3,12.89a0.36,0.36,0,0,1-.36.36h0a0.36,0.36,0,0,1-.36-0.36h0V7.11a0.36,0.36,0,0,1,.36-0.36h0a0.36,0.36,0,0,1,.36.36h0v5.77h0Z"/><polyline class="cls-5" points="9.39 7.57 16.76 10.13 11.05 12.23"/></svg>