<svg id="레이어_1" data-name="레이어 1" xmlns="http://www.w3.org/2000/svg" width="20" height="20" viewBox="0 0 20 20"><defs><style>.cls-1{fill:#fff;fill-opacity:0;}.cls-2{fill:#ff8e1d;}.cls-3{fill:#ffc088;}</style></defs><title>led</title><rect class="cls-1" width="20" height="20"/><path class="cls-2" d="M14.5,16.24V11.18a4.52,4.52,0,0,0-9,0h0v5.06H4.67v1.33h10.6V16.24H14.5Z"/><path class="cls-3" d="M11.45,5.63h0a0.47,0.47,0,0,1-.33-0.57l0.62-2.31a0.47,0.47,0,0,1,.57-0.33h0a0.47,0.47,0,0,1,.33.57L12,5.29A0.47,0.47,0,0,1,11.45,5.63Z"/><path class="cls-3" d="M8.52,5.65h0A0.47,0.47,0,0,1,8,5.33L7.33,3a0.47,0.47,0,0,1,.33-0.57h0a0.47,0.47,0,0,1,.57.33L8.86,5.09A0.47,0.47,0,0,1,8.52,5.65Z"/><path class="cls-3" d="M6,7.14H6a0.47,0.47,0,0,1-.66,0h0L3.64,5.45a0.47,0.47,0,0,1,0-.66h0a0.47,0.47,0,0,1,.66,0h0L6,6.48A0.47,0.47,0,0,1,6,7.14Z"/><path class="cls-3" d="M14,7.07h0a0.47,0.47,0,0,1,0-.66h0l1.69-1.69a0.47,0.47,0,0,1,.66,0h0a0.47,0.47,0,0,1,0,.66h0L14.67,7.07a0.47,0.47,0,0,1-.66,0h0Z"/></svg>