<?xml version="1.0" encoding="utf-8"?>
<!-- Generator: Adobe Illustrator 16.0.0, SVG Export Plug-In . SVG Version: 6.00 Build 0)  -->
<!DOCTYPE svg PUBLIC "-//W3C//DTD SVG 1.1//EN" "http://www.w3.org/Graphics/SVG/1.1/DTD/svg11.dtd">
<svg version="1.1" id="Layer_1" xmlns="http://www.w3.org/2000/svg" xmlns:xlink="http://www.w3.org/1999/xlink" x="0px" y="0px"
	 width="20px" height="20px" viewBox="0 0 20 20" enable-background="new 0 0 20 20" xml:space="preserve">
<rect fill="#FFFFFF" fill-opacity="0" width="20" height="20"/>
<g>
	<path fill="#7C64ED" d="M7.903,15.008c2.766,0,5.009-2.24,5.009-5.006s-2.242-5.01-5.009-5.01c-2.766,0-5.008,2.243-5.008,5.01
		C2.895,12.768,5.137,15.008,7.903,15.008z M7.875,5.69c2.38,0,4.309,1.931,4.309,4.311c0,2.378-1.929,4.307-4.309,4.307V5.69z"/>
	<path fill="#7C64ED" d="M16.818,11.993l-2.095-0.561c-0.207-0.057-0.419,0.066-0.475,0.274l0,0
		c-0.056,0.208,0.068,0.42,0.274,0.476l2.092,0.562c0.209,0.056,0.421-0.067,0.478-0.274l0,0
		C17.148,12.262,17.025,12.049,16.818,11.993z"/>
	<path fill="#7C64ED" d="M16.615,7.254l-2.092,0.562c-0.206,0.055-0.33,0.267-0.274,0.476l0,0c0.056,0.207,0.268,0.329,0.475,0.273
		l2.095-0.561c0.207-0.056,0.329-0.269,0.274-0.477l0,0C17.036,7.322,16.824,7.199,16.615,7.254z"/>
	<path fill="#7C64ED" d="M14.073,3.251L12.54,4.783c-0.151,0.152-0.151,0.398,0,0.551l0,0c0.152,0.151,0.398,0.151,0.549,0
		L14.622,3.8c0.152-0.151,0.152-0.398,0-0.549l0,0C14.471,3.1,14.225,3.1,14.073,3.251z"/>
	<path fill="#7C64ED" d="M14.622,16.198l-1.532-1.533c-0.151-0.151-0.397-0.151-0.55,0l0,0c-0.151,0.152-0.151,0.399,0,0.549
		l1.533,1.534c0.153,0.152,0.398,0.152,0.549,0l0,0C14.774,16.597,14.774,16.35,14.622,16.198z"/>
</g>
</svg>
