<svg id="레이어_1" data-name="레이어 1" xmlns="http://www.w3.org/2000/svg" width="20" height="20" viewBox="0 0 20 20"><defs><style>.cls-1{fill:#fff;fill-opacity:0;}.cls-2{fill:#b7afef;}.cls-3{fill:#7c64ed;}</style></defs><title>mic</title><rect class="cls-1" width="20" height="20"/><path class="cls-2" d="M14.84,12.31V12.9a4.84,4.84,0,0,1-9.68,0h0V12.31H3.73V13a6.28,6.28,0,0,0,12.55,0V12.31H14.84Z"/><path class="cls-2" d="M14.84,12.31V12.9a4.84,4.84,0,0,1-9.68,0h0V12.31H3.73V13a6.28,6.28,0,0,0,12.55,0V12.31H14.84Z"/><path class="cls-3" d="M11.33,11.89v-1h2.55V9.23H11.33v-1h2.55V6.57H11.33v-1h2.55V4.63a3.89,3.89,0,0,0-7.78,0V5.52H8.67v1H6.11V8.19H8.67v1H6.11v1.62H8.67v1H6.11V12.7a3.89,3.89,0,0,0,7.78,0h0V11.89H11.33Z"/></svg>