<svg id="레이어_1" data-name="레이어 1" xmlns="http://www.w3.org/2000/svg" width="20" height="20" viewBox="0 0 20 20"><defs><style>.cls-1{fill:#fff;fill-opacity:0;}.cls-2{fill:#facb1b;}.cls-3{fill:#f3b607;}.cls-4{fill:#fcf6c2;}</style></defs><title>prop</title><rect class="cls-1" width="20" height="20"/><polygon class="cls-2" points="10 18.48 0 14.19 0 5.6 10 9.89 10 18.48"/><polygon class="cls-3" points="10 18.48 20 14.19 20 5.6 10 9.89 10 18.48"/><polygon class="cls-4" points="20 5.6 10 9.89 0 5.6 10 1.52 20 5.6"/><path class="cls-3" d="M8,6.12V7.48c0,0.45.9,0.81,2,.81s2-.36,2-0.81V6.12H8Z"/><ellipse class="cls-4" cx="10" cy="6.12" rx="2" ry="0.81"/><path class="cls-3" d="M8,2.33V3.69c0,0.45.9,0.81,2,.81s2-.36,2-0.81V2.33H8Z"/><ellipse class="cls-4" cx="10" cy="2.33" rx="2" ry="0.81"/><path class="cls-3" d="M13.75,4.23V5.58c0,0.45.9,0.81,2,.81s2-.36,2-0.81V4.23h-4Z"/><ellipse class="cls-4" cx="15.75" cy="4.23" rx="2" ry="0.81"/><path class="cls-3" d="M2.25,4.23V5.58c0,0.45.9,0.81,2,.81s2-.36,2-0.81V4.23h-4Z"/><ellipse class="cls-4" cx="4.25" cy="4.23" rx="2" ry="0.81"/></svg>