<svg id="Layer_1" data-name="Layer 1" xmlns="http://www.w3.org/2000/svg" width="20" height="20" viewBox="0 0 20 20"><defs><style>.cls-1{fill:#fff;fill-opacity:0;}.cls-2{fill:#ffc088;}.cls-3{fill:#ff8e1d;}</style></defs><title>servo</title><rect class="cls-1" width="20" height="20"/><path class="cls-2" d="M18.54,5.19H12.66a1.94,1.94,0,0,1,.09,1.11h4.17V13.7H12.75a1.94,1.94,0,0,1-.09,1.11h5.88A0.78,0.78,0,0,0,19.32,14V6A0.77,0.77,0,0,0,18.54,5.19Z"/><path class="cls-3" d="M9.48,10l2.74-2.74A1.94,1.94,0,1,0,9.48,4.51L6.74,7.26,4,4.51A1.94,1.94,0,0,0,1.25,7.26L4,10,1.25,12.74A1.94,1.94,0,1,0,4,15.49l2.74-2.74,2.74,2.74a1.94,1.94,0,1,0,2.74-2.74Zm-3.68.93a1.32,1.32,0,1,1,1.87,0A1.32,1.32,0,0,1,5.8,10.93Z"/></svg>