<svg id="레이어_1" data-name="레이어 1" xmlns="http://www.w3.org/2000/svg" width="20" height="20" viewBox="0 0 20 20"><defs><style>.cls-1{fill:#fff;fill-opacity:0;}.cls-2{fill:#ffc088;}.cls-3{fill:#ff8e1d;}</style></defs><title>speaker</title><rect class="cls-1" width="20" height="20"/><path class="cls-2" d="M12.81,8.35l0.83-.83a3.51,3.51,0,0,1,0,5l0,0-0.83-.83a2.34,2.34,0,0,0,0-3.31Z"/><path class="cls-2" d="M15.29,14.13l-0.83-.8a4.67,4.67,0,0,0,0-6.6h0l0.83-.85A5.85,5.85,0,0,1,15.29,14.13Z"/><path class="cls-2" d="M16.12,15L17,15.83A8.19,8.19,0,0,0,17,4.26L16.12,5a7,7,0,0,1,.1,9.9Z"/><path class="cls-3" d="M9.71,1.86a2,2,0,0,0-.9.57L4.09,6.67H0.67v6.67H4.09l4.73,4.22a2,2,0,0,0,.9.57,0.71,0.71,0,0,0,.75-0.66h0V2.56a0.71,0.71,0,0,0-.71-0.7h0Z"/></svg>