<svg id="레이어_1" data-name="레이어 1" xmlns="http://www.w3.org/2000/svg" width="20" height="20" viewBox="0 0 20 20"><defs><style>.cls-1{fill:#fff;fill-opacity:0;}.cls-2{fill:#7c64ed;}.cls-3{fill:#b7afef;}.cls-4{fill:none;}</style></defs><title>ultrasonic</title><rect class="cls-1" width="20" height="20"/><path class="cls-2" d="M6.4,4.32A5.68,5.68,0,1,0,12.08,10h0A5.68,5.68,0,0,0,6.4,4.32h0Zm4.22,5.25H10a3.56,3.56,0,0,0-3.14-3.1V5.81A4.24,4.24,0,0,1,10.62,9.57ZM6,8.55a1.51,1.51,0,0,0-1,1H4.11A2.34,2.34,0,0,1,6,7.71V8.56H6ZM5,10.43a1.51,1.51,0,0,0,1,1V12.3a2.33,2.33,0,0,1-1.86-1.86H5Zm1.87,1a1.51,1.51,0,0,0,1-1h0.8a2.34,2.34,0,0,1-1.86,1.86V11.45h0Zm1-1.88a1.51,1.51,0,0,0-1-1V7.71a2.34,2.34,0,0,1,1.8,1.86H7.85ZM6,5.78V6.45A3.55,3.55,0,0,0,2.91,9.54H2.24A4.25,4.25,0,0,1,6,5.78ZM2.21,10.45H2.88A3.55,3.55,0,0,0,6,13.53V14.2a4.25,4.25,0,0,1-3.82-3.76h0Zm4.67,3.79V13.57A3.55,3.55,0,0,0,10,10.47h0.67a4.24,4.24,0,0,1-3.81,3.75h0Z"/><path class="cls-3" d="M13,8.4l0.8-.8a3.4,3.4,0,0,1,0,4.81h0l-0.8-.8a2.26,2.26,0,0,0,0-3.2h0Z"/><path class="cls-3" d="M15.33,14l-0.8-.8a4.53,4.53,0,0,0,0-6.4h0l0.8-.8A5.66,5.66,0,0,1,15.33,14Z"/><path class="cls-3" d="M16.15,14.81l0.8,0.8A7.93,7.93,0,0,0,17,4.4l-0.8.8a6.79,6.79,0,0,1,0,9.6h0Z"/><circle class="cls-4" cx="6.4" cy="10" r="5.68"/></svg>