<svg id="Layer_1" data-name="Layer 1" xmlns="http://www.w3.org/2000/svg" width="20" height="20" viewBox="0 0 20 20"><defs><style>.cls-1{fill:#fff;fill-opacity:0;}.cls-2{fill:#fc0;}.cls-3{fill:#db9700;}</style></defs><title>network</title><rect class="cls-1" width="20" height="20"/><path class="cls-2" d="M17.09,8a0.43,0.43,0,0,0,0-.06A5.77,5.77,0,0,0,17,7.33v0c0-.22-0.07-0.43-0.12-0.64v0C16.83,6.42,16.78,6.21,16.71,6l0-.07-0.1-.27,0-.08-0.08-.19-0.06-.12-0.1-.21-0.08-.15-0.05-.09L16,4.54l0,0-0.11-.17,0,0L15.62,4l0-.05-0.24-.29,0,0-0.13-.15-0.06-.06L15,3.3l-0.1-.09-0.08-.08-0.23-.2-0.08-.07-0.14-.12-0.15-.11-0.18-.13-0.11-.08-0.11-.07h0l0,0-0.46.7h0a6.23,6.23,0,0,1,.6.44l0,0L14.24,3.8l0,0,0.24,0.24,0,0a6.19,6.19,0,0,1,.69.89h0l0.18,0.3,0,0,0.15,0.3,0,0c0.05,0.11.1,0.23,0.15,0.34V6l0.11,0.31,0,0.11L16,6.67,16,6.8c0,0.09,0,.17.06,0.26l0,0.11q0,0.15.05,0.31V7.61c0,0.08,0,.16,0,0.24V8c0,0.12,0,.23,0,0.35v0c0,0.12,0,.23,0,0.35V8.82c0,0.08,0,.16,0,0.24V9.19c0,0.1,0,.21,0,0.31l0,0.12c0,0.09,0,.17-0.06.25L16,10l-0.06.22,0,0.12c0,0.1-.07.2-0.11,0.3v0c0,0.11-.1.23-0.15,0.34l0,0-0.15.29,0,0-0.18.29v0a6.31,6.31,0,0,1-.69.89l0,0-0.23.23,0,0L14,13.1l0,0-0.28.22h0l-0.31.22,0.48,0.75h0L14,14.24l0.09-.06L14.32,14l0.06,0,0.15-.12,0.07-.06,0.23-.21,0.08-.07,0.1-.09,0.12-.13,0.06-.06L15.32,13l0,0,0.23-.28,0-.05,0.22-.3,0,0L16,12.17l0,0,0.17-.29,0.05-.09,0.08-.15,0.11-.21,0.06-.12,0.08-.18,0-.08,0.1-.27,0-.07c0.07-.2.13-0.4,0.18-0.61v0c0-.21.09-0.42,0.12-0.64v0c0-.21,0-0.42.06-0.63t0-.06c0-.1,0-0.21,0-0.31S17.09,8.13,17.09,8Z"/><path class="cls-2" d="M13.53,8.34a3.55,3.55,0,0,0-1.62-3l-0.49.75a2.66,2.66,0,0,1,0,4.48l0.49,0.75A3.56,3.56,0,0,0,13.53,8.34Z"/><path class="cls-2" d="M15.31,8.34a5.34,5.34,0,0,0-2.44-4.48l-0.48.75a4.45,4.45,0,0,1,0,7.47l0.48,0.75A5.34,5.34,0,0,0,15.31,8.34Z"/><path class="cls-3" d="M10,6.95a1.39,1.39,0,0,0-.54,2.67v8h1.08v-8A1.39,1.39,0,0,0,10,6.95Z"/><path class="cls-2" d="M6,13.1l-0.25-.22,0,0L5.49,12.6l0,0a6.15,6.15,0,0,1-.69-0.89v0l-0.18-.3,0,0L4.41,11v0c-0.05-.11-0.1-0.23-0.15-0.34v0l-0.11-.3,0-.11L4,10l0-.13c0-.08,0-0.17-0.06-0.26l0-.11c0-.1,0-0.21-0.05-0.31l0-.13,0-.24V8.7c0-.11,0-0.23,0-0.35v0c0-.12,0-0.23,0-0.35V7.86c0-.08,0-0.16,0-0.24l0-.13c0-.1,0-0.2,0-0.31l0-.12C3.95,7,4,6.89,4,6.8l0-.13,0.07-.22,0-.12L4.24,6V6c0-.12.09-0.23,0.15-0.34l0,0,0.15-.29,0,0L4.77,5V5a6.25,6.25,0,0,1,.69-0.89l0,0,0.23-.23,0,0L6,3.58l0,0,0.28-.22h0l0.31-.22L6.16,2.36h0L6,2.44,5.94,2.5l-0.26.19-0.06,0-0.15.12L5.4,2.92l-0.23.21-0.08.07L5,3.3l-0.12.13-0.06.06-0.13.14,0,0-0.24.29L4.38,4l-0.22.3,0,0L4,4.5l0,0-0.17.29,0,0.09-0.08.15-0.11.21-0.06.12-0.08.18,0,0.08-0.1.27L3.29,6c-0.07.2-.13,0.4-0.18,0.61v0C3.06,6.87,3,7.08,3,7.3v0c0,0.21,0,.42-0.06.63,0,0,0,0,0,.06s0,0.21,0,.31,0,0.21,0,.31,0,0,0,.06c0,0.21,0,.43.06,0.63v0C3,9.59,3.05,9.81,3.1,10v0c0.05,0.21.11,0.41,0.18,0.61l0,0.07L3.42,11l0,0.08,0.08,0.19,0.06,0.12L3.69,11.6l0.08,0.15,0,0.09L4,12.13l0,0,0.11,0.17,0,0,0.22,0.3,0,0.05L4.66,13l0,0,0.13,0.15,0.05,0.06L5,13.38l0.1,0.09,0.08,0.07,0.22,0.2,0.08,0.07,0.14,0.12L5.76,14l0.18,0.13L6,14.24l0.11,0.07h0l0,0,0.46-.7h0A6.28,6.28,0,0,1,6,13.12Z"/><path class="cls-2" d="M8.58,6.1L8.09,5.35a3.56,3.56,0,0,0,0,6l0.48-.75A2.67,2.67,0,0,1,8.58,6.1Z"/><path class="cls-2" d="M5.58,8.34a4.45,4.45,0,0,1,2-3.73L7.12,3.85a5.34,5.34,0,0,0,0,9l0.48-.75A4.45,4.45,0,0,1,5.58,8.34Z"/></svg>