<svg id="레이어_1" data-name="레이어 1" xmlns="http://www.w3.org/2000/svg" width="20" height="20" viewBox="0 0 20 20"><defs><style>.cls-1,.cls-4{fill:#fff;}.cls-1{fill-opacity:0;}.cls-2{fill:#754c29;}.cls-3{fill:#c49a6c;}</style></defs><title>var</title><rect class="cls-1" width="20" height="20"/><polygon class="cls-2" points="15 4.98 5 4.98 3.35 7.17 16.66 7.17 15 4.98"/><path class="cls-3" d="M2.87,4a0.41,0.41,0,0,0-.32,0l-2.43.87h0a0.24,0.24,0,0,0-.07.33L0.12,5.22l3.23,2L5,5Z"/><path class="cls-3" d="M17.13,4a0.41,0.41,0,0,1,.32,0l2.42,0.87h0a0.24,0.24,0,0,1,.07.33l-0.07.07-3.21,2L15,5Z"/><path class="cls-3" d="M3.35,7.18v8.25a0.67,0.67,0,0,0,.66.66H16a0.67,0.67,0,0,0,.66-0.66V7.18H3.35Z"/><path class="cls-4" d="M10.73,10.38a1.69,1.69,0,1,0,.78,3.2v0.19h0.92v-1.7a1.69,1.69,0,0,0-1.69-1.69h0Zm0,2.47a0.78,0.78,0,1,1,.78-0.78h0A0.78,0.78,0,0,1,10.73,12.85Z"/><path class="cls-4" d="M14,13.77v-1.7a0.78,0.78,0,0,1,.78-0.78V10.38a1.69,1.69,0,0,0-.78.19V10.38H13.08v3.39H14Z"/><polygon class="cls-4" points="7.67 13.77 8.94 10.38 7.96 10.38 7.08 12.73 6.2 10.38 5.22 10.38 6.5 13.77 7.67 13.77"/></svg>