<?xml version="1.0" encoding="utf-8"?>
<!-- Generator: Adobe Illustrator 16.0.0, SVG Export Plug-In . SVG Version: 6.00 Build 0)  -->
<!DOCTYPE svg PUBLIC "-//W3C//DTD SVG 1.1//EN" "http://www.w3.org/Graphics/SVG/1.1/DTD/svg11.dtd">
<svg version="1.1" id="Layer_1" xmlns="http://www.w3.org/2000/svg" xmlns:xlink="http://www.w3.org/1999/xlink" x="0px" y="0px"
	 width="30px" height="28px" viewBox="0 0 30 28" enable-background="new 0 0 30 28" xml:space="preserve">
<rect opacity="0" fill="#FFFFFF" width="30" height="28"/>
<g>
	<polygon fill="#26CAD3" points="12.396,8.401 12.396,10.249 11.094,9.897 11.094,17.945 17.674,19.716 17.674,17.872 12.396,16.45 
		12.396,10.251 17.674,11.671 17.674,17.869 18.975,18.221 18.975,10.171 	"/>
	<path fill="#26CAD3" d="M23.268,13.557c0.59,0,1.172,0,1.76,0c-0.237-5.364-4.657-9.595-10.03-9.595
		c-5.371,0-9.787,4.23-10.025,9.595c1.504-0.948,3.01-1.894,4.514-2.843c-0.496-0.377-0.994-0.758-1.49-1.136
		c1.924-3.048,5.599-4.503,9.091-3.593C20.576,6.894,23.076,9.956,23.268,13.557z"/>
	<path fill="#26CAD3" d="M6.727,14.442c-0.586,0-1.172,0-1.756,0c0.238,5.365,4.654,9.596,10.025,9.596
		c5.373,0,9.793-4.229,10.031-9.596c-1.51,0.947-3.012,1.895-4.517,2.843c0.496,0.378,0.992,0.757,1.492,1.137
		c-1.928,3.049-5.604,4.505-9.094,3.596C9.422,21.105,6.92,18.044,6.727,14.442z"/>
</g>
</svg>
