<svg id="레이어_1" data-name="레이어 1" xmlns="http://www.w3.org/2000/svg" width="30" height="30" viewBox="0 0 30 30"><defs><style>.cls-1{fill:#fff;opacity:0;}.cls-2{fill:#939393;}</style></defs><title>community</title><rect class="cls-1" width="30" height="30"/><path class="cls-2" d="M15.42,12.47A4.55,4.55,0,0,0,17.15,9V8a3,3,0,0,0-3-3H13.36a3,3,0,0,0-3,3V9a4.55,4.55,0,0,0,1.73,3.44A5.81,5.81,0,0,0,8,18v1.35H19.56V18A5.81,5.81,0,0,0,15.42,12.47Z" transform="translate(-2.25 1)"/><path class="cls-2" d="M22.37,16.11a4.55,4.55,0,0,0,1.73-3.44V11.59a3,3,0,0,0-3-3H20.31a3,3,0,0,0-3,3v1.08a4.55,4.55,0,0,0,1.73,3.44,5.81,5.81,0,0,0-4.14,5.54V23H26.51V21.65A5.81,5.81,0,0,0,22.37,16.11Z" transform="translate(-2.25 1)"/></svg>