<svg id="레이어_1" data-name="레이어 1" xmlns="http://www.w3.org/2000/svg" width="30" height="30" viewBox="0 0 30 30"><defs><style>.cls-1{fill:#fff;opacity:0;}.cls-2{fill:#26cad3;}</style></defs><title>cuiOn</title><rect class="cls-1" width="30" height="30"/><path class="cls-2" d="M30.15,3H8.49A1.67,1.67,0,0,0,6.82,4.67V21.33A1.67,1.67,0,0,0,8.49,23H30.15a1.67,1.67,0,0,0,1.67-1.67V4.67A1.67,1.67,0,0,0,30.15,3ZM29.51,20a0.72,0.72,0,0,1-.72.72h-19A0.72,0.72,0,0,1,9.13,20V6a0.72,0.72,0,0,1,.72-0.72h19a0.72,0.72,0,0,1,.72.72V20Z" transform="translate(-4.32 2)"/><path class="cls-2" d="M13.34,3H8.49A1.67,1.67,0,0,0,6.82,4.67V21.33A1.67,1.67,0,0,0,8.49,23h4.85V3Z" transform="translate(-4.32 2)"/><rect class="cls-2" x="11.69" y="9.13" width="10.14" height="2.2" rx="0.98" ry="0.98"/><rect class="cls-2" x="11.69" y="12.77" width="6.47" height="2.2" rx="0.98" ry="0.98"/></svg>