<svg id="레이어_1" data-name="레이어 1" xmlns="http://www.w3.org/2000/svg" width="30" height="30" viewBox="0 0 30 30"><defs><style>.cls-1{fill:#fff;opacity:0;}.cls-2{fill:#939393;}</style></defs><title>gui</title><rect class="cls-1" width="30" height="30"/><path class="cls-2" d="M30.3,2.57H8.63A1.67,1.67,0,0,0,7,4.24V20.91a1.67,1.67,0,0,0,1.67,1.67H30.3A1.67,1.67,0,0,0,32,20.91V4.24A1.67,1.67,0,0,0,30.3,2.57Zm-0.64,17a0.72,0.72,0,0,1-.72.72H10a0.72,0.72,0,0,1-.72-0.72V5.6A0.72,0.72,0,0,1,10,4.89h19a0.72,0.72,0,0,1,.72.72V19.54Z" transform="translate(-4.47 2.43)"/><path class="cls-2" d="M27.86,14.37V10.6H17.07v1.6H14.64a0.9,0.9,0,0,1-.9-0.9V10h8.13V6.18H11.07V10h2v5.94a1.57,1.57,0,0,0,1.57,1.57h2.46V19H27.86V15.19H17.07v1.59H14.64a0.9,0.9,0,0,1-.9-0.9V12.61a1.56,1.56,0,0,0,.87.27h2.46v1.49H27.86Z" transform="translate(-4.47 2.43)"/></svg>