<?xml version="1.0" encoding="utf-8"?>
<!-- Generator: Adobe Illustrator 16.0.0, SVG Export Plug-In . SVG Version: 6.00 Build 0)  -->
<!DOCTYPE svg PUBLIC "-//W3C//DTD SVG 1.1//EN" "http://www.w3.org/Graphics/SVG/1.1/DTD/svg11.dtd">
<svg version="1.1" id="Layer_1" xmlns="http://www.w3.org/2000/svg" xmlns:xlink="http://www.w3.org/1999/xlink" x="0px" y="0px"
	 width="30px" height="28px" viewBox="0 0 30 28" enable-background="new 0 0 30 28" xml:space="preserve">
<rect opacity="0" fill="#5D5D5D" width="30" height="28"/>
<g>
	<g>
		<path fill="#939393" d="M20.098,7.925v2.535h0.844V7.339c0-0.487-0.393-0.883-0.877-0.883h-6.276v0.849h5.694
			C19.967,7.306,20.098,7.439,20.098,7.925z"/>
		<path fill="#939393" d="M8.316,12.902c-0.484,0-0.881,0.396-0.881,0.881v4.473h0.848v-3.885c0-0.486,0.127-0.621,0.613-0.621
			h8.762v-0.848H8.316L8.316,12.902z"/>
		<rect x="8.056" y="4.015" fill="#939393" width="5.729" height="5.73"/>
		<rect x="17.658" y="10.46" fill="#939393" width="5.73" height="5.731"/>
		<rect x="5" y="18.256" fill="#939393" width="5.729" height="5.73"/>
	</g>
	<path fill="#939393" d="M24.809,22.859l-1.549-1.549l1.549-1.552c0.256-0.256,0.256-0.676,0-0.934
		c-0.258-0.261-0.676-0.261-0.934,0l-1.549,1.549l-1.549-1.549c-0.258-0.261-0.676-0.261-0.932,0c-0.261,0.258-0.261,0.678,0,0.934
		l1.547,1.552l-1.547,1.549c-0.261,0.258-0.261,0.674,0,0.932c0.256,0.26,0.674,0.26,0.932,0l1.549-1.547l1.549,1.547
		c0.258,0.26,0.676,0.26,0.934,0C25.064,23.535,25.064,23.117,24.809,22.859z"/>
</g>
</svg>
