<svg id="레이어_1" data-name="레이어 1" xmlns="http://www.w3.org/2000/svg" width="18" height="18" viewBox="0 0 18 18"><defs><style>.cls-1{fill:#3fc0cb;}.cls-2{fill:#333e48;}</style></defs><title>logo</title><path class="cls-1" d="M13.6,0H1.94A0.94,0.94,0,0,0,1,.94V17.06a0.94,0.94,0,0,0,.94.94H18.06A0.94,0.94,0,0,0,19,17.06V0.94A0.94,0.94,0,0,0,18.06,0H13.6Z" transform="translate(-1)"/><path class="cls-2" d="M6.4,18h7.2V11.93a0.47,0.47,0,0,0-.8-0.33l-2.13,2.13a0.94,0.94,0,0,1-1.33,0L7.2,11.6a0.47,0.47,0,0,0-.8.33V18Z" transform="translate(-1)"/></svg>