<svg id="레이어_1" data-name="레이어 1" xmlns="http://www.w3.org/2000/svg" width="18" height="18" viewBox="0 0 18 18"><defs><style>.cls-1{fill:#bceaed;}.cls-2{fill:#26cad3;}</style></defs><title>logoOn</title><path class="cls-1" d="M12.6,0H0.94A0.94,0.94,0,0,0,0,.94H0V17.06A0.94,0.94,0,0,0,.94,18H17.06A0.94,0.94,0,0,0,18,17.06h0V0.94A0.94,0.94,0,0,0,17.06,0H12.6Z"/><path class="cls-2" d="M5.4,18h7.2V11.93a0.47,0.47,0,0,0-.8-0.33L9.67,13.73a0.94,0.94,0,0,1-1.33,0h0L6.2,11.6a0.47,0.47,0,0,0-.8.33V18Z"/></svg>