<?xml version="1.0" encoding="utf-8"?>
<!-- Generator: Adobe Illustrator 16.0.0, SVG Export Plug-In . SVG Version: 6.00 Build 0)  -->
<!DOCTYPE svg PUBLIC "-//W3C//DTD SVG 1.1//EN" "http://www.w3.org/Graphics/SVG/1.1/DTD/svg11.dtd">
<svg version="1.1" id="Layer_1" xmlns="http://www.w3.org/2000/svg" xmlns:xlink="http://www.w3.org/1999/xlink" x="0px" y="0px"
	 width="120px" height="28px" viewBox="0 0 120 28" enable-background="new 0 0 120 28" xml:space="preserve">
<g>
	<g>
		<path fill="#939393" d="M20.702,13.668c0.44,0,0.879,0,1.318,0c-0.178-4.028-3.495-7.202-7.527-7.202
			c-4.031,0-7.349,3.174-7.526,7.202c1.13-0.711,2.259-1.422,3.389-2.133c-0.372-0.284-0.746-0.569-1.12-0.854
			c1.446-2.289,4.206-3.379,6.826-2.697C18.681,8.666,20.558,10.965,20.702,13.668z"/>
		<path fill="#939393" d="M8.284,14.333c-0.438,0-0.877,0-1.317,0c0.178,4.027,3.495,7.201,7.526,7.201
			c4.032,0,7.35-3.174,7.527-7.201c-1.129,0.712-2.259,1.423-3.389,2.134c0.373,0.284,0.746,0.569,1.12,0.853
			c-1.446,2.289-4.206,3.381-6.826,2.699C10.308,19.335,8.43,17.036,8.284,14.333z"/>
		<polygon fill="#26CAD3" points="11.297,13.927 13.331,16.673 18.588,11.337 13.373,15.319 		"/>
	</g>
	<text transform="matrix(1 0 0 1 28.4268 17.5996)" fill="#010101" font-family="'NanumGothic'" font-size="12">Update Check</text>
</g>
<rect fill="#26CAD3" width="120" height="28"/>
<g>
	<path fill="#BCBCBC" d="M20.07,6.925H8.783c-1.025,0-1.856,0.831-1.856,1.856v7.429v0.715v4.149l2.489-2.292H20.07
		c1.025,0,1.856-0.832,1.856-1.857V8.782C21.927,7.756,21.096,6.925,20.07,6.925z"/>
	<circle fill="#FFFFFF" cx="16.635" cy="12.042" r="2.074"/>
	<path fill="#FFFFFF" d="M19.623,18.783v-2.548c0-0.935-0.453-1.762-1.15-2.276c-0.463,0.487-1.114,0.79-1.838,0.79
		s-1.376-0.303-1.838-0.79c-0.697,0.515-1.15,1.342-1.15,2.276v2.548H19.623z"/>
	<path fill="#26CAD3" d="M13.385,9.654c0,0.17-0.139,0.308-0.309,0.308H8.511c-0.17,0-0.309-0.138-0.309-0.308l0,0
		c0-0.171,0.139-0.309,0.309-0.309h4.565C13.246,9.346,13.385,9.483,13.385,9.654L13.385,9.654z"/>
	<path fill="#26CAD3" d="M13.385,10.869c0,0.17-0.139,0.309-0.309,0.309H8.511c-0.17,0-0.309-0.138-0.309-0.309l0,0
		c0-0.17,0.139-0.307,0.309-0.307h4.565C13.246,10.562,13.385,10.699,13.385,10.869L13.385,10.869z"/>
	<path fill="#26CAD3" d="M10.449,12.084c0,0.17-0.138,0.308-0.307,0.308H8.511c-0.17,0-0.309-0.138-0.309-0.308l0,0
		c0-0.17,0.139-0.309,0.309-0.309h1.632C10.312,11.775,10.449,11.914,10.449,12.084L10.449,12.084z"/>
	<text transform="matrix(1 0 0 1 28.4932 17.6006)" fill="#010101" font-family="'NanumGothic'" font-size="12">Tutorial</text>
</g>
</svg>
