<?xml version="1.0" encoding="utf-8"?>
<!-- Generator: Adobe Illustrator 16.0.0, SVG Export Plug-In . SVG Version: 6.00 Build 0)  -->
<!DOCTYPE svg PUBLIC "-//W3C//DTD SVG 1.1//EN" "http://www.w3.org/Graphics/SVG/1.1/DTD/svg11.dtd">
<svg version="1.1" id="Layer_1" xmlns="http://www.w3.org/2000/svg" xmlns:xlink="http://www.w3.org/1999/xlink" x="0px" y="0px"
	 width="100px" height="28px" viewBox="0 0 100 28" enable-background="new 0 0 100 28" xml:space="preserve">
<g>
	<polygon fill="#E6E6E6" points="16.769,7 8.4,7 8.4,21 19.6,21 19.6,9.833 	"/>
	<polygon fill="#939393" points="16.769,7 16.769,9.833 19.6,9.833 19.6,9.833 	"/>
	<path fill="#26CAD3" d="M18.288,16.295h-1.465v-1.464c0-0.34-0.275-0.615-0.615-0.615c-0.341,0-0.616,0.275-0.616,0.615v1.464
		h-1.466c-0.341,0-0.616,0.277-0.616,0.617s0.275,0.615,0.616,0.615h1.466v1.465c0,0.34,0.275,0.615,0.616,0.615
		c0.34,0,0.615-0.275,0.615-0.615v-1.465h1.465c0.34,0,0.616-0.275,0.616-0.615S18.628,16.295,18.288,16.295z"/>
	<text transform="matrix(1 0 0 1 28.0703 17.6006)" fill="#010101" font-family="'NanumGothic'" font-size="12">New</text>
</g>
<g>
	<polygon fill="#939393" points="18.191,7 7,7 7,21 20.999,21 20.999,9.809 	"/>
	<path fill="#D1D1D1" d="M10.473,7v3.154c0,0.168,0.138,0.307,0.308,0.307h6.44c0.17,0,0.307-0.139,0.307-0.307V7H10.473z"/>
	<rect x="8.825" y="15.109" fill="#F1F1F1" width="10.351" height="5.891"/>
	<rect x="15.635" y="7.624" fill="#939598" width="0.955" height="2.215"/>
	<text transform="matrix(1 0 0 1 28 17.6016)" fill="#010101" font-family="'NanumGothic'" font-size="12">Save</text>
</g>
<rect fill="#26CAD3" width="100" height="28"/>
<g>
	<polygon fill="#939393" points="18.191,7 7,7 7,21 20.999,21 20.999,9.809 	"/>
	<path fill="#D1D1D1" d="M10.473,7v3.154c0,0.168,0.138,0.307,0.308,0.307h6.44c0.168,0,0.307-0.139,0.307-0.307V7H10.473z"/>
	<rect x="8.824" y="15.109" fill="#F1F1F1" width="10.352" height="5.891"/>
	<rect x="15.635" y="7.624" fill="#939598" width="0.955" height="2.215"/>
	<path fill="#BCBCBC" d="M18.312,19.486c0,0.209-0.17,0.379-0.38,0.379h-7.863c-0.209,0-0.379-0.17-0.379-0.379l0,0
		c0-0.209,0.17-0.377,0.379-0.377h7.863C18.142,19.109,18.312,19.277,18.312,19.486L18.312,19.486z"/>
	<path fill="#BCBCBC" d="M18.312,18.055c0,0.209-0.17,0.379-0.38,0.379h-7.863c-0.209,0-0.379-0.17-0.379-0.379l0,0
		c0-0.209,0.17-0.379,0.379-0.379h7.863C18.142,17.676,18.312,17.846,18.312,18.055L18.312,18.055z"/>
	<path fill="#BCBCBC" d="M18.312,16.623c0,0.209-0.17,0.377-0.38,0.377h-7.863c-0.209,0-0.379-0.168-0.379-0.377l0,0
		c0-0.209,0.17-0.379,0.379-0.379h7.863C18.142,16.244,18.312,16.414,18.312,16.623L18.312,16.623z"/>
	<text transform="matrix(1 0 0 1 28.0005 17.6006)" fill="#010101" font-family="'NanumGothic'" font-size="12">Save As</text>
</g>
</svg>
