<svg id="Layer_1" data-name="Layer 1" xmlns="http://www.w3.org/2000/svg" viewBox="0 0 100 28"><defs><style>.cls-1{fill:#fff;opacity:0;}.cls-2{fill:#939393;}.cls-3{fill:#d1d1d1;}.cls-4{fill:#f1f1f1;}.cls-5{fill:#939598;}.cls-6{fill:#bcbcbc;}</style></defs><title>menuSaveAs</title><rect class="cls-1" width="100" height="28"/><polygon class="cls-2" points="18.19 7 7 7 7 21 21 21 21 9.81 18.19 7"/><path class="cls-3" d="M10.47,7v3.15a0.31,0.31,0,0,0,.31.31h6.44a0.31,0.31,0,0,0,.31-0.31V7H10.47Z"/><rect class="cls-4" x="8.82" y="15.11" width="10.35" height="5.89"/><rect class="cls-5" x="15.64" y="7.62" width="0.95" height="2.21"/><path class="cls-6" d="M18.31,19.49a0.38,0.38,0,0,1-.38.38H10.07a0.38,0.38,0,0,1-.38-0.38h0a0.38,0.38,0,0,1,.38-0.38h7.86a0.38,0.38,0,0,1,.38.38h0Z"/><path class="cls-6" d="M18.31,18.06a0.38,0.38,0,0,1-.38.38H10.07a0.38,0.38,0,0,1-.38-0.38h0a0.38,0.38,0,0,1,.38-0.38h7.86a0.38,0.38,0,0,1,.38.38h0Z"/><path class="cls-6" d="M18.31,16.62a0.38,0.38,0,0,1-.38.38H10.07a0.38,0.38,0,0,1-.38-0.38h0a0.38,0.38,0,0,1,.38-0.38h7.86a0.38,0.38,0,0,1,.38.38h0Z"/></svg>