<?xml version="1.0" encoding="utf-8"?>
<!-- Generator: Adobe Illustrator 16.0.0, SVG Export Plug-In . SVG Version: 6.00 Build 0)  -->
<!DOCTYPE svg PUBLIC "-//W3C//DTD SVG 1.1//EN" "http://www.w3.org/Graphics/SVG/1.1/DTD/svg11.dtd">
<svg version="1.1" id="Layer_1" xmlns="http://www.w3.org/2000/svg" xmlns:xlink="http://www.w3.org/1999/xlink" x="0px" y="0px"
	 width="100px" height="28px" viewBox="0 0 100 28" enable-background="new 0 0 100 28" xml:space="preserve">
<g>
	<polygon fill="#E6E6E6" points="16.769,7 8.4,7 8.4,21 19.6,21 19.6,9.833 	"/>
	<polygon fill="#939393" points="16.769,7 16.769,9.833 19.6,9.833 19.6,9.833 	"/>
	<path fill="#26CAD3" d="M18.288,16.295h-1.465v-1.464c0-0.34-0.275-0.615-0.615-0.615c-0.341,0-0.616,0.275-0.616,0.615v1.464
		h-1.466c-0.341,0-0.616,0.277-0.616,0.617s0.275,0.615,0.616,0.615h1.466v1.465c0,0.34,0.275,0.615,0.616,0.615
		c0.34,0,0.615-0.275,0.615-0.615v-1.465h1.465c0.34,0,0.616-0.275,0.616-0.615S18.628,16.295,18.288,16.295z"/>
	<text transform="matrix(1 0 0 1 28.0703 17.6006)" fill="#010101" font-family="'NanumGothic'" font-size="12">New</text>
</g>
<g>
	<polygon fill="#939393" points="18.191,7 7,7 7,21 20.999,21 20.999,9.809 	"/>
	<path fill="#D1D1D1" d="M10.473,7v3.154c0,0.168,0.138,0.307,0.308,0.307h6.44c0.17,0,0.307-0.139,0.307-0.307V7H10.473z"/>
	<rect x="8.825" y="15.109" fill="#F1F1F1" width="10.351" height="5.891"/>
	<rect x="15.635" y="7.624" fill="#939598" width="0.955" height="2.215"/>
	<text transform="matrix(1 0 0 1 28 17.6016)" fill="#010101" font-family="'NanumGothic'" font-size="12">Save</text>
</g>
<g>
	<polygon fill="#939393" points="18.191,7 7,7 7,21 20.999,21 20.999,9.809 	"/>
	<path fill="#D1D1D1" d="M10.473,7v3.154c0,0.168,0.138,0.307,0.308,0.307h6.44c0.168,0,0.307-0.139,0.307-0.307V7H10.473z"/>
	<rect x="8.824" y="15.109" fill="#F1F1F1" width="10.352" height="5.891"/>
	<rect x="15.635" y="7.624" fill="#939598" width="0.955" height="2.215"/>
	<path fill="#BCBCBC" d="M18.312,19.486c0,0.209-0.17,0.379-0.38,0.379h-7.863c-0.209,0-0.379-0.17-0.379-0.379l0,0
		c0-0.209,0.17-0.377,0.379-0.377h7.863C18.142,19.109,18.312,19.277,18.312,19.486L18.312,19.486z"/>
	<path fill="#BCBCBC" d="M18.312,18.055c0,0.209-0.17,0.379-0.38,0.379h-7.863c-0.209,0-0.379-0.17-0.379-0.379l0,0
		c0-0.209,0.17-0.379,0.379-0.379h7.863C18.142,17.676,18.312,17.846,18.312,18.055L18.312,18.055z"/>
	<path fill="#BCBCBC" d="M18.312,16.623c0,0.209-0.17,0.377-0.38,0.377h-7.863c-0.209,0-0.379-0.168-0.379-0.377l0,0
		c0-0.209,0.17-0.379,0.379-0.379h7.863C18.142,16.244,18.312,16.414,18.312,16.623L18.312,16.623z"/>
	<text transform="matrix(1 0 0 1 28.0005 17.6006)" fill="#010101" font-family="'NanumGothic'" font-size="12">Save As</text>
</g>
<rect fill="#26CAD3" width="100" height="28"/>
<g>
	<polygon fill="#E6E6E6" points="16.769,7 8.4,7 8.4,21 19.6,21 19.6,9.833 	"/>
	<polygon fill="#939393" points="16.769,7 16.769,9.833 19.6,9.833 19.6,9.833 	"/>
	<path fill="#26CAD3" d="M18.612,16.365l-1.97-1.97l-0.003-0.002c-0.028-0.027-0.058-0.053-0.091-0.074
		c-0.016-0.012-0.033-0.02-0.051-0.027c-0.019-0.01-0.036-0.021-0.055-0.029c-0.021-0.01-0.044-0.014-0.065-0.021
		c-0.017-0.005-0.033-0.011-0.05-0.015c-0.04-0.008-0.08-0.012-0.12-0.012c-0.041,0-0.082,0.004-0.122,0.012
		c-0.015,0.003-0.029,0.009-0.044,0.014c-0.023,0.006-0.048,0.012-0.07,0.021c-0.018,0.008-0.034,0.018-0.051,0.027
		c-0.02,0.009-0.038,0.018-0.056,0.029c-0.032,0.021-0.06,0.045-0.087,0.07c-0.001,0.002-0.005,0.004-0.007,0.006l-1.971,1.97
		c-0.24,0.24-0.24,0.631,0,0.871c0.241,0.24,0.631,0.24,0.871,0l0.919-0.918v2.674c0,0.34,0.276,0.617,0.617,0.617
		c0.339,0,0.615-0.277,0.615-0.617v-2.674l0.918,0.918c0.24,0.24,0.631,0.24,0.871,0C18.854,16.996,18.854,16.605,18.612,16.365z"/>
	<text transform="matrix(1 0 0 1 28.0469 17.6006)" fill="#010101" font-family="'NanumGothic'" font-size="12">Open</text>
</g>
</svg>
