<svg id="Layer_1" data-name="Layer 1" xmlns="http://www.w3.org/2000/svg" viewBox="0 0 120 28"><defs><style>.cls-1{fill:#fff;opacity:0;}.cls-2{fill:#d1d1d1;}.cls-3{fill:#939393;}.cls-4{fill:#26cad3;}</style></defs><title>manuQ&amp;amp;a</title><rect class="cls-1" width="120" height="28"/><path class="cls-2" d="M16.48,8.67H8.28A1.35,1.35,0,0,0,6.93,10V19L8.74,17.3h7.74a1.35,1.35,0,0,0,1.35-1.35V10A1.35,1.35,0,0,0,16.48,8.67Z"/><path class="cls-3" d="M13.52,10.5h7.33a1.21,1.21,0,0,1,1.21,1.2v8L20.44,18.2H13.52A1.21,1.21,0,0,1,12.31,17V11.7A1.21,1.21,0,0,1,13.52,10.5Z"/><path class="cls-4" d="M17.68,16.36a0.48,0.48,0,1,1-.48-0.48A0.47,0.47,0,0,1,17.68,16.36Z"/><path class="cls-4" d="M16.75,15.48a2,2,0,0,1,.11-0.77,1.56,1.56,0,0,1,.56-0.59,1.09,1.09,0,0,0,.29-0.31,0.74,0.74,0,0,0,.11-0.41,0.59,0.59,0,0,0-.64-0.67,0.64,0.64,0,0,0-.58.27,0.91,0.91,0,0,0-.13.51H15.55a1.47,1.47,0,0,1,.51-1.22,1.65,1.65,0,0,1,1.07-.34,2.08,2.08,0,0,1,1,.22,1.26,1.26,0,0,1,.7,1.22,1.28,1.28,0,0,1-.21.72,2.48,2.48,0,0,1-.58.56,1,1,0,0,0-.31.3,1.12,1.12,0,0,0-.09.52H16.75Z"/></svg>