<?xml version="1.0" encoding="utf-8"?>
<!-- Generator: Adobe Illustrator 16.0.0, SVG Export Plug-In . SVG Version: 6.00 Build 0)  -->
<!DOCTYPE svg PUBLIC "-//W3C//DTD SVG 1.1//EN" "http://www.w3.org/Graphics/SVG/1.1/DTD/svg11.dtd">
<svg version="1.1" id="Layer_1" xmlns="http://www.w3.org/2000/svg" xmlns:xlink="http://www.w3.org/1999/xlink" x="0px" y="0px"
	 width="100px" height="28px" viewBox="0 0 100 28" enable-background="new 0 0 100 28" xml:space="preserve">
<rect y="0" fill="#26CAD3" width="100" height="28"/>
<text transform="matrix(1 0 0 1 28.5625 17.4941)" font-family="'NanumGothic'" font-size="12">Auto Action</text>
<path fill="#FFFFFF" d="M13.738,7.261C10.017,7.261,7,10.278,7,14c0,3.721,3.017,6.738,6.738,6.738c0.338,0,0.669-0.025,0.994-0.073
	v-0.853v-0.201v-3.482c0.868-0.383,1.476-1.25,1.476-2.26c0-1.031-0.632-1.914-1.529-2.284v2.026c0,0.519-0.422,0.939-0.94,0.939
	s-0.939-0.42-0.939-0.939v-2.026c-0.898,0.37-1.53,1.253-1.53,2.284c0,1.01,0.607,1.877,1.477,2.26v3.482
	C10.071,19.141,8.039,16.809,8.039,14c0-3.148,2.552-5.699,5.699-5.699c1.968,0,3.7,0.997,4.724,2.514l-1.32,0.971l0.801,0.493
	l2.53,1.553C20.384,10.188,17.403,7.261,13.738,7.261z"/>
</svg>
