<?xml version="1.0" encoding="utf-8"?>
<!-- Generator: Adobe Illustrator 16.0.0, SVG Export Plug-In . SVG Version: 6.00 Build 0)  -->
<!DOCTYPE svg PUBLIC "-//W3C//DTD SVG 1.1//EN" "http://www.w3.org/Graphics/SVG/1.1/DTD/svg11.dtd">
<svg version="1.1" id="Layer_1" xmlns="http://www.w3.org/2000/svg" xmlns:xlink="http://www.w3.org/1999/xlink" x="0px" y="0px"
	 width="120px" height="28px" viewBox="0 0 120 28" enable-background="new 0 0 120 28" xml:space="preserve">
<rect fill="#26CAD3" width="120" height="28"/>
<path fill="#939393" d="M20.702,13.668c0.44,0,0.879,0,1.318,0c-0.178-4.028-3.495-7.202-7.527-7.202
	c-4.031,0-7.349,3.174-7.526,7.202c1.13-0.711,2.259-1.422,3.389-2.133c-0.372-0.284-0.746-0.569-1.12-0.854
	c1.446-2.289,4.206-3.379,6.826-2.697C18.681,8.666,20.558,10.965,20.702,13.668z"/>
<path fill="#939393" d="M8.284,14.333c-0.438,0-0.877,0-1.317,0c0.178,4.027,3.495,7.201,7.526,7.201
	c4.032,0,7.35-3.174,7.527-7.201c-1.129,0.712-2.259,1.423-3.389,2.134c0.373,0.284,0.746,0.569,1.12,0.853
	c-1.446,2.289-4.206,3.381-6.826,2.699C10.308,19.335,8.43,17.036,8.284,14.333z"/>
<polygon fill="#FFFFFF" points="11.297,13.927 13.331,16.673 18.588,11.337 13.373,15.319 "/>
<text transform="matrix(1 0 0 1 28.4268 17.5996)" fill="#010101" font-family="'NanumGothic'" font-size="12">Update Check</text>
</svg>
