<svg id="Layer_1" data-name="Layer 1" xmlns="http://www.w3.org/2000/svg" viewBox="0 0 120 28"><defs><style>.cls-1,.cls-3{fill:#fff;}.cls-1{opacity:0;}.cls-2{fill:#bcbcbc;}.cls-4{fill:#26cad3;}</style></defs><title>manuTutoreal</title><rect class="cls-1" width="120" height="28"/><path class="cls-2" d="M20.07,6.93H8.78A1.86,1.86,0,0,0,6.93,8.78V21.07l2.49-2.29H20.07a1.86,1.86,0,0,0,1.86-1.86V8.78A1.85,1.85,0,0,0,20.07,6.93Z"/><circle class="cls-3" cx="16.64" cy="12.04" r="2.07"/><path class="cls-3" d="M19.62,18.78V16.24A2.82,2.82,0,0,0,18.47,14a2.53,2.53,0,0,1-3.68,0,2.82,2.82,0,0,0-1.15,2.28v2.55h6Z"/><path class="cls-4" d="M13.39,9.65a0.31,0.31,0,0,1-.31.31H8.51A0.31,0.31,0,0,1,8.2,9.65h0a0.31,0.31,0,0,1,.31-0.31h4.57a0.31,0.31,0,0,1,.31.31h0Z"/><path class="cls-4" d="M13.39,10.87a0.31,0.31,0,0,1-.31.31H8.51a0.31,0.31,0,0,1-.31-0.31h0a0.31,0.31,0,0,1,.31-0.31h4.57a0.31,0.31,0,0,1,.31.31h0Z"/><path class="cls-4" d="M10.45,12.08a0.31,0.31,0,0,1-.31.31H8.51a0.31,0.31,0,0,1-.31-0.31h0a0.31,0.31,0,0,1,.31-0.31h1.63a0.31,0.31,0,0,1,.31.31h0Z"/></svg>