<?xml version="1.0" encoding="utf-8"?>
<!-- Generator: Adobe Illustrator 16.0.0, SVG Export Plug-In . SVG Version: 6.00 Build 0)  -->
<!DOCTYPE svg PUBLIC "-//W3C//DTD SVG 1.1//EN" "http://www.w3.org/Graphics/SVG/1.1/DTD/svg11.dtd">
<svg version="1.1" id="Layer_1" xmlns="http://www.w3.org/2000/svg" xmlns:xlink="http://www.w3.org/1999/xlink" x="0px" y="0px"
	 width="30px" height="28px" viewBox="0 0 30 28" enable-background="new 0 0 30 28" xml:space="preserve">
<rect opacity="0" fill="#FFFFFF" width="30" height="28"/>
<g>
	<path fill="#939393" d="M17.424,20.824l-1.512-1.514l1.512-1.515c0.25-0.25,0.25-0.657,0-0.912c-0.252-0.252-0.66-0.252-0.91,0
		L15,18.4l-1.512-1.517c-0.252-0.252-0.662-0.252-0.912,0c-0.25,0.255-0.25,0.662,0,0.912l1.512,1.515l-1.512,1.514
		c-0.25,0.252-0.25,0.658,0,0.91s0.66,0.252,0.912,0L15,20.223l1.514,1.512c0.25,0.252,0.658,0.252,0.91,0
		C17.674,21.484,17.674,21.076,17.424,20.824z"/>
	<path fill="#939393" d="M10.99,16.24c-0.668-0.67-1.336-1.338-2.002-2.005c3.318-3.321,8.704-3.321,12.022,0
		c-0.666,0.667-1.334,1.335-2.004,2.005C16.793,14.024,13.203,14.024,10.99,16.24z"/>
	<path fill="#939393" d="M25.02,10.227c-0.67,0.668-1.334,1.336-2.006,2.004c-4.424-4.426-11.604-4.426-16.03,0
		c-0.668-0.668-1.336-1.336-2.004-2.004C10.515,4.693,19.488,4.693,25.02,10.227z"/>
</g>
</svg>
