<svg id="레이어_1" data-name="레이어 1" xmlns="http://www.w3.org/2000/svg" width="30" height="30" viewBox="0 0 30 30">
  <defs>
    <style>
      .cls-1 {
        fill: #fff;
        opacity: 0;
      }

      .cls-2 {
        fill: none;
        stroke: #949394;
        stroke-miterlimit: 10;
        stroke-width: 2px;
      }

      .cls-3 {
        fill: #949394;
      }
    </style>
  </defs>
  <title>pause</title>
  <rect class="cls-1" width="30" height="30"/>
  <g>
    <rect class="cls-2" x="2.9" y="4.13" width="22.81" height="3.8" transform="translate(-1.03 3.64) rotate(-14)"/>
    <line class="cls-2" x1="24.45" y1="1.54" x2="21.74" y2="6.13"/>
    <line class="cls-2" x1="20.32" y1="2.61" x2="17.61" y2="7.2"/>
    <line class="cls-2" x1="16.19" y1="3.68" x2="13.48" y2="8.27"/>
    <line class="cls-2" x1="12.06" y1="4.75" x2="9.34" y2="9.34"/>
    <line class="cls-2" x1="7.93" y1="5.81" x2="5.21" y2="10.41"/>
    <line class="cls-2" x1="3.8" y1="6.88" x2="2.92" y2="8.37"/>
  </g>
  <path class="cls-2" d="M3.7,10.78v12a1.52,1.52,0,0,0,1.52,1.52H25a1.52,1.52,0,0,0,1.52-1.52v-12H3.7Z"/>
  <g>
    <rect class="cls-3" x="12.23" y="14.24" width="2.02" height="6.66"/>
    <rect class="cls-3" x="15.75" y="14.24" width="2.02" height="6.66"/>
  </g>
</svg>
