<svg id="레이어_1" data-name="레이어 1" xmlns="http://www.w3.org/2000/svg" width="30" height="30" viewBox="0 0 30 30">
  <defs>
    <style>
      .cls-1 {
        fill: #fff;
        opacity: 0;
      }

      .cls-2 {
        fill: none;
        stroke: #26cad3;
        stroke-miterlimit: 10;
        stroke-width: 2px;
      }

      .cls-3 {
        fill: #26cad3;
      }
    </style>
  </defs>
  <title>pauseOn</title>
  <g>
    <rect class="cls-1" width="30" height="30"/>
    <g>
      <rect class="cls-2" x="2.97" y="4.13" width="22.81" height="3.8" transform="translate(-1.06 3.66) rotate(-14)"/>
      <line class="cls-2" x1="24.5" y1="1.54" x2="21.78" y2="6.13"/>
      <line class="cls-2" x1="20.37" y1="2.61" x2="17.65" y2="7.2"/>
      <line class="cls-2" x1="16.24" y1="3.68" x2="13.52" y2="8.27"/>
      <line class="cls-2" x1="12.11" y1="4.75" x2="9.39" y2="9.34"/>
      <line class="cls-2" x1="7.98" y1="5.81" x2="5.26" y2="10.41"/>
      <line class="cls-2" x1="3.85" y1="6.88" x2="2.97" y2="8.37"/>
    </g>
    <path class="cls-2" d="M3.72,10.78v12a1.52,1.52,0,0,0,1.52,1.52H25a1.52,1.52,0,0,0,1.52-1.52v-12H3.72Z" transform="translate(-0.03)"/>
    <g>
      <rect class="cls-3" x="12.23" y="14.24" width="2.02" height="6.66"/>
      <rect class="cls-3" x="15.75" y="14.24" width="2.02" height="6.66"/>
    </g>
  </g>
</svg>
