<svg id="레이어_1" data-name="레이어 1" xmlns="http://www.w3.org/2000/svg" width="30" height="30" viewBox="0 0 30 30">
  <defs>
    <style>
      .cls-1 {
        fill: #fff;
        opacity: 0;
      }

      .cls-2 {
        fill: none;
        stroke: #26cad3;
        stroke-miterlimit: 10;
        stroke-width: 2px;
      }

      .cls-3 {
        fill: #26cad3;
      }
    </style>
  </defs>
  <title>playOn</title>
  <rect class="cls-1" width="30" height="30"/>
  <g>
    <rect class="cls-2" x="3.7" y="6.83" width="22.81" height="3.8"/>
    <line class="cls-2" x1="26.04" y1="6.83" x2="22.29" y2="10.63"/>
    <line class="cls-2" x1="21.77" y1="6.87" x2="18.02" y2="10.67"/>
    <line class="cls-2" x1="17.5" y1="6.91" x2="13.76" y2="10.71"/>
    <line class="cls-2" x1="13.24" y1="6.94" x2="9.49" y2="10.75"/>
    <line class="cls-2" x1="8.97" y1="6.98" x2="5.22" y2="10.78"/>
    <line class="cls-2" x1="4.7" y1="7.02" x2="3.49" y2="8.25"/>
  </g>
  <polygon class="cls-3" points="13.08 17.54 13.08 13.19 15.89 15.36 18.69 17.54 15.89 19.71 13.08 21.89 13.08 17.54"/>
  <path class="cls-2" d="M3.72,10.78v12a1.52,1.52,0,0,0,1.52,1.52H25a1.52,1.52,0,0,0,1.52-1.52v-12H3.72Z" transform="translate(-0.03)"/>
</svg>
