<svg id="레이어_1" data-name="레이어 1" xmlns="http://www.w3.org/2000/svg" width="30" height="30" viewBox="0 0 30 30"><defs><style>.cls-1{fill:#939393;}.cls-2{fill:#fff;opacity:0;}</style></defs><title>q</title><circle class="cls-1" cx="15.09" cy="23.08" r="1.95"/><path class="cls-1" d="M17.53,17.46A8,8,0,0,1,18,14.33a6.31,6.31,0,0,1,2.3-2.4,4.55,4.55,0,0,0,1.21-1.29A3.1,3.1,0,0,0,22,9a2.72,2.72,0,0,0-.89-2.22,2.78,2.78,0,0,0-1.72-.53A2.66,2.66,0,0,0,17,7.3a3.73,3.73,0,0,0-.53,2.08v0H12.66a6.05,6.05,0,0,1,2.1-5A6.78,6.78,0,0,1,19.13,3a8.61,8.61,0,0,1,4,.89,5.14,5.14,0,0,1,2.86,5,5.15,5.15,0,0,1-.86,3,10,10,0,0,1-2.38,2.3,3.84,3.84,0,0,0-1.26,1.24,4.64,4.64,0,0,0-.38,2.12H17.53Z" transform="translate(-4.32 2)"/><rect class="cls-2" width="30" height="30"/></svg>