<svg id="레이어_1" data-name="레이어 1" xmlns="http://www.w3.org/2000/svg" width="30" height="30" viewBox="0 0 30 30"><defs><style>.cls-1{fill:#fff;opacity:0;}.cls-2{fill:#939393;}</style></defs><title>reset</title><rect class="cls-1" width="30" height="30"/><path class="cls-2" d="M30.53,3H8.87A1.67,1.67,0,0,0,7.2,4.68V21.35A1.67,1.67,0,0,0,8.87,23H30.53a1.67,1.67,0,0,0,1.67-1.67V4.68A1.67,1.67,0,0,0,30.53,3ZM29.89,20a0.72,0.72,0,0,1-.72.72h-19A0.72,0.72,0,0,1,9.51,20V6a0.72,0.72,0,0,1,.72-0.72h19a0.72,0.72,0,0,1,.72.72V20Z" transform="translate(-4.7 1.98)"/><path class="cls-2" d="M27.29,11H12.12a0.37,0.37,0,0,0-.37.37v3.76a1.31,1.31,0,0,0,1.31,1.31H26.35a1.31,1.31,0,0,0,1.31-1.31V11.39A0.37,0.37,0,0,0,27.29,11ZM15.15,14.76a0.95,0.95,0,1,1-1.89,0v-2a0.95,0.95,0,1,1,1.89,0v2Zm11,0a0.95,0.95,0,1,1-1.89,0v-2a0.95,0.95,0,1,1,1.89,0v2Z" transform="translate(-4.7 1.98)"/></svg>