<svg id="레이어_1" data-name="레이어 1" xmlns="http://www.w3.org/2000/svg" width="30" height="30" viewBox="0 0 30 30"><defs><style>.cls-1{fill:#939393;}.cls-2{fill:#fff;opacity:0;}</style></defs><title>setting</title><circle class="cls-1" cx="15" cy="15" r="2.03"/><path class="cls-1" d="M30,12.2a0.55,0.55,0,0,0-.44-0.51L27.28,11l0-.09,0-.13-0.07-.21,0-.14L27,10.28,27,10.12,26.89,10l-0.08-.18-0.07-.14-0.1-.19-0.07-.12,0-.08,1.12-2a0.56,0.56,0,0,0-.05-0.67l-0.39-.39-0.37-.37L26.47,5.4a0.56,0.56,0,0,0-.67-0.05l-2,1.12-0.08,0-0.12-.07-0.2-.1-0.14-.07L23,6.11,22.89,6,22.72,6,22.53,5.9l-0.14,0-0.21-.07L22,5.75,22,5.72,21.31,3.49A0.56,0.56,0,0,0,20.8,3H19.2a0.56,0.56,0,0,0-.51.44L18,5.72,18,5.75l-0.13,0-0.21.07-0.15,0L17.28,6,17.12,6,17,6.11l-0.18.08-0.14.07-0.2.1-0.12.07-0.08,0-2-1.12a0.56,0.56,0,0,0-.67.05l-0.39.39-0.37.38-0.36.36a0.56,0.56,0,0,0-.05.67l1.12,2,0,0.08-0.07.12-0.1.19-0.07.14L13.11,10,13,10.12,13,10.28l-0.07.19,0,0.14-0.07.21,0,0.13a0.53,0.53,0,0,1,0,.09l-2.24.65a0.55,0.55,0,0,0-.44.51v1.6a0.55,0.55,0,0,0,.44.51L12.72,15l0,0.09,0,0.13,0.07,0.21,0.05,0.15L13,15.72,13,15.89,13.1,16l0.08,0.19,0.07,0.13,0.1,0.2,0.06,0.12,0,0.08-1.12,2a0.55,0.55,0,0,0,.05.67l0.4,0.39,0.37,0.38,0.36,0.36a0.55,0.55,0,0,0,.67.05l2-1.12,0.08,0,0.12,0.07,0.19,0.1,0.14,0.07L17,19.89,17.12,20,17.28,20l0.19,0.07,0.14,0,0.21,0.07,0.13,0,0.09,0,0.65,2.24a0.55,0.55,0,0,0,.51.44h1.6a0.55,0.55,0,0,0,.51-0.44L22,20.28l0.08,0,0.14,0,0.06,0,0.14,0,0.16-.05L22.71,20,22.89,20,23,19.9l0.2-.09,0.12-.06,0.21-.11,0.1-.06,0.09-.05,2,1.12a0.56,0.56,0,0,0,.67-0.05l0.39-.39,0.37-.37,0.36-.36a0.56,0.56,0,0,0,.05-0.67l-1.12-2,0-.08,0-.08,0,0,0.11-.2,0-.09,0,0L26.89,16,27,15.89,27,15.72l0.07-.18,0.05-.15,0.07-.21,0-.13,0-.09,2.24-.65A0.55,0.55,0,0,0,30,13.8V12.2h0Zm-5.47.8h0c0,0.07,0,.14,0,0.22v0.11s0,0.07,0,.1l0,0.14v0.06h0s0,0.1,0,.15a0.37,0.37,0,0,1,0,.06l0,0.15,0,0.06,0,0.14,0,0.07,0,0.13,0,0.08,0,0.12,0,0.09,0,0.1,0,0.1L24,15v0l-0.06.11,0,0.07-0.07.12,0,0.07-0.08.12,0,0.06-0.08.11-0.05.07-0.08.1-0.08.09L23.32,16l-0.15.16h0L23,16.32l-0.08.07-0.08.07-0.11.08-0.05,0h0l-0.12.09-0.06,0-0.12.08-0.06,0-0.13.07-0.06,0L22,17l-0.07,0-0.12.05-0.09,0-0.1,0-0.11,0-0.09,0-0.12,0-0.08,0-0.13,0-0.08,0-0.14,0H20.79l-0.13,0H20.56l-0.12,0H19.56l-0.13,0H19.34l-0.14,0H19.13l-0.14,0-0.07,0-0.14,0-0.08,0-0.12,0-0.09,0-0.11,0-0.1,0-0.1,0-0.11,0L18,17l-0.12-.06-0.07,0-0.12-.07-0.06,0-0.12-.08-0.06,0-0.12-.09-0.06,0-0.11-.09-0.07-.07L17,16.32l-0.12-.11,0,0h0l0,0L16.68,16h0l-0.07-.09h0l0,0,0,0-0.09-.12,0-.05-0.09-.13,0,0-0.09-.13,0,0-0.08-.13,0-.06L16,15l0-.07L15.9,14.8l0-.08,0-.11,0-.1,0-.1,0-.12,0-.09,0-.13,0-.08,0-.13,0-.08,0-.13a0.77,0.77,0,0,1,0-.1,1.18,1.18,0,0,1,0-.12s0-.09,0-0.13V13.22c0-.07,0-0.15,0-0.22h0c0-.07,0-0.15,0-0.22V12.56s0-.09,0-0.13,0-.06,0-0.09l0-.14V12.13s0-.1,0-0.14V11.92l0-.14,0-.08,0-.12,0-.09,0-.11,0-.09,0-.1,0-.11L16,11l0.06-.11,0-.07,0.07-.12,0-.07,0.08-.12,0-.06,0.08-.11,0.05-.07,0.08-.1,0.08-.09L16.68,10c0.1-.11.2-0.21,0.31-0.31l0.08-.06,0.09-.08,0.1-.08,0.07-.05,0.12-.08,0.06,0,0.12-.08,0.06,0,0.12-.07,0.07,0L18,9l0.08,0,0.11,0,0.09,0,0.1,0,0.11,0,0.09,0,0.13,0,0.08,0,0.14,0H19l0.14,0H19.2l0.14,0h0.08l0.13,0h0.88l0.13,0h0.08l0.14,0h0.07l0.14,0h0.07l0.14,0,0.07,0,0.13,0,0.08,0,0.12,0,0.09,0,0.1,0,0.1,0L22,9l0.11,0.06,0.08,0L22.3,9.16l0.07,0,0.12,0.08,0.06,0L22.67,9.4l0.07,0.06,0.1,0.08,0.09,0.08L23,9.68l0.16,0.15h0L23.32,10l0.07,0.08,0.07,0.08,0.09,0.11,0,0.06,0.09,0.12,0,0.06,0.08,0.13v0l0,0,0.07,0.13,0,0.06L24,11l0,0.08,0.05,0.11,0,0.09,0,0.1,0,0.11a0.51,0.51,0,0,1,0,.09l0,0.12,0,0.08,0,0.13,0,0.08,0,0.14v0.08l0,0.14s0,0.06,0,.09l0,0.13s0,0.08,0,.12,0,0.07,0,.1,0,0.15,0,.22h0Z" transform="translate(-5 2)"/><rect class="cls-2" width="30" height="30"/></svg>