<svg id="레이어_1" data-name="레이어 1" xmlns="http://www.w3.org/2000/svg" width="44" height="44" viewBox="0 0 44 44"><defs><style>.cls-1{fill:#fff;opacity:0;}.cls-2{fill:#939393;}</style></defs><title>cui</title><rect class="cls-1" width="44" height="44"/><path class="cls-2" d="M32.83,12H11.13A1.67,1.67,0,0,0,9.5,13.66V30.33A1.67,1.67,0,0,0,11.17,32H32.8a1.67,1.67,0,0,0,1.7-1.64V13.66A1.67,1.67,0,0,0,32.83,12ZM32.41,29.68a0.43,0.43,0,0,1-.43.43H12a0.43,0.43,0,0,1-.43-0.43V14.32A0.43,0.43,0,0,1,12,13.89H32a0.43,0.43,0,0,1,.43.43V29.68Z" transform="translate(0 0)"/><path class="cls-2" d="M16,12H11.17A1.67,1.67,0,0,0,9.5,13.67V30.33A1.67,1.67,0,0,0,11.17,32H16V12Z" transform="translate(0 0)"/><rect class="cls-2" x="18.69" y="16.13" width="10.14" height="2.2" rx="1.1" ry="1.1"/><rect class="cls-2" x="18.69" y="19.77" width="6.47" height="2.2" rx="1.1" ry="1.1"/></svg>