<svg id="레이어_1" data-name="레이어 1" xmlns="http://www.w3.org/2000/svg" width="134" height="44" viewBox="0 0 134 44"><defs><style>.cls-1{fill:#fff;opacity:0;}.cls-2{fill:#26cad3;}.cls-3{fill:#333e48;}</style></defs><title>logo</title><rect class="cls-1" width="134" height="44"/><path class="cls-2" d="M16,11H1.79A1.15,1.15,0,0,0,.64,12.15h0v19.7A1.15,1.15,0,0,0,1.79,33h19.7a1.15,1.15,0,0,0,1.15-1.15h0V12.15A1.15,1.15,0,0,0,21.49,11H16Z" transform="translate(-0.64 0)"/><path class="cls-3" d="M7.24,33H16V25.58a0.57,0.57,0,0,0-1-.4l-2.6,2.6a1.15,1.15,0,0,1-1.62,0h0l-2.62-2.6a0.57,0.57,0,0,0-1,.4V33Z" transform="translate(-0.64 0)"/><path class="cls-3" d="M44.21,29.84a0.26,0.26,0,0,1-.2,0,0.27,0.27,0,0,1,0-.17V18.93L39.71,29.58a0.2,0.2,0,0,1-.09.12,0.9,0.9,0,0,1-.25,0H37.8a0.9,0.9,0,0,1-.25,0,0.2,0.2,0,0,1-.09-0.12L33.2,18.93V29.62a0.27,0.27,0,0,1,0,.17,0.26,0.26,0,0,1-.2,0H31.13a0.2,0.2,0,0,1-.24-0.22V15.42A0.62,0.62,0,0,1,31,15.08,0.59,0.59,0,0,1,31.33,15h2.34a0.2,0.2,0,0,1,.17,0l0.09,0.19,4.66,11.58,4.66-11.58,0.09-.19a0.19,0.19,0,0,1,.17,0h2.34a0.59,0.59,0,0,1,.37.07,0.62,0.62,0,0,1,.06.34v14.2a0.2,0.2,0,0,1-.24.22H44.21Z" transform="translate(-0.64 0)"/><path class="cls-3" d="M59.93,28a5.45,5.45,0,0,1-2.13,1.66,7,7,0,0,1-2.8.54,6.64,6.64,0,0,1-3-.62,5.65,5.65,0,0,1-2-1.68,7.25,7.25,0,0,1-1.18-2.47,11.28,11.28,0,0,1-.38-3,10.84,10.84,0,0,1,.39-2.94A7.27,7.27,0,0,1,50,17a5.86,5.86,0,0,1,2-1.69,6.45,6.45,0,0,1,3-.63,6.27,6.27,0,0,1,2.91.64A6.05,6.05,0,0,1,60,17a7.33,7.33,0,0,1,1.22,2.46,10.06,10.06,0,0,1,.38,2.93,11.94,11.94,0,0,1-.41,3.12A6.89,6.89,0,0,1,59.93,28ZM55,16.8a3.67,3.67,0,0,0-2,.5,4.22,4.22,0,0,0-1.34,1.3,5.75,5.75,0,0,0-.77,1.81,8.4,8.4,0,0,0,0,4,5.88,5.88,0,0,0,.77,1.82A4.17,4.17,0,0,0,53,27.57a4.07,4.07,0,0,0,3.91,0,4.09,4.09,0,0,0,1.33-1.31A6,6,0,0,0,59,24.44a8.54,8.54,0,0,0,.25-2,8.67,8.67,0,0,0-.24-2,5.72,5.72,0,0,0-.76-1.81A4.28,4.28,0,0,0,57,17.31,3.62,3.62,0,0,0,55,16.8Z" transform="translate(-0.64 0)"/><path class="cls-3" d="M72.19,28.15a5.77,5.77,0,0,1-1.2.75,8.6,8.6,0,0,1-1.44.52,12.24,12.24,0,0,1-1.59.32,12.67,12.67,0,0,1-1.63.11h-2.4a0.62,0.62,0,0,1-.4-0.08,0.64,0.64,0,0,1-.07-0.37V15.52a0.8,0.8,0,0,1,.07-0.44A0.8,0.8,0,0,1,64,15h3.34q3.84,0,5.7,2.16a6.17,6.17,0,0,1,1.23,2.19,9.92,9.92,0,0,1,.4,3A8.38,8.38,0,0,1,74,25.71,6.17,6.17,0,0,1,72.19,28.15Zm-0.87-9.5a4.92,4.92,0,0,0-4.05-1.55H65.73V27.73h0.89a7.8,7.8,0,0,0,2.14-.29,4.83,4.83,0,0,0,1.77-.91,4.43,4.43,0,0,0,1.37-1.72,6,6,0,0,0,.48-2.51,7.81,7.81,0,0,0-.26-2.09A4.09,4.09,0,0,0,71.32,18.65Z" transform="translate(-0.64 0)"/><path class="cls-3" d="M78.46,29.84H76.67a0.23,0.23,0,0,1-.26-0.26V15.26A0.23,0.23,0,0,1,76.67,15h1.79a0.23,0.23,0,0,1,.26.25V29.58A0.23,0.23,0,0,1,78.46,29.84Z" transform="translate(-0.64 0)"/><path class="cls-3" d="M90.75,29.43a4.44,4.44,0,0,1-2.52.71c-0.26,0-.54,0-0.83,0L86.57,30q-0.4-.06-0.72-0.14a3.13,3.13,0,0,1-.49-0.16l-0.17-.11a0.23,0.23,0,0,1-.07-0.23l0.12-1.28a0.48,0.48,0,0,1,.06-0.24,0.35,0.35,0,0,1,.26,0,8.23,8.23,0,0,0,1.35.29,10.13,10.13,0,0,0,1.25.09,1.73,1.73,0,0,0,1.29-.43,1.39,1.39,0,0,0,.42-1,1.15,1.15,0,0,0-.22-0.64,2.53,2.53,0,0,0-.73-0.66l-1.1-.64-1.12-.64a3.3,3.3,0,0,1-1.05-1,2.37,2.37,0,0,1-.42-1.37,3.2,3.2,0,0,1,.29-1.43,3,3,0,0,1,.79-1,3.16,3.16,0,0,1,1.13-.59,4.77,4.77,0,0,1,1.35-.19q0.37,0,.78,0t0.79,0.11A6.82,6.82,0,0,1,91,19a1.92,1.92,0,0,1,.46.19,0.21,0.21,0,0,1,.11.11,0.42,0.42,0,0,1,0,.15l-0.12,1.26a0.28,0.28,0,0,1-.1.25,0.64,0.64,0,0,1-.3,0,8.25,8.25,0,0,0-.85-0.26l-0.58-.08a6.09,6.09,0,0,0-.76,0,1.47,1.47,0,0,0-1.14.37,1.31,1.31,0,0,0-.33.9,1,1,0,0,0,.37.67,4.1,4.1,0,0,0,.94.65q0.61,0.29,1.13.61a8.92,8.92,0,0,1,.78.51,3.75,3.75,0,0,1,1.06,1.11,2.79,2.79,0,0,1,.35,1.45A3.07,3.07,0,0,1,90.75,29.43Z" transform="translate(-0.64 0)"/><path class="cls-3" d="M98.66,29.66a3.06,3.06,0,0,1-.88.32,5.41,5.41,0,0,1-1.29.15,2.16,2.16,0,0,1-2-1.14,3,3,0,0,1-.33-1.2q-0.06-.69-0.06-1.87V21H92.43a0.23,0.23,0,0,1-.24-0.24V19.2A0.23,0.23,0,0,1,92.43,19h1.63V16.21A0.22,0.22,0,0,1,94.14,16,0.26,0.26,0,0,1,94.31,16h1.59a0.25,0.25,0,0,1,.19.07,0.23,0.23,0,0,1,.07.17V19h1.89a0.24,0.24,0,0,1,.24.24v1.55a0.24,0.24,0,0,1-.24.24H96.16v5.07a14.11,14.11,0,0,0,.06,1.69,0.52,0.52,0,0,0,.37.43,1.83,1.83,0,0,0,.67,0l0.57-.11A3.2,3.2,0,0,0,98.39,28a0.15,0.15,0,0,1,.14,0,0.39,0.39,0,0,1,.08.19l0.16,1.3A0.25,0.25,0,0,1,98.66,29.66Z" transform="translate(-0.64 0)"/><path class="cls-3" d="M106.37,29.82a0.28,0.28,0,0,1-.17,0,0.13,0.13,0,0,1,0-.15V28.83a3.4,3.4,0,0,1-1.25,1,3.69,3.69,0,0,1-1.54.34A3.52,3.52,0,0,1,100.51,29a4.84,4.84,0,0,1-.94-3.21V19.22A0.3,0.3,0,0,1,99.64,19a0.2,0.2,0,0,1,.17-0.09h1.61a0.23,0.23,0,0,1,.18.1,0.32,0.32,0,0,1,.08.2v6.26a3.43,3.43,0,0,0,.48,2.09,1.71,1.71,0,0,0,1.43.61,2.23,2.23,0,0,0,1.76-.81A3.58,3.58,0,0,0,106,25V19.22a0.3,0.3,0,0,1,.07-0.19,0.2,0.2,0,0,1,.17-0.09h1.63a0.2,0.2,0,0,1,.17.11,0.39,0.39,0,0,1,.07.21v8q0,0.61,0,1.2t0,1.08a0.21,0.21,0,0,1-.22.26h-1.59Z" transform="translate(-0.64 0)"/><path class="cls-3" d="M117.39,29.88a0.27,0.27,0,0,1-.3-0.32V28.82a3,3,0,0,1-1.16.92,3.52,3.52,0,0,1-1.55.37,4.33,4.33,0,0,1-1.9-.4,3.9,3.9,0,0,1-1.42-1.16,5.37,5.37,0,0,1-.88-1.84,9,9,0,0,1-.31-2.44,8.44,8.44,0,0,1,.31-2.39,5.4,5.4,0,0,1,.9-1.82,4,4,0,0,1,1.42-1.16,4.19,4.19,0,0,1,1.88-.41,3.58,3.58,0,0,1,1.49.31,3.79,3.79,0,0,1,1.23.89V14.08a0.3,0.3,0,0,1,0-.21,0.26,0.26,0,0,1,.19,0h1.61a0.23,0.23,0,0,1,.26.26V29.56a0.29,0.29,0,0,1-.1.24,0.34,0.34,0,0,1-.22.08h-1.49Zm-2.79-9.36a2.1,2.1,0,0,0-1.87,1,5,5,0,0,0-.65,2.78,5.07,5.07,0,0,0,.67,2.88,2.13,2.13,0,0,0,1.85,1,1.93,1.93,0,0,0,1-.25,2.46,2.46,0,0,0,.8-0.75,3.88,3.88,0,0,0,.54-1.21,6.21,6.21,0,0,0,.2-1.64,4.93,4.93,0,0,0-.66-2.83A2.12,2.12,0,0,0,114.59,20.51Z" transform="translate(-0.64 0)"/><path class="cls-3" d="M122.19,16.89a1.31,1.31,0,0,1-1.34-1.33,1.34,1.34,0,0,1,.38-1,1.27,1.27,0,0,1,1-.4,1.31,1.31,0,0,1,1,.4,1.33,1.33,0,0,1,.39,1,1.27,1.27,0,0,1-.39.94A1.32,1.32,0,0,1,122.19,16.89Zm-0.85,13a0.23,0.23,0,0,1-.24-0.24V19.28a0.24,0.24,0,0,1,.24-0.24H123a0.24,0.24,0,0,1,.24.24V29.62a0.23,0.23,0,0,1-.24.24h-1.65Z" transform="translate(-0.64 0)"/><path class="cls-3" d="M133.42,28.32a4.72,4.72,0,0,1-1.69,1.35,5.62,5.62,0,0,1-4.45,0,4.58,4.58,0,0,1-1.61-1.24,5.33,5.33,0,0,1-1-1.83,7.78,7.78,0,0,1,0-4.45,5.23,5.23,0,0,1,1-1.82,4.67,4.67,0,0,1,1.6-1.23,5.71,5.71,0,0,1,4.46,0,4.65,4.65,0,0,1,1.61,1.23,5.22,5.22,0,0,1,1,1.82,7.43,7.43,0,0,1,.32,2.22,7.3,7.3,0,0,1-.31,2.17A5.4,5.4,0,0,1,133.42,28.32Zm-3.91-7.73a2.55,2.55,0,0,0-1.33.33,2.79,2.79,0,0,0-.91.88,4.1,4.1,0,0,0-.53,1.22,5.37,5.37,0,0,0,0,2.73,4.23,4.23,0,0,0,.53,1.23,2.74,2.74,0,0,0,.91.89,2.8,2.8,0,0,0,2.66,0,2.74,2.74,0,0,0,.92-0.89,4.23,4.23,0,0,0,.53-1.23,5.4,5.4,0,0,0,.18-1.37,5.33,5.33,0,0,0-.18-1.35,4.11,4.11,0,0,0-.53-1.22,2.89,2.89,0,0,0-.92-0.88A2.49,2.49,0,0,0,129.5,20.59Z" transform="translate(-0.64 0)"/></svg>