<svg id="레이어_1" data-name="레이어 1" xmlns="http://www.w3.org/2000/svg" viewBox="0 0 124.89 125"><defs><style>.cls-1{fill:#26cad3;}.cls-2{fill:#fff;}</style></defs><title>logo</title><circle class="cls-1" cx="50" cy="12.44" r="4.49"/><path class="cls-2" d="M96.07,18.44L82.35,10.51a4.13,4.13,0,0,0-4.12,0L68.66,16a4.14,4.14,0,0,1-6.22-3.59,12.44,12.44,0,1,0-6.22,10.78,4.15,4.15,0,0,1,6.22,3.59v6.28a4.12,4.12,0,0,1-6.18,3.57l-9.6-5.54a4.12,4.12,0,0,0-4.12,0L28.82,39a4.11,4.11,0,0,0-2.06,3.57V58.45A4.12,4.12,0,0,0,28.82,62l13.72,7.92a4.12,4.12,0,0,0,4.12,0L60.38,62a4.12,4.12,0,0,0,2.06-3.57V47.36a4.12,4.12,0,0,1,6.18-3.57l9.6,5.54a4.12,4.12,0,0,0,4.12,0l13.72-7.92a4.12,4.12,0,0,0,2.06-3.57V22A4.12,4.12,0,0,0,96.07,18.44Zm0,19.41a2.06,2.06,0,0,1-1,1.79L81.31,47.55a2.07,2.07,0,0,1-2.06,0L69.65,42a6.18,6.18,0,0,0-9.27,5.35V58.45a2.06,2.06,0,0,1-1,1.78L45.63,68.15a2.06,2.06,0,0,1-2.06,0L29.85,60.23a2.06,2.06,0,0,1-1-1.78V42.6a2.06,2.06,0,0,1,1-1.78L43.57,32.9a2.06,2.06,0,0,1,2.06,0l9.6,5.54a6.18,6.18,0,0,0,9.27-5.35V26.8a6.21,6.21,0,0,0-9.31-5.37,10.38,10.38,0,1,1,5.19-9,6.21,6.21,0,0,0,9.31,5.38l9.56-5.52a2.05,2.05,0,0,1,2.06,0L95,20.22a2.06,2.06,0,0,1,1,1.78V37.85Z" transform="translate(0 0)"/><path class="cls-2" d="M68.12,111.22A10.8,10.8,0,1,1,83.4,96,10.8,10.8,0,1,1,68.12,111.22Zm2.28-13A7.57,7.57,0,1,0,75.76,96,7.3,7.3,0,0,0,70.4,98.23Z" transform="translate(0 0)"/><path class="cls-2" d="M88.57,114.18V93h6.65a6.07,6.07,0,0,1,4.63,10,6,6,0,0,1,1.92,2.16,6.14,6.14,0,0,1-5.39,9H88.57Zm3.21-12.26h3.43a2.86,2.86,0,0,0,0-5.71H91.78v5.71Zm0,9h4.6a2.81,2.81,0,0,0,2.06-.86,2.85,2.85,0,0,0,.84-2.07,2.78,2.78,0,0,0-.84-2,2.81,2.81,0,0,0-2.06-.86h-4.6V111Z" transform="translate(0 0)"/><path class="cls-2" d="M106.45,111.22a10.79,10.79,0,1,1,7.64,3.17A10.41,10.41,0,0,1,106.45,111.22Zm2.28-13A7.57,7.57,0,1,0,114.08,96,7.3,7.3,0,0,0,108.73,98.23Z" transform="translate(0 0)"/><path class="cls-2" d="M9.22,111h-6V84a1.61,1.61,0,0,0-1.61-1.61H0v31.82H10.8v-1.61A1.61,1.61,0,0,0,9.22,111Z" transform="translate(0 0)"/><path class="cls-2" d="M26.88,93H25.27v13.85a4.35,4.35,0,0,1-4.32,4.32,4.32,4.32,0,0,1-4.31-4.32V94.6A1.61,1.61,0,0,0,15,93H13.41v13.85a7.53,7.53,0,0,0,7.53,7.53,7.56,7.56,0,0,0,7.55-7.53V94.6A1.61,1.61,0,0,0,26.88,93Z" transform="translate(0 0)"/><path class="cls-2" d="M46.93,93H43.2l-4.48,7.61-4-6.8h0A1.61,1.61,0,0,0,33.31,93H30.5l6.35,10.77-6.13,10.41h3.73l4.26-7.24,3.79,6.44h0a1.61,1.61,0,0,0,1.39.79H46.7l-6.13-10.41Z" transform="translate(0 0)"/><path class="cls-2" d="M59.14,104.77a6.07,6.07,0,0,0,2.68-2.22A6.14,6.14,0,0,0,56.75,93H48.93v21.18h3.21v-8.93h3.63l2.85,5.49,6.9,13.38h0A1.61,1.61,0,0,0,67,125H69.6l-7.54-14.6ZM56.75,102h-4.6V96.22h4.6a2.8,2.8,0,0,1,2.06.86,2.85,2.85,0,0,1,.84,2.07A2.91,2.91,0,0,1,56.75,102Z" transform="translate(0 0)"/></svg>