<?xml version="1.0" encoding="utf-8"?>
<!-- Generator: Adobe Illustrator 16.0.0, SVG Export Plug-In . SVG Version: 6.00 Build 0)  -->
<!DOCTYPE svg PUBLIC "-//W3C//DTD SVG 1.1//EN" "http://www.w3.org/Graphics/SVG/1.1/DTD/svg11.dtd">
<svg version="1.1" id="Layer_1" xmlns="http://www.w3.org/2000/svg" xmlns:xlink="http://www.w3.org/1999/xlink" x="0px" y="0px"
	 width="80px" height="52px" viewBox="0 0 80 52" enable-background="new 0 0 80 52" xml:space="preserve">
<g>
	<path fill="#26CAD3" d="M30.771,38.036H20.163c-6.647,0-12.035-5.387-12.035-12.038c0-6.646,5.388-12.033,12.035-12.033h11.366
		V5.939H20.163C9.085,5.939,0.104,14.92,0.104,26c0,11.079,8.981,20.062,20.06,20.062h10.607v5.506l16.496-9.523l-16.496-9.523
		V38.036z"/>
	<path fill="#26CAD3" d="M59.838,5.939H49.229V0.432L32.733,9.957l16.496,9.523v-5.516h10.608c6.647,0,12.035,5.387,12.035,12.035
		c0,6.649-5.388,12.036-12.035,12.036H48.471v8.025h11.367c11.077,0,20.06-8.982,20.06-20.063
		C79.897,14.92,70.915,5.939,59.838,5.939z"/>
</g>
</svg>
