<svg id="레이어_1" data-name="레이어 1" xmlns="http://www.w3.org/2000/svg" width="43.95" height="44" viewBox="0 0 43.95 44"><defs><style>.cls-1{fill:#939393;}.cls-2{fill:#26cad3;}</style></defs><title>check</title><path class="cls-1" d="M0.72,25.16l9.89-6.23L7.34,16.43a18.16,18.16,0,0,1,33.48,8.73h3.85A22,22,0,0,0,.72,25.16Z" transform="translate(-0.72 -4.12)"/><path class="cls-1" d="M44.67,27.09l-9.9,6.23L38,35.81A18.16,18.16,0,0,1,4.56,27.09H0.72a22,22,0,0,0,22,21h0A22,22,0,0,0,44.67,27.09Z" transform="translate(-0.72 -4.12)"/><polygon class="cls-2" points="11.33 21.77 17.27 29.79 32.62 14.21 17.39 25.84 11.33 21.77"/></svg>