<svg id="레이어_1" data-name="레이어 1" xmlns="http://www.w3.org/2000/svg" width="44" height="44" viewBox="0 0 44 44"><defs><style>.cls-1{fill:#fff;opacity:0;}.cls-2{fill:#939393;}</style></defs><title>gettingstart</title><rect class="cls-1" width="44" height="44"/><path class="cls-2" d="M28,23.83A5,5,0,0,0,29.87,20V18.85a3.26,3.26,0,0,0-3.26-3.26H25.69a3.26,3.26,0,0,0-3.26,3.26V20a4.32,4.32,0,0,0,.13,1,6.4,6.4,0,0,0-2.27-1.22A5,5,0,0,0,22.2,16V14.83a3.26,3.26,0,0,0-3.26-3.26H18a3.26,3.26,0,0,0-3.26,3.26V16a5,5,0,0,0,1.91,3.8,6.41,6.41,0,0,0-4.57,6.12v1.49h8.19A6.32,6.32,0,0,0,19.77,30v1.49H32.53V30A6.41,6.41,0,0,0,28,23.83Z" transform="translate(-0.32 0.49)"/></svg>