<?xml version="1.0" encoding="utf-8"?>
<!-- Generator: Adobe Illustrator 16.0.0, SVG Export Plug-In . SVG Version: 6.00 Build 0)  -->
<!DOCTYPE svg PUBLIC "-//W3C//DTD SVG 1.1//EN" "http://www.w3.org/Graphics/SVG/1.1/DTD/svg11.dtd">
<svg version="1.1" id="Layer_1" xmlns="http://www.w3.org/2000/svg" xmlns:xlink="http://www.w3.org/1999/xlink" x="0px" y="0px"
	 width="120px" height="30px" viewBox="0 0 120 30" enable-background="new 0 0 120 30" xml:space="preserve">
<path fill="#414042" stroke="#A7A7A7" stroke-miterlimit="10" d="M119.5,27.5c0,1.105-0.895,2-2,2H2.5c-1.104,0-2-0.895-2-2v-25
	c0-1.104,0.896-2,2-2h115c1.105,0,2,0.896,2,2V27.5z"/>
<g>
	<text transform="matrix(1 0 0 1 36.9727 18.5996)" fill="#A7A7A7" font-family="'NanumGothic'" font-size="12">Go Back</text>
</g>
<path fill="#A7A7A7" d="M10.51,14.999l4.956-4.955c0.441-0.439,0.441-1.154,0.001-1.592s-1.151-0.438-1.589,0l-5.744,5.744
	c-0.221,0.221-0.331,0.514-0.329,0.802c-0.002,0.289,0.107,0.582,0.329,0.803l5.744,5.744c0.438,0.439,1.149,0.439,1.589,0
	s0.44-1.15-0.001-1.592L10.51,14.999z"/>
</svg>
