<?xml version="1.0" encoding="utf-8"?>
<!-- Generator: Adobe Illustrator 19.2.1, SVG Export Plug-In . SVG Version: 6.00 Build 0)  -->
<svg version="1.1" id="레이어_1" xmlns="http://www.w3.org/2000/svg" xmlns:xlink="http://www.w3.org/1999/xlink" x="0px"
	 y="0px" viewBox="0 0 120 30" style="enable-background:new 0 0 120 30;" xml:space="preserve">
<style type="text/css">
	.st0{fill:#FFFFFF;stroke:#D1D1D1;stroke-width:2;stroke-miterlimit:10;}
	.st1{fill:#808080;}
	.st2{font-family:'NanumGothic';}
	.st3{font-size:12px;}
	.st4{fill:#939393;}
</style>
<path class="st0" d="M119,27.1c0,1-0.9,1.9-2,1.9H3c-1.1,0-2-0.8-2-1.9V2.9C1,1.8,1.9,1,3,1h114c1.1,0,2,0.8,2,1.9V27.1z"/>
<g>
	<text transform="matrix(1 0 0 1 15.6621 18.5997)" class="st1 st2 st3">Hide details</text>
</g>
<path class="st4" d="M95.4,18.8l4-4l4,4c0.2,0.2,0.5,0.2,0.7,0c0.2-0.2,0.2-0.5,0-0.7l-4.3-4.3c-0.2-0.2-0.5-0.2-0.7,0l-4.3,4.3
	c-0.2,0.2-0.2,0.5,0,0.7C94.9,19,95.2,19,95.4,18.8z"/>
</svg>
