<svg id="Layer_1" data-name="Layer 1" xmlns="http://www.w3.org/2000/svg" viewBox="0 0 147 44"><defs><style>.cls-1{fill:#fff;opacity:0;}.cls-2{fill:#58595b;}.cls-3{fill:#bcbec0;}</style></defs><title>ifConditionButton</title><rect class="cls-1" width="147" height="44"/><rect class="cls-2" x="13.38" y="18.66" width="3.19" height="13.1"/><circle class="cls-2" cx="14.98" cy="14.66" r="1.91"/><path class="cls-2" d="M22.88,18.66V22H20.13v3.19h2.75v6.55h3.19V25.21h2.72V22H26.07V18.66h0a2.73,2.73,0,0,1,2.73-2.73V12.75A5.91,5.91,0,0,0,22.88,18.66Z" transform="translate(0 0)"/><rect class="cls-3" x="92.74" y="18.66" width="3.19" height="13.1"/><circle class="cls-3" cx="94.34" cy="14.66" r="1.91"/><rect class="cls-3" x="106.52" y="18.66" width="3.19" height="13.1"/><circle class="cls-3" cx="108.11" cy="14.66" r="1.91"/><path class="cls-3" d="M61.8,21.27a5.25,5.25,0,1,0,5.25,5.25A5.25,5.25,0,0,0,61.8,21.27Zm0,7.59a2.34,2.34,0,1,1,2.34-2.34A2.34,2.34,0,0,1,61.8,28.85Z" transform="translate(0 0)"/><path class="cls-3" d="M116.73,21.27A5.25,5.25,0,1,0,122,26.51,5.25,5.25,0,0,0,116.73,21.27Zm0,7.59a2.34,2.34,0,1,1,2.34-2.34A2.34,2.34,0,0,1,116.73,28.85Z" transform="translate(0 0)"/><path class="cls-3" d="M88.06,12.75v9.07A5.24,5.24,0,1,0,91,26.51V12.75H88.06Zm-2.34,16.1a2.34,2.34,0,1,1,2.34-2.34A2.34,2.34,0,0,1,85.72,28.85Z" transform="translate(0 0)"/><path class="cls-3" d="M102.16,26.51V12.75H99.33V26.51a5.25,5.25,0,0,0,5.25,5.25V28.94A2.42,2.42,0,0,1,102.16,26.51Z" transform="translate(0 0)"/><rect class="cls-3" x="96.98" y="18.66" width="7.76" height="2.91"/><path class="cls-3" d="M51.47,28a2.34,2.34,0,1,1,0-2.91h3.22a5.25,5.25,0,1,0,0,2.91H51.47Z" transform="translate(0 0)"/><path class="cls-3" d="M79,26.24a5.23,5.23,0,0,0-7.57-4.41V21.27H68.51v10.5h2.91V26.51a2.34,2.34,0,1,1,4.68,0h0v5.25H79V26.24h0Z" transform="translate(0 0)"/><path class="cls-3" d="M133.92,26.24a5.23,5.23,0,0,0-7.57-4.41V21.27h-2.91v10.5h2.91V26.51a2.34,2.34,0,1,1,4.68,0h0v5.25h2.91V26.24h0Z" transform="translate(0 0)"/></svg>