<?xml version="1.0" encoding="utf-8"?>
<!-- Generator: Adobe Illustrator 16.0.0, SVG Export Plug-In . SVG Version: 6.00 Build 0)  -->
<!DOCTYPE svg PUBLIC "-//W3C//DTD SVG 1.1//EN" "http://www.w3.org/Graphics/SVG/1.1/DTD/svg11.dtd">
<svg version="1.1" id="Layer_1" xmlns="http://www.w3.org/2000/svg" xmlns:xlink="http://www.w3.org/1999/xlink" x="0px" y="0px"
	 width="118px" height="88px" viewBox="0 0 118 88" enable-background="new 0 0 118 88" xml:space="preserve">
<text transform="matrix(1 0 0 1 22.7813 71.2666)" fill="#FFFFFF" font-family="'NanumGothic'" font-size="12">Getting Start</text>
<g>
	<path fill="none" stroke="#FFFFFF" stroke-miterlimit="10" d="M68.629,20.68H48.704c-1.811,0-3.277,1.468-3.277,3.277v13.112v1.262
		v7.325l4.394-4.047h18.808c1.809,0,3.277-1.468,3.277-3.278V23.957C71.906,22.147,70.438,20.68,68.629,20.68z"/>
	<circle fill="#FFFFFF" cx="62.564" cy="29.71" r="3.661"/>
	<path fill="#FFFFFF" d="M67.84,41.609V37.11c0-1.647-0.801-3.106-2.031-4.015c-0.816,0.858-1.967,1.394-3.244,1.394
		s-2.43-0.535-3.244-1.394c-1.231,0.908-2.032,2.367-2.032,4.015v4.499H67.84z"/>
	<path fill="#FFFFFF" d="M56.827,25.497c0,0.3-0.244,0.543-0.544,0.543h-8.06c-0.3,0-0.543-0.243-0.543-0.543l0,0
		c0-0.303,0.244-0.545,0.543-0.545h8.06C56.583,24.952,56.827,25.194,56.827,25.497L56.827,25.497z"/>
	<path fill="#FFFFFF" d="M56.827,27.641c0,0.301-0.244,0.544-0.544,0.544h-8.06c-0.3,0-0.543-0.243-0.543-0.544l0,0
		c0-0.3,0.244-0.544,0.543-0.544h8.06C56.583,27.097,56.827,27.341,56.827,27.641L56.827,27.641z"/>
	<path fill="#FFFFFF" d="M51.645,29.785c0,0.299-0.243,0.543-0.543,0.543h-2.879c-0.3,0-0.543-0.244-0.543-0.543l0,0
		c0-0.301,0.244-0.545,0.543-0.545h2.879C51.402,29.24,51.645,29.484,51.645,29.785L51.645,29.785z"/>
</g>
<rect fill="#414141" width="118" height="88"/>
<g>
	<polygon fill="none" stroke="#FFFFFF" stroke-miterlimit="10" points="63.898,19.19 48.081,19.19 48.081,45.656 69.252,45.656 
		69.252,24.545 	"/>
	<polygon fill="#FFFFFF" stroke="#FFFFFF" stroke-width="0.7" stroke-miterlimit="10" points="63.898,19.19 63.898,24.545 
		69.252,24.545 69.252,24.545 	"/>
	<path fill="#FFFFFF" d="M62.93,29.375v1.887h0.631v-2.325c0-0.362-0.295-0.655-0.656-0.655H58.23v0.631h4.242
		C62.836,28.912,62.93,29.012,62.93,29.375z"/>
	<path fill="#FFFFFF" d="M54.157,33.08c-0.361,0-0.654,0.293-0.654,0.656v3.33h0.63v-2.893c0-0.362,0.095-0.463,0.456-0.463h6.526
		V33.08H54.157z"/>
	<rect x="53.964" y="26.461" fill="#FFFFFF" width="4.268" height="4.269"/>
	<rect x="61.115" y="31.262" fill="#FFFFFF" width="4.266" height="4.268"/>
	<rect x="51.687" y="37.066" fill="#FFFFFF" width="4.268" height="4.268"/>
</g>
<text transform="matrix(1 0 0 1 25.0254 71.2666)" fill="#FFFFFF" font-family="'NanumGothic'" font-size="12">New Project</text>
</svg>
