<?xml version="1.0" encoding="utf-8"?>
<!-- Generator: Adobe Illustrator 16.0.0, SVG Export Plug-In . SVG Version: 6.00 Build 0)  -->
<!DOCTYPE svg PUBLIC "-//W3C//DTD SVG 1.1//EN" "http://www.w3.org/Graphics/SVG/1.1/DTD/svg11.dtd">
<svg version="1.1" id="Layer_1" xmlns="http://www.w3.org/2000/svg" xmlns:xlink="http://www.w3.org/1999/xlink" x="0px" y="0px"
	 width="120px" height="30px" viewBox="0 0 120 30" enable-background="new 0 0 120 30" xml:space="preserve">
<path fill="#26CAD3" stroke="#26CAD3" stroke-miterlimit="10" d="M119.5,27.5c0,1.105-0.895,2-2,2H2.499c-1.104,0-2-0.895-2-2v-25
	c0-1.104,0.896-2,2-2H117.5c1.105,0,2,0.896,2,2V27.5z"/>
<g>
	<g>
		<text transform="matrix(1 0 0 1 15.6621 18.5996)" fill="#FFFFFF" font-family="'NanumGothic'" font-size="12">Show details</text>
	</g>
	<path fill="#FFFFFF" d="M103.49,12.487l-3.973,3.971l-3.971-3.971c-0.193-0.193-0.508-0.193-0.703,0
		c-0.193,0.193-0.193,0.508,0,0.703l4.322,4.322c0.195,0.193,0.51,0.193,0.703,0l4.322-4.324c0.193-0.193,0.193-0.508,0-0.701
		S103.684,12.294,103.49,12.487z"/>
</g>
</svg>
