<svg id="레이어_1" data-name="레이어 1" xmlns="http://www.w3.org/2000/svg" viewBox="0 0 271.01 271"><defs><style>.cls-1,.cls-7{fill:#fff;}.cls-1{fill-opacity:0;}.cls-2{fill:#26cad3;}.cls-3{fill:#3fadba;}.cls-4{fill:#c5efef;}.cls-5{fill:#90e0de;}.cls-10,.cls-6{fill:#268b97;}.cls-8{fill:#0c666d;}.cls-9{fill:#f1f1f1;}.cls-10{stroke:#fff;stroke-miterlimit:10;}</style></defs><title>newProjectImage</title><rect class="cls-1" width="271" height="271"/><path class="cls-2" d="M247,45.33H234.91l-6,10.47,6,10.47H247l6-10.47Zm-6,16.24a5.77,5.77,0,1,1,5.77-5.77A5.77,5.77,0,0,1,241,61.57h0Z" transform="translate(0 0)"/><path class="cls-2" d="M41.23,113.7a0.83,0.83,0,0,0-.66-0.77l-3.37-1V111.8l0-.19L37,111.3,37,111.09l-0.11-.29-0.09-.24-0.11-.25L36.5,110l-0.11-.21-0.15-.29-0.1-.18-0.06-.12,1.69-3.08a0.85,0.85,0,0,0-.08-1l-0.59-.59L36.53,104,36,103.45a0.84,0.84,0,0,0-1-.08l-3.08,1.69L31.77,105l-0.18-.1-0.3-.15-0.21-.1-0.27-.13-0.24-.1-0.25-.1-0.3-.11-0.22-.07L29.52,104H29.19l-1-3.37a0.84,0.84,0,0,0-.77-0.66H25a0.84,0.84,0,0,0-.77.66l-1,3.37H23.12l-0.2.06-0.31.1-0.22.07-0.28.11-0.25.1-0.24.1-0.27.13-0.21.1-0.29.15-0.18.1-0.12.06-3.08-1.69a0.84,0.84,0,0,0-1,.08l-0.59.59-0.57.57-0.55.54a0.84,0.84,0,0,0-.08,1l1.69,3.08-0.06.11-0.1.18-0.15.29L16,110l-0.12.27-0.11.25-0.09.24a1.08,1.08,0,0,1-.11.28c0,0.09-.05.14-0.07,0.22s-0.07.21-.1,0.32l-0.06.19a0.8,0.8,0,0,1,0,.13l-3.37,1a0.83,0.83,0,0,0-.66.77v2.41a0.83,0.83,0,0,0,.66.77l3.37,1V118l0.06,0.2a0.94,0.94,0,0,0,.1.31,0.39,0.39,0,0,0,.08.22,0.56,0.56,0,0,1,.1.28l0.1,0.25,0.1,0.24L16,119.8l0,0.2,0.16,0.3,0.09,0.17,0.07,0.12-1.69,3.08a0.83,0.83,0,0,0,.08,1l0.6,0.59,0.56,0.57,0.55,0.54a0.83,0.83,0,0,0,1,.08l3.08-1.69,0.12,0.07,0.18,0.1,0.29,0.15,0.21,0.1,0.27,0.12,0.24,0.11,0.24,0.1,0.28,0.11,0.22,0.07,0.32,0.1,0.19,0.05h0.14l1,3.37a0.83,0.83,0,0,0,.77.66H27.4a0.83,0.83,0,0,0,.77-0.66l1-3.37h0.12l0.21-.06h0.09l0.21-.07,0.24-.08,0.26-.1,0.26-.1,0.22-.1,0.29-.13,0.19-.09,0.32-.16,0.16-.09,0.14-.08L35,126.45a0.84,0.84,0,0,0,1-.08l0.59-.59,0.56-.56,0.54-.55a0.84,0.84,0,0,0,.08-1l-1.69-3.08,0.07-.13,0.07-.12h0L36.4,120l0.07-.14v-0.06l0.12-.28a0.82,0.82,0,0,1,.1-0.24l0.1-.25,0.1-.28a0.65,0.65,0,0,1,.08-0.22l0.1-.31a0.31,0.31,0,0,1,0-.2v-0.13l3.38-1a0.83,0.83,0,0,0,.65-0.77V113.7h0.08ZM33,114.91h0v1h0v0.23a0.56,0.56,0,0,1,0,.1v0.33l-0.06.21v0.1l-0.06.2a1,1,0,0,1,0,.12,0.22,0.22,0,0,1-.06.18l-0.06.14-0.06.15-0.07.16,0,0.1h0l-0.09.17-0.06.11-0.1.18-0.06.1-0.12.18-0.06.1-0.12.17-0.08.11-0.12.15-0.12.13-0.1.12-0.23.24h0l-0.24.22L31,120l-0.12.11-0.16.13-0.08.06h0l-0.19.13-0.09.06-0.19.12-0.09.05-0.19.11-0.1.06-0.19.09-0.45.09-0.17.08-0.13.06-0.15.06-0.16.06H28.37l-0.18.06H28.07l-0.19.05H24.6l-0.21-.06H24.28l-0.19-.06H24l-0.17-.06-0.14-.06-0.14-.06L23.34,121l-0.12-.06-0.2-.08-0.1-.06-0.19-.11-0.09-.05-0.19-.12-0.09-.06-0.18-.13-0.09-.07-0.16-.13-0.11-.1-0.14-.12-0.18-.17-0.06-.06h0l-0.06-.07-0.16-.17h0l-0.11-.13h0L21,119.19,20.87,119l-0.06-.08-0.14-.19,0-.08-0.13-.2v-0.08l-0.11-.2v-0.09l-0.1-.19,0-.11L20,117.62V117.5L20,117.34l-0.06-.15L19.82,117l-0.06-.17V116.7l0-.19v-0.65a1.16,1.16,0,0,1,0-.15,1.78,1.78,0,0,1,0-.18v-0.66h0v-1.31a0.33,0.33,0,0,1,0-.21v-0.11l0.06-.2v-0.11l0.06-.19v-0.13l0.06-.17L20,112.3l0.06-.15,0.07-.16,0.06-.13,0.09-.17,0.06-.11,0.1-.18,0.06-.1,0.11-.18,0.07-.1,0.12-.17,0.08-.11,0.12-.15,0.12-.14,0.09-.11c0.15-.17.31-0.32,0.47-0.47l0.11-.1,0.14-.12,0.15-.12,0.11-.08,0.18-.13,0.09-.06,0.19-.12,0.09-.06,0.19-.11L23,109l0.18-.09,0.12-.06,0.16-.08,0.14-.06,0.15-.06,0.17-.06h0.13l0.19-.06h0.11l0.21-.05h3l0.22,0.05h0.1l0.21,0.05h0.11l0.19,0.06h0.12l0.17,0.07,0.14,0.05,0.15,0.06,0.15,0.07,0.13,0.06,0.19,0h0.12l0.17,0.1,0.1,0.06L30,109.3l0.1,0.07,0.17,0.12,0.11,0.08,0.15,0.12,0.14,0.12,0.11,0.1L31,110.14h0l0.23,0.24,0.11,0.13,0.11,0.12,0.13,0.16,0.07,0.09,0.13,0.18,0.06,0.08L32,111.33h0v0.05l0.11,0.19,0.06,0.09,0.09,0.19L32.32,112l0.08,0.17,0.06,0.13,0.06,0.15,0.06,0.16a0.77,0.77,0,0,1,0,.14L32.69,113v0.12a0.3,0.3,0,0,0,0,.2V115h0Z" transform="translate(0 0)"/><circle class="cls-2" cx="135.5" cy="156.11" r="114.89"/><path class="cls-3" d="M213.49,173.22a2.4,2.4,0,0,0-2.4-2.4H187.35a2.4,2.4,0,0,0-2.4,2.4h0a2.4,2.4,0,0,0,2.4,2.4h23.74a2.4,2.4,0,0,0,2.4-2.4h0Z" transform="translate(0 0)"/><rect class="cls-4" x="79.64" y="148.87" width="111.39" height="75.87"/><path class="cls-5" d="M92.65,194a10.43,10.43,0,0,0,10.43,10.43h64.51A10.43,10.43,0,0,0,178,194V175.62H92.65V194Z" transform="translate(0 0)"/><rect class="cls-6" x="79.64" y="148.87" width="111.39" height="26.75"/><circle class="cls-7" cx="124.55" cy="192.95" r="1.18"/><circle class="cls-7" cx="129.94" cy="192.95" r="1.18"/><circle class="cls-7" cx="135.33" cy="192.95" r="1.18"/><circle class="cls-7" cx="140.73" cy="192.95" r="1.18"/><circle class="cls-7" cx="146.12" cy="192.95" r="1.18"/><circle class="cls-7" cx="129.94" cy="197.61" r="1.18"/><circle class="cls-7" cx="135.33" cy="197.61" r="1.18"/><circle class="cls-7" cx="140.73" cy="197.61" r="1.18"/><rect class="cls-8" x="123.5" y="205.76" width="24.01" height="2.59" rx="0.91" ry="0.91" transform="translate(-23.99 17.86) rotate(-6.93)"/><path class="cls-6" d="M150.59,224.14H123.13a14,14,0,0,0-14,14v29.79a115.65,115.65,0,0,0,55.5-.67v-29.1a14,14,0,0,0-14-14h-0.06Z" transform="translate(0 0)"/><path class="cls-3" d="M135.5,271a115.25,115.25,0,0,0,25.72-2.89,13.28,13.28,0,0,1-7.33-11.87V245.42H119.83v10.81a13.28,13.28,0,0,1-8.22,12.27A115.34,115.34,0,0,0,135.5,271Z" transform="translate(0 0)"/><path class="cls-3" d="M123.13,224.14a14,14,0,0,0-3.3.41V249.1a1.32,1.32,0,0,0,1.32,1.32h3.51a1.32,1.32,0,0,0,1.36-1.28s0,0,0,0v-25h-2.85Z" transform="translate(0 0)"/><path class="cls-3" d="M150.59,224.14h-2.85v25a1.32,1.32,0,0,0,1.32,1.32h3.51a1.32,1.32,0,0,0,1.32-1.32h0V224.55A14,14,0,0,0,150.59,224.14Z" transform="translate(0 0)"/><circle class="cls-7" cx="122.91" cy="247.18" r="2.23"/><circle class="cls-7" cx="150.81" cy="247.18" r="2.23"/><path class="cls-8" d="M141.49,164.07h-12.3a6.78,6.78,0,0,0-6.78,6.78h25.85A6.78,6.78,0,0,0,141.49,164.07Z" transform="translate(0 0)"/><rect class="cls-9" x="122.41" y="170.83" width="25.85" height="4.79"/><path class="cls-4" d="M133.83,170.83a2.4,2.4,0,0,0-.31,4.79h14.75v-4.79H133.83Z" transform="translate(0 0)"/><circle class="cls-3" cx="133.79" cy="173.22" r="0.61"/><circle class="cls-3" cx="136.49" cy="173.22" r="0.61"/><circle class="cls-3" cx="139.19" cy="173.22" r="0.61"/><circle class="cls-3" cx="141.89" cy="173.22" r="0.61"/><path class="cls-8" d="M181,175.62s0.54,5.82,3.18,8.15a12.52,12.52,0,0,1,0-3.58,14.93,14.93,0,0,0,6.8,7.64V175.65Z" transform="translate(0 0)"/><path class="cls-5" d="M132.2,221.57l-9.93,2.29-0.41.09,0.31-3.29a2.1,2.1,0,0,0-4.17-.51s0,0.08,0,.12l-0.48,5.14,0.22,1,0.83,3.6,1.81,7.84a1.45,1.45,0,0,0,1.74,1.09h0l0.78-.18h0l1.55-.36,2.64-.61,3.37-.78a1.83,1.83,0,0,0-.82-3.57,1.83,1.83,0,0,0-.82-3.57h0a1.83,1.83,0,0,0-.82-3.57h0l5-1.15A1.83,1.83,0,1,0,132.2,221.57Z" transform="translate(0 0)"/><path class="cls-6" d="M145.81,99.28l-10.15,2.26-3.12,9.92,7,7.67,10.15-2.26,3.12-9.92Zm-2,14.77a5,5,0,1,1,3.76-6v0.06a5,5,0,0,1-3.81,5.93h0Z" transform="translate(0 0)"/><path class="cls-6" d="M158.88,80.81l-6,1.34L151,88l4.18,4.55,6-1.34L163,85.37Zm-1.22,8.78A3,3,0,1,1,159.88,86l0,0.1A3,3,0,0,1,157.66,89.59Z" transform="translate(0 0)"/><path class="cls-7" d="M58.29,102.17A0.41,0.41,0,0,0,58,101.8l-1.64-.48v-0.41l0-.14v-0.12L56,100.53V100.4l0-.1-0.07-.14,0-.09V100l0.82-1.5a0.41,0.41,0,0,0,0-.49l-0.29-.29L56,97.46l-0.26-.27a0.41,0.41,0,0,0-.49,0l-1.5.82H53.62l-0.14-.07h-0.1l-0.13-.06-0.12-.05H53l-0.14-.05H52.45l-0.43-2a0.41,0.41,0,0,0-.37-0.32H50.43a0.41,0.41,0,0,0-.37.32l-0.48,1.64H49.16L49,97.61H48.9l-0.12.05-0.13.06h-0.1l-0.14.07H48.26L46.76,97a0.41,0.41,0,0,0-.49,0L46,97.48l-0.27.27-0.3.25a0.41,0.41,0,0,0,0,.49l0.82,1.5V100l0,0.09-0.07.14v0.1l-0.06.13,0,0.12v0.12l0,0.14V101l0,0.15v0.15l-1.92.5a0.41,0.41,0,0,0-.32.37v1.17a0.4,0.4,0,0,0,.32.37l1.64,0.48v0.42l0,0.13v0.12L46,105l0,0.12v0.1l0.08,0.15v0.14L45.41,107a0.41,0.41,0,0,0,0,.49l0.29,0.29L46,108.06l0.27,0.26a0.4,0.4,0,0,0,.49,0l1.5-.82h0.15l0.14,0.07h0.1l0.13,0.06,0.12,0.05H49L49.16,108h0.42L50,109.72a0.41,0.41,0,0,0,.37.32h1.17a0.41,0.41,0,0,0,.37-0.32l0.48-1.64h0.51L53,108h0.11L53.3,108h0.09l0.15-.08h0.15l1.5,0.82a0.41,0.41,0,0,0,.49,0L56,108l0.27-.27,0.26-.27a0.41,0.41,0,0,0,0-.49l-0.82-1.5v-0.12h0l0.08-.15v-0.07h0L56,105v-0.23l0-.13v-0.42l1.64-.48a0.4,0.4,0,0,0,.32-0.37V102.2h0Zm-4,.58h0v0.48h0v0.11h0v0.11h0v0.1h0v0.25L54,104v0.15h0v0.22h0l-0.06.09h0l-0.06.08v0.05l-0.06.07-0.06.06v0.06l-0.11.12h0l-0.12.11-0.06.05-0.06.05-0.08.06h0l-0.09.06h0l-0.09.06h0l-0.09.05H49.46l-0.09-.05h0l-0.09-.06h0l-0.26.16h0l-0.08-.06h0l-0.07-.06-0.09-.08h0L48.58,105h0l0-.06h0l-0.07-.09h0l-0.07-.09h0l-0.06-.1h0l-0.06-.1h0v-1a0.56,0.56,0,0,1,0-.07,0.87,0.87,0,0,1,0-.09V103h0v-1.93h0l0.06-.09h0l0.06-.08v-0.05l0.06-.07,0.06-.07V100.7l0.23-.23H48.8l0.07-.06,0.07-.06h0l0.09-.06h0l0.09-.06h0l0.09-.05h3.35l0.22-.18h0l0.08,0.06h0L53,100.12l0.07,0.06h0.06l0.12,0.11h0l0.11,0.12,0,0.06,0,0.06,0.06,0.08h0l0.06,0.09h0L53.8,101h0l0,0.09h0v1.65h0.44Z" transform="translate(0 0)"/><path class="cls-7" d="M244.11,155.58a0.62,0.62,0,0,0-.49-0.57l-2.52-.73V154L241,153.8l-0.05-.16-0.08-.21-0.07-.18-0.08-.18-0.09-.2-0.08-.16-0.11-.22-0.08-.14v-0.09l1.26-2.3a0.63,0.63,0,0,0-.06-0.75l-0.44-.44-0.42-.42-0.41-.41a0.63,0.63,0,0,0-.75-0.06l-2.3,1.26h-0.09l-0.25-.14-0.22-.11-0.15-.08-0.2-.09-0.18-.08-0.19-.07-0.21-.08-0.16-.05-0.23-.08h-0.24l-0.74-2.52a0.63,0.63,0,0,0-.58-0.49H232a0.63,0.63,0,0,0-.57.49l-0.73,2.52h-0.25l-0.23.08-0.16.05-0.21.08-0.18.07-0.18.08-0.2.09-0.16.08-0.22.11-0.13.07h-0.09l-2.3-1.26a0.63,0.63,0,0,0-.75.06l-0.44.44-0.42.42-0.41.41a0.63,0.63,0,0,0-.06.75l1.26,2.3v0.09l-0.08.14-0.11.22-0.08.16-0.09.2-0.08.18-0.07.18-0.08.21-0.05.16a0.75,0.75,0,0,1-.08.24v0.14a0.59,0.59,0,0,1,0,.1l-2.51.73a0.62,0.62,0,0,0-.49.57v1.8a0.62,0.62,0,0,0,.49.57l2.51,0.74v0.25l0.07,0.23,0.06,0.16a0.61,0.61,0,0,0,.08.21l0.07,0.19,0.08,0.18,0.09,0.21,0.07,0.15,0.12,0.22,0.07,0.13,0.05,0.09-1.26,2.3a0.62,0.62,0,0,0,.06.75l0.45,0.44,0.42,0.42,0.41,0.41a0.62,0.62,0,0,0,.75.06l2.3-1.26,0.09,0.05,0.07,0.19,0.22,0.11,0.16,0.07,0.2,0.09,0.18,0.08,0.18,0.07,0.21,0.08,0.16,0.05,0.24,0.08h0.24l0.73,2.51a0.62,0.62,0,0,0,.58.49h1.79a0.62,0.62,0,0,0,.58-0.49l0.74-2.51h0.31l0.16-.05,0.18-.06,0.2-.07,0.2-.08,0.17-.07,0.22-.1,0.14-.07,0.24-.12,0.12-.06,0.1-.06,2.3,1.26a0.63,0.63,0,0,0,.75-0.06l0.44-.44,0.42-.42,0.41-.41a0.63,0.63,0,0,0,.06-0.75l-1.26-2.3,0.05-.1,0.05-.09h0l0.12-.23,0.05-.1h0l0.09-.21,0.08-.18,0.07-.19,0.08-.21,0.06-.16,0.08-.23v-0.25l2.52-.73a0.62,0.62,0,0,0,.49-0.57v-1.8h0Zm-6.15.9h0v0.73h0v0.17a0.41,0.41,0,0,1,0,.07v1.06l-0.05.12v0.08h0l-0.07.13v0.08l-0.07.13v0.07l-0.09.13v0.07l-0.09.13-0.06.08-0.09.11-0.09.1-0.07.09-0.17.18h0l-0.18.17-0.09.08-0.09.08-0.12.1h-0.06l-0.14.1h-0.06l-0.14.09h-0.07l-0.14.08H236l-0.14.07h-0.08l-0.13.06h-4.08l-0.12-.05h-0.09l-0.13-.07h-0.07l-0.14-.08H230.9l-0.14-.09h-0.07l-0.13-.1-0.07-.05-0.12-.1-0.08-.07-0.1-.09L230,160h0V160l-0.12-.13h0l-0.08-.1h0l-0.11-.13v-0.06l-0.1-.14v-0.06l-0.1-.15v-0.06l-0.09-.15v-0.07l-0.07-.14v-0.08l-0.06-.13v-1.29a0.87,0.87,0,0,1,0-.11s0-.09,0-0.13v-0.49h0v-2.09l0.05-.12v-0.09l0.07-.13V154l0.08-.14v-0.07l0.09-.13,0.05-.07,0.09-.13,0.06-.08,0.09-.11,0.09-.1,0.07-.08c0.11-.12.23-0.24,0.35-0.35l0.09-.07,0.1-.09,0.11-.09,0.08-.06,0.13-.09H231l0.14-.09h0.07l0.14-.08h0.08l0.13-.07h0.09l0.12-.06H235l0.11,0.05h0.1l0.13,0.06h0.09l0.13,0.07h0.08l0.13,0.08,0.07,0.05,0.13,0.09,0.09,0,0.11,0.09,0.1,0.09,0.09,0.07,0.18,0.17h0l0.17,0.18,0.08,0.09,0.08,0.09,0.1,0.12,0.05,0.07,0.1,0.14v0.06l0.09,0.14h0l0.15,0.19v0.07l0.07,0.14v0.08l0.06,0.13v0.34a0.58,0.58,0,0,1,0,.1v1.58h0Z" transform="translate(0 0)"/><polygon class="cls-4" points="199.18 79.89 192.81 70.92 191.65 71.42 190.73 71.82 189.56 72.33 191.77 83.11 194.56 83.58 203.53 104.22 206.59 102.89 197.62 82.25 199.18 79.89"/><path class="cls-6" d="M211.07,104.16l0.17-.07L210,101.38l-10,4.35,1.18,2.71,0.17-.07a1.95,1.95,0,0,1,1.55,3.57h0l-0.17.07,9.87,22.71a3.55,3.55,0,0,0,4.67,1.84h0l3.52-1.56a3.55,3.55,0,0,0,1.84-4.67h0l-9.87-22.71-0.17.07A1.94,1.94,0,0,1,211.07,104.16Z" transform="translate(0 0)"/><rect class="cls-8" x="209.48" y="111.97" width="1.78" height="23.4" rx="0.63" ry="0.63" transform="translate(-31.86 94.1) rotate(-23.49)"/><rect class="cls-8" x="212.37" y="110.72" width="1.78" height="23.4" rx="0.63" ry="0.63" transform="translate(-31.12 95.15) rotate(-23.49)"/><rect class="cls-8" x="215.26" y="109.46" width="1.78" height="23.4" rx="0.63" ry="0.63" transform="translate(-30.38 96.19) rotate(-23.49)"/><rect class="cls-8" x="65.26" y="47.06" width="50.3" height="70.77" transform="translate(-19.68 29.05) rotate(-16.49)"/><circle class="cls-2" cx="64.92" cy="58.31" r="2.41" transform="translate(-13.88 20.83) rotate(-16.49)"/><circle class="cls-2" cx="71.65" cy="56.31" r="2.41" transform="translate(-13.04 22.65) rotate(-16.49)"/><circle class="cls-2" cx="78.39" cy="54.32" r="2.41" transform="translate(-12.19 24.48) rotate(-16.49)"/><circle class="cls-2" cx="85.11" cy="52.33" r="2.41" transform="translate(-11.35 26.31) rotate(-16.49)"/><circle class="cls-2" cx="91.85" cy="50.33" r="2.41" transform="translate(-10.51 28.14) rotate(-16.49)"/><circle class="cls-2" cx="98.59" cy="48.34" r="2.41" transform="translate(-9.67 29.97) rotate(-16.49)"/><rect class="cls-5" x="62.56" y="50.72" width="2.81" height="8.69" transform="translate(-13 20.42) rotate(-16.49)"/><rect class="cls-5" x="69.29" y="48.73" width="2.81" height="8.69" transform="translate(-12.16 22.25) rotate(-16.49)"/><rect class="cls-5" x="75.9" y="47.08" width="2.81" height="8.69" transform="translate(-11.31 23.7) rotate(-16.26)"/><rect class="cls-5" x="82.75" y="44.74" width="2.81" height="8.69" transform="translate(-10.47 25.91) rotate(-16.49)"/><rect class="cls-5" x="89.49" y="42.75" width="2.81" height="8.69" transform="translate(-9.63 27.74) rotate(-16.49)"/><rect class="cls-5" x="96.22" y="40.75" width="2.81" height="8.69" transform="translate(-8.78 29.56) rotate(-16.49)"/><path class="cls-4" d="M102.82,83.39h0A15.62,15.62,0,1,0,80.47,90h0l0.65,0.4c1.52,0.91,5.25,3.28,6.28,5.3,1.3,2.54,2.22,4.56,2.22,4.56l5.54-1.64L100.71,97s-0.33-2.19-.62-5c-0.23-2.25,1.61-6.27,2.39-7.86q0.17-.32.33-0.66h0V83.39Z" transform="translate(0 0)"/><rect class="cls-3" x="86.59" y="96.86" width="17.03" height="3.16" rx="1.11" ry="1.11" transform="translate(-24.03 31.04) rotate(-16.49)"/><rect class="cls-3" x="87.49" y="99.89" width="17.03" height="3.16" rx="1.11" ry="1.11" transform="translate(-24.85 31.43) rotate(-16.49)"/><rect class="cls-3" x="88.1" y="103.41" width="17.03" height="3.16" rx="1.11" ry="1.11" transform="translate(-25.53 31.25) rotate(-16.26)"/><path class="cls-3" d="M94,107l6.64-2h0l0.57,1.92a2.43,2.43,0,0,1-1.65,3l-2,.59a2.43,2.43,0,0,1-3-1.64h0L94,107v0Z" transform="translate(0 0)"/><path class="cls-4" d="M62,137.68l-16.33,5.54-1.18-3.47,16.33-5.54,16.33-5.54C77.82,130.58,71,134.61,62,137.68Z" transform="translate(0 0)"/><path class="cls-3" d="M36.18,138.69c-4.36,1.48-7.1,5-6.12,7.9s5.31,4,9.66,2.54,7.1-5,6.12-7.9S40.54,137.21,36.18,138.69Zm0.55,1.63c3.28-1.12,6.49-.41,7.17,1.57s-1.44,4.5-4.73,5.61-6.49.41-7.17-1.57S33.45,141.44,36.73,140.32Z" transform="translate(0 0)"/><path class="cls-4" d="M53.38,129l-5.54,16.33,3.47,1.18,5.54-16.33,5.54-16.33C60.48,113.23,56.44,120,53.38,129Z" transform="translate(0 0)"/><path class="cls-3" d="M49.82,145.21c-2.88-1-6.42,1.76-7.9,6.12S41.57,160,44.46,161s6.42-1.76,7.9-6.12S52.7,146.19,49.82,145.21ZM45.12,159c-2-.67-2.69-3.88-1.57-7.17s3.63-5.4,5.61-4.73,2.69,3.88,1.57,7.17S47.1,159.72,45.12,159Z" transform="translate(0 0)"/><circle class="cls-8" cx="51.9" cy="139.06" r="1.25" transform="translate(-83.13 77.43) rotate(-45)"/><path class="cls-5" d="M26.23,61.1c0-1-3.6-1.75-8.36-1.92-0.17-4.76-1-8.36-1.92-8.36S14.2,54.42,14,59.18c-4.76.17-8.36,1-8.36,1.92S9.27,62.85,14,63c0.17,4.76,1,8.36,1.92,8.36s1.75-3.6,1.92-8.36C22.63,62.85,26.23,62.06,26.23,61.1Z" transform="translate(0 0)"/><rect class="cls-5" x="91.83" y="126.33" width="66.6" height="11.16"/><rect class="cls-6" x="95.53" y="126.33" width="0.95" height="2.87"/><rect class="cls-6" x="99.94" y="126.33" width="0.95" height="4.98"/><rect class="cls-6" x="104.34" y="126.33" width="0.95" height="2.87"/><rect class="cls-6" x="108.74" y="126.33" width="0.95" height="4.98"/><rect class="cls-6" x="113.14" y="126.33" width="0.95" height="2.87"/><rect class="cls-6" x="117.54" y="126.33" width="0.95" height="4.98"/><rect class="cls-6" x="121.94" y="126.33" width="0.95" height="2.87"/><rect class="cls-6" x="126.34" y="126.33" width="0.95" height="4.98"/><rect class="cls-6" x="130.75" y="126.33" width="0.95" height="2.87"/><rect class="cls-6" x="135.15" y="126.33" width="0.95" height="4.98"/><rect class="cls-6" x="139.55" y="126.33" width="0.95" height="2.87"/><rect class="cls-6" x="143.95" y="126.33" width="0.95" height="4.98"/><rect class="cls-6" x="148.35" y="126.33" width="0.95" height="2.87"/><rect class="cls-6" x="152.75" y="126.33" width="0.95" height="4.98"/><rect class="cls-4" x="118.77" y="14.14" width="40.53" height="40.53" rx="3.67" ry="3.67" transform="translate(70.06 159.93) rotate(-75.11)"/><circle class="cls-7" cx="148.96" cy="51.17" r="1.24" transform="translate(61.24 181.98) rotate(-75.11)"/><rect class="cls-5" x="135.25" y="30.64" width="7.57" height="7.57" transform="translate(70.04 159.94) rotate(-75.11)"/><path class="cls-6" d="M132.09,25.73l1-3.76a3.48,3.48,0,1,0-6.65-2.06q0,0.13-.07.27l-1,3.76-0.57-.15-0.27,1,7.87,2.09,0.27-1Z" transform="translate(0 0)"/><path class="cls-6" d="M131.92,17.24h0a0.36,0.36,0,0,1-.13-0.49l0.92-1.6A0.36,0.36,0,0,1,133.2,15h0a0.36,0.36,0,0,1,.13.49l-0.92,1.6A0.36,0.36,0,0,1,131.92,17.24Z" transform="translate(0 0)"/><path class="cls-6" d="M129.74,16.68h0a0.36,0.36,0,0,1-.36-0.36h0V14.48a0.36,0.36,0,0,1,.36-0.36h0a0.36,0.36,0,0,1,.36.36h0v1.84a0.36,0.36,0,0,1-.36.36h0Z" transform="translate(0 0)"/><path class="cls-6" d="M127.57,17.29h0a0.36,0.36,0,0,1-.49-0.13l-0.92-1.59a0.36,0.36,0,0,1,.13-0.49h0a0.36,0.36,0,0,1,.49.13l0.92,1.59A0.36,0.36,0,0,1,127.57,17.29Z" transform="translate(0 0)"/><path class="cls-6" d="M133.54,18.82h0a0.36,0.36,0,0,1,.13-0.49l1.59-.92a0.36,0.36,0,0,1,.49.13h0a0.36,0.36,0,0,1-.13.49l-1.59.92A0.36,0.36,0,0,1,133.54,18.82Z" transform="translate(0 0)"/><polygon class="cls-10" points="182.81 124.69 175.62 135.58 178.23 137.3 185.42 126.43 190.16 129.59 194.29 110.05 178.07 121.52 182.81 124.69"/><rect class="cls-6" x="173.49" y="73.98" width="7.26" height="29.68" transform="translate(-13.17 33.6) rotate(-10.45)"/><path class="cls-4" d="M172.41,69.24l2.12-.39a2.55,2.55,0,0,1,3,2h0l0.36,2h0l-7.14,1.32h0l-0.36-2A2.55,2.55,0,0,1,172.41,69.24Z" transform="translate(0 0)"/><rect class="cls-8" x="170.66" y="72.65" width="7.26" height="1.59" transform="translate(-10.43 32.83) rotate(-10.45)"/><polygon class="cls-4" points="181.32 111.4 176.24 104.05 183.4 102.76 181.32 111.4"/><polygon class="cls-8" points="182.05 108.36 179.54 108.82 181.32 111.4 182.05 108.36"/><circle class="cls-5" cx="253.64" cy="107.36" r="5.87"/><circle class="cls-4" cx="266.91" cy="95.04" r="4.1"/><circle class="cls-2" cx="19.02" cy="91.28" r="2.79"/><path class="cls-2" d="M77.51,82.72a3,3,0,0,0,3.71,2.06h0L99.2,79.52a3,3,0,0,0,2.06-3.71v0l-1.5-5.12L76,77.6Z" transform="translate(0 0)"/><rect class="cls-8" x="79.12" y="77.83" width="2.75" height="5.46" rx="0.97" ry="0.97" transform="translate(-19.39 25.86) rotate(-16.32)"/><rect class="cls-8" x="96.19" y="72.83" width="2.75" height="5.46" rx="0.97" ry="0.97" transform="translate(-17.3 30.46) rotate(-16.32)"/><circle class="cls-8" cx="86.29" cy="79.81" r="0.34" transform="translate(-18.95 27.46) rotate(-16.32)"/><circle class="cls-8" cx="87.79" cy="79.37" r="0.34" transform="translate(-18.77 27.87) rotate(-16.32)"/><circle class="cls-8" cx="89.3" cy="78.93" r="0.34" transform="translate(-18.58 28.27) rotate(-16.32)"/><circle class="cls-8" cx="90.79" cy="78.49" r="0.34" transform="translate(-18.4 28.68) rotate(-16.32)"/><circle class="cls-8" cx="92.29" cy="78.05" r="0.34" transform="translate(-18.21 29.08) rotate(-16.32)"/><circle class="cls-8" cx="88.17" cy="80.67" r="0.34" transform="translate(-19.12 28.03) rotate(-16.32)"/><circle class="cls-8" cx="89.68" cy="80.24" r="0.34" transform="translate(-18.93 28.43) rotate(-16.32)"/><circle class="cls-8" cx="91.17" cy="79.79" r="0.34" transform="translate(-18.75 28.83) rotate(-16.32)"/><rect class="cls-8" x="87.04" y="82.77" width="6.96" height="0.75" rx="0.26" ry="0.26" transform="translate(-19.72 28.79) rotate(-16.32)"/><path class="cls-8" d="M104.28,182.17h0a3.79,3.79,0,0,1,3.79,3.79v8.17a3.79,3.79,0,0,1-3.79,3.79h0a3.79,3.79,0,0,1-3.79-3.79V186A3.79,3.79,0,0,1,104.28,182.17Z" transform="translate(0 0)"/><path class="cls-8" d="M166.4,182.17h0a3.79,3.79,0,0,1,3.79,3.79v8.17a3.79,3.79,0,0,1-3.79,3.79h0a3.79,3.79,0,0,1-3.79-3.79V186A3.79,3.79,0,0,1,166.4,182.17Z" transform="translate(0 0)"/></svg>