<svg id="레이어_1" data-name="레이어 1" xmlns="http://www.w3.org/2000/svg" width="44" height="44" viewBox="0 0 44 44"><defs><style>.cls-1{fill:#fff;opacity:0;}.cls-2{fill:#939393;}</style></defs><title>newProject</title><rect class="cls-1" width="44" height="44"/><path class="cls-2" d="M23.91,11.3H14.22v20h16V17.61ZM28,29H16.44V13.61H23.7v4.21H28V29Z" transform="translate(-0.22 0.7)"/><path class="cls-2" d="M26.3,23.15h-2v-2a0.86,0.86,0,0,0-1.72,0v2h-2a0.86,0.86,0,0,0,0,1.72h2v2a0.86,0.86,0,0,0,1.72,0v-2h2A0.86,0.86,0,1,0,26.3,23.15Z" transform="translate(-0.22 0.7)"/></svg>