<?xml version="1.0" encoding="utf-8"?>
<!-- Generator: Adobe Illustrator 16.0.0, SVG Export Plug-In . SVG Version: 6.00 Build 0)  -->
<!DOCTYPE svg PUBLIC "-//W3C//DTD SVG 1.1//EN" "http://www.w3.org/Graphics/SVG/1.1/DTD/svg11.dtd">
<svg version="1.1" id="Layer_1" xmlns="http://www.w3.org/2000/svg" xmlns:xlink="http://www.w3.org/1999/xlink" x="0px" y="0px"
	 width="30px" height="30px" viewBox="0 0 30 30" enable-background="new 0 0 30 30" xml:space="preserve">
<rect opacity="0" fill="#FFFFFF" width="30" height="30"/>
<path fill="#808080" d="M13.281,15.648l-0.842,0.841l-0.498-0.5l-3.063,3.063c-0.524,0.522-0.524,1.37,0,1.894l0.176,0.178
	c0.524,0.523,1.371,0.523,1.895,0l3.063-3.063l-0.5-0.502l0.839-0.84c1.772,1.263,4.246,1.1,5.836-0.488
	c1.77-1.772,1.77-4.646,0-6.416c-1.771-1.772-4.644-1.772-6.417,0C12.182,11.403,12.02,13.878,13.281,15.648z M14.676,15.327
	c-1.275-1.273-1.275-3.339,0-4.61c1.271-1.273,3.337-1.274,4.609,0c1.272,1.271,1.272,3.337,0,4.61
	C18.013,16.6,15.946,16.6,14.676,15.327z"/>
</svg>
