<svg id="레이어_1" data-name="레이어 1" xmlns="http://www.w3.org/2000/svg" width="44" height="44" viewBox="0 0 44 44"><defs><style>.cls-1{fill:#fff;opacity:0;}.cls-2{fill:#939393;}</style></defs><title>openProject</title><rect class="cls-1" width="44" height="44"/><path class="cls-2" d="M23.84,11.14H14.15v20h16V17.45Zm4.09,17.69H16.37V13.46h7.25v4.21h4.31V28.83Z" transform="translate(-0.15 0.86)"/><path class="cls-2" d="M26.68,23.31l-2.74-2.74h0l-0.13-.1-0.07,0-0.08,0-0.09,0-0.07,0-0.17,0-0.17,0-0.06,0-0.1,0-0.07,0-0.08,0-0.12.1h0L20,23.31a0.86,0.86,0,0,0,1.21,1.21l1.28-1.28V27a0.86,0.86,0,0,0,1.72,0V23.25l1.28,1.28A0.86,0.86,0,1,0,26.68,23.31Z" transform="translate(-0.15 0.86)"/></svg>