<svg id="레이어_1" data-name="레이어 1" xmlns="http://www.w3.org/2000/svg" width="44" height="44" viewBox="0 0 44 44"><defs><style>.cls-1{fill:#fff;opacity:0;}.cls-2{fill:#939393;}</style></defs><title>reset</title><rect class="cls-1" width="44" height="44"/><path class="cls-2" d="M32.88,11.32H11.39A1.65,1.65,0,0,0,9.73,13V29.51a1.65,1.65,0,0,0,1.65,1.65H32.88a1.65,1.65,0,0,0,1.65-1.65V13A1.65,1.65,0,0,0,32.88,11.32ZM32.25,28.16a0.71,0.71,0,0,1-.71.71H12.73A0.71,0.71,0,0,1,12,28.16V14.33a0.71,0.71,0,0,1,.71-0.71h18.8a0.71,0.71,0,0,1,.71.71V28.16Z" transform="translate(-0.13 0.76)"/><path class="cls-2" d="M30.18,19.07H14.09a0.4,0.4,0,0,0-.4.4v4a1.41,1.41,0,0,0,1.41,1.41H29.17a1.41,1.41,0,0,0,1.41-1.41v-4A0.4,0.4,0,0,0,30.18,19.07Zm-12.88,4a1,1,0,0,1-1,1H16.27a1,1,0,0,1-1-1v-2.2a1,1,0,0,1,1-1h0.06a1,1,0,0,1,1,1v2.2Zm11.67,0a1,1,0,0,1-1,1H27.94a1,1,0,0,1-1-1v-2.2a1,1,0,0,1,1-1H28a1,1,0,0,1,1,1v2.2Z" transform="translate(-0.13 0.76)"/></svg>