<svg id="레이어_1" data-name="레이어 1" xmlns="http://www.w3.org/2000/svg" width="44" height="44" viewBox="0 0 44 44"><defs><style>.cls-1{fill:#fff;opacity:0;}.cls-2{fill:#939393;}</style></defs><title>setting</title><rect class="cls-1" width="44" height="44"/><circle class="cls-2" cx="22" cy="22" r="2.24"/><path class="cls-2" d="M33.14,20.47a0.61,0.61,0,0,0-.48-0.56l-2.47-.72,0-.1,0-.14L30,18.71,30,18.55l-0.08-.21-0.07-.18L29.76,18l-0.09-.2-0.08-.15-0.11-.21-0.08-.13,0-.09,1.24-2.26a0.62,0.62,0,0,0-.06-0.74l-0.44-.44-0.41-.41-0.4-.4a0.62,0.62,0,0,0-.74-0.06l-2.26,1.24-0.09,0L26.07,14l-0.22-.11-0.15-.07-0.2-.09-0.17-.08-0.18-.07-0.21-.08-0.16-.05-0.23-.08-0.15,0-0.09,0-0.72-2.47A0.62,0.62,0,0,0,23,10.35H21.25a0.61,0.61,0,0,0-.56.48L20,13.31l-0.1,0-0.14,0-0.23.08-0.16.05-0.2.08-0.18.07-0.18.08-0.2.09-0.15.07L18.2,14l-0.13.07-0.09,0-2.26-1.24A0.62,0.62,0,0,0,15,13l-0.43.44-0.41.41-0.4.4a0.62,0.62,0,0,0-.06.74l1.24,2.26,0,0.08-0.08.13-0.11.21-0.08.15-0.09.2-0.08.18-0.07.18-0.08.21-0.05.16-0.08.23,0,0.14a0.58,0.58,0,0,1,0,.1l-2.47.72a0.61,0.61,0,0,0-.48.56v1.77a0.61,0.61,0,0,0,.48.56l2.47,0.72,0,0.09,0,0.15L14.23,24l0.06,0.16c0,0.07,0,.14.08,0.2l0.07,0.18,0.08,0.17,0.09,0.21,0.07,0.15,0.11,0.22,0.07,0.13,0.05,0.09-1.24,2.26a0.61,0.61,0,0,0,.06.74l0.44,0.44,0.41,0.41,0.4,0.4a0.61,0.61,0,0,0,.74.06L18,28.58l0.09,0L18.2,28.7l0.21,0.11,0.15,0.07L18.77,29l0.18,0.08,0.18,0.07,0.21,0.08,0.16,0.05,0.23,0.08,0.14,0,0.1,0,0.72,2.47a0.61,0.61,0,0,0,.57.48H23a0.61,0.61,0,0,0,.57-0.48l0.72-2.47,0.09,0,0.16,0,0.06,0,0.15-.05,0.18-.06,0.19-.07L25.33,29,25.49,29l0.22-.1,0.14-.07,0.23-.12,0.11-.06,0.1-.06,2.26,1.24a0.61,0.61,0,0,0,.74-0.06l0.44-.44,0.41-.41,0.4-.4a0.62,0.62,0,0,0,.06-0.74l-1.24-2.26,0.05-.09,0-.09,0,0,0.12-.22,0.05-.1,0,0,0.09-.21,0.08-.17,0.07-.19,0.08-.2L30,24l0.08-.23,0-.14,0-.1,2.48-.72a0.61,0.61,0,0,0,.48-0.56V20.47h0Zm-6.05.88h0c0,0.08,0,.16,0,0.24s0,0.08,0,.13,0,0.08,0,.12L27,22s0,0,0,.07h0c0,0.06,0,.11,0,0.17a0.41,0.41,0,0,1,0,.07l0,0.17,0,0.07,0,0.16,0,0.07,0,0.15,0,0.09,0,0.13,0,0.1,0,0.11-0.05.11,0,0.08v0l-0.06.12,0,0.08-0.07.13,0,0.07-0.09.13,0,0.07-0.09.13-0.06.08L26,24.49l-0.09.1-0.07.09-0.17.18h0L25.46,25l-0.09.08-0.09.08-0.12.09-0.06,0h0l-0.14.1-0.06,0-0.14.09-0.06,0-0.14.08-0.07,0-0.14.07-0.08,0-0.13.06-0.1,0-0.11,0L23.8,26l-0.1,0-0.13,0-0.09,0-0.14,0-0.09,0-0.15,0-0.09,0-0.15,0h-0.1l-0.14,0h-1l-0.14,0h-0.1l-0.16,0H21.17l-0.16,0-0.08,0-0.15,0-0.08,0-0.14,0-0.09,0-0.12,0-0.11,0-0.11,0L20,25.82l-0.09,0-0.13-.07-0.07,0-0.14-.08-0.06,0-0.14-.09-0.06,0-0.13-.1-0.07-.05L19,25.18l-0.08-.07L18.81,25l-0.13-.13,0,0h0l0,0-0.12-.13h0l-0.08-.1h0l0,0,0,0-0.1-.13,0-.06-0.1-.14,0-.06L17.93,24l0-.06-0.08-.15,0-.06-0.07-.14,0-.08-0.06-.13,0-.09,0-.12,0-.11,0-.11,0-.13,0-.1,0-.14,0-.09,0-.15,0-.09,0-.14a0.85,0.85,0,0,1,0-.11,1.31,1.31,0,0,1,0-.13s0-.1,0-0.14V21.6c0-.08,0-0.16,0-0.24h0c0-.08,0-0.16,0-0.25V20.87s0-.1,0-0.14,0-.06,0-0.1,0-.1,0-0.15l0-.08c0-.05,0-0.11,0-0.16l0-.08,0-.15,0-.08,0-.14,0-.09,0-.12,0-.1,0-.11,0.05-.12,0-.09L17.77,19l0-.08,0.08-.13,0-.07L18,18.6l0-.07,0.09-.12,0.06-.08,0.09-.11,0.09-.1L18.47,18c0.11-.12.23-0.24,0.35-0.35l0.08-.07,0.1-.09,0.11-.09,0.08-.06,0.13-.09,0.07,0,0.14-.09,0.07,0L19.72,17l0.08,0,0.13-.07,0.09,0,0.12-.06,0.1,0,0.11,0,0.12,0,0.09,0,0.14,0,0.08,0,0.15,0H21l0.16,0h0.08l0.16,0H21.5l0.14,0h1l0.15,0h0.09l0.16,0H23.1l0.16,0,0.08,0,0.16,0,0.08,0,0.14,0,0.09,0,0.13,0,0.1,0,0.11,0,0.11,0.05,0.1,0L24.47,17l0.08,0,0.13,0.07,0.08,0,0.13,0.08L25,17.29l0.13,0.09,0.08,0.06,0.11,0.09,0.1,0.09,0.08,0.07,0.18,0.17h0L25.8,18l0.08,0.09L26,18.21l0.09,0.12,0.05,0.07,0.09,0.13,0,0.06,0.09,0.14v0l0,0,0.08,0.14,0,0.07,0.07,0.14,0,0.08,0.06,0.13,0,0.1,0,0.11,0,0.12a0.57,0.57,0,0,1,0,.1l0,0.13,0,0.09,0,0.14,0,0.09,0,0.15,0,0.09,0,0.15s0,0.06,0,.1,0,0.09,0,.14,0,0.09,0,.13,0,0.07,0,.11,0,0.16,0,.25h0Z" transform="translate(-0.14 0.65)"/></svg>