<?xml version="1.0" encoding="utf-8"?>
<!-- Generator: Adobe Illustrator 19.2.1, SVG Export Plug-In . SVG Version: 6.00 Build 0)  -->
<svg version="1.1" id="레이어_1" xmlns="http://www.w3.org/2000/svg" xmlns:xlink="http://www.w3.org/1999/xlink" x="0px"
	 y="0px" viewBox="0 0 120 30" style="enable-background:new 0 0 120 30;" xml:space="preserve">
<style type="text/css">
	.st0{fill:#26CAD3;stroke:#26CAD3;stroke-width:2;stroke-miterlimit:10;}
	.st1{fill:#FFFFFF;}
	.st2{font-family:'NanumGothic';}
	.st3{font-size:12px;}
</style>
<path class="st0" d="M119,27.1c0,1-0.9,1.9-2,1.9H3c-1.1,0-2-0.8-2-1.9V2.9C1,1.8,1.9,1,3,1H117c1.1,0,2,0.8,2,1.9V27.1z"/>
<g>
	<g>
		<text transform="matrix(1 0 0 1 15.6621 18.5997)" class="st1 st2 st3">Show details</text>
	</g>
	<path class="st1" d="M103.5,13.8l-4,4l-4-4c-0.2-0.2-0.5-0.2-0.7,0c-0.2,0.2-0.2,0.5,0,0.7l4.3,4.3c0.2,0.2,0.5,0.2,0.7,0l4.3-4.3
		c0.2-0.2,0.2-0.5,0-0.7C104,13.6,103.7,13.6,103.5,13.8z"/>
</g>
</svg>
