<svg id="레이어_1" data-name="레이어 1" xmlns="http://www.w3.org/2000/svg" viewBox="0 0 90 90"><defs><style>.cls-1,.cls-13{fill:#fff;}.cls-1,.cls-2{opacity:0;}.cls-3{fill:#26cad3;}.cls-4{fill:#7c64ed;}.cls-5{fill:#f1f2f2;}.cls-6{fill:#b7afef;}.cls-7{fill:#d1d1d1;}.cls-8{fill:#f9c941;}.cls-9{fill:#414042;}.cls-10{fill:#443a35;}.cls-11{fill:#231f20;}.cls-12{fill:#90e0de;}.cls-13{stroke:#939598;stroke-width:0.5px;}.cls-13,.cls-14{stroke-miterlimit:10;}.cls-14{fill:none;stroke:#7c64ed;}</style></defs><title>wizardImage</title><rect class="cls-1" width="90" height="90"/><circle class="cls-3" cx="44.5" cy="51.14" r="33.98"/><path class="cls-4" d="M49.6,69.25h-10a5.13,5.13,0,0,0-5.13,5.13v9.22a34.15,34.15,0,0,0,20.3-.07V74.38A5.13,5.13,0,0,0,49.6,69.25Z" transform="translate(0.03)"/><rect class="cls-5" x="21.25" y="36.94" width="47.49" height="32.35"/><path class="cls-6" d="M26.77,56.2a4.45,4.45,0,0,0,4.45,4.45H58.72a4.45,4.45,0,0,0,4.45-4.45V48.34H26.77V56.2Z" transform="translate(0.03)"/><polygon class="cls-4" points="68.75 36.94 21.25 36.94 5.18 40.59 21.25 38.97 21.25 48.34 68.75 48.34 68.75 38.97 84.82 40.59 68.75 36.94"/><rect class="cls-7" x="21.24" y="38.97" width="47.49" height="9.37"/><rect x="30.14" y="51.14" width="3.23" height="6.71" rx="1.53" ry="1.53"/><rect x="56.63" y="51.14" width="3.23" height="6.71" rx="1.53" ry="1.53"/><circle class="cls-8" cx="40.4" cy="55.73" r="0.5"/><circle class="cls-8" cx="42.7" cy="55.73" r="0.5"/><circle class="cls-8" cx="45" cy="55.73" r="0.5"/><circle class="cls-8" cx="47.3" cy="55.73" r="0.5"/><circle class="cls-8" cx="49.6" cy="55.73" r="0.5"/><circle class="cls-8" cx="42.7" cy="57.72" r="0.5"/><circle class="cls-8" cx="45" cy="57.72" r="0.5"/><circle class="cls-8" cx="47.3" cy="57.72" r="0.5"/><path class="cls-9" d="M49.53,61.64H40.4a0.55,0.55,0,0,0-.55.55h0a0.55,0.55,0,0,0,.55.55h9.13a0.55,0.55,0,0,0,.55-0.55h0A0.55,0.55,0,0,0,49.53,61.64Z" transform="translate(0.03)"/><path class="cls-10" d="M21.1,39C9.47,39,0,41.06,0,43.65s9.43,4.68,21.06,4.68h0.12V39H21.1Z" transform="translate(0.03)"/><path class="cls-10" d="M68.83,48.32c11.63,0,21.06-2.09,21.06-4.68S80.47,39,68.83,39H68.71v9.35h0.12Z" transform="translate(0.03)"/><path class="cls-4" d="M21.22,36.94s10.45-7.06,10.61-24.19c0,0-.16-3.56,2.31-3.62S46.59,9.7,51.21,7.7a7.53,7.53,0,0,0,0-4.62C50.38,0.77,53.38,1.5,53.38,1.5S63,3.08,66.67,4.76l-7.88.63s-1.29,0-.58,1.54C58.61,7.8,61,12.85,61,12.85s0.74,1.5-.53,2-6.38,3.56-5.76,4.31,14,17.77,14,17.77H21.22Z" transform="translate(0.03)"/><path class="cls-11" d="M26,29.78s-2.51,5.11-4.77,7.16H68.71s-3.3-4.75-3.62-7.16H26Z" transform="translate(0.03)"/><path class="cls-12" d="M37.44,24.31c0-.29-1.11-0.54-2.57-0.59-0.05-1.47-.3-2.57-0.59-2.57s-0.54,1.11-.59,2.57c-1.47.05-2.57,0.3-2.57,0.59s1.11,0.54,2.57.59c0.05,1.47.3,2.57,0.59,2.57s0.54-1.11.59-2.57C36.33,24.85,37.44,24.61,37.44,24.31Z" transform="translate(0.03)"/><path class="cls-12" d="M55.39,11.95c0-.29-1.11-0.54-2.57-0.59-0.05-1.47-.3-2.57-0.59-2.57s-0.54,1.11-.59,2.57c-1.47.05-2.57,0.3-2.57,0.59s1.11,0.54,2.57.59c0.05,1.47.3,2.57,0.59,2.57s0.54-1.11.59-2.57C54.29,12.48,55.39,12.24,55.39,11.95Z" transform="translate(0.03)"/><path class="cls-12" d="M50.93,21.15c0-.29-1.11-0.54-2.57-0.59-0.05-1.47-.3-2.57-0.59-2.57s-0.54,1.11-.59,2.57c-1.47.05-2.57,0.3-2.57,0.59s1.11,0.54,2.57.59c0.05,1.47.3,2.57,0.59,2.57s0.54-1.11.59-2.57C49.82,21.69,50.93,21.44,50.93,21.15Z" transform="translate(0.03)"/><path class="cls-12" d="M39.4,12.94a1.82,1.82,0,0,0-1.29-.3,1.82,1.82,0,0,0-.3-1.29,1.82,1.82,0,0,0-.3,1.29,1.82,1.82,0,0,0-1.29.3,1.82,1.82,0,0,0,1.29.3,1.82,1.82,0,0,0,.3,1.29,1.82,1.82,0,0,0,.3-1.29A1.82,1.82,0,0,0,39.4,12.94Z" transform="translate(0.03)"/><path class="cls-12" d="M42.45,20.53a1.82,1.82,0,0,0-1.29-.3,1.82,1.82,0,0,0-.3-1.29,1.82,1.82,0,0,0-.3,1.29,1.82,1.82,0,0,0-1.29.3,1.82,1.82,0,0,0,1.29.3,1.82,1.82,0,0,0,.3,1.29,1.82,1.82,0,0,0,.3-1.29A1.82,1.82,0,0,0,42.45,20.53Z" transform="translate(0.03)"/><path class="cls-12" d="M56.59,5.35a1.82,1.82,0,0,0-1.29-.3A1.82,1.82,0,0,0,55,3.77a1.82,1.82,0,0,0-.3,1.29,1.82,1.82,0,0,0-1.29.3,1.82,1.82,0,0,0,1.29.3A1.82,1.82,0,0,0,55,6.93a1.82,1.82,0,0,0,.3-1.29A1.82,1.82,0,0,0,56.59,5.35Z" transform="translate(0.03)"/><path class="cls-12" d="M57,26.56a1.82,1.82,0,0,0-1.29-.3,1.82,1.82,0,0,0-.3-1.29,1.82,1.82,0,0,0-.3,1.29,1.82,1.82,0,0,0-1.29.3,1.82,1.82,0,0,0,1.29.3,1.82,1.82,0,0,0,.3,1.29,1.82,1.82,0,0,0,.3-1.29A1.82,1.82,0,0,0,57,26.56Z" transform="translate(0.03)"/><path class="cls-13" d="M63.7,77.55a1.21,1.21,0,0,1-1.3,1.12l-1-.08,0.07,0.07,3.92,3.92a1.1,1.1,0,0,1-1.56,1.56l0.27,0.27A1.1,1.1,0,1,1,62.56,86l-0.27-.27a1.1,1.1,0,0,1-1.56,1.56l-0.54-.54a1.1,1.1,0,1,1-1.56,1.56l-3.38-3.38-1.05-1.05L53.33,83a3.23,3.23,0,0,1,0-4.57L55,76.74a3.23,3.23,0,0,1,3.12-.83l4.47,0.34A1.21,1.21,0,0,1,63.7,77.55Z" transform="translate(0.03)"/><line class="cls-13" x1="63.89" y1="84.15" x2="61.22" y2="81.47"/><line class="cls-13" x1="62.41" y1="85.78" x2="59.66" y2="83.03"/><line class="cls-13" x1="60.61" y1="87.1" x2="58.1" y2="84.59"/><path class="cls-13" d="M25.17,77.55a1.21,1.21,0,0,0,1.3,1.12l1-.08-0.07.07-3.92,3.92A1.1,1.1,0,0,0,25,84.15l-0.27.27A1.1,1.1,0,1,0,26.31,86l0.27-.27a1.1,1.1,0,0,0,1.56,1.56l0.54-.54a1.1,1.1,0,1,0,1.56,1.56l3.38-3.38,1.05-1.05L35.54,83a3.23,3.23,0,0,0,0-4.57l-1.67-1.67a3.23,3.23,0,0,0-3.12-.83l-4.47.34A1.21,1.21,0,0,0,25.17,77.55Z" transform="translate(0.03)"/><line class="cls-13" x1="25.05" y1="84.15" x2="27.73" y2="81.47"/><line class="cls-13" x1="26.54" y1="85.78" x2="29.29" y2="83.03"/><line class="cls-13" x1="28.34" y1="87.1" x2="30.84" y2="84.59"/><circle class="cls-14" cx="29.54" cy="53.81" r="11.17"/><circle class="cls-14" cx="60.43" cy="53.81" r="11.17"/><path class="cls-14" d="M49.24,54.4a10.54,10.54,0,0,0-8.58,0" transform="translate(0.03)"/><path class="cls-11" d="M29.25,69.29l5.46,3.4a5.09,5.09,0,0,1,1-1.7,21.41,21.41,0,0,1,8.86,2.94A8.53,8.53,0,0,0,39,69.29" transform="translate(0.03)"/><path class="cls-11" d="M59.9,69.29l-5.46,3.4a5.09,5.09,0,0,0-1-1.7,21.41,21.41,0,0,0-8.86,2.94,8.53,8.53,0,0,1,5.58-4.65" transform="translate(0.03)"/><line class="cls-11" x1="44.61" y1="73.72" x2="44.61" y2="74.27"/><path class="cls-12" d="M50.93,79c0-.29-1.11-0.54-2.57-0.59-0.05-1.47-.3-2.57-0.59-2.57s-0.54,1.11-.59,2.57c-1.47.05-2.57,0.3-2.57,0.59s1.11,0.54,2.57.59c0.05,1.47.3,2.57,0.59,2.57s0.54-1.11.59-2.57C49.82,79.58,50.93,79.33,50.93,79Z" transform="translate(0.03)"/><path class="cls-12" d="M53.25,74.27A1.82,1.82,0,0,0,52,74a1.82,1.82,0,0,0-.3-1.29,1.82,1.82,0,0,0-.3,1.29,1.82,1.82,0,0,0-1.29.3,1.82,1.82,0,0,0,1.29.3,1.82,1.82,0,0,0,.3,1.29,1.82,1.82,0,0,0,.3-1.29A1.82,1.82,0,0,0,53.25,74.27Z" transform="translate(0.03)"/><path class="cls-12" d="M39.4,82a1.82,1.82,0,0,0-1.29-.3,1.82,1.82,0,0,0-.3-1.29,1.82,1.82,0,0,0-.3,1.29,1.82,1.82,0,0,0-1.29.3,1.82,1.82,0,0,0,1.29.3,1.82,1.82,0,0,0,.3,1.29,1.82,1.82,0,0,0,.3-1.29A1.82,1.82,0,0,0,39.4,82Z" transform="translate(0.03)"/><path class="cls-12" d="M40.08,74a1.82,1.82,0,0,0-1.29-.3,1.82,1.82,0,0,0-.3-1.29,1.82,1.82,0,0,0-.3,1.29,1.82,1.82,0,0,0-1.29.3,1.82,1.82,0,0,0,1.29.3,1.82,1.82,0,0,0,.3,1.29,1.82,1.82,0,0,0,.3-1.29A1.82,1.82,0,0,0,40.08,74Z" transform="translate(0.03)"/><path class="cls-12" d="M43,78.36a1,1,0,0,0-.72-0.17,1,1,0,0,0-.17-0.72,1,1,0,0,0-.17.72,1,1,0,0,0-.72.17,1,1,0,0,0,.72.17,1,1,0,0,0,.17.72,1,1,0,0,0,.17-0.72A1,1,0,0,0,43,78.36Z" transform="translate(0.03)"/></svg>