<?xml version="1.0" encoding="utf-8"?>
<!-- Generator: Adobe Illustrator 16.0.0, SVG Export Plug-In . SVG Version: 6.00 Build 0)  -->
<!DOCTYPE svg PUBLIC "-//W3C//DTD SVG 1.1//EN" "http://www.w3.org/Graphics/SVG/1.1/DTD/svg11.dtd">
<svg version="1.1" id="Layer_1" xmlns="http://www.w3.org/2000/svg" xmlns:xlink="http://www.w3.org/1999/xlink" x="0px" y="0px"
	 width="30px" height="30px" viewBox="0 0 30 30" enable-background="new 0 0 30 30" xml:space="preserve">
<rect opacity="0" fill="#FFFFFF" width="30" height="30"/>
<g>
	<polygon fill="#414141" points="22.508,11.682 7.508,11.682 5.021,14.981 24.994,14.981 	"/>
	<path fill="#939393" d="M4.3,10.14c-0.169-0.077-0.329-0.058-0.479-0.002L0.18,11.451l0,0c-0.248,0.117-0.223,0.465-0.024,0.604
		l4.865,2.926l2.487-3.299L4.3,10.14z"/>
	<path fill="#939393" d="M25.713,10.14c0.172-0.077,0.329-0.058,0.48-0.002l3.639,1.313l0,0c0.252,0.117,0.223,0.465,0.027,0.604
		l-4.865,2.926l-2.486-3.299L25.713,10.14z"/>
	<path fill="#939393" d="M5.021,14.981v12.373c0,0.551,0.446,0.998,0.997,0.998h17.979c0.551,0,0.998-0.447,0.998-0.998V14.981
		H5.021z"/>
	
		<rect x="10.493" y="9.143" transform="matrix(0.874 -0.4859 0.4859 0.874 -3.924 7.6166)" fill="#26CAD3" width="4.468" height="4.467"/>
	
		<rect x="16.639" y="5.198" transform="matrix(0.822 0.5695 -0.5695 0.822 7.5916 -9.4247)" fill="#26CAD3" width="4.467" height="4.466"/>
	<rect x="10.495" y="1.648" fill="#26CAD3" width="4.466" height="4.469"/>
</g>
</svg>
