<?xml version="1.0" encoding="utf-8"?>
<!-- Generator: Adobe Illustrator 16.0.0, SVG Export Plug-In . SVG Version: 6.00 Build 0)  -->
<!DOCTYPE svg PUBLIC "-//W3C//DTD SVG 1.1//EN" "http://www.w3.org/Graphics/SVG/1.1/DTD/svg11.dtd">
<svg version="1.1" id="Layer_1" xmlns="http://www.w3.org/2000/svg" xmlns:xlink="http://www.w3.org/1999/xlink" x="0px" y="0px"
	 width="40px" height="50px" viewBox="0 0 40 50" enable-background="new 0 0 40 50" xml:space="preserve">
<circle fill="#939393" cx="13.753" cy="25.918" r="0.5"/>
<path fill="#26CAD3" stroke="#26CAD3" stroke-miterlimit="10" d="M40,0.546H4.792c-2.161,0-3.913,1.751-3.913,3.912v41.076
	c0,2.161,1.752,3.913,3.913,3.913H40"/>
<polygon fill="#5E5E5E" points="27.432,21.906 13.448,21.906 11.133,24.98 29.748,24.98 "/>
<path fill="#FFFFFF" d="M10.464,20.468c-0.16-0.071-0.307-0.054-0.451-0.002l-3.39,1.223l0,0c-0.229,0.111-0.207,0.434-0.022,0.563
	l4.531,2.728l2.315-3.074L10.464,20.468z"/>
<path fill="#FFFFFF" d="M30.416,20.468c0.159-0.071,0.309-0.054,0.449-0.002l3.391,1.223l0,0c0.232,0.111,0.207,0.434,0.023,0.563
	l-4.531,2.728l-2.318-3.074L30.416,20.468z"/>
<path fill="#FFFFFF" d="M11.133,24.98v11.53c0,0.516,0.417,0.928,0.933,0.928h16.75c0.516,0,0.933-0.412,0.933-0.928V24.98H11.133z"
	/>
<rect x="21.962" y="15.864" transform="matrix(0.8219 0.5696 -0.5696 0.8219 14.502 -10.4992)" fill="#FFFFFF" width="4.162" height="4.161"/>
<rect x="16.237" y="12.556" fill="#FFFFFF" width="4.161" height="4.162"/>
<rect x="16.232" y="19.539" transform="matrix(0.8739 -0.4861 0.4861 0.8739 -8.2002 11.6272)" fill="#FFFFFF" width="4.163" height="4.163"/>
</svg>
