<?xml version="1.0" encoding="utf-8"?>
<!-- Generator: Adobe Illustrator 19.2.1, SVG Export Plug-In . SVG Version: 6.00 Build 0)  -->
<svg version="1.1" id="레이어_1" xmlns="http://www.w3.org/2000/svg" xmlns:xlink="http://www.w3.org/1999/xlink" x="0px"
	 y="0px" viewBox="0 0 20 20" style="enable-background:new 0 0 20 20;" xml:space="preserve">
<style type="text/css">
	.st0{opacity:0;fill:#FFFFFF;}
	.st1{fill:#808080;}
</style>
<rect x="0" class="st0" width="20" height="20"/>
<path class="st1" d="M8.3,10.6l-0.8,0.8L6.9,11l-3.1,3.1c-0.5,0.5-0.5,1.4,0,1.9l0.2,0.2c0.5,0.5,1.4,0.5,1.9,0L9,13.1l-0.5-0.5
	l0.8-0.8c1.8,1.3,4.2,1.1,5.8-0.5c1.8-1.8,1.8-4.6,0-6.4C13.4,3,10.5,3,8.8,4.8C7.2,6.4,7,8.9,8.3,10.6z M9.7,10.3
	C8.4,9.1,8.4,7,9.7,5.7c1.3-1.3,3.3-1.3,4.6,0c1.3,1.3,1.3,3.3,0,4.6C13,11.6,10.9,11.6,9.7,10.3z"/>
</svg>
