<svg id="레이어_1" data-name="레이어 1" xmlns="http://www.w3.org/2000/svg" width="28" height="28" viewBox="0 0 28 28"><defs><style>.cls-1,.cls-2{fill:#fff;}.cls-1{opacity:0;}</style></defs><title>eraser</title><rect class="cls-1" width="28" height="28"/><path class="cls-2" d="M-13.24,18l7,4.94a0.32,0.32,0,0,0,.44,0l0.68-1a0.32,0.32,0,0,0-.14-0.41l-7-4.94a0.32,0.32,0,0,0-.44,0l-0.68,1A0.32,0.32,0,0,0-13.24,18Z" transform="translate(20.95 -2.56)"/><path class="cls-2" d="M-14.42,24.61l5.14,3.56h0l1.48,1h0L4.73,11.49-6.1,3.9-18.63,21.64ZM-6.11,6.52a0.61,0.61,0,0,1,.85-0.15l7.39,5.15a0.61,0.61,0,0,1,.15.85L-7.78,26.6a0.61,0.61,0,0,1-.85.15L-16,21.6a0.61,0.61,0,0,1-.15-0.85Z" transform="translate(20.95 -2.56)"/></svg>