<svg id="레이어_1" data-name="레이어 1" xmlns="http://www.w3.org/2000/svg" width="210" height="210" viewBox="0 0 210 210">
  <defs>
    <style>
      .cls-1, .cls-3, .cls-4, .cls-6 {
        fill: #fff;
      }

      .cls-1 {
        fill-opacity: 0;
      }

      .cls-2 {
        fill: #f1f1f1;
      }

      .cls-3, .cls-4, .cls-7, .cls-8, .cls-9 {
        stroke: #26cad3;
        stroke-miterlimit: 10;
      }

      .cls-3, .cls-8 {
        stroke-width: 1.5px;
      }

      .cls-5, .cls-9 {
        fill: #26cad3;
      }

      .cls-7 {
        fill: none;
      }

      .cls-8 {
        fill: #f4f5f5;
      }
    </style>
  </defs>
  <title>helpMotor</title>
  <rect class="cls-1" width="210" height="210"/>
  <g>
    <path class="cls-2" d="M73.8,84.22l45.71,26.42a3.47,3.47,0,0,1,0,6L73.75,143.11a8.88,8.88,0,0,1-8.88,0L19.17,116.69a3.47,3.47,0,0,1,0-6L64.92,84.26A8.88,8.88,0,0,1,73.8,84.22Z"/>
    <polyline class="cls-2" points="84.27 131.55 103.3 142.62 105.58 124.73 82.58 131.55"/>
    <path class="cls-3" d="M108.15,107.05V72H26.75v35.09a2.71,2.71,0,0,0,1.32,2.84L64,130.62a7,7,0,0,0,7,0l35.87-20.72A2.71,2.71,0,0,0,108.15,107.05Z"/>
    <path class="cls-3" d="M142.84,90.58l35.89,20.72a2.72,2.72,0,0,1,0,4.72l-35.89,20.72a7,7,0,0,1-7,0L100,116a2.72,2.72,0,0,1,0-4.72l35.89-20.72A7,7,0,0,1,142.84,90.58Z"/>
    <path class="cls-3" d="M64,48.87,28.09,69.6a2.72,2.72,0,0,0,0,4.72L64,95a7,7,0,0,0,7,0l35.84-20.72a2.72,2.72,0,0,0,0-4.72L70.94,48.87A7,7,0,0,0,64,48.87Z"/>
    <path class="cls-2" d="M143.85,124.4l45.75,26.42a3.47,3.47,0,0,1,0,6l-45.77,26.42a8.88,8.88,0,0,1-8.88,0L89.22,156.84a3.47,3.47,0,0,1,0-6L135,124.41A8.88,8.88,0,0,1,143.85,124.4Z"/>
    <path class="cls-4" d="M108.15,72.45a2.71,2.71,0,0,0-1.37-2.84L70.94,49a7,7,0,0,0-7,0L28.09,69.61a2.71,2.71,0,0,0-1.34,2.84v9.76a2.71,2.71,0,0,0,1.32,2.84L64,105.78a7,7,0,0,0,7,0L106.79,85a2.71,2.71,0,0,0,1.37-2.8Z"/>
    <polygon class="cls-3" points="26.78 71.95 26.78 71.96 67.46 95.44 108.14 71.96 108.14 71.95 67.46 48.45 26.78 71.95"/>
    <path class="cls-4" d="M29.83,86V98a7.39,7.39,0,0,0,3.53,5.57l27.51,15.88c1.95,1.12,3.53.46,3.53-1.49V106Z"/>
    <path class="cls-4" d="M59.17,115.94h0a4.36,4.36,0,0,1-2.55-3.63v-6c0-1.4,1.15-2.07,2.55-1.48h0a4.36,4.36,0,0,1,2.55,3.63v6C61.75,115.88,60.59,116.54,59.17,115.94Z"/>
    <path class="cls-4" d="M35.05,102h0a4.36,4.36,0,0,1-2.55-3.63v-6c0-1.4,1.15-2.07,2.55-1.48h0a4.36,4.36,0,0,1,2.55,3.62v6A1.66,1.66,0,0,1,35.05,102Z"/>
    <path class="cls-5" d="M53.21,106.23a.55.55,0,0,1-.82.53,1.31,1.31,0,0,1-.82-1.12.55.55,0,0,1,.82-.53A1.31,1.31,0,0,1,53.21,106.23Z"/>
    <path class="cls-5" d="M50.55,104.61a.55.55,0,0,1-.82.53A1.31,1.31,0,0,1,48.9,104a.55.55,0,0,1,.82-.53A1.31,1.31,0,0,1,50.55,104.61Z"/>
    <path class="cls-5" d="M47.94,103a.55.55,0,0,1-.82.53,1.31,1.31,0,0,1-.82-1.12.55.55,0,0,1,.82-.53A1.31,1.31,0,0,1,47.94,103Z"/>
    <path class="cls-5" d="M45.31,101.39a.55.55,0,0,1-.82.53,1.31,1.31,0,0,1-.82-1.12.55.55,0,0,1,.82-.53A1.31,1.31,0,0,1,45.31,101.39Z"/>
    <path class="cls-5" d="M42.69,99.76a.55.55,0,0,1-.82.53A1.31,1.31,0,0,1,41,99.17a.55.55,0,0,1,.82-.53A1.31,1.31,0,0,1,42.69,99.76Z"/>
    <path class="cls-5" d="M50.55,107.47a.55.55,0,0,1-.82.53,1.31,1.31,0,0,1-.81-1.23.55.55,0,0,1,.82-.53A1.31,1.31,0,0,1,50.55,107.47Z"/>
    <path class="cls-5" d="M47.94,105.86a.55.55,0,0,1-.82.53,1.31,1.31,0,0,1-.82-1.12.55.55,0,0,1,.82-.53A1.31,1.31,0,0,1,47.94,105.86Z"/>
    <path class="cls-5" d="M45.31,104.24a.55.55,0,0,1-.82.53,1.31,1.31,0,0,1-.82-1.12.55.55,0,0,1,.82-.53A1.31,1.31,0,0,1,45.31,104.24Z"/>
    <path class="cls-4" d="M105.09,86V98a7.39,7.39,0,0,1-3.53,5.57L74,119.45c-1.95,1.12-3.53.46-3.53-1.49V106Z"/>
    <path class="cls-4" d="M75.73,115.94h0a4.36,4.36,0,0,0,2.55-3.63v-6c0-1.4-1.15-2.07-2.55-1.48h0a4.36,4.36,0,0,0-2.55,3.63v6a1.64,1.64,0,0,0,2.55,1.48Z"/>
    <path class="cls-4" d="M99.88,102h0a4.36,4.36,0,0,0,2.55-3.63v-6c0-1.4-1.15-2.07-2.55-1.48h0a4.36,4.36,0,0,0-2.54,3.62v6A1.65,1.65,0,0,0,99.88,102Z"/>
    <path class="cls-5" d="M81.72,106.23a.55.55,0,0,0,.82.53,1.31,1.31,0,0,0,.85-1.15.55.55,0,0,0-.82-.53A1.31,1.31,0,0,0,81.72,106.23Z"/>
    <path class="cls-5" d="M84.35,104.61a.55.55,0,0,0,.82.53A1.31,1.31,0,0,0,86,104a.55.55,0,0,0-.82-.53A1.31,1.31,0,0,0,84.35,104.61Z"/>
    <path class="cls-5" d="M87,103a.55.55,0,0,0,.82.53,1.31,1.31,0,0,0,.82-1.12.55.55,0,0,0-.82-.53A1.31,1.31,0,0,0,87,103Z"/>
    <path class="cls-5" d="M89.55,101.39a.55.55,0,0,0,.82.53,1.31,1.31,0,0,0,.82-1.12.55.55,0,0,0-.82-.53A1.31,1.31,0,0,0,89.55,101.39Z"/>
    <path class="cls-5" d="M92.24,99.76a.55.55,0,0,0,.82.53,1.31,1.31,0,0,0,.82-1.12.55.55,0,0,0-.82-.53A1.31,1.31,0,0,0,92.24,99.76Z"/>
    <path class="cls-5" d="M84.35,107.47a.55.55,0,0,0,.82.53,1.31,1.31,0,0,0,.82-1.12.55.55,0,0,0-.82-.53A1.31,1.31,0,0,0,84.35,107.47Z"/>
    <path class="cls-5" d="M87,105.86a.55.55,0,0,0,.82.53,1.31,1.31,0,0,0,.82-1.12.55.55,0,0,0-.82-.53A1.31,1.31,0,0,0,87,105.86Z"/>
    <path class="cls-5" d="M89.55,104.24a.55.55,0,0,0,.82.53,1.31,1.31,0,0,0,.82-1.12.55.55,0,0,0-.82-.53A1.31,1.31,0,0,0,89.55,104.24Z"/>
    <path class="cls-4" d="M64,48.87,28.09,69.6a2.72,2.72,0,0,0,0,4.72L64,95a7,7,0,0,0,7,0l35.84-20.72a2.72,2.72,0,0,0,0-4.72L70.94,48.87A7,7,0,0,0,64,48.87Z"/>
    <ellipse class="cls-6" cx="97.33" cy="71.68" rx="2.19" ry="1"/>
    <path class="cls-3" d="M98.65,149V113.87H180V149a2.71,2.71,0,0,1-1.32,2.84l-35.9,20.72a7,7,0,0,1-7,0L100,151.81A2.71,2.71,0,0,1,98.65,149Z"/>
    <path class="cls-4" d="M154.17,147.15c0,3.08,2.46,4.68,5.58,3.55a8.83,8.83,0,0,0,5.58-7.61c0-3.08-2.46-4.68-5.58-3.55A8.83,8.83,0,0,0,154.17,147.15Z"/>
    <path class="cls-4" d="M142.84,90.58l35.89,20.72a2.72,2.72,0,0,1,0,4.72l-35.89,20.72a7,7,0,0,1-7,0L100,116a2.72,2.72,0,0,1,0-4.72l35.89-20.72A7,7,0,0,1,142.84,90.58Z"/>
    <path class="cls-4" d="M160.14,142.79a2.13,2.13,0,0,1,1.92.11l8.9,5a1.88,1.88,0,0,1,.79,1.65,4.38,4.38,0,0,1-2.77,3.78,2.7,2.7,0,0,1-1.77,0l-.27-.15-8.62-5.11a1.81,1.81,0,0,1-.82-1.64A4.26,4.26,0,0,1,160.14,142.79Z"/>
    <path class="cls-4" d="M166.29,151.59a1.87,1.87,0,0,0,2.77,1.76,4.38,4.38,0,0,0,2.77-3.78,1.88,1.88,0,0,0-.79-1.65,2.19,2.19,0,0,0-2-.11A4.38,4.38,0,0,0,166.29,151.59Z"/>
    <polygon class="cls-7" points="76.13 72.69 65.44 66.58 77.94 59.35 88.62 65.47 76.13 72.69"/>
    <line class="cls-7" x1="70.45" y1="69.45" x2="74.9" y2="66.68"/>
    <polygon class="cls-8" points="128.49 110.53 141.74 102.64 136.67 99.55 123.41 107.46 128.49 110.53"/>
    <path class="cls-9" d="M138.38,102.1V70.83c0-4-3.24-9.1-7.23-11.4L90.78,36.13c-4-2.3-7.23-.94-7.23,3.05V66.06s1.85,1.23,3.13.41V44.66c0-3.55-.27-6.45,5.69-3.15l36,20.73c3.55,2.06,6.43,6.59,6.43,10.15v31.3C139,104.54,138.38,102.1,138.38,102.1Z"/>
    <path class="cls-4" d="M136.21,103.43V72.16c0-4-3.24-9.1-7.23-11.4L88.65,37.46c-4-2.3-7.23-.94-7.23,3.05V67.44s1.85,1.23,3.13.41V46c0-3.55-.27-6.45,5.69-3.15l35.92,20.73c3.55,2.06,6.43,6.59,6.43,10.15v31.3C136.83,105.87,136.21,103.43,136.21,103.43Z"/>
    <path class="cls-4" d="M134,104.75V73.47c0-4-3.24-9.1-7.23-11.4L86.47,38.78c-4-2.3-7.23-.94-7.23,3.05V68.67s1.85,1.23,3.13.41V47.26c0-3.55-.27-6.45,5.69-3.15l36,20.73c3.55,2.06,6.43,6.59,6.43,10.15v31.3C134.65,107.2,134,104.75,134,104.75Z"/>
    <path class="cls-4" d="M131.82,106.08V74.83c0-4-3.24-9.1-7.23-11.4L84.25,40.13c-4-2.3-7.23-.94-7.23,3.05V70.06s1.85,1.23,3.13.41V48.65c0-3.55-.27-6.45,5.69-3.15l36,20.71c3.55,2.06,6.43,6.59,6.43,10.15v31.3C132.48,108.53,131.82,106.08,131.82,106.08Z"/>
    <path class="cls-4" d="M129.69,107.41V76.13c0-4-3.24-9.1-7.23-11.4l-40.3-23.3c-4-2.3-7.23-.94-7.23,3.05V71.37s1.85,1.23,3.13.41V50c0-3.55-.27-6.45,5.69-3.15l35.92,20.76c3.55,2.06,6.43,6.59,6.43,10.15v30.78C129.71,109.86,129.69,107.41,129.69,107.41Z"/>
    <ellipse class="cls-5" cx="97.42" cy="71.93" rx="2.2" ry="1"/>
  </g>
</svg>
