<svg id="레이어_1" data-name="레이어 1" xmlns="http://www.w3.org/2000/svg" width="210" height="210" viewBox="0 0 210 210"><defs><style>.cls-1,.cls-2,.cls-3{fill:#fff;}.cls-1{fill-opacity:0;}.cls-2,.cls-3,.cls-5,.cls-7,.cls-8{stroke:#26cad3;stroke-miterlimit:10;}.cls-3,.cls-5{stroke-width:1.5px;}.cls-4{fill:#f1f1f1;}.cls-5,.cls-8{fill:none;}.cls-6,.cls-7{fill:#26cad3;}</style></defs><title>helpInfrared</title><rect class="cls-1" width="210" height="210"/><path class="cls-2" d="M65.73,132h0a5.29,5.29,0,0,1-3.09-4.4v-7.3c0-1.7,1.39-2.5,3.09-1.78h0a5.29,5.29,0,0,1,3.09,4.4v7.3C68.85,131.88,67.43,132.68,65.73,132Z"/><path class="cls-3" d="M154.3,95.59a3.38,3.38,0,0,0,0-.36l0-16.36s0-.07,0-0.1v0h0A3.26,3.26,0,0,0,152.66,76l-12.41-7.17-14.46,8.35-16.61-9.59a8.43,8.43,0,0,0-8.43,0L79.33,79.92,57.27,92.66a2.85,2.85,0,0,0-.37.29,3.25,3.25,0,0,0-1.27,2.64h0a3.36,3.36,0,0,0,.05.52v11.76a3.28,3.28,0,0,0,1.59,3.45l43.47,25.1a8.43,8.43,0,0,0,8.43,0l43.48-25.1a3.28,3.28,0,0,0,1.59-3.45l0-12C154.28,95.78,154.3,95.68,154.3,95.59ZM56.18,97.33c0-.06-0.1-0.11-0.13-0.17S56.15,97.27,56.18,97.33Zm0.38,0.5a3.34,3.34,0,0,0,.71.55A3.32,3.32,0,0,1,56.56,97.83Z"/><path class="cls-4" d="M110.08,113.2l52.82,30.5a4,4,0,0,1,0,6.94l-52.82,30.5a10.24,10.24,0,0,1-10.24,0L47,150.65a4,4,0,0,1,0-6.94l52.81-30.5A10.24,10.24,0,0,1,110.08,113.2Z"/><path class="cls-5" d="M55.68,107.87V96.11a3.34,3.34,0,0,1,.21-1.9l0-.08a3.23,3.23,0,0,1,.17-0.33l0.08-.12,0.2-.26,0.11-.12,0.25-.24,0.12-.1a3.39,3.39,0,0,1,.41-0.29h0l43.47-25.11A8.43,8.43,0,0,1,105,66.42H105a8.42,8.42,0,0,1,4.15,1.13l7.13,4.12,36.35,21a3.39,3.39,0,0,1,.42.29L153.2,93l0.25,0.24,0.11,0.12,0.2,0.27,0.08,0.12a3.23,3.23,0,0,1,.17.33l0,0.08a3.34,3.34,0,0,1,.21,1.9v11.77a3.37,3.37,0,0,1,0,1.14v29a3.28,3.28,0,0,1-1.59,3.45l-43.48,25.1a8.43,8.43,0,0,1-8.43,0l-43.47-25.1A3.28,3.28,0,0,1,55.68,138V109A3.37,3.37,0,0,1,55.68,107.87Z"/><path class="cls-3" d="M55.68,138V95.51h98.57V138a3.28,3.28,0,0,1-1.59,3.45l-43.48,25.1a8.43,8.43,0,0,1-8.43,0l-43.47-25.1A3.28,3.28,0,0,1,55.68,138Z"/><path class="cls-2" d="M150.55,112.53v14.54c0,2.35-1.93,5.39-4.28,6.75l-33.32,19.24c-2.35,1.36-4.28.54-4.28-1.81V136.71Z"/><path class="cls-2" d="M59.38,112.53v14.54c0,2.35,1.93,5.39,4.28,6.75L97,153.05c2.35,1.36,4.28.54,4.28-1.81V136.71Z"/><path class="cls-2" d="M94.94,148.81h0a5.29,5.29,0,0,1-3.09-4.4v-7.3c0-1.7,1.39-2.5,3.09-1.78h0a5.29,5.29,0,0,1,3.09,4.4V147C98,148.72,96.64,149.52,94.94,148.81Z"/><path class="cls-2" d="M65.7,132h0a5.29,5.29,0,0,1-3.09-4.4v-7.3c0-1.7,1.39-2.5,3.09-1.78h0a5.29,5.29,0,0,1,3.09,4.4v7.3C68.79,131.88,67.4,132.68,65.7,132Z"/><path class="cls-6" d="M87.7,137a0.68,0.68,0,0,1-1,.64,1.58,1.58,0,0,1-1-1.36,0.68,0.68,0,0,1,1-.64A1.58,1.58,0,0,1,87.7,137Z"/><path class="cls-6" d="M84.51,135.07a0.68,0.68,0,0,1-1,.64,1.58,1.58,0,0,1-1-1.36,0.68,0.68,0,0,1,1-.64A1.58,1.58,0,0,1,84.51,135.07Z"/><path class="cls-6" d="M81.32,133.12a0.68,0.68,0,0,1-1,.64,1.58,1.58,0,0,1-1-1.36,0.68,0.68,0,0,1,1-.64A1.58,1.58,0,0,1,81.32,133.12Z"/><path class="cls-6" d="M78.13,131.16a0.68,0.68,0,0,1-1,.64,1.58,1.58,0,0,1-1-1.36,0.68,0.68,0,0,1,1-.64A1.58,1.58,0,0,1,78.13,131.16Z"/><path class="cls-6" d="M74.94,129.21a0.68,0.68,0,0,1-1,.64,1.58,1.58,0,0,1-1-1.36,0.68,0.68,0,0,1,1-.64A1.58,1.58,0,0,1,74.94,129.21Z"/><path class="cls-6" d="M84.51,138.54a0.68,0.68,0,0,1-1,.64,1.58,1.58,0,0,1-1-1.36,0.68,0.68,0,0,1,1-.64A1.58,1.58,0,0,1,84.51,138.54Z"/><path class="cls-6" d="M81.32,136.58a0.68,0.68,0,0,1-1,.64,1.58,1.58,0,0,1-1-1.36,0.68,0.68,0,0,1,1-.64A1.58,1.58,0,0,1,81.32,136.58Z"/><path class="cls-6" d="M78.13,134.63a0.68,0.68,0,0,1-1,.64,1.58,1.58,0,0,1-1-1.36,0.68,0.68,0,0,1,1-.64A1.58,1.58,0,0,1,78.13,134.63Z"/><path class="cls-2" d="M109.18,67.55l43.48,25.1a3.3,3.3,0,0,1,0,5.71l-43.48,25.1a8.43,8.43,0,0,1-8.43,0L57.27,98.38a3.3,3.3,0,0,1,0-5.71l43.47-25.11A8.43,8.43,0,0,1,109.18,67.55Z"/><ellipse class="cls-6" cx="68.79" cy="95.18" rx="2.66" ry="1.21"/><path class="cls-2" d="M80.57,79.2L57.27,92.66a3.3,3.3,0,0,0-.65.51,3.32,3.32,0,0,1,.65-0.51Z"/><path class="cls-2" d="M154.27,95.88c0-.1,0-0.19,0-0.29,0,0.07,0,.13,0,0.2l0-17.06L89.73,100.21s-2.59-2.39-4.53,1.06L81,109.15s-1.46,2-4.3.4L57.27,98.38a3.26,3.26,0,0,1-1.64-2.79,3.36,3.36,0,0,0,.05.52v11.76a3.28,3.28,0,0,0,1.59,3.45l43.47,25.1a8.43,8.43,0,0,0,8.43,0l43.48-25.1a3.28,3.28,0,0,0,1.59-3.45Z"/><path class="cls-2" d="M152.66,76l-12.41-7.17L87.81,99.07l-0.23.11,13.16,7.6a8.43,8.43,0,0,0,8.43,0l43.48-25.1A3.3,3.3,0,0,0,152.66,76Z"/><path class="cls-7" d="M101.71,87.52l-14-8a5.24,5.24,0,1,0-5.22,9.08l8.7,5Z"/><path class="cls-8" d="M120.33,105.23h0l0.06,0a14,14,0,0,1,1.22-.71l13.79-8a13,13,0,0,1,2-1c5.39-2,9.75.82,9.75,6.2,0,4.58-3.16,9.56-7.41,12.16h0l-0.3.17-0.13.07-14,8.15-0.38.22-0.16.09h0a12.81,12.81,0,0,1-1.66.75c-5.39,2-9.75-.82-9.75-6.2C113.38,112.69,116.31,107.9,120.33,105.23Z"/><path class="cls-7" d="M132.13,111.1l-4.44-2.55h0a4.5,4.5,0,0,0-4-.2,9,9,0,0,0-5.66,7.72,3.74,3.74,0,0,0,2.06,3.62h0l5.33,3.07A6.72,6.72,0,1,0,132.13,111.1Z"/><path class="cls-2" d="M147.06,102.13l-4.44-2.55h0a4.5,4.5,0,0,0-4-.2,9,9,0,0,0-5.66,7.72,3.74,3.74,0,0,0,2.06,3.62h0l5.33,3.07A6.72,6.72,0,1,0,147.06,102.13Z"/></svg>