<svg id="레이어_1" data-name="레이어 1" xmlns="http://www.w3.org/2000/svg" width="350" height="210" viewBox="0 0 350 210">
  <defs>
    <style>
      .cls-1, .cls-5 {
        fill: #fff;
      }

      .cls-2, .cls-6 {
        fill: none;
      }

      .cls-2 {
        stroke: #26cad3;
        stroke-width: 2px;
      }

      .cls-2, .cls-4, .cls-5, .cls-6 {
        stroke-miterlimit: 10;
      }

      .cls-3 {
        fill: #26cad3;
      }

      .cls-4 {
        fill: #dbaf58;
        stroke: #dbaf58;
      }

      .cls-5 {
        stroke: #e6e6e6;
      }

      .cls-6 {
        stroke: #bcbcbc;
      }

      .cls-7 {
        fill: #ff8e1d;
      }
    </style>
  </defs>
  <title>helpCustomTune2_66</title>
  <path class="cls-1" d="M0,210H346a4,4,0,0,0,4-4V0H0Z" transform="translate(0 -0.02)"/>
  <path class="cls-2" d="M227.55,42.67h91.28A10.18,10.18,0,0,1,329,52.84h0A10.18,10.18,0,0,1,318.83,63H227.55a10.18,10.18,0,0,1-10.18-10.17h0a10.18,10.18,0,0,1,10.18-10.18Z" transform="translate(0 -0.02)"/>
  <path class="cls-3" d="M242,57.57a2.6,2.6,0,0,1-2.36-1.31,4.71,4.71,0,0,1-.56-1.51,9.83,9.83,0,0,1-.18-2v-1a7.34,7.34,0,0,1,.17-1.07,5.49,5.49,0,0,1,.35-1,3.27,3.27,0,0,1,.58-.86,2.57,2.57,0,0,1,.83-.59A2.71,2.71,0,0,1,242,48a2.67,2.67,0,0,1,1.13.22,2.59,2.59,0,0,1,.82.59,3.13,3.13,0,0,1,.56.86,5.8,5.8,0,0,1,.34,1,7.63,7.63,0,0,1,.17,1.07v1a9.66,9.66,0,0,1-.18,2,4.75,4.75,0,0,1-.56,1.51,2.74,2.74,0,0,1-1,1A2.66,2.66,0,0,1,242,57.57Zm0-8a1.09,1.09,0,0,0-.56.16,1.3,1.3,0,0,0-.46.53,3.55,3.55,0,0,0-.31,1,8.61,8.61,0,0,0-.11,1.53,8.7,8.7,0,0,0,.11,1.54,3.46,3.46,0,0,0,.31,1,1.3,1.3,0,0,0,.46.53,1.09,1.09,0,0,0,1.13,0,1.3,1.3,0,0,0,.46-.53,3.49,3.49,0,0,0,.31-1,8.7,8.7,0,0,0,.11-1.54,8.61,8.61,0,0,0-.11-1.53,3.58,3.58,0,0,0-.31-1,1.31,1.31,0,0,0-.46-.53,1.09,1.09,0,0,0-.57-.15h0Z" transform="translate(0 -0.02)"/>
  <path class="cls-3" d="M250.77,52.34a1.76,1.76,0,0,1-.71.56,2.48,2.48,0,0,1-1,.17,2.4,2.4,0,0,1-1-.19,1.84,1.84,0,0,1-.68-.53,2.15,2.15,0,0,1-.39-.8,4.21,4.21,0,0,1,0-2,2.25,2.25,0,0,1,.39-.82,1.9,1.9,0,0,1,.68-.56,2.28,2.28,0,0,1,1-.2,2.25,2.25,0,0,1,1,.2,1.91,1.91,0,0,1,.68.56,2.33,2.33,0,0,1,.4.82,3.82,3.82,0,0,1,.13,1,3.75,3.75,0,0,1-.13,1A2.14,2.14,0,0,1,250.77,52.34Zm-1.68-2.92a.57.57,0,0,0-.52.26,1.66,1.66,0,0,0-.17.87,1.93,1.93,0,0,0,.15.79.54.54,0,0,0,.53.34.55.55,0,0,0,.49-.26,2.34,2.34,0,0,0,0-1.74.55.55,0,0,0-.48-.26Zm1.32,8a.25.25,0,0,1-.14.14.78.78,0,0,1-.22,0H249a.38.38,0,0,1-.23,0V57.3l5.17-9.36a.34.34,0,0,1,.11-.12.42.42,0,0,1,.17,0h1.25a.3.3,0,0,1,.25.07.28.28,0,0,1-.05.25Zm6.53-.73a1.77,1.77,0,0,1-.71.56,2.5,2.5,0,0,1-1,.17,2.4,2.4,0,0,1-1-.19,1.83,1.83,0,0,1-.68-.53,2.14,2.14,0,0,1-.39-.8,4.21,4.21,0,0,1,0-2,2.27,2.27,0,0,1,.39-.82,1.9,1.9,0,0,1,.68-.56,2.28,2.28,0,0,1,1-.2,2.25,2.25,0,0,1,1,.2,1.91,1.91,0,0,1,.68.56,2.34,2.34,0,0,1,.4.82,3.82,3.82,0,0,1,.13,1,3.75,3.75,0,0,1-.13,1,2.13,2.13,0,0,1-.38.82h0Zm-1.68-2.93a.57.57,0,0,0-.52.26,1.67,1.67,0,0,0-.17.87,1.92,1.92,0,0,0,.15.79.54.54,0,0,0,.53.34.55.55,0,0,0,.49-.26,2.34,2.34,0,0,0,0-1.74.55.55,0,0,0-.49-.23h0Z" transform="translate(0 -0.02)"/>
  <path class="cls-3" d="M269,52.85a2.4,2.4,0,0,1-.76.76,1.88,1.88,0,0,1-1,.28,2.25,2.25,0,0,1-.67-.11l-.69-.24-.64-.24a1.59,1.59,0,0,0-.53-.11.93.93,0,0,0-.55.22,3,3,0,0,0-.53.52.17.17,0,0,1-.16.1.42.42,0,0,1-.16-.18l-.45-.72a.19.19,0,0,1,0-.14.7.7,0,0,1,0-.12,2,2,0,0,1,.78-.76,2.27,2.27,0,0,1,1.09-.26,2.5,2.5,0,0,1,.67.1l.7.22.62.25a1.44,1.44,0,0,0,.46.1.64.64,0,0,0,.29-.07,1.47,1.47,0,0,0,.28-.18L268,52l.2-.2a.39.39,0,0,1,.15-.11.2.2,0,0,1,.15.11l.5.75a.22.22,0,0,1,0,.14A.4.4,0,0,1,269,52.85Z" transform="translate(0 -0.02)"/>
  <path class="cls-3" d="M276.53,57.42a.24.24,0,0,1-.18,0,.31.31,0,0,1,0-.2V50.34l-.73.7c-.13.12-.23.13-.3,0l-.71-.8a.14.14,0,0,1,0-.15.55.55,0,0,1,.14-.16l1.85-1.73a.44.44,0,0,1,.29-.11h.79a.48.48,0,0,1,.31.06.78.78,0,0,1,0,.36v8.64a.32.32,0,0,1,0,.19.23.23,0,0,1-.18.06h-1.19Z" transform="translate(0 -0.02)"/>
  <path class="cls-3" d="M284.31,57.57A2.6,2.6,0,0,1,282,56.26a4.71,4.71,0,0,1-.56-1.51,9.83,9.83,0,0,1-.18-2v-1a7.34,7.34,0,0,1,.17-1.07,5.57,5.57,0,0,1,.35-1,3.27,3.27,0,0,1,.56-.86,2.56,2.56,0,0,1,.83-.59A2.72,2.72,0,0,1,284.3,48a2.67,2.67,0,0,1,1.13.22,2.59,2.59,0,0,1,.82.59,3.16,3.16,0,0,1,.56.86,5.72,5.72,0,0,1,.34,1,7.63,7.63,0,0,1,.17,1.07v1a9.72,9.72,0,0,1-.18,2,4.75,4.75,0,0,1-.56,1.51,2.75,2.75,0,0,1-1,1A2.66,2.66,0,0,1,284.31,57.57Zm0-8a1.1,1.1,0,0,0-.56.16,1.3,1.3,0,0,0-.46.53,3.58,3.58,0,0,0-.31,1,8.61,8.61,0,0,0-.11,1.53,8.7,8.7,0,0,0,.13,1.55,3.49,3.49,0,0,0,.31,1,1.3,1.3,0,0,0,.46.53,1.1,1.1,0,0,0,1.13,0,1.3,1.3,0,0,0,.46-.53,3.49,3.49,0,0,0,.31-1,8.7,8.7,0,0,0,.11-1.54,8.61,8.61,0,0,0-.11-1.53,3.58,3.58,0,0,0-.31-1,1.3,1.3,0,0,0-.46-.53,1.1,1.1,0,0,0-.59-.16h0Z" transform="translate(0 -0.02)"/>
  <path class="cls-3" d="M291.58,57.57a2.6,2.6,0,0,1-2.36-1.31,4.71,4.71,0,0,1-.56-1.51,9.83,9.83,0,0,1-.18-2v-1a7.34,7.34,0,0,1,.17-1.07,5.57,5.57,0,0,1,.35-1,3.27,3.27,0,0,1,.56-.86,2.56,2.56,0,0,1,.83-.59,2.72,2.72,0,0,1,1.13-.22,2.67,2.67,0,0,1,1.13.22,2.59,2.59,0,0,1,.82.59,3.16,3.16,0,0,1,.56.86,5.72,5.72,0,0,1,.34,1,7.63,7.63,0,0,1,.17,1.07v1a9.72,9.72,0,0,1-.18,2,4.75,4.75,0,0,1-.56,1.51,2.75,2.75,0,0,1-1,1A2.66,2.66,0,0,1,291.58,57.57Zm0-8a1.1,1.1,0,0,0-.56.16,1.3,1.3,0,0,0-.46.53,3.58,3.58,0,0,0-.31,1,8.61,8.61,0,0,0-.11,1.53,8.7,8.7,0,0,0,.11,1.54,3.49,3.49,0,0,0,.31,1,1.3,1.3,0,0,0,.46.53,1.1,1.1,0,0,0,1.13,0,1.3,1.3,0,0,0,.46-.53,3.49,3.49,0,0,0,.31-1,8.7,8.7,0,0,0,.11-1.54,8.61,8.61,0,0,0-.11-1.53,3.58,3.58,0,0,0-.31-1,1.3,1.3,0,0,0-.46-.53,1.1,1.1,0,0,0-.57-.15h0Z" transform="translate(0 -0.02)"/>
  <path class="cls-3" d="M300.3,52.34a1.78,1.78,0,0,1-.71.56,2.48,2.48,0,0,1-1,.17,2.41,2.41,0,0,1-1-.19,1.85,1.85,0,0,1-.68-.53,2.15,2.15,0,0,1-.39-.8,4.25,4.25,0,0,1,0-2,2.25,2.25,0,0,1,.39-.82,1.91,1.91,0,0,1,.68-.56,2.29,2.29,0,0,1,1-.2,2.25,2.25,0,0,1,1,.2,1.91,1.91,0,0,1,.68.56,2.36,2.36,0,0,1,.4.82,3.82,3.82,0,0,1,.13,1,3.75,3.75,0,0,1-.13,1A2.16,2.16,0,0,1,300.3,52.34Zm-1.68-2.92a.57.57,0,0,0-.52.26,1.66,1.66,0,0,0-.17.87,1.93,1.93,0,0,0,.15.79.54.54,0,0,0,.53.34.55.55,0,0,0,.49-.26,2.34,2.34,0,0,0,0-1.74A.55.55,0,0,0,298.62,49.42Zm1.32,8a.25.25,0,0,1-.14.14.78.78,0,0,1-.22,0H298.5a.39.39,0,0,1-.23,0V57.3l5.17-9.36a.34.34,0,0,1,.11-.12.43.43,0,0,1,.17,0H305a.3.3,0,0,1,.25.07.28.28,0,0,1,0,.25Zm6.53-.73a1.78,1.78,0,0,1-.71.56,2.5,2.5,0,0,1-1,.17,2.41,2.41,0,0,1-1-.19,1.84,1.84,0,0,1-.68-.53,2.14,2.14,0,0,1-.39-.8,4.25,4.25,0,0,1,0-2,2.27,2.27,0,0,1,.39-.82,1.91,1.91,0,0,1,.68-.56,2.29,2.29,0,0,1,1-.2,2.25,2.25,0,0,1,1,.2,1.91,1.91,0,0,1,.68.56,2.36,2.36,0,0,1,.4.82,3.82,3.82,0,0,1,.13,1,3.75,3.75,0,0,1-.13,1,2.13,2.13,0,0,1-.37.82h0Zm-1.68-2.93a.57.57,0,0,0-.52.26,1.67,1.67,0,0,0-.17.87,1.93,1.93,0,0,0,.15.79.54.54,0,0,0,.53.34.55.55,0,0,0,.49-.26,2.34,2.34,0,0,0,0-1.74.55.55,0,0,0-.48-.23h0Z" transform="translate(0 -0.02)"/>
  <polygon class="cls-3" points="101.23 144.74 138.7 167.23 162.41 148.84 159.67 138.94 153.7 138.81 152.34 134.6 153.99 129.93 152.34 125.57 154.61 121.38 152.21 116.94 146.43 117.02 145.27 111.87 147.35 108.01 145.27 102.98 147.35 100 145.41 95.22 139.29 95.22 138.01 90.86 140.47 85.47 136.87 79.47 131.44 81.07 131.44 87.46 132.14 90.86 130.07 95.47 132.6 100 130.74 104.9 125.41 103.94 123.25 108.01 125.96 112.04 123.25 116.06 125.01 119.6 124.87 122.34 123.25 126.7 125.96 129.93 123.25 134.6 118.07 134.45 115.67 139.77 111.27 138.61 108.67 134.6 110.61 129.93 108.67 125.57 101.23 124.78 101.23 144.74"/>
  <path class="cls-4" d="M193.83,133.46A1.26,1.26,0,0,0,195.3,132h0v-2.43h0a1.26,1.26,0,0,0-1.48-1.48" transform="translate(0 -0.02)"/>
  <path class="cls-4" d="M76.78,133.46A1.26,1.26,0,0,1,75.3,132h0v-2.43h0A1.26,1.26,0,0,1,76.78,128" transform="translate(0 -0.02)"/>
  <path class="cls-4" d="M76.78,109.36a1.26,1.26,0,0,0-1.48,1.48h0v2.43h0a1.26,1.26,0,0,0,1.48,1.48" transform="translate(0 -0.02)"/>
  <path class="cls-4" d="M147.35,179.93a1.26,1.26,0,0,1-1.48,1.48h-2.46a1.26,1.26,0,0,1-1.48-1.48" transform="translate(0 -0.02)"/>
  <path class="cls-4" d="M156.7,179.93a1.26,1.26,0,0,1-1.48,1.48h-2.46a1.26,1.26,0,0,1-1.48-1.48" transform="translate(0 -0.02)"/>
  <path class="cls-4" d="M113.91,179.93a1.26,1.26,0,0,0,1.48,1.48h2.46a1.26,1.26,0,0,0,1.48-1.48" transform="translate(0 -0.02)"/>
  <path class="cls-4" d="M132.6,179.93a1.26,1.26,0,0,0,1.48,1.48h2.46a1.26,1.26,0,0,0,1.48-1.48" transform="translate(0 -0.02)"/>
  <path class="cls-4" d="M147.35,62.88a1.26,1.26,0,0,0-1.48-1.48h-2.46a1.26,1.26,0,0,0-1.48,1.48" transform="translate(0 -0.02)"/>
  <path class="cls-4" d="M123.25,179.93a1.26,1.26,0,0,0,1.48,1.48h2.46a1.26,1.26,0,0,0,1.48-1.48" transform="translate(0 -0.02)"/>
  <path class="cls-4" d="M193.83,109.36a1.26,1.26,0,0,1,1.48,1.48h0v2.43h0a1.26,1.26,0,0,1-1.48,1.48" transform="translate(0 -0.02)"/>
  <path class="cls-4" d="M193.83,124.11a1.26,1.26,0,0,0,1.48-1.48h0V120.2h0a1.26,1.26,0,0,0-1.48-1.48" transform="translate(0 -0.02)"/>
  <path class="cls-4" d="M156.7,62.88a1.26,1.26,0,0,0-1.48-1.48h-2.46a1.26,1.26,0,0,0-1.48,1.48" transform="translate(0 -0.02)"/>
  <path class="cls-4" d="M193.83,100a1.26,1.26,0,0,1,1.48,1.48h0v2.43h0a1.26,1.26,0,0,1-1.48,1.48" transform="translate(0 -0.02)"/>
  <path class="cls-4" d="M123.25,62.88a1.26,1.26,0,0,1,1.48-1.48h2.46a1.26,1.26,0,0,1,1.48,1.48" transform="translate(0 -0.02)"/>
  <path class="cls-4" d="M113.91,62.88a1.26,1.26,0,0,1,1.48-1.48h2.46a1.26,1.26,0,0,1,1.48,1.48" transform="translate(0 -0.02)"/>
  <path class="cls-4" d="M76.78,100a1.26,1.26,0,0,0-1.48,1.48h0v2.43h0a1.26,1.26,0,0,0,1.48,1.48" transform="translate(0 -0.02)"/>
  <path class="cls-4" d="M76.78,118.7a1.26,1.26,0,0,0-1.48,1.48h0v2.43h0a1.26,1.26,0,0,0,1.48,1.48" transform="translate(0 -0.02)"/>
  <path class="cls-4" d="M76.78,142.8a1.26,1.26,0,0,1-1.48-1.48h0v-2.43h0a1.26,1.26,0,0,1,1.48-1.48" transform="translate(0 -0.02)"/>
  <path class="cls-4" d="M193.83,142.8a1.26,1.26,0,0,0,1.48-1.48h0v-2.43h0a1.26,1.26,0,0,0-1.48-1.48" transform="translate(0 -0.02)"/>
  <path class="cls-4" d="M138,62.88a1.26,1.26,0,0,0-1.48-1.48h-2.46a1.26,1.26,0,0,0-1.48,1.48" transform="translate(0 -0.02)"/>
  <path class="cls-5" d="M183,62.87H87.6A10.82,10.82,0,0,0,76.78,73.69V169.1A10.82,10.82,0,0,0,87.6,179.92H183a10.82,10.82,0,0,0,10.82-10.82h0V73.69A10.82,10.82,0,0,0,183,62.87Zm-74.36,78.37a3.4,3.4,0,1,1,1-2.4A3.45,3.45,0,0,1,108.64,141.24Zm0-8.72a3.4,3.4,0,1,1,1-2.4A3.45,3.45,0,0,1,108.64,132.52Zm0-8.72a3.4,3.4,0,1,1,1-2.4A3.45,3.45,0,0,1,108.64,123.8Zm0-8.72a3.4,3.4,0,1,1,1-2.4A3.45,3.45,0,0,1,108.64,115.08Zm0-8.72a3.4,3.4,0,1,1,1-2.4A3.45,3.45,0,0,1,108.64,106.36Zm7.27,39.23a3.4,3.4,0,1,1,1-2.4,3.45,3.45,0,0,1-1,2.41Zm0-8.72a3.4,3.4,0,1,1,1-2.4,3.45,3.45,0,0,1-1,2.41Zm0-8.72a3.4,3.4,0,1,1,1-2.4,3.45,3.45,0,0,1-1,2.41Zm0-8.72a3.4,3.4,0,1,1,1-2.4,3.45,3.45,0,0,1-1,2.41Zm0-8.72a3.4,3.4,0,1,1,1-2.4,3.45,3.45,0,0,1-1,2.41Zm0-8.72a3.4,3.4,0,1,1,1-2.4,3.45,3.45,0,0,1-1,2.43Zm7.27,48a3.4,3.4,0,1,1,1-2.4,3.45,3.45,0,0,1-1,2.37Zm0-8.72a3.4,3.4,0,1,1,1-2.4,3.45,3.45,0,0,1-1,2.37Zm0-8.72a3.4,3.4,0,1,1,1-2.4,3.45,3.45,0,0,1-1,2.37Zm0-8.72a3.4,3.4,0,1,1,1-2.4,3.45,3.45,0,0,1-1,2.37Zm0-8.72a3.4,3.4,0,1,1,1-2.4,3.45,3.45,0,0,1-1,2.37Zm0-8.72a3.4,3.4,0,1,1,1-2.4,3.45,3.45,0,0,1-1,2.37Zm0-8.72a3.4,3.4,0,1,1,1-2.4,3.45,3.45,0,0,1-1,2.38Zm7.27,56.67a3.4,3.4,0,1,1,1-2.4,3.45,3.45,0,0,1-1,2.38Zm0-8.72a3.4,3.4,0,1,1,1-2.4,3.45,3.45,0,0,1-1,2.38Zm0-8.72a3.4,3.4,0,1,1,1-2.4,3.45,3.45,0,0,1-1,2.38Zm0-8.72a3.4,3.4,0,1,1,1-2.4,3.45,3.45,0,0,1-1,2.38Zm0-8.72a3.4,3.4,0,1,1,1-2.4,3.45,3.45,0,0,1-1,2.38Zm0-8.72a3.4,3.4,0,1,1,1-2.4,3.45,3.45,0,0,1-1,2.38Zm0-8.72a3.4,3.4,0,1,1,1-2.4,3.45,3.45,0,0,1-1,2.4Zm0-8.72a3.4,3.4,0,1,1,1-2.4,3.45,3.45,0,0,1-1,2.39Zm7.27,65.39a3.4,3.4,0,1,1,1-2.4,3.45,3.45,0,0,1-1,2.38Zm0-8.72a3.4,3.4,0,1,1,1-2.4,3.45,3.45,0,0,1-1,2.39Zm0-8.72a3.4,3.4,0,1,1,1-2.4,3.45,3.45,0,0,1-1,2.39Zm0-8.72a3.4,3.4,0,1,1,1-2.4,3.45,3.45,0,0,1-1,2.39Zm0-8.72a3.4,3.4,0,1,1,1-2.4,3.45,3.45,0,0,1-1,2.39Zm0-8.72a3.4,3.4,0,1,1,1-2.4,3.45,3.45,0,0,1-1,2.39Zm0-8.72a3.4,3.4,0,1,1,1-2.4,3.45,3.45,0,0,1-1,2.39Zm0-8.72a3.4,3.4,0,1,1,1-2.4,3.45,3.45,0,0,1-1,2.4Zm0-8.72a3.4,3.4,0,1,1,1-2.4,3.45,3.45,0,0,1-1,2.4ZM145,154.32a3.4,3.4,0,1,1,1-2.4A3.45,3.45,0,0,1,145,154.32Zm0-8.72a3.4,3.4,0,1,1,1-2.4A3.45,3.45,0,0,1,145,145.6Zm0-8.72a3.4,3.4,0,1,1,1-2.4A3.45,3.45,0,0,1,145,136.88Zm0-8.72a3.4,3.4,0,1,1,1-2.4A3.45,3.45,0,0,1,145,128.16Zm0-8.72a3.4,3.4,0,1,1,1-2.4A3.45,3.45,0,0,1,145,119.44Zm0-8.72a3.4,3.4,0,1,1,1-2.4A3.45,3.45,0,0,1,145,110.72Zm0-8.72a3.4,3.4,0,1,1,1-2.4,3.45,3.45,0,0,1-1,2.42Zm0-8.72a3.4,3.4,0,1,1,1-2.4,3.45,3.45,0,0,1-1,2.41Zm7.27,56.67a3.4,3.4,0,1,1,1-2.4,3.45,3.45,0,0,1-1,2.41Zm0-8.72a3.4,3.4,0,1,1,1-2.4,3.45,3.45,0,0,1-1,2.41Zm0-8.72a3.4,3.4,0,1,1,1-2.4,3.45,3.45,0,0,1-1,2.41Zm0-8.72a3.4,3.4,0,1,1,1-2.4,3.45,3.45,0,0,1-1,2.41Zm0-8.72a3.4,3.4,0,1,1,1-2.4,3.45,3.45,0,0,1-1,2.41Zm0-8.72a3.4,3.4,0,1,1,1-2.4,3.45,3.45,0,0,1-1,2.41Zm0-8.72a3.4,3.4,0,1,1,1-2.4,3.45,3.45,0,0,1-1,2.42Zm7.26,48a3.4,3.4,0,1,1,1-2.4,3.45,3.45,0,0,1-1,2.37Zm0-8.72a3.4,3.4,0,1,1,1-2.4,3.45,3.45,0,0,1-1,2.37Zm0-8.72a3.4,3.4,0,1,1,1-2.4,3.45,3.45,0,0,1-1,2.37Zm0-8.72a3.4,3.4,0,1,1,1-2.4,3.45,3.45,0,0,1-1,2.37Zm0-8.72a3.4,3.4,0,1,1,1-2.4,3.45,3.45,0,0,1-1,2.37Zm0-8.72a3.4,3.4,0,1,1,1-2.4,3.45,3.45,0,0,1-1,2.39Zm7.27,39.23a3.4,3.4,0,1,1,1-2.4,3.45,3.45,0,0,1-1,2.38Zm0-8.72a3.4,3.4,0,1,1,1-2.4,3.45,3.45,0,0,1-1,2.38Zm0-8.72a3.4,3.4,0,1,1,1-2.4,3.45,3.45,0,0,1-1,2.38Zm0-8.72a3.4,3.4,0,1,1,1-2.4,3.45,3.45,0,0,1-1,2.38Zm0-8.72a3.4,3.4,0,1,1,1-2.4,3.45,3.45,0,0,1-1,2.38Z" transform="translate(0 -0.02)"/>
  <path class="cls-6" d="M87.6,179.84H183A10.82,10.82,0,0,0,193.83,169h0V73.61A10.82,10.82,0,0,0,183,62.79H87.6A10.82,10.82,0,0,0,76.78,73.61V169A10.82,10.82,0,0,0,87.6,179.84Z" transform="translate(0 -0.02)"/>
  <path class="cls-7" d="M102.25,75.52a.92.92,0,0,0-.68-.3.93.93,0,0,0-.66,1.58h0a7.44,7.44,0,0,1,0,10.52h0a.93.93,0,0,0,.66,1.59.92.92,0,0,0,.67-.29A9.3,9.3,0,0,0,102.25,75.52Z" transform="translate(0 -0.02)"/>
  <path class="cls-7" d="M104.86,72.86h0a.93.93,0,0,0-1.31,1.32h0a11.16,11.16,0,0,1,0,15.78.93.93,0,1,0,1.2,1.42l.12-.12a13,13,0,0,0,0-18.38Z" transform="translate(0 -0.02)"/>
  <path class="cls-7" d="M99.59,78.12h0a.93.93,0,0,0-1.33,1.3l0,0a3.72,3.72,0,0,1,0,5.26h0a.93.93,0,0,0,.66,1.59.92.92,0,0,0,.68-.3A5.58,5.58,0,0,0,99.59,78.12Z" transform="translate(0 -0.02)"/>
  <polygon class="cls-7" points="88.02 78.61 84.58 78.61 84.58 85.48 88.02 85.48 94.88 92.34 94.88 71.74 88.02 78.61"/>
  <path class="cls-3" d="M177.84,160.74a3.2,3.2,0,1,0-.93,2.26A3.2,3.2,0,0,0,177.84,160.74Z" transform="translate(0 -0.02)"/>
</svg>
