<svg id="레이어_1" data-name="레이어 1" xmlns="http://www.w3.org/2000/svg" width="112" height="20" viewBox="0 0 112 20"><defs><style>.cls-1{fill:none;stroke:#26cad3;stroke-miterlimit:10;stroke-width:2px;}.cls-2{fill:#26cad3;}</style></defs><title>help-40-100</title><rect class="cls-1" x="1" y="1" width="110" height="18" rx="9" ry="9"/><path class="cls-2" d="M26.41,9.08a0.16,0.16,0,0,1-.11,0,0.13,0.13,0,0,1,0-.1V7.74a0.13,0.13,0,0,1,0-.1,0.16,0.16,0,0,1,.11,0h3.14a0.15,0.15,0,0,1,.11,0,0.14,0.14,0,0,1,0,.1v1.2a0.14,0.14,0,0,1,0,.1,0.15,0.15,0,0,1-.11,0H26.41Z" transform="translate(-3.61 1.6)"/><path class="cls-2" d="M35.81,11.08v1.75a0.49,0.49,0,0,1,0,.26,0.35,0.35,0,0,1-.25.05h-1a0.3,0.3,0,0,1-.25-0.07,0.5,0.5,0,0,1,0-.25V11.08H30.58a0.4,0.4,0,0,1-.22,0,0.26,0.26,0,0,1-.05-0.2V10a0.39,0.39,0,0,1,.06-0.22l0.12-.19q0.91-1.4,1.81-2.84t1.86-2.8a0.32,0.32,0,0,1,.13-0.13,0.47,0.47,0,0,1,.19,0h1.1c0.14,0,.22,0,0.23.08a1.37,1.37,0,0,1,0,.2V9.6h1a0.41,0.41,0,0,1,.22,0,0.39,0.39,0,0,1,0,.24v0.94A0.29,0.29,0,0,1,37,11a0.5,0.5,0,0,1-.21,0h-1ZM32.1,9.6h2.14V6.3Z" transform="translate(-3.61 1.6)"/><path class="cls-2" d="M41.09,13.22a2.6,2.6,0,0,1-2.36-1.31,4.71,4.71,0,0,1-.56-1.51,9.83,9.83,0,0,1-.18-2q0-.48,0-1a7.4,7.4,0,0,1,.17-1.07,5.5,5.5,0,0,1,.35-1,3.27,3.27,0,0,1,.56-0.86A2.57,2.57,0,0,1,40,3.89a2.71,2.71,0,0,1,1.13-.22,2.67,2.67,0,0,1,1.13.22,2.59,2.59,0,0,1,.82.59,3.16,3.16,0,0,1,.56.86,5.76,5.76,0,0,1,.34,1,7.56,7.56,0,0,1,.17,1.07q0,0.54,0,1a9.73,9.73,0,0,1-.18,2,4.78,4.78,0,0,1-.56,1.51,2.75,2.75,0,0,1-1,1A2.66,2.66,0,0,1,41.09,13.22Zm0-8a1.09,1.09,0,0,0-.56.16,1.29,1.29,0,0,0-.46.53,3.55,3.55,0,0,0-.31,1,8.61,8.61,0,0,0-.11,1.53A8.7,8.7,0,0,0,39.75,10a3.45,3.45,0,0,0,.31,1,1.29,1.29,0,0,0,.46.53,1.1,1.1,0,0,0,1.13,0A1.3,1.3,0,0,0,42.12,11a3.47,3.47,0,0,0,.31-1,8.7,8.7,0,0,0,.11-1.54,8.61,8.61,0,0,0-.11-1.53,3.56,3.56,0,0,0-.31-1,1.3,1.3,0,0,0-.46-0.53A1.1,1.1,0,0,0,41.09,5.23Z" transform="translate(-3.61 1.6)"/><path class="cls-2" d="M55,8.51a2.4,2.4,0,0,1-.76.76,1.88,1.88,0,0,1-1,.28,2.26,2.26,0,0,1-.67-0.11l-0.69-.24L51.21,9a1.58,1.58,0,0,0-.53-0.11,0.93,0.93,0,0,0-.55.22,3,3,0,0,0-.53.52,0.17,0.17,0,0,1-.16.1,0.42,0.42,0,0,1-.16-0.18l-0.44-.72a0.19,0.19,0,0,1,0-.14,0.66,0.66,0,0,1,0-.12,2,2,0,0,1,.78-0.76,2.27,2.27,0,0,1,1.09-.26,2.5,2.5,0,0,1,.67.1l0.7,0.22L52.68,8a1.44,1.44,0,0,0,.46.1,0.64,0.64,0,0,0,.29-0.07,1.47,1.47,0,0,0,.28-0.18l0.25-.22,0.2-.2a0.38,0.38,0,0,1,.15-0.11,0.2,0.2,0,0,1,.15.11L55,8.22a0.22,0.22,0,0,1,.05.14A0.4,0.4,0,0,1,55,8.51Z" transform="translate(-3.61 1.6)"/><path class="cls-2" d="M62.5,13.09A0.24,0.24,0,0,1,62.32,13a0.31,0.31,0,0,1,0-.2V6l-0.73.7c-0.13.12-.23,0.13-0.3,0l-0.71-.8a0.14,0.14,0,0,1,0-.15,0.57,0.57,0,0,1,.14-0.16l1.85-1.73a0.44,0.44,0,0,1,.29-0.11h0.79a0.47,0.47,0,0,1,.31.06,0.77,0.77,0,0,1,0,.36v8.64a0.32,0.32,0,0,1,0,.19,0.22,0.22,0,0,1-.18.06H62.5Z" transform="translate(-3.61 1.6)"/><path class="cls-2" d="M70.27,13.22a2.6,2.6,0,0,1-2.36-1.31,4.71,4.71,0,0,1-.56-1.51,9.83,9.83,0,0,1-.18-2q0-.48,0-1a7.34,7.34,0,0,1,.17-1.07,5.49,5.49,0,0,1,.35-1,3.27,3.27,0,0,1,.56-0.86,2.57,2.57,0,0,1,.83-0.59,2.71,2.71,0,0,1,1.13-.22,2.67,2.67,0,0,1,1.13.22,2.59,2.59,0,0,1,.82.59,3.14,3.14,0,0,1,.56.86,5.8,5.8,0,0,1,.34,1,7.63,7.63,0,0,1,.17,1.07q0,0.54,0,1a9.66,9.66,0,0,1-.18,2,4.75,4.75,0,0,1-.56,1.51,2.74,2.74,0,0,1-1,1A2.66,2.66,0,0,1,70.27,13.22Zm0-8a1.09,1.09,0,0,0-.56.16,1.3,1.3,0,0,0-.46.53,3.55,3.55,0,0,0-.31,1,8.61,8.61,0,0,0-.11,1.53A8.7,8.7,0,0,0,68.94,10a3.46,3.46,0,0,0,.31,1,1.3,1.3,0,0,0,.46.53,1.09,1.09,0,0,0,1.13,0A1.3,1.3,0,0,0,71.3,11a3.49,3.49,0,0,0,.31-1,8.7,8.7,0,0,0,.11-1.54,8.61,8.61,0,0,0-.11-1.53,3.58,3.58,0,0,0-.31-1,1.31,1.31,0,0,0-.46-0.53A1.09,1.09,0,0,0,70.27,5.23Z" transform="translate(-3.61 1.6)"/><path class="cls-2" d="M77.55,13.22a2.6,2.6,0,0,1-2.36-1.31,4.69,4.69,0,0,1-.56-1.51,9.76,9.76,0,0,1-.18-2c0-.32,0-0.66,0-1a7.47,7.47,0,0,1,.17-1.07,5.5,5.5,0,0,1,.35-1,3.27,3.27,0,0,1,.56-0.86,2.57,2.57,0,0,1,.83-0.59,2.72,2.72,0,0,1,1.13-.22,2.67,2.67,0,0,1,1.13.22,2.58,2.58,0,0,1,.82.59,3.16,3.16,0,0,1,.56.86,5.8,5.8,0,0,1,.34,1,7.49,7.49,0,0,1,.17,1.07c0,0.36,0,.7,0,1a9.73,9.73,0,0,1-.18,2,4.78,4.78,0,0,1-.56,1.51,2.74,2.74,0,0,1-1,1A2.65,2.65,0,0,1,77.55,13.22Zm0-8a1.09,1.09,0,0,0-.56.16,1.3,1.3,0,0,0-.46.53,3.55,3.55,0,0,0-.31,1,8.6,8.6,0,0,0-.12,1.53A8.69,8.69,0,0,0,76.21,10a3.46,3.46,0,0,0,.31,1,1.3,1.3,0,0,0,.46.53,1.1,1.1,0,0,0,1.13,0A1.3,1.3,0,0,0,78.57,11a3.45,3.45,0,0,0,.31-1A8.71,8.71,0,0,0,79,8.45a8.62,8.62,0,0,0-.11-1.53,3.55,3.55,0,0,0-.31-1,1.3,1.3,0,0,0-.46-0.53A1.09,1.09,0,0,0,77.55,5.23Z" transform="translate(-3.61 1.6)"/><path class="cls-2" d="M86.27,8a1.78,1.78,0,0,1-.71.56,2.48,2.48,0,0,1-1,.17,2.4,2.4,0,0,1-1-.19A1.85,1.85,0,0,1,82.89,8a2.16,2.16,0,0,1-.39-0.8,4,4,0,0,1-.12-1,4,4,0,0,1,.12-1,2.27,2.27,0,0,1,.39-0.82,1.91,1.91,0,0,1,.68-0.56,2.28,2.28,0,0,1,1-.2,2.25,2.25,0,0,1,1,.2,1.92,1.92,0,0,1,.68.56,2.32,2.32,0,0,1,.4.82,3.82,3.82,0,0,1,.13,1,3.74,3.74,0,0,1-.13,1A2.14,2.14,0,0,1,86.27,8ZM84.59,5.06a0.57,0.57,0,0,0-.52.26,1.67,1.67,0,0,0-.17.87,1.93,1.93,0,0,0,.15.79,0.54,0.54,0,0,0,.53.34,0.55,0.55,0,0,0,.49-0.26,1.67,1.67,0,0,0,.17-0.87,1.66,1.66,0,0,0-.17-0.87A0.55,0.55,0,0,0,84.59,5.06Zm1.32,8.06a0.25,0.25,0,0,1-.14.14,0.78,0.78,0,0,1-.22,0H84.47a0.39,0.39,0,0,1-.23-0.05s0-.11,0-0.23l5.17-9.36a0.33,0.33,0,0,1,.11-0.12,0.42,0.42,0,0,1,.17,0H91a0.31,0.31,0,0,1,.25.07,0.28,0.28,0,0,1-.05.25Zm6.53-.73a1.78,1.78,0,0,1-.71.56,2.49,2.49,0,0,1-1,.17,2.4,2.4,0,0,1-1-.19,1.84,1.84,0,0,1-.68-0.53,2.15,2.15,0,0,1-.39-0.8,4.25,4.25,0,0,1,0-2,2.28,2.28,0,0,1,.39-0.82,1.91,1.91,0,0,1,.68-0.56,2.28,2.28,0,0,1,1-.2,2.25,2.25,0,0,1,1,.2,1.91,1.91,0,0,1,.68.56,2.34,2.34,0,0,1,.4.82,3.82,3.82,0,0,1,.13,1,3.75,3.75,0,0,1-.13,1A2.13,2.13,0,0,1,92.44,12.4ZM90.76,9.47a0.57,0.57,0,0,0-.52.26,1.68,1.68,0,0,0-.17.87,1.93,1.93,0,0,0,.15.79,0.54,0.54,0,0,0,.53.34,0.55,0.55,0,0,0,.49-0.26,1.67,1.67,0,0,0,.17-0.87,1.67,1.67,0,0,0-.17-0.87A0.55,0.55,0,0,0,90.76,9.47Z" transform="translate(-3.61 1.6)"/></svg>