<svg id="레이어_1" data-name="레이어 1" xmlns="http://www.w3.org/2000/svg" width="210" height="210" viewBox="0 0 210 210">
  <defs>
    <style>
      .cls-1, .cls-3, .cls-4, .cls-6 {
        fill: #fff;
      }

      .cls-1 {
        fill-opacity: 0;
      }

      .cls-2, .cls-7, .cls-9 {
        fill: none;
      }

      .cls-2, .cls-3, .cls-4, .cls-6, .cls-7, .cls-8, .cls-9 {
        stroke: #26cad3;
      }

      .cls-2, .cls-3, .cls-4, .cls-6, .cls-7, .cls-8 {
        stroke-miterlimit: 10;
      }

      .cls-2, .cls-3, .cls-8 {
        stroke-width: 1.5px;
      }

      .cls-5, .cls-8 {
        fill: #26cad3;
      }

      .cls-6 {
        stroke-width: 0.8px;
      }

      .cls-7, .cls-9 {
        stroke-linecap: round;
      }

      .cls-7 {
        stroke-width: 0.5px;
      }

      .cls-9 {
        stroke-linejoin: round;
        stroke-width: 2px;
        stroke-dasharray: 3 5;
      }
    </style>
  </defs>
  <title>helpGyroYaw</title>
  <rect class="cls-1" width="210" height="210"/>
  <path class="cls-2" d="M142.31,101.15V92.63a2.42,2.42,0,0,0-.15-1.38V91.19L142,91V90.87l-0.14-.19-0.08-.09-0.18-.17-0.08-.07a2.46,2.46,0,0,0-.3-0.21h0l-31.51-18.2a6.11,6.11,0,0,0-3.06-.82h0a6.1,6.1,0,0,0-3,.82l-5.17,3L72,90.13a2.46,2.46,0,0,0-.31.21l-0.08.07-0.18.17-0.08.09-0.14.19,0,0.14a2.34,2.34,0,0,0-.13.24V91.3a2.42,2.42,0,0,0-.15,1.38v8.53a2.44,2.44,0,0,0,0,.83v21a2.38,2.38,0,0,0,1.15,2.5l31.51,18.19a6.11,6.11,0,0,0,6.11,0l31.51-18.19a2.38,2.38,0,0,0,1.15-2.5V102A2.44,2.44,0,0,0,142.31,101.15Z"/>
  <path class="cls-3" d="M142.31,123V92.2H70.88V123A2.38,2.38,0,0,0,72,125.5l31.51,18.19a6.11,6.11,0,0,0,6.11,0l31.51-18.19A2.38,2.38,0,0,0,142.31,123Z"/>
  <path class="cls-4" d="M142.31,92.63a2.38,2.38,0,0,0-1.15-2.5l-31.51-18.2a6.11,6.11,0,0,0-6.11,0L72,90.13a2.38,2.38,0,0,0-1.15,2.5v8.53a2.38,2.38,0,0,0,1.15,2.5l31.51,18.19a6.11,6.11,0,0,0,6.11,0l31.51-18.19a2.38,2.38,0,0,0,1.15-2.5V92.63h0Z"/>
  <path class="cls-4" d="M73.56,104.53v10.53a6.45,6.45,0,0,0,3.1,4.89l24.15,13.94c1.71,1,3.1.39,3.1-1.31V122.05Z"/>
  <path class="cls-4" d="M99.33,130.82h0a3.83,3.83,0,0,1-2.24-3.19v-5.29c0-1.23,1-1.81,2.24-1.29h0a3.83,3.83,0,0,1,2.24,3.19v5.29C101.57,130.76,100.56,131.34,99.33,130.82Z"/>
  <path class="cls-4" d="M78.14,118.61h0a3.83,3.83,0,0,1-2.24-3.19v-5.29c0-1.23,1-1.81,2.24-1.29h0A3.83,3.83,0,0,1,80.38,112v5.29C80.38,118.55,79.37,119.13,78.14,118.61Z"/>
  <path class="cls-5" d="M94.08,122.28a0.49,0.49,0,0,1-.72.46,1.15,1.15,0,0,1-.72-1,0.49,0.49,0,0,1,.72-0.46A1.15,1.15,0,0,1,94.08,122.28Z"/>
  <path class="cls-5" d="M91.77,120.87a0.49,0.49,0,0,1-.72.46,1.15,1.15,0,0,1-.72-1,0.49,0.49,0,0,1,.72-0.46A1.15,1.15,0,0,1,91.77,120.87Z"/>
  <path class="cls-5" d="M89.46,119.45a0.49,0.49,0,0,1-.72.46,1.15,1.15,0,0,1-.72-1,0.49,0.49,0,0,1,.72-0.46A1.15,1.15,0,0,1,89.46,119.45Z"/>
  <path class="cls-5" d="M87.15,118a0.49,0.49,0,0,1-.72.46,1.15,1.15,0,0,1-.72-1,0.49,0.49,0,0,1,.72-0.46A1.15,1.15,0,0,1,87.15,118Z"/>
  <path class="cls-5" d="M84.84,116.62a0.49,0.49,0,0,1-.72.46,1.15,1.15,0,0,1-.72-1,0.49,0.49,0,0,1,.72-0.46A1.15,1.15,0,0,1,84.84,116.62Z"/>
  <path class="cls-5" d="M91.77,123.38a0.49,0.49,0,0,1-.72.46,1.15,1.15,0,0,1-.72-1,0.49,0.49,0,0,1,.72-0.46A1.15,1.15,0,0,1,91.77,123.38Z"/>
  <path class="cls-5" d="M89.46,122a0.49,0.49,0,0,1-.72.46,1.15,1.15,0,0,1-.72-1,0.49,0.49,0,0,1,.72-0.46A1.15,1.15,0,0,1,89.46,122Z"/>
  <path class="cls-5" d="M87.15,120.54a0.49,0.49,0,0,1-.72.46,1.15,1.15,0,0,1-.72-1,0.49,0.49,0,0,1,.72-0.46A1.15,1.15,0,0,1,87.15,120.54Z"/>
  <path class="cls-4" d="M139.63,104.53v10.53a6.45,6.45,0,0,1-3.1,4.89L112.38,133.9c-1.71,1-3.1.39-3.1-1.31V122.05Z"/>
  <path class="cls-4" d="M113.86,130.82h0a3.83,3.83,0,0,0,2.24-3.19v-5.29c0-1.23-1-1.81-2.24-1.29h0a3.83,3.83,0,0,0-2.24,3.19v5.29C111.62,130.76,112.63,131.34,113.86,130.82Z"/>
  <path class="cls-4" d="M135.05,118.61h0a3.83,3.83,0,0,0,2.24-3.19v-5.29c0-1.23-1-1.81-2.24-1.29h0a3.83,3.83,0,0,0-2.24,3.19v5.29C132.81,118.55,133.82,119.13,135.05,118.61Z"/>
  <path class="cls-5" d="M119.11,122.28a0.49,0.49,0,0,0,.72.46,1.15,1.15,0,0,0,.72-1,0.49,0.49,0,0,0-.72-0.46A1.15,1.15,0,0,0,119.11,122.28Z"/>
  <path class="cls-5" d="M121.42,120.87a0.49,0.49,0,0,0,.72.46,1.15,1.15,0,0,0,.72-1,0.49,0.49,0,0,0-.72-0.46A1.15,1.15,0,0,0,121.42,120.87Z"/>
  <path class="cls-5" d="M123.73,119.45a0.49,0.49,0,0,0,.72.46,1.15,1.15,0,0,0,.72-1,0.49,0.49,0,0,0-.72-0.46A1.15,1.15,0,0,0,123.73,119.45Z"/>
  <path class="cls-5" d="M126,118a0.49,0.49,0,0,0,.72.46,1.15,1.15,0,0,0,.72-1,0.49,0.49,0,0,0-.72-0.46A1.15,1.15,0,0,0,126,118Z"/>
  <path class="cls-5" d="M128.35,116.62a0.49,0.49,0,0,0,.72.46,1.15,1.15,0,0,0,.72-1,0.49,0.49,0,0,0-.72-0.46A1.15,1.15,0,0,0,128.35,116.62Z"/>
  <path class="cls-5" d="M121.42,123.38a0.49,0.49,0,0,0,.72.46,1.15,1.15,0,0,0,.72-1,0.49,0.49,0,0,0-.72-0.46A1.15,1.15,0,0,0,121.42,123.38Z"/>
  <path class="cls-5" d="M123.73,122a0.49,0.49,0,0,0,.72.46,1.15,1.15,0,0,0,.72-1,0.49,0.49,0,0,0-.72-0.46A1.15,1.15,0,0,0,123.73,122Z"/>
  <path class="cls-5" d="M126,120.54a0.49,0.49,0,0,0,.72.46,1.15,1.15,0,0,0,.72-1,0.49,0.49,0,0,0-.72-0.46A1.15,1.15,0,0,0,126,120.54Z"/>
  <path class="cls-4" d="M103.54,71.93L72,90.13a2.39,2.39,0,0,0,0,4.14l31.51,18.19a6.11,6.11,0,0,0,6.11,0l31.51-18.19a2.39,2.39,0,0,0,0-4.14l-31.51-18.2A6.11,6.11,0,0,0,103.54,71.93Z"/>
  <ellipse class="cls-5" cx="132.82" cy="91.96" rx="1.93" ry="0.88"/>
  <ellipse class="cls-6" cx="86.85" cy="87.41" rx="4.2" ry="1.91"/>
  <path class="cls-5" d="M87.7,88.58h0l-0.38.28H87.24a0.08,0.08,0,0,1-.05-0.06l-0.64-1.31-2.08-.14a0.12,0.12,0,0,1-.09,0,0.08,0.08,0,0,1,0-.06L84.74,87h0.11l1.49,0.11-0.43-.88h0L86.33,86h0.13L87,87.21l2.21,0.17h0.1a0.06,0.06,0,0,1,0,.05l-0.38.28H88.84l-1.61-.12Z"/>
  <ellipse class="cls-6" cx="86.85" cy="96.16" rx="4.2" ry="1.91"/>
  <path class="cls-5" d="M88.76,96.9h0l-0.31.23H88.3l-1.18-.61-2.43-.21H84.6V96.25l0.4-.18a0.18,0.18,0,0,1,.12,0l1.81,0.17-0.6-1.05a0,0,0,0,1,0-.07h0l0.36-.26a0.09,0.09,0,0,1,.08,0,0.1,0.1,0,0,1,0,.06l0.74,1.43Z"/>
  <line class="cls-7" x1="81.79" y1="89.87" x2="83.21" y2="89.02"/>
  <line class="cls-7" x1="82.54" y1="93.53" x2="84.01" y2="94.29"/>
  <path class="cls-4" d="M59.16,93.31c0.9-6.51,4.56-12.88,11.11-18.2,17-13.86,47.14-15.37,67.21-3.37,9.76,5.84,15.34,13.79,16.55,22,1.45-10.44-4.22-21.24-16.58-28.63-20.07-12-50.16-10.49-67.21,3.37C61.48,75.62,57.88,84.62,59.16,93.31Z"/>
  <path class="cls-8" d="M75.74,121.94C84.85,127.39,96,130,107.09,130l1,4.6a144.3,144.3,0,0,0,11.65-9.47c-5.32-1.82-15.21-6.84-15.21-6.84l1.11,5.09c-10.61-.21-21.22-2.86-29.93-8.08-9.76-5.84-15.34-13.79-16.55-22C57.71,103.75,63.38,114.55,75.74,121.94Z"/>
  <path class="cls-8" d="M129.7,119.42l1,6.23a47.25,47.25,0,0,0,12.3-7.08c8.76-7.12,12.36-16.12,11.08-24.81-0.9,6.51-4.56,12.88-11.11,18.2A47.74,47.74,0,0,1,129.7,119.42Z"/>
  <line class="cls-9" x1="106.6" y1="147.08" x2="106.6" y2="178.84"/>
  <path class="cls-5" d="M102.51,45.84a0.61,0.61,0,0,1-.34-0.55V44a0.36,0.36,0,0,1,.06-0.21l0.12-.15,5.6-6.16-5.26-3a0.72,0.72,0,0,1-.27-0.23,0.62,0.62,0,0,1-.07-0.32V32.37a0.26,0.26,0,0,1,.07-0.23,0.33,0.33,0,0,1,.27.07l7.86,4.54a0.76,0.76,0,0,1,.29.25,0.66,0.66,0,0,1,.06.31v1.44a0.4,0.4,0,0,1,0,.17,0.29,0.29,0,0,1-.09.12l-5.72,6,5.76,3.32a0.71,0.71,0,0,1,.27.23,0.62,0.62,0,0,1,.07.32v1.53a0.27,0.27,0,0,1-.07.24,0.33,0.33,0,0,1-.27-0.07Z"/>
  <line class="cls-9" x1="106.6" y1="88.49" x2="106.6" y2="50.94"/>
  <ellipse class="cls-6" cx="79.24" cy="91.79" rx="4.2" ry="1.91"/>
  <path class="cls-5" d="M79.94,93.11a0.12,0.12,0,0,1-.14,0L79.53,93h0l-1-1.78-1,.7H77.39l-0.33-.17h0l1.44-1h0.14l0.31,0.16h0L79.9,92.7l1.1-.94h0.14l0.33,0.17h0Z"/>
</svg>
