<svg id="레이어_1" data-name="레이어 1" xmlns="http://www.w3.org/2000/svg" width="192" height="192" viewBox="0 0 192 192"><defs><style>.cls-1,.cls-4,.cls-5{fill:#fff;}.cls-1{opacity:0;}.cls-2{fill:#f1f1f1;}.cls-3{fill:none;}.cls-3,.cls-4,.cls-5{stroke:#26cad3;stroke-miterlimit:10;}.cls-3,.cls-4{stroke-width:1.5px;}.cls-6{fill:#26cad3;}</style></defs><title>basic</title><rect class="cls-1" width="192" height="192"/><path class="cls-2" d="M90.88,110.88l-52.82,30.5a4,4,0,0,0,0,6.94l52.82,30.5a10.24,10.24,0,0,0,10.24,0l52.81-30.49a4,4,0,0,0,0-6.94l-52.81-30.5A10.24,10.24,0,0,0,90.88,110.88Z"/><path class="cls-3" d="M145.28,105.55V93.79a3.34,3.34,0,0,0-.21-1.9l0-.08a3.23,3.23,0,0,0-.17-0.33l-0.08-.12-0.2-.26L144.48,91l-0.25-.24-0.12-.1a3.39,3.39,0,0,0-.41-0.29h0L100.22,65.23A8.43,8.43,0,0,0,96,64.1H95.94a8.42,8.42,0,0,0-4.15,1.13l-7.13,4.12-36.35,21a3.39,3.39,0,0,0-.42.29l-0.11.1L47.52,91l-0.11.12-0.2.27-0.08.12a3.23,3.23,0,0,0-.17.33l0,0.08a3.34,3.34,0,0,0-.21,1.9v11.77a3.37,3.37,0,0,0,0,1.14v29a3.28,3.28,0,0,0,1.59,3.45l43.48,25.1a8.43,8.43,0,0,0,8.43,0l43.47-25.1a3.28,3.28,0,0,0,1.59-3.45v-29A3.37,3.37,0,0,0,145.28,105.55Z"/><path class="cls-4" d="M145.28,135.7V93.19H46.71V135.7a3.28,3.28,0,0,0,1.59,3.45l43.48,25.1a8.43,8.43,0,0,0,8.43,0l43.47-25.1A3.28,3.28,0,0,0,145.28,135.7Z"/><path class="cls-5" d="M145.28,93.79a3.28,3.28,0,0,0-1.59-3.45L100.22,65.23a8.43,8.43,0,0,0-8.43,0L48.31,90.33a3.28,3.28,0,0,0-1.59,3.45v11.76A3.28,3.28,0,0,0,48.31,109l43.48,25.1a8.43,8.43,0,0,0,8.43,0L143.69,109a3.28,3.28,0,0,0,1.59-3.45V93.79Z"/><polygon class="cls-5" points="46.72 93.18 46.72 93.19 96 121.64 145.28 93.19 145.28 93.18 96 64.72 46.72 93.18"/><path class="cls-5" d="M50.42,110.21v14.54c0,2.35,1.93,5.39,4.28,6.75L88,150.73c2.35,1.36,4.28.54,4.28-1.81V134.39Z"/><path class="cls-5" d="M86,146.48h0a5.29,5.29,0,0,1-3.09-4.4v-7.3c0-1.7,1.39-2.5,3.09-1.78h0a5.29,5.29,0,0,1,3.09,4.4v7.3C89.07,146.4,87.68,147.2,86,146.48Z"/><path class="cls-5" d="M56.74,129.64h0a5.29,5.29,0,0,1-3.09-4.4v-7.3c0-1.7,1.39-2.5,3.09-1.78h0a5.29,5.29,0,0,1,3.09,4.4v7.3C59.83,129.55,58.44,130.36,56.74,129.64Z"/><path class="cls-6" d="M78.74,134.7a0.68,0.68,0,0,1-1,.64,1.58,1.58,0,0,1-1-1.36,0.68,0.68,0,0,1,1-.64A1.58,1.58,0,0,1,78.74,134.7Z"/><path class="cls-6" d="M75.55,132.75a0.68,0.68,0,0,1-1,.64,1.58,1.58,0,0,1-1-1.36,0.68,0.68,0,0,1,1-.64A1.58,1.58,0,0,1,75.55,132.75Z"/><path class="cls-6" d="M72.36,130.79a0.68,0.68,0,0,1-1,.64,1.58,1.58,0,0,1-1-1.36,0.68,0.68,0,0,1,1-.64A1.58,1.58,0,0,1,72.36,130.79Z"/><path class="cls-6" d="M69.17,128.84a0.68,0.68,0,0,1-1,.64,1.58,1.58,0,0,1-1-1.36,0.68,0.68,0,0,1,1-.64A1.58,1.58,0,0,1,69.17,128.84Z"/><path class="cls-6" d="M66,126.88a0.68,0.68,0,0,1-1,.64,1.58,1.58,0,0,1-1-1.36,0.68,0.68,0,0,1,1-.64A1.58,1.58,0,0,1,66,126.88Z"/><path class="cls-6" d="M75.55,136.21a0.68,0.68,0,0,1-1,.64,1.58,1.58,0,0,1-1-1.36,0.68,0.68,0,0,1,1-.64A1.58,1.58,0,0,1,75.55,136.21Z"/><path class="cls-6" d="M72.36,134.26a0.68,0.68,0,0,1-1,.64,1.58,1.58,0,0,1-1-1.36,0.68,0.68,0,0,1,1-.64A1.58,1.58,0,0,1,72.36,134.26Z"/><path class="cls-6" d="M69.17,132.3a0.68,0.68,0,0,1-1,.64,1.58,1.58,0,0,1-1-1.36,0.68,0.68,0,0,1,1-.64A1.58,1.58,0,0,1,69.17,132.3Z"/><path class="cls-5" d="M141.58,110.21v14.54c0,2.35-1.93,5.39-4.28,6.75L104,150.73c-2.35,1.36-4.28.54-4.28-1.81V134.39Z"/><path class="cls-5" d="M106,146.48h0a5.29,5.29,0,0,0,3.09-4.4v-7.3c0-1.7-1.39-2.5-3.09-1.78h0a5.29,5.29,0,0,0-3.09,4.4v7.3C102.93,146.4,104.32,147.2,106,146.48Z"/><path class="cls-5" d="M135.26,129.64h0a5.29,5.29,0,0,0,3.09-4.4v-7.3c0-1.7-1.39-2.5-3.09-1.78h0a5.29,5.29,0,0,0-3.09,4.4v7.3C132.17,129.55,133.56,130.36,135.26,129.64Z"/><path class="cls-6" d="M113.26,134.7a0.68,0.68,0,0,0,1,.64,1.58,1.58,0,0,0,1-1.36,0.68,0.68,0,0,0-1-.64A1.58,1.58,0,0,0,113.26,134.7Z"/><path class="cls-6" d="M116.45,132.75a0.68,0.68,0,0,0,1,.64,1.58,1.58,0,0,0,1-1.36,0.68,0.68,0,0,0-1-.64A1.58,1.58,0,0,0,116.45,132.75Z"/><path class="cls-6" d="M119.64,130.79a0.68,0.68,0,0,0,1,.64,1.58,1.58,0,0,0,1-1.36,0.68,0.68,0,0,0-1-.64A1.58,1.58,0,0,0,119.64,130.79Z"/><path class="cls-6" d="M122.83,128.84a0.68,0.68,0,0,0,1,.64,1.58,1.58,0,0,0,1-1.36,0.68,0.68,0,0,0-1-.64A1.58,1.58,0,0,0,122.83,128.84Z"/><path class="cls-6" d="M126,126.88a0.68,0.68,0,0,0,1,.64,1.58,1.58,0,0,0,1-1.36,0.68,0.68,0,0,0-1-.64A1.58,1.58,0,0,0,126,126.88Z"/><path class="cls-6" d="M116.45,136.21a0.68,0.68,0,0,0,1,.64,1.58,1.58,0,0,0,1-1.36,0.68,0.68,0,0,0-1-.64A1.58,1.58,0,0,0,116.45,136.21Z"/><path class="cls-6" d="M119.64,134.26a0.68,0.68,0,0,0,1,.64,1.58,1.58,0,0,0,1-1.36,0.68,0.68,0,0,0-1-.64A1.58,1.58,0,0,0,119.64,134.26Z"/><path class="cls-6" d="M122.83,132.3a0.68,0.68,0,0,0,1,.64,1.58,1.58,0,0,0,1-1.36,0.68,0.68,0,0,0-1-.64A1.58,1.58,0,0,0,122.83,132.3Z"/><path class="cls-5" d="M91.79,65.23L48.31,90.33a3.3,3.3,0,0,0,0,5.71l43.48,25.1a8.43,8.43,0,0,0,8.43,0l43.47-25.1a3.3,3.3,0,0,0,0-5.71L100.22,65.23A8.43,8.43,0,0,0,91.79,65.23Z"/><ellipse class="cls-6" cx="132.18" cy="92.86" rx="2.66" ry="1.21"/></svg>