<?xml version="1.0" encoding="utf-8"?>
<!-- Generator: Adobe Illustrator 17.0.0, SVG Export Plug-In . SVG Version: 6.00 Build 0)  -->
<!DOCTYPE svg PUBLIC "-//W3C//DTD SVG 1.1//EN" "http://www.w3.org/Graphics/SVG/1.1/DTD/svg11.dtd">
<svg version="1.1" id="Layer_1" xmlns="http://www.w3.org/2000/svg" xmlns:xlink="http://www.w3.org/1999/xlink" x="0px" y="0px"
	 width="210px" height="210px" viewBox="0 0 210 210" enable-background="new 0 0 210 210" xml:space="preserve">
<rect y="-0.031" fill="#FFFFFF" fill-opacity="0" width="210" height="210"/>
<g>
	<g opacity="0.25">
		<path fill="none" stroke="#26CAD3" stroke-width="1.5" stroke-miterlimit="10" d="M150.709,98.634V90.11
			c0.083-0.462,0.033-0.943-0.154-1.379c-0.009-0.02-0.019-0.04-0.028-0.06c-0.037-0.081-0.079-0.16-0.126-0.237
			c-0.018-0.03-0.037-0.058-0.056-0.087c-0.044-0.066-0.093-0.13-0.144-0.192c-0.025-0.03-0.05-0.061-0.077-0.09
			c-0.055-0.06-0.116-0.116-0.178-0.171c-0.028-0.025-0.054-0.051-0.084-0.075c-0.093-0.075-0.193-0.145-0.301-0.207
			c-0.001-0.001-0.003-0.002-0.004-0.003l-31.507-18.198c-0.709-0.41-1.48-0.666-2.266-0.768c-0.262-0.034-0.526-0.051-0.79-0.051
			c-0.016,0-0.032,0.003-0.048,0.003c-1.039,0.008-2.077,0.278-3.008,0.816l-5.168,2.984L80.425,87.605
			c-0.11,0.063-0.211,0.135-0.305,0.21c-0.029,0.023-0.054,0.049-0.082,0.073c-0.063,0.056-0.124,0.113-0.18,0.173
			c-0.027,0.029-0.051,0.059-0.076,0.089c-0.052,0.062-0.1,0.126-0.145,0.193c-0.019,0.029-0.038,0.057-0.056,0.087
			c-0.047,0.077-0.089,0.156-0.126,0.237c-0.009,0.02-0.019,0.039-0.028,0.059c-0.187,0.436-0.237,0.917-0.154,1.379v8.527
			c-0.049,0.274-0.045,0.555,0,0.83v21.024c-0.168,0.936,0.213,1.958,1.153,2.5l31.514,18.194c1.891,1.092,4.22,1.092,6.111,0
			l31.507-18.191c0.94-0.543,1.321-1.564,1.153-2.501V99.467C150.755,99.191,150.758,98.909,150.709,98.634z"/>
		<path fill="#FFFFFF" stroke="#26CAD3" stroke-miterlimit="10" d="M150.709,120.489V89.676H79.272v30.809
			c-0.168,0.936,0.213,1.958,1.153,2.5l31.514,18.194c1.891,1.092,4.22,1.092,6.111,0l31.507-18.191
			C150.496,122.447,150.877,121.426,150.709,120.489z"/>
		<path fill="#FFFFFF" stroke="#26CAD3" stroke-miterlimit="10" d="M150.709,90.11c0.168-0.936-0.213-1.958-1.152-2.501
			l-31.507-18.198c-1.891-1.092-4.221-1.092-6.112-0.001L80.425,87.605c-0.94,0.543-1.321,1.564-1.153,2.501v8.525
			c-0.168,0.936,0.213,1.958,1.153,2.501l31.514,18.194c1.891,1.092,4.22,1.092,6.111,0l31.507-18.191
			c0.94-0.543,1.321-1.564,1.153-2.501V90.11z"/>
		<path fill="#FFFFFF" stroke="#26CAD3" stroke-miterlimit="10" d="M81.955,102.011v10.534c0,1.705,1.395,3.905,3.1,4.89
			l24.151,13.944c1.705,0.984,3.1,0.395,3.1-1.31v-10.534L81.955,102.011z"/>
		<g>
			<path fill="#FFFFFF" stroke="#26CAD3" stroke-miterlimit="10" d="M107.727,128.3L107.727,128.3
				c-1.232-0.521-2.239-1.954-2.239-3.186v-5.288c0-1.232,1.008-1.813,2.239-1.293h0c1.232,0.521,2.239,1.954,2.239,3.186v5.288
				C109.966,128.238,108.958,128.82,107.727,128.3z"/>
			<path fill="#FFFFFF" stroke="#26CAD3" stroke-miterlimit="10" d="M86.535,116.093L86.535,116.093
				c-1.232-0.521-2.239-1.954-2.239-3.186v-5.288c0-1.232,1.008-1.813,2.239-1.293l0,0c1.232,0.521,2.239,1.954,2.239,3.186v5.288
				C88.775,116.031,87.767,116.613,86.535,116.093z"/>
		</g>
		<g>
			<path fill="#26CAD3" d="M102.478,119.764c0,0.4-0.324,0.606-0.724,0.46c-0.4-0.146-0.724-0.588-0.724-0.987
				c0-0.4,0.324-0.606,0.724-0.46C102.154,118.922,102.478,119.364,102.478,119.764z"/>
			<path fill="#26CAD3" d="M100.167,118.347c0,0.4-0.324,0.606-0.724,0.46c-0.4-0.146-0.724-0.588-0.724-0.987
				c0-0.4,0.324-0.606,0.724-0.46C99.842,117.505,100.167,117.947,100.167,118.347z"/>
			<path fill="#26CAD3" d="M97.855,116.93c0,0.4-0.324,0.606-0.724,0.46c-0.4-0.146-0.724-0.588-0.724-0.987
				c0-0.4,0.324-0.606,0.724-0.46C97.531,116.088,97.855,116.53,97.855,116.93z"/>
			<path fill="#26CAD3" d="M95.543,115.513c0,0.4-0.324,0.606-0.724,0.46c-0.4-0.146-0.724-0.588-0.724-0.987
				c0-0.4,0.324-0.606,0.724-0.46C95.219,114.671,95.543,115.113,95.543,115.513z"/>
			<path fill="#26CAD3" d="M93.232,114.096c0,0.4-0.324,0.606-0.724,0.46s-0.724-0.588-0.724-0.987c0-0.4,0.324-0.606,0.724-0.46
				S93.232,113.696,93.232,114.096z"/>
			<path fill="#26CAD3" d="M100.167,120.857c0,0.4-0.324,0.606-0.724,0.46c-0.4-0.146-0.724-0.588-0.724-0.987
				s0.324-0.606,0.724-0.46C99.842,120.015,100.167,120.457,100.167,120.857z"/>
			<path fill="#26CAD3" d="M97.855,119.44c0,0.4-0.324,0.606-0.724,0.46c-0.4-0.146-0.724-0.588-0.724-0.987
				c0-0.4,0.324-0.606,0.724-0.46C97.531,118.599,97.855,119.041,97.855,119.44z"/>
			<path fill="#26CAD3" d="M95.543,118.024c0,0.4-0.324,0.606-0.724,0.46c-0.4-0.146-0.724-0.588-0.724-0.987
				c0-0.4,0.324-0.606,0.724-0.46C95.219,117.182,95.543,117.624,95.543,118.024z"/>
		</g>
		<path fill="#FFFFFF" stroke="#26CAD3" stroke-miterlimit="10" d="M148.025,102.011v10.534c0,1.705-1.395,3.905-3.1,4.89
			l-24.151,13.944c-1.705,0.984-3.1,0.395-3.1-1.31v-10.534L148.025,102.011z"/>
		<g>
			<path fill="#FFFFFF" stroke="#26CAD3" stroke-miterlimit="10" d="M122.254,128.3L122.254,128.3
				c1.232-0.521,2.239-1.954,2.239-3.186v-5.288c0-1.232-1.008-1.813-2.239-1.293h0c-1.232,0.521-2.239,1.954-2.239,3.186v5.288
				C120.015,128.238,121.022,128.82,122.254,128.3z"/>
			<path fill="#FFFFFF" stroke="#26CAD3" stroke-miterlimit="10" d="M143.445,116.093L143.445,116.093
				c1.232-0.521,2.239-1.954,2.239-3.186v-5.288c0-1.232-1.008-1.813-2.239-1.293l0,0c-1.232,0.521-2.239,1.954-2.239,3.186v5.288
				C141.206,116.031,142.214,116.613,143.445,116.093z"/>
		</g>
		<g>
			<path fill="#26CAD3" d="M127.502,119.764c0,0.4,0.324,0.606,0.724,0.46s0.724-0.588,0.724-0.987c0-0.4-0.324-0.606-0.724-0.46
				S127.502,119.364,127.502,119.764z"/>
			<path fill="#26CAD3" d="M129.814,118.347c0,0.4,0.324,0.606,0.724,0.46c0.4-0.146,0.724-0.588,0.724-0.987
				c0-0.4-0.324-0.606-0.724-0.46C130.138,117.505,129.814,117.947,129.814,118.347z"/>
			<path fill="#26CAD3" d="M132.126,116.93c0,0.4,0.324,0.606,0.724,0.46c0.4-0.146,0.724-0.588,0.724-0.987
				c0-0.4-0.324-0.606-0.724-0.46C132.45,116.088,132.126,116.53,132.126,116.93z"/>
			<path fill="#26CAD3" d="M134.437,115.513c0,0.4,0.324,0.606,0.724,0.46c0.4-0.146,0.724-0.588,0.724-0.987
				c0-0.4-0.324-0.606-0.724-0.46C134.761,114.671,134.437,115.113,134.437,115.513z"/>
			<path fill="#26CAD3" d="M136.749,114.096c0,0.4,0.324,0.606,0.724,0.46c0.4-0.146,0.724-0.588,0.724-0.987
				c0-0.4-0.324-0.606-0.724-0.46C137.073,113.254,136.749,113.696,136.749,114.096z"/>
			<path fill="#26CAD3" d="M129.814,120.857c0,0.4,0.324,0.606,0.724,0.46c0.4-0.146,0.724-0.588,0.724-0.987
				s-0.324-0.606-0.724-0.46C130.138,120.015,129.814,120.457,129.814,120.857z"/>
			<path fill="#26CAD3" d="M132.126,119.44c0,0.4,0.324,0.606,0.724,0.46s0.724-0.588,0.724-0.987c0-0.4-0.324-0.606-0.724-0.46
				S132.126,119.041,132.126,119.44z"/>
			<path fill="#26CAD3" d="M134.437,118.024c0,0.4,0.324,0.606,0.724,0.46s0.724-0.588,0.724-0.987c0-0.4-0.324-0.606-0.724-0.46
				S134.437,117.624,134.437,118.024z"/>
		</g>
		<ellipse fill="#26CAD3" cx="141.211" cy="89.437" rx="1.926" ry="0.878"/>
		<g>
			
				<ellipse fill="#FFFFFF" stroke="#26CAD3" stroke-width="0.8" stroke-miterlimit="10" cx="95.243" cy="84.891" rx="4.199" ry="1.914"/>
			<g>
				<path fill="#26CAD3" d="M96.093,86.061c0.007,0.017,0.009,0.029,0.006,0.036c-0.003,0.007-0.012,0.016-0.027,0.027L95.691,86.4
					c-0.033,0.024-0.058,0.035-0.076,0.034s-0.035-0.021-0.052-0.059l-0.64-1.309l-2.079-0.142
					c-0.055-0.004-0.085-0.012-0.089-0.023s0.013-0.031,0.05-0.057l0.359-0.26c0.02-0.014,0.036-0.023,0.05-0.027
					c0.014-0.004,0.033-0.005,0.057-0.003l1.49,0.109l-0.425-0.881c-0.007-0.014-0.008-0.026-0.004-0.035
					c0.004-0.009,0.015-0.021,0.035-0.035l0.36-0.261c0.037-0.027,0.064-0.04,0.084-0.04c0.019,0,0.037,0.017,0.053,0.05
					l0.576,1.232l2.214,0.167c0.065,0.004,0.099,0.011,0.104,0.021s-0.009,0.028-0.042,0.051l-0.382,0.277
					c-0.015,0.011-0.028,0.018-0.038,0.021c-0.01,0.003-0.03,0.003-0.059,0.002l-1.605-0.12L96.093,86.061z"/>
			</g>
		</g>
		<g>
			
				<ellipse fill="#FFFFFF" stroke="#26CAD3" stroke-width="0.8" stroke-miterlimit="10" cx="95.243" cy="93.64" rx="4.199" ry="1.914"/>
			<g>
				<path fill="#26CAD3" d="M97.157,94.377c0.031,0.016,0.046,0.03,0.046,0.042c0,0.012-0.011,0.027-0.035,0.045l-0.313,0.227
					c-0.024,0.017-0.046,0.027-0.066,0.029c-0.02,0.002-0.045-0.005-0.076-0.021l-1.179-0.61l-2.43-0.214
					c-0.05-0.004-0.08-0.012-0.09-0.022c-0.01-0.01,0.004-0.029,0.041-0.056l0.343-0.249c0.033-0.024,0.074-0.033,0.125-0.029
					l1.812,0.174l-0.604-1.051c-0.016-0.03-0.009-0.055,0.019-0.075l0.36-0.261c0.037-0.027,0.065-0.036,0.084-0.028
					s0.035,0.027,0.048,0.055l0.737,1.433L97.157,94.377z"/>
			</g>
		</g>
		
			<ellipse fill="#FFFFFF" stroke="#26CAD3" stroke-width="0.8" stroke-miterlimit="10" cx="87.63" cy="89.265" rx="4.199" ry="1.914"/>
		<g>
			<path fill="#26CAD3" d="M88.335,90.593c-0.041,0.03-0.087,0.032-0.138,0.006l-0.271-0.14c-0.018-0.009-0.032-0.021-0.042-0.036
				s-0.018-0.028-0.025-0.039l-0.985-1.784l-0.964,0.699c-0.024,0.017-0.046,0.026-0.066,0.027c-0.02,0-0.044-0.007-0.072-0.021
				l-0.328-0.17c-0.028-0.014-0.043-0.028-0.046-0.04c-0.003-0.012,0.008-0.027,0.032-0.044l1.44-1.045
				c0.028-0.021,0.052-0.031,0.071-0.03s0.043,0.008,0.071,0.022l0.309,0.16c0.013,0.007,0.024,0.015,0.034,0.025
				s0.016,0.021,0.02,0.031l0.947,1.793l1.055-0.765c0.024-0.017,0.046-0.026,0.066-0.027c0.02,0,0.044,0.007,0.072,0.021
				l0.328,0.17c0.028,0.014,0.043,0.028,0.046,0.04c0.003,0.012-0.008,0.027-0.032,0.044L88.335,90.593z"/>
		</g>
		
			<line fill="#FFFFFF" stroke="#26CAD3" stroke-width="0.5" stroke-linecap="round" stroke-miterlimit="10" x1="90.184" y1="87.351" x2="91.605" y2="86.501"/>
		
			<line fill="#FFFFFF" stroke="#26CAD3" stroke-width="0.5" stroke-linecap="round" stroke-miterlimit="10" x1="90.937" y1="91.01" x2="92.409" y2="91.768"/>
		<path fill="none" stroke="#26CAD3" stroke-miterlimit="10" d="M112.27,69.411L80.757,87.605c-1.594,0.92-1.594,3.221,0,4.142
			l31.514,18.194c1.891,1.092,4.22,1.092,6.111,0l31.507-18.191c1.594-0.92,1.594-3.221,0-4.142l-31.507-18.198
			C116.491,68.319,114.161,68.319,112.27,69.411z"/>
	</g>
	<g opacity="0.25">
		<path fill="none" stroke="#26CAD3" stroke-width="1.5" stroke-miterlimit="10" d="M130.807,98.634V90.11
			c0.083-0.462,0.033-0.943-0.154-1.379c-0.009-0.02-0.019-0.04-0.028-0.06c-0.037-0.081-0.079-0.16-0.126-0.237
			c-0.018-0.03-0.037-0.058-0.056-0.087c-0.044-0.066-0.093-0.13-0.144-0.192c-0.025-0.03-0.05-0.061-0.077-0.09
			c-0.055-0.06-0.116-0.116-0.178-0.171c-0.028-0.025-0.054-0.051-0.084-0.075c-0.093-0.075-0.193-0.145-0.301-0.207
			c-0.001-0.001-0.003-0.002-0.004-0.003L98.148,69.412c-0.709-0.41-1.48-0.666-2.266-0.768c-0.262-0.034-0.526-0.051-0.79-0.051
			c-0.016,0-0.032,0.003-0.048,0.003c-1.039,0.008-2.077,0.278-3.008,0.816l-5.168,2.984L60.523,87.605
			c-0.11,0.063-0.211,0.135-0.305,0.21c-0.029,0.023-0.054,0.049-0.082,0.073c-0.063,0.056-0.124,0.113-0.18,0.173
			c-0.027,0.029-0.051,0.059-0.076,0.089c-0.052,0.062-0.1,0.126-0.145,0.193c-0.019,0.029-0.038,0.057-0.056,0.087
			c-0.047,0.077-0.089,0.156-0.126,0.237c-0.009,0.02-0.019,0.039-0.028,0.059c-0.187,0.436-0.237,0.917-0.154,1.379v8.527
			c-0.049,0.274-0.045,0.555,0,0.83v21.024c-0.168,0.936,0.213,1.958,1.153,2.5l31.514,18.194c1.891,1.092,4.22,1.092,6.111,0
			l31.507-18.191c0.94-0.543,1.321-1.564,1.153-2.501V99.467C130.853,99.191,130.857,98.909,130.807,98.634z"/>
		<path fill="#FFFFFF" stroke="#26CAD3" stroke-miterlimit="10" d="M130.807,120.489V89.676H59.37v30.809
			c-0.168,0.936,0.213,1.958,1.153,2.5l31.514,18.194c1.891,1.092,4.22,1.092,6.111,0l31.507-18.191
			C130.594,122.447,130.976,121.426,130.807,120.489z"/>
		<path fill="#FFFFFF" stroke="#26CAD3" stroke-miterlimit="10" d="M130.807,90.11c0.168-0.936-0.213-1.958-1.152-2.501
			L98.148,69.412c-1.891-1.092-4.221-1.092-6.112-0.001L60.523,87.605c-0.94,0.543-1.321,1.564-1.153,2.501v8.525
			c-0.168,0.936,0.213,1.958,1.153,2.501l31.514,18.194c1.891,1.092,4.22,1.092,6.111,0l31.507-18.191
			c0.94-0.543,1.321-1.564,1.153-2.501V90.11z"/>
		<path fill="#FFFFFF" stroke="#26CAD3" stroke-miterlimit="10" d="M62.054,102.011v10.534c0,1.705,1.395,3.905,3.1,4.89
			l24.151,13.944c1.705,0.984,3.1,0.395,3.1-1.31v-10.534L62.054,102.011z"/>
		<g>
			<path fill="#FFFFFF" stroke="#26CAD3" stroke-miterlimit="10" d="M87.825,128.3L87.825,128.3
				c-1.232-0.521-2.239-1.954-2.239-3.186v-5.288c0-1.232,1.008-1.813,2.239-1.293l0,0c1.232,0.521,2.239,1.954,2.239,3.186v5.288
				C90.064,128.238,89.057,128.82,87.825,128.3z"/>
			<path fill="#FFFFFF" stroke="#26CAD3" stroke-miterlimit="10" d="M66.634,116.093L66.634,116.093
				c-1.232-0.521-2.239-1.954-2.239-3.186v-5.288c0-1.232,1.008-1.813,2.239-1.293h0c1.232,0.521,2.239,1.954,2.239,3.186v5.288
				C68.873,116.031,67.865,116.613,66.634,116.093z"/>
		</g>
		<g>
			<path fill="#26CAD3" d="M82.576,119.764c0,0.4-0.324,0.606-0.724,0.46c-0.4-0.146-0.724-0.588-0.724-0.987
				c0-0.4,0.324-0.606,0.724-0.46C82.252,118.922,82.576,119.364,82.576,119.764z"/>
			<path fill="#26CAD3" d="M80.265,118.347c0,0.4-0.324,0.606-0.724,0.46c-0.4-0.146-0.724-0.588-0.724-0.987
				c0-0.4,0.324-0.606,0.724-0.46C79.941,117.505,80.265,117.947,80.265,118.347z"/>
			<path fill="#26CAD3" d="M77.953,116.93c0,0.4-0.324,0.606-0.724,0.46c-0.4-0.146-0.724-0.588-0.724-0.987
				c0-0.4,0.324-0.606,0.724-0.46C77.629,116.088,77.953,116.53,77.953,116.93z"/>
			<path fill="#26CAD3" d="M75.642,115.513c0,0.4-0.324,0.606-0.724,0.46c-0.4-0.146-0.724-0.588-0.724-0.987
				c0-0.4,0.324-0.606,0.724-0.46C75.318,114.671,75.642,115.113,75.642,115.513z"/>
			<path fill="#26CAD3" d="M73.33,114.096c0,0.4-0.324,0.606-0.724,0.46c-0.4-0.146-0.724-0.588-0.724-0.987
				c0-0.4,0.324-0.606,0.724-0.46C73.006,113.254,73.33,113.696,73.33,114.096z"/>
			<path fill="#26CAD3" d="M80.265,120.857c0,0.4-0.324,0.606-0.724,0.46c-0.4-0.146-0.724-0.588-0.724-0.987
				s0.324-0.606,0.724-0.46C79.941,120.015,80.265,120.457,80.265,120.857z"/>
			<path fill="#26CAD3" d="M77.953,119.44c0,0.4-0.324,0.606-0.724,0.46c-0.4-0.146-0.724-0.588-0.724-0.987
				c0-0.4,0.324-0.606,0.724-0.46C77.629,118.599,77.953,119.041,77.953,119.44z"/>
			<path fill="#26CAD3" d="M75.642,118.024c0,0.4-0.324,0.606-0.724,0.46c-0.4-0.146-0.724-0.588-0.724-0.987
				c0-0.4,0.324-0.606,0.724-0.46C75.318,117.182,75.642,117.624,75.642,118.024z"/>
		</g>
		<path fill="#FFFFFF" stroke="#26CAD3" stroke-miterlimit="10" d="M128.124,102.011v10.534c0,1.705-1.395,3.905-3.1,4.89
			l-24.151,13.944c-1.705,0.984-3.1,0.395-3.1-1.31v-10.534L128.124,102.011z"/>
		<g>
			<path fill="#FFFFFF" stroke="#26CAD3" stroke-miterlimit="10" d="M102.352,128.3L102.352,128.3
				c1.232-0.521,2.239-1.954,2.239-3.186v-5.288c0-1.232-1.008-1.813-2.239-1.293l0,0c-1.232,0.521-2.239,1.954-2.239,3.186v5.288
				C100.113,128.238,101.121,128.82,102.352,128.3z"/>
			<path fill="#FFFFFF" stroke="#26CAD3" stroke-miterlimit="10" d="M123.544,116.093L123.544,116.093
				c1.232-0.521,2.239-1.954,2.239-3.186v-5.288c0-1.232-1.008-1.813-2.239-1.293h0c-1.232,0.521-2.239,1.954-2.239,3.186v5.288
				C121.304,116.031,122.312,116.613,123.544,116.093z"/>
		</g>
		<g>
			<path fill="#26CAD3" d="M107.601,119.764c0,0.4,0.324,0.606,0.724,0.46c0.4-0.146,0.724-0.588,0.724-0.987
				c0-0.4-0.324-0.606-0.724-0.46C107.925,118.922,107.601,119.364,107.601,119.764z"/>
			<path fill="#26CAD3" d="M109.912,118.347c0,0.4,0.324,0.606,0.724,0.46c0.4-0.146,0.724-0.588,0.724-0.987
				c0-0.4-0.324-0.606-0.724-0.46C110.237,117.505,109.912,117.947,109.912,118.347z"/>
			<path fill="#26CAD3" d="M112.224,116.93c0,0.4,0.324,0.606,0.724,0.46c0.4-0.146,0.724-0.588,0.724-0.987
				c0-0.4-0.324-0.606-0.724-0.46C112.548,116.088,112.224,116.53,112.224,116.93z"/>
			<path fill="#26CAD3" d="M114.536,115.513c0,0.4,0.324,0.606,0.724,0.46c0.4-0.146,0.724-0.588,0.724-0.987
				c0-0.4-0.324-0.606-0.724-0.46C114.86,114.671,114.536,115.113,114.536,115.513z"/>
			<path fill="#26CAD3" d="M116.847,114.096c0,0.4,0.324,0.606,0.724,0.46c0.4-0.146,0.724-0.588,0.724-0.987
				c0-0.4-0.324-0.606-0.724-0.46C117.171,113.254,116.847,113.696,116.847,114.096z"/>
			<path fill="#26CAD3" d="M109.912,120.857c0,0.4,0.324,0.606,0.724,0.46c0.4-0.146,0.724-0.588,0.724-0.987
				s-0.324-0.606-0.724-0.46C110.237,120.015,109.912,120.457,109.912,120.857z"/>
			<path fill="#26CAD3" d="M112.224,119.44c0,0.4,0.324,0.606,0.724,0.46c0.4-0.146,0.724-0.588,0.724-0.987
				c0-0.4-0.324-0.606-0.724-0.46C112.548,118.599,112.224,119.041,112.224,119.44z"/>
			<path fill="#26CAD3" d="M114.536,118.024c0,0.4,0.324,0.606,0.724,0.46c0.4-0.146,0.724-0.588,0.724-0.987
				c0-0.4-0.324-0.606-0.724-0.46C114.86,117.182,114.536,117.624,114.536,118.024z"/>
		</g>
		<ellipse fill="#26CAD3" cx="121.309" cy="89.437" rx="1.926" ry="0.878"/>
		<g>
			
				<ellipse fill="#FFFFFF" stroke="#26CAD3" stroke-width="0.8" stroke-miterlimit="10" cx="75.341" cy="84.891" rx="4.199" ry="1.914"/>
			<g>
				<path fill="#26CAD3" d="M76.192,86.061c0.007,0.017,0.009,0.029,0.006,0.036c-0.003,0.007-0.012,0.016-0.027,0.027L75.789,86.4
					c-0.033,0.024-0.058,0.035-0.076,0.034c-0.018-0.001-0.035-0.021-0.052-0.059l-0.64-1.309l-2.079-0.142
					c-0.055-0.004-0.085-0.012-0.089-0.023s0.013-0.031,0.05-0.057l0.359-0.26c0.02-0.014,0.036-0.023,0.05-0.027
					c0.014-0.004,0.033-0.005,0.057-0.003l1.49,0.109l-0.425-0.881c-0.007-0.014-0.008-0.026-0.004-0.035
					c0.004-0.009,0.015-0.021,0.035-0.035l0.36-0.261c0.037-0.027,0.064-0.04,0.084-0.04c0.019,0,0.037,0.017,0.053,0.05
					l0.576,1.232l2.214,0.167c0.065,0.004,0.099,0.011,0.104,0.021c0.005,0.011-0.009,0.028-0.042,0.051l-0.382,0.277
					c-0.015,0.011-0.028,0.018-0.038,0.021c-0.01,0.003-0.03,0.003-0.059,0.002l-1.605-0.12L76.192,86.061z"/>
			</g>
		</g>
		<g>
			
				<ellipse fill="#FFFFFF" stroke="#26CAD3" stroke-width="0.8" stroke-miterlimit="10" cx="75.341" cy="93.64" rx="4.199" ry="1.914"/>
			<g>
				<path fill="#26CAD3" d="M77.255,94.377c0.031,0.016,0.046,0.03,0.046,0.042c0,0.012-0.011,0.027-0.035,0.045l-0.313,0.227
					c-0.024,0.017-0.046,0.027-0.066,0.029c-0.02,0.002-0.045-0.005-0.076-0.021l-1.179-0.61l-2.43-0.214
					c-0.05-0.004-0.081-0.012-0.09-0.022c-0.01-0.01,0.004-0.029,0.041-0.056l0.343-0.249c0.033-0.024,0.074-0.033,0.125-0.029
					l1.812,0.174l-0.604-1.051c-0.016-0.03-0.009-0.055,0.019-0.075l0.36-0.261c0.037-0.027,0.065-0.036,0.084-0.028
					s0.035,0.027,0.048,0.055l0.737,1.433L77.255,94.377z"/>
			</g>
		</g>
		
			<ellipse fill="#FFFFFF" stroke="#26CAD3" stroke-width="0.8" stroke-miterlimit="10" cx="67.729" cy="89.265" rx="4.199" ry="1.914"/>
		<g>
			<path fill="#26CAD3" d="M68.433,90.593c-0.041,0.03-0.087,0.032-0.138,0.006l-0.271-0.14c-0.018-0.009-0.032-0.021-0.042-0.036
				s-0.018-0.028-0.025-0.039l-0.985-1.784l-0.964,0.699c-0.024,0.017-0.046,0.026-0.066,0.027c-0.02,0-0.044-0.007-0.072-0.021
				l-0.328-0.17c-0.028-0.014-0.043-0.028-0.046-0.04c-0.003-0.012,0.008-0.027,0.032-0.044l1.44-1.045
				c0.028-0.021,0.052-0.031,0.071-0.03c0.019,0,0.043,0.008,0.071,0.022l0.309,0.16c0.013,0.007,0.024,0.015,0.034,0.025
				s0.016,0.021,0.02,0.031l0.947,1.793l1.055-0.765c0.024-0.017,0.046-0.026,0.066-0.027c0.02,0,0.044,0.007,0.072,0.021
				l0.328,0.17c0.028,0.014,0.043,0.028,0.046,0.04c0.003,0.012-0.008,0.027-0.032,0.044L68.433,90.593z"/>
		</g>
		
			<line fill="#FFFFFF" stroke="#26CAD3" stroke-width="0.5" stroke-linecap="round" stroke-miterlimit="10" x1="70.282" y1="87.351" x2="71.703" y2="86.501"/>
		
			<line fill="#FFFFFF" stroke="#26CAD3" stroke-width="0.5" stroke-linecap="round" stroke-miterlimit="10" x1="71.035" y1="91.01" x2="72.507" y2="91.768"/>
		<path fill="none" stroke="#26CAD3" stroke-miterlimit="10" d="M92.368,69.411L60.855,87.605c-1.594,0.92-1.594,3.221,0,4.142
			l31.514,18.194c1.891,1.092,4.22,1.092,6.111,0l31.507-18.191c1.594-0.92,1.594-3.221,0-4.142L98.48,69.412
			C96.589,68.319,94.26,68.319,92.368,69.411z"/>
	</g>
	<g opacity="0.45">
		<path fill="none" stroke="#26CAD3" stroke-width="1.5" stroke-miterlimit="10" d="M146.967,98.634V90.11
			c0.083-0.462,0.033-0.943-0.154-1.379c-0.009-0.02-0.019-0.04-0.028-0.06c-0.037-0.081-0.079-0.16-0.126-0.237
			c-0.018-0.03-0.037-0.058-0.056-0.087c-0.044-0.066-0.093-0.13-0.144-0.192c-0.025-0.03-0.05-0.061-0.077-0.09
			c-0.055-0.06-0.116-0.116-0.178-0.171c-0.028-0.025-0.054-0.051-0.084-0.075c-0.093-0.075-0.193-0.145-0.301-0.207
			c-0.001-0.001-0.003-0.002-0.004-0.003l-31.507-18.198c-0.709-0.41-1.48-0.666-2.266-0.768c-0.262-0.034-0.526-0.051-0.79-0.051
			c-0.016,0-0.032,0.003-0.048,0.003c-1.039,0.008-2.077,0.278-3.008,0.816l-5.168,2.984L76.683,87.605
			c-0.11,0.063-0.211,0.135-0.305,0.21c-0.029,0.023-0.054,0.049-0.082,0.073c-0.063,0.056-0.124,0.113-0.18,0.173
			c-0.027,0.029-0.051,0.059-0.076,0.089c-0.052,0.062-0.1,0.126-0.145,0.193c-0.019,0.029-0.038,0.057-0.056,0.087
			c-0.047,0.077-0.089,0.156-0.126,0.237c-0.009,0.02-0.019,0.039-0.028,0.059c-0.187,0.436-0.237,0.917-0.154,1.379v8.527
			c-0.049,0.274-0.045,0.555,0,0.83v21.024c-0.168,0.936,0.213,1.958,1.153,2.5l31.514,18.194c1.891,1.092,4.22,1.092,6.111,0
			l31.507-18.191c0.94-0.543,1.321-1.564,1.153-2.501V99.467C147.013,99.191,147.017,98.909,146.967,98.634z"/>
		<path fill="#FFFFFF" stroke="#26CAD3" stroke-miterlimit="10" d="M146.967,120.489V89.676H75.53v30.809
			c-0.168,0.936,0.213,1.958,1.153,2.5l31.514,18.194c1.891,1.092,4.22,1.092,6.111,0l31.507-18.191
			C146.754,122.447,147.135,121.426,146.967,120.489z"/>
		<path fill="#FFFFFF" stroke="#26CAD3" stroke-miterlimit="10" d="M146.967,90.11c0.168-0.936-0.213-1.958-1.152-2.501
			l-31.507-18.198c-1.891-1.092-4.221-1.092-6.112-0.001L76.683,87.605c-0.94,0.543-1.321,1.564-1.153,2.501v8.525
			c-0.168,0.936,0.213,1.958,1.153,2.501l31.514,18.194c1.891,1.092,4.22,1.092,6.111,0l31.507-18.191
			c0.94-0.543,1.321-1.564,1.153-2.501V90.11z"/>
		<path fill="#FFFFFF" stroke="#26CAD3" stroke-miterlimit="10" d="M78.214,102.011v10.534c0,1.705,1.395,3.905,3.1,4.89
			l24.151,13.944c1.705,0.984,3.1,0.395,3.1-1.31v-10.534L78.214,102.011z"/>
		<g>
			<path fill="#FFFFFF" stroke="#26CAD3" stroke-miterlimit="10" d="M103.985,128.3L103.985,128.3
				c-1.232-0.521-2.239-1.954-2.239-3.186v-5.288c0-1.232,1.008-1.813,2.239-1.293h0c1.232,0.521,2.239,1.954,2.239,3.186v5.288
				C106.224,128.238,105.216,128.82,103.985,128.3z"/>
			<path fill="#FFFFFF" stroke="#26CAD3" stroke-miterlimit="10" d="M82.793,116.093L82.793,116.093
				c-1.232-0.521-2.239-1.954-2.239-3.186v-5.288c0-1.232,1.008-1.813,2.239-1.293h0c1.232,0.521,2.239,1.954,2.239,3.186v5.288
				C85.033,116.031,84.025,116.613,82.793,116.093z"/>
		</g>
		<g>
			<path fill="#26CAD3" d="M98.736,119.764c0,0.4-0.324,0.606-0.724,0.46c-0.4-0.146-0.724-0.588-0.724-0.987
				c0-0.4,0.324-0.606,0.724-0.46C98.412,118.922,98.736,119.364,98.736,119.764z"/>
			<path fill="#26CAD3" d="M96.425,118.347c0,0.4-0.324,0.606-0.724,0.46c-0.4-0.146-0.724-0.588-0.724-0.987
				c0-0.4,0.324-0.606,0.724-0.46C96.101,117.505,96.425,117.947,96.425,118.347z"/>
			<path fill="#26CAD3" d="M94.113,116.93c0,0.4-0.324,0.606-0.724,0.46c-0.4-0.146-0.724-0.588-0.724-0.987
				c0-0.4,0.324-0.606,0.724-0.46C93.789,116.088,94.113,116.53,94.113,116.93z"/>
			<path fill="#26CAD3" d="M91.801,115.513c0,0.4-0.324,0.606-0.724,0.46c-0.4-0.146-0.724-0.588-0.724-0.987
				c0-0.4,0.324-0.606,0.724-0.46C91.477,114.671,91.801,115.113,91.801,115.513z"/>
			<path fill="#26CAD3" d="M89.49,114.096c0,0.4-0.324,0.606-0.724,0.46c-0.4-0.146-0.724-0.588-0.724-0.987
				c0-0.4,0.324-0.606,0.724-0.46C89.166,113.254,89.49,113.696,89.49,114.096z"/>
			<path fill="#26CAD3" d="M96.425,120.857c0,0.4-0.324,0.606-0.724,0.46c-0.4-0.146-0.724-0.588-0.724-0.987
				s0.324-0.606,0.724-0.46C96.101,120.015,96.425,120.457,96.425,120.857z"/>
			<path fill="#26CAD3" d="M94.113,119.44c0,0.4-0.324,0.606-0.724,0.46c-0.4-0.146-0.724-0.588-0.724-0.987
				c0-0.4,0.324-0.606,0.724-0.46C93.789,118.599,94.113,119.041,94.113,119.44z"/>
			<path fill="#26CAD3" d="M91.801,118.024c0,0.4-0.324,0.606-0.724,0.46c-0.4-0.146-0.724-0.588-0.724-0.987
				c0-0.4,0.324-0.606,0.724-0.46C91.477,117.182,91.801,117.624,91.801,118.024z"/>
		</g>
		<path fill="#FFFFFF" stroke="#26CAD3" stroke-miterlimit="10" d="M144.283,102.011v10.534c0,1.705-1.395,3.905-3.1,4.89
			l-24.151,13.944c-1.705,0.984-3.1,0.395-3.1-1.31v-10.534L144.283,102.011z"/>
		<g>
			<path fill="#FFFFFF" stroke="#26CAD3" stroke-miterlimit="10" d="M118.512,128.3L118.512,128.3
				c1.232-0.521,2.239-1.954,2.239-3.186v-5.288c0-1.232-1.008-1.813-2.239-1.293h0c-1.232,0.521-2.239,1.954-2.239,3.186v5.288
				C116.273,128.238,117.281,128.82,118.512,128.3z"/>
			<path fill="#FFFFFF" stroke="#26CAD3" stroke-miterlimit="10" d="M139.703,116.093L139.703,116.093
				c1.232-0.521,2.239-1.954,2.239-3.186v-5.288c0-1.232-1.008-1.813-2.239-1.293h0c-1.232,0.521-2.239,1.954-2.239,3.186v5.288
				C137.464,116.031,138.472,116.613,139.703,116.093z"/>
		</g>
		<g>
			<path fill="#26CAD3" d="M123.761,119.764c0,0.4,0.324,0.606,0.724,0.46c0.4-0.146,0.724-0.588,0.724-0.987
				c0-0.4-0.324-0.606-0.724-0.46C124.085,118.922,123.761,119.364,123.761,119.764z"/>
			<path fill="#26CAD3" d="M126.072,118.347c0,0.4,0.324,0.606,0.724,0.46c0.4-0.146,0.724-0.588,0.724-0.987
				c0-0.4-0.324-0.606-0.724-0.46C126.396,117.505,126.072,117.947,126.072,118.347z"/>
			<path fill="#26CAD3" d="M128.384,116.93c0,0.4,0.324,0.606,0.724,0.46c0.4-0.146,0.724-0.588,0.724-0.987
				c0-0.4-0.324-0.606-0.724-0.46C128.708,116.088,128.384,116.53,128.384,116.93z"/>
			<path fill="#26CAD3" d="M130.695,115.513c0,0.4,0.324,0.606,0.724,0.46c0.4-0.146,0.724-0.588,0.724-0.987
				c0-0.4-0.324-0.606-0.724-0.46C131.02,114.671,130.695,115.113,130.695,115.513z"/>
			<path fill="#26CAD3" d="M133.007,114.096c0,0.4,0.324,0.606,0.724,0.46c0.4-0.146,0.724-0.588,0.724-0.987
				c0-0.4-0.324-0.606-0.724-0.46C133.331,113.254,133.007,113.696,133.007,114.096z"/>
			<path fill="#26CAD3" d="M126.072,120.857c0,0.4,0.324,0.606,0.724,0.46c0.4-0.146,0.724-0.588,0.724-0.987
				s-0.324-0.606-0.724-0.46C126.396,120.015,126.072,120.457,126.072,120.857z"/>
			<path fill="#26CAD3" d="M128.384,119.44c0,0.4,0.324,0.606,0.724,0.46s0.724-0.588,0.724-0.987c0-0.4-0.324-0.606-0.724-0.46
				S128.384,119.041,128.384,119.44z"/>
			<path fill="#26CAD3" d="M130.695,118.024c0,0.4,0.324,0.606,0.724,0.46s0.724-0.588,0.724-0.987c0-0.4-0.324-0.606-0.724-0.46
				S130.695,117.624,130.695,118.024z"/>
		</g>
		<ellipse fill="#26CAD3" cx="137.469" cy="89.437" rx="1.926" ry="0.878"/>
		<g>
			
				<ellipse fill="#FFFFFF" stroke="#26CAD3" stroke-width="0.8" stroke-miterlimit="10" cx="91.501" cy="84.891" rx="4.199" ry="1.914"/>
			<g>
				<path fill="#26CAD3" d="M92.352,86.061c0.007,0.017,0.009,0.029,0.006,0.036c-0.003,0.007-0.012,0.016-0.027,0.027L91.949,86.4
					c-0.033,0.024-0.058,0.035-0.076,0.034s-0.035-0.021-0.052-0.059l-0.64-1.309l-2.079-0.142
					c-0.055-0.004-0.085-0.012-0.089-0.023s0.013-0.031,0.05-0.057l0.359-0.26c0.02-0.014,0.036-0.023,0.05-0.027
					s0.033-0.005,0.057-0.003l1.49,0.109l-0.425-0.881c-0.007-0.014-0.008-0.026-0.004-0.035c0.004-0.009,0.015-0.021,0.035-0.035
					l0.36-0.261c0.037-0.027,0.064-0.04,0.084-0.04c0.019,0,0.037,0.017,0.053,0.05l0.576,1.232l2.214,0.167
					c0.065,0.004,0.099,0.011,0.104,0.021c0.005,0.011-0.009,0.028-0.042,0.051l-0.382,0.277c-0.015,0.011-0.028,0.018-0.038,0.021
					c-0.01,0.003-0.03,0.003-0.059,0.002l-1.605-0.12L92.352,86.061z"/>
			</g>
		</g>
		<g>
			
				<ellipse fill="#FFFFFF" stroke="#26CAD3" stroke-width="0.8" stroke-miterlimit="10" cx="91.501" cy="93.64" rx="4.199" ry="1.914"/>
			<g>
				<path fill="#26CAD3" d="M93.415,94.377c0.031,0.016,0.046,0.03,0.046,0.042c0,0.012-0.011,0.027-0.035,0.045l-0.313,0.227
					c-0.024,0.017-0.046,0.027-0.066,0.029c-0.02,0.002-0.045-0.005-0.076-0.021l-1.179-0.61l-2.43-0.214
					c-0.05-0.004-0.081-0.012-0.09-0.022c-0.01-0.01,0.004-0.029,0.041-0.056l0.343-0.249c0.033-0.024,0.074-0.033,0.125-0.029
					l1.812,0.174l-0.604-1.051c-0.016-0.03-0.009-0.055,0.019-0.075l0.36-0.261c0.037-0.027,0.065-0.036,0.084-0.028
					s0.035,0.027,0.048,0.055l0.737,1.433L93.415,94.377z"/>
			</g>
		</g>
		
			<ellipse fill="#FFFFFF" stroke="#26CAD3" stroke-width="0.8" stroke-miterlimit="10" cx="83.888" cy="89.265" rx="4.199" ry="1.914"/>
		<g>
			<path fill="#26CAD3" d="M84.593,90.593c-0.041,0.03-0.087,0.032-0.138,0.006l-0.271-0.14c-0.018-0.009-0.032-0.021-0.042-0.036
				s-0.018-0.028-0.025-0.039l-0.985-1.784l-0.964,0.699c-0.024,0.017-0.046,0.026-0.066,0.027c-0.02,0-0.044-0.007-0.072-0.021
				l-0.328-0.17c-0.028-0.014-0.043-0.028-0.046-0.04c-0.003-0.012,0.008-0.027,0.032-0.044l1.44-1.045
				c0.028-0.021,0.052-0.031,0.071-0.03s0.043,0.008,0.071,0.022l0.309,0.16c0.013,0.007,0.024,0.015,0.034,0.025
				s0.016,0.021,0.02,0.031l0.947,1.793l1.055-0.765c0.024-0.017,0.046-0.026,0.066-0.027c0.02,0,0.044,0.007,0.072,0.021
				l0.328,0.17c0.028,0.014,0.043,0.028,0.046,0.04c0.003,0.012-0.008,0.027-0.032,0.044L84.593,90.593z"/>
		</g>
		
			<line fill="#FFFFFF" stroke="#26CAD3" stroke-width="0.5" stroke-linecap="round" stroke-miterlimit="10" x1="86.442" y1="87.351" x2="87.863" y2="86.501"/>
		
			<line fill="#FFFFFF" stroke="#26CAD3" stroke-width="0.5" stroke-linecap="round" stroke-miterlimit="10" x1="87.195" y1="91.01" x2="88.667" y2="91.768"/>
		<path fill="none" stroke="#26CAD3" stroke-miterlimit="10" d="M108.528,69.411L77.015,87.605c-1.594,0.92-1.594,3.221,0,4.142
			l31.514,18.194c1.891,1.092,4.22,1.092,6.111,0l31.507-18.191c1.594-0.92,1.594-3.221,0-4.142L114.64,69.412
			C112.749,68.319,110.419,68.319,108.528,69.411z"/>
	</g>
	<g opacity="0.45">
		<path fill="none" stroke="#26CAD3" stroke-width="1.5" stroke-miterlimit="10" d="M134.606,98.634V90.11
			c0.083-0.462,0.033-0.943-0.154-1.379c-0.009-0.02-0.019-0.04-0.028-0.06c-0.037-0.081-0.079-0.16-0.126-0.237
			c-0.018-0.03-0.037-0.058-0.056-0.087c-0.044-0.066-0.093-0.13-0.144-0.192c-0.025-0.03-0.05-0.061-0.077-0.09
			c-0.055-0.06-0.116-0.116-0.178-0.171c-0.028-0.025-0.054-0.051-0.084-0.075c-0.093-0.075-0.193-0.145-0.301-0.207
			c-0.001-0.001-0.003-0.002-0.004-0.003l-31.507-18.198c-0.709-0.41-1.48-0.666-2.266-0.768c-0.262-0.034-0.526-0.051-0.79-0.051
			c-0.016,0-0.032,0.003-0.048,0.003c-1.039,0.008-2.077,0.278-3.008,0.816l-5.168,2.984L64.321,87.605
			c-0.11,0.063-0.211,0.135-0.305,0.21c-0.029,0.023-0.054,0.049-0.082,0.073c-0.063,0.056-0.124,0.113-0.18,0.173
			c-0.027,0.029-0.051,0.059-0.076,0.089c-0.052,0.062-0.1,0.126-0.145,0.193c-0.019,0.029-0.038,0.057-0.056,0.087
			c-0.047,0.077-0.089,0.156-0.126,0.237c-0.009,0.02-0.019,0.039-0.028,0.059c-0.187,0.436-0.237,0.917-0.154,1.379v8.527
			c-0.049,0.274-0.045,0.555,0,0.83v21.024c-0.168,0.936,0.213,1.958,1.153,2.5l31.514,18.194c1.891,1.092,4.22,1.092,6.111,0
			l31.507-18.191c0.94-0.543,1.321-1.564,1.153-2.501V99.467C134.651,99.191,134.655,98.909,134.606,98.634z"/>
		<path fill="#FFFFFF" stroke="#26CAD3" stroke-miterlimit="10" d="M134.606,120.489V89.676H63.169v30.809
			c-0.168,0.936,0.213,1.958,1.153,2.5l31.514,18.194c1.891,1.092,4.22,1.092,6.111,0l31.507-18.191
			C134.393,122.447,134.774,121.426,134.606,120.489z"/>
		<path fill="#FFFFFF" stroke="#26CAD3" stroke-miterlimit="10" d="M134.606,90.11c0.168-0.936-0.213-1.958-1.152-2.501
			l-31.507-18.198c-1.891-1.092-4.221-1.092-6.112-0.001L64.321,87.605c-0.94,0.543-1.321,1.564-1.153,2.501v8.525
			c-0.168,0.936,0.213,1.958,1.153,2.501l31.514,18.194c1.891,1.092,4.22,1.092,6.111,0l31.507-18.191
			c0.94-0.543,1.321-1.564,1.153-2.501V90.11z"/>
		<path fill="#FFFFFF" stroke="#26CAD3" stroke-miterlimit="10" d="M65.852,102.011v10.534c0,1.705,1.395,3.905,3.1,4.89
			l24.151,13.944c1.705,0.984,3.1,0.395,3.1-1.31v-10.534L65.852,102.011z"/>
		<g>
			<path fill="#FFFFFF" stroke="#26CAD3" stroke-miterlimit="10" d="M91.623,128.3L91.623,128.3
				c-1.232-0.521-2.239-1.954-2.239-3.186v-5.288c0-1.232,1.008-1.813,2.239-1.293h0c1.232,0.521,2.239,1.954,2.239,3.186v5.288
				C93.863,128.238,92.855,128.82,91.623,128.3z"/>
			<path fill="#FFFFFF" stroke="#26CAD3" stroke-miterlimit="10" d="M70.432,116.093L70.432,116.093
				c-1.232-0.521-2.239-1.954-2.239-3.186v-5.288c0-1.232,1.008-1.813,2.239-1.293h0c1.232,0.521,2.239,1.954,2.239,3.186v5.288
				C72.672,116.031,71.664,116.613,70.432,116.093z"/>
		</g>
		<g>
			<path fill="#26CAD3" d="M86.375,119.764c0,0.4-0.324,0.606-0.724,0.46c-0.4-0.146-0.724-0.588-0.724-0.987
				c0-0.4,0.324-0.606,0.724-0.46C86.051,118.922,86.375,119.364,86.375,119.764z"/>
			<path fill="#26CAD3" d="M84.063,118.347c0,0.4-0.324,0.606-0.724,0.46c-0.4-0.146-0.724-0.588-0.724-0.987
				c0-0.4,0.324-0.606,0.724-0.46C83.739,117.505,84.063,117.947,84.063,118.347z"/>
			<path fill="#26CAD3" d="M81.752,116.93c0,0.4-0.324,0.606-0.724,0.46c-0.4-0.146-0.724-0.588-0.724-0.987
				c0-0.4,0.324-0.606,0.724-0.46C81.428,116.088,81.752,116.53,81.752,116.93z"/>
			<path fill="#26CAD3" d="M79.44,115.513c0,0.4-0.324,0.606-0.724,0.46c-0.4-0.146-0.724-0.588-0.724-0.987
				c0-0.4,0.324-0.606,0.724-0.46C79.116,114.671,79.44,115.113,79.44,115.513z"/>
			<path fill="#26CAD3" d="M77.129,114.096c0,0.4-0.324,0.606-0.724,0.46c-0.4-0.146-0.724-0.588-0.724-0.987
				c0-0.4,0.324-0.606,0.724-0.46C76.804,113.254,77.129,113.696,77.129,114.096z"/>
			<path fill="#26CAD3" d="M84.063,120.857c0,0.4-0.324,0.606-0.724,0.46c-0.4-0.146-0.724-0.588-0.724-0.987
				s0.324-0.606,0.724-0.46C83.739,120.015,84.063,120.457,84.063,120.857z"/>
			<path fill="#26CAD3" d="M81.752,119.44c0,0.4-0.324,0.606-0.724,0.46c-0.4-0.146-0.724-0.588-0.724-0.987
				c0-0.4,0.324-0.606,0.724-0.46C81.428,118.599,81.752,119.041,81.752,119.44z"/>
			<path fill="#26CAD3" d="M79.44,118.024c0,0.4-0.324,0.606-0.724,0.46c-0.4-0.146-0.724-0.588-0.724-0.987
				c0-0.4,0.324-0.606,0.724-0.46C79.116,117.182,79.44,117.624,79.44,118.024z"/>
		</g>
		<path fill="#FFFFFF" stroke="#26CAD3" stroke-miterlimit="10" d="M131.922,102.011v10.534c0,1.705-1.395,3.905-3.1,4.89
			l-24.151,13.944c-1.705,0.984-3.1,0.395-3.1-1.31v-10.534L131.922,102.011z"/>
		<g>
			<path fill="#FFFFFF" stroke="#26CAD3" stroke-miterlimit="10" d="M106.151,128.3L106.151,128.3
				c1.232-0.521,2.239-1.954,2.239-3.186v-5.288c0-1.232-1.008-1.813-2.239-1.293h0c-1.232,0.521-2.239,1.954-2.239,3.186v5.288
				C103.912,128.238,104.919,128.82,106.151,128.3z"/>
			<path fill="#FFFFFF" stroke="#26CAD3" stroke-miterlimit="10" d="M127.342,116.093L127.342,116.093
				c1.232-0.521,2.239-1.954,2.239-3.186v-5.288c0-1.232-1.008-1.813-2.239-1.293l0,0c-1.232,0.521-2.239,1.954-2.239,3.186v5.288
				C125.103,116.031,126.111,116.613,127.342,116.093z"/>
		</g>
		<g>
			<path fill="#26CAD3" d="M111.399,119.764c0,0.4,0.324,0.606,0.724,0.46c0.4-0.146,0.724-0.588,0.724-0.987
				c0-0.4-0.324-0.606-0.724-0.46C111.723,118.922,111.399,119.364,111.399,119.764z"/>
			<path fill="#26CAD3" d="M113.711,118.347c0,0.4,0.324,0.606,0.724,0.46c0.4-0.146,0.724-0.588,0.724-0.987
				c0-0.4-0.324-0.606-0.724-0.46C114.035,117.505,113.711,117.947,113.711,118.347z"/>
			<path fill="#26CAD3" d="M116.023,116.93c0,0.4,0.324,0.606,0.724,0.46c0.4-0.146,0.724-0.588,0.724-0.987
				c0-0.4-0.324-0.606-0.724-0.46C116.347,116.088,116.023,116.53,116.023,116.93z"/>
			<path fill="#26CAD3" d="M118.334,115.513c0,0.4,0.324,0.606,0.724,0.46c0.4-0.146,0.724-0.588,0.724-0.987
				c0-0.4-0.324-0.606-0.724-0.46C118.658,114.671,118.334,115.113,118.334,115.513z"/>
			<path fill="#26CAD3" d="M120.646,114.096c0,0.4,0.324,0.606,0.724,0.46c0.4-0.146,0.724-0.588,0.724-0.987
				c0-0.4-0.324-0.606-0.724-0.46C120.97,113.254,120.646,113.696,120.646,114.096z"/>
			<path fill="#26CAD3" d="M113.711,120.857c0,0.4,0.324,0.606,0.724,0.46c0.4-0.146,0.724-0.588,0.724-0.987
				s-0.324-0.606-0.724-0.46C114.035,120.015,113.711,120.457,113.711,120.857z"/>
			<path fill="#26CAD3" d="M116.023,119.44c0,0.4,0.324,0.606,0.724,0.46c0.4-0.146,0.724-0.588,0.724-0.987
				c0-0.4-0.324-0.606-0.724-0.46C116.347,118.599,116.023,119.041,116.023,119.44z"/>
			<path fill="#26CAD3" d="M118.334,118.024c0,0.4,0.324,0.606,0.724,0.46c0.4-0.146,0.724-0.588,0.724-0.987
				c0-0.4-0.324-0.606-0.724-0.46C118.658,117.182,118.334,117.624,118.334,118.024z"/>
		</g>
		<ellipse fill="#26CAD3" cx="125.108" cy="89.437" rx="1.926" ry="0.878"/>
		<g>
			
				<ellipse fill="#FFFFFF" stroke="#26CAD3" stroke-width="0.8" stroke-miterlimit="10" cx="79.139" cy="84.891" rx="4.199" ry="1.914"/>
			<g>
				<path fill="#26CAD3" d="M79.99,86.061c0.007,0.017,0.009,0.029,0.006,0.036c-0.003,0.007-0.012,0.016-0.027,0.027L79.588,86.4
					c-0.033,0.024-0.058,0.035-0.076,0.034s-0.035-0.021-0.052-0.059l-0.64-1.309l-2.079-0.142
					c-0.055-0.004-0.085-0.012-0.089-0.023s0.013-0.031,0.05-0.057l0.359-0.26c0.02-0.014,0.036-0.023,0.05-0.027
					s0.033-0.005,0.057-0.003l1.49,0.109l-0.425-0.881c-0.007-0.014-0.008-0.026-0.004-0.035c0.004-0.009,0.015-0.021,0.035-0.035
					l0.36-0.261c0.037-0.027,0.064-0.04,0.084-0.04c0.019,0,0.037,0.017,0.053,0.05l0.576,1.232l2.214,0.167
					c0.065,0.004,0.099,0.011,0.104,0.021c0.005,0.011-0.009,0.028-0.042,0.051l-0.382,0.277c-0.015,0.011-0.028,0.018-0.038,0.021
					c-0.01,0.003-0.03,0.003-0.059,0.002l-1.605-0.12L79.99,86.061z"/>
			</g>
		</g>
		<g>
			
				<ellipse fill="#FFFFFF" stroke="#26CAD3" stroke-width="0.8" stroke-miterlimit="10" cx="79.139" cy="93.64" rx="4.199" ry="1.914"/>
			<g>
				<path fill="#26CAD3" d="M81.054,94.377c0.031,0.016,0.046,0.03,0.046,0.042c0,0.012-0.011,0.027-0.035,0.045l-0.313,0.227
					c-0.024,0.017-0.046,0.027-0.066,0.029c-0.02,0.002-0.045-0.005-0.076-0.021l-1.179-0.61l-2.43-0.214
					c-0.05-0.004-0.081-0.012-0.09-0.022c-0.01-0.01,0.004-0.029,0.041-0.056l0.343-0.249c0.033-0.024,0.074-0.033,0.125-0.029
					l1.812,0.174l-0.604-1.051c-0.016-0.03-0.009-0.055,0.019-0.075l0.36-0.261c0.037-0.027,0.065-0.036,0.084-0.028
					s0.035,0.027,0.048,0.055l0.737,1.433L81.054,94.377z"/>
			</g>
		</g>
		
			<ellipse fill="#FFFFFF" stroke="#26CAD3" stroke-width="0.8" stroke-miterlimit="10" cx="71.527" cy="89.265" rx="4.199" ry="1.914"/>
		<g>
			<path fill="#26CAD3" d="M72.232,90.593c-0.041,0.03-0.087,0.032-0.138,0.006l-0.271-0.14c-0.018-0.009-0.032-0.021-0.042-0.036
				s-0.018-0.028-0.025-0.039l-0.985-1.784l-0.964,0.699c-0.024,0.017-0.046,0.026-0.066,0.027c-0.02,0-0.044-0.007-0.072-0.021
				l-0.328-0.17c-0.028-0.014-0.043-0.028-0.046-0.04c-0.003-0.012,0.008-0.027,0.032-0.044l1.44-1.045
				c0.028-0.021,0.052-0.031,0.071-0.03s0.043,0.008,0.071,0.022l0.309,0.16c0.013,0.007,0.024,0.015,0.034,0.025
				s0.016,0.021,0.02,0.031l0.947,1.793l1.055-0.765c0.024-0.017,0.046-0.026,0.066-0.027c0.02,0,0.044,0.007,0.072,0.021
				l0.328,0.17c0.028,0.014,0.043,0.028,0.046,0.04c0.003,0.012-0.008,0.027-0.032,0.044L72.232,90.593z"/>
		</g>
		
			<line fill="#FFFFFF" stroke="#26CAD3" stroke-width="0.5" stroke-linecap="round" stroke-miterlimit="10" x1="74.08" y1="87.351" x2="75.502" y2="86.501"/>
		
			<line fill="#FFFFFF" stroke="#26CAD3" stroke-width="0.5" stroke-linecap="round" stroke-miterlimit="10" x1="74.834" y1="91.01" x2="76.306" y2="91.768"/>
		<path fill="none" stroke="#26CAD3" stroke-miterlimit="10" d="M96.167,69.411L64.654,87.605c-1.594,0.92-1.594,3.221,0,4.142
			l31.514,18.194c1.891,1.092,4.22,1.092,6.111,0l31.507-18.191c1.594-0.92,1.594-3.221,0-4.142l-31.507-18.198
			C100.388,68.319,98.058,68.319,96.167,69.411z"/>
	</g>
	<g>
		<path fill="none" stroke="#26CAD3" stroke-width="1.5" stroke-miterlimit="10" d="M140.786,98.634V90.11
			c0.083-0.462,0.033-0.943-0.154-1.379c-0.009-0.02-0.019-0.04-0.028-0.06c-0.037-0.081-0.079-0.16-0.126-0.237
			c-0.018-0.03-0.037-0.058-0.056-0.087c-0.044-0.066-0.093-0.13-0.144-0.192c-0.025-0.03-0.05-0.061-0.077-0.09
			c-0.055-0.06-0.116-0.116-0.178-0.171c-0.028-0.025-0.054-0.051-0.084-0.075c-0.093-0.075-0.193-0.145-0.301-0.207
			c-0.001-0.001-0.003-0.002-0.004-0.003l-31.507-18.198c-0.709-0.41-1.48-0.666-2.266-0.768c-0.262-0.034-0.526-0.051-0.79-0.051
			c-0.016,0-0.032,0.003-0.048,0.003c-1.039,0.008-2.077,0.278-3.008,0.816l-5.168,2.984L70.502,87.605
			c-0.11,0.063-0.211,0.135-0.305,0.21c-0.029,0.023-0.054,0.049-0.082,0.073c-0.063,0.056-0.124,0.113-0.18,0.173
			c-0.027,0.029-0.051,0.059-0.076,0.089c-0.052,0.062-0.1,0.126-0.145,0.193c-0.019,0.029-0.038,0.057-0.056,0.087
			c-0.047,0.077-0.089,0.156-0.126,0.237c-0.009,0.02-0.019,0.039-0.028,0.059c-0.187,0.436-0.237,0.917-0.154,1.379v8.527
			c-0.049,0.274-0.045,0.555,0,0.83v21.024c-0.168,0.936,0.213,1.958,1.153,2.5l31.514,18.194c1.891,1.092,4.22,1.092,6.111,0
			l31.507-18.191c0.94-0.543,1.321-1.564,1.153-2.501V99.467C140.832,99.191,140.836,98.909,140.786,98.634z"/>
		<path fill="#FFFFFF" stroke="#26CAD3" stroke-miterlimit="10" d="M140.786,120.489V89.676H69.349v30.809
			c-0.168,0.936,0.213,1.958,1.153,2.5l31.514,18.194c1.891,1.092,4.22,1.092,6.111,0l31.507-18.191
			C140.574,122.447,140.955,121.426,140.786,120.489z"/>
		<path fill="#FFFFFF" stroke="#26CAD3" stroke-miterlimit="10" d="M140.786,90.11c0.168-0.936-0.213-1.958-1.152-2.501
			l-31.507-18.198c-1.891-1.092-4.221-1.092-6.112-0.001L70.502,87.605c-0.94,0.543-1.321,1.564-1.153,2.501v8.525
			c-0.168,0.936,0.213,1.958,1.153,2.501l31.514,18.194c1.891,1.092,4.22,1.092,6.111,0l31.507-18.191
			c0.94-0.543,1.321-1.564,1.153-2.501V90.11z"/>
		<path fill="#FFFFFF" stroke="#26CAD3" stroke-miterlimit="10" d="M72.033,102.011v10.534c0,1.705,1.395,3.905,3.1,4.89
			l24.151,13.944c1.705,0.984,3.1,0.395,3.1-1.31v-10.534L72.033,102.011z"/>
		<g>
			<path fill="#FFFFFF" stroke="#26CAD3" stroke-miterlimit="10" d="M97.804,128.3L97.804,128.3
				c-1.232-0.521-2.239-1.954-2.239-3.186v-5.288c0-1.232,1.008-1.813,2.239-1.293h0c1.232,0.521,2.239,1.954,2.239,3.186v5.288
				C100.043,128.238,99.036,128.82,97.804,128.3z"/>
			<path fill="#FFFFFF" stroke="#26CAD3" stroke-miterlimit="10" d="M76.613,116.093L76.613,116.093
				c-1.232-0.521-2.239-1.954-2.239-3.186v-5.288c0-1.232,1.008-1.813,2.239-1.293h0c1.232,0.521,2.239,1.954,2.239,3.186v5.288
				C78.852,116.031,77.844,116.613,76.613,116.093z"/>
		</g>
		<g>
			<path fill="#26CAD3" d="M92.556,119.764c0,0.4-0.324,0.606-0.724,0.46c-0.4-0.146-0.724-0.588-0.724-0.987
				c0-0.4,0.324-0.606,0.724-0.46C92.232,118.922,92.556,119.364,92.556,119.764z"/>
			<path fill="#26CAD3" d="M90.244,118.347c0,0.4-0.324,0.606-0.724,0.46c-0.4-0.146-0.724-0.588-0.724-0.987
				c0-0.4,0.324-0.606,0.724-0.46C89.92,117.505,90.244,117.947,90.244,118.347z"/>
			<path fill="#26CAD3" d="M87.932,116.93c0,0.4-0.324,0.606-0.724,0.46c-0.4-0.146-0.724-0.588-0.724-0.987
				c0-0.4,0.324-0.606,0.724-0.46C87.608,116.088,87.932,116.53,87.932,116.93z"/>
			<path fill="#26CAD3" d="M85.621,115.513c0,0.4-0.324,0.606-0.724,0.46c-0.4-0.146-0.724-0.588-0.724-0.987
				c0-0.4,0.324-0.606,0.724-0.46C85.297,114.671,85.621,115.113,85.621,115.513z"/>
			<path fill="#26CAD3" d="M83.309,114.096c0,0.4-0.324,0.606-0.724,0.46c-0.4-0.146-0.724-0.588-0.724-0.987
				c0-0.4,0.324-0.606,0.724-0.46C82.985,113.254,83.309,113.696,83.309,114.096z"/>
			<path fill="#26CAD3" d="M90.244,120.857c0,0.4-0.324,0.606-0.724,0.46c-0.4-0.146-0.724-0.588-0.724-0.987
				s0.324-0.606,0.724-0.46C89.92,120.015,90.244,120.457,90.244,120.857z"/>
			<path fill="#26CAD3" d="M87.932,119.44c0,0.4-0.324,0.606-0.724,0.46c-0.4-0.146-0.724-0.588-0.724-0.987
				c0-0.4,0.324-0.606,0.724-0.46C87.608,118.599,87.932,119.041,87.932,119.44z"/>
			<path fill="#26CAD3" d="M85.621,118.024c0,0.4-0.324,0.606-0.724,0.46c-0.4-0.146-0.724-0.588-0.724-0.987
				c0-0.4,0.324-0.606,0.724-0.46C85.297,117.182,85.621,117.624,85.621,118.024z"/>
		</g>
		<path fill="#FFFFFF" stroke="#26CAD3" stroke-miterlimit="10" d="M138.103,102.011v10.534c0,1.705-1.395,3.905-3.1,4.89
			l-24.151,13.944c-1.705,0.984-3.1,0.395-3.1-1.31v-10.534L138.103,102.011z"/>
		<g>
			<path fill="#FFFFFF" stroke="#26CAD3" stroke-miterlimit="10" d="M112.331,128.3L112.331,128.3
				c1.232-0.521,2.239-1.954,2.239-3.186v-5.288c0-1.232-1.008-1.813-2.239-1.293h0c-1.232,0.521-2.239,1.954-2.239,3.186v5.288
				C110.092,128.238,111.1,128.82,112.331,128.3z"/>
			<path fill="#FFFFFF" stroke="#26CAD3" stroke-miterlimit="10" d="M133.523,116.093L133.523,116.093
				c1.232-0.521,2.239-1.954,2.239-3.186v-5.288c0-1.232-1.008-1.813-2.239-1.293l0,0c-1.232,0.521-2.239,1.954-2.239,3.186v5.288
				C131.283,116.031,132.291,116.613,133.523,116.093z"/>
		</g>
		<g>
			<path fill="#26CAD3" d="M117.58,119.764c0,0.4,0.324,0.606,0.724,0.46c0.4-0.146,0.724-0.588,0.724-0.987
				c0-0.4-0.324-0.606-0.724-0.46C117.904,118.922,117.58,119.364,117.58,119.764z"/>
			<path fill="#26CAD3" d="M119.892,118.347c0,0.4,0.324,0.606,0.724,0.46c0.4-0.146,0.724-0.588,0.724-0.987
				c0-0.4-0.324-0.606-0.724-0.46C120.216,117.505,119.892,117.947,119.892,118.347z"/>
			<path fill="#26CAD3" d="M122.203,116.93c0,0.4,0.324,0.606,0.724,0.46c0.4-0.146,0.724-0.588,0.724-0.987
				c0-0.4-0.324-0.606-0.724-0.46C122.527,116.088,122.203,116.53,122.203,116.93z"/>
			<path fill="#26CAD3" d="M124.515,115.513c0,0.4,0.324,0.606,0.724,0.46c0.4-0.146,0.724-0.588,0.724-0.987
				c0-0.4-0.324-0.606-0.724-0.46C124.839,114.671,124.515,115.113,124.515,115.513z"/>
			<path fill="#26CAD3" d="M126.826,114.096c0,0.4,0.324,0.606,0.724,0.46c0.4-0.146,0.724-0.588,0.724-0.987
				c0-0.4-0.324-0.606-0.724-0.46C127.151,113.254,126.826,113.696,126.826,114.096z"/>
			<path fill="#26CAD3" d="M119.892,120.857c0,0.4,0.324,0.606,0.724,0.46c0.4-0.146,0.724-0.588,0.724-0.987
				s-0.324-0.606-0.724-0.46C120.216,120.015,119.892,120.457,119.892,120.857z"/>
			<path fill="#26CAD3" d="M122.203,119.44c0,0.4,0.324,0.606,0.724,0.46c0.4-0.146,0.724-0.588,0.724-0.987
				c0-0.4-0.324-0.606-0.724-0.46C122.527,118.599,122.203,119.041,122.203,119.44z"/>
			<path fill="#26CAD3" d="M124.515,118.024c0,0.4,0.324,0.606,0.724,0.46c0.4-0.146,0.724-0.588,0.724-0.987
				c0-0.4-0.324-0.606-0.724-0.46C124.839,117.182,124.515,117.624,124.515,118.024z"/>
		</g>
		<ellipse fill="#26CAD3" cx="131.288" cy="89.437" rx="1.926" ry="0.878"/>
		<g>
			
				<ellipse fill="#FFFFFF" stroke="#26CAD3" stroke-width="0.8" stroke-miterlimit="10" cx="85.32" cy="84.891" rx="4.199" ry="1.914"/>
			<g>
				<path fill="#26CAD3" d="M86.171,86.061c0.007,0.017,0.009,0.029,0.006,0.036c-0.003,0.007-0.012,0.016-0.027,0.027L85.768,86.4
					c-0.033,0.024-0.058,0.035-0.076,0.034s-0.035-0.021-0.052-0.059l-0.64-1.309l-2.079-0.142
					c-0.055-0.004-0.085-0.012-0.089-0.023s0.013-0.031,0.05-0.057l0.359-0.26c0.02-0.014,0.036-0.023,0.05-0.027
					c0.014-0.004,0.033-0.005,0.057-0.003l1.49,0.109l-0.425-0.881c-0.007-0.014-0.008-0.026-0.004-0.035
					c0.004-0.009,0.015-0.021,0.035-0.035l0.36-0.261c0.037-0.027,0.064-0.04,0.084-0.04c0.019,0,0.037,0.017,0.053,0.05
					l0.576,1.232l2.214,0.167c0.065,0.004,0.099,0.011,0.104,0.021c0.005,0.011-0.009,0.028-0.042,0.051l-0.382,0.277
					c-0.015,0.011-0.028,0.018-0.038,0.021c-0.01,0.003-0.03,0.003-0.059,0.002l-1.605-0.12L86.171,86.061z"/>
			</g>
		</g>
		<g>
			
				<ellipse fill="#FFFFFF" stroke="#26CAD3" stroke-width="0.8" stroke-miterlimit="10" cx="85.32" cy="93.64" rx="4.199" ry="1.914"/>
			<g>
				<path fill="#26CAD3" d="M87.235,94.377c0.031,0.016,0.046,0.03,0.046,0.042c0,0.012-0.011,0.027-0.035,0.045l-0.313,0.227
					c-0.024,0.017-0.046,0.027-0.066,0.029c-0.02,0.002-0.045-0.005-0.076-0.021l-1.179-0.61l-2.43-0.214
					c-0.05-0.004-0.081-0.012-0.09-0.022c-0.01-0.01,0.004-0.029,0.041-0.056l0.343-0.249c0.033-0.024,0.074-0.033,0.125-0.029
					l1.812,0.174l-0.604-1.051c-0.016-0.03-0.009-0.055,0.019-0.075l0.36-0.261c0.037-0.027,0.065-0.036,0.084-0.028
					s0.035,0.027,0.048,0.055l0.737,1.433L87.235,94.377z"/>
			</g>
		</g>
		
			<ellipse fill="#FFFFFF" stroke="#26CAD3" stroke-width="0.8" stroke-miterlimit="10" cx="77.708" cy="89.265" rx="4.199" ry="1.914"/>
		<g>
			<path fill="#26CAD3" d="M78.412,90.593c-0.041,0.03-0.087,0.032-0.138,0.006l-0.271-0.14c-0.018-0.009-0.032-0.021-0.042-0.036
				s-0.018-0.028-0.025-0.039l-0.985-1.784l-0.964,0.699c-0.024,0.017-0.046,0.026-0.066,0.027c-0.02,0-0.044-0.007-0.072-0.021
				l-0.328-0.17c-0.028-0.014-0.043-0.028-0.046-0.04c-0.003-0.012,0.008-0.027,0.032-0.044l1.44-1.045
				c0.028-0.021,0.052-0.031,0.071-0.03s0.043,0.008,0.071,0.022l0.309,0.16c0.013,0.007,0.024,0.015,0.034,0.025
				s0.016,0.021,0.02,0.031l0.947,1.793l1.055-0.765c0.024-0.017,0.046-0.026,0.066-0.027c0.02,0,0.044,0.007,0.072,0.021
				l0.328,0.17c0.028,0.014,0.043,0.028,0.046,0.04c0.003,0.012-0.008,0.027-0.032,0.044L78.412,90.593z"/>
		</g>
		
			<line fill="#FFFFFF" stroke="#26CAD3" stroke-width="0.5" stroke-linecap="round" stroke-miterlimit="10" x1="80.261" y1="87.351" x2="81.682" y2="86.501"/>
		
			<line fill="#FFFFFF" stroke="#26CAD3" stroke-width="0.5" stroke-linecap="round" stroke-miterlimit="10" x1="81.014" y1="91.01" x2="82.486" y2="91.768"/>
		<path fill="none" stroke="#26CAD3" stroke-miterlimit="10" d="M102.348,69.411L70.835,87.605c-1.594,0.92-1.594,3.221,0,4.142
			l31.514,18.194c1.891,1.092,4.22,1.092,6.111,0l31.507-18.191c1.594-0.92,1.594-3.221,0-4.142l-31.507-18.198
			C106.569,68.319,104.239,68.319,102.348,69.411z"/>
	</g>
</g>
</svg>
