<svg id="레이어_1" data-name="레이어 1" xmlns="http://www.w3.org/2000/svg" width="210" height="210" viewBox="0 0 210 210">
  <defs>
    <style>
      .cls-1, .cls-4, .cls-5 {
        fill: #fff;
      }

      .cls-1 {
        fill-opacity: 0;
      }

      .cls-2 {
        fill: #f1f1f1;
      }

      .cls-3 {
        fill: none;
      }

      .cls-3, .cls-4, .cls-5 {
        stroke: #26cad3;
        stroke-miterlimit: 10;
      }

      .cls-3, .cls-5 {
        stroke-width: 1.5px;
      }

      .cls-6 {
        fill: #26cad3;
      }
    </style>
  </defs>
  <title>helpSpeaker</title>
  <rect class="cls-1" width="210" height="210"/>
  <path class="cls-2" d="M110.06,113l52.8,30.49a4,4,0,0,1,0,7l-52.8,30.48a10.24,10.24,0,0,1-10.24,0L47.1,150.4a4,4,0,0,1,0-7l52.8-30.49A10.24,10.24,0,0,1,110.06,113Z"/>
  <path class="cls-3" d="M55.69,107.74V96a3.34,3.34,0,0,1,.21-1.9V94a3.22,3.22,0,0,1,.17-.32l.08-.13.19-.26.11-.13.25-.24.11-.1a3.4,3.4,0,0,1,.42-.29h0l43.46-25.19a8.39,8.39,0,0,1,4.19-1.19h0a8.39,8.39,0,0,1,4.19,1.19l7.13,4.12,36.32,21a3.38,3.38,0,0,1,.42.3l.11.1.25.24.11.13.19.26.08.13a3.22,3.22,0,0,1,.17.32V94a3.34,3.34,0,0,1,.21,1.9v11.86a3.36,3.36,0,0,1,0,1.19v29a3.28,3.28,0,0,1-1.59,3.45L109,166.52a8.39,8.39,0,0,1-8.39,0L57.18,141.28a3.28,3.28,0,0,1-1.59-3.45V108.79A3.36,3.36,0,0,1,55.69,107.74Z"/>
  <path class="cls-4" d="M55.69,137.78V95.28h98.53v42.5a3.28,3.28,0,0,1-1.59,3.45l-43.46,25.15a8.39,8.39,0,0,1-8.39,0L57.32,141.22A3.28,3.28,0,0,1,55.69,137.78Z"/>
  <path class="cls-4" d="M55.69,95.86a3.28,3.28,0,0,1,1.59-3.45l43.45-25.15a8.39,8.39,0,0,1,8.39,0l43.46,25.15a3.28,3.28,0,0,1,1.59,3.45v11.88a3.28,3.28,0,0,1-1.59,3.45l-43.48,25.07a8.39,8.39,0,0,1-8.39,0L57.28,111.15a3.28,3.28,0,0,1-1.59-3.45Z"/>
  <polygon class="cls-5" points="154.21 95.26 154.21 95.28 104.95 123.72 55.69 95.28 55.69 95.26 104.95 66.82 154.21 95.26"/>
  <path class="cls-4" d="M150.48,112.29v14.53a8.9,8.9,0,0,1-4.28,6.75l-33.27,19.24c-2.38,1.4-4.28.55-4.28-1.81V136.47Z"/>
  <path class="cls-4" d="M115,148.54h0a5.28,5.28,0,0,0,3.09-4.38v-7.3c0-1.7-1.4-2.5-3.09-1.79h0a5.28,5.28,0,0,0-3.09,4.38v7.34C111.84,148.46,113.27,149.26,115,148.54Z"/>
  <path class="cls-4" d="M144.2,131.71h0a5.28,5.28,0,0,0,3.09-4.38V120c0-1.7-1.4-2.5-3.09-1.79h0a5.28,5.28,0,0,0-3.09,4.38v7.3C141.11,131.62,142.49,132.42,144.2,131.71Z"/>
  <path class="cls-6" d="M122.2,136.77a.67.67,0,0,0,1,.63,1.58,1.58,0,0,0,1-1.4.67.67,0,0,0-1-.63A1.58,1.58,0,0,0,122.2,136.77Z"/>
  <path class="cls-6" d="M125.33,134.82a.67.67,0,0,0,1,.63,1.58,1.58,0,0,0,1-1.4.67.67,0,0,0-1-.63A1.58,1.58,0,0,0,125.33,134.82Z"/>
  <path class="cls-6" d="M128.58,132.85a.67.67,0,0,0,1,.63,1.58,1.58,0,0,0,1-1.4.67.67,0,0,0-1-.63A1.58,1.58,0,0,0,128.58,132.85Z"/>
  <path class="cls-6" d="M131.78,130.91a.67.67,0,0,0,1,.63,1.58,1.58,0,0,0,1-1.4.67.67,0,0,0-1-.63A1.58,1.58,0,0,0,131.78,130.91Z"/>
  <path class="cls-6" d="M135,129a.67.67,0,0,0,1,.63,1.58,1.58,0,0,0,1-1.4.67.67,0,0,0-1-.63A1.58,1.58,0,0,0,135,129Z"/>
  <path class="cls-6" d="M125.33,138.28a.67.67,0,0,0,1,.63,1.58,1.58,0,0,0,1-1.4.67.67,0,0,0-1-.63A1.58,1.58,0,0,0,125.33,138.28Z"/>
  <path class="cls-6" d="M128.58,136.33a.67.67,0,0,0,1,.63,1.58,1.58,0,0,0,1-1.4.67.67,0,0,0-1-.63A1.58,1.58,0,0,0,128.58,136.33Z"/>
  <path class="cls-6" d="M131.78,134.38a.67.67,0,0,0,1,.63,1.58,1.58,0,0,0,1-1.4.67.67,0,0,0-1-.63A1.58,1.58,0,0,0,131.78,134.38Z"/>
  <path class="cls-4" d="M59.38,112.29v14.53a8.9,8.9,0,0,0,4.28,6.75l33.27,19.24c2.38,1.4,4.28.55,4.28-1.81V136.47Z"/>
  <path class="cls-4" d="M94.93,148.54h0a5.28,5.28,0,0,1-3.09-4.38v-7.3c0-1.7,1.4-2.5,3.09-1.79h0A5.28,5.28,0,0,1,98,139.45v7.34C98,148.46,96.62,149.26,94.93,148.54Z"/>
  <path class="cls-4" d="M65.7,131.71h0a5.28,5.28,0,0,1-3.09-4.46V120c0-1.7,1.4-2.5,3.09-1.79h0a5.28,5.28,0,0,1,3.09,4.38v7.3C68.79,131.62,67.39,132.42,65.7,131.71Z"/>
  <path class="cls-6" d="M87.7,136.77a.67.67,0,0,1-1,.63,1.58,1.58,0,0,1-1-1.4.67.67,0,0,1,1-.63A1.58,1.58,0,0,1,87.7,136.77Z"/>
  <path class="cls-6" d="M84.51,134.82a.67.67,0,0,1-1,.63,1.58,1.58,0,0,1-1-1.4.67.67,0,0,1,1-.63A1.58,1.58,0,0,1,84.51,134.82Z"/>
  <path class="cls-6" d="M81.31,132.85a.67.67,0,0,1-1,.63,1.58,1.58,0,0,1-1-1.4.67.67,0,0,1,1-.63A1.58,1.58,0,0,1,81.31,132.85Z"/>
  <path class="cls-6" d="M78.12,130.91a.67.67,0,0,1-1,.63,1.58,1.58,0,0,1-1-1.4.67.67,0,0,1,1-.63A1.58,1.58,0,0,1,78.12,130.91Z"/>
  <path class="cls-6" d="M74.94,129a.67.67,0,0,1-1,.63,1.58,1.58,0,0,1-1-1.4.67.67,0,0,1,1-.63A1.58,1.58,0,0,1,74.94,129Z"/>
  <path class="cls-6" d="M84.51,138.28a.67.67,0,0,1-1,.63,1.58,1.58,0,0,1-1-1.4.67.67,0,0,1,1-.63A1.58,1.58,0,0,1,84.51,138.28Z"/>
  <path class="cls-6" d="M81.31,136.33a.67.67,0,0,1-1,.63,1.58,1.58,0,0,1-1-1.4.67.67,0,0,1,1-.63A1.58,1.58,0,0,1,81.31,136.33Z"/>
  <path class="cls-6" d="M78.12,134.38a.67.67,0,0,1-1,.63,1.58,1.58,0,0,1-1-1.4.67.67,0,0,1,1-.63A1.58,1.58,0,0,1,78.12,134.38Z"/>
  <path class="cls-4" d="M109.16,67.34,152.62,92.5a3.29,3.29,0,0,1,0,5.72l-43.46,25.15a8.39,8.39,0,0,1-8.39,0L57.32,98.23a3.29,3.29,0,0,1,0-5.72l43.45-25.18A8.39,8.39,0,0,1,109.16,67.34Z"/>
  <ellipse class="cls-6" cx="68.79" cy="94.94" rx="2.65" ry="1.21"/>
  <ellipse class="cls-6" cx="84.61" cy="92.63" rx="2.14" ry="0.97" transform="translate(-0.16 0.15) rotate(-0.1)"/>
  <ellipse class="cls-6" cx="89.3" cy="89.91" rx="2.14" ry="0.97" transform="translate(-0.16 0.16) rotate(-0.1)"/>
  <ellipse class="cls-6" cx="93.99" cy="87.18" rx="2.14" ry="0.97" transform="translate(-0.15 0.16) rotate(-0.1)"/>
  <ellipse class="cls-6" cx="98.69" cy="84.47" rx="2.14" ry="0.97" transform="translate(-0.15 0.17) rotate(-0.1)"/>
  <ellipse class="cls-6" cx="86.69" cy="96.23" rx="2.14" ry="0.97" transform="translate(-0.17 0.15) rotate(-0.1)"/>
  <ellipse class="cls-6" cx="91.38" cy="93.51" rx="2.14" ry="0.97" transform="translate(-0.16 0.16) rotate(-0.1)"/>
  <ellipse class="cls-6" cx="96.09" cy="90.77" rx="2.14" ry="0.97" transform="translate(-0.16 0.17) rotate(-0.1)"/>
  <ellipse class="cls-6" cx="100.79" cy="88.06" rx="2.14" ry="0.97" transform="translate(-0.15 0.18) rotate(-0.1)"/>
  <ellipse class="cls-6" cx="105.48" cy="85.33" rx="2.14" ry="0.97" transform="translate(-0.15 0.18) rotate(-0.1)"/>
  <ellipse class="cls-6" cx="88.77" cy="99.82" rx="2.14" ry="0.97" transform="translate(-0.17 0.16) rotate(-0.1)"/>
  <ellipse class="cls-6" cx="93.49" cy="97.11" rx="2.14" ry="0.97" transform="translate(-0.17 0.16) rotate(-0.1)"/>
  <ellipse class="cls-6" cx="98.17" cy="94.39" rx="2.14" ry="0.97" transform="translate(-0.16 0.17) rotate(-0.1)"/>
  <ellipse class="cls-6" cx="102.86" cy="91.65" rx="2.14" ry="0.97" transform="translate(-0.16 0.18) rotate(-0.1)"/>
  <ellipse class="cls-6" cx="107.56" cy="88.93" rx="2.14" ry="0.97" transform="translate(-0.16 0.19) rotate(-0.1)"/>
  <ellipse class="cls-6" cx="112.25" cy="86.23" rx="2.14" ry="0.97" transform="translate(-0.15 0.2) rotate(-0.1)"/>
  <ellipse class="cls-6" cx="90.87" cy="103.44" rx="2.14" ry="0.97" transform="translate(-0.18 0.16) rotate(-0.1)"/>
  <ellipse class="cls-6" cx="95.55" cy="100.7" rx="2.14" ry="0.97" transform="translate(-0.18 0.17) rotate(-0.1)"/>
  <ellipse class="cls-6" cx="100.26" cy="97.99" rx="2.14" ry="0.97" transform="translate(-0.17 0.18) rotate(-0.1)"/>
  <ellipse class="cls-6" cx="104.95" cy="95.26" rx="2.14" ry="0.97" transform="translate(-0.17 0.18) rotate(-0.1)"/>
  <ellipse class="cls-6" cx="109.66" cy="92.53" rx="2.14" ry="0.97" transform="translate(-0.16 0.19) rotate(-0.1)"/>
  <ellipse class="cls-6" cx="114.36" cy="89.82" rx="2.14" ry="0.97" transform="translate(-0.16 0.2) rotate(-0.1)"/>
  <ellipse class="cls-6" cx="119.04" cy="87.11" rx="2.14" ry="0.97" transform="translate(-0.15 0.21) rotate(-0.1)"/>
  <ellipse class="cls-6" cx="97.66" cy="104.31" rx="2.14" ry="0.97" transform="translate(-0.18 0.17) rotate(-0.1)"/>
  <ellipse class="cls-6" cx="102.35" cy="101.58" rx="2.14" ry="0.97" transform="translate(-0.18 0.18) rotate(-0.1)"/>
  <ellipse class="cls-6" cx="107.06" cy="98.87" rx="2.14" ry="0.97" transform="translate(-0.17 0.19) rotate(-0.1)"/>
  <ellipse class="cls-6" cx="111.75" cy="96.14" rx="2.14" ry="0.97" transform="translate(-0.17 0.2) rotate(-0.1)"/>
  <ellipse class="cls-6" cx="116.42" cy="93.42" rx="2.14" ry="0.97" transform="translate(-0.16 0.2) rotate(-0.1)"/>
  <ellipse class="cls-6" cx="121.12" cy="90.69" rx="2.14" ry="0.97" transform="translate(-0.16 0.21) rotate(-0.1)"/>
  <ellipse class="cls-6" cx="104.44" cy="105.18" rx="2.14" ry="0.97" transform="translate(-0.18 0.18) rotate(-0.1)"/>
  <ellipse class="cls-6" cx="109.12" cy="102.47" rx="2.14" ry="0.97" transform="translate(-0.18 0.19) rotate(-0.1)"/>
  <ellipse class="cls-6" cx="113.81" cy="99.75" rx="2.14" ry="0.97" transform="translate(-0.17 0.2) rotate(-0.1)"/>
  <ellipse class="cls-6" cx="118.53" cy="97.03" rx="2.14" ry="0.97" transform="translate(-0.17 0.21) rotate(-0.1)"/>
  <ellipse class="cls-6" cx="123.22" cy="94.3" rx="2.14" ry="0.97" transform="translate(-0.16 0.22) rotate(-0.1)"/>
  <ellipse class="cls-6" cx="111.23" cy="106.06" rx="2.14" ry="0.97" transform="translate(-0.18 0.19) rotate(-0.1)"/>
  <ellipse class="cls-6" cx="115.92" cy="103.34" rx="2.14" ry="0.97" transform="translate(-0.18 0.2) rotate(-0.1)"/>
  <ellipse class="cls-6" cx="120.61" cy="100.62" rx="2.14" ry="0.97" transform="translate(-0.18 0.21) rotate(-0.1)"/>
  <ellipse class="cls-6" cx="125.32" cy="97.91" rx="2.14" ry="0.97" transform="translate(-0.17 0.22) rotate(-0.1)"/>
</svg>
