<svg id="레이어_1" data-name="레이어 1" xmlns="http://www.w3.org/2000/svg" width="210" height="210" viewBox="0 0 210 210">
  <defs>
    <style>
      .cls-1, .cls-4, .cls-5, .cls-8 {
        fill: #fff;
      }

      .cls-1 {
        fill-opacity: 0;
      }

      .cls-2 {
        fill: #f1f1f1;
      }

      .cls-3 {
        fill: none;
      }

      .cls-3, .cls-4, .cls-5, .cls-8 {
        stroke: #26cad3;
      }

      .cls-3, .cls-4, .cls-5 {
        stroke-miterlimit: 10;
      }

      .cls-3, .cls-4, .cls-8 {
        stroke-width: 1.5px;
      }

      .cls-6, .cls-7 {
        fill: #26cad3;
      }

      .cls-7 {
        opacity: 0.5;
        isolation: isolate;
      }

      .cls-8 {
        stroke-linecap: round;
        stroke-linejoin: round;
      }
    </style>
  </defs>
  <title>helpButtonClick</title>
  <rect class="cls-1" width="210" height="210"/>
  <path class="cls-2" d="M100.89,124.07L58.41,148.6a3.22,3.22,0,0,0,0,5.58l42.48,24.53a8.24,8.24,0,0,0,8.24,0l42.47-24.52a3.22,3.22,0,0,0,0-5.58l-42.47-24.54A8.24,8.24,0,0,0,100.89,124.07Z"/>
  <path class="cls-3" d="M144.64,119.79v-9.46a2.69,2.69,0,0,0-.17-1.53v-0.07a2.59,2.59,0,0,0-.14-0.26l-0.06-.1-0.16-.21-0.09-.1-0.2-.19-0.09-.08a2.73,2.73,0,0,0-.33-0.23h0l-35-20.19a6.78,6.78,0,0,0-3.39-.91H105a6.77,6.77,0,0,0-3.34.91l-5.74,3.3L66.65,107.55a2.73,2.73,0,0,0-.34.23l-0.09.08-0.2.19-0.08.1-0.16.21-0.06.1a2.59,2.59,0,0,0-.14.26v0.07a2.68,2.68,0,0,0-.17,1.53v9.46a2.71,2.71,0,0,0,0,.92v23.37a2.64,2.64,0,0,0,1.28,2.77l35,20.19a6.78,6.78,0,0,0,6.78,0l35-20.18a2.64,2.64,0,0,0,1.28-2.78V120.71A2.71,2.71,0,0,0,144.64,119.79Z"/>
  <path class="cls-4" d="M144.64,144.07V109.85H65.33v34.22a2.64,2.64,0,0,0,1.28,2.77l35,20.19a6.78,6.78,0,0,0,6.78,0l35-20.18A2.64,2.64,0,0,0,144.64,144.07Z"/>
  <path class="cls-5" d="M144.64,110.33a2.64,2.64,0,0,0-1.28-2.77l-35-20.19a6.78,6.78,0,0,0-6.78,0l-35,20.19a2.64,2.64,0,0,0-1.25,2.76v9.46a2.64,2.64,0,0,0,1.28,2.77l35,20.19a6.78,6.78,0,0,0,6.78,0l35-20.18a2.64,2.64,0,0,0,1.28-2.78v-9.46h0Z"/>
  <path class="cls-5" d="M68.33,123.53v11.69a7.16,7.16,0,0,0,3.44,5.43l26.8,15.47c1.89,1.09,3.44.44,3.44-1.45V143Z"/>
  <path class="cls-5" d="M96.94,152.71h0a4.25,4.25,0,0,1-2.48-3.53v-5.87c0-1.37,1.12-2,2.48-1.43h0a4.25,4.25,0,0,1,2.48,3.53v5.87C99.43,152.64,98.33,153.28,96.94,152.71Z"/>
  <path class="cls-5" d="M73.43,139.16h0a4.25,4.25,0,0,1-2.48-3.53v-5.87c0-1.37,1.12-2,2.48-1.43h0a4.25,4.25,0,0,1,2.48,3.53v5.87C75.91,139.07,74.79,139.74,73.43,139.16Z"/>
  <path class="cls-6" d="M91.12,143.23a0.54,0.54,0,0,1-.8.51,1.27,1.27,0,0,1-.8-1.1,0.54,0.54,0,0,1,.8-0.51A1.27,1.27,0,0,1,91.12,143.23Z"/>
  <path class="cls-6" d="M88.55,141.66a0.54,0.54,0,0,1-.8.51,1.27,1.27,0,0,1-.8-1.1,0.54,0.54,0,0,1,.8-0.51A1.27,1.27,0,0,1,88.55,141.66Z"/>
  <path class="cls-6" d="M86,140.07a0.54,0.54,0,0,1-.8.51,1.27,1.27,0,0,1-.8-1.1,0.54,0.54,0,0,1,.8-0.51A1.27,1.27,0,0,1,86,140.07Z"/>
  <path class="cls-6" d="M83.42,138.52a0.54,0.54,0,0,1-.8.51,1.27,1.27,0,0,1-.8-1.1,0.54,0.54,0,0,1,.8-0.51A1.27,1.27,0,0,1,83.42,138.52Z"/>
  <path class="cls-6" d="M80.86,136.94a0.54,0.54,0,0,1-.8.51,1.27,1.27,0,0,1-.8-1.1,0.54,0.54,0,0,1,.8-0.51A1.27,1.27,0,0,1,80.86,136.94Z"/>
  <path class="cls-6" d="M88.55,144.45a0.54,0.54,0,0,1-.8.51,1.27,1.27,0,0,1-.8-1.1,0.54,0.54,0,0,1,.8-0.51A1.27,1.27,0,0,1,88.55,144.45Z"/>
  <path class="cls-6" d="M86,142.87a0.54,0.54,0,0,1-.8.51,1.27,1.27,0,0,1-.8-1.1,0.54,0.54,0,0,1,.8-0.51A1.27,1.27,0,0,1,86,142.87Z"/>
  <path class="cls-6" d="M83.42,141.3a0.54,0.54,0,0,1-.8.51,1.27,1.27,0,0,1-.8-1.1,0.54,0.54,0,0,1,.8-0.51A1.27,1.27,0,0,1,83.42,141.3Z"/>
  <path class="cls-5" d="M141.66,123.53v11.69a7.16,7.16,0,0,1-3.44,5.43l-26.8,15.47c-1.89,1.09-3.44.44-3.44-1.45V143Z"/>
  <path class="cls-5" d="M113.06,152.71h0a4.25,4.25,0,0,0,2.48-3.53v-5.87c0-1.37-1.12-2-2.48-1.43h0a4.25,4.25,0,0,0-2.48,3.53v5.87C110.58,152.64,111.7,153.28,113.06,152.71Z"/>
  <path class="cls-5" d="M136.58,139.16h0a4.25,4.25,0,0,0,2.48-3.53v-5.87c0-1.37-1.12-2-2.48-1.43h0a4.25,4.25,0,0,0-2.48,3.53v5.87C134.09,139.07,135.21,139.74,136.58,139.16Z"/>
  <path class="cls-6" d="M118.89,143.23a0.54,0.54,0,0,0,.8.51,1.27,1.27,0,0,0,.8-1.1,0.54,0.54,0,0,0-.8-0.51A1.27,1.27,0,0,0,118.89,143.23Z"/>
  <path class="cls-6" d="M121.45,141.66a0.54,0.54,0,0,0,.8.51,1.27,1.27,0,0,0,.8-1.1,0.54,0.54,0,0,0-.8-0.51A1.27,1.27,0,0,0,121.45,141.66Z"/>
  <path class="cls-6" d="M124,140.07a0.54,0.54,0,0,0,.8.51,1.27,1.27,0,0,0,.8-1.1,0.54,0.54,0,0,0-.8-0.51A1.27,1.27,0,0,0,124,140.07Z"/>
  <path class="cls-6" d="M126.58,138.52a0.54,0.54,0,0,0,.8.51,1.27,1.27,0,0,0,.8-1.1,0.54,0.54,0,0,0-.8-0.51A1.27,1.27,0,0,0,126.58,138.52Z"/>
  <path class="cls-6" d="M129.15,136.94a0.54,0.54,0,0,0,.8.51,1.27,1.27,0,0,0,.8-1.1,0.54,0.54,0,0,0-.8-0.51A1.27,1.27,0,0,0,129.15,136.94Z"/>
  <path class="cls-6" d="M121.45,144.45a0.54,0.54,0,0,0,.8.51,1.27,1.27,0,0,0,.8-1.1,0.54,0.54,0,0,0-.8-0.51A1.27,1.27,0,0,0,121.45,144.45Z"/>
  <path class="cls-6" d="M124,142.87a0.54,0.54,0,0,0,.8.51,1.27,1.27,0,0,0,.8-1.1,0.54,0.54,0,0,0-.8-0.51A1.27,1.27,0,0,0,124,142.87Z"/>
  <path class="cls-6" d="M126.58,141.3a0.54,0.54,0,0,0,.8.51,1.27,1.27,0,0,0,.8-1.1,0.54,0.54,0,0,0-.8-0.51A1.27,1.27,0,0,0,126.58,141.3Z"/>
  <path class="cls-5" d="M101.61,87.36l-35,20.19a2.65,2.65,0,0,0,0,4.6l35,20.19a6.78,6.78,0,0,0,6.78,0l35-20.18a2.65,2.65,0,0,0,0-4.6l-35-20.19A6.78,6.78,0,0,0,101.61,87.36Z"/>
  <ellipse class="cls-6" cx="134.1" cy="109.58" rx="2.14" ry="0.97"/>
  <path class="cls-5" d="M119.33,106.81c-2.46-2.49-8-4.23-14.35-4.23s-11.88,1.74-14.35,4.23H89.26v2.94c0,4,7,7.17,15.74,7.17s15.74-3.21,15.74-7.17v-2.94h-1.41Z"/>
  <ellipse class="cls-5" cx="105" cy="106.81" rx="15.74" ry="7.17"/>
  <ellipse class="cls-7" cx="105" cy="106.81" rx="11.05" ry="4.36"/>
  <g>
    <path class="cls-8" d="M88,60.55s-3.58,7.17-3.58,12.31V85.54S84.06,89.4,87,89.4a2.88,2.88,0,0,0,2.94-2.82s0-.08,0-0.12v4.13a2.88,2.88,0,0,0,2.82,2.94h0.12a3.52,3.52,0,0,0,3.4-3v2.66a3,3,0,0,0,5.94-.09v10.45a3,3,0,0,0,3.31,3.22s2.94,0,2.94-3.58V81.13s0.37,3.12,2.85,2.11S114,77.91,114,77.91V73.78a15.43,15.43,0,0,0-8.27-12.68"/>
    <rect class="cls-6" x="89.19" y="81.71" width="1.5" height="6.67" rx="0.75" ry="0.75"/>
    <rect class="cls-6" x="95.53" y="83.1" width="1.5" height="9.33" rx="0.75" ry="0.75"/>
    <rect class="cls-6" x="101.47" y="83.79" width="1.5" height="10.75" rx="0.75" ry="0.75"/>
    <rect class="cls-6" x="107.72" y="76.82" width="1.5" height="12.37" rx="0.75" ry="0.75"/>
  </g>
</svg>
