<svg id="Layer_1" data-name="Layer 1" xmlns="http://www.w3.org/2000/svg" xmlns:xlink="http://www.w3.org/1999/xlink" width="210" height="210" viewBox="0 0 210 210">
  <defs>
    <style>
      .cls-1, .cls-4, .cls-5 {
        fill: #fff;
      }

      .cls-1 {
        fill-opacity: 0;
      }

      .cls-2 {
        fill: #f1f1f1;
      }

      .cls-3 {
        fill: none;
      }

      .cls-3, .cls-4, .cls-5 {
        stroke: #26cad3;
        stroke-miterlimit: 10;
      }

      .cls-3, .cls-4 {
        stroke-width: 1.5px;
      }

      .cls-6, .cls-8 {
        fill: #26cad3;
      }

      .cls-7 {
        opacity: 0.8;
        fill: url(#무제_그라디언트);
      }

      .cls-7, .cls-8 {
        isolation: isolate;
      }

      .cls-8 {
        opacity: 0.3;
      }
    </style>
    <linearGradient id="무제_그라디언트" data-name="무제 그라디언트" x1="29.35" y1="207.56" x2="100.17" y2="115.05" gradientTransform="matrix(1, 0, 0, -1, 0, 212)" gradientUnits="userSpaceOnUse">
      <stop offset="0" stop-color="#fff" stop-opacity="0"/>
      <stop offset="0.05" stop-color="#f2fcfc" stop-opacity="0.03"/>
      <stop offset="0.31" stop-color="#aaeaee" stop-opacity="0.19"/>
      <stop offset="0.54" stop-color="#71dce2" stop-opacity="0.33"/>
      <stop offset="0.75" stop-color="#48d2da" stop-opacity="0.45"/>
      <stop offset="0.9" stop-color="#2fccd5" stop-opacity="0.54"/>
      <stop offset="1" stop-color="#26cad3" stop-opacity="0.6"/>
    </linearGradient>
  </defs>
  <title>helpEnvRGB</title>
  <rect class="cls-1" width="210" height="210"/>
  <path class="cls-2" d="M100.67,100.75,56,126.56a3.39,3.39,0,0,0,0,5.88l44.71,25.81a8.67,8.67,0,0,0,8.67,0L154,132.44a3.39,3.39,0,0,0,0-5.87l-44.7-25.82A8.67,8.67,0,0,0,100.67,100.75Z"/>
  <path class="cls-3" d="M146.71,96.24v-10a2.82,2.82,0,0,0-.18-1.61l0-.07a2.72,2.72,0,0,0-.15-.28l-.07-.1-.17-.22L146,83.9l-.21-.2-.1-.09a2.86,2.86,0,0,0-.35-.24h0L108.57,62.12a7.13,7.13,0,0,0-3.57-1h-.06a7.14,7.14,0,0,0-3.51,1l-6,3.48L64.64,83.36a2.77,2.77,0,0,0-.36.25l-.1.08-.21.2-.09.1-.17.22-.06.1a2.63,2.63,0,0,0-.15.28l0,.07a2.82,2.82,0,0,0-.18,1.61v10a2.87,2.87,0,0,0,0,1v24.55a2.78,2.78,0,0,0,1.35,2.92l36.8,21.25a7.13,7.13,0,0,0,7.14,0l36.79-21.24a2.77,2.77,0,0,0,1.35-2.92V97.21A2.83,2.83,0,0,0,146.71,96.24Z"/>
  <path class="cls-4" d="M146.71,121.76v-36H63.29v36a2.78,2.78,0,0,0,1.35,2.92l36.8,21.25a7.13,7.13,0,0,0,7.14,0l36.79-21.24A2.78,2.78,0,0,0,146.71,121.76Z"/>
  <path class="cls-5" d="M146.71,86.29a2.77,2.77,0,0,0-1.35-2.92L108.57,62.12a7.14,7.14,0,0,0-7.14,0L64.64,83.36a2.77,2.77,0,0,0-1.35,2.92v10a2.77,2.77,0,0,0,1.35,2.92l36.8,21.25a7.13,7.13,0,0,0,7.14,0l36.79-21.24a2.77,2.77,0,0,0,1.35-2.92v-10Z"/>
  <path class="cls-5" d="M66.42,100.18v12.3A7.54,7.54,0,0,0,70,118.19l28.2,16.28c2,1.15,3.62.46,3.62-1.53v-12.3Z"/>
  <g>
    <path class="cls-5" d="M96.52,130.88h0a4.48,4.48,0,0,1-2.61-3.72V121c0-1.44,1.18-2.12,2.61-1.51h0a4.48,4.48,0,0,1,2.61,3.72v6.18C99.13,130.81,98,131.49,96.52,130.88Z"/>
    <path class="cls-5" d="M71.77,116.63h0a4.48,4.48,0,0,1-2.61-3.72v-6.18c0-1.44,1.18-2.12,2.61-1.51h0a4.48,4.48,0,0,1,2.61,3.72v6.18C74.39,116.56,73.21,117.24,71.77,116.63Z"/>
  </g>
  <g>
    <path class="cls-6" d="M90.39,120.92a.57.57,0,0,1-.85.54,1.34,1.34,0,0,1-.85-1.15.57.57,0,0,1,.85-.54A1.34,1.34,0,0,1,90.39,120.92Z"/>
    <path class="cls-6" d="M87.69,119.26a.57.57,0,0,1-.85.54,1.34,1.34,0,0,1-.85-1.15.57.57,0,0,1,.85-.54A1.34,1.34,0,0,1,87.69,119.26Z"/>
    <path class="cls-6" d="M85,117.61a.57.57,0,0,1-.85.54A1.34,1.34,0,0,1,83.3,117a.57.57,0,0,1,.85-.54A1.34,1.34,0,0,1,85,117.61Z"/>
    <path class="cls-6" d="M82.29,116a.57.57,0,0,1-.85.54,1.34,1.34,0,0,1-.85-1.15.57.57,0,0,1,.85-.54A1.34,1.34,0,0,1,82.29,116Z"/>
    <path class="cls-6" d="M79.59,114.3a.57.57,0,0,1-.85.54,1.34,1.34,0,0,1-.85-1.15.57.57,0,0,1,.85-.54A1.34,1.34,0,0,1,79.59,114.3Z"/>
    <path class="cls-6" d="M87.69,122.19a.57.57,0,0,1-.85.54,1.34,1.34,0,0,1-.85-1.15.57.57,0,0,1,.85-.54A1.34,1.34,0,0,1,87.69,122.19Z"/>
    <path class="cls-6" d="M85,120.54a.57.57,0,0,1-.85.54,1.34,1.34,0,0,1-.85-1.15.57.57,0,0,1,.85-.54A1.34,1.34,0,0,1,85,120.54Z"/>
    <path class="cls-6" d="M82.29,118.88a.57.57,0,0,1-.85.54,1.34,1.34,0,0,1-.85-1.15.57.57,0,0,1,.85-.54A1.34,1.34,0,0,1,82.29,118.88Z"/>
  </g>
  <path class="cls-5" d="M143.58,100.18v12.3a7.54,7.54,0,0,1-3.62,5.71l-28.2,16.28c-2,1.15-3.62.46-3.62-1.53v-12.3Z"/>
  <g>
    <path class="cls-5" d="M113.48,130.88h0a4.48,4.48,0,0,0,2.61-3.72V121c0-1.44-1.18-2.12-2.61-1.51h0a4.48,4.48,0,0,0-2.61,3.72v6.18C110.87,130.81,112,131.49,113.48,130.88Z"/>
    <path class="cls-5" d="M138.23,116.63h0a4.48,4.48,0,0,0,2.62-3.72v-6.18c0-1.44-1.18-2.12-2.62-1.51h0a4.48,4.48,0,0,0-2.62,3.72v6.18C135.61,116.56,136.79,117.24,138.23,116.63Z"/>
  </g>
  <g>
    <path class="cls-6" d="M119.61,120.92a.57.57,0,0,0,.85.54,1.34,1.34,0,0,0,.85-1.15.57.57,0,0,0-.85-.54A1.34,1.34,0,0,0,119.61,120.92Z"/>
    <path class="cls-6" d="M122.31,119.26a.57.57,0,0,0,.85.54,1.34,1.34,0,0,0,.85-1.15.57.57,0,0,0-.85-.54A1.34,1.34,0,0,0,122.31,119.26Z"/>
    <path class="cls-6" d="M125,117.61a.57.57,0,0,0,.85.54,1.34,1.34,0,0,0,.85-1.15.57.57,0,0,0-.85-.54A1.34,1.34,0,0,0,125,117.61Z"/>
    <path class="cls-6" d="M127.71,116a.57.57,0,0,0,.84.54,1.34,1.34,0,0,0,.85-1.15.57.57,0,0,0-.85-.54A1.34,1.34,0,0,0,127.71,116Z"/>
    <path class="cls-6" d="M130.41,114.3a.57.57,0,0,0,.85.54,1.34,1.34,0,0,0,.85-1.15.57.57,0,0,0-.85-.54A1.34,1.34,0,0,0,130.41,114.3Z"/>
    <path class="cls-6" d="M122.31,122.19a.57.57,0,0,0,.85.54,1.34,1.34,0,0,0,.85-1.15.57.57,0,0,0-.85-.54A1.34,1.34,0,0,0,122.31,122.19Z"/>
    <path class="cls-6" d="M125,120.54a.57.57,0,0,0,.85.54,1.34,1.34,0,0,0,.85-1.15.57.57,0,0,0-.85-.54A1.34,1.34,0,0,0,125,120.54Z"/>
    <path class="cls-6" d="M127.71,118.88a.57.57,0,0,0,.84.54,1.34,1.34,0,0,0,.85-1.15.57.57,0,0,0-.85-.54A1.34,1.34,0,0,0,127.71,118.88Z"/>
  </g>
  <g>
    <path class="cls-5" d="M101.43,62.1,64.63,83.35a2.79,2.79,0,0,0,0,4.84l36.8,21.25a7.14,7.14,0,0,0,7.14,0L145.36,88.2a2.79,2.79,0,0,0,0-4.84L108.57,62.1A7.14,7.14,0,0,0,101.43,62.1Z"/>
    <path class="cls-5" d="M91.35,89.1a2.79,2.79,0,0,0,1,1l6.16,3.55a6.22,6.22,0,0,0,6.22,0l12.86-7.42a2.79,2.79,0,0,0,0-4.84l-6.15-3.56a6.22,6.22,0,0,0-6.22,0L92.38,85.29A2.79,2.79,0,0,0,91.35,89.1Z"/>
    <g>
      <path class="cls-6" d="M104,87.9l-2.43-1.39a1,1,0,0,0-1,0L98.07,88a.48.48,0,0,0-.23.42h0v1.38h0a.47.47,0,0,0,.06.24.49.49,0,0,0,.17.17l2.58,1.47a.49.49,0,0,0,.54.07L104,90.1a.45.45,0,0,0,.22-.33h0V88.39A.46.46,0,0,0,104,87.9Z"/>
      <path class="cls-6" d="M112.16,83.78h0a.47.47,0,0,0-.06-.26.49.49,0,0,0-.17-.17l-2.55-1.5a.65.65,0,0,0-.65,0l-5.16,3a.46.46,0,0,0-.23.39h0v1.41h0a.47.47,0,0,0,.24.4L106,88.4a1,1,0,0,0,1,0l4.94-2.84a.48.48,0,0,0,.23-.39h0Z"/>
    </g>
  </g>
  <ellipse class="cls-6" cx="135.62" cy="85.5" rx="2.25" ry="1.03"/>
  <g>
    <path class="cls-7" d="M111.91,83.67h0l-.18-.18,0,0L24.13,12.78h-5l53.28,76h0C73.69,93.42,82.41,97,93,97c11.47,0,20.77-4.24,20.77-9.47A5.56,5.56,0,0,0,111.91,83.67Z"/>
    <ellipse class="cls-8" cx="92.97" cy="87.55" rx="20.77" ry="9.47"/>
  </g>
</svg>
