<?xml version="1.0" encoding="utf-8"?>
<!-- Generator: Adobe Illustrator 17.0.0, SVG Export Plug-In . SVG Version: 6.00 Build 0)  -->
<!DOCTYPE svg PUBLIC "-//W3C//DTD SVG 1.1//EN" "http://www.w3.org/Graphics/SVG/1.1/DTD/svg11.dtd">
<svg version="1.1" id="Layer_1" xmlns="http://www.w3.org/2000/svg" xmlns:xlink="http://www.w3.org/1999/xlink" x="0px" y="0px"
	 width="210px" height="210px" viewBox="0 0 210 210" enable-background="new 0 0 210 210" xml:space="preserve">
<rect y="0.199" opacity="0" fill="#FFFFFF" stroke="#BCBCBC" stroke-miterlimit="10" width="210" height="210"/>
<g>
	<circle fill="#26CAD3" cx="130.075" cy="132.626" r="2.163"/>
	<circle fill="#26CAD3" cx="130.075" cy="127.14" r="2.163"/>
	<circle opacity="0.8" fill="#26CAD3" cx="130.075" cy="121.655" r="2.163"/>
	<circle opacity="0.8" fill="#26CAD3" cx="130.075" cy="116.17" r="2.163"/>
	<circle opacity="0.6" fill="#26CAD3" cx="130.075" cy="110.684" r="2.163"/>
	<circle opacity="0.4" fill="#26CAD3" cx="130.075" cy="99.714" r="2.163"/>
	<circle fill="#26CAD3" cx="123.265" cy="132.626" r="2.163"/>
	<circle fill="#26CAD3" cx="123.265" cy="127.14" r="2.163"/>
	<circle opacity="0.8" fill="#26CAD3" cx="123.265" cy="121.655" r="2.163"/>
	<circle opacity="0.8" fill="#26CAD3" cx="123.265" cy="116.17" r="2.163"/>
	<circle opacity="0.6" fill="#26CAD3" cx="123.265" cy="110.684" r="2.163"/>
	<circle opacity="0.6" fill="#26CAD3" cx="123.265" cy="105.199" r="2.163"/>
	<circle opacity="0.4" fill="#26CAD3" cx="123.265" cy="94.228" r="2.163"/>
	<circle fill="#26CAD3" cx="116.456" cy="132.626" r="2.163"/>
	<circle fill="#26CAD3" cx="116.456" cy="127.14" r="2.163"/>
	<circle opacity="0.8" fill="#26CAD3" cx="116.456" cy="121.655" r="2.163"/>
	<circle opacity="0.8" fill="#26CAD3" cx="116.456" cy="116.17" r="2.163"/>
	<circle opacity="0.6" fill="#26CAD3" cx="116.456" cy="110.684" r="2.163"/>
	<circle opacity="0.4" fill="#26CAD3" cx="116.456" cy="99.714" r="2.163"/>
	<circle fill="#26CAD3" cx="109.647" cy="132.626" r="2.163"/>
	<circle fill="#26CAD3" cx="109.647" cy="127.14" r="2.163"/>
	<circle opacity="0.8" fill="#26CAD3" cx="109.647" cy="116.17" r="2.163"/>
	<circle opacity="0.6" fill="#26CAD3" cx="109.647" cy="110.684" r="2.163"/>
	<circle fill="#26CAD3" cx="102.837" cy="132.626" r="2.163"/>
	<circle fill="#26CAD3" cx="102.837" cy="127.14" r="2.163"/>
	<circle opacity="0.8" fill="#26CAD3" cx="102.837" cy="121.655" r="2.163"/>
	<circle opacity="0.8" fill="#26CAD3" cx="102.837" cy="116.17" r="2.163"/>
	<circle opacity="0.6" fill="#26CAD3" cx="102.837" cy="110.684" r="2.163"/>
	<circle opacity="0.6" fill="#26CAD3" cx="102.837" cy="105.199" r="2.163"/>
	<circle opacity="0.4" fill="#26CAD3" cx="102.837" cy="99.714" r="2.163"/>
	<circle opacity="0.4" fill="#26CAD3" cx="102.837" cy="94.228" r="2.163"/>
	<circle opacity="0.2" fill="#26CAD3" cx="102.837" cy="83.258" r="2.163"/>
	<circle fill="#26CAD3" cx="96.028" cy="132.626" r="2.163"/>
	<circle fill="#26CAD3" cx="96.028" cy="127.14" r="2.163"/>
	<circle opacity="0.8" fill="#26CAD3" cx="96.028" cy="121.655" r="2.163"/>
	<circle opacity="0.8" fill="#26CAD3" cx="96.028" cy="116.17" r="2.163"/>
	<circle opacity="0.6" fill="#26CAD3" cx="96.028" cy="110.684" r="2.163"/>
	<circle opacity="0.6" fill="#26CAD3" cx="96.028" cy="105.199" r="2.163"/>
	<circle opacity="0.4" fill="#26CAD3" cx="96.028" cy="99.714" r="2.163"/>
	<circle opacity="0.4" fill="#26CAD3" cx="96.028" cy="94.228" r="2.163"/>
	<circle opacity="0.2" fill="#26CAD3" cx="96.028" cy="88.743" r="2.163"/>
	<circle opacity="0.2" fill="#26CAD3" cx="96.028" cy="83.258" r="2.163"/>
	<circle opacity="0.1" fill="#26CAD3" cx="96.028" cy="77.772" r="2.163"/>
	<circle opacity="0.1" fill="#26CAD3" cx="96.028" cy="72.287" r="2.163"/>
	<circle opacity="0.1" fill="#26CAD3" cx="96.028" cy="61.316" r="2.163"/>
	<circle fill="#26CAD3" cx="89.218" cy="132.626" r="2.163"/>
	<circle fill="#26CAD3" cx="89.218" cy="127.14" r="2.163"/>
	<circle opacity="0.8" fill="#26CAD3" cx="89.218" cy="121.655" r="2.163"/>
	<circle opacity="0.8" fill="#26CAD3" cx="89.218" cy="116.17" r="2.163"/>
	<circle opacity="0.6" fill="#26CAD3" cx="89.218" cy="110.684" r="2.163"/>
	<circle opacity="0.4" fill="#26CAD3" cx="89.218" cy="99.714" r="2.163"/>
	<circle fill="#26CAD3" cx="82.409" cy="132.626" r="2.163"/>
	<circle fill="#26CAD3" cx="82.409" cy="127.14" r="2.163"/>
	<circle opacity="0.8" fill="#26CAD3" cx="82.409" cy="121.655" r="2.163"/>
	<circle opacity="0.8" fill="#26CAD3" cx="82.409" cy="116.17" r="2.163"/>
	<circle opacity="0.6" fill="#26CAD3" cx="82.409" cy="110.684" r="2.163"/>
	<circle opacity="0.6" fill="#26CAD3" cx="82.409" cy="105.199" r="2.163"/>
	<circle opacity="0.4" fill="#26CAD3" cx="82.409" cy="94.228" r="2.163"/>
	<circle fill="#26CAD3" cx="75.6" cy="132.626" r="2.163"/>
	<circle fill="#26CAD3" cx="75.6" cy="127.14" r="2.163"/>
	<circle opacity="0.8" fill="#26CAD3" cx="75.6" cy="121.655" r="2.163"/>
	<circle opacity="0.8" fill="#26CAD3" cx="75.6" cy="116.17" r="2.163"/>
	<circle opacity="0.6" fill="#26CAD3" cx="75.6" cy="110.684" r="2.163"/>
	<circle opacity="0.6" fill="#26CAD3" cx="75.6" cy="105.199" r="2.163"/>
	<circle opacity="0.4" fill="#26CAD3" cx="75.6" cy="99.714" r="2.163"/>
	<circle opacity="0.4" fill="#26CAD3" cx="75.6" cy="94.228" r="2.163"/>
	<circle opacity="0.2" fill="#26CAD3" cx="75.6" cy="88.743" r="2.163"/>
	<circle opacity="0.2" fill="#26CAD3" cx="75.6" cy="83.258" r="2.163"/>
	<circle opacity="0.1" fill="#26CAD3" cx="75.6" cy="77.772" r="2.163"/>
	<circle opacity="0.1" fill="#26CAD3" cx="75.6" cy="72.287" r="2.163"/>
	<circle opacity="0.1" fill="#26CAD3" cx="75.6" cy="61.316" r="2.163"/>
	<circle fill="#26CAD3" cx="68.79" cy="132.626" r="2.163"/>
	<circle fill="#26CAD3" cx="68.79" cy="127.14" r="2.163"/>
	<circle opacity="0.8" fill="#26CAD3" cx="68.79" cy="121.655" r="2.163"/>
	<circle opacity="0.8" fill="#26CAD3" cx="68.79" cy="116.17" r="2.163"/>
	<circle opacity="0.6" fill="#26CAD3" cx="68.79" cy="110.684" r="2.163"/>
	<circle opacity="0.6" fill="#26CAD3" cx="68.79" cy="105.199" r="2.163"/>
	<circle opacity="0.4" fill="#26CAD3" cx="68.79" cy="99.714" r="2.163"/>
	<circle opacity="0.4" fill="#26CAD3" cx="68.79" cy="94.228" r="2.163"/>
	<circle opacity="0.2" fill="#26CAD3" cx="68.79" cy="88.743" r="2.163"/>
	<circle fill="#26CAD3" cx="61.981" cy="132.626" r="2.163"/>
	<circle fill="#26CAD3" cx="61.981" cy="127.14" r="2.163"/>
	<circle opacity="0.8" fill="#26CAD3" cx="61.981" cy="121.655" r="2.163"/>
	<circle opacity="0.6" fill="#26CAD3" cx="61.981" cy="110.684" r="2.163"/>
	<circle fill="#26CAD3" cx="55.171" cy="132.626" r="2.163"/>
	<circle fill="#26CAD3" cx="55.171" cy="127.14" r="2.163"/>
	<circle opacity="0.8" fill="#26CAD3" cx="55.171" cy="121.655" r="2.163"/>
	<circle opacity="0.8" fill="#26CAD3" cx="55.171" cy="116.17" r="2.163"/>
	<circle opacity="0.6" fill="#26CAD3" cx="55.171" cy="110.684" r="2.163"/>
	<circle opacity="0.6" fill="#26CAD3" cx="55.171" cy="105.199" r="2.163"/>
	<circle opacity="0.4" fill="#26CAD3" cx="55.171" cy="99.714" r="2.163"/>
	<circle opacity="0.4" fill="#26CAD3" cx="55.171" cy="94.228" r="2.163"/>
	<circle opacity="0.2" fill="#26CAD3" cx="55.171" cy="88.743" r="2.163"/>
	<circle opacity="0.2" fill="#26CAD3" cx="55.171" cy="83.258" r="2.163"/>
	<circle opacity="0.1" fill="#26CAD3" cx="55.171" cy="72.287" r="2.163"/>
	<circle fill="#26CAD3" cx="48.362" cy="132.626" r="2.163"/>
	<circle fill="#26CAD3" cx="48.362" cy="127.14" r="2.163"/>
	<circle opacity="0.8" fill="#26CAD3" cx="48.362" cy="121.655" r="2.163"/>
	<circle opacity="0.8" fill="#26CAD3" cx="48.362" cy="116.17" r="2.163"/>
	<circle opacity="0.6" fill="#26CAD3" cx="48.362" cy="110.684" r="2.163"/>
	<circle opacity="0.6" fill="#26CAD3" cx="48.362" cy="105.199" r="2.163"/>
	<circle opacity="0.4" fill="#26CAD3" cx="48.362" cy="99.714" r="2.163"/>
	<circle opacity="0.2" fill="#26CAD3" cx="48.362" cy="88.743" r="2.163"/>
	<circle fill="#26CAD3" cx="41.553" cy="132.626" r="2.163"/>
	<circle fill="#26CAD3" cx="41.553" cy="127.14" r="2.163"/>
	<circle opacity="0.8" fill="#26CAD3" cx="41.553" cy="121.655" r="2.163"/>
	<circle opacity="0.8" fill="#26CAD3" cx="41.553" cy="116.17" r="2.163"/>
	<circle opacity="0.6" fill="#26CAD3" cx="41.553" cy="110.684" r="2.163"/>
	<circle opacity="0.4" fill="#26CAD3" cx="41.553" cy="99.714" r="2.163"/>
</g>
<g>
	<path fill="#F1F1F1" d="M142.807,117.003l-37.787,21.816c-1.912,1.104-1.912,3.863,0,4.966l37.787,21.817
		c2.267,1.309,5.06,1.309,7.327,0l37.78-21.812c1.911-1.104,1.912-3.862,0-4.966l-37.78-21.82
		C147.868,115.694,145.074,115.694,142.807,117.003z"/>
	<path fill="none" stroke="#26CAD3" stroke-width="1.5" stroke-miterlimit="10" d="M181.723,113.192v-8.414
		c0.082-0.456,0.032-0.931-0.152-1.361c-0.008-0.02-0.019-0.039-0.028-0.059c-0.037-0.08-0.078-0.158-0.124-0.234
		c-0.018-0.029-0.036-0.058-0.055-0.086c-0.044-0.065-0.091-0.128-0.142-0.189c-0.025-0.03-0.049-0.06-0.076-0.089
		c-0.055-0.059-0.114-0.115-0.176-0.169c-0.028-0.025-0.054-0.051-0.083-0.074c-0.092-0.074-0.19-0.143-0.297-0.205
		c-0.001-0.001-0.003-0.002-0.004-0.003l-31.099-17.962c-0.7-0.404-1.461-0.657-2.237-0.758c-0.259-0.034-0.519-0.051-0.779-0.051
		c-0.016,0-0.032,0.003-0.047,0.003c-1.026,0.008-2.05,0.274-2.969,0.805l-5.101,2.945l-26.004,15.013
		c-0.108,0.063-0.208,0.133-0.301,0.208c-0.029,0.023-0.054,0.048-0.081,0.072c-0.063,0.055-0.123,0.111-0.178,0.171
		c-0.026,0.029-0.05,0.058-0.075,0.088c-0.051,0.062-0.099,0.125-0.143,0.19c-0.019,0.028-0.038,0.057-0.055,0.085
		c-0.046,0.076-0.088,0.154-0.124,0.234c-0.009,0.02-0.019,0.039-0.028,0.059c-0.184,0.43-0.234,0.905-0.152,1.361v8.416
		c-0.049,0.271-0.045,0.548,0,0.819v20.751c-0.166,0.924,0.21,1.932,1.138,2.468l31.105,17.959c1.866,1.077,4.166,1.077,6.032,0
		l31.099-17.955c0.928-0.536,1.304-1.544,1.138-2.468v-20.75C181.768,113.741,181.772,113.463,181.723,113.192z"/>
	<path fill="#FFFFFF" stroke="#26CAD3" stroke-width="1.5" stroke-miterlimit="10" d="M181.723,134.763V104.35h-70.511v30.41
		c-0.166,0.924,0.21,1.932,1.138,2.468l31.105,17.959c1.866,1.077,4.166,1.077,6.032,0l31.099-17.955
		C181.513,136.696,181.889,135.687,181.723,134.763z"/>
	<path fill="#FFFFFF" stroke="#26CAD3" stroke-miterlimit="10" d="M181.723,104.778c0.166-0.924-0.21-1.933-1.137-2.468
		l-31.099-17.962c-1.866-1.078-4.166-1.078-6.032-0.001l-31.105,17.958c-0.928,0.536-1.304,1.544-1.138,2.468v8.415
		c-0.166,0.924,0.21,1.933,1.138,2.468l31.105,17.959c1.866,1.077,4.166,1.077,6.032,0l31.099-17.955
		c0.928-0.536,1.304-1.544,1.138-2.469V104.778z"/>
	<path fill="#FFFFFF" stroke="#26CAD3" stroke-miterlimit="10" d="M113.861,116.525v10.398c0,1.683,1.377,3.855,3.06,4.826
		l23.838,13.763c1.683,0.972,3.06,0.39,3.06-1.293v-10.398L113.861,116.525z"/>
	<g>
		<path fill="#FFFFFF" stroke="#26CAD3" stroke-miterlimit="10" d="M139.298,142.472L139.298,142.472
			c-1.216-0.514-2.21-1.929-2.21-3.144v-5.22c0-1.216,0.995-1.79,2.21-1.276h0c1.216,0.514,2.21,1.929,2.21,3.144v5.22
			C141.508,142.412,140.513,142.986,139.298,142.472z"/>
		<path fill="#FFFFFF" stroke="#26CAD3" stroke-miterlimit="10" d="M118.381,130.424L118.381,130.424
			c-1.216-0.514-2.21-1.929-2.21-3.144v-5.22c0-1.216,0.995-1.79,2.21-1.276h0c1.216,0.514,2.21,1.929,2.21,3.144v5.22
			C120.591,130.363,119.597,130.937,118.381,130.424z"/>
	</g>
	<g>
		<path fill="#26CAD3" d="M134.117,134.047c0,0.395-0.32,0.598-0.715,0.454s-0.715-0.58-0.715-0.975s0.32-0.598,0.715-0.454
			S134.117,133.652,134.117,134.047z"/>
		<path fill="#26CAD3" d="M131.836,132.648c0,0.395-0.32,0.598-0.715,0.454s-0.715-0.58-0.715-0.975s0.32-0.598,0.715-0.454
			S131.836,132.254,131.836,132.648z"/>
		<path fill="#26CAD3" d="M129.554,131.25c0,0.395-0.32,0.598-0.715,0.454s-0.715-0.58-0.715-0.975c0-0.395,0.32-0.598,0.715-0.454
			S129.554,130.855,129.554,131.25z"/>
		<path fill="#26CAD3" d="M127.272,129.852c0,0.395-0.32,0.598-0.715,0.454s-0.715-0.58-0.715-0.975s0.32-0.598,0.715-0.454
			S127.272,129.457,127.272,129.852z"/>
		<path fill="#26CAD3" d="M124.991,128.453c0,0.395-0.32,0.598-0.715,0.454s-0.715-0.58-0.715-0.975s0.32-0.598,0.715-0.454
			S124.991,128.058,124.991,128.453z"/>
		<path fill="#26CAD3" d="M131.836,135.126c0,0.395-0.32,0.598-0.715,0.454c-0.395-0.144-0.715-0.58-0.715-0.975
			s0.32-0.598,0.715-0.454S131.836,134.732,131.836,135.126z"/>
		<path fill="#26CAD3" d="M129.554,133.728c0,0.395-0.32,0.598-0.715,0.454s-0.715-0.58-0.715-0.975s0.32-0.598,0.715-0.454
			S129.554,133.333,129.554,133.728z"/>
		<path fill="#26CAD3" d="M127.272,132.329c0,0.395-0.32,0.598-0.715,0.454s-0.715-0.58-0.715-0.975s0.32-0.598,0.715-0.454
			S127.272,131.935,127.272,132.329z"/>
	</g>
	<path fill="#FFFFFF" stroke="#26CAD3" stroke-miterlimit="10" d="M179.074,116.525v10.398c0,1.683-1.377,3.855-3.06,4.826
		l-23.838,13.763c-1.683,0.972-3.06,0.39-3.06-1.293v-10.398L179.074,116.525z"/>
	<g>
		<path fill="#FFFFFF" stroke="#26CAD3" stroke-miterlimit="10" d="M153.637,142.472L153.637,142.472
			c1.216-0.514,2.21-1.929,2.21-3.144v-5.22c0-1.216-0.995-1.79-2.21-1.276h0c-1.216,0.514-2.21,1.929-2.21,3.144v5.22
			C151.426,142.412,152.421,142.986,153.637,142.472z"/>
		<path fill="#FFFFFF" stroke="#26CAD3" stroke-miterlimit="10" d="M174.553,130.424L174.553,130.424
			c1.216-0.514,2.21-1.929,2.21-3.144v-5.22c0-1.216-0.995-1.79-2.21-1.276h0c-1.216,0.514-2.21,1.929-2.21,3.144v5.22
			C172.343,130.363,173.338,130.937,174.553,130.424z"/>
	</g>
	<g>
		<path fill="#26CAD3" d="M158.817,134.047c0,0.395,0.32,0.598,0.715,0.454s0.715-0.58,0.715-0.975s-0.32-0.598-0.715-0.454
			S158.817,133.652,158.817,134.047z"/>
		<path fill="#26CAD3" d="M161.099,132.648c0,0.395,0.32,0.598,0.715,0.454c0.395-0.144,0.715-0.58,0.715-0.975
			s-0.32-0.598-0.715-0.454C161.419,131.817,161.099,132.254,161.099,132.648z"/>
		<path fill="#26CAD3" d="M163.38,131.25c0,0.395,0.32,0.598,0.715,0.454s0.715-0.58,0.715-0.975c0-0.395-0.32-0.598-0.715-0.454
			S163.38,130.855,163.38,131.25z"/>
		<path fill="#26CAD3" d="M165.662,129.852c0,0.395,0.32,0.598,0.715,0.454s0.715-0.58,0.715-0.975s-0.32-0.598-0.715-0.454
			S165.662,129.457,165.662,129.852z"/>
		<path fill="#26CAD3" d="M167.944,128.453c0,0.395,0.32,0.598,0.715,0.454s0.715-0.58,0.715-0.975s-0.32-0.598-0.715-0.454
			S167.944,128.058,167.944,128.453z"/>
		<path fill="#26CAD3" d="M161.099,135.126c0,0.395,0.32,0.598,0.715,0.454c0.395-0.144,0.715-0.58,0.715-0.975
			s-0.32-0.598-0.715-0.454C161.419,134.295,161.099,134.732,161.099,135.126z"/>
		<path fill="#26CAD3" d="M163.38,133.728c0,0.395,0.32,0.598,0.715,0.454s0.715-0.58,0.715-0.975s-0.32-0.598-0.715-0.454
			S163.38,133.333,163.38,133.728z"/>
		<path fill="#26CAD3" d="M165.662,132.329c0,0.395,0.32,0.598,0.715,0.454s0.715-0.58,0.715-0.975s-0.32-0.598-0.715-0.454
			S165.662,131.935,165.662,132.329z"/>
	</g>
	<path fill="#FFFFFF" stroke="#26CAD3" stroke-miterlimit="10" d="M143.454,84.347l-31.105,17.958c-1.574,0.908-1.574,3.18,0,4.088
		l31.105,17.959c1.866,1.077,4.165,1.077,6.032,0l31.099-17.955c1.573-0.908,1.574-3.179,0-4.088l-31.099-17.962
		C147.62,83.27,145.321,83.27,143.454,84.347z"/>
	<ellipse fill="#26CAD3" cx="172.348" cy="104.114" rx="1.901" ry="0.866"/>
	<g>
		<path fill="#FFFFFF" stroke="#26CAD3" stroke-linecap="round" stroke-linejoin="round" stroke-miterlimit="10" d="M159.092,104.84
			l0.001,0l-0.028-0.016c-0.004-0.002-0.008-0.004-0.011-0.007l-10.49-5.997l-0.002,0.001c-1.663-1.093-4.433-1.811-7.574-1.811
			c-5.089,0-9.214,1.88-9.214,4.2c0,0.861,0.571,1.661,1.546,2.327l-0.002,0.001l0.012,0.007c0.253,0.172,0.539,0.332,0.843,0.484
			l10.559,6.068c0.053,0.03,0.103,0.061,0.158,0.091l0.026,0.015l0.002-0.001c1.69,0.91,4.211,1.489,7.032,1.489
			c5.089,0,9.214-1.88,9.214-4.2C161.161,106.485,160.384,105.563,159.092,104.84z"/>
		
			<path fill="#FFFFFF" stroke="#26CAD3" stroke-width="0.5" stroke-linecap="round" stroke-linejoin="round" stroke-miterlimit="10" d="
			M153.424,110.848L153.424,110.848l-0.005-0.003l0,0c-0.164-0.092-0.262-0.209-0.262-0.336c0-0.294,0.523-0.532,1.168-0.532
			c0.358,0,0.677,0.073,0.891,0.189l0,0l0.003,0.002c0.007,0.004,0.013,0.008,0.02,0.011l1.522,0.887
			c0.58-0.163,1.12-0.351,1.605-0.567l-2.079-1.21l-0.001-0.001l-0.004-0.002l0,0c-0.164-0.092-0.262-0.209-0.262-0.336
			c0-0.294,0.523-0.532,1.168-0.532c0.358,0,0.677,0.073,0.891,0.189l0,0l0.003,0.002c0.007,0.004,0.013,0.008,0.02,0.011
			l1.749,1.02c0.826-0.629,1.309-1.363,1.309-2.15c0-1.005-0.777-1.927-2.07-2.65l0.001,0l-0.028-0.016
			c-0.004-0.002-0.008-0.004-0.011-0.007l-1.518-0.868l-2.556,1.49c-0.007,0.004-0.013,0.008-0.02,0.011l-0.003,0.002l0,0
			c-0.214,0.115-0.534,0.189-0.891,0.189c-0.645,0-1.168-0.238-1.168-0.532c0-0.127,0.098-0.244,0.262-0.336l0,0l0.004-0.002
			l0.001-0.001l2.878-1.675l-1.281-0.732l-2.57,1.498c-0.007,0.004-0.013,0.008-0.02,0.011l-0.003,0.002l0,0
			c-0.214,0.115-0.534,0.189-0.891,0.189c-0.645,0-1.168-0.238-1.168-0.532c0-0.127,0.098-0.244,0.262-0.336l0,0l0.004-0.002
			l0.001-0.001l2.892-1.683l-1.281-0.732l-2.584,1.506c-0.007,0.004-0.013,0.008-0.02,0.011l-0.003,0.002l0,0
			c-0.214,0.115-0.534,0.189-0.891,0.189c-0.645,0-1.168-0.238-1.168-0.532c0-0.127,0.098-0.244,0.262-0.336l0,0l0.004-0.002
			l0.001-0.001l2.906-1.691l-1.281-0.732l-2.598,1.515c-0.007,0.004-0.013,0.008-0.02,0.011l-0.003,0.002l0,0
			c-0.214,0.115-0.534,0.189-0.891,0.189c-0.645,0-1.168-0.238-1.168-0.532c0-0.127,0.098-0.244,0.262-0.336l0,0l0.004-0.002
			l0.001-0.001l2.906-1.691c-1.681-0.819-4.062-1.336-6.718-1.336c-1.014,0-1.986,0.077-2.898,0.215l1.11,0.646l0.001,0.001
			l0.004,0.002l0,0c0.164,0.092,0.262,0.209,0.262,0.336c0,0.294-0.523,0.532-1.168,0.532c-0.358,0-0.677-0.073-0.891-0.189l0,0
			l-0.003-0.002c-0.007-0.004-0.013-0.008-0.02-0.011l-1.444-0.842c-0.569,0.17-1.093,0.368-1.565,0.59l1.961,1.141l0.001,0.001
			l0.004,0.002l0,0c0.164,0.092,0.262,0.209,0.262,0.336c0,0.294-0.523,0.532-1.168,0.532c-0.358,0-0.677-0.073-0.891-0.189l0,0
			l-0.003-0.002c-0.007-0.004-0.013-0.008-0.02-0.011l-1.588-0.926c-0.736,0.603-1.158,1.297-1.158,2.037
			c0,0.861,0.571,1.661,1.546,2.327l-0.002,0.001l0.012,0.007c0.253,0.172,0.539,0.332,0.843,0.484l1.242,0.714l2.542-1.482
			c0.007-0.004,0.013-0.008,0.02-0.011l0.003-0.002l0,0c0.214-0.115,0.534-0.189,0.891-0.189c0.645,0,1.168,0.238,1.168,0.532
			c0,0.127-0.099,0.244-0.262,0.336l0,0l-0.004,0.002c-0.001,0-0.001,0.001-0.001,0.001l-2.868,1.669l1.277,0.734l2.563-1.494
			c0.007-0.004,0.013-0.008,0.02-0.011l0.003-0.002l0,0c0.214-0.115,0.534-0.189,0.891-0.189c0.645,0,1.168,0.238,1.168,0.532
			c0,0.127-0.099,0.244-0.262,0.336l0,0l-0.004,0.002l-0.001,0.001l-2.889,1.681l1.277,0.734l2.584-1.506
			c0.007-0.004,0.013-0.008,0.02-0.011l0.003-0.002l0,0c0.214-0.115,0.534-0.189,0.891-0.189c0.645,0,1.168,0.238,1.168,0.532
			c0,0.127-0.099,0.244-0.262,0.336l0,0l-0.004,0.002l-0.001,0.001l-2.91,1.694l1.277,0.734l2.605-1.519
			c0.007-0.004,0.013-0.008,0.02-0.011l0.003-0.002l0,0c0.214-0.115,0.534-0.189,0.891-0.189c0.645,0,1.168,0.238,1.168,0.532
			c0,0.127-0.099,0.244-0.262,0.336l0,0l-0.004,0.002l-0.001,0.001l-2.905,1.691c1.681,0.819,4.061,1.336,6.717,1.336
			c0.912,0,1.791-0.063,2.623-0.175L153.424,110.848z"/>
	</g>
</g>
</svg>
