<svg id="레이어_1" data-name="레이어 1" xmlns="http://www.w3.org/2000/svg" width="210" height="210" viewBox="0 0 210 210"><defs><style>.cls-1,.cls-2,.cls-5,.cls-7,.cls-8{fill:#fff;}.cls-1{fill-opacity:0;}.cls-2,.cls-4,.cls-5,.cls-7,.cls-8{stroke:#26cad3;}.cls-2,.cls-4,.cls-5{stroke-miterlimit:10;}.cls-3{fill:#f1f1f1;}.cls-4{fill:none;}.cls-4,.cls-5{stroke-width:1.5px;}.cls-6{fill:#26cad3;}.cls-7,.cls-8{stroke-linecap:round;stroke-linejoin:round;}.cls-8{stroke-width:0.5px;}</style></defs><title>helpMic</title><rect class="cls-1" width="210" height="210"/><path class="cls-2" d="M65.73,132h0a5.29,5.29,0,0,1-3.09-4.4v-7.3c0-1.7,1.39-2.5,3.09-1.78h0a5.29,5.29,0,0,1,3.09,4.4v7.3C68.85,131.88,67.43,132.68,65.73,132Z"/><path class="cls-3" d="M99.85,113.2L47,143.7a4,4,0,0,0,0,6.94l52.82,30.5a10.24,10.24,0,0,0,10.24,0l52.81-30.49a4,4,0,0,0,0-6.94l-52.81-30.5A10.24,10.24,0,0,0,99.85,113.2Z"/><path class="cls-4" d="M154.25,107.87V96.11a3.34,3.34,0,0,0-.21-1.9l0-.08a3.23,3.23,0,0,0-.17-0.33l-0.08-.12-0.2-.26-0.11-.12-0.25-.24-0.12-.1a3.39,3.39,0,0,0-.41-0.29h0L109.19,67.55A8.43,8.43,0,0,0,105,66.42H104.9a8.42,8.42,0,0,0-4.15,1.13l-7.13,4.12-36.35,21a3.39,3.39,0,0,0-.42.29l-0.11.1-0.25.24-0.11.12-0.2.27-0.08.12a3.23,3.23,0,0,0-.17.33l0,0.08a3.34,3.34,0,0,0-.21,1.9v11.77a3.37,3.37,0,0,0,0,1.14v29a3.28,3.28,0,0,0,1.59,3.45l43.48,25.1a8.43,8.43,0,0,0,8.43,0l43.47-25.1a3.28,3.28,0,0,0,1.59-3.45V109A3.37,3.37,0,0,0,154.25,107.87Z"/><path class="cls-5" d="M154.25,138V95.51H55.68V138a3.28,3.28,0,0,0,1.59,3.45l43.48,25.1a8.43,8.43,0,0,0,8.43,0l43.47-25.1A3.28,3.28,0,0,0,154.25,138Z"/><path class="cls-2" d="M154.25,96.11a3.28,3.28,0,0,0-1.59-3.45L109.19,67.55a8.43,8.43,0,0,0-8.43,0L57.27,92.66a3.28,3.28,0,0,0-1.59,3.45v11.76a3.28,3.28,0,0,0,1.59,3.45l43.48,25.1a8.43,8.43,0,0,0,8.43,0l43.47-25.1a3.28,3.28,0,0,0,1.59-3.45V96.11Z"/><path class="cls-2" d="M59.38,112.53v14.54c0,2.35,1.93,5.39,4.28,6.75L97,153.05c2.35,1.36,4.28.54,4.28-1.81V136.71Z"/><path class="cls-2" d="M94.94,148.81h0a5.29,5.29,0,0,1-3.09-4.4v-7.3c0-1.7,1.39-2.5,3.09-1.78h0a5.29,5.29,0,0,1,3.09,4.4V147C98,148.72,96.64,149.52,94.94,148.81Z"/><path class="cls-2" d="M65.7,132h0a5.29,5.29,0,0,1-3.09-4.4v-7.3c0-1.7,1.39-2.5,3.09-1.78h0a5.29,5.29,0,0,1,3.09,4.4v7.3C68.79,131.88,67.4,132.68,65.7,132Z"/><path class="cls-6" d="M87.7,137a0.68,0.68,0,0,1-1,.64,1.58,1.58,0,0,1-1-1.36,0.68,0.68,0,0,1,1-.64A1.58,1.58,0,0,1,87.7,137Z"/><path class="cls-6" d="M84.51,135.07a0.68,0.68,0,0,1-1,.64,1.58,1.58,0,0,1-1-1.36,0.68,0.68,0,0,1,1-.64A1.58,1.58,0,0,1,84.51,135.07Z"/><path class="cls-6" d="M81.32,133.12a0.68,0.68,0,0,1-1,.64,1.58,1.58,0,0,1-1-1.36,0.68,0.68,0,0,1,1-.64A1.58,1.58,0,0,1,81.32,133.12Z"/><path class="cls-6" d="M78.13,131.16a0.68,0.68,0,0,1-1,.64,1.58,1.58,0,0,1-1-1.36,0.68,0.68,0,0,1,1-.64A1.58,1.58,0,0,1,78.13,131.16Z"/><path class="cls-6" d="M74.94,129.21a0.68,0.68,0,0,1-1,.64,1.58,1.58,0,0,1-1-1.36,0.68,0.68,0,0,1,1-.64A1.58,1.58,0,0,1,74.94,129.21Z"/><path class="cls-6" d="M84.51,138.54a0.68,0.68,0,0,1-1,.64,1.58,1.58,0,0,1-1-1.36,0.68,0.68,0,0,1,1-.64A1.58,1.58,0,0,1,84.51,138.54Z"/><path class="cls-6" d="M81.32,136.58a0.68,0.68,0,0,1-1,.64,1.58,1.58,0,0,1-1-1.36,0.68,0.68,0,0,1,1-.64A1.58,1.58,0,0,1,81.32,136.58Z"/><path class="cls-6" d="M78.13,134.63a0.68,0.68,0,0,1-1,.64,1.58,1.58,0,0,1-1-1.36,0.68,0.68,0,0,1,1-.64A1.58,1.58,0,0,1,78.13,134.63Z"/><path class="cls-2" d="M150.55,112.53v14.54c0,2.35-1.93,5.39-4.28,6.75l-33.32,19.24c-2.35,1.36-4.28.54-4.28-1.81V136.71Z"/><path class="cls-2" d="M115,148.81h0a5.29,5.29,0,0,0,3.09-4.4v-7.3c0-1.7-1.39-2.5-3.09-1.78h0a5.29,5.29,0,0,0-3.09,4.4V147C111.9,148.72,113.29,149.52,115,148.81Z"/><path class="cls-2" d="M144.23,132h0a5.29,5.29,0,0,0,3.09-4.4v-7.3c0-1.7-1.39-2.5-3.09-1.78h0a5.29,5.29,0,0,0-3.09,4.4v7.3C141.14,131.88,142.53,132.68,144.23,132Z"/><path class="cls-6" d="M122.23,137a0.68,0.68,0,0,0,1,.64,1.58,1.58,0,0,0,1-1.36,0.68,0.68,0,0,0-1-.64A1.58,1.58,0,0,0,122.23,137Z"/><path class="cls-6" d="M125.42,135.07a0.68,0.68,0,0,0,1,.64,1.58,1.58,0,0,0,1-1.36,0.68,0.68,0,0,0-1-.64A1.58,1.58,0,0,0,125.42,135.07Z"/><path class="cls-6" d="M128.61,133.12a0.68,0.68,0,0,0,1,.64,1.58,1.58,0,0,0,1-1.36,0.68,0.68,0,0,0-1-.64A1.58,1.58,0,0,0,128.61,133.12Z"/><path class="cls-6" d="M131.8,131.16a0.68,0.68,0,0,0,1,.64,1.58,1.58,0,0,0,1-1.36,0.68,0.68,0,0,0-1-.64A1.58,1.58,0,0,0,131.8,131.16Z"/><path class="cls-6" d="M135,129.21a0.68,0.68,0,0,0,1,.64,1.58,1.58,0,0,0,1-1.36,0.68,0.68,0,0,0-1-.64A1.58,1.58,0,0,0,135,129.21Z"/><path class="cls-6" d="M125.42,138.54a0.68,0.68,0,0,0,1,.64,1.58,1.58,0,0,0,1-1.36,0.68,0.68,0,0,0-1-.64A1.58,1.58,0,0,0,125.42,138.54Z"/><path class="cls-6" d="M128.61,136.58a0.68,0.68,0,0,0,1,.64,1.58,1.58,0,0,0,1-1.36,0.68,0.68,0,0,0-1-.64A1.58,1.58,0,0,0,128.61,136.58Z"/><path class="cls-6" d="M131.8,134.63a0.68,0.68,0,0,0,1,.64,1.58,1.58,0,0,0,1-1.36,0.68,0.68,0,0,0-1-.64A1.58,1.58,0,0,0,131.8,134.63Z"/><path class="cls-2" d="M100.75,67.55L57.27,92.66a3.3,3.3,0,0,0,0,5.71l43.48,25.1a8.43,8.43,0,0,0,8.43,0l43.47-25.1a3.3,3.3,0,0,0,0-5.71L109.19,67.55A8.43,8.43,0,0,0,100.75,67.55Z"/><ellipse class="cls-6" cx="141.15" cy="95.18" rx="2.66" ry="1.21"/><path class="cls-7" d="M122.61,96.2h0l0,0h0L107.9,87.78h0c-2.33-1.53-6.2-2.53-10.59-2.53-7.11,0-12.88,2.63-12.88,5.87a4.16,4.16,0,0,0,2.16,3.25h0a10.42,10.42,0,0,0,1.18.68l14.76,8.48,0.22,0.13,0,0h0a21.52,21.52,0,0,0,9.83,2.08c7.11,0,12.88-2.63,12.88-5.87C125.51,98.5,124.42,97.21,122.61,96.2Z"/><path class="cls-8" d="M114.69,104.6h0a0.59,0.59,0,0,1-.37-0.47c0-.41.73-0.74,1.63-0.74a2.73,2.73,0,0,1,1.25.26h0l0,0,2.13,1.24a16.66,16.66,0,0,0,2.24-.79l-2.91-1.69h0a0.59,0.59,0,0,1-.37-0.47c0-.41.73-0.74,1.63-0.74a2.73,2.73,0,0,1,1.25.26h0l0,0,2.45,1.43a3.93,3.93,0,0,0,1.83-3c0-1.41-1.09-2.69-2.89-3.71h0l0,0h0L120.44,95,116.87,97l0,0h0a2.73,2.73,0,0,1-1.25.26c-0.9,0-1.63-.33-1.63-0.74a0.59,0.59,0,0,1,.37-0.47h0l4-2.34-1.79-1L113,94.83l0,0h0a2.73,2.73,0,0,1-1.25.26c-0.9,0-1.63-.33-1.63-0.74a0.59,0.59,0,0,1,.37-0.47h0l4-2.35-1.79-1-3.61,2.11,0,0h0a2.73,2.73,0,0,1-1.25.26c-0.9,0-1.63-.33-1.63-0.74a0.59,0.59,0,0,1,.37-0.47h0l4.06-2.36-1.79-1-3.63,2.12,0,0h0a2.73,2.73,0,0,1-1.25.26c-0.9,0-1.63-.33-1.63-0.74a0.59,0.59,0,0,1,.37-0.47h0l4.06-2.36a22.1,22.1,0,0,0-9.39-1.87,27.18,27.18,0,0,0-4.05.3l1.55,0.9h0a0.59,0.59,0,0,1,.37.47c0,0.41-.73.74-1.63,0.74a2.73,2.73,0,0,1-1.25-.26h0l0,0-2-1.18a15.8,15.8,0,0,0-2.19.83l2.74,1.59h0a0.59,0.59,0,0,1,.37.47c0,0.41-.73.74-1.63,0.74a2.73,2.73,0,0,1-1.25-.26h0l0,0L86,88.28a3.78,3.78,0,0,0-1.62,2.85,4.16,4.16,0,0,0,2.16,3.25h0a10.42,10.42,0,0,0,1.18.68l1.74,1L93.07,94l0,0h0a2.73,2.73,0,0,1,1.25-.26c0.9,0,1.63.33,1.63,0.74a0.59,0.59,0,0,1-.37.47h0l-4,2.33,1.79,1L97,96.2l0,0h0a2.73,2.73,0,0,1,1.25-.26c0.9,0,1.63.33,1.63,0.74a0.59,0.59,0,0,1-.37.47h0l-4,2.35,1.79,1,3.61-2.11,0,0h0a2.73,2.73,0,0,1,1.25-.26c0.9,0,1.63.33,1.63,0.74a0.59,0.59,0,0,1-.37.47h0l-4.07,2.37,1.79,1,3.64-2.12,0,0h0a2.73,2.73,0,0,1,1.25-.26c0.9,0,1.63.33,1.63,0.74a0.59,0.59,0,0,1-.37.47h0l-4.06,2.36a22.09,22.09,0,0,0,9.39,1.87,27.4,27.4,0,0,0,3.67-.24Z"/></svg>