<svg id="레이어_1" data-name="레이어 1" xmlns="http://www.w3.org/2000/svg" width="210" height="210" viewBox="0 0 210 210"><defs><style>.cls-1{opacity:0.25;}.cls-10,.cls-2{fill:none;}.cls-10,.cls-2,.cls-3,.cls-4,.cls-6,.cls-7{stroke:#26cad3;}.cls-2,.cls-3,.cls-4,.cls-6,.cls-7,.cls-8{stroke-miterlimit:10;}.cls-2,.cls-3,.cls-8{stroke-width:1.5px;}.cls-11,.cls-3,.cls-4,.cls-6,.cls-7,.cls-8{fill:#fff;}.cls-5{fill:#26cad3;}.cls-6{stroke-width:0.8px;}.cls-10,.cls-7{stroke-linecap:round;}.cls-7{stroke-width:0.5px;}.cls-8{stroke:#fff;}.cls-9{opacity:0.45;}.cls-10{stroke-linejoin:round;stroke-width:2px;stroke-dasharray:3 5;}.cls-11{opacity:0;}</style></defs><title>helpGyroZ</title><g class="cls-1"><path class="cls-2" d="M137.29,134.34v-7.78a2.21,2.21,0,0,0-.14-1.26l0-.05A2.13,2.13,0,0,0,137,125l-0.05-.08-0.13-.18-0.07-.08-0.16-.16-0.08-.07a2.25,2.25,0,0,0-.27-0.19h0l-28.76-16.61a5.58,5.58,0,0,0-2.79-.75h0a5.57,5.57,0,0,0-2.75.74l-4.72,2.72L73.13,124.27a2.24,2.24,0,0,0-.28.19l-0.07.07-0.16.16-0.07.08-0.13.18-0.05.08a2.13,2.13,0,0,0-.12.22l0,0.05a2.21,2.21,0,0,0-.14,1.26v7.78a2.23,2.23,0,0,0,0,.76v19.19a2.17,2.17,0,0,0,1.05,2.28l28.77,16.61a5.58,5.58,0,0,0,5.58,0l28.76-16.61a2.17,2.17,0,0,0,1.05-2.28V135.1A2.23,2.23,0,0,0,137.29,134.34Z" transform="translate(0 -0.52)"/><path class="cls-3" d="M137.29,154.29V126.16H72.07v28.13a2.17,2.17,0,0,0,1.05,2.28l28.77,16.61a5.58,5.58,0,0,0,5.58,0l28.76-16.61A2.17,2.17,0,0,0,137.29,154.29Z" transform="translate(0 -0.52)"/><path class="cls-4" d="M137.29,126.56a2.17,2.17,0,0,0-1.05-2.28l-28.76-16.61a5.58,5.58,0,0,0-5.58,0L73.13,124.27a2.17,2.17,0,0,0-1.05,2.28v7.78a2.17,2.17,0,0,0,1.05,2.28l28.77,16.61a5.58,5.58,0,0,0,5.58,0l28.76-16.61a2.17,2.17,0,0,0,1.05-2.28v-7.78Z" transform="translate(0 -0.52)"/><path class="cls-4" d="M74.52,137.42V147a5.89,5.89,0,0,0,2.83,4.46l22,12.73c1.56,0.9,2.83.36,2.83-1.2v-9.62Z" transform="translate(0 -0.52)"/><path class="cls-4" d="M98,161.42h0a3.5,3.5,0,0,1-2-2.91v-4.83a1.32,1.32,0,0,1,2-1.18h0a3.5,3.5,0,0,1,2,2.91v4.83A1.32,1.32,0,0,1,98,161.42Z" transform="translate(0 -0.52)"/><path class="cls-4" d="M78.7,150.27h0a3.5,3.5,0,0,1-2-2.91v-4.83a1.32,1.32,0,0,1,2-1.18h0a3.5,3.5,0,0,1,2,2.91v4.83A1.32,1.32,0,0,1,78.7,150.27Z" transform="translate(0 -0.52)"/><path class="cls-5" d="M93.26,153.63a0.45,0.45,0,0,1-.66.42,1,1,0,0,1-.66-0.9,0.45,0.45,0,0,1,.66-0.42A1,1,0,0,1,93.26,153.63Z" transform="translate(0 -0.52)"/><path class="cls-5" d="M91.15,152.33a0.45,0.45,0,0,1-.66.42,1,1,0,0,1-.66-0.9,0.45,0.45,0,0,1,.66-0.42A1,1,0,0,1,91.15,152.33Z" transform="translate(0 -0.52)"/><path class="cls-5" d="M89,151a0.45,0.45,0,0,1-.66.42,1,1,0,0,1-.66-0.9,0.45,0.45,0,0,1,.66-0.42A1,1,0,0,1,89,151Z" transform="translate(0 -0.52)"/><path class="cls-5" d="M86.93,149.75a0.45,0.45,0,0,1-.66.42,1,1,0,0,1-.66-0.9,0.45,0.45,0,0,1,.66-0.42A1,1,0,0,1,86.93,149.75Z" transform="translate(0 -0.52)"/><path class="cls-5" d="M84.82,148.45a0.45,0.45,0,0,1-.66.42,1,1,0,0,1-.66-0.9,0.45,0.45,0,0,1,.66-0.42A1,1,0,0,1,84.82,148.45Z" transform="translate(0 -0.52)"/><path class="cls-5" d="M91.15,154.62a0.45,0.45,0,0,1-.66.42,1,1,0,0,1-.66-0.9,0.45,0.45,0,0,1,.66-0.42A1,1,0,0,1,91.15,154.62Z" transform="translate(0 -0.52)"/><path class="cls-5" d="M89,153.33a0.45,0.45,0,0,1-.66.42,1,1,0,0,1-.66-0.9,0.45,0.45,0,0,1,.66-0.42A1,1,0,0,1,89,153.33Z" transform="translate(0 -0.52)"/><path class="cls-5" d="M86.93,152a0.45,0.45,0,0,1-.66.42,1,1,0,0,1-.66-0.9,0.45,0.45,0,0,1,.66-0.42A1,1,0,0,1,86.93,152Z" transform="translate(0 -0.52)"/><path class="cls-4" d="M134.84,137.42V147A5.89,5.89,0,0,1,132,151.5l-22,12.73c-1.56.9-2.83,0.36-2.83-1.2v-9.62Z" transform="translate(0 -0.52)"/><path class="cls-4" d="M111.31,161.42h0a3.5,3.5,0,0,0,2-2.91v-4.83a1.32,1.32,0,0,0-2-1.18h0a3.5,3.5,0,0,0-2,2.91v4.83A1.32,1.32,0,0,0,111.31,161.42Z" transform="translate(0 -0.52)"/><path class="cls-4" d="M130.66,150.27h0a3.5,3.5,0,0,0,2-2.91v-4.83a1.32,1.32,0,0,0-2-1.18h0a3.5,3.5,0,0,0-2,2.91v4.83A1.32,1.32,0,0,0,130.66,150.27Z" transform="translate(0 -0.52)"/><path class="cls-5" d="M116.1,153.63a0.45,0.45,0,0,0,.66.42,1,1,0,0,0,.66-0.9,0.45,0.45,0,0,0-.66-0.42A1,1,0,0,0,116.1,153.63Z" transform="translate(0 -0.52)"/><path class="cls-5" d="M118.21,152.33a0.45,0.45,0,0,0,.66.42,1,1,0,0,0,.66-0.9,0.45,0.45,0,0,0-.66-0.42A1,1,0,0,0,118.21,152.33Z" transform="translate(0 -0.52)"/><path class="cls-5" d="M120.32,151a0.45,0.45,0,0,0,.66.42,1,1,0,0,0,.66-0.9,0.45,0.45,0,0,0-.66-0.42A1,1,0,0,0,120.32,151Z" transform="translate(0 -0.52)"/><path class="cls-5" d="M122.43,149.75a0.45,0.45,0,0,0,.66.42,1,1,0,0,0,.66-0.9,0.45,0.45,0,0,0-.66-0.42A1,1,0,0,0,122.43,149.75Z" transform="translate(0 -0.52)"/><path class="cls-5" d="M124.54,148.45a0.45,0.45,0,0,0,.66.42,1,1,0,0,0,.66-0.9,0.45,0.45,0,0,0-.66-0.42A1,1,0,0,0,124.54,148.45Z" transform="translate(0 -0.52)"/><path class="cls-5" d="M118.21,154.62a0.45,0.45,0,0,0,.66.42,1,1,0,0,0,.66-0.9,0.45,0.45,0,0,0-.66-0.42A1,1,0,0,0,118.21,154.62Z" transform="translate(0 -0.52)"/><path class="cls-5" d="M120.32,153.33a0.45,0.45,0,0,0,.66.42,1,1,0,0,0,.66-0.9,0.45,0.45,0,0,0-.66-0.42A1,1,0,0,0,120.32,153.33Z" transform="translate(0 -0.52)"/><path class="cls-5" d="M122.43,152a0.45,0.45,0,0,0,.66.42,1,1,0,0,0,.66-0.9,0.45,0.45,0,0,0-.66-0.42A1,1,0,0,0,122.43,152Z" transform="translate(0 -0.52)"/><path class="cls-4" d="M101.89,107.66L73.13,124.27a2.18,2.18,0,0,0,0,3.78l28.77,16.61a5.58,5.58,0,0,0,5.58,0l28.76-16.61a2.18,2.18,0,0,0,0-3.78l-28.76-16.61A5.58,5.58,0,0,0,101.89,107.66Z" transform="translate(0 -0.52)"/><ellipse class="cls-5" cx="128.62" cy="125.42" rx="1.76" ry="0.8"/><ellipse class="cls-6" cx="86.65" cy="121.27" rx="3.83" ry="1.75"/><path class="cls-5" d="M87.43,122.86a0.05,0.05,0,0,1,0,0l0,0-0.35.25-0.07,0a0.07,0.07,0,0,1,0-.05L86.36,122l-1.9-.13-0.08,0a0.08,0.08,0,0,1,0-.05l0.33-.24,0,0h0.05l1.36,0.1-0.39-.8a0,0,0,0,1,0,0l0,0,0.33-.24,0.08,0a0.06,0.06,0,0,1,0,0l0.53,1.12,2,0.15,0.1,0a0.06,0.06,0,0,1,0,0l-0.35.25,0,0H88.47L87,122Z" transform="translate(0 -0.52)"/><ellipse class="cls-6" cx="86.65" cy="129.26" rx="3.83" ry="1.75"/><path class="cls-5" d="M88.4,130.45a0.07,0.07,0,0,1,0,0,0.06,0.06,0,0,1,0,0l-0.29.21-0.06,0-0.07,0-1.08-.56L84.7,130l-0.08,0s0,0,0-.05l0.31-.23a0.16,0.16,0,0,1,.11,0l1.65,0.16-0.55-1a0,0,0,0,1,0-.07l0.33-.24a0.09,0.09,0,0,1,.08,0,0.1,0.1,0,0,1,0,.05l0.67,1.31Z" transform="translate(0 -0.52)"/><ellipse class="cls-6" cx="79.7" cy="125.27" rx="3.83" ry="1.75"/><path class="cls-5" d="M80.35,127a0.11,0.11,0,0,1-.13,0L80,126.87l0,0,0,0L79,125.18l-0.88.64-0.06,0-0.07,0-0.3-.15,0,0a0,0,0,0,1,0,0l1.31-1,0.06,0,0.06,0,0.28,0.15,0,0,0,0,0.86,1.64,1-.7,0.06,0,0.07,0,0.3,0.15,0,0a0,0,0,0,1,0,0Z" transform="translate(0 -0.52)"/><line class="cls-7" x1="82.03" y1="123.52" x2="83.33" y2="122.74"/><line class="cls-7" x1="82.72" y1="126.86" x2="84.07" y2="127.55"/></g><path class="cls-8" d="M137.28,116.78V109a2.21,2.21,0,0,0-.14-1.26l0-.05a2.13,2.13,0,0,0-.11-0.22l-0.05-.08-0.13-.18-0.07-.08-0.16-.16-0.08-.07a2.25,2.25,0,0,0-.27-0.19h0L107.47,90.11a5.58,5.58,0,0,0-2.79-.75h0a5.57,5.57,0,0,0-2.75.74l-4.72,2.72L73.12,106.72a2.24,2.24,0,0,0-.28.19l-0.07.07-0.16.16-0.07.08-0.13.18-0.05.08a2.13,2.13,0,0,0-.12.22l0,0.05a2.21,2.21,0,0,0-.14,1.26v7.78a2.23,2.23,0,0,0,0,.76v19.19A2.17,2.17,0,0,0,73.12,139l28.77,16.61a5.58,5.58,0,0,0,5.58,0L136.23,139a2.17,2.17,0,0,0,1.05-2.28V117.54A2.23,2.23,0,0,0,137.28,116.78Z" transform="translate(0 -0.52)"/><g class="cls-9"><path class="cls-2" d="M137.29,116.78V109a2.21,2.21,0,0,0-.14-1.26l0-.05a2.13,2.13,0,0,0-.11-0.22l-0.05-.08-0.13-.18-0.07-.08-0.16-.16-0.08-.07a2.25,2.25,0,0,0-.27-0.19h0L107.47,90.11a5.58,5.58,0,0,0-2.79-.75h0a5.57,5.57,0,0,0-2.75.74l-4.72,2.72L73.13,106.72a2.24,2.24,0,0,0-.28.19l-0.07.07-0.16.16-0.07.08-0.13.18-0.05.08a2.13,2.13,0,0,0-.12.22l0,0.05a2.21,2.21,0,0,0-.14,1.26v7.78a2.23,2.23,0,0,0,0,.76v19.19A2.17,2.17,0,0,0,73.13,139l28.77,16.61a5.58,5.58,0,0,0,5.58,0L136.23,139a2.17,2.17,0,0,0,1.05-2.28V117.54A2.23,2.23,0,0,0,137.29,116.78Z" transform="translate(0 -0.52)"/><path class="cls-3" d="M137.29,136.74V108.61H72.07v28.13A2.17,2.17,0,0,0,73.13,139l28.77,16.61a5.58,5.58,0,0,0,5.58,0L136.23,139A2.17,2.17,0,0,0,137.29,136.74Z" transform="translate(0 -0.52)"/><path class="cls-4" d="M137.29,109a2.17,2.17,0,0,0-1.05-2.28L107.47,90.11a5.58,5.58,0,0,0-5.58,0L73.13,106.72A2.17,2.17,0,0,0,72.07,109v7.78a2.17,2.17,0,0,0,1.05,2.28l28.77,16.61a5.58,5.58,0,0,0,5.58,0l28.76-16.61a2.17,2.17,0,0,0,1.05-2.28V109Z" transform="translate(0 -0.52)"/><path class="cls-4" d="M74.52,119.87v9.62a5.89,5.89,0,0,0,2.83,4.46l22,12.73c1.56,0.9,2.83.36,2.83-1.2v-9.62Z" transform="translate(0 -0.52)"/><path class="cls-4" d="M98,143.87h0A3.5,3.5,0,0,1,96,141v-4.83a1.32,1.32,0,0,1,2-1.18h0a3.5,3.5,0,0,1,2,2.91v4.83A1.32,1.32,0,0,1,98,143.87Z" transform="translate(0 -0.52)"/><path class="cls-4" d="M78.7,132.72h0a3.5,3.5,0,0,1-2-2.91V125a1.32,1.32,0,0,1,2-1.18h0a3.5,3.5,0,0,1,2,2.91v4.83A1.32,1.32,0,0,1,78.7,132.72Z" transform="translate(0 -0.52)"/><path class="cls-5" d="M93.26,136.07a0.45,0.45,0,0,1-.66.42,1,1,0,0,1-.66-0.9,0.45,0.45,0,0,1,.66-0.42A1,1,0,0,1,93.26,136.07Z" transform="translate(0 -0.52)"/><path class="cls-5" d="M91.15,134.78a0.45,0.45,0,0,1-.66.42,1,1,0,0,1-.66-0.9,0.45,0.45,0,0,1,.66-0.42A1,1,0,0,1,91.15,134.78Z" transform="translate(0 -0.52)"/><path class="cls-5" d="M89,133.49a0.45,0.45,0,0,1-.66.42,1,1,0,0,1-.66-0.9,0.45,0.45,0,0,1,.66-0.42A1,1,0,0,1,89,133.49Z" transform="translate(0 -0.52)"/><path class="cls-5" d="M86.93,132.19a0.45,0.45,0,0,1-.66.42,1,1,0,0,1-.66-0.9,0.45,0.45,0,0,1,.66-0.42A1,1,0,0,1,86.93,132.19Z" transform="translate(0 -0.52)"/><path class="cls-5" d="M84.82,130.9a0.45,0.45,0,0,1-.66.42,1,1,0,0,1-.66-0.9,0.45,0.45,0,0,1,.66-0.42A1,1,0,0,1,84.82,130.9Z" transform="translate(0 -0.52)"/><path class="cls-5" d="M91.15,137.07a0.45,0.45,0,0,1-.66.42,1,1,0,0,1-.66-0.9,0.45,0.45,0,0,1,.66-0.42A1,1,0,0,1,91.15,137.07Z" transform="translate(0 -0.52)"/><path class="cls-5" d="M89,135.78a0.45,0.45,0,0,1-.66.42,1,1,0,0,1-.66-0.9,0.45,0.45,0,0,1,.66-0.42A1,1,0,0,1,89,135.78Z" transform="translate(0 -0.52)"/><path class="cls-5" d="M86.93,134.48a0.45,0.45,0,0,1-.66.42,1,1,0,0,1-.66-0.9,0.45,0.45,0,0,1,.66-0.42A1,1,0,0,1,86.93,134.48Z" transform="translate(0 -0.52)"/><path class="cls-4" d="M134.84,119.87v9.62a5.89,5.89,0,0,1-2.83,4.46l-22,12.73c-1.56.9-2.83,0.36-2.83-1.2v-9.62Z" transform="translate(0 -0.52)"/><path class="cls-4" d="M111.31,143.87h0a3.5,3.5,0,0,0,2-2.91v-4.83a1.32,1.32,0,0,0-2-1.18h0a3.5,3.5,0,0,0-2,2.91v4.83A1.32,1.32,0,0,0,111.31,143.87Z" transform="translate(0 -0.52)"/><path class="cls-4" d="M130.66,132.72h0a3.5,3.5,0,0,0,2-2.91V125a1.32,1.32,0,0,0-2-1.18h0a3.5,3.5,0,0,0-2,2.91v4.83A1.32,1.32,0,0,0,130.66,132.72Z" transform="translate(0 -0.52)"/><path class="cls-5" d="M116.1,136.07a0.45,0.45,0,0,0,.66.42,1,1,0,0,0,.66-0.9,0.45,0.45,0,0,0-.66-0.42A1,1,0,0,0,116.1,136.07Z" transform="translate(0 -0.52)"/><path class="cls-5" d="M118.21,134.78a0.45,0.45,0,0,0,.66.42,1,1,0,0,0,.66-0.9,0.45,0.45,0,0,0-.66-0.42A1,1,0,0,0,118.21,134.78Z" transform="translate(0 -0.52)"/><path class="cls-5" d="M120.32,133.49a0.45,0.45,0,0,0,.66.42,1,1,0,0,0,.66-0.9,0.45,0.45,0,0,0-.66-0.42A1,1,0,0,0,120.32,133.49Z" transform="translate(0 -0.52)"/><path class="cls-5" d="M122.43,132.19a0.45,0.45,0,0,0,.66.42,1,1,0,0,0,.66-0.9,0.45,0.45,0,0,0-.66-0.42A1,1,0,0,0,122.43,132.19Z" transform="translate(0 -0.52)"/><path class="cls-5" d="M124.54,130.9a0.45,0.45,0,0,0,.66.42,1,1,0,0,0,.66-0.9,0.45,0.45,0,0,0-.66-0.42A1,1,0,0,0,124.54,130.9Z" transform="translate(0 -0.52)"/><path class="cls-5" d="M118.21,137.07a0.45,0.45,0,0,0,.66.42,1,1,0,0,0,.66-0.9,0.45,0.45,0,0,0-.66-0.42A1,1,0,0,0,118.21,137.07Z" transform="translate(0 -0.52)"/><path class="cls-5" d="M120.32,135.78a0.45,0.45,0,0,0,.66.42,1,1,0,0,0,.66-0.9,0.45,0.45,0,0,0-.66-0.42A1,1,0,0,0,120.32,135.78Z" transform="translate(0 -0.52)"/><path class="cls-5" d="M122.43,134.48a0.45,0.45,0,0,0,.66.42,1,1,0,0,0,.66-0.9,0.45,0.45,0,0,0-.66-0.42A1,1,0,0,0,122.43,134.48Z" transform="translate(0 -0.52)"/><path class="cls-4" d="M101.89,90.11L73.13,106.72a2.18,2.18,0,0,0,0,3.78l28.77,16.61a5.58,5.58,0,0,0,5.58,0l28.76-16.61a2.18,2.18,0,0,0,0-3.78L107.47,90.11A5.58,5.58,0,0,0,101.89,90.11Z" transform="translate(0 -0.52)"/><ellipse class="cls-5" cx="128.62" cy="107.87" rx="1.76" ry="0.8"/><ellipse class="cls-6" cx="86.65" cy="103.72" rx="3.83" ry="1.75"/><path class="cls-5" d="M87.43,105.31a0.05,0.05,0,0,1,0,0l0,0-0.35.25-0.07,0a0.07,0.07,0,0,1,0-.05l-0.58-1.2-1.9-.13-0.08,0a0.08,0.08,0,0,1,0-.05l0.33-.24,0,0h0.05l1.36,0.1-0.39-.8a0,0,0,0,1,0,0l0,0,0.33-.24,0.08,0a0.06,0.06,0,0,1,0,0l0.53,1.12,2,0.15,0.1,0a0.06,0.06,0,0,1,0,0l-0.35.25,0,0H88.47L87,104.44Z" transform="translate(0 -0.52)"/><ellipse class="cls-6" cx="86.65" cy="111.71" rx="3.83" ry="1.75"/><path class="cls-5" d="M88.4,112.9a0.07,0.07,0,0,1,0,0,0.06,0.06,0,0,1,0,0l-0.29.21-0.06,0-0.07,0-1.08-.56-2.22-.2-0.08,0s0,0,0-.05l0.31-.23a0.16,0.16,0,0,1,.11,0l1.65,0.16-0.55-1a0,0,0,0,1,0-.07l0.33-.24a0.09,0.09,0,0,1,.08,0,0.1,0.1,0,0,1,0,.05l0.67,1.31Z" transform="translate(0 -0.52)"/><ellipse class="cls-6" cx="79.7" cy="107.71" rx="3.83" ry="1.75"/><path class="cls-5" d="M80.35,109.44a0.11,0.11,0,0,1-.13,0L80,109.32l0,0,0,0L79,107.62l-0.88.64-0.06,0-0.07,0-0.3-.15,0,0a0,0,0,0,1,0,0l1.31-1,0.06,0,0.06,0,0.28,0.15,0,0,0,0,0.86,1.64,1-.7,0.06,0,0.07,0,0.3,0.15,0,0a0,0,0,0,1,0,0Z" transform="translate(0 -0.52)"/><line class="cls-7" x1="82.03" y1="105.97" x2="83.33" y2="105.19"/><line class="cls-7" x1="82.72" y1="109.31" x2="84.07" y2="110"/></g><path class="cls-5" d="M100.95,51a0.56,0.56,0,0,1-.31-0.5V49.31a0.33,0.33,0,0,1,.06-0.19L100.8,49l5.11-5.62-4.8-2.77a0.66,0.66,0,0,1-.24-0.21,0.57,0.57,0,0,1-.06-0.29v-1.4a0.24,0.24,0,0,1,.06-0.21,0.3,0.3,0,0,1,.24.07l7.18,4.14a0.7,0.7,0,0,1,.27.23,0.61,0.61,0,0,1,.06.29V44.5a0.36,0.36,0,0,1,0,.15,0.26,0.26,0,0,1-.08.11l-5.22,5.49,5.26,3a0.65,0.65,0,0,1,.24.21,0.57,0.57,0,0,1,.07.29v1.4a0.24,0.24,0,0,1-.07.22,0.3,0.3,0,0,1-.24-0.07Z" transform="translate(0 -0.52)"/><path class="cls-2" d="M137.29,101.47V93.68a2.21,2.21,0,0,0-.14-1.26l0-.05a2.13,2.13,0,0,0-.11-0.22L137,92.07l-0.13-.18-0.07-.08-0.16-.16-0.08-.07a2.25,2.25,0,0,0-.27-0.19h0L107.47,74.79a5.58,5.58,0,0,0-2.79-.75h0a5.57,5.57,0,0,0-2.75.74l-4.72,2.72L73.13,91.4a2.24,2.24,0,0,0-.28.19l-0.07.07-0.16.16-0.07.08-0.13.18-0.05.08a2.13,2.13,0,0,0-.12.22l0,0.05a2.21,2.21,0,0,0-.14,1.26v7.78a2.23,2.23,0,0,0,0,.76v19.19a2.17,2.17,0,0,0,1.05,2.28l28.77,16.61a5.58,5.58,0,0,0,5.58,0l28.76-16.61a2.17,2.17,0,0,0,1.05-2.28V102.23A2.23,2.23,0,0,0,137.29,101.47Z" transform="translate(0 -0.52)"/><path class="cls-3" d="M137.29,121.42V93.29H72.07v28.13a2.17,2.17,0,0,0,1.05,2.28l28.77,16.61a5.58,5.58,0,0,0,5.58,0l28.76-16.61A2.17,2.17,0,0,0,137.29,121.42Z" transform="translate(0 -0.52)"/><path class="cls-4" d="M137.29,93.68a2.17,2.17,0,0,0-1.05-2.28L107.47,74.79a5.58,5.58,0,0,0-5.58,0L73.13,91.4a2.17,2.17,0,0,0-1.05,2.28v7.78a2.17,2.17,0,0,0,1.05,2.28l28.77,16.61a5.58,5.58,0,0,0,5.58,0l28.76-16.61a2.17,2.17,0,0,0,1.05-2.28V93.68Z" transform="translate(0 -0.52)"/><path class="cls-4" d="M74.52,104.55v9.62a5.89,5.89,0,0,0,2.83,4.46l22,12.73c1.56,0.9,2.83.36,2.83-1.2v-9.62Z" transform="translate(0 -0.52)"/><path class="cls-4" d="M98,128.55h0a3.5,3.5,0,0,1-2-2.91v-4.83a1.32,1.32,0,0,1,2-1.18h0a3.5,3.5,0,0,1,2,2.91v4.83A1.32,1.32,0,0,1,98,128.55Z" transform="translate(0 -0.52)"/><path class="cls-4" d="M78.7,117.4h0a3.5,3.5,0,0,1-2-2.91v-4.83a1.32,1.32,0,0,1,2-1.18h0a3.5,3.5,0,0,1,2,2.91v4.83A1.32,1.32,0,0,1,78.7,117.4Z" transform="translate(0 -0.52)"/><path class="cls-5" d="M93.26,120.75a0.45,0.45,0,0,1-.66.42,1,1,0,0,1-.66-0.9,0.45,0.45,0,0,1,.66-0.42A1,1,0,0,1,93.26,120.75Z" transform="translate(0 -0.52)"/><path class="cls-5" d="M91.15,119.46a0.45,0.45,0,0,1-.66.42,1,1,0,0,1-.66-0.9,0.45,0.45,0,0,1,.66-0.42A1,1,0,0,1,91.15,119.46Z" transform="translate(0 -0.52)"/><path class="cls-5" d="M89,118.17a0.45,0.45,0,0,1-.66.42,1,1,0,0,1-.66-0.9,0.45,0.45,0,0,1,.66-0.42A1,1,0,0,1,89,118.17Z" transform="translate(0 -0.52)"/><path class="cls-5" d="M86.93,116.87a0.45,0.45,0,0,1-.66.42,1,1,0,0,1-.66-0.9,0.45,0.45,0,0,1,.66-0.42A1,1,0,0,1,86.93,116.87Z" transform="translate(0 -0.52)"/><path class="cls-5" d="M84.82,115.58a0.45,0.45,0,0,1-.66.42,1,1,0,0,1-.66-0.9,0.45,0.45,0,0,1,.66-0.42A1,1,0,0,1,84.82,115.58Z" transform="translate(0 -0.52)"/><path class="cls-5" d="M91.15,121.75a0.45,0.45,0,0,1-.66.42,1,1,0,0,1-.66-0.9,0.45,0.45,0,0,1,.66-0.42A1,1,0,0,1,91.15,121.75Z" transform="translate(0 -0.52)"/><path class="cls-5" d="M89,120.46a0.45,0.45,0,0,1-.66.42,1,1,0,0,1-.66-0.9,0.45,0.45,0,0,1,.66-0.42A1,1,0,0,1,89,120.46Z" transform="translate(0 -0.52)"/><path class="cls-5" d="M86.93,119.17a0.45,0.45,0,0,1-.66.42,1,1,0,0,1-.66-0.9,0.45,0.45,0,0,1,.66-0.42A1,1,0,0,1,86.93,119.17Z" transform="translate(0 -0.52)"/><path class="cls-4" d="M134.84,104.55v9.62a5.89,5.89,0,0,1-2.83,4.46l-22,12.73c-1.56.9-2.83,0.36-2.83-1.2v-9.62Z" transform="translate(0 -0.52)"/><path class="cls-4" d="M111.31,128.55h0a3.5,3.5,0,0,0,2-2.91v-4.83a1.32,1.32,0,0,0-2-1.18h0a3.5,3.5,0,0,0-2,2.91v4.83A1.32,1.32,0,0,0,111.31,128.55Z" transform="translate(0 -0.52)"/><path class="cls-4" d="M130.66,117.4h0a3.5,3.5,0,0,0,2-2.91v-4.83a1.32,1.32,0,0,0-2-1.18h0a3.5,3.5,0,0,0-2,2.91v4.83A1.32,1.32,0,0,0,130.66,117.4Z" transform="translate(0 -0.52)"/><path class="cls-5" d="M116.1,120.75a0.45,0.45,0,0,0,.66.42,1,1,0,0,0,.66-0.9,0.45,0.45,0,0,0-.66-0.42A1,1,0,0,0,116.1,120.75Z" transform="translate(0 -0.52)"/><path class="cls-5" d="M118.21,119.46a0.45,0.45,0,0,0,.66.42,1,1,0,0,0,.66-0.9,0.45,0.45,0,0,0-.66-0.42A1,1,0,0,0,118.21,119.46Z" transform="translate(0 -0.52)"/><path class="cls-5" d="M120.32,118.17a0.45,0.45,0,0,0,.66.42,1,1,0,0,0,.66-0.9,0.45,0.45,0,0,0-.66-0.42A1,1,0,0,0,120.32,118.17Z" transform="translate(0 -0.52)"/><path class="cls-5" d="M122.43,116.87a0.45,0.45,0,0,0,.66.42,1,1,0,0,0,.66-0.9,0.45,0.45,0,0,0-.66-0.42A1,1,0,0,0,122.43,116.87Z" transform="translate(0 -0.52)"/><path class="cls-5" d="M124.54,115.58a0.45,0.45,0,0,0,.66.42,1,1,0,0,0,.66-0.9,0.45,0.45,0,0,0-.66-0.42A1,1,0,0,0,124.54,115.58Z" transform="translate(0 -0.52)"/><path class="cls-5" d="M118.21,121.75a0.45,0.45,0,0,0,.66.42,1,1,0,0,0,.66-0.9,0.45,0.45,0,0,0-.66-0.42A1,1,0,0,0,118.21,121.75Z" transform="translate(0 -0.52)"/><path class="cls-5" d="M120.32,120.46a0.45,0.45,0,0,0,.66.42,1,1,0,0,0,.66-0.9,0.45,0.45,0,0,0-.66-0.42A1,1,0,0,0,120.32,120.46Z" transform="translate(0 -0.52)"/><path class="cls-5" d="M122.43,119.17a0.45,0.45,0,0,0,.66.42,1,1,0,0,0,.66-0.9,0.45,0.45,0,0,0-.66-0.42A1,1,0,0,0,122.43,119.17Z" transform="translate(0 -0.52)"/><path class="cls-4" d="M101.89,74.79L73.13,91.4a2.18,2.18,0,0,0,0,3.78l28.77,16.61a5.58,5.58,0,0,0,5.58,0l28.76-16.61a2.18,2.18,0,0,0,0-3.78L107.47,74.79A5.58,5.58,0,0,0,101.89,74.79Z" transform="translate(0 -0.52)"/><ellipse class="cls-5" cx="128.62" cy="92.55" rx="1.76" ry="0.8"/><ellipse class="cls-6" cx="86.65" cy="88.4" rx="3.83" ry="1.75"/><path class="cls-5" d="M87.43,90a0.05,0.05,0,0,1,0,0l0,0-0.35.25-0.07,0a0.07,0.07,0,0,1,0-.05l-0.58-1.2-1.9-.13-0.08,0a0.08,0.08,0,0,1,0-.05l0.33-.24,0,0h0.05l1.36,0.1-0.39-.8a0,0,0,0,1,0,0l0,0,0.33-.24,0.08,0a0.06,0.06,0,0,1,0,0l0.53,1.12,2,0.15,0.1,0a0.06,0.06,0,0,1,0,0l-0.35.25,0,0H88.47L87,89.12Z" transform="translate(0 -0.52)"/><ellipse class="cls-6" cx="86.65" cy="96.39" rx="3.83" ry="1.75"/><path class="cls-5" d="M88.4,97.58a0.07,0.07,0,0,1,0,0,0.06,0.06,0,0,1,0,0l-0.29.21-0.06,0-0.07,0-1.08-.56-2.22-.2-0.08,0s0,0,0-.05L85,96.82a0.16,0.16,0,0,1,.11,0L86.74,97l-0.55-1a0,0,0,0,1,0-.07l0.33-.24a0.09,0.09,0,0,1,.08,0,0.1,0.1,0,0,1,0,.05L87.32,97Z" transform="translate(0 -0.52)"/><ellipse class="cls-6" cx="79.7" cy="92.4" rx="3.83" ry="1.75"/><path class="cls-5" d="M80.35,94.12a0.11,0.11,0,0,1-.13,0L80,94l0,0,0,0L79,92.31l-0.88.64-0.06,0-0.07,0-0.3-.15,0,0a0,0,0,0,1,0,0l1.31-1,0.06,0,0.06,0,0.28,0.15,0,0,0,0,0.86,1.64,1-.7,0.06,0,0.07,0L81.72,93l0,0a0,0,0,0,1,0,0Z" transform="translate(0 -0.52)"/><line class="cls-7" x1="82.03" y1="90.65" x2="83.33" y2="89.87"/><line class="cls-7" x1="82.72" y1="93.99" x2="84.07" y2="94.68"/><line class="cls-10" x1="104.68" y1="89.39" x2="104.68" y2="55.11"/><rect class="cls-11" width="210" height="210"/></svg>