<svg id="레이어_1" data-name="레이어 1" xmlns="http://www.w3.org/2000/svg" width="350" height="210" viewBox="0 0 350 210">
  <defs>
    <style>
      .cls-1, .cls-3 {
        fill: #fff;
      }

      .cls-2 {
        fill: #dbaf58;
        stroke: #dbaf58;
      }

      .cls-2, .cls-3, .cls-4, .cls-7 {
        stroke-miterlimit: 10;
      }

      .cls-3 {
        stroke: #e6e6e6;
      }

      .cls-4, .cls-7 {
        fill: none;
      }

      .cls-4 {
        stroke: #bcbcbc;
      }

      .cls-5 {
        fill: #ff8e1d;
      }

      .cls-6 {
        fill: #26cad3;
      }

      .cls-7 {
        stroke: #26cad3;
        stroke-width: 2px;
      }
    </style>
  </defs>
  <title>helpCustomTune2_0OrVolme</title>
  <path class="cls-1" d="M.5.52v210h346a4,4,0,0,0,4-4V.52Zm193.83,121.4v47.7a10.79,10.79,0,0,1-10.83,10.8H88.1A10.82,10.82,0,0,1,77.28,169.6V74.19A10.82,10.82,0,0,1,88.1,63.35h95.4a10.82,10.82,0,0,1,10.82,10.82h0v47.75Z" transform="translate(-0.5 -0.52)"/>
  <path class="cls-2" d="M194.33,134a1.26,1.26,0,0,0,1.47-1.44h0v-2.43h0a1.26,1.26,0,0,0-1.48-1.48" transform="translate(-0.5 -0.52)"/>
  <path class="cls-2" d="M77.28,134a1.26,1.26,0,0,1-1.48-1.44h0v-2.43h0a1.26,1.26,0,0,1,1.48-1.48" transform="translate(-0.5 -0.52)"/>
  <path class="cls-2" d="M77.28,109.86a1.26,1.26,0,0,0-1.48,1.48h0v2.43h0a1.26,1.26,0,0,0,1.48,1.48" transform="translate(-0.5 -0.52)"/>
  <path class="cls-2" d="M147.85,180.43a1.26,1.26,0,0,1-1.48,1.48h-2.46a1.26,1.26,0,0,1-1.48-1.48" transform="translate(-0.5 -0.52)"/>
  <path class="cls-2" d="M157.2,180.43a1.26,1.26,0,0,1-1.48,1.48h-2.46a1.26,1.26,0,0,1-1.48-1.48" transform="translate(-0.5 -0.52)"/>
  <path class="cls-2" d="M114.41,180.43a1.26,1.26,0,0,0,1.48,1.48h2.46a1.26,1.26,0,0,0,1.48-1.48" transform="translate(-0.5 -0.52)"/>
  <path class="cls-2" d="M133.1,180.43a1.26,1.26,0,0,0,1.48,1.48H137a1.26,1.26,0,0,0,1.48-1.48" transform="translate(-0.5 -0.52)"/>
  <path class="cls-2" d="M147.85,63.38a1.26,1.26,0,0,0-1.48-1.48h-2.46a1.26,1.26,0,0,0-1.48,1.48" transform="translate(-0.5 -0.52)"/>
  <path class="cls-2" d="M123.75,180.43a1.26,1.26,0,0,0,1.48,1.48h2.46a1.26,1.26,0,0,0,1.48-1.48" transform="translate(-0.5 -0.52)"/>
  <path class="cls-2" d="M194.33,109.86a1.26,1.26,0,0,1,1.48,1.48h0v2.43h0a1.26,1.26,0,0,1-1.48,1.48" transform="translate(-0.5 -0.52)"/>
  <path class="cls-2" d="M194.33,124.61a1.26,1.26,0,0,0,1.48-1.48h0V120.7h0a1.26,1.26,0,0,0-1.48-1.48" transform="translate(-0.5 -0.52)"/>
  <path class="cls-2" d="M157.2,63.38a1.26,1.26,0,0,0-1.48-1.48h-2.46a1.26,1.26,0,0,0-1.48,1.48" transform="translate(-0.5 -0.52)"/>
  <path class="cls-2" d="M194.33,100.52a1.26,1.26,0,0,1,1.48,1.48h0v2.43h0a1.26,1.26,0,0,1-1.48,1.48" transform="translate(-0.5 -0.52)"/>
  <path class="cls-2" d="M123.75,63.38a1.26,1.26,0,0,1,1.48-1.48h2.46a1.26,1.26,0,0,1,1.48,1.48" transform="translate(-0.5 -0.52)"/>
  <path class="cls-2" d="M114.41,63.38a1.26,1.26,0,0,1,1.48-1.48h2.46a1.26,1.26,0,0,1,1.48,1.48" transform="translate(-0.5 -0.52)"/>
  <path class="cls-2" d="M77.28,100.52A1.26,1.26,0,0,0,75.8,102h0v2.43h0a1.26,1.26,0,0,0,1.48,1.48" transform="translate(-0.5 -0.52)"/>
  <path class="cls-2" d="M77.28,119.2a1.26,1.26,0,0,0-1.48,1.48h0v2.43h0a1.26,1.26,0,0,0,1.48,1.48" transform="translate(-0.5 -0.52)"/>
  <path class="cls-2" d="M77.28,143.3a1.26,1.26,0,0,1-1.48-1.48h0v-2.43h0a1.26,1.26,0,0,1,1.48-1.48" transform="translate(-0.5 -0.52)"/>
  <path class="cls-2" d="M194.33,143.3a1.26,1.26,0,0,0,1.48-1.48h0v-2.43h0a1.26,1.26,0,0,0-1.48-1.48" transform="translate(-0.5 -0.52)"/>
  <path class="cls-2" d="M138.5,63.38A1.26,1.26,0,0,0,137,61.9h-2.46a1.26,1.26,0,0,0-1.48,1.48" transform="translate(-0.5 -0.52)"/>
  <path class="cls-3" d="M183.5,63.37H88.1a10.79,10.79,0,0,0-10.82,10.8v95.41A10.82,10.82,0,0,0,88.1,180.4h95.4a10.82,10.82,0,0,0,10.82-10.82V74.19A10.82,10.82,0,0,0,183.5,63.37Zm-74.36,78.37a3.38,3.38,0,1,1,1-2.4A3.45,3.45,0,0,1,109.14,141.74Zm0-8.72a3.38,3.38,0,1,1,1-2.4A3.45,3.45,0,0,1,109.14,133Zm0-8.72a3.38,3.38,0,1,1,1-2.4A3.45,3.45,0,0,1,109.14,124.3Zm0-8.72a3.38,3.38,0,1,1,1-2.4A3.45,3.45,0,0,1,109.14,115.58Zm0-8.72a3.38,3.38,0,1,1,1-2.4A3.45,3.45,0,0,1,109.14,106.86Zm7.27,39.23a3.38,3.38,0,1,1,1-2.4,3.45,3.45,0,0,1-1,2.4Zm0-8.72a3.38,3.38,0,1,1,1-2.4,3.45,3.45,0,0,1-1,2.4Zm0-8.72a3.38,3.38,0,1,1,1-2.4,3.45,3.45,0,0,1-1,2.4Zm0-8.72a3.38,3.38,0,1,1,1-2.4,3.45,3.45,0,0,1-1,2.4Zm0-8.72a3.38,3.38,0,1,1,1-2.4,3.45,3.45,0,0,1-1,2.4Zm0-8.72a3.38,3.38,0,1,1,1-2.4,3.45,3.45,0,0,1-1,2.4Zm7.27,48a3.38,3.38,0,1,1,1-2.4,3.45,3.45,0,0,1-1,2.4Zm0-8.72a3.38,3.38,0,1,1,1-2.4,3.45,3.45,0,0,1-1,2.4Zm0-8.72a3.38,3.38,0,1,1,1-2.4,3.45,3.45,0,0,1-1,2.4Zm0-8.72a3.38,3.38,0,1,1,1-2.4,3.45,3.45,0,0,1-1,2.4Zm0-8.72a3.38,3.38,0,1,1,1-2.4,3.45,3.45,0,0,1-1,2.4Zm0-8.72a3.38,3.38,0,1,1,1-2.4,3.45,3.45,0,0,1-1,2.4Zm0-8.72a3.38,3.38,0,1,1,1-2.4,3.45,3.45,0,0,1-1,2.4ZM131,154.84a3.38,3.38,0,1,1,1-2.4,3.45,3.45,0,0,1-1,2.4Zm0-8.72a3.38,3.38,0,1,1,1-2.4,3.45,3.45,0,0,1-1,2.4Zm0-8.72a3.38,3.38,0,1,1,1-2.4,3.45,3.45,0,0,1-1,2.4Zm0-8.72a3.38,3.38,0,1,1,1-2.4,3.45,3.45,0,0,1-1,2.4Zm0-8.72a3.38,3.38,0,1,1,1-2.4,3.45,3.45,0,0,1-1,2.4Zm0-8.72a3.38,3.38,0,1,1,1-2.4,3.45,3.45,0,0,1-1,2.4Zm0-8.72a3.38,3.38,0,1,1,1-2.4,3.45,3.45,0,0,1-1,2.4Zm0-8.72a3.38,3.38,0,1,1,1-2.4,3.45,3.45,0,0,1-1,2.4Zm7.27,65.39a3.38,3.38,0,1,1,1-2.4,3.45,3.45,0,0,1-1,2.4Zm0-8.72a3.38,3.38,0,1,1,1-2.4,3.45,3.45,0,0,1-1,2.4Zm0-8.72a3.38,3.38,0,1,1,1-2.4,3.45,3.45,0,0,1-1,2.4Zm0-8.72a3.38,3.38,0,1,1,1-2.4,3.45,3.45,0,0,1-1,2.4Zm0-8.72a3.38,3.38,0,1,1,1-2.4,3.45,3.45,0,0,1-1,2.4Zm0-8.72a3.38,3.38,0,1,1,1-2.4,3.45,3.45,0,0,1-1,2.4Zm0-8.72a3.38,3.38,0,1,1,1-2.4,3.45,3.45,0,0,1-1,2.4Zm0-8.72a3.38,3.38,0,1,1,1-2.4,3.45,3.45,0,0,1-1,2.4Zm0-8.72a3.38,3.38,0,1,1,1-2.4,3.45,3.45,0,0,1-1,2.4Zm7.28,65.39a3.38,3.38,0,1,1,1-2.4A3.45,3.45,0,0,1,145.5,154.82Zm0-8.72a3.38,3.38,0,1,1,1-2.4A3.45,3.45,0,0,1,145.5,146.1Zm0-8.72a3.38,3.38,0,1,1,1-2.4A3.45,3.45,0,0,1,145.5,137.38Zm0-8.72a3.38,3.38,0,1,1,1-2.4A3.45,3.45,0,0,1,145.5,128.66Zm0-8.72a3.38,3.38,0,1,1,1-2.4A3.45,3.45,0,0,1,145.5,119.94Zm0-8.72a3.38,3.38,0,1,1,1-2.4A3.45,3.45,0,0,1,145.5,111.22Zm0-8.72a3.38,3.38,0,1,1,1-2.4,3.45,3.45,0,0,1-1,2.4Zm0-8.72a3.38,3.38,0,1,1,1-2.4,3.45,3.45,0,0,1-1,2.4Zm7.27,56.67a3.38,3.38,0,1,1,1-2.4,3.45,3.45,0,0,1-1,2.4Zm0-8.72a3.38,3.38,0,1,1,1-2.4,3.45,3.45,0,0,1-1,2.4Zm0-8.72a3.38,3.38,0,1,1,1-2.4,3.45,3.45,0,0,1-1,2.4Zm0-8.72a3.38,3.38,0,1,1,1-2.4,3.45,3.45,0,0,1-1,2.4Zm0-8.72a3.38,3.38,0,1,1,1-2.4,3.45,3.45,0,0,1-1,2.4Zm0-8.72a3.38,3.38,0,1,1,1-2.4,3.45,3.45,0,0,1-1,2.4Zm0-8.72a3.38,3.38,0,1,1,1-2.4,3.45,3.45,0,0,1-1,2.4Zm7.26,48a3.38,3.38,0,1,1,1-2.4,3.45,3.45,0,0,1-1,2.4Zm0-8.72a3.38,3.38,0,1,1,1-2.4,3.45,3.45,0,0,1-1,2.4Zm0-8.72a3.38,3.38,0,1,1,1-2.4,3.45,3.45,0,0,1-1,2.4Zm0-8.72a3.38,3.38,0,1,1,1-2.4,3.45,3.45,0,0,1-1,2.4Zm0-8.72a3.38,3.38,0,1,1,1-2.4,3.45,3.45,0,0,1-1,2.4Zm0-8.72a3.38,3.38,0,1,1,1-2.4,3.45,3.45,0,0,1-1,2.4Zm7.27,39.23a3.38,3.38,0,1,1,1-2.4,3.45,3.45,0,0,1-1,2.4Zm0-8.72a3.38,3.38,0,1,1,1-2.4,3.45,3.45,0,0,1-1,2.4Zm0-8.72a3.38,3.38,0,1,1,1-2.4,3.45,3.45,0,0,1-1,2.4Zm0-8.72a3.38,3.38,0,1,1,1-2.4,3.45,3.45,0,0,1-1,2.4Zm0-8.72a3.38,3.38,0,1,1,1-2.4,3.45,3.45,0,0,1-1,2.4Z" transform="translate(-0.5 -0.52)"/>
  <path class="cls-4" d="M88.1,180.34h95.4a10.82,10.82,0,0,0,10.82-10.82V74.11A10.82,10.82,0,0,0,183.5,63.29H88.1A10.82,10.82,0,0,0,77.28,74.11v95.41A10.82,10.82,0,0,0,88.1,180.34Z" transform="translate(-0.5 -0.52)"/>
  <path class="cls-5" d="M102.75,76a.92.92,0,0,0-.68-.3.93.93,0,0,0-.66,1.58h0a7.44,7.44,0,0,1,0,10.52h0a.93.93,0,0,0,.66,1.59.92.92,0,0,0,.67-.29A9.3,9.3,0,0,0,102.75,76Z" transform="translate(-0.5 -0.52)"/>
  <path class="cls-5" d="M105.36,73.36h0A.93.93,0,0,0,104,74.68h0a11.16,11.16,0,0,1,0,15.78.93.93,0,0,0,.66,1.59.92.92,0,0,0,.67-.29,13,13,0,0,0,0-18.38Z" transform="translate(-0.5 -0.52)"/>
  <path class="cls-5" d="M100.09,78.62h0a.93.93,0,1,0-1.31,1.32,3.72,3.72,0,0,1,0,5.26h0a.93.93,0,0,0,.66,1.59.92.92,0,0,0,.68-.3A5.58,5.58,0,0,0,100.09,78.62Z" transform="translate(-0.5 -0.52)"/>
  <polygon class="cls-5" points="88.02 78.61 84.58 78.61 84.58 85.48 88.02 85.48 94.88 92.34 94.88 71.74 88.02 78.61"/>
  <path class="cls-6" d="M178.34,161.24a3.19,3.19,0,1,0-.93,2.26A3.22,3.22,0,0,0,178.34,161.24Z" transform="translate(-0.5 -0.52)"/>
  <path class="cls-7" d="M228.05,43.17h91.28A10.18,10.18,0,0,1,329.5,53.34h0a10.18,10.18,0,0,1-10.17,10.18H228.05a10.18,10.18,0,0,1-10.18-10.17h0a10.18,10.18,0,0,1,10.18-10.18Z" transform="translate(-0.5 -0.52)"/>
  <path class="cls-6" d="M242.5,58.07a2.6,2.6,0,0,1-2.36-1.31,4.71,4.71,0,0,1-.56-1.51,9.83,9.83,0,0,1-.18-2v-1a7.34,7.34,0,0,1,.17-1.07,5.49,5.49,0,0,1,.35-1,3.27,3.27,0,0,1,.58-.86,2.57,2.57,0,0,1,.83-.59,2.71,2.71,0,0,1,1.17-.21,2.67,2.67,0,0,1,1.13.22,2.59,2.59,0,0,1,.82.59,3.13,3.13,0,0,1,.56.86,5.8,5.8,0,0,1,.34,1,7.63,7.63,0,0,1,.17,1.07v1a9.66,9.66,0,0,1-.18,2,4.75,4.75,0,0,1-.56,1.51,2.74,2.74,0,0,1-1,1A2.66,2.66,0,0,1,242.5,58.07Zm0-8a1.09,1.09,0,0,0-.56.16,1.3,1.3,0,0,0-.46.53,3.55,3.55,0,0,0-.31,1,8.61,8.61,0,0,0-.11,1.53,8.7,8.7,0,0,0,.11,1.54,3.46,3.46,0,0,0,.31,1,1.3,1.3,0,0,0,.46.53,1.09,1.09,0,0,0,1.13,0,1.3,1.3,0,0,0,.46-.53,3.49,3.49,0,0,0,.31-1,8.7,8.7,0,0,0,.11-1.54,8.61,8.61,0,0,0-.11-1.53,3.58,3.58,0,0,0-.31-1,1.31,1.31,0,0,0-.46-.53,1.09,1.09,0,0,0-.57-.15h0Z" transform="translate(-0.5 -0.52)"/>
  <path class="cls-6" d="M251.27,52.84a1.76,1.76,0,0,1-.71.56,2.48,2.48,0,0,1-1,.17,2.4,2.4,0,0,1-1-.19,1.84,1.84,0,0,1-.68-.53,2.15,2.15,0,0,1-.39-.8,4.21,4.21,0,0,1,0-2,2.25,2.25,0,0,1,.39-.82,1.9,1.9,0,0,1,.68-.56,2.28,2.28,0,0,1,1-.2,2.25,2.25,0,0,1,1,.2,1.91,1.91,0,0,1,.68.56,2.33,2.33,0,0,1,.4.82,3.82,3.82,0,0,1,.13,1,3.75,3.75,0,0,1-.13,1A2.14,2.14,0,0,1,251.27,52.84Zm-1.68-2.92a.57.57,0,0,0-.52.26,1.66,1.66,0,0,0-.17.87,1.93,1.93,0,0,0,.15.79.54.54,0,0,0,.53.34.55.55,0,0,0,.49-.26,2.34,2.34,0,0,0,0-1.74.55.55,0,0,0-.48-.26Zm1.32,8a.25.25,0,0,1-.14.14.78.78,0,0,1-.22,0H249.5a.38.38,0,0,1-.23,0V57.8l5.17-9.36a.34.34,0,0,1,.11-.12.42.42,0,0,1,.17,0H256a.3.3,0,0,1,.25.07.28.28,0,0,1-.05.25Zm6.53-.73a1.77,1.77,0,0,1-.71.56,2.5,2.5,0,0,1-1,.17,2.4,2.4,0,0,1-1-.19,1.83,1.83,0,0,1-.68-.53,2.14,2.14,0,0,1-.39-.8,4.21,4.21,0,0,1,0-2,2.27,2.27,0,0,1,.39-.82,1.9,1.9,0,0,1,.68-.56,2.28,2.28,0,0,1,1-.2,2.25,2.25,0,0,1,1,.2,1.91,1.91,0,0,1,.68.56,2.34,2.34,0,0,1,.4.82,3.82,3.82,0,0,1,.13,1,3.75,3.75,0,0,1-.13,1,2.13,2.13,0,0,1-.38.82h0Zm-1.68-2.93a.57.57,0,0,0-.52.26,1.67,1.67,0,0,0-.17.87,1.92,1.92,0,0,0,.15.79.54.54,0,0,0,.53.34.55.55,0,0,0,.49-.26,2.34,2.34,0,0,0,0-1.74.55.55,0,0,0-.49-.23h0Z" transform="translate(-0.5 -0.52)"/>
  <path class="cls-6" d="M269.5,53.35a2.4,2.4,0,0,1-.76.76,1.88,1.88,0,0,1-1,.28,2.25,2.25,0,0,1-.67-.11l-.69-.24-.64-.24a1.59,1.59,0,0,0-.53-.11.93.93,0,0,0-.55.22,3,3,0,0,0-.53.52.17.17,0,0,1-.16.1.42.42,0,0,1-.16-.18l-.45-.72a.19.19,0,0,1,0-.14.7.7,0,0,1,0-.12,2,2,0,0,1,.78-.76,2.27,2.27,0,0,1,1.09-.26,2.5,2.5,0,0,1,.67.1l.7.22.62.25a1.44,1.44,0,0,0,.46.1.64.64,0,0,0,.29-.07,1.47,1.47,0,0,0,.28-.18l.25-.25.2-.2a.39.39,0,0,1,.15-.11.2.2,0,0,1,.15.11l.5.75a.22.22,0,0,1,0,.14A.4.4,0,0,1,269.5,53.35Z" transform="translate(-0.5 -0.52)"/>
  <path class="cls-6" d="M277,57.92a.24.24,0,0,1-.18,0,.31.31,0,0,1,0-.2V50.84l-.73.7c-.13.12-.23.13-.3,0l-.71-.8a.14.14,0,0,1,0-.15.55.55,0,0,1,.14-.16l1.85-1.73a.44.44,0,0,1,.29-.11h.79a.48.48,0,0,1,.31.06.78.78,0,0,1,0,.36v8.64a.32.32,0,0,1,0,.19.23.23,0,0,1-.18.06h-1.19Z" transform="translate(-0.5 -0.52)"/>
  <path class="cls-6" d="M284.81,58.07a2.6,2.6,0,0,1-2.31-1.31,4.71,4.71,0,0,1-.56-1.51,9.83,9.83,0,0,1-.18-2v-1a7.34,7.34,0,0,1,.17-1.07,5.57,5.57,0,0,1,.35-1,3.27,3.27,0,0,1,.56-.86,2.56,2.56,0,0,1,.83-.59,2.72,2.72,0,0,1,1.13-.21,2.67,2.67,0,0,1,1.13.22,2.59,2.59,0,0,1,.82.59,3.16,3.16,0,0,1,.56.86,5.72,5.72,0,0,1,.34,1,7.63,7.63,0,0,1,.17,1.07v1a9.72,9.72,0,0,1-.18,2,4.75,4.75,0,0,1-.56,1.51,2.75,2.75,0,0,1-1,1A2.66,2.66,0,0,1,284.81,58.07Zm0-8a1.1,1.1,0,0,0-.56.16,1.3,1.3,0,0,0-.46.53,3.58,3.58,0,0,0-.31,1,8.61,8.61,0,0,0-.11,1.53,8.7,8.7,0,0,0,.13,1.55,3.49,3.49,0,0,0,.31,1,1.3,1.3,0,0,0,.46.53,1.1,1.1,0,0,0,1.13,0,1.3,1.3,0,0,0,.46-.53,3.49,3.49,0,0,0,.31-1,8.7,8.7,0,0,0,.11-1.54,8.61,8.61,0,0,0-.11-1.53,3.58,3.58,0,0,0-.31-1,1.3,1.3,0,0,0-.46-.53,1.1,1.1,0,0,0-.59-.16h0Z" transform="translate(-0.5 -0.52)"/>
  <path class="cls-6" d="M292.08,58.07a2.6,2.6,0,0,1-2.36-1.31,4.71,4.71,0,0,1-.56-1.51,9.83,9.83,0,0,1-.18-2v-1a7.34,7.34,0,0,1,.17-1.07,5.57,5.57,0,0,1,.35-1,3.27,3.27,0,0,1,.56-.86,2.56,2.56,0,0,1,.83-.59,2.72,2.72,0,0,1,1.13-.21,2.67,2.67,0,0,1,1.13.22,2.59,2.59,0,0,1,.82.59,3.16,3.16,0,0,1,.56.86,5.72,5.72,0,0,1,.34,1,7.63,7.63,0,0,1,.17,1.07v1a9.72,9.72,0,0,1-.18,2,4.75,4.75,0,0,1-.56,1.51,2.75,2.75,0,0,1-1,1A2.66,2.66,0,0,1,292.08,58.07Zm0-8a1.1,1.1,0,0,0-.56.16,1.3,1.3,0,0,0-.46.53,3.58,3.58,0,0,0-.31,1,8.61,8.61,0,0,0-.11,1.53,8.7,8.7,0,0,0,.11,1.54,3.49,3.49,0,0,0,.31,1,1.3,1.3,0,0,0,.46.53,1.1,1.1,0,0,0,1.13,0,1.3,1.3,0,0,0,.46-.53,3.49,3.49,0,0,0,.31-1,8.7,8.7,0,0,0,.08-1.54,8.61,8.61,0,0,0-.11-1.53,3.58,3.58,0,0,0-.31-1,1.3,1.3,0,0,0-.46-.53,1.1,1.1,0,0,0-.57-.15h0Z" transform="translate(-0.5 -0.52)"/>
  <path class="cls-6" d="M300.8,52.84a1.78,1.78,0,0,1-.71.56,2.48,2.48,0,0,1-1,.17,2.41,2.41,0,0,1-1-.19,1.85,1.85,0,0,1-.68-.53,2.15,2.15,0,0,1-.39-.8,4.25,4.25,0,0,1,0-2,2.25,2.25,0,0,1,.39-.82,1.91,1.91,0,0,1,.68-.56,2.29,2.29,0,0,1,1-.2,2.25,2.25,0,0,1,1,.2,1.91,1.91,0,0,1,.68.56,2.36,2.36,0,0,1,.4.82,3.82,3.82,0,0,1,.13,1,3.75,3.75,0,0,1-.13,1A2.16,2.16,0,0,1,300.8,52.84Zm-1.68-2.92a.57.57,0,0,0-.52.26,1.66,1.66,0,0,0-.17.87,1.93,1.93,0,0,0,.15.79.54.54,0,0,0,.53.34.55.55,0,0,0,.49-.26,2.34,2.34,0,0,0,0-1.74A.55.55,0,0,0,299.12,49.92Zm1.32,8a.25.25,0,0,1-.14.14.78.78,0,0,1-.22,0H299a.39.39,0,0,1-.23,0V57.8l5.17-9.36a.34.34,0,0,1,.11-.12.43.43,0,0,1,.17,0h1.28a.3.3,0,0,1,.25.07.28.28,0,0,1,0,.25Zm6.53-.73a1.78,1.78,0,0,1-.71.56,2.5,2.5,0,0,1-1,.17,2.41,2.41,0,0,1-1-.19,1.84,1.84,0,0,1-.68-.53,2.14,2.14,0,0,1-.39-.8,4.25,4.25,0,0,1,0-2,2.27,2.27,0,0,1,.39-.82,1.91,1.91,0,0,1,.68-.56,2.29,2.29,0,0,1,1-.2,2.25,2.25,0,0,1,1,.2,1.91,1.91,0,0,1,.68.56,2.36,2.36,0,0,1,.4.82,3.82,3.82,0,0,1,.13,1,3.75,3.75,0,0,1-.13,1,2.13,2.13,0,0,1-.37.82h0Zm-1.68-2.93a.57.57,0,0,0-.52.26,1.67,1.67,0,0,0-.17.87,1.93,1.93,0,0,0,.15.79.54.54,0,0,0,.53.34.55.55,0,0,0,.49-.26,2.34,2.34,0,0,0,0-1.74.55.55,0,0,0-.48-.23h0Z" transform="translate(-0.5 -0.52)"/>
</svg>
