<svg id="레이어_1" data-name="레이어 1" xmlns="http://www.w3.org/2000/svg" width="210" height="210" viewBox="0 0 210 210"><defs><style>.cls-1,.cls-3,.cls-4{fill:#fff;}.cls-1{fill-opacity:0;}.cls-2{fill:#f1f1f1;}.cls-3,.cls-4,.cls-6{stroke:#26cad3;stroke-miterlimit:10;}.cls-3{stroke-width:1.5px;}.cls-5{fill:#26cad3;}.cls-6{fill:none;}</style></defs><title>helpUltrasonic</title><rect class="cls-1" width="210" height="210"/><path class="cls-2" d="M179.64,122l-46.1-26.63a8.94,8.94,0,0,0-8.94,0L78.53,122h0L32.41,148.63a3.5,3.5,0,0,0,0,6.06l46.11,26.62a8.94,8.94,0,0,0,8.94,0l46.07-26.6h0l46.1-26.62A3.5,3.5,0,0,0,179.64,122Z"/><path class="cls-3" d="M172.09,80.13a2.84,2.84,0,0,0-1.42-2.66l-38-21.92a7.36,7.36,0,0,0-7.36,0l-84,48.53a2.86,2.86,0,0,0-1.3,3.34l-0.09,0v37.11a2.86,2.86,0,0,0,1.39,3l38,21.92a7.36,7.36,0,0,0,7.36,0l84-49.39a2.86,2.86,0,0,0,1.39-3l0-36.94h0Z"/><path class="cls-4" d="M172.06,80.48a2.86,2.86,0,0,0-1.39-3l-38-21.92a7.36,7.36,0,0,0-7.36,0l-84,48.53a2.86,2.86,0,0,0-1.39,3v10.27a2.86,2.86,0,0,0,1.39,3l38,21.92a7.36,7.36,0,0,0,7.36,0l84-48.52a2.86,2.86,0,0,0,1.39-3V80.48Z"/><path class="cls-4" d="M125.36,55.54l-84,48.53a2.88,2.88,0,0,0,0,5l38,21.92a7.36,7.36,0,0,0,7.36,0l84-48.52a2.88,2.88,0,0,0,0-5l-38-21.92A7.36,7.36,0,0,0,125.36,55.54Z"/><ellipse class="cls-5" cx="82.99" cy="124.2" rx="2.32" ry="1.06"/><path class="cls-4" d="M74.24,153.09h0a4.62,4.62,0,0,1-2.7-3.84v-6.37c0-1.48,1.21-2.18,2.7-1.56h0a4.62,4.62,0,0,1,2.7,3.84v6.37C76.94,153,75.73,153.72,74.24,153.09Z"/><path class="cls-4" d="M48.72,138.38h0a4.62,4.62,0,0,1-2.7-3.84v-6.37c0-1.48,1.21-2.18,2.7-1.56h0a4.62,4.62,0,0,1,2.7,3.84v6.37C51.42,138.31,50.2,139,48.72,138.38Z"/><path class="cls-5" d="M67.92,142.81a0.59,0.59,0,0,1-.87.55,1.38,1.38,0,0,1-.87-1.19,0.59,0.59,0,0,1,.87-0.55A1.38,1.38,0,0,1,67.92,142.81Z"/><path class="cls-5" d="M65.14,141.1a0.59,0.59,0,0,1-.87.55,1.38,1.38,0,0,1-.87-1.19,0.59,0.59,0,0,1,.87-0.55A1.38,1.38,0,0,1,65.14,141.1Z"/><path class="cls-5" d="M62.35,139.39a0.59,0.59,0,0,1-.87.55,1.38,1.38,0,0,1-.87-1.19,0.59,0.59,0,0,1,.87-0.55A1.38,1.38,0,0,1,62.35,139.39Z"/><path class="cls-5" d="M59.57,137.69a0.59,0.59,0,0,1-.87.55,1.38,1.38,0,0,1-.87-1.19,0.59,0.59,0,0,1,.87-0.55A1.38,1.38,0,0,1,59.57,137.69Z"/><path class="cls-5" d="M56.78,136a0.59,0.59,0,0,1-.87.55,1.38,1.38,0,0,1-.87-1.19,0.59,0.59,0,0,1,.87-0.55A1.38,1.38,0,0,1,56.78,136Z"/><path class="cls-5" d="M65.14,144.12a0.59,0.59,0,0,1-.87.55,1.38,1.38,0,0,1-.87-1.19,0.59,0.59,0,0,1,.87-0.55A1.38,1.38,0,0,1,65.14,144.12Z"/><path class="cls-5" d="M62.35,142.42a0.59,0.59,0,0,1-.87.55,1.38,1.38,0,0,1-.87-1.19,0.59,0.59,0,0,1,.87-0.55A1.38,1.38,0,0,1,62.35,142.42Z"/><path class="cls-5" d="M59.57,140.71a0.59,0.59,0,0,1-.87.55,1.38,1.38,0,0,1-.87-1.19,0.59,0.59,0,0,1,.87-0.55A1.38,1.38,0,0,1,59.57,140.71Z"/><path class="cls-4" d="M91.74,153.09h0a4.62,4.62,0,0,0,2.7-3.84v-6.37c0-1.48-1.21-2.18-2.7-1.56h0a4.62,4.62,0,0,0-2.7,3.84v6.37C89,153,90.26,153.72,91.74,153.09Z"/><path class="cls-4" d="M117.27,138.38h0a4.62,4.62,0,0,0,2.7-3.84v-6.37c0-1.48-1.21-2.18-2.7-1.56h0a4.62,4.62,0,0,0-2.7,3.84v6.37C114.57,138.31,115.78,139,117.27,138.38Z"/><path class="cls-5" d="M98.06,142.81a0.59,0.59,0,0,0,.87.55,1.38,1.38,0,0,0,.87-1.19,0.59,0.59,0,0,0-.87-0.55A1.38,1.38,0,0,0,98.06,142.81Z"/><path class="cls-5" d="M100.85,141.1a0.59,0.59,0,0,0,.87.55,1.38,1.38,0,0,0,.87-1.19,0.59,0.59,0,0,0-.87-0.55A1.38,1.38,0,0,0,100.85,141.1Z"/><path class="cls-5" d="M103.63,139.39a0.59,0.59,0,0,0,.87.55,1.38,1.38,0,0,0,.87-1.19,0.59,0.59,0,0,0-.87-0.55A1.38,1.38,0,0,0,103.63,139.39Z"/><path class="cls-5" d="M106.42,137.69a0.59,0.59,0,0,0,.87.55,1.38,1.38,0,0,0,.87-1.19,0.59,0.59,0,0,0-.87-0.55A1.38,1.38,0,0,0,106.42,137.69Z"/><path class="cls-5" d="M109.2,136a0.59,0.59,0,0,0,.87.55,1.38,1.38,0,0,0,.87-1.19,0.59,0.59,0,0,0-.87-0.55A1.38,1.38,0,0,0,109.2,136Z"/><path class="cls-5" d="M100.85,144.12a0.59,0.59,0,0,0,.87.55,1.38,1.38,0,0,0,.87-1.19,0.59,0.59,0,0,0-.87-0.55A1.38,1.38,0,0,0,100.85,144.12Z"/><path class="cls-5" d="M103.63,142.42a0.59,0.59,0,0,0,.87.55,1.38,1.38,0,0,0,.87-1.19,0.59,0.59,0,0,0-.87-0.55A1.38,1.38,0,0,0,103.63,142.42Z"/><path class="cls-5" d="M106.42,140.71a0.59,0.59,0,0,0,.87.55,1.38,1.38,0,0,0,.87-1.19,0.59,0.59,0,0,0-.87-0.55A1.38,1.38,0,0,0,106.42,140.71Z"/><path class="cls-6" d="M43.2,121.49v12.69a7.77,7.77,0,0,0,3.73,5.89L76,156.86c2.05,1.19,3.73.48,3.73-1.58V142.6Z"/><path class="cls-6" d="M122.78,121.49v12.69a7.77,7.77,0,0,1-3.73,5.89L90,156.86c-2.05,1.19-3.73.48-3.73-1.58V142.6Z"/><path class="cls-5" d="M119.19,79.22a0.39,0.39,0,0,0,.38-0.32c0.3-1.39,1.61-2.65,3.82-3.42a14.8,14.8,0,0,1,7.62-.35,0.38,0.38,0,0,0,.37-0.12l0.92-1.06a0.39,0.39,0,0,0-.21-0.64,20.52,20.52,0,0,0-10.67.45c-3.22,1.11-5.06,3-5.34,5a0.38,0.38,0,0,0,.39.42h2.73Z"/><path class="cls-5" d="M132.73,84.83a0.37,0.37,0,0,0-.33-0.08c-3.93.88-8.74,0-11.3-2.25a5,5,0,0,1-1.29-1.64,0.38,0.38,0,0,0-.35-0.23H116.8a0.39,0.39,0,0,0-.35.56,6.85,6.85,0,0,0,1.79,2.29c3.53,3.06,10.17,4.32,15.6,3.13a0.39,0.39,0,0,0,.16-0.68Z"/><path class="cls-5" d="M133.81,75.49a0.39,0.39,0,0,0,.14.61,8.77,8.77,0,0,1,2,1.27c2.46,2.13,2,4.77-.81,6.36a0.39,0.39,0,0,0-.08.64l1.37,1.19a0.4,0.4,0,0,0,.43.06c4.64-2.13,5.57-6.08,1.95-9.23a12.85,12.85,0,0,0-3.58-2.12,0.4,0.4,0,0,0-.45.11Z"/><path class="cls-5" d="M132,80.52a0.41,0.41,0,0,0-.34.2,2.43,2.43,0,0,1-1.26.87,5.4,5.4,0,0,1-2.15.24A0.38,0.38,0,0,0,128,82L127,83a0.39,0.39,0,0,0,.22.64,11.12,11.12,0,0,0,5.17-.38,4.32,4.32,0,0,0,2.8-2.25,0.39,0.39,0,0,0-.37-0.53H132Z"/><path class="cls-5" d="M125.87,81.05a3,3,0,0,1-.27-0.19,1.31,1.31,0,0,1-.28-2,0.38,0.38,0,0,0,0-.54L123.76,77a0.4,0.4,0,0,0-.45,0c-2.11,1.23-2.43,3.23-.56,4.85a6.4,6.4,0,0,0,1.32.85,0.39,0.39,0,0,0,.47-0.1Z"/><path class="cls-5" d="M121.48,72.36a24.64,24.64,0,0,1,11.91,0,0.38,0.38,0,0,0,.38-0.12l0.92-1.06a0.39,0.39,0,0,0-.2-0.64,30.58,30.58,0,0,0-14.48,0,0.39,0.39,0,0,0-.15.67l1.27,1.1A0.38,0.38,0,0,0,121.48,72.36Z"/><path class="cls-5" d="M116.53,84.08a7.57,7.57,0,0,1-2.29-3.19,0.38,0.38,0,0,0-.36-0.26h-2.66a0.39,0.39,0,0,0-.37.5,9.37,9.37,0,0,0,2.83,3.93,19.08,19.08,0,0,0,5.77,3.29,0.4,0.4,0,0,0,.44-0.11l1-1.1a0.39,0.39,0,0,0-.15-0.61A15,15,0,0,1,116.53,84.08Z"/><path class="cls-5" d="M140.52,75.8A7.57,7.57,0,0,1,142.81,79a0.38,0.38,0,0,0,.36.26h2.66a0.39,0.39,0,0,0,.37-0.5,9.37,9.37,0,0,0-2.83-3.93,19.07,19.07,0,0,0-5.77-3.29,0.4,0.4,0,0,0-.44.11l-1,1.1a0.39,0.39,0,0,0,.15.61A15,15,0,0,1,140.52,75.8Z"/><path class="cls-5" d="M143.08,81c-0.18,2.12-1.81,4.11-4.72,5.48a0.39,0.39,0,0,0-.1.64l1.33,1.16a0.4,0.4,0,0,0,.41.07c4.14-1.74,6.42-4.44,6.56-7.31a0.39,0.39,0,0,0-.39-0.4h-2.72A0.39,0.39,0,0,0,143.08,81Z"/><path class="cls-5" d="M114,78.85c0.18-2.12,1.81-4.11,4.72-5.48a0.39,0.39,0,0,0,.1-0.64l-1.33-1.16A0.4,0.4,0,0,0,117,71.5c-4.14,1.74-6.42,4.44-6.56,7.31a0.39,0.39,0,0,0,.39.4h2.72A0.39,0.39,0,0,0,114,78.85Z"/><path class="cls-5" d="M135.57,87.52a24.64,24.64,0,0,1-11.91,0,0.38,0.38,0,0,0-.38.12l-0.92,1.06a0.39,0.39,0,0,0,.2.64,30.58,30.58,0,0,0,14.48,0,0.39,0.39,0,0,0,.15-0.67l-1.27-1.1A0.38,0.38,0,0,0,135.57,87.52Z"/><path class="cls-5" d="M134.92,78.81c-0.05-.09-0.09-0.17-0.16-0.26a3.91,3.91,0,0,0-.6-0.65c-1.76-1.53-4.92-2.24-7.73-1.89a0.39,0.39,0,0,0-.22.68l1.3,1.13a0.38,0.38,0,0,0,.27.09,5.14,5.14,0,0,1,3.52,1,2.18,2.18,0,0,1,.2.22h3.16C134.94,79.05,134.95,78.91,134.92,78.81Z"/></svg>