<svg id="레이어_1" data-name="레이어 1" xmlns="http://www.w3.org/2000/svg" width="210" height="210" viewBox="0 0 210 210">
  <defs>
    <style>
      .cls-1, .cls-4 {
        fill: #fff;
      }

      .cls-1 {
        fill-opacity: 0;
      }

      .cls-2 {
        fill: #f1f1f1;
      }

      .cls-3 {
        fill: none;
        stroke-width: 1.5px;
      }

      .cls-3, .cls-4 {
        stroke: #26cad3;
        stroke-miterlimit: 10;
      }

      .cls-5 {
        fill: #26cad3;
      }
    </style>
  </defs>
  <title>helpDisplay</title>
  <rect class="cls-1" width="210" height="210"/>
  <path class="cls-2" d="M99.85,113.2,47.06,143.7a4,4,0,0,0,0,6.94l52.79,30.5a10.24,10.24,0,0,0,10.24,0l52.81-30.49a4,4,0,0,0,0-6.94L110.12,113.2A10.24,10.24,0,0,0,99.85,113.2Z"/>
  <path class="cls-3" d="M154.28,107.87V96.11a3.34,3.34,0,0,0-.21-1.9v-.08a3.23,3.23,0,0,0-.22-.33l-.08-.12-.2-.26-.11-.12-.25-.24-.12-.1a3.39,3.39,0,0,0-.41-.29h0L109.22,67.55A8.43,8.43,0,0,0,105,66.42h-.07a8.42,8.42,0,0,0-4.15,1.13l-7.13,4.12-36.35,21a3.39,3.39,0,0,0-.42.29l-.11.1-.25.24-.11.12-.2.27-.08.12a3.23,3.23,0,0,0-.17.33v.08a3.34,3.34,0,0,0-.21,1.9v11.77a3.37,3.37,0,0,0,0,1.14v29a3.28,3.28,0,0,0,1.55,3.47l43.48,25.1a8.43,8.43,0,0,0,8.43,0l43.48-25.1a3.28,3.28,0,0,0,1.59-3.45v-29A3.37,3.37,0,0,0,154.28,107.87Z"/>
  <path class="cls-4" d="M154.28,138V95.5H55.71V138a3.28,3.28,0,0,0,1.59,3.49l43.48,25.1a8.43,8.43,0,0,0,8.43,0l43.48-25.1A3.28,3.28,0,0,0,154.28,138Z"/>
  <path class="cls-4" d="M154.28,96.11a3.28,3.28,0,0,0-1.59-3.45L109.22,67.55a8.43,8.43,0,0,0-8.43,0L57.3,92.65a3.28,3.28,0,0,0-1.59,3.45v11.76a3.28,3.28,0,0,0,1.59,3.45l43.48,25.1a8.43,8.43,0,0,0,8.43,0l43.47-25.1a3.28,3.28,0,0,0,1.59-3.45V96.11Z"/>
  <polygon class="cls-4" points="55.72 95.5 55.72 95.52 105 123.97 154.28 95.52 154.28 95.5 105 67.05 55.72 95.5"/>
  <path class="cls-4" d="M59.41,112.5V127c0,2.35,1.93,5.39,4.28,6.75L97,153c2.35,1.36,4.28.54,4.28-1.81V136.71Z"/>
  <path class="cls-4" d="M95,148.81h0a5.29,5.29,0,0,1-3.09-4.4v-7.3c0-1.7,1.39-2.5,3.09-1.78h0a5.29,5.29,0,0,1,3.09,4.4V147C98.06,148.72,96.67,149.5,95,148.81Z"/>
  <path class="cls-4" d="M65.73,132h0a5.29,5.29,0,0,1-3.09-4.4v-7.3c0-1.7,1.39-2.5,3.09-1.78h0a5.29,5.29,0,0,1,3.09,4.4v7.3C68.85,131.88,67.43,132.68,65.73,132Z"/>
  <path class="cls-5" d="M87.73,137a.68.68,0,0,1-1,.64,1.58,1.58,0,0,1-1-1.36.68.68,0,0,1,1-.64A1.58,1.58,0,0,1,87.73,137Z"/>
  <path class="cls-5" d="M84.54,135.07a.68.68,0,0,1-1,.64,1.58,1.58,0,0,1-1-1.36.68.68,0,0,1,1-.64A1.58,1.58,0,0,1,84.54,135.07Z"/>
  <path class="cls-5" d="M81.35,133.12a.68.68,0,0,1-1,.64,1.58,1.58,0,0,1-1-1.36.68.68,0,0,1,1-.64A1.58,1.58,0,0,1,81.35,133.12Z"/>
  <path class="cls-5" d="M78.16,131.16a.68.68,0,0,1-1,.64,1.58,1.58,0,0,1-1-1.36.68.68,0,0,1,1-.64A1.58,1.58,0,0,1,78.16,131.16Z"/>
  <path class="cls-5" d="M75,129.21a.68.68,0,0,1-1,.64,1.58,1.58,0,0,1-1-1.36.68.68,0,0,1,1-.64A1.58,1.58,0,0,1,75,129.21Z"/>
  <path class="cls-5" d="M84.54,138.5a.68.68,0,0,1-1,.64,1.58,1.58,0,0,1-1-1.36.68.68,0,0,1,1-.64A1.58,1.58,0,0,1,84.54,138.5Z"/>
  <path class="cls-5" d="M81.35,136.58a.68.68,0,0,1-1,.64,1.58,1.58,0,0,1-1-1.36.68.68,0,0,1,1-.64A1.58,1.58,0,0,1,81.35,136.58Z"/>
  <path class="cls-5" d="M78.16,134.63a.68.68,0,0,1-1,.64,1.58,1.58,0,0,1-1-1.36.68.68,0,0,1,1-.64A1.58,1.58,0,0,1,78.16,134.63Z"/>
  <path class="cls-4" d="M150.58,112.5V127c0,2.35-1.93,5.39-4.28,6.75L113,153.05c-2.35,1.36-4.28.54-4.28-1.81V136.71Z"/>
  <path class="cls-4" d="M115,148.81h0a5.29,5.29,0,0,0,3.09-4.4v-7.3c0-1.7-1.39-2.5-3.09-1.78h0a5.29,5.29,0,0,0-3.09,4.4V147C111.93,148.72,113.32,149.5,115,148.81Z"/>
  <path class="cls-4" d="M144.26,132h0a5.29,5.29,0,0,0,3.09-4.4v-7.3c0-1.7-1.39-2.5-3.09-1.78h0a5.29,5.29,0,0,0-3.09,4.4v7.3C141.17,131.88,142.56,132.68,144.26,132Z"/>
  <path class="cls-5" d="M122.26,137a.68.68,0,0,0,1,.64,1.58,1.58,0,0,0,1-1.36.68.68,0,0,0-1-.64A1.58,1.58,0,0,0,122.26,137Z"/>
  <path class="cls-5" d="M125.45,135.07a.68.68,0,0,0,1,.64,1.58,1.58,0,0,0,1-1.36.68.68,0,0,0-1-.64A1.58,1.58,0,0,0,125.45,135.07Z"/>
  <path class="cls-5" d="M128.64,133.12a.68.68,0,0,0,1,.64,1.58,1.58,0,0,0,1-1.36.68.68,0,0,0-1-.64A1.58,1.58,0,0,0,128.64,133.12Z"/>
  <path class="cls-5" d="M131.85,131.16a.68.68,0,0,0,1,.64,1.58,1.58,0,0,0,1-1.36.68.68,0,0,0-1-.64A1.58,1.58,0,0,0,131.85,131.16Z"/>
  <path class="cls-5" d="M135,129.21a.68.68,0,0,0,1,.64,1.58,1.58,0,0,0,1-1.36.68.68,0,0,0-1-.64A1.58,1.58,0,0,0,135,129.21Z"/>
  <path class="cls-5" d="M125.45,138.5a.68.68,0,0,0,1,.64,1.58,1.58,0,0,0,1-1.36.68.68,0,0,0-1-.64A1.58,1.58,0,0,0,125.45,138.5Z"/>
  <path class="cls-5" d="M128.64,136.58a.68.68,0,0,0,1,.64,1.58,1.58,0,0,0,1-1.36.68.68,0,0,0-1-.64A1.58,1.58,0,0,0,128.64,136.58Z"/>
  <path class="cls-5" d="M131.85,134.63a.68.68,0,0,0,1,.64,1.58,1.58,0,0,0,1-1.36.68.68,0,0,0-1-.64A1.58,1.58,0,0,0,131.85,134.63Z"/>
  <path class="cls-4" d="M100.78,67.55,57.3,92.65a3.3,3.3,0,0,0,0,5.71l43.48,25.14a8.43,8.43,0,0,0,8.43,0l43.47-25.1a3.3,3.3,0,0,0,0-5.71L109.22,67.55A8.43,8.43,0,0,0,100.78,67.55Z"/>
  <polygon class="cls-5" points="135.18 90.36 104.96 72.9 65.78 95.52 65.78 95.53 96 112.98 135.18 90.36"/>
</svg>
