<svg id="레이어_1" data-name="레이어 1" xmlns="http://www.w3.org/2000/svg" width="210" height="210" viewBox="0 0 210 210">
  <defs>
    <style>
      .cls-1, .cls-2, .cls-3 {
        fill: #fff;
      }

      .cls-1 {
        fill-opacity: 0;
      }

      .cls-2, .cls-3 {
        stroke: #26cad3;
        stroke-miterlimit: 10;
      }

      .cls-3 {
        stroke-width: 1.5px;
      }

      .cls-4 {
        fill: #f1f1f1;
      }

      .cls-5 {
        fill: #26cad3;
      }
    </style>
  </defs>
  <title>helpDial</title>
  <rect class="cls-1" width="210" height="210"/>
  <path class="cls-2" d="M65.73,132h0a5.29,5.29,0,0,1-3.09-4.4v-7.3c0-1.7,1.39-2.5,3.09-1.78h0a5.29,5.29,0,0,1,3.09,4.4v7.3C68.85,131.88,67.43,132.68,65.73,132Z"/>
  <path class="cls-3" d="M154.25,138V109a3.37,3.37,0,0,0,0-1.15V96.11a3.34,3.34,0,0,0-.21-1.9V94.13a3.21,3.21,0,0,0-.17-0.33l-0.08-.12-0.2-.26-0.11-.12-0.25-.24-0.12-.1a3.4,3.4,0,0,0-.42-0.29h0L127.94,78.38v-12c0-5.78-10.28-10.47-23-10.47S82,60.64,82,66.42v12L57.27,92.66a3.38,3.38,0,0,0-.42.29l-0.11.1-0.25.24-0.1.12-0.2.27-0.08.12a3.23,3.23,0,0,0-.17.33v0.08a3.34,3.34,0,0,0-.21,1.9v11.77a3.38,3.38,0,0,0,0,1.14v29a3.28,3.28,0,0,0,1.59,3.45l43.48,25.1a8.43,8.43,0,0,0,8.43,0l43.47-25.1A3.28,3.28,0,0,0,154.25,138Z"/>
  <path class="cls-4" d="M99.85,113.2L47,143.7a4,4,0,0,0,0,6.94l52.82,30.5a10.24,10.24,0,0,0,10.24,0l52.81-30.49a4,4,0,0,0,0-6.94l-52.81-30.5A10.24,10.24,0,0,0,99.85,113.2Z"/>
  <path class="cls-3" d="M154.25,138V95.51H55.68V138a3.28,3.28,0,0,0,1.59,3.45l43.48,25.1a8.43,8.43,0,0,0,8.43,0l43.47-25.1A3.28,3.28,0,0,0,154.25,138Z"/>
  <path class="cls-2" d="M154.25,96.11a3.28,3.28,0,0,0-1.59-3.45L109.19,67.55a8.43,8.43,0,0,0-8.43,0L57.27,92.66a3.28,3.28,0,0,0-1.59,3.45v11.76a3.28,3.28,0,0,0,1.59,3.45l43.48,25.1a8.43,8.43,0,0,0,8.43,0l43.47-25.1a3.28,3.28,0,0,0,1.59-3.45V96.11h0Z"/>
  <path class="cls-2" d="M59.38,112.53v14.54c0,2.35,1.93,5.39,4.28,6.75L97,153.05c2.35,1.36,4.28.54,4.28-1.81V136.71Z"/>
  <path class="cls-2" d="M94.94,148.81h0a5.29,5.29,0,0,1-3.09-4.4v-7.3c0-1.7,1.39-2.5,3.09-1.78h0a5.29,5.29,0,0,1,3.09,4.4V147C98,148.72,96.64,149.52,94.94,148.81Z"/>
  <path class="cls-2" d="M65.7,132h0a5.29,5.29,0,0,1-3.09-4.4v-7.3c0-1.7,1.39-2.5,3.09-1.78h0a5.29,5.29,0,0,1,3.09,4.4v7.3C68.79,131.88,67.4,132.68,65.7,132Z"/>
  <path class="cls-5" d="M87.7,137a0.68,0.68,0,0,1-1,.64,1.58,1.58,0,0,1-1-1.36,0.68,0.68,0,0,1,1-.64A1.58,1.58,0,0,1,87.7,137Z"/>
  <path class="cls-5" d="M84.51,135.07a0.68,0.68,0,0,1-1,.64,1.58,1.58,0,0,1-1-1.36,0.68,0.68,0,0,1,1-.64A1.58,1.58,0,0,1,84.51,135.07Z"/>
  <path class="cls-5" d="M81.32,133.12a0.68,0.68,0,0,1-1,.64,1.58,1.58,0,0,1-1-1.36,0.68,0.68,0,0,1,1-.64A1.58,1.58,0,0,1,81.32,133.12Z"/>
  <path class="cls-5" d="M78.13,131.16a0.68,0.68,0,0,1-1,.64,1.58,1.58,0,0,1-1-1.36,0.68,0.68,0,0,1,1-.64A1.58,1.58,0,0,1,78.13,131.16Z"/>
  <path class="cls-5" d="M74.94,129.21a0.68,0.68,0,0,1-1,.64,1.58,1.58,0,0,1-1-1.36,0.68,0.68,0,0,1,1-.64A1.58,1.58,0,0,1,74.94,129.21Z"/>
  <path class="cls-5" d="M84.51,138.54a0.68,0.68,0,0,1-1,.64,1.58,1.58,0,0,1-1-1.36,0.68,0.68,0,0,1,1-.64A1.58,1.58,0,0,1,84.51,138.54Z"/>
  <path class="cls-5" d="M81.32,136.58a0.68,0.68,0,0,1-1,.64,1.58,1.58,0,0,1-1-1.36,0.68,0.68,0,0,1,1-.64A1.58,1.58,0,0,1,81.32,136.58Z"/>
  <path class="cls-5" d="M78.13,134.63a0.68,0.68,0,0,1-1,.64,1.58,1.58,0,0,1-1-1.36,0.68,0.68,0,0,1,1-.64A1.58,1.58,0,0,1,78.13,134.63Z"/>
  <path class="cls-2" d="M129.35,124.77l21.2-12.24v14.54c0,2.35-1.93,5.39-4.28,6.75L113,153.06c-2.35,1.36-4.28.54-4.28-1.81V136.71l20.68-11.94"/>
  <path class="cls-2" d="M115,148.81h0a5.29,5.29,0,0,0,3.09-4.4v-7.3c0-1.7-1.39-2.5-3.09-1.78h0a5.29,5.29,0,0,0-3.09,4.4V147C111.9,148.72,113.29,149.52,115,148.81Z"/>
  <path class="cls-2" d="M144.23,132h0a5.29,5.29,0,0,0,3.09-4.4v-7.3c0-1.7-1.39-2.5-3.09-1.78h0a5.29,5.29,0,0,0-3.09,4.4v7.3C141.14,131.88,142.53,132.68,144.23,132Z"/>
  <path class="cls-5" d="M122.23,137a0.68,0.68,0,0,0,1,.64,1.58,1.58,0,0,0,1-1.36,0.68,0.68,0,0,0-1-.64A1.58,1.58,0,0,0,122.23,137Z"/>
  <path class="cls-5" d="M125.42,135.07a0.68,0.68,0,0,0,1,.64,1.58,1.58,0,0,0,1-1.36,0.68,0.68,0,0,0-1-.64A1.58,1.58,0,0,0,125.42,135.07Z"/>
  <path class="cls-5" d="M128.61,133.12a0.68,0.68,0,0,0,1,.64,1.58,1.58,0,0,0,1-1.36,0.68,0.68,0,0,0-1-.64A1.58,1.58,0,0,0,128.61,133.12Z"/>
  <path class="cls-5" d="M131.8,131.16a0.68,0.68,0,0,0,1,.64,1.58,1.58,0,0,0,1-1.36,0.68,0.68,0,0,0-1-.64A1.58,1.58,0,0,0,131.8,131.16Z"/>
  <path class="cls-5" d="M135,129.21a0.68,0.68,0,0,0,1,.64,1.58,1.58,0,0,0,1-1.36,0.68,0.68,0,0,0-1-.64A1.58,1.58,0,0,0,135,129.21Z"/>
  <path class="cls-5" d="M125.42,138.54a0.68,0.68,0,0,0,1,.64,1.58,1.58,0,0,0,1-1.36,0.68,0.68,0,0,0-1-.64A1.58,1.58,0,0,0,125.42,138.54Z"/>
  <path class="cls-5" d="M128.61,136.58a0.68,0.68,0,0,0,1,.64,1.58,1.58,0,0,0,1-1.36,0.68,0.68,0,0,0-1-.64A1.58,1.58,0,0,0,128.61,136.58Z"/>
  <path class="cls-5" d="M131.8,134.63a0.68,0.68,0,0,0,1,.64,1.58,1.58,0,0,0,1-1.36,0.68,0.68,0,0,0-1-.64A1.58,1.58,0,0,0,131.8,134.63Z"/>
  <path class="cls-2" d="M100.75,67.55L57.27,92.66a3.3,3.3,0,0,0,0,5.71l43.48,25.1a8.43,8.43,0,0,0,8.43,0l43.47-25.1a3.3,3.3,0,0,0,0-5.71L109.19,67.55A8.43,8.43,0,0,0,100.75,67.55Z"/>
  <ellipse class="cls-5" cx="141.15" cy="95.18" rx="2.66" ry="1.21"/>
  <path class="cls-2" d="M82,66.42V94.58C82,100.36,92.28,105,105,105s23-4.69,23-10.47V66.42"/>
  <ellipse class="cls-2" cx="104.97" cy="66.42" rx="22.97" ry="10.47"/>
  <path class="cls-5" d="M93.48,73l5.95-3.42a1,1,0,0,0,0-1.77h0a1,1,0,0,0-1,0l-5.95,3.42a1,1,0,0,0,0,1.77h0A1,1,0,0,0,93.48,73Z"/>
</svg>
