<?xml version="1.0" encoding="utf-8"?>
<!-- Generator: Adobe Illustrator 17.0.0, SVG Export Plug-In . SVG Version: 6.00 Build 0)  -->
<!DOCTYPE svg PUBLIC "-//W3C//DTD SVG 1.1//EN" "http://www.w3.org/Graphics/SVG/1.1/DTD/svg11.dtd">
<svg version="1.1" id="Layer_1" xmlns="http://www.w3.org/2000/svg" xmlns:xlink="http://www.w3.org/1999/xlink" x="0px" y="0px"
	 width="210px" height="210px" viewBox="0 0 210 210" enable-background="new 0 0 210 210" xml:space="preserve">
<rect y="-0.031" opacity="0" fill="#FFFFFF" width="210" height="210"/>
<g>
	<path fill="none" stroke="#26CAD3" stroke-width="1.5" stroke-miterlimit="10" d="M141.72,100.636v-8.524
		c0.083-0.462,0.033-0.943-0.154-1.379c-0.009-0.02-0.019-0.04-0.028-0.06c-0.037-0.081-0.079-0.16-0.126-0.237
		c-0.018-0.03-0.037-0.058-0.056-0.087c-0.044-0.066-0.093-0.13-0.144-0.192c-0.025-0.03-0.05-0.061-0.077-0.09
		c-0.055-0.06-0.116-0.116-0.178-0.171c-0.028-0.025-0.054-0.051-0.084-0.075c-0.093-0.075-0.193-0.145-0.301-0.207l-0.004-0.003
		L109.06,71.413c-0.709-0.41-1.48-0.666-2.266-0.768c-0.262-0.034-0.526-0.051-0.79-0.051c-0.016,0-0.032,0.003-0.048,0.003
		c-1.039,0.008-2.077,0.278-3.008,0.816l-5.168,2.984L71.435,89.607c-0.11,0.063-0.211,0.135-0.305,0.21
		c-0.029,0.023-0.054,0.049-0.082,0.073c-0.063,0.056-0.124,0.113-0.18,0.173c-0.027,0.029-0.051,0.059-0.076,0.089
		c-0.052,0.062-0.1,0.126-0.145,0.193c-0.019,0.029-0.038,0.057-0.056,0.087c-0.047,0.077-0.089,0.156-0.126,0.237
		c-0.009,0.02-0.019,0.039-0.028,0.059c-0.187,0.436-0.237,0.917-0.154,1.379v8.527c-0.049,0.274-0.045,0.555,0,0.83v21.024
		c-0.168,0.936,0.213,1.958,1.153,2.5l31.514,18.194c1.891,1.092,4.22,1.092,6.111,0l31.507-18.191
		c0.94-0.543,1.321-1.564,1.153-2.501v-21.022C141.765,101.193,141.769,100.911,141.72,100.636z"/>
	<path fill="#FFFFFF" stroke="#26CAD3" stroke-width="1.5" stroke-miterlimit="10" d="M141.72,122.491V91.678H70.283v30.809
		c-0.168,0.936,0.213,1.958,1.153,2.5l31.514,18.194c1.891,1.092,4.22,1.092,6.111,0l31.507-18.191
		C141.507,124.449,141.888,123.427,141.72,122.491z"/>
	<path fill="#FFFFFF" stroke="#26CAD3" stroke-miterlimit="10" d="M141.72,92.112c0.168-0.936-0.213-1.958-1.152-2.501
		L109.06,71.413c-1.891-1.092-4.221-1.092-6.112-0.001L71.435,89.607c-0.94,0.543-1.321,1.564-1.153,2.501v8.525
		c-0.168,0.936,0.213,1.958,1.153,2.501l31.514,18.194c1.891,1.092,4.22,1.092,6.111,0l31.507-18.191
		c0.94-0.543,1.321-1.564,1.153-2.501V92.112z"/>
	<path fill="#FFFFFF" stroke="#26CAD3" stroke-miterlimit="10" d="M72.966,104.013v10.534c0,1.705,1.395,3.905,3.1,4.89
		l24.151,13.944c1.705,0.984,3.1,0.395,3.1-1.31v-10.534L72.966,104.013z"/>
	<g>
		<path fill="#FFFFFF" stroke="#26CAD3" stroke-miterlimit="10" d="M98.737,130.301L98.737,130.301
			c-1.232-0.521-2.239-1.954-2.239-3.186v-5.288c0-1.232,1.008-1.813,2.239-1.293l0,0c1.232,0.521,2.239,1.954,2.239,3.186v5.288
			C100.977,130.24,99.969,130.822,98.737,130.301z"/>
		<path fill="#FFFFFF" stroke="#26CAD3" stroke-miterlimit="10" d="M77.546,118.094L77.546,118.094
			c-1.232-0.521-2.239-1.954-2.239-3.186v-5.288c0-1.232,1.008-1.813,2.239-1.293h0c1.232,0.521,2.239,1.954,2.239,3.186v5.288
			C79.786,118.033,78.778,118.615,77.546,118.094z"/>
	</g>
	<g>
		<path fill="#26CAD3" d="M93.489,121.765c0,0.4-0.324,0.606-0.724,0.46c-0.4-0.146-0.724-0.588-0.724-0.987
			c0-0.4,0.324-0.606,0.724-0.46C93.165,120.923,93.489,121.365,93.489,121.765z"/>
		<path fill="#26CAD3" d="M91.177,120.348c0,0.4-0.324,0.606-0.724,0.46c-0.4-0.146-0.724-0.588-0.724-0.987
			c0-0.4,0.324-0.606,0.724-0.46C90.853,119.507,91.177,119.949,91.177,120.348z"/>
		<path fill="#26CAD3" d="M88.866,118.932c0,0.4-0.324,0.606-0.724,0.46c-0.4-0.146-0.724-0.588-0.724-0.987
			c0-0.4,0.324-0.606,0.724-0.46C88.542,118.09,88.866,118.532,88.866,118.932z"/>
		<path fill="#26CAD3" d="M86.554,117.515c0,0.4-0.324,0.606-0.724,0.46c-0.4-0.146-0.724-0.588-0.724-0.987
			c0-0.4,0.324-0.606,0.724-0.46C86.23,116.673,86.554,117.115,86.554,117.515z"/>
		<path fill="#26CAD3" d="M84.243,116.098c0,0.4-0.324,0.606-0.724,0.46c-0.4-0.146-0.724-0.588-0.724-0.987
			c0-0.4,0.324-0.606,0.724-0.46C83.918,115.256,84.243,115.698,84.243,116.098z"/>
		<path fill="#26CAD3" d="M91.177,122.859c0,0.4-0.324,0.606-0.724,0.46c-0.4-0.146-0.724-0.588-0.724-0.987
			c0-0.4,0.324-0.606,0.724-0.46C90.853,122.017,91.177,122.459,91.177,122.859z"/>
		<path fill="#26CAD3" d="M88.866,121.442c0,0.4-0.324,0.606-0.724,0.46c-0.4-0.146-0.724-0.588-0.724-0.987
			c0-0.4,0.324-0.606,0.724-0.46C88.542,120.6,88.866,121.042,88.866,121.442z"/>
		<path fill="#26CAD3" d="M86.554,120.025c0,0.4-0.324,0.606-0.724,0.46c-0.4-0.146-0.724-0.588-0.724-0.987s0.324-0.606,0.724-0.46
			C86.23,119.183,86.554,119.626,86.554,120.025z"/>
	</g>
	<path fill="#FFFFFF" stroke="#26CAD3" stroke-miterlimit="10" d="M139.036,104.013v10.534c0,1.705-1.395,3.905-3.1,4.89
		l-24.151,13.944c-1.705,0.984-3.1,0.395-3.1-1.31v-10.534L139.036,104.013z"/>
	<g>
		<path fill="#FFFFFF" stroke="#26CAD3" stroke-miterlimit="10" d="M113.265,130.301L113.265,130.301
			c1.232-0.521,2.239-1.954,2.239-3.186v-5.288c0-1.232-1.008-1.813-2.239-1.293h0c-1.232,0.521-2.239,1.954-2.239,3.186v5.288
			C111.026,130.24,112.033,130.822,113.265,130.301z"/>
		<path fill="#FFFFFF" stroke="#26CAD3" stroke-miterlimit="10" d="M134.456,118.094L134.456,118.094
			c1.232-0.521,2.239-1.954,2.239-3.186v-5.288c0-1.232-1.008-1.813-2.239-1.293l0,0c-1.232,0.521-2.239,1.954-2.239,3.186v5.288
			C132.217,118.033,133.225,118.615,134.456,118.094z"/>
	</g>
	<g>
		<path fill="#26CAD3" d="M118.513,121.765c0,0.4,0.324,0.606,0.724,0.46c0.4-0.146,0.724-0.588,0.724-0.987
			c0-0.4-0.324-0.606-0.724-0.46C118.837,120.923,118.513,121.365,118.513,121.765z"/>
		<path fill="#26CAD3" d="M120.825,120.348c0,0.4,0.324,0.606,0.724,0.46c0.4-0.146,0.724-0.588,0.724-0.987
			c0-0.4-0.324-0.606-0.724-0.46C121.149,119.507,120.825,119.949,120.825,120.348z"/>
		<path fill="#26CAD3" d="M123.137,118.932c0,0.4,0.324,0.606,0.724,0.46c0.4-0.146,0.724-0.588,0.724-0.987
			c0-0.4-0.324-0.606-0.724-0.46C123.461,118.09,123.137,118.532,123.137,118.932z"/>
		<path fill="#26CAD3" d="M125.448,117.515c0,0.4,0.324,0.606,0.724,0.46c0.4-0.146,0.724-0.588,0.724-0.987
			c0-0.4-0.324-0.606-0.724-0.46C125.772,116.673,125.448,117.115,125.448,117.515z"/>
		<path fill="#26CAD3" d="M127.76,116.098c0,0.4,0.324,0.606,0.724,0.46c0.4-0.146,0.724-0.588,0.724-0.987
			c0-0.4-0.324-0.606-0.724-0.46C128.084,115.256,127.76,115.698,127.76,116.098z"/>
		<path fill="#26CAD3" d="M120.825,122.859c0,0.4,0.324,0.606,0.724,0.46c0.4-0.146,0.724-0.588,0.724-0.987
			c0-0.4-0.324-0.606-0.724-0.46C121.149,122.017,120.825,122.459,120.825,122.859z"/>
		<path fill="#26CAD3" d="M123.137,121.442c0,0.4,0.324,0.606,0.724,0.46c0.4-0.146,0.724-0.588,0.724-0.987
			c0-0.4-0.324-0.606-0.724-0.46C123.461,120.6,123.137,121.042,123.137,121.442z"/>
		<path fill="#26CAD3" d="M125.448,120.025c0,0.4,0.324,0.606,0.724,0.46c0.4-0.146,0.724-0.588,0.724-0.987
			s-0.324-0.606-0.724-0.46C125.772,119.183,125.448,119.626,125.448,120.025z"/>
	</g>
	<path fill="#FFFFFF" stroke="#26CAD3" stroke-miterlimit="10" d="M102.948,71.413L71.435,89.607c-1.594,0.92-1.594,3.221,0,4.142
		l31.514,18.194c1.891,1.092,4.22,1.092,6.111,0l31.507-18.191c1.594-0.92,1.594-3.221,0-4.142L109.06,71.413
		C107.169,70.321,104.839,70.321,102.948,71.413z"/>
	<ellipse fill="#26CAD3" cx="132.222" cy="91.439" rx="1.926" ry="0.878"/>
	<g>
		
			<ellipse fill="#FFFFFF" stroke="#26CAD3" stroke-width="0.8" stroke-miterlimit="10" cx="86.253" cy="86.892" rx="4.199" ry="1.914"/>
		<g>
			<path fill="#26CAD3" d="M87.104,88.063c0.007,0.017,0.009,0.029,0.006,0.036c-0.003,0.007-0.012,0.016-0.027,0.027l-0.382,0.277
				c-0.033,0.024-0.058,0.035-0.076,0.034c-0.018-0.001-0.035-0.021-0.052-0.059l-0.64-1.309l-2.079-0.142
				c-0.055-0.004-0.085-0.012-0.089-0.023c-0.004-0.011,0.013-0.031,0.05-0.057l0.359-0.26c0.02-0.014,0.036-0.023,0.05-0.027
				c0.014-0.004,0.033-0.005,0.057-0.003l1.49,0.109l-0.425-0.881c-0.007-0.014-0.008-0.026-0.004-0.035
				c0.004-0.009,0.015-0.021,0.035-0.035l0.36-0.261c0.037-0.027,0.064-0.04,0.084-0.04c0.019,0,0.037,0.017,0.053,0.05l0.576,1.232
				l2.214,0.167c0.065,0.004,0.099,0.011,0.104,0.021c0.005,0.011-0.009,0.028-0.042,0.051l-0.382,0.277
				c-0.015,0.011-0.028,0.018-0.038,0.021c-0.01,0.003-0.03,0.003-0.059,0.002l-1.605-0.12L87.104,88.063z"/>
		</g>
	</g>
	<g>
		
			<ellipse fill="#FFFFFF" stroke="#26CAD3" stroke-width="0.8" stroke-miterlimit="10" cx="86.253" cy="95.641" rx="4.199" ry="1.914"/>
		<g>
			<path fill="#26CAD3" d="M88.168,96.379c0.031,0.016,0.046,0.03,0.046,0.042c0,0.012-0.011,0.027-0.035,0.045l-0.313,0.227
				c-0.024,0.017-0.046,0.027-0.066,0.029c-0.02,0.002-0.045-0.005-0.076-0.021l-1.179-0.61l-2.43-0.214
				c-0.05-0.004-0.081-0.012-0.09-0.022c-0.01-0.01,0.004-0.029,0.041-0.056l0.343-0.249c0.033-0.024,0.074-0.033,0.125-0.029
				l1.812,0.174l-0.604-1.051c-0.016-0.03-0.009-0.055,0.019-0.075l0.36-0.261c0.037-0.027,0.065-0.036,0.084-0.028
				c0.019,0.008,0.035,0.027,0.048,0.055l0.737,1.433L88.168,96.379z"/>
		</g>
	</g>
	
		<line fill="#FFFFFF" stroke="#26CAD3" stroke-width="0.5" stroke-linecap="round" stroke-miterlimit="10" x1="81.194" y1="89.353" x2="82.616" y2="88.503"/>
	
		<line fill="#FFFFFF" stroke="#26CAD3" stroke-width="0.5" stroke-linecap="round" stroke-miterlimit="10" x1="81.948" y1="93.011" x2="83.42" y2="93.77"/>
	<path fill="#FFFFFF" stroke="#26CAD3" stroke-miterlimit="10" d="M58.568,92.793c0.903-6.509,4.563-12.88,11.109-18.203
		c17.048-13.865,47.139-15.375,67.208-3.373c9.759,5.836,15.339,13.794,16.549,22.023c1.449-10.443-4.216-21.239-16.58-28.633
		c-20.07-12.002-50.16-10.492-67.208,3.373C60.888,75.102,57.289,84.099,58.568,92.793z"/>
	<g>
		<path fill="#26CAD3" stroke="#26CAD3" stroke-width="1.5" stroke-miterlimit="10" d="M75.148,121.425
			c9.106,5.446,20.275,8.099,31.352,8.089l1.006,4.599c6.971-5.123,11.646-9.471,11.646-9.471c-5.32-1.817-15.214-6.84-15.214-6.84
			l1.114,5.091c-10.609-0.209-21.217-2.863-29.935-8.076c-9.759-5.836-15.339-13.794-16.55-22.023
			C57.118,103.235,62.784,114.032,75.148,121.425z"/>
		<path fill="#26CAD3" stroke="#26CAD3" stroke-width="1.5" stroke-miterlimit="10" d="M129.101,118.904l1,6.23
			c4.516-1.811,8.676-4.17,12.255-7.081c8.758-7.123,12.357-16.12,11.078-24.813c-0.903,6.508-4.563,12.88-11.109,18.203
			C138.491,114.561,133.993,117.049,129.101,118.904z"/>
	</g>
	
		<line fill="none" stroke="#26CAD3" stroke-width="2" stroke-linecap="round" stroke-linejoin="round" stroke-miterlimit="10" stroke-dasharray="3,5" x1="106.001" y1="146.56" x2="106.001" y2="178.326"/>
	<g>
		<g>
			<path fill="#26CAD3" d="M101.913,45.317c-0.226-0.13-0.338-0.314-0.338-0.552V43.5c0-0.083,0.021-0.154,0.062-0.213
				c0.041-0.059,0.08-0.109,0.116-0.147l5.597-6.162l-5.259-3.036c-0.13-0.075-0.22-0.154-0.268-0.235
				c-0.047-0.081-0.071-0.186-0.071-0.317v-1.533c0-0.13,0.023-0.209,0.071-0.235c0.047-0.026,0.137-0.001,0.268,0.074l7.86,4.538
				c0.154,0.089,0.253,0.172,0.294,0.25c0.042,0.078,0.062,0.182,0.062,0.313v1.443c0,0.06-0.012,0.115-0.035,0.167
				c-0.024,0.052-0.053,0.091-0.09,0.117l-5.721,6.019l5.758,3.324c0.13,0.075,0.219,0.153,0.267,0.234
				c0.047,0.081,0.071,0.187,0.071,0.317v1.533c0,0.131-0.024,0.209-0.071,0.236c-0.047,0.025-0.137,0.001-0.267-0.074
				L101.913,45.317z"/>
		</g>
		
			<line fill="none" stroke="#26CAD3" stroke-width="2" stroke-linecap="round" stroke-linejoin="round" stroke-miterlimit="10" stroke-dasharray="3,5" x1="106.002" y1="87.973" x2="106.002" y2="50.418"/>
	</g>
	<g>
		
			<ellipse fill="#FFFFFF" stroke="#26CAD3" stroke-width="0.8" stroke-miterlimit="10" cx="78.641" cy="91.267" rx="4.199" ry="1.914"/>
		<g>
			<path fill="#26CAD3" d="M79.346,92.595c-0.041,0.03-0.087,0.032-0.138,0.006l-0.271-0.14c-0.018-0.009-0.032-0.021-0.042-0.036
				c-0.01-0.015-0.018-0.028-0.025-0.039l-0.985-1.784L76.922,91.3c-0.024,0.017-0.046,0.026-0.066,0.027
				c-0.02,0-0.044-0.007-0.072-0.021l-0.328-0.17c-0.028-0.014-0.043-0.028-0.046-0.04c-0.003-0.012,0.008-0.027,0.032-0.044
				l1.44-1.045c0.028-0.021,0.052-0.031,0.071-0.03c0.019,0,0.043,0.008,0.071,0.022l0.309,0.16
				c0.013,0.007,0.024,0.015,0.034,0.025c0.01,0.01,0.016,0.021,0.02,0.031l0.947,1.793l1.055-0.765
				c0.024-0.017,0.046-0.026,0.066-0.027c0.02,0,0.044,0.007,0.072,0.021l0.328,0.17c0.028,0.014,0.043,0.028,0.046,0.04
				c0.003,0.012-0.008,0.027-0.032,0.044L79.346,92.595z"/>
		</g>
	</g>
	<g>
		<path fill="#26CAD3" d="M32.31,58.973c-7.592,0-13.747,6.155-13.747,13.747s6.155,13.747,13.747,13.747
			c7.592,0,13.747-6.155,13.747-13.747S39.902,58.973,32.31,58.973z M30.775,63.729c-5.357,0-9.731,4.209-9.996,9.5
			c-0.007-0.169-0.013-0.338-0.013-0.508c0-6.375,5.168-11.544,11.544-11.544c3.363,0,6.388,1.439,8.498,3.733l-2.534,2.203
			C36.44,65.039,33.761,63.729,30.775,63.729z M38.869,67.853l2.551-2.218c0.712,0.914,1.291,1.938,1.704,3.042l-3.166,1.08
			C39.664,69.081,39.298,68.443,38.869,67.853z M40.732,72.721c-0.072-0.717-0.223-1.411-0.439-2.075l3.124-1.066
			c0.282,0.999,0.436,2.052,0.436,3.141H40.732z"/>
		<path fill="#FFFFFF" d="M33.572,71.271c-0.18-0.149-0.389-0.268-0.624-0.344c-1-0.325-2.074,0.222-2.399,1.222
			c-0.325,1,0.222,2.074,1.222,2.399c0.235,0.076,0.475,0.103,0.708,0.088l9.294,1.16L33.572,71.271z"/>
	</g>
</g>
</svg>
