<svg id="레이어_1" data-name="레이어 1" xmlns="http://www.w3.org/2000/svg" width="210" height="210" viewBox="0 0 210 210"><defs><style>.cls-1,.cls-3,.cls-4{fill:#fff;}.cls-1{opacity:0;}.cls-2{fill:#f1f1f1;}.cls-10,.cls-3,.cls-4,.cls-6,.cls-7,.cls-8,.cls-9{stroke:#26cad3;stroke-miterlimit:10;}.cls-3{stroke-width:1.5px;}.cls-5{fill:#26cad3;}.cls-10,.cls-6,.cls-7,.cls-8,.cls-9{fill:none;}.cls-10,.cls-7,.cls-8,.cls-9{stroke-width:2px;}.cls-7{opacity:0.5;}.cls-8{opacity:0.4;}.cls-9{opacity:0.3;}.cls-10{opacity:0.2;}</style></defs><title>helpUltrasonic</title><rect class="cls-1" width="210" height="210"/><path class="cls-2" d="M131,118.57L94.4,97.44a7.1,7.1,0,0,0-7.1,0L50.74,118.55h0l-36.6,21.13a2.78,2.78,0,0,0,0,4.81l36.6,21.13a7.1,7.1,0,0,0,7.1,0l36.56-21.11h0L131,123.38A2.78,2.78,0,0,0,131,118.57Z" transform="translate(26.29 4.68)"/><path class="cls-3" d="M125,85.31a2.25,2.25,0,0,0-1.13-2.11L93.75,65.8a5.84,5.84,0,0,0-5.84,0L21.24,104.31a2.27,2.27,0,0,0-1,2.65H20.14v29.45a2.27,2.27,0,0,0,1.1,2.39l30.12,17.39a5.84,5.84,0,0,0,5.84,0L123.86,117a2.27,2.27,0,0,0,1.1-2.39l0-29.32h0Z" transform="translate(26.29 4.68)"/><path class="cls-4" d="M125,85.59a2.27,2.27,0,0,0-1.1-2.39L93.75,65.8a5.84,5.84,0,0,0-5.84,0L21.24,104.31a2.27,2.27,0,0,0-1.1,2.39v8.15a2.27,2.27,0,0,0,1.1,2.39l30.12,17.39a5.84,5.84,0,0,0,5.84,0l66.66-38.51a2.27,2.27,0,0,0,1.1-2.39V85.59Z" transform="translate(26.29 4.68)"/><path class="cls-4" d="M87.9,65.8L21.24,104.31a2.29,2.29,0,0,0,0,4l30.13,17.39a5.84,5.84,0,0,0,5.84,0l66.66-38.51a2.29,2.29,0,0,0,0-4L93.75,65.8A5.84,5.84,0,0,0,87.9,65.8Z" transform="translate(26.29 4.68)"/><ellipse class="cls-5" cx="80.57" cy="124.97" rx="1.84" ry="0.84"/><path class="cls-4" d="M47.34,143.22h0a3.66,3.66,0,0,1-2.14-3v-5.06c0-1.18,1-1.73,2.14-1.24h0a3.66,3.66,0,0,1,2.14,3V142C49.48,143.16,48.51,143.71,47.34,143.22Z" transform="translate(26.29 4.68)"/><path class="cls-4" d="M27.08,131.55h0a3.66,3.66,0,0,1-2.14-3v-5.06c0-1.18,1-1.73,2.14-1.24h0a3.66,3.66,0,0,1,2.14,3v5.06C29.22,131.49,28.26,132,27.08,131.55Z" transform="translate(26.29 4.68)"/><path class="cls-5" d="M42.32,135.06a0.47,0.47,0,0,1-.69.44,1.09,1.09,0,0,1-.69-0.94,0.47,0.47,0,0,1,.69-0.44A1.09,1.09,0,0,1,42.32,135.06Z" transform="translate(26.29 4.68)"/><path class="cls-5" d="M40.11,133.7a0.47,0.47,0,0,1-.69.44,1.09,1.09,0,0,1-.69-0.94,0.47,0.47,0,0,1,.69-0.44A1.09,1.09,0,0,1,40.11,133.7Z" transform="translate(26.29 4.68)"/><path class="cls-5" d="M37.9,132.35a0.47,0.47,0,0,1-.69.44,1.09,1.09,0,0,1-.69-0.94,0.47,0.47,0,0,1,.69-0.44A1.09,1.09,0,0,1,37.9,132.35Z" transform="translate(26.29 4.68)"/><path class="cls-5" d="M35.69,131a0.47,0.47,0,0,1-.69.44,1.09,1.09,0,0,1-.69-0.94A0.47,0.47,0,0,1,35,130,1.09,1.09,0,0,1,35.69,131Z" transform="translate(26.29 4.68)"/><path class="cls-5" d="M33.48,129.64a0.47,0.47,0,0,1-.69.44,1.09,1.09,0,0,1-.69-0.94,0.47,0.47,0,0,1,.69-0.44A1.09,1.09,0,0,1,33.48,129.64Z" transform="translate(26.29 4.68)"/><path class="cls-5" d="M40.11,136.1a0.47,0.47,0,0,1-.69.44,1.09,1.09,0,0,1-.69-0.94,0.47,0.47,0,0,1,.69-0.44A1.09,1.09,0,0,1,40.11,136.1Z" transform="translate(26.29 4.68)"/><path class="cls-5" d="M37.9,134.75a0.47,0.47,0,0,1-.69.44,1.09,1.09,0,0,1-.69-0.94,0.47,0.47,0,0,1,.69-0.44A1.09,1.09,0,0,1,37.9,134.75Z" transform="translate(26.29 4.68)"/><path class="cls-5" d="M35.69,133.39a0.47,0.47,0,0,1-.69.44,1.09,1.09,0,0,1-.69-0.94,0.47,0.47,0,0,1,.69-0.44A1.09,1.09,0,0,1,35.69,133.39Z" transform="translate(26.29 4.68)"/><path class="cls-4" d="M61.22,143.22h0a3.66,3.66,0,0,0,2.14-3v-5.06c0-1.18-1-1.73-2.14-1.24h0a3.66,3.66,0,0,0-2.14,3V142C59.08,143.16,60,143.71,61.22,143.22Z" transform="translate(26.29 4.68)"/><path class="cls-4" d="M81.48,131.55h0a3.66,3.66,0,0,0,2.14-3v-5.06c0-1.18-1-1.73-2.14-1.24h0a3.66,3.66,0,0,0-2.14,3v5.06C79.34,131.49,80.3,132,81.48,131.55Z" transform="translate(26.29 4.68)"/><path class="cls-5" d="M66.24,135.06a0.47,0.47,0,0,0,.69.44,1.09,1.09,0,0,0,.69-0.94,0.47,0.47,0,0,0-.69-0.44A1.09,1.09,0,0,0,66.24,135.06Z" transform="translate(26.29 4.68)"/><path class="cls-5" d="M68.45,133.7a0.47,0.47,0,0,0,.69.44,1.09,1.09,0,0,0,.69-0.94,0.47,0.47,0,0,0-.69-0.44A1.09,1.09,0,0,0,68.45,133.7Z" transform="translate(26.29 4.68)"/><path class="cls-5" d="M70.66,132.35a0.47,0.47,0,0,0,.69.44,1.09,1.09,0,0,0,.69-0.94,0.47,0.47,0,0,0-.69-0.44A1.09,1.09,0,0,0,70.66,132.35Z" transform="translate(26.29 4.68)"/><path class="cls-5" d="M72.87,131a0.47,0.47,0,0,0,.69.44,1.09,1.09,0,0,0,.69-0.94,0.47,0.47,0,0,0-.69-0.44A1.09,1.09,0,0,0,72.87,131Z" transform="translate(26.29 4.68)"/><path class="cls-5" d="M75.08,129.64a0.47,0.47,0,0,0,.69.44,1.09,1.09,0,0,0,.69-0.94,0.47,0.47,0,0,0-.69-0.44A1.09,1.09,0,0,0,75.08,129.64Z" transform="translate(26.29 4.68)"/><path class="cls-5" d="M68.45,136.1a0.47,0.47,0,0,0,.69.44,1.09,1.09,0,0,0,.69-0.94,0.47,0.47,0,0,0-.69-0.44A1.09,1.09,0,0,0,68.45,136.1Z" transform="translate(26.29 4.68)"/><path class="cls-5" d="M70.66,134.75a0.47,0.47,0,0,0,.69.44,1.09,1.09,0,0,0,.69-0.94,0.47,0.47,0,0,0-.69-0.44A1.09,1.09,0,0,0,70.66,134.75Z" transform="translate(26.29 4.68)"/><path class="cls-5" d="M72.87,133.39a0.47,0.47,0,0,0,.69.44,1.09,1.09,0,0,0,.69-0.94,0.47,0.47,0,0,0-.69-0.44A1.09,1.09,0,0,0,72.87,133.39Z" transform="translate(26.29 4.68)"/><path class="cls-6" d="M22.7,118.14v10.07a6.17,6.17,0,0,0,3,4.67l23.09,13.33c1.63,0.94,3,.38,3-1.25V134.89Z" transform="translate(26.29 4.68)"/><path class="cls-6" d="M85.86,118.14v10.07a6.17,6.17,0,0,1-3,4.67L59.81,146.21c-1.63.94-3,.38-3-1.25V134.89Z" transform="translate(26.29 4.68)"/><path class="cls-5" d="M83,84.59a0.31,0.31,0,0,0,.3-0.26c0.24-1.1,1.28-2.11,3-2.71a11.75,11.75,0,0,1,6-.27,0.3,0.3,0,0,0,.29-0.1l0.73-.84a0.31,0.31,0,0,0-.16-0.51,16.28,16.28,0,0,0-8.47.36c-2.55.88-4,2.37-4.24,4a0.31,0.31,0,0,0,.31.34H83Z" transform="translate(26.29 4.68)"/><path class="cls-5" d="M93.75,89A0.3,0.3,0,0,0,93.49,89c-3.12.7-6.94,0-9-1.78a4,4,0,0,1-1-1.3,0.3,0.3,0,0,0-.28-0.18H81.11a0.31,0.31,0,0,0-.28.45A5.44,5.44,0,0,0,82.25,88c2.8,2.43,8.07,3.43,12.38,2.48a0.31,0.31,0,0,0,.13-0.54Z" transform="translate(26.29 4.68)"/><path class="cls-5" d="M94.61,81.63a0.31,0.31,0,0,0,.11.48,7,7,0,0,1,1.59,1c1.95,1.69,1.6,3.79-.64,5a0.31,0.31,0,0,0-.06.51l1.09,0.94a0.32,0.32,0,0,0,.34,0c3.68-1.69,4.42-4.83,1.54-7.33a10.2,10.2,0,0,0-2.84-1.68,0.31,0.31,0,0,0-.35.09Z" transform="translate(26.29 4.68)"/><path class="cls-5" d="M93.19,85.63a0.32,0.32,0,0,0-.27.15,1.93,1.93,0,0,1-1,.69,4.29,4.29,0,0,1-1.71.19,0.3,0.3,0,0,0-.25.1l-0.75.86a0.31,0.31,0,0,0,.18.51,8.83,8.83,0,0,0,4.1-.3A3.43,3.43,0,0,0,95.71,86a0.31,0.31,0,0,0-.29-0.42H93.19Z" transform="translate(26.29 4.68)"/><path class="cls-5" d="M88.31,86l-0.22-.15a1,1,0,0,1-.22-1.56,0.3,0.3,0,0,0,0-.43l-1.2-1a0.31,0.31,0,0,0-.36,0c-1.68,1-1.93,2.56-.45,3.85a5.08,5.08,0,0,0,1,.68,0.31,0.31,0,0,0,.37-0.08Z" transform="translate(26.29 4.68)"/><path class="cls-5" d="M84.82,79.14a19.56,19.56,0,0,1,9.45,0,0.3,0.3,0,0,0,.3-0.1l0.73-.84a0.31,0.31,0,0,0-.16-0.51,24.27,24.27,0,0,0-11.49,0,0.31,0.31,0,0,0-.12.53l1,0.87A0.3,0.3,0,0,0,84.82,79.14Z" transform="translate(26.29 4.68)"/><path class="cls-5" d="M80.89,88.45a6,6,0,0,1-1.82-2.53,0.3,0.3,0,0,0-.29-0.21H76.68a0.31,0.31,0,0,0-.3.4,7.44,7.44,0,0,0,2.25,3.12,15.14,15.14,0,0,0,4.58,2.61,0.31,0.31,0,0,0,.35-0.09l0.76-.87a0.31,0.31,0,0,0-.12-0.48A11.87,11.87,0,0,1,80.89,88.45Z" transform="translate(26.29 4.68)"/><path class="cls-5" d="M99.93,81.87a6,6,0,0,1,1.82,2.53,0.3,0.3,0,0,0,.29.21h2.11a0.31,0.31,0,0,0,.3-0.4,7.44,7.44,0,0,0-2.25-3.12,15.14,15.14,0,0,0-4.58-2.61,0.31,0.31,0,0,0-.35.09l-0.76.87a0.31,0.31,0,0,0,.12.48A11.87,11.87,0,0,1,99.93,81.87Z" transform="translate(26.29 4.68)"/><path class="cls-5" d="M102,86c-0.15,1.68-1.44,3.26-3.74,4.35a0.31,0.31,0,0,0-.08.51l1.06,0.92a0.32,0.32,0,0,0,.33.05c3.29-1.38,5.1-3.52,5.21-5.8a0.31,0.31,0,0,0-.31-0.32h-2.16A0.31,0.31,0,0,0,102,86Z" transform="translate(26.29 4.68)"/><path class="cls-5" d="M78.86,84.29C79,82.61,80.29,81,82.6,79.94a0.31,0.31,0,0,0,.08-0.51l-1.06-.92a0.32,0.32,0,0,0-.33-0.05C78,79.84,76.2,82,76.09,84.26a0.31,0.31,0,0,0,.31.32h2.16A0.31,0.31,0,0,0,78.86,84.29Z" transform="translate(26.29 4.68)"/><path class="cls-5" d="M96,91.17a19.56,19.56,0,0,1-9.45,0,0.3,0.3,0,0,0-.3.1l-0.73.84a0.31,0.31,0,0,0,.16.51,24.27,24.27,0,0,0,11.49,0,0.31,0.31,0,0,0,.12-0.53l-1-.87A0.3,0.3,0,0,0,96,91.17Z" transform="translate(26.29 4.68)"/><path class="cls-5" d="M95.49,84.27c0-.07-0.07-0.14-0.12-0.21a3.1,3.1,0,0,0-.48-0.52A8.35,8.35,0,0,0,88.76,82a0.31,0.31,0,0,0-.17.54l1,0.89a0.3,0.3,0,0,0,.22.07,4.08,4.08,0,0,1,2.79.77,1.73,1.73,0,0,1,.16.17H95.3C95.51,84.46,95.51,84.35,95.49,84.27Z" transform="translate(26.29 4.68)"/><path class="cls-7" d="M104.69,74.62c5.67,4.71,3.79,10.91-4.18,13.86S81.46,90,75.8,85.3,72,74.39,80,71.44,99,69.91,104.69,74.62Z" transform="translate(26.29 4.68)"/><path class="cls-8" d="M109.4,65.19c7.52,6.24,5,14.47-5.55,18.38s-25.25,2-32.76-4.22-5-14.47,5.55-18.38S101.88,59,109.4,65.19Z" transform="translate(26.29 4.68)"/><path class="cls-9" d="M115.42,51.53c9.88,8.2,6.61,19-7.29,24.16s-33.18,2.66-43.06-5.54-6.61-19,7.29-24.16S105.54,43.33,115.42,51.53Z" transform="translate(26.29 4.68)"/><path class="cls-10" d="M122,36.07c12.47,10.35,8.34,24-9.2,30.49s-41.88,3.36-54.34-7-8.34-24,9.2-30.49S109.55,25.72,122,36.07Z" transform="translate(26.29 4.68)"/></svg>