<svg id="레이어_1" data-name="레이어 1" xmlns="http://www.w3.org/2000/svg" width="112" height="20" viewBox="0 0 112 20"><defs><style>.cls-1{fill:none;stroke:#26cad3;stroke-miterlimit:10;stroke-width:2px;}.cls-2{fill:#26cad3;}</style></defs><title>help-100~100</title><rect class="cls-1" x="1" y="1" width="110" height="18" rx="9" ry="9"/><path class="cls-2" d="M30.63,21a0.16,0.16,0,0,1-.11,0,0.13,0.13,0,0,1,0-.1v-1.2a0.13,0.13,0,0,1,0-.1,0.16,0.16,0,0,1,.11,0h3.14a0.15,0.15,0,0,1,.11,0,0.14,0.14,0,0,1,0,.1v1.2a0.14,0.14,0,0,1,0,.1,0.15,0.15,0,0,1-.11,0H30.63Z" transform="translate(-11.47 -10.33)"/><path class="cls-2" d="M37.53,25A0.24,0.24,0,0,1,37.35,25a0.31,0.31,0,0,1,0-.2V17.92l-0.73.7c-0.13.12-.23,0.13-0.3,0l-0.71-.8a0.14,0.14,0,0,1,0-.15,0.57,0.57,0,0,1,.14-0.16l1.85-1.73a0.44,0.44,0,0,1,.29-0.11h0.79a0.47,0.47,0,0,1,.31.06,0.75,0.75,0,0,1,0,.36v8.64a0.31,0.31,0,0,1,0,.19,0.22,0.22,0,0,1-.18.06H37.53Z" transform="translate(-11.47 -10.33)"/><path class="cls-2" d="M45.31,25.15A2.6,2.6,0,0,1,43,23.84a4.71,4.71,0,0,1-.56-1.51,9.83,9.83,0,0,1-.18-2q0-.48,0-1a7.47,7.47,0,0,1,.17-1.07,5.5,5.5,0,0,1,.35-1,3.27,3.27,0,0,1,.56-0.86,2.57,2.57,0,0,1,.83-0.59,2.72,2.72,0,0,1,1.13-.22,2.67,2.67,0,0,1,1.13.22,2.58,2.58,0,0,1,.82.59,3.13,3.13,0,0,1,.56.86,5.72,5.72,0,0,1,.34,1,7.63,7.63,0,0,1,.17,1.07c0,0.36,0,.7,0,1a9.73,9.73,0,0,1-.18,2,4.78,4.78,0,0,1-.56,1.51,2.74,2.74,0,0,1-1,1A2.66,2.66,0,0,1,45.31,25.15Zm0-8a1.09,1.09,0,0,0-.56.16,1.29,1.29,0,0,0-.46.53,3.55,3.55,0,0,0-.31,1,8.61,8.61,0,0,0-.11,1.53A8.7,8.7,0,0,0,44,21.92a3.45,3.45,0,0,0,.31,1,1.29,1.29,0,0,0,.46.53,1.1,1.1,0,0,0,1.13,0,1.3,1.3,0,0,0,.46-0.53,3.49,3.49,0,0,0,.31-1,8.7,8.7,0,0,0,.11-1.54,8.61,8.61,0,0,0-.11-1.53,3.58,3.58,0,0,0-.31-1,1.3,1.3,0,0,0-.46-0.53A1.1,1.1,0,0,0,45.31,17.16Z" transform="translate(-11.47 -10.33)"/><path class="cls-2" d="M52.58,25.15a2.6,2.6,0,0,1-2.36-1.31,4.71,4.71,0,0,1-.56-1.51,9.83,9.83,0,0,1-.18-2q0-.48,0-1a7.47,7.47,0,0,1,.17-1.07,5.5,5.5,0,0,1,.35-1,3.27,3.27,0,0,1,.56-0.86,2.57,2.57,0,0,1,.83-0.59,2.72,2.72,0,0,1,1.13-.22,2.67,2.67,0,0,1,1.13.22,2.58,2.58,0,0,1,.82.59,3.13,3.13,0,0,1,.56.86,5.72,5.72,0,0,1,.34,1,7.63,7.63,0,0,1,.17,1.07c0,0.36,0,.7,0,1a9.73,9.73,0,0,1-.18,2,4.78,4.78,0,0,1-.56,1.51,2.74,2.74,0,0,1-1,1A2.66,2.66,0,0,1,52.58,25.15Zm0-8a1.09,1.09,0,0,0-.56.16,1.29,1.29,0,0,0-.46.53,3.55,3.55,0,0,0-.31,1,8.61,8.61,0,0,0-.11,1.53,8.7,8.7,0,0,0,.11,1.54,3.45,3.45,0,0,0,.31,1,1.29,1.29,0,0,0,.46.53,1.1,1.1,0,0,0,1.13,0,1.3,1.3,0,0,0,.46-0.53,3.49,3.49,0,0,0,.31-1A8.7,8.7,0,0,0,54,20.37a8.61,8.61,0,0,0-.11-1.53,3.58,3.58,0,0,0-.31-1,1.3,1.3,0,0,0-.46-0.53A1.1,1.1,0,0,0,52.58,17.16Z" transform="translate(-11.47 -10.33)"/><path class="cls-2" d="M66.46,20.43a2.4,2.4,0,0,1-.76.76,1.87,1.87,0,0,1-1,.28A2.25,2.25,0,0,1,64,21.36l-0.69-.24-0.64-.24a1.59,1.59,0,0,0-.53-0.11,0.93,0.93,0,0,0-.55.22,3,3,0,0,0-.53.52,0.17,0.17,0,0,1-.16.1,0.42,0.42,0,0,1-.16-0.18l-0.44-.72a0.19,0.19,0,0,1,0-.14,0.62,0.62,0,0,1,0-.12,2,2,0,0,1,.78-0.76,2.27,2.27,0,0,1,1.09-.26,2.5,2.5,0,0,1,.67.1l0.7,0.22L64.17,20a1.44,1.44,0,0,0,.46.1A0.64,0.64,0,0,0,64.92,20a1.47,1.47,0,0,0,.28-0.18l0.25-.22,0.2-.2a0.39,0.39,0,0,1,.15-0.11,0.2,0.2,0,0,1,.15.11l0.54,0.76a0.22,0.22,0,0,1,.05.14A0.4,0.4,0,0,1,66.46,20.43Z" transform="translate(-11.47 -10.33)"/><path class="cls-2" d="M74,25A0.24,0.24,0,0,1,73.81,25a0.31,0.31,0,0,1,0-.2V17.92l-0.73.7c-0.13.12-.23,0.13-0.3,0L72,17.85a0.14,0.14,0,0,1,0-.15,0.57,0.57,0,0,1,.14-0.16L74,15.81a0.44,0.44,0,0,1,.29-0.11H75a0.47,0.47,0,0,1,.31.06,0.75,0.75,0,0,1,0,.36v8.64a0.31,0.31,0,0,1,0,.19,0.22,0.22,0,0,1-.18.06H74Z" transform="translate(-11.47 -10.33)"/><path class="cls-2" d="M81.76,25.15a2.6,2.6,0,0,1-2.36-1.31,4.71,4.71,0,0,1-.56-1.51,9.83,9.83,0,0,1-.18-2q0-.48,0-1a7.47,7.47,0,0,1,.17-1.07,5.5,5.5,0,0,1,.35-1,3.27,3.27,0,0,1,.56-0.86,2.57,2.57,0,0,1,.83-0.59,2.72,2.72,0,0,1,1.13-.22,2.67,2.67,0,0,1,1.13.22,2.58,2.58,0,0,1,.82.59,3.13,3.13,0,0,1,.56.86,5.72,5.72,0,0,1,.34,1,7.63,7.63,0,0,1,.17,1.07c0,0.36,0,.7,0,1a9.73,9.73,0,0,1-.18,2,4.78,4.78,0,0,1-.56,1.51,2.74,2.74,0,0,1-1,1A2.66,2.66,0,0,1,81.76,25.15Zm0-8a1.09,1.09,0,0,0-.56.16,1.29,1.29,0,0,0-.46.53,3.55,3.55,0,0,0-.31,1,8.61,8.61,0,0,0-.11,1.53,8.7,8.7,0,0,0,.11,1.54,3.45,3.45,0,0,0,.31,1,1.29,1.29,0,0,0,.46.53,1.1,1.1,0,0,0,1.13,0,1.3,1.3,0,0,0,.46-0.53,3.49,3.49,0,0,0,.31-1,8.7,8.7,0,0,0,.11-1.54,8.61,8.61,0,0,0-.11-1.53,3.58,3.58,0,0,0-.31-1,1.3,1.3,0,0,0-.46-0.53A1.1,1.1,0,0,0,81.76,17.16Z" transform="translate(-11.47 -10.33)"/><path class="cls-2" d="M89,25.15a2.6,2.6,0,0,1-2.36-1.31,4.71,4.71,0,0,1-.56-1.51,9.83,9.83,0,0,1-.18-2q0-.48,0-1a7.34,7.34,0,0,1,.17-1.07,5.49,5.49,0,0,1,.35-1,3.27,3.27,0,0,1,.56-0.86,2.56,2.56,0,0,1,.83-0.59A2.71,2.71,0,0,1,89,15.6a2.67,2.67,0,0,1,1.13.22,2.6,2.6,0,0,1,.82.59,3.18,3.18,0,0,1,.56.86,5.8,5.8,0,0,1,.34,1,7.49,7.49,0,0,1,.17,1.07q0,0.54,0,1a9.73,9.73,0,0,1-.18,2,4.78,4.78,0,0,1-.56,1.51,2.75,2.75,0,0,1-1,1A2.66,2.66,0,0,1,89,25.15Zm0-8a1.1,1.1,0,0,0-.56.16,1.3,1.3,0,0,0-.46.53,3.55,3.55,0,0,0-.31,1,8.61,8.61,0,0,0-.11,1.53,8.7,8.7,0,0,0,.11,1.54,3.46,3.46,0,0,0,.31,1,1.3,1.3,0,0,0,.46.53,1.1,1.1,0,0,0,1.13,0,1.3,1.3,0,0,0,.46-0.53,3.45,3.45,0,0,0,.31-1,8.7,8.7,0,0,0,.11-1.54,8.61,8.61,0,0,0-.11-1.53,3.55,3.55,0,0,0-.31-1,1.3,1.3,0,0,0-.46-0.53A1.09,1.09,0,0,0,89,17.16Z" transform="translate(-11.47 -10.33)"/><path class="cls-2" d="M97.76,19.92a1.77,1.77,0,0,1-.71.56,2.48,2.48,0,0,1-1,.17,2.41,2.41,0,0,1-1-.19,1.85,1.85,0,0,1-.68-0.53,2.15,2.15,0,0,1-.39-0.8,4.21,4.21,0,0,1,0-2,2.25,2.25,0,0,1,.39-0.82,1.91,1.91,0,0,1,.68-0.56,2.29,2.29,0,0,1,1-.2,2.25,2.25,0,0,1,1,.2,1.91,1.91,0,0,1,.68.56,2.33,2.33,0,0,1,.4.82,3.82,3.82,0,0,1,.13,1,3.75,3.75,0,0,1-.13,1A2.14,2.14,0,0,1,97.76,19.92ZM96.08,17a0.57,0.57,0,0,0-.52.26,1.67,1.67,0,0,0-.17.87,1.93,1.93,0,0,0,.15.79,0.54,0.54,0,0,0,.53.34A0.55,0.55,0,0,0,96.57,19a1.68,1.68,0,0,0,.17-0.87,1.67,1.67,0,0,0-.17-0.87A0.55,0.55,0,0,0,96.08,17Zm1.32,8.06a0.25,0.25,0,0,1-.14.14,0.78,0.78,0,0,1-.22,0H96a0.39,0.39,0,0,1-.23-0.05s0-.11,0-0.23l5.17-9.36a0.33,0.33,0,0,1,.11-0.12,0.42,0.42,0,0,1,.17,0h1.25a0.3,0.3,0,0,1,.25.07,0.28,0.28,0,0,1-.05.25Zm6.53-.73a1.77,1.77,0,0,1-.71.56,2.49,2.49,0,0,1-1,.17,2.41,2.41,0,0,1-1-.19,1.84,1.84,0,0,1-.68-0.53,2.14,2.14,0,0,1-.39-0.8,4.21,4.21,0,0,1,0-2,2.26,2.26,0,0,1,.39-0.82,1.91,1.91,0,0,1,.68-0.56,2.29,2.29,0,0,1,1-.2,2.25,2.25,0,0,1,1,.2,1.91,1.91,0,0,1,.68.56,2.34,2.34,0,0,1,.4.82,3.82,3.82,0,0,1,.13,1,3.75,3.75,0,0,1-.13,1A2.13,2.13,0,0,1,103.93,24.32Zm-1.68-2.93a0.57,0.57,0,0,0-.52.26,1.68,1.68,0,0,0-.17.87,1.93,1.93,0,0,0,.15.79,0.54,0.54,0,0,0,.53.34,0.55,0.55,0,0,0,.49-0.26,1.68,1.68,0,0,0,.17-0.87,1.68,1.68,0,0,0-.17-0.87A0.55,0.55,0,0,0,102.25,21.39Z" transform="translate(-11.47 -10.33)"/></svg>