<svg id="레이어_1" data-name="레이어 1" xmlns="http://www.w3.org/2000/svg" width="210" height="210" viewBox="0 0 210 210"><defs><style>.cls-1,.cls-4,.cls-5,.cls-7,.cls-8{fill:#fff;}.cls-1{fill-opacity:0;}.cls-2{fill:#f1f1f1;}.cls-3{fill:none;}.cls-3,.cls-4,.cls-5,.cls-7,.cls-8{stroke:#26cad3;stroke-miterlimit:10;}.cls-3,.cls-4{stroke-width:1.5px;}.cls-6{fill:#26cad3;}.cls-7{stroke-width:0.8px;}.cls-8{stroke-linecap:round;stroke-width:0.5px;}</style></defs><title>helpGyro</title><rect class="cls-1" width="210" height="210"/><path class="cls-2" d="M99.85,113.2L47,143.7a4,4,0,0,0,0,6.94l52.82,30.5a10.24,10.24,0,0,0,10.24,0l52.81-30.49a4,4,0,0,0,0-6.94l-52.81-30.5A10.24,10.24,0,0,0,99.85,113.2Z"/><path class="cls-3" d="M154.25,107.87V96.11a3.34,3.34,0,0,0-.21-1.9l0-.08a3.23,3.23,0,0,0-.17-0.33l-0.08-.12-0.2-.26-0.11-.12-0.25-.24-0.12-.1a3.39,3.39,0,0,0-.41-0.29h0L109.19,67.55A8.43,8.43,0,0,0,105,66.42H104.9a8.42,8.42,0,0,0-4.15,1.13l-7.13,4.12-36.35,21a3.39,3.39,0,0,0-.42.29l-0.11.1-0.25.24-0.11.12-0.2.27-0.08.12a3.23,3.23,0,0,0-.17.33l0,0.08a3.34,3.34,0,0,0-.21,1.9v11.77a3.37,3.37,0,0,0,0,1.14v29a3.28,3.28,0,0,0,1.59,3.45l43.48,25.1a8.43,8.43,0,0,0,8.43,0l43.47-25.1a3.28,3.28,0,0,0,1.59-3.45V109A3.37,3.37,0,0,0,154.25,107.87Z"/><path class="cls-4" d="M154.25,138V95.51H55.68V138a3.28,3.28,0,0,0,1.59,3.45l43.48,25.1a8.43,8.43,0,0,0,8.43,0l43.47-25.1A3.28,3.28,0,0,0,154.25,138Z"/><path class="cls-5" d="M154.25,96.11a3.28,3.28,0,0,0-1.59-3.45L109.19,67.55a8.43,8.43,0,0,0-8.43,0L57.27,92.66a3.28,3.28,0,0,0-1.59,3.45v11.76a3.28,3.28,0,0,0,1.59,3.45l43.48,25.1a8.43,8.43,0,0,0,8.43,0l43.47-25.1a3.28,3.28,0,0,0,1.59-3.45V96.11Z"/><path class="cls-5" d="M59.38,112.53v14.54c0,2.35,1.93,5.39,4.28,6.75L97,153.05c2.35,1.36,4.28.54,4.28-1.81V136.71Z"/><path class="cls-5" d="M94.94,148.81h0a5.29,5.29,0,0,1-3.09-4.4v-7.3c0-1.7,1.39-2.5,3.09-1.78h0a5.29,5.29,0,0,1,3.09,4.4V147C98,148.72,96.64,149.52,94.94,148.81Z"/><path class="cls-5" d="M65.7,132h0a5.29,5.29,0,0,1-3.09-4.4v-7.3c0-1.7,1.39-2.5,3.09-1.78h0a5.29,5.29,0,0,1,3.09,4.4v7.3C68.79,131.88,67.4,132.68,65.7,132Z"/><path class="cls-6" d="M87.7,137a0.68,0.68,0,0,1-1,.64,1.58,1.58,0,0,1-1-1.36,0.68,0.68,0,0,1,1-.64A1.58,1.58,0,0,1,87.7,137Z"/><path class="cls-6" d="M84.51,135.07a0.68,0.68,0,0,1-1,.64,1.58,1.58,0,0,1-1-1.36,0.68,0.68,0,0,1,1-.64A1.58,1.58,0,0,1,84.51,135.07Z"/><path class="cls-6" d="M81.32,133.12a0.68,0.68,0,0,1-1,.64,1.58,1.58,0,0,1-1-1.36,0.68,0.68,0,0,1,1-.64A1.58,1.58,0,0,1,81.32,133.12Z"/><path class="cls-6" d="M78.13,131.16a0.68,0.68,0,0,1-1,.64,1.58,1.58,0,0,1-1-1.36,0.68,0.68,0,0,1,1-.64A1.58,1.58,0,0,1,78.13,131.16Z"/><path class="cls-6" d="M74.94,129.21a0.68,0.68,0,0,1-1,.64,1.58,1.58,0,0,1-1-1.36,0.68,0.68,0,0,1,1-.64A1.58,1.58,0,0,1,74.94,129.21Z"/><path class="cls-6" d="M84.51,138.54a0.68,0.68,0,0,1-1,.64,1.58,1.58,0,0,1-1-1.36,0.68,0.68,0,0,1,1-.64A1.58,1.58,0,0,1,84.51,138.54Z"/><path class="cls-6" d="M81.32,136.58a0.68,0.68,0,0,1-1,.64,1.58,1.58,0,0,1-1-1.36,0.68,0.68,0,0,1,1-.64A1.58,1.58,0,0,1,81.32,136.58Z"/><path class="cls-6" d="M78.13,134.63a0.68,0.68,0,0,1-1,.64,1.58,1.58,0,0,1-1-1.36,0.68,0.68,0,0,1,1-.64A1.58,1.58,0,0,1,78.13,134.63Z"/><path class="cls-5" d="M150.55,112.53v14.54c0,2.35-1.93,5.39-4.28,6.75l-33.32,19.24c-2.35,1.36-4.28.54-4.28-1.81V136.71Z"/><path class="cls-5" d="M115,148.81h0a5.29,5.29,0,0,0,3.09-4.4v-7.3c0-1.7-1.39-2.5-3.09-1.78h0a5.29,5.29,0,0,0-3.09,4.4V147C111.9,148.72,113.29,149.52,115,148.81Z"/><path class="cls-5" d="M144.23,132h0a5.29,5.29,0,0,0,3.09-4.4v-7.3c0-1.7-1.39-2.5-3.09-1.78h0a5.29,5.29,0,0,0-3.09,4.4v7.3C141.14,131.88,142.53,132.68,144.23,132Z"/><path class="cls-6" d="M122.23,137a0.68,0.68,0,0,0,1,.64,1.58,1.58,0,0,0,1-1.36,0.68,0.68,0,0,0-1-.64A1.58,1.58,0,0,0,122.23,137Z"/><path class="cls-6" d="M125.42,135.07a0.68,0.68,0,0,0,1,.64,1.58,1.58,0,0,0,1-1.36,0.68,0.68,0,0,0-1-.64A1.58,1.58,0,0,0,125.42,135.07Z"/><path class="cls-6" d="M128.61,133.12a0.68,0.68,0,0,0,1,.64,1.58,1.58,0,0,0,1-1.36,0.68,0.68,0,0,0-1-.64A1.58,1.58,0,0,0,128.61,133.12Z"/><path class="cls-6" d="M131.8,131.16a0.68,0.68,0,0,0,1,.64,1.58,1.58,0,0,0,1-1.36,0.68,0.68,0,0,0-1-.64A1.58,1.58,0,0,0,131.8,131.16Z"/><path class="cls-6" d="M135,129.21a0.68,0.68,0,0,0,1,.64,1.58,1.58,0,0,0,1-1.36,0.68,0.68,0,0,0-1-.64A1.58,1.58,0,0,0,135,129.21Z"/><path class="cls-6" d="M125.42,138.54a0.68,0.68,0,0,0,1,.64,1.58,1.58,0,0,0,1-1.36,0.68,0.68,0,0,0-1-.64A1.58,1.58,0,0,0,125.42,138.54Z"/><path class="cls-6" d="M128.61,136.58a0.68,0.68,0,0,0,1,.64,1.58,1.58,0,0,0,1-1.36,0.68,0.68,0,0,0-1-.64A1.58,1.58,0,0,0,128.61,136.58Z"/><path class="cls-6" d="M131.8,134.63a0.68,0.68,0,0,0,1,.64,1.58,1.58,0,0,0,1-1.36,0.68,0.68,0,0,0-1-.64A1.58,1.58,0,0,0,131.8,134.63Z"/><path class="cls-5" d="M100.75,67.55L57.27,92.66a3.3,3.3,0,0,0,0,5.71l43.48,25.1a8.43,8.43,0,0,0,8.43,0l43.47-25.1a3.3,3.3,0,0,0,0-5.71L109.19,67.55A8.43,8.43,0,0,0,100.75,67.55Z"/><ellipse class="cls-6" cx="141.15" cy="95.18" rx="2.66" ry="1.21"/><ellipse class="cls-7" cx="77.72" cy="88.91" rx="5.79" ry="2.64"/><path class="cls-6" d="M78.89,90.52a0.08,0.08,0,0,1,0,0l0,0L78.34,91a0.19,0.19,0,0,1-.1,0A0.11,0.11,0,0,1,78.16,91l-0.88-1.81L74.41,89a0.17,0.17,0,0,1-.12,0,0.12,0.12,0,0,1,.07-0.08l0.5-.36,0.07,0H75l2.06,0.15-0.59-1.22a0.06,0.06,0,0,1,0,0l0,0,0.5-.36a0.23,0.23,0,0,1,.12-0.05,0.1,0.1,0,0,1,.07.07L78,88.63,81,88.87a0.24,0.24,0,0,1,.14,0,0.09,0.09,0,0,1-.06.07l-0.53.38-0.05,0H80.47l-2.21-.17Z"/><ellipse class="cls-7" cx="77.72" cy="100.98" rx="5.79" ry="2.64"/><path class="cls-6" d="M80.36,102a0.1,0.1,0,0,1,.06.06,0.09,0.09,0,0,1,0,.06l-0.43.31-0.09,0a0.2,0.2,0,0,1-.1,0l-1.63-.84-3.35-.3a0.24,0.24,0,0,1-.12,0s0,0,.06-0.08l0.47-.34a0.25,0.25,0,0,1,.17,0l2.5,0.24L77,99.61a0.07,0.07,0,0,1,0-.1l0.5-.36a0.13,0.13,0,0,1,.12,0,0.14,0.14,0,0,1,.07.08l1,2Z"/><ellipse class="cls-7" cx="67.21" cy="94.95" rx="5.79" ry="2.64"/><path class="cls-6" d="M68.19,96.78a0.17,0.17,0,0,1-.19,0l-0.37-.19-0.06,0,0-.05L66.17,94l-1.33,1a0.17,0.17,0,0,1-.09,0l-0.1,0-0.45-.23a0.11,0.11,0,0,1-.06-0.06,0.07,0.07,0,0,1,0-.06l2-1.44a0.17,0.17,0,0,1,.1,0l0.1,0,0.43,0.22,0,0,0,0L68.17,96l1.46-1.06a0.17,0.17,0,0,1,.09,0l0.1,0,0.45,0.23a0.11,0.11,0,0,1,.06.06,0.07,0.07,0,0,1,0,.06Z"/><line class="cls-8" x1="70.74" y1="92.3" x2="72.7" y2="91.13"/><line class="cls-8" x1="71.78" y1="97.35" x2="73.81" y2="98.4"/></svg>