<svg id="레이어_1" data-name="레이어 1" xmlns="http://www.w3.org/2000/svg" xmlns:xlink="http://www.w3.org/1999/xlink" width="210" height="210" viewBox="0 0 210 210">
  <defs>
    <style>
      .cls-1, .cls-2, .cls-6 {
        fill: #fff;
      }

      .cls-1 {
        fill-opacity: 0;
      }

      .cls-2, .cls-5, .cls-6 {
        stroke: #26cad3;
        stroke-miterlimit: 10;
      }

      .cls-3 {
        fill: #26cad3;
      }

      .cls-4 {
        fill: #f1f1f1;
      }

      .cls-5 {
        fill: none;
      }

      .cls-5, .cls-6 {
        stroke-width: 1.5px;
      }

      .cls-7 {
        opacity: 0.3;
        isolation: isolate;
        fill: url(#무제_그라디언트);
      }
    </style>
    <linearGradient id="무제_그라디언트" data-name="무제 그라디언트" x1="103.34" y1="102.38" x2="103.34" y2="175.71" gradientTransform="matrix(1, 0, 0, -1, 1.75, 199.54)" gradientUnits="userSpaceOnUse">
      <stop offset="0" stop-color="#26cad3"/>
      <stop offset="0.85" stop-color="#fff"/>
    </linearGradient>
  </defs>
  <title>helpLed</title>
  <rect class="cls-1" width="210" height="210"/>
  <path class="cls-2" d="M154.28,96.11a3.28,3.28,0,0,0-1.59-3.45L109.22,67.55a8.43,8.43,0,0,0-8.43,0L57.3,92.65a3.28,3.28,0,0,0-1.59,3.45v11.76a3.28,3.28,0,0,0,1.59,3.45l43.48,25.1a8.43,8.43,0,0,0,8.43,0l43.47-25.1a3.28,3.28,0,0,0,1.59-3.45V96.11Z"/>
  <polygon class="cls-2" points="55.72 95.5 55.72 95.52 105 123.97 154.28 95.52 154.28 95.5 105 67.05 55.72 95.5"/>
  <path class="cls-2" d="M59.41,112.5V127c0,2.35,1.93,5.39,4.28,6.75L97,153c2.35,1.36,4.28.54,4.28-1.81V136.71Z"/>
  <path class="cls-2" d="M95,148.81h0a5.29,5.29,0,0,1-3.09-4.4v-7.3c0-1.7,1.39-2.5,3.09-1.78h0a5.29,5.29,0,0,1,3.09,4.4V147C98.06,148.72,96.67,149.5,95,148.81Z"/>
  <path class="cls-2" d="M65.73,132h0a5.29,5.29,0,0,1-3.09-4.4v-7.3c0-1.7,1.39-2.5,3.09-1.78h0a5.29,5.29,0,0,1,3.09,4.4v7.3C68.85,131.88,67.43,132.68,65.73,132Z"/>
  <path class="cls-3" d="M87.73,137a.68.68,0,0,1-1,.64,1.58,1.58,0,0,1-1-1.36.68.68,0,0,1,1-.64A1.58,1.58,0,0,1,87.73,137Z"/>
  <path class="cls-3" d="M84.54,135.07a.68.68,0,0,1-1,.64,1.58,1.58,0,0,1-1-1.36.68.68,0,0,1,1-.64A1.58,1.58,0,0,1,84.54,135.07Z"/>
  <path class="cls-3" d="M81.35,133.12a.68.68,0,0,1-1,.64,1.58,1.58,0,0,1-1-1.36.68.68,0,0,1,1-.64A1.58,1.58,0,0,1,81.35,133.12Z"/>
  <path class="cls-3" d="M78.16,131.16a.68.68,0,0,1-1,.64,1.58,1.58,0,0,1-1-1.36.68.68,0,0,1,1-.64A1.58,1.58,0,0,1,78.16,131.16Z"/>
  <path class="cls-3" d="M75,129.21a.68.68,0,0,1-1,.64,1.58,1.58,0,0,1-1-1.36.68.68,0,0,1,1-.64A1.58,1.58,0,0,1,75,129.21Z"/>
  <path class="cls-3" d="M84.54,138.5a.68.68,0,0,1-1,.64,1.58,1.58,0,0,1-1-1.36.68.68,0,0,1,1-.64A1.58,1.58,0,0,1,84.54,138.5Z"/>
  <path class="cls-3" d="M81.35,136.58a.68.68,0,0,1-1,.64,1.58,1.58,0,0,1-1-1.36.68.68,0,0,1,1-.64A1.58,1.58,0,0,1,81.35,136.58Z"/>
  <path class="cls-3" d="M78.16,134.63a.68.68,0,0,1-1,.64,1.58,1.58,0,0,1-1-1.36.68.68,0,0,1,1-.64A1.58,1.58,0,0,1,78.16,134.63Z"/>
  <path class="cls-2" d="M150.58,112.5V127c0,2.35-1.93,5.39-4.28,6.75L113,153.05c-2.35,1.36-4.28.54-4.28-1.81V136.71Z"/>
  <path class="cls-2" d="M115,148.81h0a5.29,5.29,0,0,0,3.09-4.4v-7.3c0-1.7-1.39-2.5-3.09-1.78h0a5.29,5.29,0,0,0-3.09,4.4V147C111.93,148.72,113.32,149.5,115,148.81Z"/>
  <path class="cls-2" d="M144.26,132h0a5.29,5.29,0,0,0,3.09-4.4v-7.3c0-1.7-1.39-2.5-3.09-1.78h0a5.29,5.29,0,0,0-3.09,4.4v7.3C141.17,131.88,142.56,132.68,144.26,132Z"/>
  <path class="cls-3" d="M122.26,137a.68.68,0,0,0,1,.64,1.58,1.58,0,0,0,1-1.36.68.68,0,0,0-1-.64A1.58,1.58,0,0,0,122.26,137Z"/>
  <path class="cls-3" d="M125.45,135.07a.68.68,0,0,0,1,.64,1.58,1.58,0,0,0,1-1.36.68.68,0,0,0-1-.64A1.58,1.58,0,0,0,125.45,135.07Z"/>
  <path class="cls-3" d="M128.64,133.12a.68.68,0,0,0,1,.64,1.58,1.58,0,0,0,1-1.36.68.68,0,0,0-1-.64A1.58,1.58,0,0,0,128.64,133.12Z"/>
  <path class="cls-3" d="M131.85,131.16a.68.68,0,0,0,1,.64,1.58,1.58,0,0,0,1-1.36.68.68,0,0,0-1-.64A1.58,1.58,0,0,0,131.85,131.16Z"/>
  <path class="cls-3" d="M135,129.21a.68.68,0,0,0,1,.64,1.58,1.58,0,0,0,1-1.36.68.68,0,0,0-1-.64A1.58,1.58,0,0,0,135,129.21Z"/>
  <path class="cls-3" d="M125.45,138.5a.68.68,0,0,0,1,.64,1.58,1.58,0,0,0,1-1.36.68.68,0,0,0-1-.64A1.58,1.58,0,0,0,125.45,138.5Z"/>
  <path class="cls-3" d="M128.64,136.58a.68.68,0,0,0,1,.64,1.58,1.58,0,0,0,1-1.36.68.68,0,0,0-1-.64A1.58,1.58,0,0,0,128.64,136.58Z"/>
  <path class="cls-3" d="M131.85,134.63a.68.68,0,0,0,1,.64,1.58,1.58,0,0,0,1-1.36.68.68,0,0,0-1-.64A1.58,1.58,0,0,0,131.85,134.63Z"/>
  <path class="cls-2" d="M100.78,67.55,57.3,92.65a3.3,3.3,0,0,0,0,5.71l43.48,25.14a8.43,8.43,0,0,0,8.43,0l43.47-25.1a3.3,3.3,0,0,0,0-5.71L109.22,67.55A8.43,8.43,0,0,0,100.78,67.55Z"/>
  <ellipse class="cls-3" cx="141.18" cy="95.18" rx="2.66" ry="1.21"/>
  <g>
    <path class="cls-4" d="M100,113.19,47.08,143.68a4,4,0,0,0,0,6.95l52.79,30.51a10.25,10.25,0,0,0,10.25,0l52.79-30.49a4,4,0,0,0,0-6.95l-52.79-30.51A10.25,10.25,0,0,0,100,113.19Z"/>
    <path class="cls-5" d="M154.38,107.86V96.1a3.34,3.34,0,0,0-.21-1.9v-.09a3.23,3.23,0,0,0-.17-.33l-.07-.12-.2-.27-.11-.12-.25-.23-.11-.1a3.4,3.4,0,0,0-.42-.28h0L109.3,67.57a8.43,8.43,0,0,0-4.22-1.13h0a8.42,8.42,0,0,0-4.15,1.13l-7.14,4.08-36.36,21a3.39,3.39,0,0,0-.42.29l-.11.1-.25.23-.11.12-.2.27-.07.12a3.23,3.23,0,0,0-.17.33v.09a3.34,3.34,0,0,0-.21,1.9v11.76a3.38,3.38,0,0,0,0,1.14v29a3.28,3.28,0,0,0,1.6,3.45l43.48,25.11a8.43,8.43,0,0,0,8.43,0l43.43-25.09a3.28,3.28,0,0,0,1.6-3.45V109A3.41,3.41,0,0,0,154.38,107.86Z"/>
    <path class="cls-6" d="M154.38,138V95.5H55.78V138a3.28,3.28,0,0,0,1.6,3.45l43.48,25.11a8.43,8.43,0,0,0,8.43,0l43.48-25.09A3.28,3.28,0,0,0,154.38,138Z"/>
    <path class="cls-2" d="M154.38,96.09a3.28,3.28,0,0,0-1.6-3.45L109.3,67.57a8.43,8.43,0,0,0-8.43,0L57.38,92.64a3.28,3.28,0,0,0-1.6,3.45v11.76a3.28,3.28,0,0,0,1.6,3.45l43.48,25.11a8.43,8.43,0,0,0,8.43,0l43.48-25.11a3.28,3.28,0,0,0,1.6-3.45V96.09Z"/>
    <polygon class="cls-2" points="55.8 95.49 55.8 95.49 105.09 123.96 154.38 95.49 154.38 95.49 105.09 67.02 55.8 95.49"/>
    <path class="cls-2" d="M59.49,112.51V127a8.9,8.9,0,0,0,4.28,6.81L97.11,153.1c2.36,1.36,4.27.54,4.27-1.8V136.7Z"/>
    <path class="cls-2" d="M95.06,148.79h0A5.29,5.29,0,0,1,92,144.4V137.1c0-1.69,1.39-2.46,3.09-1.78h0a5.29,5.29,0,0,1,3.09,4.39V147C98.15,148.72,96.76,149.51,95.06,148.79Z"/>
    <path class="cls-2" d="M65.81,131.95h0a5.29,5.29,0,0,1-3.09-4.39v-7.29c0-1.69,1.39-2.46,3.09-1.78h0a5.29,5.29,0,0,1,3.09,4.33v7.37C68.91,131.86,67.51,132.63,65.81,131.95Z"/>
    <path class="cls-3" d="M87.81,137a.68.68,0,0,1-1,.64,1.58,1.58,0,0,1-1-1.36.68.68,0,0,1,1-.64A1.58,1.58,0,0,1,87.81,137Z"/>
    <path class="cls-3" d="M84.62,135.09a.68.68,0,0,1-1,.64,1.58,1.58,0,0,1-1-1.36.68.68,0,0,1,1-.64A1.58,1.58,0,0,1,84.62,135.09Z"/>
    <path class="cls-3" d="M81.45,133.1a.68.68,0,0,1-1,.64,1.58,1.58,0,0,1-1-1.36.68.68,0,0,1,1-.64A1.58,1.58,0,0,1,81.45,133.1Z"/>
    <path class="cls-3" d="M78.25,131.15a.68.68,0,0,1-1,.64,1.58,1.58,0,0,1-1-1.36.68.68,0,0,1,1-.64A1.58,1.58,0,0,1,78.25,131.15Z"/>
    <path class="cls-3" d="M75.06,129.2a.68.68,0,0,1-1,.64,1.58,1.58,0,0,1-1-1.36.68.68,0,0,1,1-.64A1.58,1.58,0,0,1,75.06,129.2Z"/>
    <path class="cls-3" d="M84.62,138.53a.68.68,0,0,1-1,.64,1.58,1.58,0,0,1-1-1.36.68.68,0,0,1,1-.64A1.58,1.58,0,0,1,84.62,138.53Z"/>
    <path class="cls-3" d="M81.45,136.58a.68.68,0,0,1-1,.64,1.58,1.58,0,0,1-1-1.36.68.68,0,0,1,1-.64A1.58,1.58,0,0,1,81.45,136.58Z"/>
    <path class="cls-3" d="M78.25,134.61a.68.68,0,0,1-1,.64,1.58,1.58,0,0,1-1-1.36.68.68,0,0,1,1-.64A1.58,1.58,0,0,1,78.25,134.61Z"/>
    <path class="cls-2" d="M150.67,112.51V127a8.9,8.9,0,0,1-4.27,6.75L113.07,153c-2.36,1.36-4.27.54-4.27-1.8V136.7Z"/>
    <path class="cls-2" d="M115.1,148.79h0a5.29,5.29,0,0,0,3.09-4.39V137.1c0-1.69-1.39-2.46-3.09-1.78h0a5.29,5.29,0,0,0-3.09,4.39V147C112,148.72,113.37,149.51,115.1,148.79Z"/>
    <path class="cls-2" d="M144.35,131.95h0a5.29,5.29,0,0,0,3.09-4.39v-7.29c0-1.69-1.39-2.46-3.09-1.78h0a5.29,5.29,0,0,0-3.09,4.39v7.3C141.26,131.86,142.65,132.63,144.35,131.95Z"/>
    <path class="cls-3" d="M122.35,137a.68.68,0,0,0,1,.64,1.58,1.58,0,0,0,1-1.36.68.68,0,0,0-1-.64A1.58,1.58,0,0,0,122.35,137Z"/>
    <path class="cls-3" d="M125.54,135.09a.68.68,0,0,0,1,.64,1.58,1.58,0,0,0,1-1.36.68.68,0,0,0-1-.64A1.58,1.58,0,0,0,125.54,135.09Z"/>
    <path class="cls-3" d="M128.73,133.1a.68.68,0,0,0,1,.64,1.58,1.58,0,0,0,1-1.36.68.68,0,0,0-1-.64A1.58,1.58,0,0,0,128.73,133.1Z"/>
    <path class="cls-3" d="M131.92,131.15a.68.68,0,0,0,1,.64,1.58,1.58,0,0,0,1-1.36.68.68,0,0,0-1-.64A1.58,1.58,0,0,0,131.92,131.15Z"/>
    <path class="cls-3" d="M135.1,129.2a.68.68,0,0,0,1,.64,1.58,1.58,0,0,0,1-1.36.68.68,0,0,0-1-.64A1.58,1.58,0,0,0,135.1,129.2Z"/>
    <path class="cls-3" d="M125.54,138.53a.68.68,0,0,0,1,.64,1.58,1.58,0,0,0,1-1.36.68.68,0,0,0-1-.64A1.58,1.58,0,0,0,125.54,138.53Z"/>
    <path class="cls-3" d="M128.73,136.58a.68.68,0,0,0,1,.64,1.58,1.58,0,0,0,1-1.36.68.68,0,0,0-1-.64A1.58,1.58,0,0,0,128.73,136.58Z"/>
    <path class="cls-3" d="M131.92,134.61a.68.68,0,0,0,1,.64,1.58,1.58,0,0,0,1-1.36.68.68,0,0,0-1-.64A1.58,1.58,0,0,0,131.92,134.61Z"/>
    <path class="cls-2" d="M100.86,67.57,57.38,92.64a3.3,3.3,0,0,0,0,5.72l43.48,25.11a8.43,8.43,0,0,0,8.43,0l43.48-25.11a3.3,3.3,0,0,0,0-5.72L109.3,67.57A8.43,8.43,0,0,0,100.86,67.57Z"/>
    <path class="cls-2" d="M103.16,82.41,83.32,93.87a1.51,1.51,0,0,0,0,2.6l19.84,11.45a3.84,3.84,0,0,0,3.84,0l19.88-11.45a1.51,1.51,0,0,0,0-2.6L107,82.41A3.84,3.84,0,0,0,103.16,82.41Z"/>
    <path class="cls-3" d="M103.85,89,91.16,96.37a1,1,0,0,0,0,1.67l12.68,7.37a2.46,2.46,0,0,0,2.46,0L119,98a1,1,0,0,0,0-1.67L106.3,89A2.46,2.46,0,0,0,103.85,89Z"/>
    <ellipse class="cls-3" cx="141.26" cy="95.17" rx="2.66" ry="1.22"/>
    <path class="cls-7" d="M57.12,38.23l34,58.93H119l34-58.93S108.78,5.83,57.12,38.23Z"/>
  </g>
</svg>
