<svg id="레이어_1" data-name="레이어 1" xmlns="http://www.w3.org/2000/svg" width="210" height="210" viewBox="0 0 210 210">
  <defs>
    <style>
      .cls-1, .cls-2, .cls-4, .cls-6 {
        fill: #fff;
      }

      .cls-1 {
        fill-opacity: 0;
      }

      .cls-2, .cls-3, .cls-4, .cls-6, .cls-7, .cls-8, .cls-9 {
        stroke: #26cad3;
      }

      .cls-2, .cls-3, .cls-4, .cls-6, .cls-7, .cls-9 {
        stroke-miterlimit: 10;
      }

      .cls-3, .cls-7, .cls-8 {
        fill: none;
      }

      .cls-3, .cls-4, .cls-9 {
        stroke-width: 1.5px;
      }

      .cls-5, .cls-9 {
        fill: #26cad3;
      }

      .cls-6 {
        stroke-width: 0.8px;
      }

      .cls-7, .cls-8 {
        stroke-linecap: round;
      }

      .cls-7 {
        stroke-width: 0.5px;
      }

      .cls-8 {
        stroke-linejoin: round;
        stroke-width: 2px;
        stroke-dasharray: 3 5;
      }
    </style>
  </defs>
  <title>helpGyroPitch</title>
  <rect class="cls-1" width="210" height="210"/>
  <path class="cls-2" d="M154.6,82.42c4.48,4.81,7.11,11.67,7.11,20.1,0,22-17.81,46.27-39.79,54.27-10.69,3.89-20.38,3.2-27.53-1.06,7.19,7.71,19.14,10.13,32.68,5.2,22-8,39.79-32.3,39.79-54.27C166.86,95.38,162.15,86.91,154.6,82.42Z"/>
  <path class="cls-3" d="M142.36,101V92.52a2.42,2.42,0,0,0-.15-1.38V91.08a2.34,2.34,0,0,0-.13-0.24L142,90.76l-0.14-.19-0.08-.09-0.18-.17-0.08-.07a2.46,2.46,0,0,0-.3-0.21h0L109.7,71.82a6.11,6.11,0,0,0-3.06-.82h0a6.1,6.1,0,0,0-3,.82l-5.17,3L72.07,90a2.46,2.46,0,0,0-.31.21l-0.08.07-0.18.17-0.08.09-0.14.19-0.06.09a2.34,2.34,0,0,0-.13.24v0.06a2.42,2.42,0,0,0-.15,1.38V101a2.44,2.44,0,0,0,0,.83v21a2.38,2.38,0,0,0,1.15,2.5l31.51,18.19a6.11,6.11,0,0,0,6.11,0L141.2,125.4a2.38,2.38,0,0,0,1.15-2.5v-21A2.44,2.44,0,0,0,142.36,101Z"/>
  <path class="cls-4" d="M142.36,122.9V92.09H70.92V122.9a2.38,2.38,0,0,0,1.15,2.5l31.51,18.19a6.11,6.11,0,0,0,6.11,0L141.2,125.4A2.38,2.38,0,0,0,142.36,122.9Z"/>
  <path class="cls-2" d="M142.36,92.52A2.38,2.38,0,0,0,141.2,90L109.7,71.82a6.11,6.11,0,0,0-6.11,0L72.07,90a2.38,2.38,0,0,0-1.15,2.5V101a2.38,2.38,0,0,0,1.15,2.5l31.51,18.19a6.11,6.11,0,0,0,6.11,0L141.2,103.5a2.38,2.38,0,0,0,1.15-2.5V92.52h0Z"/>
  <path class="cls-2" d="M73.6,104.42V115a6.45,6.45,0,0,0,3.1,4.89l24.15,13.94c1.71,1,3.1.39,3.1-1.31V121.95Z"/>
  <path class="cls-2" d="M99.37,130.71h0a3.83,3.83,0,0,1-2.24-3.19v-5.29c0-1.23,1-1.81,2.24-1.29h0a3.83,3.83,0,0,1,2.24,3.19v5.29C101.61,130.65,100.61,131.23,99.37,130.71Z"/>
  <path class="cls-2" d="M78.18,118.51h0a3.83,3.83,0,0,1-2.24-3.19V110c0-1.23,1-1.81,2.24-1.29h0a3.83,3.83,0,0,1,2.24,3.19v5.29C80.42,118.44,79.42,119,78.18,118.51Z"/>
  <path class="cls-5" d="M94.13,122.18a0.49,0.49,0,0,1-.72.46,1.15,1.15,0,0,1-.72-1,0.49,0.49,0,0,1,.72-0.46A1.15,1.15,0,0,1,94.13,122.18Z"/>
  <path class="cls-5" d="M91.81,120.76a0.49,0.49,0,0,1-.72.46,1.15,1.15,0,0,1-.72-1,0.49,0.49,0,0,1,.72-0.46A1.15,1.15,0,0,1,91.81,120.76Z"/>
  <path class="cls-5" d="M89.5,119.34a0.49,0.49,0,0,1-.72.46,1.15,1.15,0,0,1-.72-1,0.49,0.49,0,0,1,.72-0.46A1.15,1.15,0,0,1,89.5,119.34Z"/>
  <path class="cls-5" d="M87.19,117.93a0.49,0.49,0,0,1-.72.46,1.15,1.15,0,0,1-.72-1,0.49,0.49,0,0,1,.72-0.46A1.15,1.15,0,0,1,87.19,117.93Z"/>
  <path class="cls-5" d="M84.88,116.51a0.49,0.49,0,0,1-.72.46,1.15,1.15,0,0,1-.72-1,0.49,0.49,0,0,1,.72-0.46A1.15,1.15,0,0,1,84.88,116.51Z"/>
  <path class="cls-5" d="M91.81,123.27a0.49,0.49,0,0,1-.72.46,1.15,1.15,0,0,1-.72-1,0.49,0.49,0,0,1,.72-0.46A1.15,1.15,0,0,1,91.81,123.27Z"/>
  <path class="cls-5" d="M89.5,121.85a0.49,0.49,0,0,1-.72.46,1.15,1.15,0,0,1-.72-1,0.49,0.49,0,0,1,.72-0.46A1.15,1.15,0,0,1,89.5,121.85Z"/>
  <path class="cls-5" d="M87.19,120.44a0.49,0.49,0,0,1-.72.46,1.15,1.15,0,0,1-.72-1,0.49,0.49,0,0,1,.72-0.46A1.15,1.15,0,0,1,87.19,120.44Z"/>
  <path class="cls-2" d="M139.67,104.42V115a6.45,6.45,0,0,1-3.1,4.89l-24.15,13.94c-1.71,1-3.1.39-3.1-1.31V121.95Z"/>
  <path class="cls-2" d="M113.9,130.71h0a3.83,3.83,0,0,0,2.24-3.19v-5.29c0-1.23-1-1.81-2.24-1.29h0a3.83,3.83,0,0,0-2.24,3.19v5.29C111.66,130.65,112.67,131.23,113.9,130.71Z"/>
  <path class="cls-2" d="M135.09,118.51h0a3.83,3.83,0,0,0,2.24-3.19V110c0-1.23-1-1.81-2.24-1.29h0a3.83,3.83,0,0,0-2.24,3.19v5.29C132.85,118.44,133.86,119,135.09,118.51Z"/>
  <path class="cls-5" d="M119.15,122.18a0.49,0.49,0,0,0,.72.46,1.15,1.15,0,0,0,.72-1,0.49,0.49,0,0,0-.72-0.46A1.15,1.15,0,0,0,119.15,122.18Z"/>
  <path class="cls-5" d="M121.46,120.76a0.49,0.49,0,0,0,.72.46,1.15,1.15,0,0,0,.72-1,0.49,0.49,0,0,0-.72-0.46A1.15,1.15,0,0,0,121.46,120.76Z"/>
  <path class="cls-5" d="M123.77,119.34a0.49,0.49,0,0,0,.72.46,1.15,1.15,0,0,0,.72-1,0.49,0.49,0,0,0-.72-0.46A1.15,1.15,0,0,0,123.77,119.34Z"/>
  <path class="cls-5" d="M126.09,117.93a0.49,0.49,0,0,0,.72.46,1.15,1.15,0,0,0,.72-1,0.49,0.49,0,0,0-.72-0.46A1.15,1.15,0,0,0,126.09,117.93Z"/>
  <path class="cls-5" d="M128.4,116.51a0.49,0.49,0,0,0,.72.46,1.15,1.15,0,0,0,.72-1,0.49,0.49,0,0,0-.72-0.46A1.15,1.15,0,0,0,128.4,116.51Z"/>
  <path class="cls-5" d="M121.46,123.27a0.49,0.49,0,0,0,.72.46,1.15,1.15,0,0,0,.72-1,0.49,0.49,0,0,0-.72-0.46A1.15,1.15,0,0,0,121.46,123.27Z"/>
  <path class="cls-5" d="M123.77,121.85a0.49,0.49,0,0,0,.72.46,1.15,1.15,0,0,0,.72-1,0.49,0.49,0,0,0-.72-0.46A1.15,1.15,0,0,0,123.77,121.85Z"/>
  <path class="cls-5" d="M126.09,120.44a0.49,0.49,0,0,0,.72.46,1.15,1.15,0,0,0,.72-1,0.49,0.49,0,0,0-.72-0.46A1.15,1.15,0,0,0,126.09,120.44Z"/>
  <path class="cls-2" d="M103.59,71.82L72.07,90a2.39,2.39,0,0,0,0,4.14l31.51,18.19a6.11,6.11,0,0,0,6.11,0L141.2,94.16a2.39,2.39,0,0,0,0-4.14l-31.5-18.2A6.11,6.11,0,0,0,103.59,71.82Z"/>
  <ellipse class="cls-5" cx="132.86" cy="91.85" rx="1.93" ry="0.88"/>
  <ellipse class="cls-6" cx="86.89" cy="87.3" rx="4.2" ry="1.91"/>
  <path class="cls-5" d="M87.74,88.47h0l-0.38.28H87.28a0.08,0.08,0,0,1-.05-0.06l-0.64-1.31-2.08-.14a0.12,0.12,0,0,1-.09,0,0.08,0.08,0,0,1,0-.06L84.81,87h0.11l1.49,0.11L86,86.19h0l0.36-.26h0.13l0.58,1.23,2.21,0.17h0.1a0.06,0.06,0,0,1,0,.05L89,87.62H88.88l-1.61-.12Z"/>
  <ellipse class="cls-6" cx="86.89" cy="96.05" rx="4.2" ry="1.91"/>
  <path class="cls-5" d="M88.81,96.79h0L88.5,97H88.35l-1.18-.61-2.43-.21H84.65V96.14L85,96a0.18,0.18,0,0,1,.12,0L87,96.11l-0.6-1.05a0,0,0,0,1,0-.07h0l0.36-.26a0.09,0.09,0,0,1,.08,0,0.1,0.1,0,0,1,0,.06l0.74,1.43Z"/>
  <ellipse class="cls-6" cx="79.28" cy="91.68" rx="4.2" ry="1.91"/>
  <path class="cls-5" d="M80,93a0.12,0.12,0,0,1-.14,0l-0.27-.14h0l-1-1.78-1,.7H77.45l-0.33-.17h0l1.44-1H78.7l0.3,0h0l1,1.85,1-.77h0.14l0.33,0.17h0Z"/>
  <line class="cls-7" x1="81.83" y1="89.76" x2="83.25" y2="88.91"/>
  <line class="cls-7" x1="82.58" y1="93.42" x2="84.06" y2="94.18"/>
  <path class="cls-8" d="M54.15,79.47L70.68,89h0.07"/>
  <path class="cls-9" d="M121.92,77.22c-10,3.63-19.08,10.62-26.06,19.22l-4.2-2.12a144.3,144.3,0,0,0,0,15c4.77-3,14.91-7.49,14.91-7.49l-4.65-2.35c6.86-8.1,15.61-14.65,25.15-18.13,10.69-3.89,20.38-3.2,27.53,1.06C147.41,74.71,135.46,72.29,121.92,77.22Z"/>
  <path class="cls-9" d="M89.84,120.67l-5.46-3.15a47.25,47.25,0,0,0-2.24,14c0,11.29,4.71,19.76,12.26,24.25-4.48-4.81-7.11-11.67-7.11-20.1A47.74,47.74,0,0,1,89.84,120.67Z"/>
  <path class="cls-5" d="M170,152.1a0.23,0.23,0,0,1-.08.24,0.42,0.42,0,0,1-.28-0.09l-1.71-1a0.83,0.83,0,0,1-.28-0.23,0.59,0.59,0,0,1-.08-0.33v-5.51L163,135.11a0.68,0.68,0,0,1-.11-0.39,0.39,0.39,0,0,1,.34.1l1.87,1.08a1,1,0,0,1,.41.47l3.35,7.53,3.24-3.72a0.28,0.28,0,0,1,.37,0l2,1.13a0.53,0.53,0,0,1,.31.31,0.33,0.33,0,0,1-.13.26L170,146.59v5.51h0Z"/>
  <path class="cls-8" d="M129,122.68l30.47,17.59,0.13,0.07"/>
</svg>
