<svg id="레이어_1" data-name="레이어 1" xmlns="http://www.w3.org/2000/svg" width="210" height="210" viewBox="0 0 210 210"><defs><style>.cls-1,.cls-4,.cls-5,.cls-7,.cls-8{fill:#fff;}.cls-1{opacity:0;}.cls-2{fill:#f1f1f1;}.cls-3{fill:none;}.cls-3,.cls-4,.cls-5,.cls-7,.cls-8{stroke:#26cad3;}.cls-3,.cls-4,.cls-5{stroke-miterlimit:10;}.cls-3,.cls-4{stroke-width:1.5px;}.cls-6{fill:#26cad3;}.cls-7,.cls-8{stroke-linecap:round;stroke-linejoin:round;}.cls-8{stroke-width:0.5px;}</style></defs><title>helpMicVolume</title><rect class="cls-1" width="210" height="210"/><path class="cls-2" d="M93.95,102.95l-44,25.43a3.34,3.34,0,0,0,0,5.79l44,25.43a8.54,8.54,0,0,0,8.54,0l44-25.42a3.34,3.34,0,0,0,0-5.79l-44-25.43A8.54,8.54,0,0,0,93.95,102.95Z" transform="translate(6.76 -3.2)"/><path class="cls-3" d="M139.3,98.51V88.7a2.78,2.78,0,0,0-.18-1.59l0-.07a2.69,2.69,0,0,0-.14-0.27l-0.06-.1-0.17-.22-0.09-.1-0.21-.2-0.1-.09a2.83,2.83,0,0,0-.35-0.24h0L101.73,64.89a7,7,0,0,0-3.52-.94H98.16a7,7,0,0,0-3.46.94l-5.95,3.43L58.45,85.82a2.83,2.83,0,0,0-.35.24L58,86.14l-0.21.2-0.09.1-0.17.22-0.06.1a2.69,2.69,0,0,0-.15.27l0,0.07a2.78,2.78,0,0,0-.18,1.59V98.5a2.81,2.81,0,0,0,0,1v24.19a2.73,2.73,0,0,0,1.33,2.88L94.7,147.45a7,7,0,0,0,7,0L138,126.53a2.73,2.73,0,0,0,1.33-2.88V99.46A2.81,2.81,0,0,0,139.3,98.51Z" transform="translate(6.76 -3.2)"/><path class="cls-4" d="M139.3,123.65V88.2H57.12v35.45a2.73,2.73,0,0,0,1.33,2.88L94.7,147.45a7,7,0,0,0,7,0L138,126.53A2.73,2.73,0,0,0,139.3,123.65Z" transform="translate(6.76 -3.2)"/><path class="cls-5" d="M139.3,88.7A2.73,2.73,0,0,0,138,85.82L101.73,64.89a7,7,0,0,0-7,0L58.45,85.82a2.73,2.73,0,0,0-1.33,2.88V98.5a2.73,2.73,0,0,0,1.33,2.88L94.7,122.31a7,7,0,0,0,7,0L138,101.38a2.73,2.73,0,0,0,1.33-2.88V88.7Z" transform="translate(6.76 -3.2)"/><path class="cls-5" d="M60.21,102.39v12.12a7.42,7.42,0,0,0,3.57,5.63l27.78,16c2,1.13,3.57.45,3.57-1.51V122.55Z" transform="translate(6.76 -3.2)"/><path class="cls-5" d="M89.86,132.64h0A4.41,4.41,0,0,1,87.28,129v-6.08c0-1.42,1.16-2.09,2.58-1.49h0a4.41,4.41,0,0,1,2.58,3.67v6.08C92.43,132.57,91.27,133.23,89.86,132.64Z" transform="translate(6.76 -3.2)"/><path class="cls-5" d="M65.48,118.59h0a4.41,4.41,0,0,1-2.58-3.67v-6.08c0-1.42,1.16-2.09,2.58-1.49h0A4.41,4.41,0,0,1,68.05,111v6.08C68.05,118.52,66.89,119.19,65.48,118.59Z" transform="translate(6.76 -3.2)"/><path class="cls-6" d="M83.82,122.82a0.56,0.56,0,0,1-.83.53,1.32,1.32,0,0,1-.83-1.14,0.56,0.56,0,0,1,.83-0.53A1.32,1.32,0,0,1,83.82,122.82Z" transform="translate(6.76 -3.2)"/><path class="cls-6" d="M81.16,121.19a0.56,0.56,0,0,1-.83.53,1.32,1.32,0,0,1-.83-1.14,0.56,0.56,0,0,1,.83-0.53A1.32,1.32,0,0,1,81.16,121.19Z" transform="translate(6.76 -3.2)"/><path class="cls-6" d="M78.5,119.56a0.56,0.56,0,0,1-.83.53,1.32,1.32,0,0,1-.83-1.14,0.56,0.56,0,0,1,.83-0.53A1.32,1.32,0,0,1,78.5,119.56Z" transform="translate(6.76 -3.2)"/><path class="cls-6" d="M75.84,117.93a0.56,0.56,0,0,1-.83.53,1.32,1.32,0,0,1-.83-1.14,0.56,0.56,0,0,1,.83-0.53A1.32,1.32,0,0,1,75.84,117.93Z" transform="translate(6.76 -3.2)"/><path class="cls-6" d="M73.18,116.3a0.56,0.56,0,0,1-.83.53,1.32,1.32,0,0,1-.83-1.14,0.56,0.56,0,0,1,.83-0.53A1.32,1.32,0,0,1,73.18,116.3Z" transform="translate(6.76 -3.2)"/><path class="cls-6" d="M81.16,124.07a0.56,0.56,0,0,1-.83.53,1.32,1.32,0,0,1-.83-1.14,0.56,0.56,0,0,1,.83-0.53A1.32,1.32,0,0,1,81.16,124.07Z" transform="translate(6.76 -3.2)"/><path class="cls-6" d="M78.5,122.44a0.56,0.56,0,0,1-.83.53,1.32,1.32,0,0,1-.83-1.14,0.56,0.56,0,0,1,.83-0.53A1.32,1.32,0,0,1,78.5,122.44Z" transform="translate(6.76 -3.2)"/><path class="cls-6" d="M75.84,120.81a0.56,0.56,0,0,1-.83.53,1.32,1.32,0,0,1-.83-1.14,0.56,0.56,0,0,1,.83-0.53A1.32,1.32,0,0,1,75.84,120.81Z" transform="translate(6.76 -3.2)"/><path class="cls-5" d="M136.22,102.39v12.12a7.42,7.42,0,0,1-3.57,5.63l-27.78,16c-2,1.13-3.57.45-3.57-1.51V122.55Z" transform="translate(6.76 -3.2)"/><path class="cls-5" d="M106.57,132.64h0a4.41,4.41,0,0,0,2.58-3.67v-6.08c0-1.42-1.16-2.09-2.58-1.49h0a4.41,4.41,0,0,0-2.58,3.67v6.08C104,132.57,105.15,133.23,106.57,132.64Z" transform="translate(6.76 -3.2)"/><path class="cls-5" d="M130.95,118.59h0a4.41,4.41,0,0,0,2.58-3.67v-6.08c0-1.42-1.16-2.09-2.58-1.49h0a4.41,4.41,0,0,0-2.58,3.67v6.08C128.37,118.52,129.53,119.19,130.95,118.59Z" transform="translate(6.76 -3.2)"/><path class="cls-6" d="M112.61,122.82a0.56,0.56,0,0,0,.83.53,1.32,1.32,0,0,0,.83-1.14,0.56,0.56,0,0,0-.83-0.53A1.32,1.32,0,0,0,112.61,122.82Z" transform="translate(6.76 -3.2)"/><path class="cls-6" d="M115.27,121.19a0.56,0.56,0,0,0,.83.53,1.32,1.32,0,0,0,.83-1.14,0.56,0.56,0,0,0-.83-0.53A1.32,1.32,0,0,0,115.27,121.19Z" transform="translate(6.76 -3.2)"/><path class="cls-6" d="M117.93,119.56a0.56,0.56,0,0,0,.83.53,1.32,1.32,0,0,0,.83-1.14,0.56,0.56,0,0,0-.83-0.53A1.32,1.32,0,0,0,117.93,119.56Z" transform="translate(6.76 -3.2)"/><path class="cls-6" d="M120.59,117.93a0.56,0.56,0,0,0,.83.53,1.32,1.32,0,0,0,.83-1.14,0.56,0.56,0,0,0-.83-0.53A1.32,1.32,0,0,0,120.59,117.93Z" transform="translate(6.76 -3.2)"/><path class="cls-6" d="M123.24,116.3a0.56,0.56,0,0,0,.83.53,1.32,1.32,0,0,0,.83-1.14,0.56,0.56,0,0,0-.83-0.53A1.32,1.32,0,0,0,123.24,116.3Z" transform="translate(6.76 -3.2)"/><path class="cls-6" d="M115.27,124.07a0.56,0.56,0,0,0,.83.53,1.32,1.32,0,0,0,.83-1.14,0.56,0.56,0,0,0-.83-0.53A1.32,1.32,0,0,0,115.27,124.07Z" transform="translate(6.76 -3.2)"/><path class="cls-6" d="M117.93,122.44a0.56,0.56,0,0,0,.83.53,1.32,1.32,0,0,0,.83-1.14,0.56,0.56,0,0,0-.83-0.53A1.32,1.32,0,0,0,117.93,122.44Z" transform="translate(6.76 -3.2)"/><path class="cls-6" d="M120.59,120.81a0.56,0.56,0,0,0,.83.53,1.32,1.32,0,0,0,.83-1.14,0.56,0.56,0,0,0-.83-0.53A1.32,1.32,0,0,0,120.59,120.81Z" transform="translate(6.76 -3.2)"/><path class="cls-5" d="M94.7,64.89L58.45,85.82a2.75,2.75,0,0,0,0,4.76L94.7,111.52a7,7,0,0,0,7,0L138,90.59a2.75,2.75,0,0,0,0-4.76L101.73,64.89A7,7,0,0,0,94.7,64.89Z" transform="translate(6.76 -3.2)"/><ellipse class="cls-6" cx="135.14" cy="84.72" rx="2.22" ry="1.01"/><path class="cls-7" d="M112.93,88.77h0l0,0h0l-12.23-7h0a16.84,16.84,0,0,0-8.83-2.11c-5.93,0-10.74,2.19-10.74,4.9a3.47,3.47,0,0,0,1.8,2.71h0a8.69,8.69,0,0,0,1,.56L96.19,94.9,96.37,95l0,0h0a17.94,17.94,0,0,0,8.2,1.74c5.93,0,10.74-2.19,10.74-4.9C115.34,90.69,114.43,89.61,112.93,88.77Z" transform="translate(6.76 -3.2)"/><path class="cls-8" d="M106.32,95.77h0a0.49,0.49,0,0,1-.31-0.39c0-.34.61-0.62,1.36-0.62a2.27,2.27,0,0,1,1,.22h0l1.77,1a13.89,13.89,0,0,0,1.87-.66L109.66,94h0a0.49,0.49,0,0,1-.31-0.39c0-.34.61-0.62,1.36-0.62a2.27,2.27,0,0,1,1,.22h0l2,1.19a3.28,3.28,0,0,0,1.53-2.51c0-1.17-.91-2.25-2.41-3.09h0l0,0h0l-1.77-1-3,1.74h0a2.28,2.28,0,0,1-1,.22c-0.75,0-1.36-.28-1.36-0.62a0.49,0.49,0,0,1,.31-0.39h0l3.35-2-1.49-.85-3,1.75h0a2.28,2.28,0,0,1-1,.22c-0.75,0-1.36-.28-1.36-0.62a0.49,0.49,0,0,1,.31-0.39h0l3.37-2L104.65,84l-3,1.76h0a2.28,2.28,0,0,1-1,.22c-0.75,0-1.36-.28-1.36-0.62A0.49,0.49,0,0,1,99.51,85h0l3.39-2-1.49-.85-3,1.77h0a2.28,2.28,0,0,1-1,.22c-0.75,0-1.36-.28-1.36-0.62a0.49,0.49,0,0,1,.31-0.39h0l3.39-2a18.42,18.42,0,0,0-7.83-1.56,22.66,22.66,0,0,0-3.38.25l1.29,0.75h0a0.49,0.49,0,0,1,.31.39c0,0.34-.61.62-1.36,0.62a2.27,2.27,0,0,1-1-.22h0l-1.68-1a13.17,13.17,0,0,0-1.82.69l2.29,1.33h0a0.49,0.49,0,0,1,.31.39c0,0.34-.61.62-1.36,0.62a2.27,2.27,0,0,1-1-.22h0l-1.85-1.08a3.15,3.15,0,0,0-1.35,2.37,3.47,3.47,0,0,0,1.8,2.71h0a8.69,8.69,0,0,0,1,.56l1.45,0.83,3-1.73h0a2.27,2.27,0,0,1,1-.22c0.75,0,1.36.28,1.36,0.62a0.49,0.49,0,0,1-.31.39h0l-3.34,1.95,1.49,0.86,3-1.74h0a2.27,2.27,0,0,1,1-.22c0.75,0,1.36.28,1.36,0.62a0.49,0.49,0,0,1-.31.39h0l-3.37,2,1.49,0.86,3-1.76h0a2.27,2.27,0,0,1,1-.22c0.75,0,1.36.28,1.36,0.62a0.49,0.49,0,0,1-.31.39h0l-3.39,2L95,94.22l3-1.77h0a2.27,2.27,0,0,1,1-.22c0.75,0,1.36.28,1.36,0.62a0.49,0.49,0,0,1-.31.39h0l-3.39,2a18.42,18.42,0,0,0,7.83,1.56,22.85,22.85,0,0,0,3.06-.2Z" transform="translate(6.76 -3.2)"/><rect class="cls-6" x="32.72" y="66.91" width="15.15" height="30.97" rx="7.58" ry="7.58"/><path class="cls-6" d="M44.14,90.56a1.27,1.27,0,0,0-1.27,1.27v1.75A9.51,9.51,0,0,1,34,103.17a9.33,9.33,0,0,1-9.79-9.32v-2a1.27,1.27,0,1,0-2.53,0v2a12.08,12.08,0,0,0,10.6,12.07v4.39h-2.6a2.53,2.53,0,0,0-2.53,2.53h12.8a2.53,2.53,0,0,0-2.53-2.53h-2.6V105.9a11.86,11.86,0,0,0,10.6-11.79V91.83A1.27,1.27,0,0,0,44.14,90.56Z" transform="translate(6.76 -3.2)"/></svg>