<svg id="레이어_1" data-name="레이어 1" xmlns="http://www.w3.org/2000/svg" width="192" height="192" viewBox="0 0 192 192"><defs><style>.cls-1,.cls-4,.cls-5,.cls-7{fill:#fff;}.cls-1{opacity:0;}.cls-2{fill:#f1f1f1;}.cls-3{fill:none;}.cls-3,.cls-4,.cls-5{stroke:#26cad3;stroke-miterlimit:10;}.cls-3,.cls-4{stroke-width:1.5px;}.cls-6{fill:#26cad3;}</style></defs><title>text</title><rect class="cls-1" width="192" height="192"/><path class="cls-2" d="M92.35,98.68l-43,24.85a3.27,3.27,0,0,0,0,5.66l43,24.85a8.35,8.35,0,0,0,8.35,0l43-24.84a3.27,3.27,0,0,0,0-5.66l-43-24.85A8.35,8.35,0,0,0,92.35,98.68Z" transform="translate(-0.51 -1.56)"/><path class="cls-3" d="M136.67,94.34V84.76a2.72,2.72,0,0,0-.17-1.55l0-.07a2.63,2.63,0,0,0-.14-0.27l-0.06-.1-0.16-.22-0.09-.1-0.2-.19-0.09-.08a2.77,2.77,0,0,0-.34-0.23h0L100,61.49a6.87,6.87,0,0,0-3.44-.92H96.46a6.86,6.86,0,0,0-3.38.92l-5.81,3.35L57.66,81.94a2.76,2.76,0,0,0-.34.24l-0.09.08-0.2.19-0.09.1-0.16.22-0.06.1a2.63,2.63,0,0,0-.14.27l0,0.07a2.72,2.72,0,0,0-.17,1.55v9.58a2.75,2.75,0,0,0,0,.93V118.9a2.67,2.67,0,0,0,1.3,2.81l35.42,20.45a6.87,6.87,0,0,0,6.87,0l35.42-20.45a2.67,2.67,0,0,0,1.3-2.81V95.28A2.75,2.75,0,0,0,136.67,94.34Z" transform="translate(-0.51 -1.56)"/><path class="cls-4" d="M136.67,118.91V84.27H56.36V118.9a2.67,2.67,0,0,0,1.3,2.81l35.42,20.45a6.87,6.87,0,0,0,6.87,0l35.42-20.45A2.67,2.67,0,0,0,136.67,118.91Z" transform="translate(-0.51 -1.56)"/><path class="cls-5" d="M136.67,84.76a2.67,2.67,0,0,0-1.3-2.81L100,61.49a6.87,6.87,0,0,0-6.87,0L57.66,81.94a2.67,2.67,0,0,0-1.3,2.81v9.58a2.67,2.67,0,0,0,1.3,2.81L93.08,117.6a6.87,6.87,0,0,0,6.87,0l35.42-20.45a2.67,2.67,0,0,0,1.3-2.81V84.76Z" transform="translate(-0.51 -1.56)"/><path class="cls-5" d="M59.38,98.14V110a7.25,7.25,0,0,0,3.48,5.5L90,131.15c1.92,1.11,3.48.44,3.48-1.47V117.83Z" transform="translate(-0.51 -1.56)"/><path class="cls-5" d="M88.35,127.69h0a4.31,4.31,0,0,1-2.52-3.58v-5.94c0-1.38,1.13-2,2.52-1.45h0a4.31,4.31,0,0,1,2.52,3.58v5.94C90.87,127.62,89.73,128.27,88.35,127.69Z" transform="translate(-0.51 -1.56)"/><path class="cls-5" d="M64.53,114h0A4.31,4.31,0,0,1,62,110.39v-5.94c0-1.38,1.13-2,2.52-1.45h0A4.31,4.31,0,0,1,67,106.57v5.94C67,113.9,65.91,114.55,64.53,114Z" transform="translate(-0.51 -1.56)"/><path class="cls-6" d="M82.45,118.09a0.55,0.55,0,0,1-.81.52,1.29,1.29,0,0,1-.81-1.11,0.55,0.55,0,0,1,.81-0.52A1.29,1.29,0,0,1,82.45,118.09Z" transform="translate(-0.51 -1.56)"/><path class="cls-6" d="M79.85,116.5A0.55,0.55,0,0,1,79,117a1.29,1.29,0,0,1-.81-1.11,0.55,0.55,0,0,1,.81-0.52A1.29,1.29,0,0,1,79.85,116.5Z" transform="translate(-0.51 -1.56)"/><path class="cls-6" d="M77.25,114.91a0.55,0.55,0,0,1-.81.52,1.29,1.29,0,0,1-.81-1.11,0.55,0.55,0,0,1,.81-0.52A1.29,1.29,0,0,1,77.25,114.91Z" transform="translate(-0.51 -1.56)"/><path class="cls-6" d="M74.65,113.31a0.55,0.55,0,0,1-.81.52,1.29,1.29,0,0,1-.81-1.11,0.55,0.55,0,0,1,.81-0.52A1.29,1.29,0,0,1,74.65,113.31Z" transform="translate(-0.51 -1.56)"/><path class="cls-6" d="M72.06,111.72a0.55,0.55,0,0,1-.81.52,1.29,1.29,0,0,1-.81-1.11,0.55,0.55,0,0,1,.81-0.52A1.29,1.29,0,0,1,72.06,111.72Z" transform="translate(-0.51 -1.56)"/><path class="cls-6" d="M79.85,119.32a0.55,0.55,0,0,1-.81.52,1.29,1.29,0,0,1-.81-1.11,0.55,0.55,0,0,1,.81-0.52A1.29,1.29,0,0,1,79.85,119.32Z" transform="translate(-0.51 -1.56)"/><path class="cls-6" d="M77.25,117.73a0.55,0.55,0,0,1-.81.52,1.29,1.29,0,0,1-.81-1.11,0.55,0.55,0,0,1,.81-0.52A1.29,1.29,0,0,1,77.25,117.73Z" transform="translate(-0.51 -1.56)"/><path class="cls-6" d="M74.65,116.14a0.55,0.55,0,0,1-.81.52,1.29,1.29,0,0,1-.81-1.11,0.55,0.55,0,0,1,.81-0.52A1.29,1.29,0,0,1,74.65,116.14Z" transform="translate(-0.51 -1.56)"/><path class="cls-5" d="M133.65,98.14V110a7.25,7.25,0,0,1-3.48,5.5L103,131.15c-1.92,1.11-3.48.44-3.48-1.47V117.83Z" transform="translate(-0.51 -1.56)"/><path class="cls-5" d="M104.68,127.69h0a4.31,4.31,0,0,0,2.52-3.58v-5.94c0-1.38-1.13-2-2.52-1.45h0a4.31,4.31,0,0,0-2.52,3.58v5.94C102.16,127.62,103.29,128.27,104.68,127.69Z" transform="translate(-0.51 -1.56)"/><path class="cls-5" d="M128.5,114h0a4.31,4.31,0,0,0,2.52-3.58v-5.94c0-1.38-1.13-2-2.52-1.45h0a4.31,4.31,0,0,0-2.52,3.58v5.94C126,113.9,127.12,114.55,128.5,114Z" transform="translate(-0.51 -1.56)"/><path class="cls-6" d="M110.58,118.09a0.55,0.55,0,0,0,.81.52,1.29,1.29,0,0,0,.81-1.11,0.55,0.55,0,0,0-.81-0.52A1.29,1.29,0,0,0,110.58,118.09Z" transform="translate(-0.51 -1.56)"/><path class="cls-6" d="M113.18,116.5a0.55,0.55,0,0,0,.81.52,1.29,1.29,0,0,0,.81-1.11,0.55,0.55,0,0,0-.81-0.52A1.29,1.29,0,0,0,113.18,116.5Z" transform="translate(-0.51 -1.56)"/><path class="cls-6" d="M115.78,114.91a0.55,0.55,0,0,0,.81.52,1.29,1.29,0,0,0,.81-1.11,0.55,0.55,0,0,0-.81-0.52A1.29,1.29,0,0,0,115.78,114.91Z" transform="translate(-0.51 -1.56)"/><path class="cls-6" d="M118.37,113.31a0.55,0.55,0,0,0,.81.52,1.29,1.29,0,0,0,.81-1.11,0.55,0.55,0,0,0-.81-0.52A1.29,1.29,0,0,0,118.37,113.31Z" transform="translate(-0.51 -1.56)"/><path class="cls-6" d="M121,111.72a0.55,0.55,0,0,0,.81.52,1.29,1.29,0,0,0,.81-1.11,0.55,0.55,0,0,0-.81-0.52A1.29,1.29,0,0,0,121,111.72Z" transform="translate(-0.51 -1.56)"/><path class="cls-6" d="M113.18,119.32a0.55,0.55,0,0,0,.81.52,1.29,1.29,0,0,0,.81-1.11,0.55,0.55,0,0,0-.81-0.52A1.29,1.29,0,0,0,113.18,119.32Z" transform="translate(-0.51 -1.56)"/><path class="cls-6" d="M115.78,117.73a0.55,0.55,0,0,0,.81.52,1.29,1.29,0,0,0,.81-1.11,0.55,0.55,0,0,0-.81-0.52A1.29,1.29,0,0,0,115.78,117.73Z" transform="translate(-0.51 -1.56)"/><path class="cls-6" d="M118.37,116.14a0.55,0.55,0,0,0,.81.52,1.29,1.29,0,0,0,.81-1.11,0.55,0.55,0,0,0-.81-0.52A1.29,1.29,0,0,0,118.37,116.14Z" transform="translate(-0.51 -1.56)"/><path class="cls-5" d="M93.08,61.49L57.66,81.94a2.69,2.69,0,0,0,0,4.66l35.42,20.45a6.87,6.87,0,0,0,6.87,0L135.37,86.6a2.69,2.69,0,0,0,0-4.66L100,61.49A6.87,6.87,0,0,0,93.08,61.49Z" transform="translate(-0.51 -1.56)"/><polygon class="cls-6" points="120.64 78.49 96 64.26 64.06 82.7 64.06 82.71 88.7 96.93 120.64 78.49"/><polygon class="cls-7" points="89.13 77.85 89.13 77.85 87.64 78.71 86.15 77.85 86.15 77.85 87.64 76.99 89.13 77.85"/><polygon class="cls-7" points="92.11 77.85 92.11 77.85 90.62 78.71 89.13 77.85 89.13 77.85 90.62 76.99 92.11 77.85"/><polygon class="cls-7" points="87.64 78.71 87.64 78.71 86.15 79.57 84.67 78.71 84.67 78.71 86.15 77.85 87.64 78.71"/><polygon class="cls-7" points="93.59 78.71 93.59 78.71 92.11 79.57 90.62 78.71 90.62 78.71 92.11 77.85 93.59 78.71"/><polygon class="cls-7" points="86.15 79.57 86.15 79.57 84.67 80.42 83.18 79.57 83.18 79.57 84.67 78.71 86.15 79.57"/><polygon class="cls-7" points="95.08 79.57 95.08 79.57 93.59 80.42 92.11 79.57 92.11 79.57 93.59 78.71 95.08 79.57"/><polygon class="cls-7" points="96.57 80.42 96.57 80.42 95.08 81.28 93.59 80.42 93.59 80.42 95.08 79.57 96.57 80.42"/><polygon class="cls-7" points="86.15 81.28 86.15 81.28 84.67 82.14 83.18 81.28 83.18 81.28 84.67 80.42 86.15 81.28"/><polygon class="cls-7" points="98.06 81.28 98.06 81.28 96.57 82.14 95.08 81.28 95.08 81.28 96.57 80.42 98.06 81.28"/><polygon class="cls-7" points="87.64 82.14 87.64 82.14 86.15 83 84.67 82.14 84.67 82.14 86.15 81.28 87.64 82.14"/><polygon class="cls-7" points="89.13 83 89.13 83 87.64 83.86 86.15 83 86.15 83 87.64 82.14 89.13 83"/><polygon class="cls-7" points="98.06 83 98.06 83 96.57 83.86 95.08 83 95.08 83 96.57 82.14 98.06 83"/><polygon class="cls-7" points="90.62 83.86 90.62 83.86 89.13 84.72 87.64 83.86 87.64 83.86 89.13 83 90.62 83.86"/><polygon class="cls-7" points="96.57 83.86 96.57 83.86 95.08 84.72 93.59 83.86 93.59 83.86 95.08 83 96.57 83.86"/><polygon class="cls-7" points="92.11 84.72 92.11 84.72 90.62 85.58 89.13 84.72 89.13 84.72 90.62 83.86 92.11 84.72"/><polygon class="cls-7" points="95.08 84.72 95.08 84.72 93.59 85.58 92.11 84.72 92.11 84.72 93.59 83.86 95.08 84.72"/><polygon class="cls-7" points="96.57 73.55 96.57 73.55 95.08 74.41 93.59 73.55 93.59 73.55 95.08 72.69 96.57 73.55"/><polygon class="cls-7" points="99.55 73.55 99.55 73.55 98.06 74.41 96.57 73.55 96.57 73.55 98.06 72.69 99.55 73.55"/><polygon class="cls-7" points="102.52 73.55 102.52 73.55 101.04 74.41 99.55 73.55 99.55 73.55 101.04 72.69 102.52 73.55"/><polygon class="cls-7" points="95.08 74.41 95.08 74.41 93.59 75.27 92.11 74.41 92.11 74.41 93.59 73.55 95.08 74.41"/><polygon class="cls-7" points="104.01 74.41 104.01 74.41 102.52 75.27 101.04 74.41 101.04 74.41 102.52 73.55 104.01 74.41"/><polygon class="cls-7" points="93.59 75.27 93.59 75.27 92.11 76.13 90.62 75.27 90.62 75.27 92.11 74.41 93.59 75.27"/><polygon class="cls-7" points="105.5 75.27 105.5 75.27 104.01 76.13 102.52 75.27 102.52 75.27 104.01 74.41 105.5 75.27"/><polygon class="cls-7" points="95.08 76.13 95.08 76.13 93.59 76.99 92.11 76.13 92.11 76.13 93.59 75.27 95.08 76.13"/><polygon class="cls-7" points="96.57 76.99 96.57 76.99 95.08 77.85 93.59 76.99 93.59 76.99 95.08 76.13 96.57 76.99"/><polygon class="cls-7" points="105.5 76.99 105.5 76.99 104.01 77.85 102.52 76.99 102.52 76.99 104.01 76.13 105.5 76.99"/><polygon class="cls-7" points="98.06 77.85 98.06 77.85 96.57 78.71 95.08 77.85 95.08 77.85 96.57 76.99 98.06 77.85"/><polygon class="cls-7" points="99.55 78.71 99.55 78.71 98.06 79.57 96.57 78.71 96.57 78.71 98.06 77.85 99.55 78.71"/><polygon class="cls-7" points="105.5 78.71 105.5 78.71 104.01 79.57 102.52 78.71 102.52 78.71 104.01 77.85 105.5 78.71"/><polygon class="cls-7" points="101.04 79.57 101.04 79.57 99.55 80.42 98.06 79.57 98.06 79.57 99.55 78.71 101.04 79.57"/><polygon class="cls-7" points="104.01 79.57 104.01 79.57 102.52 80.42 101.04 79.57 101.04 79.57 102.52 78.71 104.01 79.57"/><polygon class="cls-7" points="102.52 80.42 102.52 80.42 101.04 81.28 99.55 80.42 99.55 80.42 101.04 79.57 102.52 80.42"/><polygon class="cls-7" points="102.52 70.11 102.52 70.11 101.04 70.97 99.55 70.11 99.55 70.11 101.04 69.25 102.52 70.11"/><polygon class="cls-7" points="104.01 70.97 104.01 70.97 102.52 71.83 101.04 70.97 101.04 70.97 102.52 70.11 104.01 70.97"/><polygon class="cls-7" points="105.5 71.83 105.5 71.83 104.01 72.69 102.52 71.83 102.52 71.83 104.01 70.97 105.5 71.83"/><polygon class="cls-7" points="106.99 72.69 106.99 72.69 105.5 73.55 104.01 72.69 104.01 72.69 105.5 71.83 106.99 72.69"/><polygon class="cls-7" points="108.48 73.55 108.48 73.55 106.99 74.41 105.5 73.55 105.5 73.55 106.99 72.69 108.48 73.55"/><polygon class="cls-7" points="109.97 74.41 109.97 74.41 108.48 75.27 106.99 74.41 106.99 74.41 108.48 73.55 109.97 74.41"/><polygon class="cls-7" points="111.45 75.27 111.45 75.27 109.97 76.13 108.48 75.27 108.48 75.27 109.97 74.41 111.45 75.27"/><polygon class="cls-7" points="81.69 82.14 81.69 82.14 80.2 83 78.71 82.14 78.71 82.14 80.2 81.28 81.69 82.14"/><polygon class="cls-7" points="83.18 83 83.18 83 81.69 83.86 80.2 83 80.2 83 81.69 82.14 83.18 83"/><polygon class="cls-7" points="81.69 83.86 81.69 83.86 80.2 84.72 78.71 83.86 78.71 83.86 80.2 83 81.69 83.86"/><polygon class="cls-7" points="84.67 83.86 84.67 83.86 83.18 84.72 81.69 83.86 81.69 83.86 83.18 83 84.67 83.86"/><polygon class="cls-7" points="86.15 84.72 86.15 84.72 84.67 85.58 83.18 84.72 83.18 84.72 84.67 83.86 86.15 84.72"/><polygon class="cls-7" points="75.74 85.58 75.74 85.58 74.25 86.44 72.76 85.58 72.76 85.58 74.25 84.72 75.74 85.58"/><polygon class="cls-7" points="78.71 85.58 78.71 85.58 77.22 86.44 75.74 85.58 75.74 85.58 77.22 84.72 78.71 85.58"/><polygon class="cls-7" points="81.69 85.58 81.69 85.58 80.2 86.44 78.71 85.58 78.71 85.58 80.2 84.72 81.69 85.58"/><polygon class="cls-7" points="87.64 85.58 87.64 85.58 86.15 86.44 84.67 85.58 84.67 85.58 86.15 84.72 87.64 85.58"/><polygon class="cls-7" points="77.22 86.44 77.22 86.44 75.74 87.3 74.25 86.44 74.25 86.44 75.74 85.58 77.22 86.44"/><polygon class="cls-7" points="89.13 86.44 89.13 86.44 87.64 87.3 86.15 86.44 86.15 86.44 87.64 85.58 89.13 86.44"/><polygon class="cls-7" points="78.71 87.3 78.71 87.3 77.22 88.16 75.74 87.3 75.74 87.3 77.22 86.44 78.71 87.3"/><polygon class="cls-7" points="90.62 87.3 90.62 87.3 89.13 88.16 87.64 87.3 87.64 87.3 89.13 86.44 90.62 87.3"/><polygon class="cls-7" points="80.2 88.16 80.2 88.16 78.71 89.02 77.22 88.16 77.22 88.16 78.71 87.3 80.2 88.16"/><polygon class="cls-7" points="81.69 89.02 81.69 89.02 80.2 89.88 78.71 89.02 78.71 89.02 80.2 88.16 81.69 89.02"/><polygon class="cls-7" points="83.18 89.88 83.18 89.88 81.69 90.74 80.2 89.88 80.2 89.88 81.69 89.02 83.18 89.88"/><polygon class="cls-7" points="84.67 90.74 84.67 90.74 83.18 91.6 81.69 90.74 81.69 90.74 83.18 89.88 84.67 90.74"/></svg>