<svg id="레이어_1" data-name="레이어 1" xmlns="http://www.w3.org/2000/svg" width="210" height="210" viewBox="0 0 210 210">
  <defs>
    <style>
      .cls-1, .cls-4, .cls-5 {
        fill: #fff;
      }

      .cls-1 {
        fill-opacity: 0;
      }

      .cls-2 {
        fill: #f1f1f1;
      }

      .cls-3 {
        fill: none;
      }

      .cls-3, .cls-4, .cls-5 {
        stroke: #26cad3;
        stroke-miterlimit: 10;
      }

      .cls-3, .cls-4 {
        stroke-width: 1.5px;
      }

      .cls-6 {
        fill: #26cad3;
      }
    </style>
  </defs>
  <title>helpEnv</title>
  <rect class="cls-1" width="210" height="210"/>
  <path class="cls-2" d="M99.85,113.2,47,143.7a4,4,0,0,0,0,6.94l52.82,30.5a10.24,10.24,0,0,0,10.24,0l52.81-30.49a4,4,0,0,0,0-6.94l-52.81-30.5A10.24,10.24,0,0,0,99.85,113.2Z"/>
  <path class="cls-3" d="M154.25,107.87V96.11a3.34,3.34,0,0,0-.21-1.9v-.08a3.23,3.23,0,0,0-.17-.33l-.08-.12-.2-.26-.11-.12-.25-.24-.12-.1a3.39,3.39,0,0,0-.41-.29h0L109.19,67.55A8.43,8.43,0,0,0,105,66.42h-.1a8.42,8.42,0,0,0-4.15,1.13l-7.13,4.12-36.35,21a3.39,3.39,0,0,0-.42.29l-.11.1-.25.24-.11.12-.2.27-.08.12a3.23,3.23,0,0,0-.17.33v.08a3.34,3.34,0,0,0-.21,1.9v11.77a3.37,3.37,0,0,0,0,1.14v29a3.28,3.28,0,0,0,1.59,3.45l43.48,25.1a8.43,8.43,0,0,0,8.43,0l43.47-25.1a3.28,3.28,0,0,0,1.59-3.45V109A3.37,3.37,0,0,0,154.25,107.87Z"/>
  <path class="cls-4" d="M154.25,138V95.51H55.68V138a3.28,3.28,0,0,0,1.59,3.45l43.48,25.1a8.43,8.43,0,0,0,8.43,0l43.47-25.1A3.28,3.28,0,0,0,154.25,138Z"/>
  <path class="cls-5" d="M154.25,96.11a3.28,3.28,0,0,0-1.59-3.45L109.19,67.55a8.43,8.43,0,0,0-8.43,0L57.27,92.66a3.28,3.28,0,0,0-1.59,3.45v11.76a3.28,3.28,0,0,0,1.59,3.45l43.48,25.1a8.43,8.43,0,0,0,8.43,0l43.47-25.1a3.28,3.28,0,0,0,1.59-3.45V96.11Z"/>
  <path class="cls-5" d="M59.38,112.53v14.54c0,2.35,1.93,5.39,4.28,6.75L97,153.05c2.35,1.36,4.28.54,4.28-1.81V136.71Z"/>
  <path class="cls-5" d="M94.94,148.81h0a5.29,5.29,0,0,1-3.09-4.4v-7.3c0-1.7,1.39-2.5,3.09-1.78h0a5.29,5.29,0,0,1,3.09,4.4V147C98,148.72,96.64,149.52,94.94,148.81Z"/>
  <path class="cls-5" d="M65.7,132h0a5.29,5.29,0,0,1-3.09-4.4v-7.3c0-1.7,1.39-2.5,3.09-1.78h0a5.29,5.29,0,0,1,3.09,4.4v7.3C68.79,131.88,67.4,132.68,65.7,132Z"/>
  <path class="cls-6" d="M87.7,137a.68.68,0,0,1-1,.64,1.58,1.58,0,0,1-1-1.36.68.68,0,0,1,1-.64A1.58,1.58,0,0,1,87.7,137Z"/>
  <path class="cls-6" d="M84.51,135.07a.68.68,0,0,1-1,.64,1.58,1.58,0,0,1-1-1.36.68.68,0,0,1,1-.64A1.58,1.58,0,0,1,84.51,135.07Z"/>
  <path class="cls-6" d="M81.32,133.12a.68.68,0,0,1-1,.64,1.58,1.58,0,0,1-1-1.36.68.68,0,0,1,1-.64A1.58,1.58,0,0,1,81.32,133.12Z"/>
  <path class="cls-6" d="M78.13,131.16a.68.68,0,0,1-1,.64,1.58,1.58,0,0,1-1-1.36.68.68,0,0,1,1-.64A1.58,1.58,0,0,1,78.13,131.16Z"/>
  <path class="cls-6" d="M74.94,129.21a.68.68,0,0,1-1,.64,1.58,1.58,0,0,1-1-1.36.68.68,0,0,1,1-.64A1.58,1.58,0,0,1,74.94,129.21Z"/>
  <path class="cls-6" d="M84.51,138.54a.68.68,0,0,1-1,.64,1.58,1.58,0,0,1-1-1.36.68.68,0,0,1,1-.64A1.58,1.58,0,0,1,84.51,138.54Z"/>
  <path class="cls-6" d="M81.32,136.58a.68.68,0,0,1-1,.64,1.58,1.58,0,0,1-1-1.36.68.68,0,0,1,1-.64A1.58,1.58,0,0,1,81.32,136.58Z"/>
  <path class="cls-6" d="M78.13,134.63a.68.68,0,0,1-1,.64,1.58,1.58,0,0,1-1-1.36.68.68,0,0,1,1-.64A1.58,1.58,0,0,1,78.13,134.63Z"/>
  <path class="cls-5" d="M150.55,112.53v14.54c0,2.35-1.93,5.39-4.28,6.75L113,153.06c-2.35,1.36-4.28.54-4.28-1.81V136.71Z"/>
  <path class="cls-5" d="M115,148.81h0a5.29,5.29,0,0,0,3.09-4.4v-7.3c0-1.7-1.39-2.5-3.09-1.78h0a5.29,5.29,0,0,0-3.09,4.4V147C111.9,148.72,113.29,149.52,115,148.81Z"/>
  <path class="cls-5" d="M144.23,132h0a5.29,5.29,0,0,0,3.09-4.4v-7.3c0-1.7-1.39-2.5-3.09-1.78h0a5.29,5.29,0,0,0-3.09,4.4v7.3C141.14,131.88,142.53,132.68,144.23,132Z"/>
  <path class="cls-6" d="M122.23,137a.68.68,0,0,0,1,.64,1.58,1.58,0,0,0,1-1.36.68.68,0,0,0-1-.64A1.58,1.58,0,0,0,122.23,137Z"/>
  <path class="cls-6" d="M125.42,135.07a.68.68,0,0,0,1,.64,1.58,1.58,0,0,0,1-1.36.68.68,0,0,0-1-.64A1.58,1.58,0,0,0,125.42,135.07Z"/>
  <path class="cls-6" d="M128.61,133.12a.68.68,0,0,0,1,.64,1.58,1.58,0,0,0,1-1.36.68.68,0,0,0-1-.64A1.58,1.58,0,0,0,128.61,133.12Z"/>
  <path class="cls-6" d="M131.8,131.16a.68.68,0,0,0,1,.64,1.58,1.58,0,0,0,1-1.36.68.68,0,0,0-1-.64A1.58,1.58,0,0,0,131.8,131.16Z"/>
  <path class="cls-6" d="M135,129.21a.68.68,0,0,0,1,.64,1.58,1.58,0,0,0,1-1.36.68.68,0,0,0-1-.64A1.58,1.58,0,0,0,135,129.21Z"/>
  <path class="cls-6" d="M125.42,138.54a.68.68,0,0,0,1,.64,1.58,1.58,0,0,0,1-1.36.68.68,0,0,0-1-.64A1.58,1.58,0,0,0,125.42,138.54Z"/>
  <path class="cls-6" d="M128.61,136.58a.68.68,0,0,0,1,.64,1.58,1.58,0,0,0,1-1.36.68.68,0,0,0-1-.64A1.58,1.58,0,0,0,128.61,136.58Z"/>
  <path class="cls-6" d="M131.8,134.63a.68.68,0,0,0,1,.64,1.58,1.58,0,0,0,1-1.36.68.68,0,0,0-1-.64A1.58,1.58,0,0,0,131.8,134.63Z"/>
  <g>
    <path class="cls-5" d="M100.75,67.55,57.28,92.65a3.3,3.3,0,0,0,0,5.72l43.47,25.1a8.43,8.43,0,0,0,8.43,0l43.46-25.09a3.3,3.3,0,0,0,0-5.72L109.18,67.55A8.43,8.43,0,0,0,100.75,67.55Z"/>
    <path class="cls-5" d="M88.84,99.44a3.3,3.3,0,0,0,1.22,1.22l7.27,4.2a7.34,7.34,0,0,0,7.34,0l15.19-8.77a3.3,3.3,0,0,0,0-5.72l-7.27-4.2a7.34,7.34,0,0,0-7.34,0L90.06,94.94A3.3,3.3,0,0,0,88.84,99.44Z"/>
    <g>
      <path class="cls-6" d="M103.82,98l-2.87-1.64a1.18,1.18,0,0,0-1.17,0l-3,1.72a.57.57,0,0,0-.28.5h0v1.62h0a.56.56,0,0,0,.07.29.57.57,0,0,0,.21.21l3,1.74a.57.57,0,0,0,.64.09l3.36-1.93a.54.54,0,0,0,.26-.39h0V98.6A.54.54,0,0,0,103.82,98Z"/>
      <path class="cls-6" d="M113.42,93.16h0a.56.56,0,0,0-.07-.31.57.57,0,0,0-.21-.21l-3-1.77a.77.77,0,0,0-.77,0l-6.1,3.5a.55.55,0,0,0-.27.46h0V96.5h0a.55.55,0,0,0,.28.47l2.87,1.64a1.18,1.18,0,0,0,1.17,0l5.84-3.35a.56.56,0,0,0,.27-.46h0Z"/>
    </g>
  </g>
  <ellipse class="cls-6" cx="141.15" cy="95.18" rx="2.66" ry="1.21"/>
</svg>
