<svg id="레이어_1" data-name="레이어 1" xmlns="http://www.w3.org/2000/svg" width="210" height="210" viewBox="0 0 210 210">
  <defs>
    <style>
      .cls-1, .cls-4, .cls-5 {
        fill: #fff;
      }

      .cls-1 {
        fill-opacity: 0;
      }

      .cls-2 {
        fill: #f1f1f1;
      }

      .cls-3 {
        fill: none;
      }

      .cls-3, .cls-4, .cls-5 {
        stroke: #26cad3;
        stroke-miterlimit: 10;
      }

      .cls-3, .cls-4 {
        stroke-width: 1.5px;
      }

      .cls-6 {
        fill: #26cad3;
      }
    </style>
  </defs>
  <title>helpEnvilluminance</title>
  <rect class="cls-1" width="210" height="210"/>
  <path class="cls-2" d="M99.89,98.88,55.18,124.67a3.39,3.39,0,0,0,0,5.88l44.71,25.81a8.67,8.67,0,0,0,8.67,0l44.7-25.81a3.39,3.39,0,0,0,0-5.88l-44.7-25.82A8.67,8.67,0,0,0,99.89,98.88Z"/>
  <path class="cls-3" d="M145.93,94.37v-10a2.83,2.83,0,0,0-.18-1.61v-.07a2.73,2.73,0,0,0-.15-.28l-.07-.1-.17-.22-.09-.11-.21-.2-.1-.09a2.87,2.87,0,0,0-.35-.24h0L107.79,60.24a7.13,7.13,0,0,0-3.57-1h-.06a7.13,7.13,0,0,0-3.51,1l-6,3.48L63.85,81.49a2.87,2.87,0,0,0-.36.25l-.1.09-.21.2-.09.1-.17.22-.07.1a2.73,2.73,0,0,0-.15.28v.07a2.83,2.83,0,0,0-.18,1.61v10a2.85,2.85,0,0,0,0,1V120a2.77,2.77,0,0,0,1.35,2.92l36.8,21.25a7.14,7.14,0,0,0,7.14,0l36.79-21.24A2.77,2.77,0,0,0,146,120V95.34A2.85,2.85,0,0,0,145.93,94.37Z"/>
  <path class="cls-4" d="M145.93,119.89v-36H62.51v36a2.77,2.77,0,0,0,1.35,2.92l36.8,21.25a7.14,7.14,0,0,0,7.14,0l36.79-21.24A2.77,2.77,0,0,0,145.93,119.89Z"/>
  <path class="cls-5" d="M145.93,84.41a2.77,2.77,0,0,0-1.35-2.92L107.79,60.24a7.14,7.14,0,0,0-7.14,0L63.85,81.49a2.77,2.77,0,0,0-1.35,2.92v10a2.77,2.77,0,0,0,1.35,2.92l36.8,21.25a7.14,7.14,0,0,0,7.14,0l36.79-21.24a2.77,2.77,0,0,0,1.35-2.92v-10Z"/>
  <path class="cls-5" d="M65.64,98.31v12.3a7.54,7.54,0,0,0,3.62,5.71l28.2,16.28c2,1.15,3.62.46,3.62-1.53v-12.3Z"/>
  <path class="cls-5" d="M95.74,129h0a4.47,4.47,0,0,1-2.61-3.72v-6.18c0-1.44,1.18-2.12,2.61-1.51h0a4.47,4.47,0,0,1,2.61,3.72v6.18C98.35,128.94,97.17,129.62,95.74,129Z"/>
  <path class="cls-5" d="M71,114.76h0A4.47,4.47,0,0,1,68.39,111v-6.18c0-1.44,1.18-2.12,2.61-1.51h0a4.47,4.47,0,0,1,2.61,3.72v6.18C73.6,114.67,72.43,115.36,71,114.76Z"/>
  <path class="cls-6" d="M89.61,119a.57.57,0,0,1-.85.54,1.34,1.34,0,0,1-.85-1.15.57.57,0,0,1,.85-.54A1.34,1.34,0,0,1,89.61,119Z"/>
  <path class="cls-6" d="M86.91,117.39a.57.57,0,0,1-.85.54,1.34,1.34,0,0,1-.85-1.15.57.57,0,0,1,.85-.54A1.34,1.34,0,0,1,86.91,117.39Z"/>
  <path class="cls-6" d="M84.21,115.73a.57.57,0,0,1-.85.54,1.34,1.34,0,0,1-.85-1.15.57.57,0,0,1,.85-.54A1.34,1.34,0,0,1,84.21,115.73Z"/>
  <path class="cls-6" d="M81.51,114.08a.57.57,0,0,1-.85.54,1.34,1.34,0,0,1-.85-1.15.57.57,0,0,1,.85-.54A1.34,1.34,0,0,1,81.51,114.08Z"/>
  <path class="cls-6" d="M78.81,112.42A.57.57,0,0,1,78,113a1.34,1.34,0,0,1-.85-1.15.57.57,0,0,1,.89-.54A1.34,1.34,0,0,1,78.81,112.42Z"/>
  <path class="cls-6" d="M86.91,120.32a.57.57,0,0,1-.85.54,1.34,1.34,0,0,1-.85-1.15.57.57,0,0,1,.85-.54A1.34,1.34,0,0,1,86.91,120.32Z"/>
  <path class="cls-6" d="M84.21,118.67a.57.57,0,0,1-.85.54,1.34,1.34,0,0,1-.85-1.15.57.57,0,0,1,.85-.54A1.34,1.34,0,0,1,84.21,118.67Z"/>
  <path class="cls-6" d="M81.51,117a.57.57,0,0,1-.85.54,1.34,1.34,0,0,1-.85-1.15.57.57,0,0,1,.85-.54A1.34,1.34,0,0,1,81.51,117Z"/>
  <path class="cls-5" d="M142.79,98.31v12.3a7.54,7.54,0,0,1-3.62,5.71L111,132.61c-2,1.15-3.62.46-3.62-1.53v-12.3Z"/>
  <path class="cls-5" d="M112.7,129h0a4.47,4.47,0,0,0,2.61-3.72v-6.18c0-1.44-1.18-2.12-2.61-1.51h0a4.47,4.47,0,0,0-2.61,3.72v6.18C110.09,128.94,111.26,129.62,112.7,129Z"/>
  <path class="cls-5" d="M137.45,114.76h0a4.47,4.47,0,0,0,2.61-3.72v-6.18c0-1.44-1.18-2.12-2.61-1.51h0a4.47,4.47,0,0,0-2.61,3.72v6.18C134.83,114.67,136,115.36,137.45,114.76Z"/>
  <path class="cls-6" d="M118.83,119a.57.57,0,0,0,.85.54,1.34,1.34,0,0,0,.85-1.15.57.57,0,0,0-.85-.54A1.34,1.34,0,0,0,118.83,119Z"/>
  <path class="cls-6" d="M121.53,117.39a.57.57,0,0,0,.85.54,1.34,1.34,0,0,0,.85-1.15.57.57,0,0,0-.85-.54A1.34,1.34,0,0,0,121.53,117.39Z"/>
  <path class="cls-6" d="M124.23,115.73a.57.57,0,0,0,.85.54,1.34,1.34,0,0,0,.85-1.15.57.57,0,0,0-.85-.54A1.34,1.34,0,0,0,124.23,115.73Z"/>
  <path class="cls-6" d="M126.93,114.08a.57.57,0,0,0,.85.54,1.34,1.34,0,0,0,.85-1.15.57.57,0,0,0-.85-.54A1.34,1.34,0,0,0,126.93,114.08Z"/>
  <path class="cls-6" d="M129.63,112.42a.57.57,0,0,0,.85.54,1.34,1.34,0,0,0,.85-1.15.57.57,0,0,0-.85-.54A1.34,1.34,0,0,0,129.63,112.42Z"/>
  <path class="cls-6" d="M121.53,120.32a.57.57,0,0,0,.85.54,1.34,1.34,0,0,0,.85-1.15.57.57,0,0,0-.85-.54A1.34,1.34,0,0,0,121.53,120.32Z"/>
  <path class="cls-6" d="M124.23,118.67a.57.57,0,0,0,.85.54,1.34,1.34,0,0,0,.85-1.15.57.57,0,0,0-.85-.54A1.34,1.34,0,0,0,124.23,118.67Z"/>
  <path class="cls-6" d="M126.93,117a.57.57,0,0,0,.85.54,1.34,1.34,0,0,0,.85-1.15.57.57,0,0,0-.85-.54A1.34,1.34,0,0,0,126.93,117Z"/>
  <path class="cls-6" d="M28.33,110.81A14.66,14.66,0,1,0,13.67,96.15h0A14.66,14.66,0,0,0,28.33,110.81Zm0-27.94a13.28,13.28,0,0,1,0,26.55Z"/>
  <path class="cls-6" d="M45.93,104.37a1.69,1.69,0,1,0-1.69,2.93h0l5.66,3.27a1.69,1.69,0,1,0,1.69-2.9Z"/>
  <path class="cls-6" d="M39.48,112.08a1.45,1.45,0,0,0-2.31-.62,1.45,1.45,0,0,0-.62,2.31l3.27,5.66a1.45,1.45,0,0,0,2.31.62,1.45,1.45,0,0,0,.62-2.31Z"/>
  <path class="cls-6" d="M39.48,80.26l3.27-5.66a1.45,1.45,0,0,0-.62-2.31,1.45,1.45,0,0,0-2.31.62l-3.27,5.66a1.45,1.45,0,0,0,.62,2.31,1.45,1.45,0,0,0,2.31-.62Z"/>
  <path class="cls-6" d="M45.93,88l5.66-3.3a1.69,1.69,0,1,0-1.69-2.93h0L44.24,85a1.7,1.7,0,1,0,1.69,3Z"/>
  <path class="cls-6" d="M47.67,97.86H54.2a1.69,1.69,0,1,0,0-3.39H47.67a1.69,1.69,0,1,0,0,3.39Z"/>
  <g>
    <path class="cls-5" d="M100.65,60.24,63.85,81.49a2.79,2.79,0,0,0,0,4.84l36.8,21.25a7.14,7.14,0,0,0,7.14,0l36.79-21.24a2.79,2.79,0,0,0,0-4.84L107.79,60.24A7.14,7.14,0,0,0,100.65,60.24Z"/>
    <path class="cls-5" d="M90.57,87.23a2.79,2.79,0,0,0,1,1l6.16,3.55a6.22,6.22,0,0,0,6.22,0l12.86-7.42a2.79,2.79,0,0,0,0-4.84L110.68,76a6.22,6.22,0,0,0-6.22,0L91.6,83.43A2.79,2.79,0,0,0,90.57,87.23Z"/>
    <g>
      <path class="cls-6" d="M103.25,86l-2.43-1.39a1,1,0,0,0-1,0l-2.54,1.46a.48.48,0,0,0-.23.42h0V87.9h0a.47.47,0,0,0,.06.24.49.49,0,0,0,.17.17l2.58,1.47a.49.49,0,0,0,.54.07l2.84-1.63a.45.45,0,0,0,.22-.33h0V86.53A.46.46,0,0,0,103.25,86Z"/>
      <path class="cls-6" d="M111.38,81.92h0a.47.47,0,0,0-.06-.26.49.49,0,0,0-.17-.17L108.6,80a.65.65,0,0,0-.65,0l-5.16,3a.46.46,0,0,0-.23.39h0v1.41h0a.47.47,0,0,0,.24.4l2.43,1.39a1,1,0,0,0,1,0l4.94-2.84a.48.48,0,0,0,.23-.39h0Z"/>
    </g>
  </g>
  <ellipse class="cls-6" cx="134.84" cy="83.63" rx="2.25" ry="1.03"/>
</svg>
