<?xml version="1.0" encoding="utf-8"?>
<!-- Generator: Adobe Illustrator 17.0.0, SVG Export Plug-In . SVG Version: 6.00 Build 0)  -->
<!DOCTYPE svg PUBLIC "-//W3C//DTD SVG 1.1//EN" "http://www.w3.org/Graphics/SVG/1.1/DTD/svg11.dtd">
<svg version="1.1" id="Layer_1" xmlns="http://www.w3.org/2000/svg" xmlns:xlink="http://www.w3.org/1999/xlink" x="0px" y="0px"
	 width="210px" height="210px" viewBox="0 0 210 210" enable-background="new 0 0 210 210" xml:space="preserve">
<rect x="0.044" opacity="0" fill="#FFFFFF" width="210" height="210"/>
<g>
	<g>
		<path fill="#F1F1F1" d="M107.493,112.395l-44.699,25.807c-2.261,1.306-2.261,4.569,0,5.875l44.7,25.808
			c2.682,1.548,5.986,1.548,8.668,0l44.691-25.802c2.261-1.305,2.261-4.569,0.001-5.875l-44.691-25.812
			C113.48,110.846,110.175,110.846,107.493,112.395z"/>
		<path fill="none" stroke="#26CAD3" stroke-width="1.5" stroke-miterlimit="10" d="M153.528,107.886v-9.953
			c0.097-0.539,0.038-1.101-0.18-1.61c-0.01-0.024-0.022-0.046-0.033-0.07c-0.044-0.095-0.092-0.187-0.147-0.277
			c-0.021-0.035-0.043-0.068-0.066-0.102c-0.052-0.077-0.108-0.151-0.168-0.224c-0.029-0.035-0.058-0.071-0.09-0.105
			c-0.065-0.07-0.135-0.136-0.208-0.2c-0.033-0.029-0.063-0.06-0.098-0.088c-0.109-0.087-0.225-0.169-0.351-0.242
			c-0.002-0.001-0.003-0.002-0.005-0.003l-36.788-21.248c-0.828-0.478-1.728-0.777-2.646-0.897c-0.306-0.04-0.614-0.06-0.922-0.06
			c-0.019,0-0.037,0.003-0.056,0.004c-1.213,0.009-2.425,0.325-3.512,0.952l-6.034,3.484l-30.761,17.76
			c-0.128,0.074-0.246,0.157-0.356,0.246c-0.034,0.027-0.064,0.057-0.096,0.085c-0.074,0.065-0.145,0.131-0.211,0.202
			c-0.031,0.034-0.06,0.069-0.089,0.104c-0.061,0.073-0.117,0.147-0.169,0.225c-0.022,0.033-0.044,0.067-0.065,0.101
			c-0.055,0.09-0.104,0.183-0.147,0.277c-0.011,0.023-0.023,0.046-0.033,0.069c-0.218,0.509-0.277,1.07-0.18,1.61v9.956
			c-0.057,0.32-0.053,0.648,0,0.969V133.4c-0.196,1.093,0.249,2.286,1.346,2.919l36.795,21.244c2.208,1.275,4.928,1.275,7.135,0
			l36.788-21.239c1.097-0.634,1.542-1.827,1.346-2.92v-24.546C153.581,108.536,153.586,108.207,153.528,107.886z"/>
		<path fill="#FFFFFF" stroke="#26CAD3" stroke-width="1.5" stroke-miterlimit="10" d="M153.528,133.404V97.427h-83.41V133.4
			c-0.196,1.093,0.249,2.286,1.346,2.919l36.795,21.244c2.208,1.275,4.928,1.275,7.135,0l36.788-21.239
			C153.28,135.69,153.725,134.497,153.528,133.404z"/>
		<path fill="#FFFFFF" stroke="#26CAD3" stroke-miterlimit="10" d="M153.528,97.933c0.197-1.093-0.248-2.286-1.345-2.92
			l-36.788-21.248c-2.208-1.275-4.928-1.275-7.136-0.001L71.464,95.008c-1.097,0.633-1.542,1.826-1.346,2.92v9.954
			c-0.197,1.093,0.248,2.286,1.346,2.92l36.795,21.244c2.208,1.275,4.928,1.275,7.135,0l36.788-21.239
			c1.097-0.634,1.543-1.827,1.346-2.92V97.933z"/>
		<polygon fill="#FFFFFF" stroke="#26CAD3" stroke-miterlimit="10" points="70.118,97.417 70.118,97.427 111.823,121.505 
			153.528,97.427 153.528,97.417 111.823,73.339 		"/>
		<path fill="#FFFFFF" stroke="#26CAD3" stroke-miterlimit="10" d="M73.251,111.829v12.3c0,1.991,1.629,4.56,3.62,5.709
			l28.199,16.281c1.991,1.149,3.62,0.461,3.62-1.53v-12.3L73.251,111.829z"/>
		<g>
			<path fill="#FFFFFF" stroke="#26CAD3" stroke-miterlimit="10" d="M103.342,142.523L103.342,142.523
				c-1.438-0.608-2.615-2.282-2.615-3.72v-6.175c0-1.438,1.177-2.117,2.615-1.51h0c1.438,0.608,2.615,2.282,2.615,3.72v6.175
				C105.956,142.452,104.78,143.131,103.342,142.523z"/>
			<path fill="#FFFFFF" stroke="#26CAD3" stroke-miterlimit="10" d="M78.599,128.271L78.599,128.271
				c-1.438-0.608-2.615-2.282-2.615-3.72v-6.175c0-1.438,1.177-2.117,2.615-1.51l0,0c1.438,0.608,2.615,2.282,2.615,3.72v6.175
				C81.213,128.199,80.037,128.878,78.599,128.271z"/>
		</g>
		<g>
			<path fill="#26CAD3" d="M97.214,132.557c0,0.467-0.378,0.708-0.845,0.538c-0.467-0.17-0.845-0.686-0.845-1.153
				s0.378-0.708,0.845-0.538C96.835,131.574,97.214,132.09,97.214,132.557z"/>
			<path fill="#26CAD3" d="M94.515,130.902c0,0.467-0.378,0.708-0.845,0.538c-0.467-0.17-0.845-0.686-0.845-1.153
				s0.378-0.708,0.845-0.538C94.136,129.919,94.515,130.436,94.515,130.902z"/>
			<path fill="#26CAD3" d="M91.816,129.248c0,0.467-0.378,0.708-0.845,0.538c-0.467-0.17-0.845-0.686-0.845-1.153
				s0.378-0.708,0.845-0.538C91.437,128.265,91.816,128.781,91.816,129.248z"/>
			<path fill="#26CAD3" d="M89.116,127.594c0,0.467-0.378,0.708-0.845,0.538c-0.467-0.17-0.845-0.686-0.845-1.153
				c0-0.467,0.378-0.708,0.845-0.538C88.738,126.611,89.116,127.127,89.116,127.594z"/>
			<path fill="#26CAD3" d="M86.417,125.94c0,0.467-0.378,0.708-0.845,0.538s-0.845-0.686-0.845-1.153
				c0-0.467,0.378-0.708,0.845-0.538S86.417,125.473,86.417,125.94z"/>
			<path fill="#26CAD3" d="M94.515,133.834c0,0.467-0.378,0.708-0.845,0.538c-0.467-0.17-0.845-0.686-0.845-1.153
				s0.378-0.708,0.845-0.538C94.136,132.851,94.515,133.367,94.515,133.834z"/>
			<path fill="#26CAD3" d="M91.816,132.179c0,0.467-0.378,0.708-0.845,0.538c-0.467-0.17-0.845-0.686-0.845-1.153
				s0.378-0.708,0.845-0.538C91.437,131.196,91.816,131.713,91.816,132.179z"/>
			<path fill="#26CAD3" d="M89.116,130.525c0,0.467-0.378,0.708-0.845,0.538c-0.467-0.17-0.845-0.686-0.845-1.153
				c0-0.467,0.378-0.708,0.845-0.538C88.738,129.542,89.116,130.058,89.116,130.525z"/>
		</g>
		<path fill="#FFFFFF" stroke="#26CAD3" stroke-miterlimit="10" d="M150.395,111.829v12.3c0,1.991-1.629,4.56-3.62,5.709
			l-28.199,16.281c-1.991,1.149-3.62,0.461-3.62-1.53v-12.3L150.395,111.829z"/>
		<g>
			<path fill="#FFFFFF" stroke="#26CAD3" stroke-miterlimit="10" d="M120.304,142.523L120.304,142.523
				c1.438-0.608,2.615-2.282,2.615-3.72v-6.175c0-1.438-1.177-2.117-2.615-1.51l0,0c-1.438,0.608-2.615,2.282-2.615,3.72v6.175
				C117.689,142.452,118.866,143.131,120.304,142.523z"/>
			<path fill="#FFFFFF" stroke="#26CAD3" stroke-miterlimit="10" d="M145.047,128.271L145.047,128.271
				c1.438-0.608,2.615-2.282,2.615-3.72v-6.175c0-1.438-1.177-2.117-2.615-1.51v0c-1.438,0.608-2.615,2.282-2.615,3.72v6.175
				C142.432,128.199,143.609,128.878,145.047,128.271z"/>
		</g>
		<g>
			<path fill="#26CAD3" d="M126.432,132.557c0,0.467,0.378,0.708,0.845,0.538c0.467-0.17,0.845-0.686,0.845-1.153
				s-0.378-0.708-0.845-0.538C126.811,131.574,126.432,132.09,126.432,132.557z"/>
			<path fill="#26CAD3" d="M129.131,130.902c0,0.467,0.378,0.708,0.845,0.538s0.845-0.686,0.845-1.153s-0.378-0.708-0.845-0.538
				S129.131,130.436,129.131,130.902z"/>
			<path fill="#26CAD3" d="M131.83,129.248c0,0.467,0.378,0.708,0.845,0.538s0.845-0.686,0.845-1.153s-0.378-0.708-0.845-0.538
				C132.209,128.265,131.83,128.781,131.83,129.248z"/>
			<path fill="#26CAD3" d="M134.529,127.594c0,0.467,0.378,0.708,0.845,0.538s0.845-0.686,0.845-1.153
				c0-0.467-0.378-0.708-0.845-0.538S134.529,127.127,134.529,127.594z"/>
			<path fill="#26CAD3" d="M137.228,125.94c0,0.467,0.378,0.708,0.845,0.538c0.467-0.17,0.845-0.686,0.845-1.153
				c0-0.467-0.378-0.708-0.845-0.538C137.607,124.957,137.228,125.473,137.228,125.94z"/>
			<path fill="#26CAD3" d="M129.131,133.834c0,0.467,0.378,0.708,0.845,0.538s0.845-0.686,0.845-1.153s-0.378-0.708-0.845-0.538
				S129.131,133.367,129.131,133.834z"/>
			<path fill="#26CAD3" d="M131.83,132.179c0,0.467,0.378,0.708,0.845,0.538s0.845-0.686,0.845-1.153s-0.378-0.708-0.845-0.538
				S131.83,131.713,131.83,132.179z"/>
			<path fill="#26CAD3" d="M134.529,130.525c0,0.467,0.378,0.708,0.845,0.538s0.845-0.686,0.845-1.153
				c0-0.467-0.378-0.708-0.845-0.538S134.529,130.058,134.529,130.525z"/>
		</g>
		<path fill="#FFFFFF" stroke="#26CAD3" stroke-miterlimit="10" d="M108.258,73.765L71.464,95.008c-1.861,1.075-1.861,3.761,0,4.836
			l36.796,21.244c2.208,1.275,4.927,1.275,7.135,0l36.788-21.239c1.861-1.075,1.861-3.761,0-4.836l-36.788-21.248
			C113.187,72.49,110.466,72.49,108.258,73.765z"/>
		<ellipse fill="#26CAD3" cx="81.404" cy="97.422" rx="2.249" ry="1.025"/>
		<g>
			<g>
				<path fill="#26CAD3" d="M108.302,81.669c-0.054-0.305-0.109-0.61-0.163-0.915c2.508,0.101,4.76,1.411,5.031,2.928
					c-0.505-0.02-1.009-0.041-1.514-0.061C111.476,82.61,109.974,81.736,108.302,81.669z"/>
				<path fill="#26CAD3" d="M108.466,82.584c0.054,0.305,0.109,0.61,0.163,0.915c0.505,0.02,1.009,0.041,1.514,0.061
					C110.052,83.055,109.302,82.618,108.466,82.584z"/>
				<path fill="#26CAD3" d="M116.197,83.803c-0.504-0.02-1.008-0.04-1.513-0.061c-0.361-2.021-3.365-3.769-6.708-3.904
					c-0.054-0.305-0.109-0.61-0.164-0.915C111.991,79.092,115.745,81.277,116.197,83.803z"/>
				<path fill="#26CAD3" d="M117.71,83.865c0.504,0.02,1.009,0.04,1.513,0.061c-0.632-3.538-5.888-6.597-11.739-6.832
					c0.054,0.305,0.109,0.61,0.164,0.915C112.663,78.21,117.168,80.832,117.71,83.865z"/>
			</g>
			<path fill="#26CAD3" d="M129.323,87.997l-1.536-3.93l-3.545,2.243l-0.542-1.716l-1.641-0.193l0.647,2.047l-3.397-0.307
				l0.386,0.987l2.849,0.257l-3.545,2.243l6.535,0.767l-0.892-2.821L129.323,87.997z M126.994,86.086l0.304,0.777l-1.34-0.121
				L126.994,86.086z M123.581,89.214l-1.291-0.152l1.036-0.656L123.581,89.214z"/>
			<path fill="#26CAD3" d="M138.622,92.53l-1.776-1.034l-1.43,0.905l0.452,0.263c-0.03,0.019-0.06,0.038-0.09,0.057
				c-0.145,0.092-0.294,0.115-0.525,0.082c-0.629-0.09-1.258-0.18-1.887-0.27l3.332-2.108l0.98,0.57l0.108-1.781l-2.928,0.14
				l0.98,0.57l-4.353,2.754c-0.154-0.43-0.307-0.859-0.461-1.288c-0.046-0.128-0.01-0.214,0.123-0.299
				c0.204-0.129,0.408-0.258,0.612-0.387c0.448,0.098,0.926,0.046,1.208-0.16c0.385-0.28,0.259-0.739-0.282-1.024
				c-0.54-0.284-1.29-0.288-1.675-0.007c-0.256,0.187-0.285,0.452-0.117,0.693c-0.202,0.128-0.405,0.256-0.607,0.384
				c-0.329,0.208-0.455,0.513-0.342,0.828c0.217,0.607,0.434,1.215,0.651,1.822l-0.384,0.243c-0.297-0.097-0.627-0.152-0.96-0.147
				c-0.951,0.014-1.568,0.499-1.376,1.084c0.191,0.584,1.117,1.046,2.068,1.032c0.951-0.014,1.567-0.499,1.377-1.084
				c-0.045-0.136-0.131-0.266-0.247-0.385l1.446-0.915c0.888,0.127,1.775,0.254,2.663,0.38c0.561,0.08,1.105-0.005,1.458-0.228
				c0.03-0.019,0.06-0.038,0.09-0.057l0.464,0.27L138.622,92.53z"/>
		</g>
	</g>
	<g>
		<path fill="#26CAD3" d="M49.856,85.26c-0.032,0.057-0.057,0.109-0.083,0.166c-0.289,0.571-0.55,1.149-0.774,1.735
			c-0.013,0.031-0.025,0.06-0.037,0.089c-0.234,0.612-0.44,1.228-0.621,1.848c-0.005,0.032-0.014,0.064-0.024,0.094
			c-0.17,0.612-0.312,1.226-0.429,1.843c-0.014,0.072-0.026,0.144-0.037,0.216c-0.048,0.286-0.094,0.573-0.133,0.858
			c-0.012,0.086-0.021,0.171-0.03,0.258c-0.023,0.199-0.046,0.401-0.066,0.598c-0.008,0.133-0.024,0.263-0.031,0.394
			c-0.019,0.236-0.034,0.471-0.038,0.711c-0.008,0.167-0.01,0.338-0.013,0.505c-0.004,0.105,0,0.209-0.002,0.315
			c-0.002,0.335,0.009,0.67,0.023,1.008c0.004,0.049,0.006,0.1,0.005,0.148c0.012,0.201,0.028,0.405,0.042,0.604
			c0.005,0.038,0.004,0.072,0.009,0.11c0.034,0.366,0.076,0.733,0.129,1.098c0.011,0.068,0.02,0.13,0.028,0.195
			c0.058,0.37,0.122,0.739,0.199,1.108c0.005,0.03,0.009,0.062,0.016,0.093c0.041,0.193,0.085,0.383,0.129,0.574
			c0.019,0.077,0.039,0.152,0.059,0.227c0.044,0.175,0.083,0.355,0.133,0.531c0.037,0.132,0.081,0.259,0.12,0.387
			c0.03,0.105,0.062,0.207,0.093,0.309c0.091,0.289,0.188,0.576,0.292,0.857c0.032,0.097,0.066,0.195,0.106,0.294
			c0.065,0.174,0.134,0.347,0.201,0.517c0.069,0.166,0.141,0.331,0.213,0.495c0.088,0.199,0.176,0.394,0.269,0.591
			c0.058,0.119,0.115,0.238,0.175,0.357c0.056,0.114,0.112,0.236,0.172,0.348l0.003-0.001l0.131-0.069l2.219-1.161l0.001-0.002
			c-0.344-0.662-0.648-1.344-0.908-2.04c-0.012-0.034-0.027-0.071-0.039-0.104c-0.112-0.31-0.219-0.623-0.319-0.94
			c-0.015-0.049-0.028-0.096-0.045-0.146c-0.096-0.32-0.183-0.639-0.263-0.963c-0.009-0.031-0.015-0.06-0.02-0.09
			c-0.263-1.09-0.428-2.204-0.489-3.326c0-0.016,0.001-0.033-0.002-0.052c-0.017-0.341-0.023-0.686-0.024-1.031
			c0.001-0.05-0.003-0.097,0.001-0.144c0.002-0.335,0.017-0.669,0.039-1.004c0.001-0.034,0.001-0.069,0.006-0.101
			c0.027-0.371,0.062-0.741,0.111-1.111c0.002-0.02,0.006-0.041,0.008-0.062c0.047-0.319,0.098-0.64,0.159-0.957
			c0.023-0.116,0.045-0.234,0.072-0.352c0.047-0.226,0.103-0.453,0.156-0.678c0.034-0.13,0.064-0.263,0.104-0.39
			c0.063-0.254,0.14-0.501,0.218-0.749c0.036-0.111,0.072-0.222,0.108-0.332c0.1-0.296,0.213-0.589,0.326-0.885
			c0.05-0.119,0.098-0.237,0.148-0.356c0.094-0.221,0.193-0.444,0.296-0.665c0.053-0.109,0.105-0.221,0.155-0.33
			c0.157-0.309,0.314-0.617,0.486-0.922c0.011-0.019,0.024-0.042,0.035-0.062c0.172-0.304,0.355-0.597,0.537-0.887
			c0.07-0.103,0.138-0.204,0.205-0.306c0.136-0.2,0.273-0.397,0.415-0.592c0.077-0.105,0.155-0.211,0.232-0.315
			c0.189-0.247,0.383-0.488,0.578-0.723c0.081-0.096,0.167-0.185,0.248-0.28c0.171-0.192,0.337-0.384,0.513-0.568
			c0.096-0.098,0.195-0.195,0.29-0.292c0.164-0.16,0.328-0.32,0.494-0.475c0.09-0.084,0.181-0.166,0.272-0.249
			c0.235-0.213,0.474-0.419,0.723-0.615c0.021-0.018,0.041-0.038,0.066-0.054c0.287-0.232,0.585-0.451,0.886-0.663
			c0.029-0.024,0.067-0.043,0.097-0.065c0.272-0.189,0.546-0.371,0.826-0.545c0.042-0.027,0.087-0.052,0.13-0.079
			c0.295-0.174,0.592-0.344,0.89-0.504c0.02-0.009,0.036-0.021,0.055-0.03c0.993-0.524,2.028-0.957,3.093-1.294
			c0.032-0.01,0.064-0.018,0.097-0.029c0.316-0.098,0.631-0.188,0.949-0.269c0.057-0.011,0.11-0.025,0.162-0.039
			c0.316-0.077,0.633-0.148,0.954-0.207c0.042-0.007,0.083-0.016,0.127-0.023c0.354-0.065,0.706-0.121,1.066-0.164
			c0.005-0.001,0.006-0.003,0.015-0.003c0.373-0.048,0.748-0.084,1.127-0.107l-0.156-2.648l0-0.004
			c-0.144,0.006-0.286,0.024-0.426,0.036c-0.117,0.009-0.225,0.019-0.338,0.03c-0.318,0.032-0.635,0.073-0.956,0.115
			c-0.079,0.01-0.156,0.019-0.23,0.032c-0.19,0.028-0.379,0.062-0.568,0.096c-0.09,0.017-0.179,0.037-0.271,0.053
			c-0.306,0.059-0.61,0.125-0.914,0.196c-0.104,0.026-0.204,0.052-0.308,0.08c-0.131,0.034-0.262,0.061-0.394,0.097
			c-0.173,0.049-0.341,0.106-0.517,0.156c-0.073,0.026-0.155,0.049-0.234,0.075c-0.184,0.057-0.37,0.118-0.553,0.18
			c-0.035,0.014-0.073,0.027-0.112,0.039c-0.347,0.125-0.693,0.254-1.028,0.396c-0.063,0.024-0.123,0.052-0.186,0.077
			c-0.341,0.144-0.672,0.297-1.002,0.454c-0.032,0.018-0.069,0.035-0.104,0.05c-0.18,0.09-0.361,0.181-0.538,0.272
			c-0.043,0.029-0.088,0.053-0.136,0.075c-0.297,0.162-0.588,0.328-0.872,0.501c-0.088,0.054-0.181,0.106-0.268,0.162
			c-0.142,0.089-0.286,0.178-0.427,0.274c-0.202,0.125-0.396,0.258-0.587,0.395c-0.11,0.077-0.212,0.154-0.323,0.231
			c-0.159,0.12-0.318,0.239-0.476,0.36c-0.07,0.053-0.142,0.108-0.21,0.163c-0.223,0.181-0.444,0.366-0.664,0.555
			c-0.055,0.047-0.112,0.095-0.168,0.146c-0.467,0.416-0.92,0.852-1.356,1.313c-0.021,0.026-0.043,0.049-0.07,0.073
			c-0.436,0.472-0.858,0.965-1.262,1.48c-0.02,0.028-0.039,0.053-0.058,0.08c-0.388,0.497-0.749,1.016-1.088,1.556
			c-0.036,0.052-0.07,0.103-0.1,0.157c-0.166,0.263-0.328,0.525-0.482,0.797C50.136,84.71,49.994,84.985,49.856,85.26z"/>
		<path fill="#26CAD3" d="M59.54,89.672c-1.839,3.252-1.774,7.062-0.167,10.148l2.36-1.229c-1.204-2.314-1.258-5.171,0.118-7.612
			c1.384-2.44,3.861-3.866,6.464-4.026l-0.162-2.657C64.681,84.509,61.381,86.417,59.54,89.672z"/>
		<path fill="#26CAD3" d="M54.917,87.057c-2.76,4.879-2.664,10.596-0.252,15.222l2.352-1.231c-2.007-3.854-2.088-8.62,0.213-12.687
			c2.3-4.066,6.425-6.45,10.763-6.717l-0.157-2.65C62.627,79.313,57.678,82.175,54.917,87.057z"/>
	</g>
</g>
</svg>
