<?xml version="1.0" encoding="utf-8"?>
<!-- Generator: Adobe Illustrator 17.0.0, SVG Export Plug-In . SVG Version: 6.00 Build 0)  -->
<!DOCTYPE svg PUBLIC "-//W3C//DTD SVG 1.1//EN" "http://www.w3.org/Graphics/SVG/1.1/DTD/svg11.dtd">
<svg version="1.1" id="Layer_1" xmlns="http://www.w3.org/2000/svg" xmlns:xlink="http://www.w3.org/1999/xlink" x="0px" y="0px"
	 width="210px" height="210px" viewBox="0 0 210 210" enable-background="new 0 0 210 210" xml:space="preserve">
<rect y="-0.031" opacity="0" fill="#FFFFFF" width="210" height="210"/>
<g>
	<path fill="#FFFFFF" stroke="#26CAD3" stroke-miterlimit="10" d="M153.968,82.006c4.48,4.807,7.113,11.667,7.113,20.104
		c0,21.974-17.814,46.272-39.788,54.27c-10.686,3.889-20.38,3.197-27.528-1.056c7.187,7.713,19.138,10.129,32.675,5.202
		c21.974-7.998,39.788-32.296,39.788-54.27C166.229,94.968,161.519,86.499,153.968,82.006z"/>
	<path fill="none" stroke="#26CAD3" stroke-width="1.5" stroke-miterlimit="10" d="M141.726,100.633v-8.524
		c0.083-0.462,0.033-0.943-0.154-1.379c-0.009-0.02-0.019-0.04-0.028-0.06c-0.037-0.081-0.079-0.16-0.126-0.237
		c-0.018-0.03-0.037-0.058-0.056-0.087c-0.044-0.066-0.093-0.13-0.144-0.192c-0.025-0.03-0.05-0.061-0.077-0.09
		c-0.055-0.06-0.116-0.116-0.178-0.171c-0.028-0.025-0.054-0.051-0.084-0.075c-0.093-0.075-0.193-0.145-0.301-0.207
		c-0.001-0.001-0.003-0.002-0.004-0.003l-31.507-18.198c-0.709-0.41-1.48-0.666-2.266-0.768c-0.262-0.034-0.526-0.051-0.79-0.051
		c-0.016,0-0.032,0.003-0.048,0.003c-1.039,0.008-2.077,0.278-3.008,0.816l-5.168,2.984L71.441,89.604
		c-0.11,0.063-0.211,0.135-0.305,0.21c-0.029,0.023-0.054,0.049-0.082,0.073c-0.063,0.056-0.124,0.113-0.18,0.173
		c-0.027,0.029-0.051,0.059-0.076,0.089c-0.052,0.062-0.1,0.126-0.145,0.193c-0.019,0.029-0.038,0.057-0.056,0.087
		c-0.047,0.077-0.089,0.156-0.126,0.237c-0.009,0.02-0.019,0.039-0.028,0.059c-0.187,0.436-0.237,0.917-0.154,1.379v8.527
		c-0.049,0.274-0.045,0.555,0,0.83v21.024c-0.168,0.936,0.213,1.958,1.153,2.5l31.514,18.194c1.891,1.092,4.22,1.092,6.111,0
		l31.507-18.191c0.94-0.543,1.321-1.564,1.153-2.501v-21.022C141.771,101.19,141.775,100.909,141.726,100.633z"/>
	<path fill="#FFFFFF" stroke="#26CAD3" stroke-width="1.5" stroke-miterlimit="10" d="M141.726,122.488V91.675H70.289v30.809
		c-0.168,0.936,0.213,1.958,1.153,2.5l31.514,18.194c1.891,1.092,4.22,1.092,6.111,0l31.507-18.191
		C141.513,124.446,141.894,123.425,141.726,122.488z"/>
	<path fill="#FFFFFF" stroke="#26CAD3" stroke-miterlimit="10" d="M141.726,92.109c0.168-0.936-0.213-1.958-1.152-2.501
		l-31.507-18.198c-1.891-1.092-4.221-1.092-6.112-0.001L71.441,89.604c-0.94,0.543-1.321,1.564-1.153,2.501v8.525
		c-0.168,0.936,0.213,1.958,1.153,2.501l31.514,18.194c1.891,1.092,4.22,1.092,6.111,0l31.507-18.191
		c0.94-0.543,1.321-1.564,1.153-2.501V92.109z"/>
	<path fill="#FFFFFF" stroke="#26CAD3" stroke-miterlimit="10" d="M72.972,104.01v10.534c0,1.705,1.395,3.905,3.1,4.89
		l24.151,13.944c1.705,0.984,3.1,0.395,3.1-1.31v-10.534L72.972,104.01z"/>
	<g>
		<path fill="#FFFFFF" stroke="#26CAD3" stroke-miterlimit="10" d="M98.743,130.299L98.743,130.299
			c-1.232-0.521-2.239-1.954-2.239-3.186v-5.288c0-1.232,1.008-1.813,2.239-1.293l0,0c1.232,0.521,2.239,1.954,2.239,3.186v5.288
			C100.983,130.237,99.975,130.819,98.743,130.299z"/>
		<path fill="#FFFFFF" stroke="#26CAD3" stroke-miterlimit="10" d="M77.552,118.092L77.552,118.092
			c-1.232-0.521-2.239-1.954-2.239-3.186v-5.288c0-1.232,1.008-1.813,2.239-1.293v0c1.232,0.521,2.239,1.954,2.239,3.186v5.288
			C79.792,118.031,78.784,118.612,77.552,118.092z"/>
	</g>
	<g>
		<path fill="#26CAD3" d="M93.495,121.763c0,0.4-0.324,0.606-0.724,0.46c-0.4-0.146-0.724-0.588-0.724-0.987
			c0-0.4,0.324-0.606,0.724-0.46C93.171,120.921,93.495,121.363,93.495,121.763z"/>
		<path fill="#26CAD3" d="M91.183,120.346c0,0.4-0.324,0.606-0.724,0.46c-0.4-0.146-0.724-0.588-0.724-0.987
			c0-0.4,0.324-0.606,0.724-0.46C90.859,119.504,91.183,119.946,91.183,120.346z"/>
		<path fill="#26CAD3" d="M88.872,118.929c0,0.4-0.324,0.606-0.724,0.46c-0.4-0.146-0.724-0.588-0.724-0.987
			c0-0.4,0.324-0.606,0.724-0.46C88.548,118.087,88.872,118.529,88.872,118.929z"/>
		<path fill="#26CAD3" d="M86.56,117.512c0,0.4-0.324,0.606-0.724,0.46c-0.4-0.146-0.724-0.588-0.724-0.987
			c0-0.4,0.324-0.606,0.724-0.46C86.236,116.67,86.56,117.112,86.56,117.512z"/>
		<path fill="#26CAD3" d="M84.249,116.095c0,0.4-0.324,0.606-0.724,0.46c-0.4-0.146-0.724-0.588-0.724-0.987
			c0-0.4,0.324-0.606,0.724-0.46C83.924,115.254,84.249,115.696,84.249,116.095z"/>
		<path fill="#26CAD3" d="M91.183,122.856c0,0.4-0.324,0.606-0.724,0.46c-0.4-0.146-0.724-0.588-0.724-0.987
			c0-0.4,0.324-0.606,0.724-0.46C90.859,122.014,91.183,122.457,91.183,122.856z"/>
		<path fill="#26CAD3" d="M88.872,121.44c0,0.4-0.324,0.606-0.724,0.46c-0.4-0.146-0.724-0.588-0.724-0.987
			c0-0.4,0.324-0.606,0.724-0.46C88.548,120.598,88.872,121.04,88.872,121.44z"/>
		<path fill="#26CAD3" d="M86.56,120.023c0,0.4-0.324,0.606-0.724,0.46c-0.4-0.146-0.724-0.588-0.724-0.987
			c0-0.4,0.324-0.606,0.724-0.46C86.236,119.181,86.56,119.623,86.56,120.023z"/>
	</g>
	<path fill="#FFFFFF" stroke="#26CAD3" stroke-miterlimit="10" d="M139.042,104.01v10.534c0,1.705-1.395,3.905-3.1,4.89
		l-24.151,13.944c-1.705,0.984-3.1,0.395-3.1-1.31v-10.534L139.042,104.01z"/>
	<g>
		<path fill="#FFFFFF" stroke="#26CAD3" stroke-miterlimit="10" d="M113.271,130.299L113.271,130.299
			c1.232-0.521,2.239-1.954,2.239-3.186v-5.288c0-1.232-1.008-1.813-2.239-1.293l0,0c-1.232,0.521-2.239,1.954-2.239,3.186v5.288
			C111.032,130.237,112.039,130.819,113.271,130.299z"/>
		<path fill="#FFFFFF" stroke="#26CAD3" stroke-miterlimit="10" d="M134.462,118.092L134.462,118.092
			c1.232-0.521,2.239-1.954,2.239-3.186v-5.288c0-1.232-1.008-1.813-2.239-1.293v0c-1.232,0.521-2.239,1.954-2.239,3.186v5.288
			C132.223,118.031,133.231,118.612,134.462,118.092z"/>
	</g>
	<g>
		<path fill="#26CAD3" d="M118.519,121.763c0,0.4,0.324,0.606,0.724,0.46c0.4-0.146,0.724-0.588,0.724-0.987
			c0-0.4-0.324-0.606-0.724-0.46C118.843,120.921,118.519,121.363,118.519,121.763z"/>
		<path fill="#26CAD3" d="M120.831,120.346c0,0.4,0.324,0.606,0.724,0.46c0.4-0.146,0.724-0.588,0.724-0.987
			c0-0.4-0.324-0.606-0.724-0.46C121.155,119.504,120.831,119.946,120.831,120.346z"/>
		<path fill="#26CAD3" d="M123.143,118.929c0,0.4,0.324,0.606,0.724,0.46c0.4-0.146,0.724-0.588,0.724-0.987
			c0-0.4-0.324-0.606-0.724-0.46C123.467,118.087,123.143,118.529,123.143,118.929z"/>
		<path fill="#26CAD3" d="M125.454,117.512c0,0.4,0.324,0.606,0.724,0.46c0.4-0.146,0.724-0.588,0.724-0.987
			c0-0.4-0.324-0.606-0.724-0.46C125.778,116.67,125.454,117.112,125.454,117.512z"/>
		<path fill="#26CAD3" d="M127.766,116.095c0,0.4,0.324,0.606,0.724,0.46c0.4-0.146,0.724-0.588,0.724-0.987
			c0-0.4-0.324-0.606-0.724-0.46S127.766,115.696,127.766,116.095z"/>
		<path fill="#26CAD3" d="M120.831,122.856c0,0.4,0.324,0.606,0.724,0.46c0.4-0.146,0.724-0.588,0.724-0.987
			c0-0.4-0.324-0.606-0.724-0.46C121.155,122.014,120.831,122.457,120.831,122.856z"/>
		<path fill="#26CAD3" d="M123.143,121.44c0,0.4,0.324,0.606,0.724,0.46c0.4-0.146,0.724-0.588,0.724-0.987
			c0-0.4-0.324-0.606-0.724-0.46C123.467,120.598,123.143,121.04,123.143,121.44z"/>
		<path fill="#26CAD3" d="M125.454,120.023c0,0.4,0.324,0.606,0.724,0.46c0.4-0.146,0.724-0.588,0.724-0.987
			c0-0.4-0.324-0.606-0.724-0.46C125.778,119.181,125.454,119.623,125.454,120.023z"/>
	</g>
	<ellipse fill="#26CAD3" cx="132.228" cy="91.436" rx="1.926" ry="0.878"/>
	<g>
		
			<ellipse fill="#FFFFFF" stroke="#26CAD3" stroke-width="0.8" stroke-miterlimit="10" cx="86.259" cy="86.89" rx="4.199" ry="1.914"/>
		<g>
			<path fill="#26CAD3" d="M87.11,88.06c0.007,0.017,0.009,0.029,0.006,0.036s-0.012,0.016-0.027,0.027L86.708,88.4
				c-0.033,0.024-0.058,0.035-0.076,0.034s-0.035-0.021-0.052-0.059l-0.64-1.309l-2.079-0.142c-0.055-0.004-0.085-0.012-0.089-0.023
				c-0.004-0.011,0.013-0.031,0.05-0.057l0.359-0.26c0.02-0.014,0.036-0.023,0.05-0.027c0.014-0.004,0.033-0.005,0.057-0.003
				l1.49,0.109l-0.425-0.881c-0.007-0.014-0.008-0.026-0.004-0.035c0.004-0.009,0.015-0.021,0.035-0.035l0.36-0.261
				c0.037-0.027,0.064-0.04,0.084-0.04c0.019,0,0.037,0.017,0.053,0.05l0.576,1.232l2.214,0.167
				c0.065,0.004,0.099,0.011,0.104,0.021c0.005,0.011-0.009,0.028-0.042,0.051l-0.382,0.277c-0.015,0.011-0.028,0.018-0.038,0.021
				c-0.01,0.003-0.03,0.003-0.059,0.002l-1.605-0.12L87.11,88.06z"/>
		</g>
	</g>
	<g>
		
			<ellipse fill="#FFFFFF" stroke="#26CAD3" stroke-width="0.8" stroke-miterlimit="10" cx="86.259" cy="95.639" rx="4.199" ry="1.914"/>
		<g>
			<path fill="#26CAD3" d="M88.174,96.377c0.031,0.016,0.046,0.03,0.046,0.042c0,0.012-0.011,0.027-0.035,0.045l-0.313,0.227
				c-0.024,0.017-0.046,0.027-0.066,0.029c-0.02,0.002-0.045-0.005-0.076-0.021l-1.179-0.61l-2.43-0.214
				c-0.05-0.004-0.08-0.012-0.09-0.022c-0.01-0.01,0.004-0.029,0.041-0.056l0.343-0.249c0.033-0.024,0.074-0.033,0.125-0.029
				l1.812,0.174l-0.604-1.051c-0.016-0.03-0.009-0.055,0.019-0.075l0.36-0.261c0.037-0.027,0.065-0.036,0.084-0.028
				s0.035,0.027,0.048,0.055l0.737,1.433L88.174,96.377z"/>
		</g>
	</g>
	
		<ellipse fill="#FFFFFF" stroke="#26CAD3" stroke-width="0.8" stroke-miterlimit="10" cx="78.647" cy="91.264" rx="4.199" ry="1.914"/>
	<g>
		<path fill="#26CAD3" d="M79.352,92.592c-0.041,0.03-0.087,0.032-0.138,0.006l-0.271-0.14c-0.018-0.009-0.032-0.021-0.042-0.036
			s-0.018-0.028-0.025-0.039l-0.985-1.784l-0.964,0.699c-0.024,0.017-0.046,0.026-0.066,0.027c-0.02,0-0.044-0.007-0.072-0.021
			l-0.328-0.17c-0.028-0.014-0.043-0.028-0.046-0.04c-0.003-0.012,0.008-0.027,0.032-0.044l1.44-1.045
			c0.028-0.021,0.052-0.031,0.071-0.03c0.019,0,0.043,0.008,0.071,0.022l0.309,0.16c0.013,0.007,0.024,0.015,0.034,0.025
			c0.01,0.01,0.016,0.021,0.02,0.031l0.947,1.793l1.055-0.765c0.024-0.017,0.046-0.026,0.066-0.027c0.02,0,0.044,0.007,0.072,0.021
			l0.328,0.17c0.028,0.014,0.043,0.028,0.046,0.04c0.003,0.012-0.008,0.027-0.032,0.044L79.352,92.592z"/>
	</g>
	
		<line fill="#FFFFFF" stroke="#26CAD3" stroke-width="0.5" stroke-linecap="round" stroke-miterlimit="10" x1="81.2" y1="89.35" x2="82.622" y2="88.5"/>
	
		<line fill="#FFFFFF" stroke="#26CAD3" stroke-width="0.5" stroke-linecap="round" stroke-miterlimit="10" x1="81.954" y1="93.009" x2="83.426" y2="93.768"/>
	
		<path fill="none" stroke="#26CAD3" stroke-width="2" stroke-linecap="round" stroke-linejoin="round" stroke-miterlimit="10" stroke-dasharray="3,5" d="
		M53.515,79.054l16.535,9.547c0.023,0.013,0.048,0.022,0.072,0.035"/>
	<path fill="#26CAD3" stroke="#26CAD3" stroke-width="1.5" stroke-miterlimit="10" d="M121.293,76.804
		c-9.97,3.629-19.076,10.619-26.057,19.22l-4.203-2.121c-0.424,8.641,0,15.011,0,15.011c4.766-2.981,14.906-7.488,14.906-7.488
		l-4.652-2.348c6.856-8.099,15.608-14.654,25.153-18.128c10.686-3.889,20.379-3.197,27.528,1.056
		C146.781,74.293,134.83,71.877,121.293,76.804z"/>
	<path fill="#26CAD3" stroke="#26CAD3" stroke-width="1.5" stroke-miterlimit="10" d="M89.207,120.253l-5.464-3.155
		c-1.444,4.646-2.239,9.362-2.239,13.976c0,11.289,4.709,19.758,12.261,24.251c-4.479-4.807-7.113-11.667-7.113-20.104
		C86.652,130.278,87.56,125.219,89.207,120.253z"/>
	<g>
		<g>
			<path fill="#26CAD3" d="M169.343,151.685c0,0.143-0.027,0.222-0.081,0.239c-0.053,0.016-0.145-0.013-0.276-0.088l-1.711-0.988
				c-0.131-0.076-0.222-0.152-0.276-0.231c-0.053-0.079-0.081-0.189-0.081-0.332v-5.508l-4.58-10.077
				c-0.096-0.209-0.132-0.34-0.108-0.391s0.137-0.019,0.339,0.098l1.871,1.081c0.178,0.103,0.315,0.259,0.41,0.468l3.351,7.531
				l3.244-3.723c0.095-0.099,0.219-0.105,0.374-0.016l1.961,1.132c0.202,0.117,0.306,0.219,0.311,0.305
				c0.006,0.087-0.038,0.174-0.133,0.262l-4.617,4.731V151.685z"/>
		</g>
		
			<path fill="none" stroke="#26CAD3" stroke-width="2" stroke-linecap="round" stroke-linejoin="round" stroke-miterlimit="10" stroke-dasharray="3,5" d="
			M128.399,122.261l30.467,17.59c0.043,0.025,0.089,0.041,0.132,0.065"/>
	</g>
	<path fill="none" stroke="#26CAD3" stroke-miterlimit="10" d="M103.287,71.41L71.774,89.604c-1.594,0.92-1.594,3.221,0,4.142
		l31.514,18.194c1.891,1.092,4.22,1.092,6.111,0l31.507-18.191c1.594-0.92,1.594-3.221,0-4.142l-31.507-18.198
		C107.508,70.319,105.178,70.318,103.287,71.41z"/>
	<g>
		<path fill="#26CAD3" d="M32.648,59.078c-7.592,0-13.747,6.155-13.747,13.747s6.155,13.747,13.747,13.747
			c7.592,0,13.747-6.155,13.747-13.747S40.241,59.078,32.648,59.078z M31.113,63.833c-5.357,0-9.731,4.209-9.996,9.5
			c-0.007-0.169-0.013-0.338-0.013-0.508c0-6.375,5.168-11.544,11.544-11.544c3.363,0,6.388,1.439,8.498,3.733l-2.534,2.203
			C36.779,65.143,34.1,63.833,31.113,63.833z M39.207,67.958l2.551-2.218c0.712,0.914,1.291,1.938,1.704,3.042l-3.166,1.08
			C40.003,69.185,39.636,68.547,39.207,67.958z M41.071,72.825c-0.072-0.717-0.223-1.411-0.439-2.075l3.124-1.066
			c0.282,0.999,0.436,2.052,0.436,3.141H41.071z"/>
		<path fill="#FFFFFF" d="M33.91,71.375c-0.18-0.149-0.389-0.268-0.624-0.344c-1-0.325-2.074,0.222-2.399,1.222
			c-0.325,1,0.222,2.074,1.222,2.399c0.235,0.076,0.475,0.103,0.708,0.088l9.294,1.16L33.91,71.375z"/>
	</g>
</g>
</svg>
