<svg id="레이어_1" data-name="레이어 1" xmlns="http://www.w3.org/2000/svg" width="210" height="210" viewBox="0 0 210 210">
  <defs>
    <style>
      .cls-1, .cls-10, .cls-11 {
        fill: #fff;
      }

      .cls-1 {
        fill-opacity: 0;
      }

      .cls-2, .cls-3, .cls-4, .cls-5, .cls-6, .cls-7 {
        fill: #26cad3;
      }

      .cls-3 {
        opacity: 0.8;
      }

      .cls-3, .cls-4, .cls-5, .cls-6, .cls-7 {
        isolation: isolate;
      }

      .cls-4 {
        opacity: 0.6;
      }

      .cls-5 {
        opacity: 0.4;
      }

      .cls-6 {
        opacity: 0.2;
      }

      .cls-7 {
        opacity: 0.1;
      }

      .cls-8 {
        fill: #f1f1f1;
      }

      .cls-9 {
        fill: none;
      }

      .cls-10, .cls-11, .cls-9 {
        stroke: #26cad3;
        stroke-miterlimit: 10;
      }

      .cls-10, .cls-9 {
        stroke-width: 1.5px;
      }
    </style>
  </defs>
  <title>helpSpeakerCustom</title>
  <rect class="cls-1" width="210" height="210"/>
  <circle class="cls-2" cx="115.96" cy="135.34" r="2.54"/>
  <circle class="cls-2" cx="115.96" cy="128.89" r="2.54"/>
  <circle class="cls-3" cx="115.96" cy="122.44" r="2.54"/>
  <circle class="cls-3" cx="115.96" cy="116" r="2.54"/>
  <circle class="cls-4" cx="115.96" cy="109.54" r="2.54"/>
  <circle class="cls-5" cx="115.96" cy="96.64" r="2.54"/>
  <circle class="cls-2" cx="107.95" cy="135.34" r="2.54"/>
  <circle class="cls-2" cx="107.95" cy="128.89" r="2.54"/>
  <circle class="cls-3" cx="107.95" cy="122.44" r="2.54"/>
  <circle class="cls-3" cx="107.95" cy="116" r="2.54"/>
  <circle class="cls-4" cx="107.95" cy="109.54" r="2.54"/>
  <circle class="cls-4" cx="107.95" cy="103.09" r="2.54"/>
  <circle class="cls-5" cx="107.95" cy="90.19" r="2.54"/>
  <circle class="cls-2" cx="99.95" cy="135.34" r="2.54"/>
  <circle class="cls-2" cx="99.95" cy="128.89" r="2.54"/>
  <circle class="cls-3" cx="99.95" cy="122.44" r="2.54"/>
  <circle class="cls-3" cx="99.95" cy="116" r="2.54"/>
  <circle class="cls-4" cx="99.95" cy="109.54" r="2.54"/>
  <circle class="cls-5" cx="99.95" cy="96.64" r="2.54"/>
  <circle class="cls-2" cx="91.94" cy="135.34" r="2.54"/>
  <circle class="cls-2" cx="91.94" cy="128.89" r="2.54"/>
  <circle class="cls-3" cx="91.94" cy="116" r="2.54"/>
  <circle class="cls-4" cx="91.94" cy="109.54" r="2.54"/>
  <circle class="cls-2" cx="83.93" cy="135.34" r="2.54"/>
  <circle class="cls-2" cx="83.93" cy="128.89" r="2.54"/>
  <circle class="cls-3" cx="83.93" cy="122.44" r="2.54"/>
  <circle class="cls-3" cx="83.93" cy="116" r="2.54"/>
  <circle class="cls-4" cx="83.93" cy="109.54" r="2.54"/>
  <circle class="cls-4" cx="83.93" cy="103.09" r="2.54"/>
  <circle class="cls-5" cx="83.93" cy="96.64" r="2.54"/>
  <circle class="cls-5" cx="83.93" cy="90.19" r="2.54"/>
  <circle class="cls-6" cx="83.93" cy="77.29" r="2.54"/>
  <circle class="cls-2" cx="75.92" cy="135.34" r="2.54"/>
  <circle class="cls-2" cx="75.92" cy="128.89" r="2.54"/>
  <circle class="cls-3" cx="75.92" cy="122.44" r="2.54"/>
  <circle class="cls-3" cx="75.92" cy="116" r="2.54"/>
  <circle class="cls-4" cx="75.92" cy="109.54" r="2.54"/>
  <circle class="cls-4" cx="75.92" cy="103.09" r="2.54"/>
  <circle class="cls-5" cx="75.92" cy="96.64" r="2.54"/>
  <circle class="cls-5" cx="75.92" cy="90.19" r="2.54"/>
  <circle class="cls-6" cx="75.92" cy="83.74" r="2.54"/>
  <circle class="cls-6" cx="75.92" cy="77.29" r="2.54"/>
  <circle class="cls-7" cx="75.92" cy="70.84" r="2.54"/>
  <circle class="cls-7" cx="75.92" cy="64.39" r="2.54"/>
  <circle class="cls-7" cx="75.92" cy="51.49" r="2.54"/>
  <circle class="cls-2" cx="67.92" cy="135.34" r="2.54"/>
  <circle class="cls-2" cx="67.92" cy="128.89" r="2.54"/>
  <circle class="cls-3" cx="67.92" cy="122.44" r="2.54"/>
  <circle class="cls-3" cx="67.92" cy="116" r="2.54"/>
  <circle class="cls-4" cx="67.92" cy="109.54" r="2.54"/>
  <circle class="cls-5" cx="67.92" cy="96.64" r="2.54"/>
  <circle class="cls-2" cx="59.91" cy="135.34" r="2.54"/>
  <circle class="cls-2" cx="59.91" cy="128.89" r="2.54"/>
  <circle class="cls-3" cx="59.91" cy="122.44" r="2.54"/>
  <circle class="cls-3" cx="59.91" cy="116" r="2.54"/>
  <circle class="cls-4" cx="59.91" cy="109.54" r="2.54"/>
  <circle class="cls-4" cx="59.91" cy="103.09" r="2.54"/>
  <circle class="cls-5" cx="59.91" cy="90.19" r="2.54"/>
  <circle class="cls-2" cx="51.9" cy="135.34" r="2.54"/>
  <circle class="cls-2" cx="51.9" cy="128.89" r="2.54"/>
  <circle class="cls-3" cx="51.9" cy="122.44" r="2.54"/>
  <circle class="cls-3" cx="51.9" cy="116" r="2.54"/>
  <circle class="cls-4" cx="51.9" cy="109.54" r="2.54"/>
  <circle class="cls-4" cx="51.9" cy="103.09" r="2.54"/>
  <circle class="cls-5" cx="51.9" cy="96.64" r="2.54"/>
  <circle class="cls-5" cx="51.9" cy="90.19" r="2.54"/>
  <circle class="cls-6" cx="51.9" cy="83.74" r="2.54"/>
  <circle class="cls-6" cx="51.9" cy="77.29" r="2.54"/>
  <circle class="cls-7" cx="51.9" cy="70.84" r="2.54"/>
  <circle class="cls-7" cx="51.9" cy="64.39" r="2.54"/>
  <circle class="cls-7" cx="51.9" cy="51.49" r="2.54"/>
  <circle class="cls-2" cx="43.89" cy="135.34" r="2.54"/>
  <circle class="cls-2" cx="43.89" cy="128.89" r="2.54"/>
  <circle class="cls-3" cx="43.89" cy="122.44" r="2.54"/>
  <circle class="cls-3" cx="43.89" cy="116" r="2.54"/>
  <circle class="cls-4" cx="43.89" cy="109.54" r="2.54"/>
  <circle class="cls-4" cx="43.89" cy="103.09" r="2.54"/>
  <circle class="cls-5" cx="43.89" cy="96.64" r="2.54"/>
  <circle class="cls-5" cx="43.89" cy="90.19" r="2.54"/>
  <circle class="cls-6" cx="43.89" cy="83.74" r="2.54"/>
  <circle class="cls-2" cx="35.89" cy="135.34" r="2.54"/>
  <circle class="cls-2" cx="35.89" cy="128.89" r="2.54"/>
  <circle class="cls-3" cx="35.89" cy="122.44" r="2.54"/>
  <circle class="cls-4" cx="35.89" cy="109.54" r="2.54"/>
  <circle class="cls-2" cx="27.88" cy="135.34" r="2.54"/>
  <circle class="cls-2" cx="27.88" cy="128.89" r="2.54"/>
  <circle class="cls-3" cx="27.88" cy="122.44" r="2.54"/>
  <circle class="cls-3" cx="27.88" cy="116" r="2.54"/>
  <circle class="cls-4" cx="27.88" cy="109.54" r="2.54"/>
  <circle class="cls-4" cx="27.88" cy="103.09" r="2.54"/>
  <circle class="cls-5" cx="27.88" cy="96.64" r="2.54"/>
  <circle class="cls-5" cx="27.88" cy="90.19" r="2.54"/>
  <circle class="cls-6" cx="27.88" cy="83.74" r="2.54"/>
  <circle class="cls-6" cx="27.88" cy="77.29" r="2.54"/>
  <circle class="cls-7" cx="27.88" cy="64.39" r="2.54"/>
  <circle class="cls-2" cx="19.87" cy="135.34" r="2.54"/>
  <circle class="cls-2" cx="19.87" cy="128.89" r="2.54"/>
  <circle class="cls-3" cx="19.87" cy="122.44" r="2.54"/>
  <circle class="cls-3" cx="19.87" cy="116" r="2.54"/>
  <circle class="cls-4" cx="19.87" cy="109.54" r="2.54"/>
  <circle class="cls-4" cx="19.87" cy="103.09" r="2.54"/>
  <circle class="cls-5" cx="19.87" cy="96.64" r="2.54"/>
  <circle class="cls-6" cx="19.87" cy="83.74" r="2.54"/>
  <circle class="cls-2" cx="11.86" cy="135.34" r="2.54"/>
  <circle class="cls-2" cx="11.86" cy="128.89" r="2.54"/>
  <circle class="cls-3" cx="11.86" cy="122.44" r="2.54"/>
  <circle class="cls-3" cx="11.86" cy="116" r="2.54"/>
  <circle class="cls-4" cx="11.86" cy="109.54" r="2.54"/>
  <circle class="cls-5" cx="11.86" cy="96.64" r="2.54"/>
  <path class="cls-8" d="M139.5,117.4l44.44,25.66a3.37,3.37,0,0,1,0,5.88L139.5,174.59a8.62,8.62,0,0,1-8.62,0L86.51,148.9a3.37,3.37,0,0,1,0-5.88l44.44-25.66A8.62,8.62,0,0,1,139.5,117.4Z"/>
  <path class="cls-9" d="M93.74,113v-9.9a2.81,2.81,0,0,1,.18-1.6v-0.07a2.71,2.71,0,0,1,.14-0.27l0.07-.11,0.16-.22,0.09-.11,0.21-.2,0.09-.08a2.86,2.86,0,0,1,.35-0.24h0L131.61,79a7.06,7.06,0,0,1,3.53-1h0a7.06,7.06,0,0,1,3.53,1l6,3.47,30.57,17.64a2.85,2.85,0,0,1,.35.25l0.09,0.08,0.21,0.2,0.09,0.11,0.16,0.22,0.07,0.11a2.71,2.71,0,0,1,.14.27v0.07a2.81,2.81,0,0,1,.18,1.6V113a2.83,2.83,0,0,1,0,1v24.4a2.76,2.76,0,0,1-1.34,2.9l-36.58,21.17a7.06,7.06,0,0,1-7.06,0L95,141.23a2.76,2.76,0,0,1-1.34-2.9V113.88A2.83,2.83,0,0,1,93.74,113Z"/>
  <path class="cls-10" d="M93.74,138.28V102.51h82.92v35.77a2.76,2.76,0,0,1-1.34,2.9l-36.58,21.17a7.06,7.06,0,0,1-7.06,0L95.11,141.18A2.76,2.76,0,0,1,93.74,138.28Z"/>
  <path class="cls-11" d="M93.74,103a2.76,2.76,0,0,1,1.34-2.9l36.57-21.17a7.06,7.06,0,0,1,7.06,0l36.58,21.17a2.76,2.76,0,0,1,1.34,2.9V113a2.76,2.76,0,0,1-1.34,2.9L138.7,137a7.06,7.06,0,0,1-7.06,0L95.08,115.87a2.76,2.76,0,0,1-1.34-2.9V103Z"/>
  <polygon class="cls-10" points="176.66 102.5 176.66 102.51 135.2 126.45 93.74 102.51 93.74 102.5 135.2 78.56 176.66 102.5"/>
  <path class="cls-11" d="M173.52,116.83v12.23a7.49,7.49,0,0,1-3.6,5.68l-28,16.19c-2,1.18-3.6.46-3.6-1.52V137.18Z"/>
  <path class="cls-11" d="M143.63,147.34h0a4.44,4.44,0,0,0,2.6-3.69v-6.14c0-1.43-1.18-2.1-2.6-1.51h0a4.44,4.44,0,0,0-2.6,3.69v6.18C141,147.27,142.2,147.94,143.63,147.34Z"/>
  <path class="cls-11" d="M168.23,133.17h0a4.44,4.44,0,0,0,2.6-3.69v-6.14c0-1.43-1.18-2.1-2.6-1.51h0a4.44,4.44,0,0,0-2.6,3.69v6.14C165.63,133.1,166.79,133.77,168.23,133.17Z"/>
  <path class="cls-2" d="M149.72,137.43a0.56,0.56,0,0,0,.83.53,1.33,1.33,0,0,0,.83-1.18,0.56,0.56,0,0,0-.83-0.53A1.33,1.33,0,0,0,149.72,137.43Z"/>
  <path class="cls-2" d="M152.35,135.79a0.56,0.56,0,0,0,.83.53,1.33,1.33,0,0,0,.83-1.18,0.56,0.56,0,0,0-.83-0.53A1.33,1.33,0,0,0,152.35,135.79Z"/>
  <path class="cls-2" d="M155.09,134.13a0.56,0.56,0,0,0,.83.53,1.33,1.33,0,0,0,.83-1.18,0.56,0.56,0,0,0-.88-0.53A1.33,1.33,0,0,0,155.09,134.13Z"/>
  <path class="cls-2" d="M157.78,132.5a0.56,0.56,0,0,0,.83.53,1.33,1.33,0,0,0,.83-1.18,0.56,0.56,0,0,0-.83-0.53A1.33,1.33,0,0,0,157.78,132.5Z"/>
  <path class="cls-2" d="M160.46,130.86a0.56,0.56,0,0,0,.83.53,1.33,1.33,0,0,0,.83-1.18,0.56,0.56,0,0,0-.83-0.53A1.33,1.33,0,0,0,160.46,130.86Z"/>
  <path class="cls-2" d="M152.35,138.7a0.56,0.56,0,0,0,.83.53,1.33,1.33,0,0,0,.83-1.18,0.56,0.56,0,0,0-.83-0.53A1.33,1.33,0,0,0,152.35,138.7Z"/>
  <path class="cls-2" d="M155.09,137.06a0.56,0.56,0,0,0,.83.53,1.33,1.33,0,0,0,.83-1.18,0.56,0.56,0,0,0-.83-0.53A1.33,1.33,0,0,0,155.09,137.06Z"/>
  <path class="cls-2" d="M157.78,135.42a0.56,0.56,0,0,0,.83.53,1.33,1.33,0,0,0,.83-1.18,0.56,0.56,0,0,0-.83-0.53A1.33,1.33,0,0,0,157.78,135.42Z"/>
  <path class="cls-11" d="M96.85,116.83v12.23a7.49,7.49,0,0,0,3.6,5.68l28,16.19c2,1.18,3.6.46,3.6-1.52V137.18Z"/>
  <path class="cls-11" d="M126.77,147.34h0a4.44,4.44,0,0,1-2.6-3.69v-6.14c0-1.43,1.18-2.1,2.6-1.51h0a4.44,4.44,0,0,1,2.6,3.69v6.18C129.37,147.27,128.19,147.94,126.77,147.34Z"/>
  <path class="cls-11" d="M102.17,133.17h0a4.44,4.44,0,0,1-2.6-3.75v-6.14c0-1.43,1.18-2.1,2.6-1.51h0a4.44,4.44,0,0,1,2.6,3.69v6.14C104.77,133.1,103.59,133.77,102.17,133.17Z"/>
  <path class="cls-2" d="M120.68,137.43a0.56,0.56,0,0,1-.83.53,1.33,1.33,0,0,1-.83-1.18,0.56,0.56,0,0,1,.83-0.53A1.33,1.33,0,0,1,120.68,137.43Z"/>
  <path class="cls-2" d="M118,135.79a0.56,0.56,0,0,1-.83.53,1.33,1.33,0,0,1-.83-1.18,0.56,0.56,0,0,1,.83-0.53A1.33,1.33,0,0,1,118,135.79Z"/>
  <path class="cls-2" d="M115.3,134.13a0.56,0.56,0,0,1-.83.53,1.33,1.33,0,0,1-.83-1.18,0.56,0.56,0,0,1,.83-0.53A1.33,1.33,0,0,1,115.3,134.13Z"/>
  <path class="cls-2" d="M112.62,132.5a0.56,0.56,0,0,1-.83.53,1.33,1.33,0,0,1-.83-1.18,0.56,0.56,0,0,1,.83-0.53A1.33,1.33,0,0,1,112.62,132.5Z"/>
  <path class="cls-2" d="M109.94,130.86a0.56,0.56,0,0,1-.83.53,1.33,1.33,0,0,1-.83-1.18,0.56,0.56,0,0,1,.83-0.53A1.33,1.33,0,0,1,109.94,130.86Z"/>
  <path class="cls-2" d="M118,138.7a0.56,0.56,0,0,1-.83.53,1.33,1.33,0,0,1-.83-1.18,0.56,0.56,0,0,1,.83-0.53A1.33,1.33,0,0,1,118,138.7Z"/>
  <path class="cls-2" d="M115.3,137.06a0.56,0.56,0,0,1-.83.53,1.33,1.33,0,0,1-.83-1.18,0.56,0.56,0,0,1,.83-0.53A1.33,1.33,0,0,1,115.3,137.06Z"/>
  <path class="cls-2" d="M112.62,135.42a0.56,0.56,0,0,1-.83.53,1.33,1.33,0,0,1-.83-1.18,0.56,0.56,0,0,1,.83-0.53A1.33,1.33,0,0,1,112.62,135.42Z"/>
  <path class="cls-11" d="M138.74,79l36.58,21.17a2.77,2.77,0,0,1,0,4.81l-36.58,21.17a7.06,7.06,0,0,1-7.06,0L95.11,105a2.77,2.77,0,0,1,0-4.81L131.68,79A7.06,7.06,0,0,1,138.74,79Z"/>
  <ellipse class="cls-2" cx="104.77" cy="102.23" rx="2.23" ry="1.02"/>
  <ellipse class="cls-2" cx="118.08" cy="100.28" rx="1.8" ry="0.82" transform="translate(-0.17 0.21) rotate(-0.1)"/>
  <ellipse class="cls-2" cx="122.03" cy="98" rx="1.8" ry="0.82" transform="translate(-0.17 0.21) rotate(-0.1)"/>
  <ellipse class="cls-2" cx="125.98" cy="95.7" rx="1.8" ry="0.82" transform="translate(-0.17 0.22) rotate(-0.1)"/>
  <ellipse class="cls-2" cx="129.93" cy="93.41" rx="1.8" ry="0.82" transform="translate(-0.16 0.23) rotate(-0.1)"/>
  <ellipse class="cls-2" cx="119.83" cy="103.31" rx="1.8" ry="0.82" transform="translate(-0.18 0.21) rotate(-0.1)"/>
  <ellipse class="cls-2" cx="123.78" cy="101.02" rx="1.8" ry="0.82" transform="translate(-0.18 0.22) rotate(-0.1)"/>
  <ellipse class="cls-2" cx="127.74" cy="98.72" rx="1.8" ry="0.82" transform="translate(-0.17 0.22) rotate(-0.1)"/>
  <ellipse class="cls-2" cx="131.7" cy="96.44" rx="1.8" ry="0.82" transform="translate(-0.17 0.23) rotate(-0.1)"/>
  <ellipse class="cls-2" cx="135.64" cy="94.14" rx="1.8" ry="0.82" transform="translate(-0.16 0.24) rotate(-0.1)"/>
  <ellipse class="cls-2" cx="121.59" cy="106.34" rx="1.8" ry="0.82" transform="translate(-0.19 0.21) rotate(-0.1)"/>
  <ellipse class="cls-2" cx="125.55" cy="104.05" rx="1.8" ry="0.82" transform="translate(-0.18 0.22) rotate(-0.1)"/>
  <ellipse class="cls-2" cx="129.5" cy="101.76" rx="1.8" ry="0.82" transform="translate(-0.18 0.23) rotate(-0.1)"/>
  <ellipse class="cls-2" cx="133.44" cy="99.46" rx="1.8" ry="0.82" transform="translate(-0.17 0.23) rotate(-0.1)"/>
  <ellipse class="cls-2" cx="137.4" cy="97.17" rx="1.8" ry="0.82" transform="translate(-0.17 0.24) rotate(-0.1)"/>
  <ellipse class="cls-2" cx="141.35" cy="94.89" rx="1.8" ry="0.82" transform="translate(-0.17 0.25) rotate(-0.1)"/>
  <ellipse class="cls-2" cx="123.35" cy="109.38" rx="1.8" ry="0.82" transform="translate(-0.19 0.22) rotate(-0.1)"/>
  <ellipse class="cls-2" cx="127.29" cy="107.08" rx="1.8" ry="0.82" transform="translate(-0.19 0.22) rotate(-0.1)"/>
  <ellipse class="cls-2" cx="131.25" cy="104.79" rx="1.8" ry="0.82" transform="translate(-0.18 0.23) rotate(-0.1)"/>
  <ellipse class="cls-2" cx="135.2" cy="102.49" rx="1.8" ry="0.82" transform="translate(-0.18 0.24) rotate(-0.1)"/>
  <ellipse class="cls-2" cx="139.16" cy="100.2" rx="1.8" ry="0.82" transform="translate(-0.17 0.24) rotate(-0.1)"/>
  <ellipse class="cls-2" cx="143.12" cy="97.92" rx="1.8" ry="0.82" transform="translate(-0.17 0.25) rotate(-0.1)"/>
  <ellipse class="cls-2" cx="147.06" cy="95.63" rx="1.8" ry="0.82" transform="translate(-0.17 0.26) rotate(-0.1)"/>
  <ellipse class="cls-2" cx="129.06" cy="110.11" rx="1.8" ry="0.82" transform="translate(-0.19 0.23) rotate(-0.1)"/>
  <ellipse class="cls-2" cx="133.01" cy="107.82" rx="1.8" ry="0.82" transform="translate(-0.19 0.23) rotate(-0.1)"/>
  <ellipse class="cls-2" cx="136.97" cy="105.53" rx="1.8" ry="0.82" transform="translate(-0.18 0.24) rotate(-0.1)"/>
  <ellipse class="cls-2" cx="140.92" cy="103.23" rx="1.8" ry="0.82" transform="translate(-0.18 0.25) rotate(-0.1)"/>
  <ellipse class="cls-2" cx="144.86" cy="100.95" rx="1.8" ry="0.82" transform="translate(-0.18 0.25) rotate(-0.1)"/>
  <ellipse class="cls-2" cx="148.81" cy="98.65" rx="1.8" ry="0.82" transform="translate(-0.17 0.26) rotate(-0.1)"/>
  <ellipse class="cls-2" cx="134.77" cy="110.84" rx="1.8" ry="0.82" transform="translate(-0.19 0.24) rotate(-0.1)"/>
  <ellipse class="cls-2" cx="138.71" cy="108.57" rx="1.8" ry="0.82" transform="translate(-0.19 0.24) rotate(-0.1)"/>
  <ellipse class="cls-2" cx="142.66" cy="106.27" rx="1.8" ry="0.82" transform="translate(-0.19 0.25) rotate(-0.1)"/>
  <ellipse class="cls-2" cx="146.63" cy="103.98" rx="1.8" ry="0.82" transform="translate(-0.18 0.26) rotate(-0.1)"/>
  <ellipse class="cls-2" cx="150.58" cy="101.69" rx="1.8" ry="0.82" transform="translate(-0.18 0.26) rotate(-0.1)"/>
  <ellipse class="cls-2" cx="140.48" cy="111.58" rx="1.8" ry="0.82" transform="translate(-0.19 0.25) rotate(-0.1)"/>
  <ellipse class="cls-2" cx="144.43" cy="109.3" rx="1.8" ry="0.82" transform="translate(-0.19 0.25) rotate(-0.1)"/>
  <ellipse class="cls-2" cx="148.38" cy="107.01" rx="1.8" ry="0.82" transform="translate(-0.19 0.26) rotate(-0.1)"/>
  <ellipse class="cls-2" cx="152.34" cy="104.72" rx="1.8" ry="0.82" transform="translate(-0.18 0.27) rotate(-0.1)"/>
</svg>
