<svg id="레이어_1" data-name="레이어 1" xmlns="http://www.w3.org/2000/svg" width="112" height="20" viewBox="0 0 112 20"><defs><style>.cls-1{fill:none;stroke:#26cad3;stroke-miterlimit:10;stroke-width:2px;}.cls-2{fill:#26cad3;}</style></defs><title>motorHelpPress</title><rect class="cls-1" x="1" y="1" width="110" height="18" rx="9" ry="9"/><path class="cls-2" d="M17.4,12.53v3.35a0.28,0.28,0,0,1-.05.21,0.31,0.31,0,0,1-.19,0H16a0.31,0.31,0,0,1-.18,0,0.26,0.26,0,0,1-.06-0.21V7.13a0.22,0.22,0,0,1,.07-0.19,0.27,0.27,0,0,1,.16,0h2.4a4.11,4.11,0,0,1,1.21.17,2.43,2.43,0,0,1,.93.52,2.32,2.32,0,0,1,.59.87,3.32,3.32,0,0,1,.21,1.24,3,3,0,0,1-.23,1.22,2.58,2.58,0,0,1-.64.89,2.69,2.69,0,0,1-1,.55,3.79,3.79,0,0,1-1.21.19H17.4Zm0-4.15V11h0.79a1.67,1.67,0,0,0,1.1-.32,1.29,1.29,0,0,0,.38-1,1.37,1.37,0,0,0-.31-1,1.05,1.05,0,0,0-.81-0.33H17.4Z" transform="translate(-0.87 -2.39)"/><path class="cls-2" d="M25.8,10.84a1.48,1.48,0,0,0-.42-0.11,0.82,0.82,0,0,0-.34,0,1,1,0,0,0-.46.31,1.5,1.5,0,0,0-.26.5,2.66,2.66,0,0,0-.11.6q0,0.31,0,.6v3.1a0.34,0.34,0,0,1,0,.2,0.22,0.22,0,0,1-.17.05H22.81a0.21,0.21,0,0,1-.17,0,0.42,0.42,0,0,1,0-.22V11.1q0-.38,0-0.8t0-.7a0.3,0.3,0,0,1,0-.2,0.25,0.25,0,0,1,.18,0H24a0.16,0.16,0,0,1,.18.19V10a2.53,2.53,0,0,1,.4-0.44A1,1,0,0,1,25,9.29a1.91,1.91,0,0,1,.5,0,0.74,0.74,0,0,1,.38.11,0.26,0.26,0,0,1,.08.09,0.39,0.39,0,0,1,0,.14v1a0.31,0.31,0,0,1,0,.19A0.13,0.13,0,0,1,25.8,10.84Z" transform="translate(-0.87 -2.39)"/><path class="cls-2" d="M32.17,13a0.46,0.46,0,0,1-.07.22,0.23,0.23,0,0,1-.2.08H28.15a1.78,1.78,0,0,0,.51,1.19,1.56,1.56,0,0,0,1,.41,2.77,2.77,0,0,0,1-.11,3.51,3.51,0,0,0,.8-0.37,0.22,0.22,0,0,1,.23-0.06,0.34,0.34,0,0,1,.06.25v0.9a0.37,0.37,0,0,1,0,.18,0.62,0.62,0,0,1-.14.13,2.52,2.52,0,0,1-.88.36,4.77,4.77,0,0,1-1,.12,2.91,2.91,0,0,1-2.27-.92,3.79,3.79,0,0,1-.83-2.63,5,5,0,0,1,.17-1.27,3.39,3.39,0,0,1,.54-1.15,3,3,0,0,1,.91-0.83,2.49,2.49,0,0,1,1.28-.32,2.7,2.7,0,0,1,1.28.28,2.39,2.39,0,0,1,.85.74A3.07,3.07,0,0,1,32,11.28a5.76,5.76,0,0,1,.14,1.31V13Zm-2.71-2.42a1,1,0,0,0-.47.12,1.35,1.35,0,0,0-.38.31,2,2,0,0,0-.28.44,1.74,1.74,0,0,0-.16.53h2.44a1.65,1.65,0,0,0-.08-0.49A1.61,1.61,0,0,0,30.31,11,1.16,1.16,0,0,0,30,10.69,1,1,0,0,0,29.46,10.56Z" transform="translate(-0.87 -2.39)"/><path class="cls-2" d="M36.5,15.87a1.87,1.87,0,0,1-.71.34,4,4,0,0,1-.84.11l-0.49,0L34,16.21l-0.44-.1L33.2,16A0.67,0.67,0,0,1,33,15.9a0.23,0.23,0,0,1,0-.17l0.1-.88a0.26,0.26,0,0,1,.06-0.18,0.21,0.21,0,0,1,.18,0,7.47,7.47,0,0,0,.77.23,3.61,3.61,0,0,0,.83.1,0.84,0.84,0,0,0,.64-0.22,0.76,0.76,0,0,0,.2-0.54,0.66,0.66,0,0,0-.21-0.45,2.89,2.89,0,0,0-.5-0.41q-0.29-.19-0.59-0.35L34,12.76a2.24,2.24,0,0,1-.67-0.62,1.48,1.48,0,0,1-.27-0.88,2.14,2.14,0,0,1,.19-0.93,1.86,1.86,0,0,1,.49-0.64,2,2,0,0,1,.71-0.37,2.85,2.85,0,0,1,.82-0.12l0.46,0L36.21,9.3l0.41,0.11,0.3,0.11a0.28,0.28,0,0,1,.14.11,0.33,0.33,0,0,1,0,.14L37,10.68a0.18,0.18,0,0,1-.08.16,0.3,0.3,0,0,1-.19,0,2.81,2.81,0,0,0-1.33-.28,0.8,0.8,0,0,0-.56.19,0.66,0.66,0,0,0-.17.49,0.56,0.56,0,0,0,.16.32,1.88,1.88,0,0,0,.55.41L36,12.32l0.46,0.29a2.93,2.93,0,0,1,.65.67,1.61,1.61,0,0,1,.22.9,2.18,2.18,0,0,1-.2,1A1.9,1.9,0,0,1,36.5,15.87Z" transform="translate(-0.87 -2.39)"/><path class="cls-2" d="M41.59,15.87a1.87,1.87,0,0,1-.71.34,4,4,0,0,1-.84.11l-0.49,0L39,16.21l-0.44-.1L38.29,16a0.67,0.67,0,0,1-.17-0.1,0.23,0.23,0,0,1,0-.17l0.1-.88a0.26,0.26,0,0,1,.06-0.18,0.21,0.21,0,0,1,.18,0,7.47,7.47,0,0,0,.77.23A3.61,3.61,0,0,0,40,15a0.84,0.84,0,0,0,.64-0.22,0.76,0.76,0,0,0,.2-0.54,0.66,0.66,0,0,0-.21-0.45,2.89,2.89,0,0,0-.5-0.41q-0.29-.19-0.59-0.35l-0.48-.27a2.24,2.24,0,0,1-.67-0.62,1.48,1.48,0,0,1-.27-0.88,2.14,2.14,0,0,1,.19-0.93,1.86,1.86,0,0,1,.49-0.64,2,2,0,0,1,.71-0.37,2.85,2.85,0,0,1,.82-0.12l0.46,0L41.29,9.3l0.41,0.11L42,9.52a0.28,0.28,0,0,1,.14.11,0.33,0.33,0,0,1,0,.14L42,10.68a0.18,0.18,0,0,1-.08.16,0.3,0.3,0,0,1-.19,0,2.81,2.81,0,0,0-1.33-.28,0.8,0.8,0,0,0-.56.19,0.66,0.66,0,0,0-.17.49,0.56,0.56,0,0,0,.16.32,1.88,1.88,0,0,0,.55.41l0.67,0.39,0.46,0.29a2.93,2.93,0,0,1,.65.67,1.61,1.61,0,0,1,.22.9,2.18,2.18,0,0,1-.2,1A1.9,1.9,0,0,1,41.59,15.87Z" transform="translate(-0.87 -2.39)"/><path class="cls-2" d="M47.68,16.78a0.26,0.26,0,0,1-.11.14,0.4,0.4,0,0,1-.16,0H46.18a0.31,0.31,0,0,1-.2-0.05,0.17,0.17,0,0,1,0-.2l3.11-9.8a0.19,0.19,0,0,1,.19-0.13h1.31q0.28,0,.2.24Z" transform="translate(-0.87 -2.39)"/><path class="cls-2" d="M60.56,15.6a3.11,3.11,0,0,1-1,.53,4.23,4.23,0,0,1-2.38,0,2.94,2.94,0,0,1-1-.54,2.84,2.84,0,0,1-.91-1.21A4.41,4.41,0,0,1,55,12.77V7.14A0.38,0.38,0,0,1,55,7a0.21,0.21,0,0,1,.2-0.08h1.15a0.21,0.21,0,0,1,.24.24v5.77a2.07,2.07,0,0,0,.45,1.4,1.88,1.88,0,0,0,2.59,0,2.08,2.08,0,0,0,.44-1.41V7.12a0.21,0.21,0,0,1,.24-0.24h1.15a0.21,0.21,0,0,1,.2.08,0.39,0.39,0,0,1,0,.19v5.63a4.39,4.39,0,0,1-.29,1.63A2.91,2.91,0,0,1,60.56,15.6Z" transform="translate(-0.87 -2.39)"/><path class="cls-2" d="M65.19,15.88a0.28,0.28,0,0,1,0,.19,0.26,0.26,0,0,1-.18,0H63.85a0.24,0.24,0,0,1-.19-0.06,0.3,0.3,0,0,1,0-.19V11.17c0-.3,0-0.61,0-0.92a4.7,4.7,0,0,0,0-.71,0.17,0.17,0,0,1,0-.17,0.41,0.41,0,0,1,.22,0H65a0.35,0.35,0,0,1,.17,0,0.16,0.16,0,0,1,0,.13V10a2.71,2.71,0,0,1,.65-0.49,1.69,1.69,0,0,1,.82-0.22,2.13,2.13,0,0,1,1.76.68,3.08,3.08,0,0,1,.56,2v4a0.28,0.28,0,0,1,0,.19,0.26,0.26,0,0,1-.18,0H67.61a0.22,0.22,0,0,1-.24-0.25V12.16q0-1.45-.88-1.45a1.21,1.21,0,0,0-1,.4,1.58,1.58,0,0,0-.35,1.08v3.7Z" transform="translate(-0.87 -2.39)"/><path class="cls-2" d="M73.82,16.41a1.93,1.93,0,0,1-.76-0.17,1.8,1.8,0,0,1-.68-0.52v2.05a0.31,0.31,0,0,1,0,.19,0.23,0.23,0,0,1-.19.05H71A0.23,0.23,0,0,1,70.86,18a0.28,0.28,0,0,1,0-.19V9.64a0.28,0.28,0,0,1,.07-0.22,0.31,0.31,0,0,1,.2-0.05h1.08a0.34,0.34,0,0,1,.2,0,0.22,0.22,0,0,1,.05.17V10a1.62,1.62,0,0,1,.28-0.28,1.93,1.93,0,0,1,.37-0.24,2.19,2.19,0,0,1,.44-0.16A1.85,1.85,0,0,1,74,9.3a2.35,2.35,0,0,1,1.1.25,2.42,2.42,0,0,1,.83.72,3.41,3.41,0,0,1,.53,1.13,5.48,5.48,0,0,1,.19,1.49,5,5,0,0,1-.19,1.43,3.31,3.31,0,0,1-.55,1.11,2.54,2.54,0,0,1-.88.72A2.57,2.57,0,0,1,73.82,16.41Zm-0.14-5.64a1,1,0,0,0-.49.13,1.2,1.2,0,0,0-.41.38,2.21,2.21,0,0,0-.29.65,3.41,3.41,0,0,0-.11.94,3.89,3.89,0,0,0,.1,1,2,2,0,0,0,.28.65,1.06,1.06,0,0,0,.41.37,1.18,1.18,0,0,0,.52.11,1.14,1.14,0,0,0,1-.5A2.72,2.72,0,0,0,75,12.87a2.7,2.7,0,0,0-.37-1.61A1.16,1.16,0,0,0,73.68,10.77Z" transform="translate(-0.87 -2.39)"/><path class="cls-2" d="M81.36,10.84a1.49,1.49,0,0,0-.42-0.11,0.82,0.82,0,0,0-.34,0,1,1,0,0,0-.46.31,1.53,1.53,0,0,0-.26.5,2.64,2.64,0,0,0-.11.6q0,0.31,0,.6v3.1a0.35,0.35,0,0,1,0,.2,0.22,0.22,0,0,1-.17.05H78.37a0.21,0.21,0,0,1-.17,0,0.42,0.42,0,0,1,0-.22V11.1c0-.26,0-0.52,0-0.8s0-.51,0-0.7a0.29,0.29,0,0,1,0-.2,0.25,0.25,0,0,1,.18,0h1.15a0.17,0.17,0,0,1,.18.19V10a2.53,2.53,0,0,1,.4-0.44,1,1,0,0,1,.5-0.26,1.91,1.91,0,0,1,.5,0,0.74,0.74,0,0,1,.38.11,0.25,0.25,0,0,1,.08.09,0.39,0.39,0,0,1,0,.14v1a0.31,0.31,0,0,1,0,.19A0.13,0.13,0,0,1,81.36,10.84Z" transform="translate(-0.87 -2.39)"/><path class="cls-2" d="M87.73,13a0.45,0.45,0,0,1-.07.22,0.23,0.23,0,0,1-.2.08H83.71a1.79,1.79,0,0,0,.51,1.19,1.56,1.56,0,0,0,1,.41,2.78,2.78,0,0,0,1-.11A3.54,3.54,0,0,0,87,14.4a0.22,0.22,0,0,1,.23-0.06,0.34,0.34,0,0,1,.06.25v0.9a0.36,0.36,0,0,1,0,.18,0.62,0.62,0,0,1-.14.13,2.52,2.52,0,0,1-.88.36,4.76,4.76,0,0,1-1,.12,2.91,2.91,0,0,1-2.27-.92,3.79,3.79,0,0,1-.83-2.63,5,5,0,0,1,.17-1.27,3.4,3.4,0,0,1,.54-1.15,3,3,0,0,1,.91-0.83A2.48,2.48,0,0,1,85,9.17a2.7,2.7,0,0,1,1.28.28,2.39,2.39,0,0,1,.85.74,3.08,3.08,0,0,1,.47,1.09,5.74,5.74,0,0,1,.14,1.31V13ZM85,10.56a1,1,0,0,0-.47.12,1.35,1.35,0,0,0-.38.31,2,2,0,0,0-.28.44,1.76,1.76,0,0,0-.16.53h2.44a1.67,1.67,0,0,0-.08-0.49A1.61,1.61,0,0,0,85.87,11a1.16,1.16,0,0,0-.35-0.33A1,1,0,0,0,85,10.56Z" transform="translate(-0.87 -2.39)"/><path class="cls-2" d="M92.06,15.87a1.86,1.86,0,0,1-.71.34,4.06,4.06,0,0,1-.84.11l-0.49,0-0.5-.07-0.44-.1L88.76,16a0.67,0.67,0,0,1-.17-0.1,0.23,0.23,0,0,1,0-.17l0.1-.88a0.26,0.26,0,0,1,.06-0.18,0.21,0.21,0,0,1,.18,0,7.44,7.44,0,0,0,.77.23,3.61,3.61,0,0,0,.83.1,0.84,0.84,0,0,0,.64-0.22,0.75,0.75,0,0,0,.2-0.54,0.66,0.66,0,0,0-.21-0.45,2.91,2.91,0,0,0-.5-0.41Q90.34,13.19,90,13l-0.48-.27a2.25,2.25,0,0,1-.67-0.62,1.48,1.48,0,0,1-.27-0.88,2.16,2.16,0,0,1,.19-0.93,1.88,1.88,0,0,1,.49-0.64A2,2,0,0,1,90,9.31a2.85,2.85,0,0,1,.82-0.12l0.46,0L91.77,9.3l0.41,0.11,0.3,0.11a0.28,0.28,0,0,1,.14.11,0.33,0.33,0,0,1,0,.14l-0.11.91a0.19,0.19,0,0,1-.08.16,0.31,0.31,0,0,1-.19,0,2.81,2.81,0,0,0-1.33-.28,0.8,0.8,0,0,0-.56.19,0.65,0.65,0,0,0-.17.49,0.56,0.56,0,0,0,.16.32,1.89,1.89,0,0,0,.55.41l0.67,0.39L92,12.61a2.93,2.93,0,0,1,.65.67,1.62,1.62,0,0,1,.22.9,2.19,2.19,0,0,1-.2,1A1.9,1.9,0,0,1,92.06,15.87Z" transform="translate(-0.87 -2.39)"/><path class="cls-2" d="M97.15,15.87a1.86,1.86,0,0,1-.71.34,4.06,4.06,0,0,1-.84.11l-0.49,0-0.5-.07-0.44-.1L93.85,16a0.67,0.67,0,0,1-.17-0.1,0.23,0.23,0,0,1,0-.17l0.1-.88a0.26,0.26,0,0,1,.06-0.18,0.21,0.21,0,0,1,.18,0,7.44,7.44,0,0,0,.77.23,3.61,3.61,0,0,0,.83.1,0.84,0.84,0,0,0,.64-0.22,0.75,0.75,0,0,0,.2-0.54,0.66,0.66,0,0,0-.21-0.45,2.91,2.91,0,0,0-.5-0.41q-0.29-.19-0.59-0.35l-0.48-.27A2.25,2.25,0,0,1,94,12.14a1.48,1.48,0,0,1-.27-0.88,2.16,2.16,0,0,1,.19-0.93,1.88,1.88,0,0,1,.49-0.64,2,2,0,0,1,.71-0.37,2.85,2.85,0,0,1,.82-0.12l0.46,0L96.85,9.3l0.41,0.11,0.3,0.11a0.28,0.28,0,0,1,.14.11,0.33,0.33,0,0,1,0,.14l-0.11.91a0.19,0.19,0,0,1-.08.16,0.31,0.31,0,0,1-.19,0A2.81,2.81,0,0,0,96,10.53a0.8,0.8,0,0,0-.56.19,0.65,0.65,0,0,0-.17.49,0.56,0.56,0,0,0,.16.32,1.89,1.89,0,0,0,.55.41l0.67,0.39,0.46,0.29a2.93,2.93,0,0,1,.65.67,1.62,1.62,0,0,1,.22.9,2.19,2.19,0,0,1-.2,1A1.9,1.9,0,0,1,97.15,15.87Z" transform="translate(-0.87 -2.39)"/></svg>