<svg id="레이어_1" data-name="레이어 1" xmlns="http://www.w3.org/2000/svg" width="192" height="192" viewBox="0 0 192 192"><defs><style>.cls-1,.cls-4,.cls-5,.cls-7,.cls-8,.cls-9{fill:#fff;}.cls-1{opacity:0;}.cls-2{fill:#f1f1f1;}.cls-3{fill:none;}.cls-3,.cls-4,.cls-5,.cls-7,.cls-8{stroke:#26cad3;}.cls-3,.cls-4,.cls-5{stroke-miterlimit:10;}.cls-3,.cls-4{stroke-width:1.5px;}.cls-6{fill:#26cad3;}.cls-7,.cls-8{stroke-linecap:round;stroke-linejoin:round;}.cls-8{stroke-width:0.5px;}</style></defs><title>interlockingImage</title><rect class="cls-1" width="192" height="192"/><path class="cls-2" d="M-131.88,81.79l-35.95,20.76a2.73,2.73,0,0,0,0,4.72L-131.88,128a7,7,0,0,0,7,0L-89,107.27a2.73,2.73,0,0,0,0-4.72l-35.94-20.76A7,7,0,0,0-131.88,81.79Z" transform="translate(242.56 2.84)"/><path class="cls-3" d="M-94.86,78.16v-8A2.27,2.27,0,0,0-95,68.87l0-.06a2.2,2.2,0,0,0-.12-0.22l-0.05-.08-0.14-.18-0.07-.08-0.17-.16L-95.65,68a2.31,2.31,0,0,0-.28-0.19h0l-29.59-17.09a5.73,5.73,0,0,0-2.13-.72,5.75,5.75,0,0,0-.74,0h0a5.73,5.73,0,0,0-2.82.77l-4.85,2.8-24.74,14.28a2.31,2.31,0,0,0-.29.2l-0.08.07-0.17.16-0.07.08-0.14.18-0.05.08a2.2,2.2,0,0,0-.12.22l0,0.06a2.27,2.27,0,0,0-.14,1.29v8a2.3,2.3,0,0,0,0,.78V98.68a2.23,2.23,0,0,0,1.08,2.35l29.59,17.09a5.74,5.74,0,0,0,5.74,0L-95.94,101a2.23,2.23,0,0,0,1.08-2.35V78.95A2.3,2.3,0,0,0-94.86,78.16Z" transform="translate(242.56 2.84)"/><path class="cls-4" d="M-94.86,98.69V69.75h-67.08V98.68a2.23,2.23,0,0,0,1.08,2.35l29.59,17.09a5.74,5.74,0,0,0,5.74,0L-95.94,101A2.23,2.23,0,0,0-94.86,98.69Z" transform="translate(242.56 2.84)"/><path class="cls-5" d="M-94.86,70.16a2.23,2.23,0,0,0-1.08-2.35l-29.59-17.09a5.74,5.74,0,0,0-5.74,0l-29.59,17.08a2.23,2.23,0,0,0-1.08,2.35v8a2.23,2.23,0,0,0,1.08,2.35l29.59,17.09a5.74,5.74,0,0,0,5.74,0l29.59-17.08a2.23,2.23,0,0,0,1.08-2.35v-8Z" transform="translate(242.56 2.84)"/><path class="cls-5" d="M-159.42,81.34v9.89a6.06,6.06,0,0,0,2.91,4.59l22.68,13.09c1.6,0.92,2.91.37,2.91-1.23V97.79Z" transform="translate(242.56 2.84)"/><path class="cls-5" d="M-135.22,106h0a3.6,3.6,0,0,1-2.1-3v-5c0-1.16.95-1.7,2.1-1.21h0a3.6,3.6,0,0,1,2.1,3v5C-133.11,106-134.06,106.51-135.22,106Z" transform="translate(242.56 2.84)"/><path class="cls-5" d="M-155.12,94.56h0a3.6,3.6,0,0,1-2.1-3v-5c0-1.16.95-1.7,2.1-1.21h0a3.6,3.6,0,0,1,2.1,3v5C-153,94.5-154,95-155.12,94.56Z" transform="translate(242.56 2.84)"/><path class="cls-6" d="M-140.15,98a0.46,0.46,0,0,1-.68.43,1.08,1.08,0,0,1-.68-0.93,0.46,0.46,0,0,1,.68-0.43A1.08,1.08,0,0,1-140.15,98Z" transform="translate(242.56 2.84)"/><path class="cls-6" d="M-142.32,96.68a0.46,0.46,0,0,1-.68.43,1.08,1.08,0,0,1-.68-0.93,0.46,0.46,0,0,1,.68-0.43A1.08,1.08,0,0,1-142.32,96.68Z" transform="translate(242.56 2.84)"/><path class="cls-6" d="M-144.49,95.35a0.46,0.46,0,0,1-.68.43,1.08,1.08,0,0,1-.68-0.93,0.46,0.46,0,0,1,.68-0.43A1.08,1.08,0,0,1-144.49,95.35Z" transform="translate(242.56 2.84)"/><path class="cls-6" d="M-146.66,94a0.46,0.46,0,0,1-.68.43,1.08,1.08,0,0,1-.68-0.93,0.46,0.46,0,0,1,.68-0.43A1.08,1.08,0,0,1-146.66,94Z" transform="translate(242.56 2.84)"/><path class="cls-6" d="M-148.83,92.68a0.46,0.46,0,0,1-.68.43,1.08,1.08,0,0,1-.68-0.93,0.46,0.46,0,0,1,.68-0.43A1.08,1.08,0,0,1-148.83,92.68Z" transform="translate(242.56 2.84)"/><path class="cls-6" d="M-142.32,99a0.46,0.46,0,0,1-.68.43,1.08,1.08,0,0,1-.68-0.93,0.46,0.46,0,0,1,.68-0.43A1.08,1.08,0,0,1-142.32,99Z" transform="translate(242.56 2.84)"/><path class="cls-6" d="M-144.49,97.7a0.46,0.46,0,0,1-.68.43,1.08,1.08,0,0,1-.68-0.93,0.46,0.46,0,0,1,.68-0.43A1.08,1.08,0,0,1-144.49,97.7Z" transform="translate(242.56 2.84)"/><path class="cls-6" d="M-146.66,96.37a0.46,0.46,0,0,1-.68.43,1.08,1.08,0,0,1-.68-0.93,0.46,0.46,0,0,1,.68-0.43A1.08,1.08,0,0,1-146.66,96.37Z" transform="translate(242.56 2.84)"/><path class="cls-5" d="M-97.38,81.34v9.89a6.06,6.06,0,0,1-2.91,4.59L-123,108.91c-1.6.92-2.91,0.37-2.91-1.23V97.79Z" transform="translate(242.56 2.84)"/><path class="cls-5" d="M-121.58,106h0a3.6,3.6,0,0,0,2.1-3v-5c0-1.16-.95-1.7-2.1-1.21h0a3.6,3.6,0,0,0-2.1,3v5C-123.68,106-122.73,106.51-121.58,106Z" transform="translate(242.56 2.84)"/><path class="cls-5" d="M-101.68,94.56h0a3.6,3.6,0,0,0,2.1-3v-5c0-1.16-.95-1.7-2.1-1.21h0a3.6,3.6,0,0,0-2.1,3v5C-103.78,94.5-102.83,95-101.68,94.56Z" transform="translate(242.56 2.84)"/><path class="cls-6" d="M-116.65,98a0.46,0.46,0,0,0,.68.43,1.08,1.08,0,0,0,.68-0.93,0.46,0.46,0,0,0-.68-0.43A1.08,1.08,0,0,0-116.65,98Z" transform="translate(242.56 2.84)"/><path class="cls-6" d="M-114.48,96.68a0.46,0.46,0,0,0,.68.43,1.08,1.08,0,0,0,.68-0.93,0.46,0.46,0,0,0-.68-0.43A1.08,1.08,0,0,0-114.48,96.68Z" transform="translate(242.56 2.84)"/><path class="cls-6" d="M-112.31,95.35a0.46,0.46,0,0,0,.68.43,1.08,1.08,0,0,0,.68-0.93,0.46,0.46,0,0,0-.68-0.43A1.08,1.08,0,0,0-112.31,95.35Z" transform="translate(242.56 2.84)"/><path class="cls-6" d="M-110.13,94a0.46,0.46,0,0,0,.68.43,1.08,1.08,0,0,0,.68-0.93,0.46,0.46,0,0,0-.68-0.43A1.08,1.08,0,0,0-110.13,94Z" transform="translate(242.56 2.84)"/><path class="cls-6" d="M-108,92.68a0.46,0.46,0,0,0,.68.43,1.08,1.08,0,0,0,.68-0.93,0.46,0.46,0,0,0-.68-0.43A1.08,1.08,0,0,0-108,92.68Z" transform="translate(242.56 2.84)"/><path class="cls-6" d="M-114.48,99a0.46,0.46,0,0,0,.68.43,1.08,1.08,0,0,0,.68-0.93,0.46,0.46,0,0,0-.68-0.43A1.08,1.08,0,0,0-114.48,99Z" transform="translate(242.56 2.84)"/><path class="cls-6" d="M-112.31,97.7a0.46,0.46,0,0,0,.68.43,1.08,1.08,0,0,0,.68-0.93,0.46,0.46,0,0,0-.68-0.43A1.08,1.08,0,0,0-112.31,97.7Z" transform="translate(242.56 2.84)"/><path class="cls-6" d="M-110.13,96.37a0.46,0.46,0,0,0,.68.43,1.08,1.08,0,0,0,.68-0.93,0.46,0.46,0,0,0-.68-0.43A1.08,1.08,0,0,0-110.13,96.37Z" transform="translate(242.56 2.84)"/><path class="cls-5" d="M-131.26,50.72l-29.59,17.08a2.25,2.25,0,0,0,0,3.89l29.59,17.09a5.74,5.74,0,0,0,5.74,0L-95.94,71.7a2.25,2.25,0,0,0,0-3.89l-29.59-17.09A5.74,5.74,0,0,0-131.26,50.72Z" transform="translate(242.56 2.84)"/><ellipse class="cls-6" cx="138.78" cy="72.37" rx="1.81" ry="0.82"/><path class="cls-7" d="M-116.39,70.22h0l0,0h0l-10-5.71h0a13.75,13.75,0,0,0-7.21-1.72c-4.84,0-8.77,1.79-8.77,4A2.83,2.83,0,0,0-140.9,69h0a7.09,7.09,0,0,0,.8.46l10,5.77,0.15,0.09h0a14.64,14.64,0,0,0,6.69,1.42c4.84,0,8.77-1.79,8.77-4C-114.42,71.78-115.16,70.91-116.39,70.22Z" transform="translate(242.56 2.84)"/><path class="cls-8" d="M-121.78,75.94h0a0.4,0.4,0,0,1-.25-0.32,1,1,0,0,1,1.11-.51,1.86,1.86,0,0,1,.85.18h0l1.45,0.84a11.34,11.34,0,0,0,1.53-.54l-2-1.15h0a0.4,0.4,0,0,1-.25-0.32,1,1,0,0,1,1.11-.51,1.86,1.86,0,0,1,.85.18h0l1.66,1a2.67,2.67,0,0,0,1.25-2c0-1-.74-1.83-2-2.52h0l0,0h0l-1.44-.83-2.43,1.42h0a1.86,1.86,0,0,1-.85.18,1,1,0,0,1-1.11-.51,0.4,0.4,0,0,1,.25-0.32h0l2.74-1.59-1.22-.7L-123,69.29h0a1.86,1.86,0,0,1-.85.18,1,1,0,0,1-1.11-.51,0.4,0.4,0,0,1,.25-0.32h0l2.75-1.6-1.22-.7-2.46,1.43h0a1.86,1.86,0,0,1-.85.18,1,1,0,0,1-1.11-.51,0.4,0.4,0,0,1,.25-0.32h0l2.76-1.61-1.22-.7-2.47,1.44h0a1.86,1.86,0,0,1-.85.18,1,1,0,0,1-1.11-.51,0.4,0.4,0,0,1,.25-0.32h0l2.76-1.61a15,15,0,0,0-6.39-1.27,18.49,18.49,0,0,0-2.76.2l1.06,0.61h0a0.4,0.4,0,0,1,.25.32,1,1,0,0,1-1.11.51,1.86,1.86,0,0,1-.85-0.18h0l-1.37-.8a10.75,10.75,0,0,0-1.49.56l1.87,1.09h0a0.4,0.4,0,0,1,.25.32,1,1,0,0,1-1.11.51,1.86,1.86,0,0,1-.85-0.18h0l-1.51-.88a2.57,2.57,0,0,0-1.1,1.94A2.83,2.83,0,0,0-140.9,69h0a7.09,7.09,0,0,0,.8.46l1.18,0.68,2.42-1.41h0a1.86,1.86,0,0,1,.85-0.18,1,1,0,0,1,1.11.51,0.4,0.4,0,0,1-.25.32h0l-2.73,1.59,1.22,0.7,2.44-1.42h0A1.86,1.86,0,0,1-133,70a1,1,0,0,1,1.11.51,0.4,0.4,0,0,1-.25.32h0l-2.75,1.6,1.22,0.7,2.46-1.43h0a1.86,1.86,0,0,1,.85-0.18,1,1,0,0,1,1.11.51,0.4,0.4,0,0,1-.25.32h0L-132.23,74l1.22,0.7,2.48-1.44h0a1.86,1.86,0,0,1,.85-0.18,1,1,0,0,1,1.11.51,0.4,0.4,0,0,1-.25.32h0l-2.76,1.61a15,15,0,0,0,6.39,1.27,18.65,18.65,0,0,0,2.5-.17Z" transform="translate(242.56 2.84)"/><path class="cls-2" d="M-168.13,102.58l-36,20.8a2.73,2.73,0,0,0,0,4.73l36,20.8a7,7,0,0,0,7,0l36-20.79a2.73,2.73,0,0,0,0-4.73l-36-20.8A7,7,0,0,0-168.13,102.58Z" transform="translate(242.56 2.84)"/><path class="cls-3" d="M-131,99v-8a2.28,2.28,0,0,0-.14-1.3l0-.06a2.2,2.2,0,0,0-.12-0.22l-0.05-.08-0.14-.18-0.07-.08-0.17-.16-0.08-.07a2.31,2.31,0,0,0-.28-0.2h0l-29.65-17.12a5.74,5.74,0,0,0-2.13-.72,5.76,5.76,0,0,0-.74,0h0a5.74,5.74,0,0,0-2.83.77l-4.86,2.81-24.79,14.31a2.31,2.31,0,0,0-.29.2l-0.08.07-0.17.16-0.07.08-0.14.18-0.05.08a2.2,2.2,0,0,0-.12.22l0,0.06a2.28,2.28,0,0,0-.15,1.3v8a2.3,2.3,0,0,0,0,.78v19.78a2.24,2.24,0,0,0,1.08,2.35L-167.51,139a5.75,5.75,0,0,0,5.75,0l29.65-17.12a2.24,2.24,0,0,0,1.08-2.35V99.73A2.3,2.3,0,0,0-131,99Z" transform="translate(242.56 2.84)"/><path class="cls-4" d="M-131,119.52v-29h-67.22v29a2.24,2.24,0,0,0,1.08,2.35L-167.51,139a5.75,5.75,0,0,0,5.75,0l29.65-17.12A2.24,2.24,0,0,0-131,119.52Z" transform="translate(242.56 2.84)"/><path class="cls-5" d="M-131,90.93a2.24,2.24,0,0,0-1.08-2.35l-29.65-17.12a5.75,5.75,0,0,0-5.75,0l-29.65,17.12a2.24,2.24,0,0,0-1.08,2.35v8a2.24,2.24,0,0,0,1.08,2.35l29.65,17.12a5.75,5.75,0,0,0,5.75,0l29.65-17.12A2.24,2.24,0,0,0-131,99v-8Z" transform="translate(242.56 2.84)"/><path class="cls-5" d="M-195.72,102.13V112a6.07,6.07,0,0,0,2.92,4.6l22.72,13.12c1.6,0.93,2.92.37,2.92-1.23v-9.91Z" transform="translate(242.56 2.84)"/><path class="cls-5" d="M-171.47,126.86h0a3.61,3.61,0,0,1-2.11-3v-5c0-1.16.95-1.71,2.11-1.22h0a3.61,3.61,0,0,1,2.11,3v5C-169.37,126.81-170.31,127.35-171.47,126.86Z" transform="translate(242.56 2.84)"/><path class="cls-5" d="M-191.41,115.38h0a3.61,3.61,0,0,1-2.11-3v-5c0-1.16.95-1.71,2.11-1.22h0a3.61,3.61,0,0,1,2.11,3v5C-189.31,115.32-190.25,115.87-191.41,115.38Z" transform="translate(242.56 2.84)"/><path class="cls-6" d="M-176.41,118.83a0.46,0.46,0,0,1-.68.43,1.08,1.08,0,0,1-.68-0.93,0.46,0.46,0,0,1,.68-0.43A1.08,1.08,0,0,1-176.41,118.83Z" transform="translate(242.56 2.84)"/><path class="cls-6" d="M-178.59,117.5a0.46,0.46,0,0,1-.68.43,1.08,1.08,0,0,1-.68-0.93,0.46,0.46,0,0,1,.68-0.43A1.08,1.08,0,0,1-178.59,117.5Z" transform="translate(242.56 2.84)"/><path class="cls-6" d="M-180.76,116.17a0.46,0.46,0,0,1-.68.43,1.08,1.08,0,0,1-.68-0.93,0.46,0.46,0,0,1,.68-0.43A1.08,1.08,0,0,1-180.76,116.17Z" transform="translate(242.56 2.84)"/><path class="cls-6" d="M-182.94,114.83a0.46,0.46,0,0,1-.68.43,1.08,1.08,0,0,1-.68-0.93,0.46,0.46,0,0,1,.68-0.43A1.08,1.08,0,0,1-182.94,114.83Z" transform="translate(242.56 2.84)"/><path class="cls-6" d="M-185.11,113.5a0.46,0.46,0,0,1-.68.43,1.08,1.08,0,0,1-.68-0.93,0.46,0.46,0,0,1,.68-0.43A1.08,1.08,0,0,1-185.11,113.5Z" transform="translate(242.56 2.84)"/><path class="cls-6" d="M-178.59,119.86a0.46,0.46,0,0,1-.68.43,1.08,1.08,0,0,1-.68-0.93,0.46,0.46,0,0,1,.68-0.43A1.08,1.08,0,0,1-178.59,119.86Z" transform="translate(242.56 2.84)"/><path class="cls-6" d="M-180.76,118.53a0.46,0.46,0,0,1-.68.43,1.08,1.08,0,0,1-.68-0.93,0.46,0.46,0,0,1,.68-0.43A1.08,1.08,0,0,1-180.76,118.53Z" transform="translate(242.56 2.84)"/><path class="cls-6" d="M-182.94,117.2a0.46,0.46,0,0,1-.68.43,1.08,1.08,0,0,1-.68-0.93,0.46,0.46,0,0,1,.68-0.43A1.08,1.08,0,0,1-182.94,117.2Z" transform="translate(242.56 2.84)"/><path class="cls-5" d="M-133.55,102.13V112a6.07,6.07,0,0,1-2.92,4.6l-22.72,13.12c-1.6.93-2.92,0.37-2.92-1.23v-9.91Z" transform="translate(242.56 2.84)"/><path class="cls-5" d="M-157.8,126.86h0a3.61,3.61,0,0,0,2.11-3v-5c0-1.16-.95-1.71-2.11-1.22h0a3.61,3.61,0,0,0-2.11,3v5C-159.91,126.81-159,127.35-157.8,126.86Z" transform="translate(242.56 2.84)"/><path class="cls-5" d="M-137.86,115.38h0a3.61,3.61,0,0,0,2.11-3v-5c0-1.16-.95-1.71-2.11-1.22h0a3.61,3.61,0,0,0-2.11,3v5C-140,115.32-139,115.87-137.86,115.38Z" transform="translate(242.56 2.84)"/><path class="cls-6" d="M-152.86,118.83a0.46,0.46,0,0,0,.68.43,1.08,1.08,0,0,0,.68-0.93,0.46,0.46,0,0,0-.68-0.43A1.08,1.08,0,0,0-152.86,118.83Z" transform="translate(242.56 2.84)"/><path class="cls-6" d="M-150.69,117.5a0.46,0.46,0,0,0,.68.43,1.08,1.08,0,0,0,.68-0.93,0.46,0.46,0,0,0-.68-0.43A1.08,1.08,0,0,0-150.69,117.5Z" transform="translate(242.56 2.84)"/><path class="cls-6" d="M-148.51,116.17a0.46,0.46,0,0,0,.68.43,1.08,1.08,0,0,0,.68-0.93,0.46,0.46,0,0,0-.68-0.43A1.08,1.08,0,0,0-148.51,116.17Z" transform="translate(242.56 2.84)"/><path class="cls-6" d="M-146.34,114.83a0.46,0.46,0,0,0,.68.43,1.08,1.08,0,0,0,.68-0.93,0.46,0.46,0,0,0-.68-0.43A1.08,1.08,0,0,0-146.34,114.83Z" transform="translate(242.56 2.84)"/><path class="cls-6" d="M-144.16,113.5a0.46,0.46,0,0,0,.68.43,1.08,1.08,0,0,0,.68-0.93,0.46,0.46,0,0,0-.68-0.43A1.08,1.08,0,0,0-144.16,113.5Z" transform="translate(242.56 2.84)"/><path class="cls-6" d="M-150.69,119.86a0.46,0.46,0,0,0,.68.43,1.08,1.08,0,0,0,.68-0.93,0.46,0.46,0,0,0-.68-0.43A1.08,1.08,0,0,0-150.69,119.86Z" transform="translate(242.56 2.84)"/><path class="cls-6" d="M-148.51,118.53a0.46,0.46,0,0,0,.68.43,1.08,1.08,0,0,0,.68-0.93,0.46,0.46,0,0,0-.68-0.43A1.08,1.08,0,0,0-148.51,118.53Z" transform="translate(242.56 2.84)"/><path class="cls-6" d="M-146.34,117.2a0.46,0.46,0,0,0,.68.43,1.08,1.08,0,0,0,.68-0.93,0.46,0.46,0,0,0-.68-0.43A1.08,1.08,0,0,0-146.34,117.2Z" transform="translate(242.56 2.84)"/><path class="cls-5" d="M-167.51,71.45l-29.65,17.12a2.25,2.25,0,0,0,0,3.9l29.65,17.12a5.75,5.75,0,0,0,5.75,0l29.65-17.12a2.25,2.25,0,0,0,0-3.9l-29.65-17.12A5.75,5.75,0,0,0-167.51,71.45Z" transform="translate(242.56 2.84)"/><polygon class="cls-6" points="98.55 89.83 77.92 77.92 51.19 93.36 51.19 93.36 71.81 105.27 98.55 89.83"/><polygon class="cls-9" points="78.85 89.67 78.85 89.67 77.52 90.44 76.18 89.67 76.18 89.67 77.52 88.89 78.85 89.67"/><polygon class="cls-9" points="77.52 90.44 77.52 90.44 76.18 91.21 74.84 90.44 74.84 90.44 76.18 89.67 77.52 90.44"/><polygon class="cls-9" points="76.18 91.21 76.18 91.21 74.84 91.98 73.51 91.21 73.51 91.21 74.84 90.44 76.18 91.21"/><polygon class="cls-9" points="81.52 91.21 81.52 91.21 80.19 91.98 78.85 91.21 78.85 91.21 80.19 90.44 81.52 91.21"/><polygon class="cls-9" points="74.84 91.98 74.84 91.98 73.51 92.75 72.17 91.98 72.17 91.98 73.51 91.21 74.84 91.98"/><polygon class="cls-9" points="77.52 91.98 77.52 91.98 76.18 92.75 74.84 91.98 74.84 91.98 76.18 91.21 77.52 91.98"/><polygon class="cls-9" points="78.85 91.21 78.85 91.21 77.52 91.98 76.18 91.21 76.18 91.21 77.52 90.44 78.85 91.21"/><polygon class="cls-9" points="76.18 92.75 76.18 92.75 74.84 93.52 73.51 92.75 73.51 92.75 74.84 91.98 76.18 92.75"/><polygon class="cls-9" points="80.19 91.98 80.19 91.98 78.85 92.75 77.52 91.98 77.52 91.98 78.85 91.21 80.19 91.98"/><polygon class="cls-9" points="82.86 91.98 82.86 91.98 81.52 92.75 80.19 91.98 80.19 91.98 81.52 91.21 82.86 91.98"/><polygon class="cls-9" points="73.51 92.75 73.51 92.75 72.17 93.52 70.84 92.75 70.84 92.75 72.17 91.98 73.51 92.75"/><polygon class="cls-9" points="78.85 92.75 78.85 92.75 77.52 93.52 76.18 92.75 76.18 92.75 77.52 91.98 78.85 92.75"/><polygon class="cls-9" points="81.52 92.75 81.52 92.75 80.19 93.52 78.85 92.75 78.85 92.75 80.19 91.98 81.52 92.75"/><polygon class="cls-9" points="72.17 93.52 72.17 93.52 70.84 94.29 69.5 93.52 69.5 93.52 70.84 92.75 72.17 93.52"/><polygon class="cls-9" points="77.52 93.52 77.52 93.52 76.18 94.29 74.84 93.52 74.84 93.52 76.18 92.75 77.52 93.52"/><polygon class="cls-9" points="80.19 93.52 80.19 93.52 78.85 94.29 77.52 93.52 77.52 93.52 78.85 92.75 80.19 93.52"/><polygon class="cls-9" points="82.86 93.52 82.86 93.52 81.52 94.29 80.19 93.52 80.19 93.52 81.52 92.75 82.86 93.52"/><polygon class="cls-9" points="76.18 94.29 76.18 94.29 74.84 95.06 73.51 94.29 73.51 94.29 74.84 93.52 76.18 94.29"/><polygon class="cls-9" points="78.85 94.29 78.85 94.29 77.52 95.06 76.18 94.29 76.18 94.29 77.52 93.52 78.85 94.29"/><polygon class="cls-9" points="81.52 94.29 81.52 94.29 80.19 95.06 78.85 94.29 78.85 94.29 80.19 93.52 81.52 94.29"/><polygon class="cls-9" points="86.86 94.29 86.86 94.29 85.53 95.06 84.19 94.29 84.19 94.29 85.53 93.52 86.86 94.29"/><polygon class="cls-9" points="74.84 95.06 74.84 95.06 73.51 95.83 72.17 95.06 72.17 95.06 73.51 94.29 74.84 95.06"/><polygon class="cls-9" points="77.52 95.06 77.52 95.06 76.18 95.83 74.84 95.06 74.84 95.06 76.18 94.29 77.52 95.06"/><polygon class="cls-9" points="80.19 95.06 80.19 95.06 78.85 95.83 77.52 95.06 77.52 95.06 78.85 94.29 80.19 95.06"/><polygon class="cls-9" points="85.53 95.06 85.53 95.06 84.19 95.83 82.86 95.06 82.86 95.06 84.19 94.29 85.53 95.06"/><polygon class="cls-9" points="84.19 95.83 84.19 95.83 82.86 96.61 81.52 95.83 81.52 95.83 82.86 95.06 84.19 95.83"/><polygon class="cls-9" points="74.84 96.61 74.84 96.61 73.51 97.38 72.17 96.61 72.17 96.61 73.51 95.83 74.84 96.61"/><polygon class="cls-9" points="82.86 96.61 82.86 96.61 81.52 97.38 80.19 96.61 80.19 96.61 81.52 95.83 82.86 96.61"/><polygon class="cls-9" points="76.18 97.38 76.18 97.38 74.84 98.15 73.51 97.38 73.51 97.38 74.84 96.61 76.18 97.38"/><polygon class="cls-9" points="78.85 97.38 78.85 97.38 77.52 98.15 76.18 97.38 76.18 97.38 77.52 96.61 78.85 97.38"/><polygon class="cls-9" points="81.52 97.38 81.52 97.38 80.19 98.15 78.85 97.38 78.85 97.38 80.19 96.61 81.52 97.38"/><polygon class="cls-9" points="80.19 88.89 80.19 88.89 78.85 89.67 77.52 88.89 77.52 88.89 78.85 88.12 80.19 88.89"/><polygon class="cls-9" points="82.86 90.44 82.86 90.44 81.52 91.21 80.19 90.44 80.19 90.44 81.52 89.67 82.86 90.44"/><polygon class="cls-9" points="85.53 90.44 85.53 90.44 84.19 91.21 82.86 90.44 82.86 90.44 84.19 89.67 85.53 90.44"/><polygon class="cls-9" points="86.86 91.21 86.86 91.21 85.53 91.98 84.19 91.21 84.19 91.21 85.53 90.44 86.86 91.21"/><polygon class="cls-9" points="86.86 92.75 86.86 92.75 85.53 93.52 84.19 92.75 84.19 92.75 85.53 91.98 86.86 92.75"/><polygon class="cls-9" points="76.18 89.67 76.18 89.67 74.84 90.44 73.51 89.67 73.51 89.67 74.84 88.89 76.18 89.67"/><polygon class="cls-9" points="74.84 90.44 74.84 90.44 73.51 91.21 72.17 90.44 72.17 90.44 73.51 89.67 74.84 90.44"/><polygon class="cls-9" points="73.51 91.21 73.51 91.21 72.17 91.98 70.84 91.21 70.84 91.21 72.17 90.44 73.51 91.21"/><polygon class="cls-9" points="76.18 88.12 76.18 88.12 74.84 88.89 73.51 88.12 73.51 88.12 74.84 87.35 76.18 88.12"/><polygon class="cls-9" points="74.84 88.89 74.84 88.89 73.51 89.67 72.17 88.89 72.17 88.89 73.51 88.12 74.84 88.89"/><polygon class="cls-9" points="73.51 89.67 73.51 89.67 72.17 90.44 70.84 89.67 70.84 89.67 72.17 88.89 73.51 89.67"/><polygon class="cls-9" points="72.17 90.44 72.17 90.44 70.84 91.21 69.5 90.44 69.5 90.44 70.84 89.67 72.17 90.44"/><polygon class="cls-9" points="70.84 91.21 70.84 91.21 69.5 91.98 68.17 91.21 68.17 91.21 69.5 90.44 70.84 91.21"/><polygon class="cls-9" points="69.5 91.98 69.5 91.98 68.17 92.75 66.83 91.98 66.83 91.98 68.17 91.21 69.5 91.98"/><polygon class="cls-9" points="77.52 87.35 77.52 87.35 76.18 88.12 74.84 87.35 74.84 87.35 76.18 86.58 77.52 87.35"/><polygon class="cls-9" points="73.51 88.12 73.51 88.12 72.17 88.89 70.84 88.12 70.84 88.12 72.17 87.35 73.51 88.12"/><polygon class="cls-9" points="72.17 88.89 72.17 88.89 70.84 89.67 69.5 88.89 69.5 88.89 70.84 88.12 72.17 88.89"/><polygon class="cls-9" points="70.84 89.67 70.84 89.67 69.5 90.44 68.17 89.67 68.17 89.67 69.5 88.89 70.84 89.67"/><polygon class="cls-9" points="73.51 86.58 73.51 86.58 72.17 87.35 70.84 86.58 70.84 86.58 72.17 85.81 73.51 86.58"/><polygon class="cls-9" points="72.17 87.35 72.17 87.35 70.84 88.12 69.5 87.35 69.5 87.35 70.84 86.58 72.17 87.35"/><polygon class="cls-9" points="70.84 88.12 70.84 88.12 69.5 88.89 68.17 88.12 68.17 88.12 69.5 87.35 70.84 88.12"/><polygon class="cls-9" points="69.5 88.89 69.5 88.89 68.17 89.67 66.83 88.89 66.83 88.89 68.17 88.12 69.5 88.89"/><polygon class="cls-9" points="68.17 89.67 68.17 89.67 66.83 90.44 65.5 89.67 65.5 89.67 66.83 88.89 68.17 89.67"/><polygon class="cls-9" points="66.83 90.44 66.83 90.44 65.5 91.21 64.16 90.44 64.16 90.44 65.5 89.67 66.83 90.44"/><polygon class="cls-9" points="74.84 85.81 74.84 85.81 73.51 86.58 72.17 85.81 72.17 85.81 73.51 85.04 74.84 85.81"/><polygon class="cls-9" points="72.17 85.81 72.17 85.81 70.84 86.58 69.5 85.81 69.5 85.81 70.84 85.04 72.17 85.81"/><polygon class="cls-9" points="70.84 86.58 70.84 86.58 69.5 87.35 68.17 86.58 68.17 86.58 69.5 85.81 70.84 86.58"/><polygon class="cls-9" points="69.5 87.35 69.5 87.35 68.17 88.12 66.83 87.35 66.83 87.35 68.17 86.58 69.5 87.35"/><polygon class="cls-9" points="68.17 88.12 68.17 88.12 66.83 88.89 65.5 88.12 65.5 88.12 66.83 87.35 68.17 88.12"/><polygon class="cls-9" points="66.83 88.89 66.83 88.89 65.5 89.67 64.16 88.89 64.16 88.89 65.5 88.12 66.83 88.89"/><polygon class="cls-9" points="69.5 85.81 69.5 85.81 68.17 86.58 66.83 85.81 66.83 85.81 68.17 85.04 69.5 85.81"/><polygon class="cls-9" points="68.17 86.58 68.17 86.58 66.83 87.35 65.5 86.58 65.5 86.58 66.83 85.81 68.17 86.58"/><polygon class="cls-9" points="66.83 87.35 66.83 87.35 65.5 88.12 64.16 87.35 64.16 87.35 65.5 86.58 66.83 87.35"/></svg>