<svg id="레이어_1" data-name="레이어 1" xmlns="http://www.w3.org/2000/svg" width="350" height="210" viewBox="0 0 350 210">
  <defs>
    <style>
      .cls-1, .cls-5, .cls-7 {
        fill: #fff;
      }

      .cls-2 {
        fill: none;
        stroke: #26cad3;
        stroke-width: 2px;
      }

      .cls-2, .cls-4, .cls-5, .cls-7 {
        stroke-miterlimit: 10;
      }

      .cls-3 {
        fill: #26cad3;
      }

      .cls-4 {
        fill: #dbaf58;
        stroke: #dbaf58;
      }

      .cls-5 {
        stroke: #bcbcbc;
      }

      .cls-6 {
        fill: #ff8e1d;
      }

      .cls-7 {
        stroke: #e1e1e1;
      }

      .cls-8 {
        fill: #bcbcbc;
        stroke: #bbbdbf;
        stroke-linecap: round;
        stroke-linejoin: round;
      }
    </style>
  </defs>
  <title>helpAngleTorque2</title>
  <path class="cls-1" d="M0,210H346a4,4,0,0,0,4-4V0H0Z" transform="translate(0 -0.02)"/>
  <path class="cls-2" d="M227.55,42.67h91.28A10.18,10.18,0,0,1,329,52.84h0A10.18,10.18,0,0,1,318.83,63H227.55a10.18,10.18,0,0,1-10.18-10.17h0a10.18,10.18,0,0,1,10.18-10.18Z" transform="translate(0 -0.02)"/>
  <g>
    <path class="cls-3" d="M242,57.15a2.6,2.6,0,0,1-2.36-1.31,4.71,4.71,0,0,1-.56-1.51,9.83,9.83,0,0,1-.18-2v-1a7.34,7.34,0,0,1,.17-1.07,5.49,5.49,0,0,1,.35-1,3.27,3.27,0,0,1,.56-.86,2.57,2.57,0,0,1,.83-.59,2.71,2.71,0,0,1,1.13-.22,2.67,2.67,0,0,1,1.13.22,2.59,2.59,0,0,1,.82.59,3.13,3.13,0,0,1,.56.86,5.8,5.8,0,0,1,.34,1,7.63,7.63,0,0,1,.17,1.07v1a9.66,9.66,0,0,1-.18,2,4.75,4.75,0,0,1-.56,1.51,2.74,2.74,0,0,1-1,1A2.66,2.66,0,0,1,242,57.15Zm0-8a1.09,1.09,0,0,0-.56.16,1.3,1.3,0,0,0-.46.53,3.55,3.55,0,0,0-.31,1,8.61,8.61,0,0,0-.11,1.53,8.7,8.7,0,0,0,.11,1.54,3.46,3.46,0,0,0,.31,1,1.3,1.3,0,0,0,.46.53,1.09,1.09,0,0,0,1.13,0,1.3,1.3,0,0,0,.46-.53,3.49,3.49,0,0,0,.31-1,8.7,8.7,0,0,0,.11-1.54,8.61,8.61,0,0,0-.11-1.53,3.58,3.58,0,0,0-.31-1,1.31,1.31,0,0,0-.46-.53,1.09,1.09,0,0,0-.57-.15Z" transform="translate(0 -0.02)"/>
    <path class="cls-3" d="M250.77,51.92a1.76,1.76,0,0,1-.71.56,2.48,2.48,0,0,1-1,.17,2.4,2.4,0,0,1-1-.19,1.84,1.84,0,0,1-.68-.53,2.15,2.15,0,0,1-.39-.8,4.21,4.21,0,0,1,0-2,2.25,2.25,0,0,1,.39-.82,1.9,1.9,0,0,1,.68-.56,2.28,2.28,0,0,1,1-.2,2.25,2.25,0,0,1,1,.2,1.91,1.91,0,0,1,.68.56,2.33,2.33,0,0,1,.4.82,3.82,3.82,0,0,1,.13,1,3.75,3.75,0,0,1-.13,1A2.14,2.14,0,0,1,250.77,51.92ZM249.09,49a.57.57,0,0,0-.52.26,1.66,1.66,0,0,0-.17.87,1.93,1.93,0,0,0,.15.79.54.54,0,0,0,.53.34.55.55,0,0,0,.49-.26,2.34,2.34,0,0,0,0-1.74A.55.55,0,0,0,249.09,49Zm1.32,8a.25.25,0,0,1-.14.14.78.78,0,0,1-.22,0H249a.38.38,0,0,1-.23,0v-.23l5.17-9.36a.34.34,0,0,1,.11-.12.42.42,0,0,1,.17,0h1.25a.3.3,0,0,1,.25.07.28.28,0,0,1-.05.25Zm6.53-.73a1.77,1.77,0,0,1-.71.56,2.5,2.5,0,0,1-1,.17,2.4,2.4,0,0,1-1-.19,1.83,1.83,0,0,1-.68-.53,2.14,2.14,0,0,1-.39-.8,4.21,4.21,0,0,1,0-2,2.27,2.27,0,0,1,.39-.82,1.9,1.9,0,0,1,.68-.56,2.28,2.28,0,0,1,1-.2,2.25,2.25,0,0,1,1,.2,1.91,1.91,0,0,1,.68.56,2.34,2.34,0,0,1,.4.82,3.82,3.82,0,0,1,.13,1,3.75,3.75,0,0,1-.13,1,2.13,2.13,0,0,1-.38.82Zm-1.68-2.93a.57.57,0,0,0-.52.26,1.67,1.67,0,0,0-.17.87,1.92,1.92,0,0,0,.15.79.54.54,0,0,0,.53.34.55.55,0,0,0,.49-.26,2.34,2.34,0,0,0,0-1.74.55.55,0,0,0-.49-.23Z" transform="translate(0 -0.02)"/>
    <path class="cls-3" d="M269,52.43a2.4,2.4,0,0,1-.76.76,1.88,1.88,0,0,1-1,.28,2.25,2.25,0,0,1-.67-.11l-.69-.24-.64-.24a1.59,1.59,0,0,0-.53-.11.93.93,0,0,0-.55.22,3,3,0,0,0-.53.52.17.17,0,0,1-.16.1.42.42,0,0,1-.16-.18l-.45-.72a.19.19,0,0,1,0-.14.7.7,0,0,1,0-.12,2,2,0,0,1,.78-.76,2.27,2.27,0,0,1,1.09-.26,2.5,2.5,0,0,1,.67.1l.7.22.62.22a1.44,1.44,0,0,0,.46.1.64.64,0,0,0,.29-.07,1.47,1.47,0,0,0,.28-.18l.25-.22.2-.2a.39.39,0,0,1,.15-.11.2.2,0,0,1,.15.11l.5.75a.22.22,0,0,1,0,.14A.4.4,0,0,1,269,52.43Z" transform="translate(0 -0.02)"/>
    <path class="cls-3" d="M276.53,57a.24.24,0,0,1-.18,0,.31.31,0,0,1,0-.2V49.92l-.73.7c-.13.12-.23.13-.3,0l-.71-.8a.14.14,0,0,1,0-.15.55.55,0,0,1,.14-.16l1.85-1.73a.44.44,0,0,1,.29-.11h.79a.48.48,0,0,1,.31.06.78.78,0,0,1,0,.36v8.64a.32.32,0,0,1,0,.19.23.23,0,0,1-.18.06h-1.19Z" transform="translate(0 -0.02)"/>
    <path class="cls-3" d="M284.31,57.15A2.6,2.6,0,0,1,282,55.84a4.71,4.71,0,0,1-.56-1.51,9.83,9.83,0,0,1-.18-2v-1a7.34,7.34,0,0,1,.17-1.07,5.57,5.57,0,0,1,.35-1,3.27,3.27,0,0,1,.56-.86,2.56,2.56,0,0,1,.83-.59,2.72,2.72,0,0,1,1.13-.22,2.67,2.67,0,0,1,1.13.22,2.59,2.59,0,0,1,.82.59,3.16,3.16,0,0,1,.56.86,5.72,5.72,0,0,1,.34,1,7.63,7.63,0,0,1,.17,1.07v1a9.72,9.72,0,0,1-.18,2,4.75,4.75,0,0,1-.56,1.51,2.75,2.75,0,0,1-1,1A2.66,2.66,0,0,1,284.31,57.15Zm0-8a1.1,1.1,0,0,0-.56.16,1.3,1.3,0,0,0-.46.53,3.58,3.58,0,0,0-.31,1,8.61,8.61,0,0,0-.11,1.53,8.7,8.7,0,0,0,.13,1.55,3.49,3.49,0,0,0,.31,1,1.3,1.3,0,0,0,.46.53,1.1,1.1,0,0,0,1.13,0,1.3,1.3,0,0,0,.46-.53,3.49,3.49,0,0,0,.31-1,8.7,8.7,0,0,0,.11-1.54,8.61,8.61,0,0,0-.11-1.53,3.58,3.58,0,0,0-.31-1,1.3,1.3,0,0,0-.46-.53,1.1,1.1,0,0,0-.59-.16Z" transform="translate(0 -0.02)"/>
    <path class="cls-3" d="M291.58,57.15a2.6,2.6,0,0,1-2.36-1.31,4.71,4.71,0,0,1-.56-1.51,9.83,9.83,0,0,1-.18-2v-1a7.34,7.34,0,0,1,.17-1.07,5.57,5.57,0,0,1,.35-1,3.27,3.27,0,0,1,.56-.86,2.56,2.56,0,0,1,.83-.59,2.72,2.72,0,0,1,1.13-.22,2.67,2.67,0,0,1,1.13.22,2.59,2.59,0,0,1,.82.59,3.16,3.16,0,0,1,.56.86,5.72,5.72,0,0,1,.34,1,7.63,7.63,0,0,1,.17,1.07v1a9.72,9.72,0,0,1-.18,2,4.75,4.75,0,0,1-.56,1.51,2.75,2.75,0,0,1-1,1A2.66,2.66,0,0,1,291.58,57.15Zm0-8a1.1,1.1,0,0,0-.56.16,1.3,1.3,0,0,0-.46.53,3.58,3.58,0,0,0-.31,1,8.61,8.61,0,0,0-.11,1.53,8.7,8.7,0,0,0,.11,1.54,3.49,3.49,0,0,0,.31,1,1.3,1.3,0,0,0,.46.53,1.1,1.1,0,0,0,1.13,0,1.3,1.3,0,0,0,.46-.53,3.49,3.49,0,0,0,.31-1,8.7,8.7,0,0,0,.11-1.54,8.61,8.61,0,0,0-.11-1.53,3.58,3.58,0,0,0-.31-1,1.3,1.3,0,0,0-.46-.53,1.1,1.1,0,0,0-.57-.15Z" transform="translate(0 -0.02)"/>
    <path class="cls-3" d="M300.3,51.92a1.78,1.78,0,0,1-.71.56,2.48,2.48,0,0,1-1,.17,2.41,2.41,0,0,1-1-.19,1.85,1.85,0,0,1-.68-.53,2.15,2.15,0,0,1-.39-.8,4.25,4.25,0,0,1,0-2,2.25,2.25,0,0,1,.39-.82,1.91,1.91,0,0,1,.68-.56,2.29,2.29,0,0,1,1-.2,2.25,2.25,0,0,1,1,.2,1.91,1.91,0,0,1,.68.56,2.36,2.36,0,0,1,.4.82,3.82,3.82,0,0,1,.13,1,3.75,3.75,0,0,1-.13,1A2.16,2.16,0,0,1,300.3,51.92ZM298.62,49a.57.57,0,0,0-.52.26,1.66,1.66,0,0,0-.17.87,1.93,1.93,0,0,0,.15.79.54.54,0,0,0,.53.34.55.55,0,0,0,.49-.26,2.34,2.34,0,0,0,0-1.74A.55.55,0,0,0,298.62,49Zm1.32,8a.25.25,0,0,1-.14.14.78.78,0,0,1-.22,0H298.5a.39.39,0,0,1-.23,0v-.23l5.17-9.36a.34.34,0,0,1,.11-.12.43.43,0,0,1,.17,0H305a.3.3,0,0,1,.25.07.28.28,0,0,1,0,.25Zm6.53-.73a1.78,1.78,0,0,1-.71.56,2.5,2.5,0,0,1-1,.17,2.41,2.41,0,0,1-1-.19,1.84,1.84,0,0,1-.68-.53,2.14,2.14,0,0,1-.39-.8,4.25,4.25,0,0,1,0-2,2.27,2.27,0,0,1,.39-.82,1.91,1.91,0,0,1,.68-.56,2.29,2.29,0,0,1,1-.2,2.25,2.25,0,0,1,1,.2,1.91,1.91,0,0,1,.68.56,2.36,2.36,0,0,1,.4.82,3.82,3.82,0,0,1,.13,1,3.75,3.75,0,0,1-.13,1,2.13,2.13,0,0,1-.37.82Zm-1.68-2.93a.57.57,0,0,0-.52.26,1.67,1.67,0,0,0-.17.87,1.93,1.93,0,0,0,.15.79.54.54,0,0,0,.53.34.55.55,0,0,0,.49-.26,2.34,2.34,0,0,0,0-1.74.55.55,0,0,0-.48-.23Z" transform="translate(0 -0.02)"/>
  </g>
  <path class="cls-4" d="M76.68,100.58a1.15,1.15,0,0,0-1.35,1.35h0v1.69a1.15,1.15,0,0,0,1.35,1.4H77" transform="translate(0 -0.02)"/>
  <path class="cls-4" d="M114.48,180.08a1.15,1.15,0,0,0,1.35,1.35h1.71a1.16,1.16,0,0,0,1.36-1.35" transform="translate(0 -0.02)"/>
  <path class="cls-4" d="M156.18,62.78a1.2,1.2,0,0,0-1.35-1.35h-1.71a1.2,1.2,0,0,0-1.35,1.35h4.42V63" transform="translate(0 -0.02)"/>
  <path class="cls-4" d="M118.9,62.78a1.15,1.15,0,0,0-1.35-1.35h-1.72a1.15,1.15,0,0,0-1.35,1.35" transform="translate(0 -0.02)"/>
  <path class="cls-4" d="M137.54,62.78a1.15,1.15,0,0,0-1.35-1.35h-1.72a1.15,1.15,0,0,0-1.35,1.35" transform="translate(0 -0.02)"/>
  <path class="cls-4" d="M133.12,180.08a1.2,1.2,0,0,0,1.35,1.35h1.72a1.2,1.2,0,0,0,1.35-1.35" transform="translate(0 -0.02)"/>
  <path class="cls-4" d="M76.68,128.54a1.2,1.2,0,0,0-1.35,1.35h0v1.7a1.15,1.15,0,0,0,1.35,1.35H77" transform="translate(0 -0.02)"/>
  <path class="cls-4" d="M142.44,180.08a1.2,1.2,0,0,0,1.35,1.35h1.72a1.2,1.2,0,0,0,1.35-1.35" transform="translate(0 -0.02)"/>
  <path class="cls-4" d="M151.76,180.08a1.2,1.2,0,0,0,1.35,1.35h1.72a1.2,1.2,0,0,0,1.35-1.35" transform="translate(0 -0.02)"/>
  <path class="cls-4" d="M76.68,137.86a1.15,1.15,0,0,0-1.35,1.35h0v1.71a1.15,1.15,0,0,0,1.35,1.35H77" transform="translate(0 -0.02)"/>
  <path class="cls-4" d="M76.68,119.22a1.15,1.15,0,0,0-1.35,1.35h0v1.71a1.15,1.15,0,0,0,1.35,1.35H77" transform="translate(0 -0.02)"/>
  <path class="cls-4" d="M128.22,62.78a1.15,1.15,0,0,0-1.35-1.35h-1.72a1.15,1.15,0,0,0-1.35,1.35" transform="translate(0 -0.02)"/>
  <path class="cls-4" d="M146.86,62.78a1.15,1.15,0,0,0-1.35-1.35h-1.72a1.15,1.15,0,0,0-1.35,1.35" transform="translate(0 -0.02)"/>
  <path class="cls-4" d="M123.8,180.08a1.15,1.15,0,0,0,1.35,1.35h1.72a1.15,1.15,0,0,0,1.35-1.35" transform="translate(0 -0.02)"/>
  <path class="cls-4" d="M76.68,114.31v-4.42a1.15,1.15,0,0,0-1.35,1.35V113a1.15,1.15,0,0,0,1.35,1.29Z" transform="translate(0 -0.02)"/>
  <path class="cls-5" d="M87.61,180H182.9a10.81,10.81,0,0,0,10.8-10.81V73.85A10.81,10.81,0,0,0,182.93,63H87.61A10.79,10.79,0,0,0,76.81,73.8h0v95.29A10.86,10.86,0,0,0,87.6,180Z" transform="translate(0 -0.02)"/>
  <path class="cls-6" d="M91.77,85.68a2.87,2.87,0,0,0,2.87,2.87h13.44v-15H94.64a2.87,2.87,0,0,0-2.87,2.87h0v9.27h0Z" transform="translate(0 -0.02)"/>
  <rect class="cls-6" x="85.94" y="79.92" width="4.98" height="2.21"/>
  <path class="cls-6" d="M113.73,76.41a2.87,2.87,0,0,0-2.87-2.87h-1.53v15h1.48a2.87,2.87,0,0,0,2.87-2.87h0V76.4h0Z" transform="translate(0 -0.02)"/>
  <rect class="cls-6" x="114.86" y="77.87" width="1.29" height="6.31"/>
  <path class="cls-3" d="M177.76,160.67a3.14,3.14,0,1,0-.91,2.26A3.21,3.21,0,0,0,177.76,160.67Z" transform="translate(0 -0.02)"/>
  <rect class="cls-7" x="123.13" y="96.34" width="58.74" height="50.29" rx="7" ry="7"/>
  <rect class="cls-8" x="129.5" y="121.48" width="46" height="20"/>
  <rect class="cls-8" x="129.5" y="101.48" width="46" height="20"/>
</svg>
