<svg id="레이어_1" data-name="레이어 1" xmlns="http://www.w3.org/2000/svg" width="210" height="210" viewBox="0 0 210 210"><defs><style>.cls-1,.cls-2,.cls-5,.cls-6,.cls-8,.cls-9{fill:#fff;}.cls-1{opacity:0;}.cls-2{stroke:#fff;}.cls-2,.cls-4,.cls-5,.cls-6,.cls-8,.cls-9{stroke-miterlimit:10;}.cls-2,.cls-4,.cls-5{stroke-width:1.5px;}.cls-3{opacity:0.25;}.cls-11,.cls-4{fill:none;}.cls-11,.cls-4,.cls-5,.cls-6,.cls-8,.cls-9{stroke:#26cad3;}.cls-7{fill:#26cad3;}.cls-8{stroke-width:0.8px;}.cls-11,.cls-9{stroke-linecap:round;}.cls-9{stroke-width:0.5px;}.cls-10{opacity:0.45;}.cls-11{stroke-linejoin:round;stroke-width:2px;stroke-dasharray:3 5;}</style></defs><title>helpGyroX</title><rect class="cls-1" width="210" height="210"/><path class="cls-2" d="M91.94,84.88V77.1a2.21,2.21,0,0,1,.14-1.26l0-.05a2.13,2.13,0,0,1,.11-0.22l0.05-.08,0.13-.18,0.07-.08,0.16-.16L92.71,75A2.25,2.25,0,0,1,93,74.82h0l28.76-16.61a5.58,5.58,0,0,1,2.79-.75h0a5.57,5.57,0,0,1,2.75.74l4.72,2.72L156.1,74.82a2.24,2.24,0,0,1,.28.19l0.07,0.07,0.16,0.16,0.07,0.08,0.13,0.18,0.05,0.08a2.13,2.13,0,0,1,.12.22l0,0.05a2.21,2.21,0,0,1,.14,1.26v7.78a2.23,2.23,0,0,1,0,.76v19.19a2.17,2.17,0,0,1-1.05,2.28l-28.77,16.61a5.58,5.58,0,0,1-5.58,0L93,107.12a2.17,2.17,0,0,1-1.05-2.28V85.64A2.23,2.23,0,0,1,91.94,84.88Z" transform="translate(0 -0.52)"/><g class="cls-3"><path class="cls-4" d="M91.94,84.88V77.1a2.21,2.21,0,0,1,.14-1.26l0-.05a2.13,2.13,0,0,1,.11-0.22l0.05-.08,0.13-.18,0.07-.08,0.16-.16L92.71,75A2.25,2.25,0,0,1,93,74.82h0l28.76-16.61a5.58,5.58,0,0,1,2.79-.75h0a5.57,5.57,0,0,1,2.75.74L132,60.93,156.1,74.82a2.24,2.24,0,0,1,.28.19l0.07,0.07,0.16,0.16,0.07,0.08,0.13,0.18,0.05,0.08a2.13,2.13,0,0,1,.12.22l0,0.05a2.21,2.21,0,0,1,.14,1.26v7.78a2.23,2.23,0,0,1,0,.76v19.19a2.17,2.17,0,0,1-1.05,2.28l-28.77,16.61a5.58,5.58,0,0,1-5.58,0L93,107.12a2.17,2.17,0,0,1-1.05-2.28V85.64A2.23,2.23,0,0,1,91.94,84.88Z" transform="translate(0 -0.52)"/><path class="cls-5" d="M91.94,104.84V76.71h65.21v28.13a2.17,2.17,0,0,1-1.05,2.28l-28.77,16.61a5.58,5.58,0,0,1-5.58,0L93,107.12A2.17,2.17,0,0,1,91.94,104.84Z" transform="translate(0 -0.52)"/><path class="cls-6" d="M91.94,77.1A2.17,2.17,0,0,1,93,74.82l28.76-16.61a5.58,5.58,0,0,1,5.58,0L156.1,74.82a2.17,2.17,0,0,1,1.05,2.28v7.78a2.17,2.17,0,0,1-1.05,2.28l-28.77,16.61a5.58,5.58,0,0,1-5.58,0L93,87.17a2.17,2.17,0,0,1-1.05-2.28V77.1Z" transform="translate(0 -0.52)"/><path class="cls-6" d="M154.7,88v9.62a5.89,5.89,0,0,1-2.83,4.46l-22,12.73c-1.56.9-2.83,0.36-2.83-1.2V104Z" transform="translate(0 -0.52)"/><path class="cls-6" d="M131.17,112h0a3.5,3.5,0,0,0,2-2.91v-4.83a1.32,1.32,0,0,0-2-1.18h0a3.5,3.5,0,0,0-2,2.91v4.83A1.32,1.32,0,0,0,131.17,112Z" transform="translate(0 -0.52)"/><path class="cls-6" d="M150.52,100.82h0a3.5,3.5,0,0,0,2-2.91V93.09a1.32,1.32,0,0,0-2-1.18h0a3.5,3.5,0,0,0-2,2.91v4.83A1.32,1.32,0,0,0,150.52,100.82Z" transform="translate(0 -0.52)"/><path class="cls-7" d="M136,104.17a0.45,0.45,0,0,0,.66.42,1,1,0,0,0,.66-0.9,0.45,0.45,0,0,0-.66-0.42A1,1,0,0,0,136,104.17Z" transform="translate(0 -0.52)"/><path class="cls-7" d="M138.08,102.88a0.45,0.45,0,0,0,.66.42,1,1,0,0,0,.66-0.9,0.45,0.45,0,0,0-.66-0.42A1,1,0,0,0,138.08,102.88Z" transform="translate(0 -0.52)"/><path class="cls-7" d="M140.19,101.59a0.45,0.45,0,0,0,.66.42,1,1,0,0,0,.66-0.9,0.45,0.45,0,0,0-.66-0.42A1,1,0,0,0,140.19,101.59Z" transform="translate(0 -0.52)"/><path class="cls-7" d="M142.3,100.29a0.45,0.45,0,0,0,.66.42,1,1,0,0,0,.66-0.9,0.45,0.45,0,0,0-.66-0.42A1,1,0,0,0,142.3,100.29Z" transform="translate(0 -0.52)"/><path class="cls-7" d="M144.41,99a0.45,0.45,0,0,0,.66.42,1,1,0,0,0,.66-0.9,0.45,0.45,0,0,0-.66-0.42A1,1,0,0,0,144.41,99Z" transform="translate(0 -0.52)"/><path class="cls-7" d="M138.08,105.17a0.45,0.45,0,0,0,.66.42,1,1,0,0,0,.66-0.9,0.45,0.45,0,0,0-.66-0.42A1,1,0,0,0,138.08,105.17Z" transform="translate(0 -0.52)"/><path class="cls-7" d="M140.19,103.88a0.45,0.45,0,0,0,.66.42,1,1,0,0,0,.66-0.9,0.45,0.45,0,0,0-.66-0.42A1,1,0,0,0,140.19,103.88Z" transform="translate(0 -0.52)"/><path class="cls-7" d="M142.3,102.58a0.45,0.45,0,0,0,.66.42,1,1,0,0,0,.66-0.9,0.45,0.45,0,0,0-.66-0.42A1,1,0,0,0,142.3,102.58Z" transform="translate(0 -0.52)"/><path class="cls-6" d="M94.39,88v9.62A5.89,5.89,0,0,0,97.22,102l22,12.73c1.56,0.9,2.83.36,2.83-1.2V104Z" transform="translate(0 -0.52)"/><path class="cls-6" d="M117.91,112h0a3.5,3.5,0,0,1-2-2.91v-4.83a1.32,1.32,0,0,1,2-1.18h0a3.5,3.5,0,0,1,2,2.91v4.83A1.32,1.32,0,0,1,117.91,112Z" transform="translate(0 -0.52)"/><path class="cls-6" d="M98.57,100.82h0a3.5,3.5,0,0,1-2-2.91V93.09a1.32,1.32,0,0,1,2-1.18h0a3.5,3.5,0,0,1,2,2.91v4.83A1.32,1.32,0,0,1,98.57,100.82Z" transform="translate(0 -0.52)"/><path class="cls-7" d="M113.12,104.17a0.45,0.45,0,0,1-.66.42,1,1,0,0,1-.66-0.9,0.45,0.45,0,0,1,.66-0.42A1,1,0,0,1,113.12,104.17Z" transform="translate(0 -0.52)"/><path class="cls-7" d="M111,102.88a0.45,0.45,0,0,1-.66.42,1,1,0,0,1-.66-0.9,0.45,0.45,0,0,1,.66-0.42A1,1,0,0,1,111,102.88Z" transform="translate(0 -0.52)"/><path class="cls-7" d="M108.9,101.59a0.45,0.45,0,0,1-.66.42,1,1,0,0,1-.66-0.9,0.45,0.45,0,0,1,.66-0.42A1,1,0,0,1,108.9,101.59Z" transform="translate(0 -0.52)"/><path class="cls-7" d="M106.79,100.29a0.45,0.45,0,0,1-.66.42,1,1,0,0,1-.66-0.9,0.45,0.45,0,0,1,.66-0.42A1,1,0,0,1,106.79,100.29Z" transform="translate(0 -0.52)"/><path class="cls-7" d="M104.68,99a0.45,0.45,0,0,1-.66.42,1,1,0,0,1-.66-0.9A0.45,0.45,0,0,1,104,98.1,1,1,0,0,1,104.68,99Z" transform="translate(0 -0.52)"/><path class="cls-7" d="M111,105.17a0.45,0.45,0,0,1-.66.42,1,1,0,0,1-.66-0.9,0.45,0.45,0,0,1,.66-0.42A1,1,0,0,1,111,105.17Z" transform="translate(0 -0.52)"/><path class="cls-7" d="M108.9,103.88a0.45,0.45,0,0,1-.66.42,1,1,0,0,1-.66-0.9,0.45,0.45,0,0,1,.66-0.42A1,1,0,0,1,108.9,103.88Z" transform="translate(0 -0.52)"/><path class="cls-7" d="M106.79,102.58a0.45,0.45,0,0,1-.66.42,1,1,0,0,1-.66-0.9,0.45,0.45,0,0,1,.66-0.42A1,1,0,0,1,106.79,102.58Z" transform="translate(0 -0.52)"/><path class="cls-6" d="M127.33,58.21L156.1,74.82a2.18,2.18,0,0,1,0,3.78L127.33,95.21a5.58,5.58,0,0,1-5.58,0L93,78.6a2.18,2.18,0,0,1,0-3.78l28.76-16.61A5.58,5.58,0,0,1,127.33,58.21Z" transform="translate(0 -0.52)"/><ellipse class="cls-7" cx="148.48" cy="75.88" rx="1.76" ry="0.8"/><ellipse class="cls-8" cx="106.52" cy="71.73" rx="3.83" ry="1.75"/><path class="cls-7" d="M107.29,73.32a0.05,0.05,0,0,1,0,0l0,0-0.35.25-0.07,0a0.07,0.07,0,0,1,0-.05l-0.58-1.2-1.9-.13-0.08,0a0.08,0.08,0,0,1,0-.05l0.33-.24,0,0h0.05l1.36,0.1-0.39-.8a0,0,0,0,1,0,0l0,0,0.33-.24,0.08,0a0.06,0.06,0,0,1,0,0l0.53,1.12,2,0.15,0.1,0a0.06,0.06,0,0,1,0,0l-0.35.25,0,0h-0.05l-1.47-.11Z" transform="translate(0 -0.52)"/><ellipse class="cls-8" cx="106.52" cy="79.72" rx="3.83" ry="1.75"/><path class="cls-7" d="M108.26,80.91a0.07,0.07,0,0,1,0,0,0.06,0.06,0,0,1,0,0L108,81.2l-0.06,0-0.07,0-1.08-.56-2.22-.2-0.08,0s0,0,0-.05l0.31-.23a0.16,0.16,0,0,1,.11,0l1.65,0.16-0.55-1a0,0,0,0,1,0-.07l0.33-.24a0.09,0.09,0,0,1,.08,0,0.1,0.1,0,0,1,0,.05l0.67,1.31Z" transform="translate(0 -0.52)"/><ellipse class="cls-8" cx="99.57" cy="75.72" rx="3.83" ry="1.75"/><path class="cls-7" d="M100.21,77.45a0.11,0.11,0,0,1-.13,0l-0.25-.13,0,0,0,0-0.9-1.63L98,76.27l-0.06,0-0.07,0-0.3-.15,0,0a0,0,0,0,1,0,0l1.31-1,0.06,0,0.06,0,0.28,0.15,0,0,0,0,0.86,1.64,1-.7,0.06,0,0.07,0,0.3,0.15,0,0a0,0,0,0,1,0,0Z" transform="translate(0 -0.52)"/><line class="cls-9" x1="101.9" y1="73.98" x2="103.19" y2="73.2"/><line class="cls-9" x1="102.58" y1="77.32" x2="103.93" y2="78.01"/></g><path class="cls-2" d="M72.39,96.16V88.38a2.21,2.21,0,0,1,.14-1.26l0-.05a2.13,2.13,0,0,1,.11-0.22l0.05-.08,0.13-.18,0.07-.08,0.16-.16,0.08-.07a2.25,2.25,0,0,1,.27-0.19h0l28.76-16.61a5.58,5.58,0,0,1,2.79-.75h0a5.57,5.57,0,0,1,2.75.74l4.72,2.72,24.05,13.89a2.24,2.24,0,0,1,.28.19l0.07,0.07,0.16,0.16,0.07,0.08,0.13,0.18,0.05,0.08a2.13,2.13,0,0,1,.12.22l0,0.05a2.21,2.21,0,0,1,.14,1.26v7.78a2.23,2.23,0,0,1,0,.76v19.19a2.17,2.17,0,0,1-1.05,2.28L107.79,135a5.58,5.58,0,0,1-5.58,0L73.45,118.39a2.17,2.17,0,0,1-1.05-2.28V96.92A2.23,2.23,0,0,1,72.39,96.16Z" transform="translate(0 -0.52)"/><g class="cls-10"><path class="cls-4" d="M72.39,96.16V88.38a2.21,2.21,0,0,1,.14-1.26l0-.05a2.13,2.13,0,0,1,.11-0.22l0.05-.08,0.13-.18,0.07-.08,0.16-.16,0.08-.07a2.25,2.25,0,0,1,.27-0.19h0L102.2,69.48a5.58,5.58,0,0,1,2.79-.75h0a5.57,5.57,0,0,1,2.75.74l4.72,2.72,24.05,13.89a2.24,2.24,0,0,1,.28.19l0.07,0.07,0.16,0.16,0.07,0.08,0.13,0.18,0.05,0.08a2.13,2.13,0,0,1,.12.22l0,0.05a2.21,2.21,0,0,1,.14,1.26v7.78a2.23,2.23,0,0,1,0,.76v19.19a2.17,2.17,0,0,1-1.05,2.28L107.78,135a5.58,5.58,0,0,1-5.58,0L73.44,118.39a2.17,2.17,0,0,1-1.05-2.28V96.92A2.23,2.23,0,0,1,72.39,96.16Z" transform="translate(0 -0.52)"/><path class="cls-5" d="M72.39,116.11V88H137.6v28.13a2.17,2.17,0,0,1-1.05,2.28L107.78,135a5.58,5.58,0,0,1-5.58,0L73.44,118.39A2.17,2.17,0,0,1,72.39,116.11Z" transform="translate(0 -0.52)"/><path class="cls-6" d="M72.39,88.38a2.17,2.17,0,0,1,1.05-2.28L102.2,69.48a5.58,5.58,0,0,1,5.58,0l28.77,16.61a2.17,2.17,0,0,1,1.05,2.28v7.78a2.17,2.17,0,0,1-1.05,2.28L107.78,115a5.58,5.58,0,0,1-5.58,0L73.44,98.44a2.17,2.17,0,0,1-1.05-2.28V88.38Z" transform="translate(0 -0.52)"/><path class="cls-6" d="M135.15,99.24v9.62a5.89,5.89,0,0,1-2.83,4.46l-22,12.73c-1.56.9-2.83,0.36-2.83-1.2v-9.62Z" transform="translate(0 -0.52)"/><path class="cls-6" d="M111.63,123.24h0a3.5,3.5,0,0,0,2-2.91v-4.83a1.32,1.32,0,0,0-2-1.18h0a3.5,3.5,0,0,0-2,2.91v4.83A1.32,1.32,0,0,0,111.63,123.24Z" transform="translate(0 -0.52)"/><path class="cls-6" d="M131,112.1h0a3.5,3.5,0,0,0,2-2.91v-4.83a1.32,1.32,0,0,0-2-1.18h0a3.5,3.5,0,0,0-2,2.91v4.83A1.32,1.32,0,0,0,131,112.1Z" transform="translate(0 -0.52)"/><path class="cls-7" d="M116.42,115.45a0.45,0.45,0,0,0,.66.42,1,1,0,0,0,.66-0.9,0.45,0.45,0,0,0-.66-0.42A1,1,0,0,0,116.42,115.45Z" transform="translate(0 -0.52)"/><path class="cls-7" d="M118.53,114.16a0.45,0.45,0,0,0,.66.42,1,1,0,0,0,.66-0.9,0.45,0.45,0,0,0-.66-0.42A1,1,0,0,0,118.53,114.16Z" transform="translate(0 -0.52)"/><path class="cls-7" d="M120.64,112.86a0.45,0.45,0,0,0,.66.42,1,1,0,0,0,.66-0.9,0.45,0.45,0,0,0-.66-0.42A1,1,0,0,0,120.64,112.86Z" transform="translate(0 -0.52)"/><path class="cls-7" d="M122.75,111.57a0.45,0.45,0,0,0,.66.42,1,1,0,0,0,.66-0.9,0.45,0.45,0,0,0-.66-0.42A1,1,0,0,0,122.75,111.57Z" transform="translate(0 -0.52)"/><path class="cls-7" d="M124.86,110.28a0.45,0.45,0,0,0,.66.42,1,1,0,0,0,.66-0.9,0.45,0.45,0,0,0-.66-0.42A1,1,0,0,0,124.86,110.28Z" transform="translate(0 -0.52)"/><path class="cls-7" d="M118.53,116.45a0.45,0.45,0,0,0,.66.42,1,1,0,0,0,.66-0.9,0.45,0.45,0,0,0-.66-0.42A1,1,0,0,0,118.53,116.45Z" transform="translate(0 -0.52)"/><path class="cls-7" d="M120.64,115.15a0.45,0.45,0,0,0,.66.42,1,1,0,0,0,.66-0.9,0.45,0.45,0,0,0-.66-0.42A1,1,0,0,0,120.64,115.15Z" transform="translate(0 -0.52)"/><path class="cls-7" d="M122.75,113.86a0.45,0.45,0,0,0,.66.42,1,1,0,0,0,.66-0.9,0.45,0.45,0,0,0-.66-0.42A1,1,0,0,0,122.75,113.86Z" transform="translate(0 -0.52)"/><path class="cls-6" d="M74.84,99.24v9.62a5.89,5.89,0,0,0,2.83,4.46l22,12.73c1.56,0.9,2.83.36,2.83-1.2v-9.62Z" transform="translate(0 -0.52)"/><path class="cls-6" d="M98.37,123.24h0a3.5,3.5,0,0,1-2-2.91v-4.83a1.32,1.32,0,0,1,2-1.18h0a3.5,3.5,0,0,1,2,2.91v4.83A1.32,1.32,0,0,1,98.37,123.24Z" transform="translate(0 -0.52)"/><path class="cls-6" d="M79,112.1h0a3.5,3.5,0,0,1-2-2.91v-4.83a1.32,1.32,0,0,1,2-1.18h0a3.5,3.5,0,0,1,2,2.91v4.83A1.32,1.32,0,0,1,79,112.1Z" transform="translate(0 -0.52)"/><path class="cls-7" d="M93.57,115.45a0.45,0.45,0,0,1-.66.42,1,1,0,0,1-.66-0.9,0.45,0.45,0,0,1,.66-0.42A1,1,0,0,1,93.57,115.45Z" transform="translate(0 -0.52)"/><path class="cls-7" d="M91.46,114.16a0.45,0.45,0,0,1-.66.42,1,1,0,0,1-.66-0.9,0.45,0.45,0,0,1,.66-0.42A1,1,0,0,1,91.46,114.16Z" transform="translate(0 -0.52)"/><path class="cls-7" d="M89.35,112.86a0.45,0.45,0,0,1-.66.42,1,1,0,0,1-.66-0.9,0.45,0.45,0,0,1,.66-0.42A1,1,0,0,1,89.35,112.86Z" transform="translate(0 -0.52)"/><path class="cls-7" d="M87.24,111.57a0.45,0.45,0,0,1-.66.42,1,1,0,0,1-.66-0.9,0.45,0.45,0,0,1,.66-0.42A1,1,0,0,1,87.24,111.57Z" transform="translate(0 -0.52)"/><path class="cls-7" d="M85.13,110.28a0.45,0.45,0,0,1-.66.42,1,1,0,0,1-.66-0.9,0.45,0.45,0,0,1,.66-0.42A1,1,0,0,1,85.13,110.28Z" transform="translate(0 -0.52)"/><path class="cls-7" d="M91.46,116.45a0.45,0.45,0,0,1-.66.42,1,1,0,0,1-.66-0.9,0.45,0.45,0,0,1,.66-0.42A1,1,0,0,1,91.46,116.45Z" transform="translate(0 -0.52)"/><path class="cls-7" d="M89.35,115.15a0.45,0.45,0,0,1-.66.42,1,1,0,0,1-.66-0.9,0.45,0.45,0,0,1,.66-0.42A1,1,0,0,1,89.35,115.15Z" transform="translate(0 -0.52)"/><path class="cls-7" d="M87.24,113.86a0.45,0.45,0,0,1-.66.42,1,1,0,0,1-.66-0.9,0.45,0.45,0,0,1,.66-0.42A1,1,0,0,1,87.24,113.86Z" transform="translate(0 -0.52)"/><path class="cls-6" d="M107.78,69.48l28.77,16.61a2.18,2.18,0,0,1,0,3.78l-28.77,16.61a5.58,5.58,0,0,1-5.58,0L73.44,89.88a2.18,2.18,0,0,1,0-3.78L102.2,69.48A5.58,5.58,0,0,1,107.78,69.48Z" transform="translate(0 -0.52)"/><ellipse class="cls-7" cx="128.93" cy="87.16" rx="1.76" ry="0.8"/><ellipse class="cls-8" cx="86.97" cy="83.01" rx="3.83" ry="1.75"/><path class="cls-7" d="M87.75,84.59a0.05,0.05,0,0,1,0,0l0,0-0.35.25-0.07,0a0.07,0.07,0,0,1,0-.05l-0.58-1.2-1.9-.13-0.08,0a0.08,0.08,0,0,1,0-.05l0.33-.24,0,0h0.05l1.36,0.1-0.39-.8a0,0,0,0,1,0,0l0,0,0.33-.24,0.08,0a0.06,0.06,0,0,1,0,0l0.53,1.12,2,0.15,0.1,0a0.06,0.06,0,0,1,0,0l-0.35.25,0,0H88.79l-1.47-.11Z" transform="translate(0 -0.52)"/><ellipse class="cls-8" cx="86.97" cy="90.99" rx="3.83" ry="1.75"/><path class="cls-7" d="M88.72,92.19a0.07,0.07,0,0,1,0,0,0.06,0.06,0,0,1,0,0l-0.29.21-0.06,0-0.07,0-1.08-.56L85,91.73l-0.08,0s0,0,0-.05l0.31-.23a0.16,0.16,0,0,1,.11,0l1.65,0.16-0.55-1a0,0,0,0,1,0-.07l0.33-.24a0.09,0.09,0,0,1,.08,0,0.1,0.1,0,0,1,0,.05l0.67,1.31Z" transform="translate(0 -0.52)"/><ellipse class="cls-8" cx="80.02" cy="87" rx="3.83" ry="1.75"/><path class="cls-7" d="M80.66,88.73a0.11,0.11,0,0,1-.13,0l-0.25-.13,0,0,0,0-0.9-1.63-0.88.64-0.06,0-0.07,0L78,87.4l0,0a0,0,0,0,1,0,0l1.31-1,0.06,0,0.06,0,0.28,0.15,0,0,0,0,0.86,1.64,1-.7,0.06,0,0.07,0L82,87.65l0,0a0,0,0,0,1,0,0Z" transform="translate(0 -0.52)"/><line class="cls-9" x1="82.35" y1="85.25" x2="83.65" y2="84.48"/><line class="cls-9" x1="83.04" y1="88.59" x2="84.38" y2="89.29"/></g><path class="cls-4" d="M57.53,104.69V96.91a2.21,2.21,0,0,1,.14-1.26l0-.05a2.13,2.13,0,0,1,.11-0.22l0.05-.08L58,95.13,58.07,95l0.16-.16,0.08-.07a2.25,2.25,0,0,1,.27-0.19h0L87.35,78a5.58,5.58,0,0,1,2.79-.75h0a5.57,5.57,0,0,1,2.75.74l4.72,2.72L121.7,94.63a2.24,2.24,0,0,1,.28.19l0.07,0.07L122.21,95l0.07,0.08,0.13,0.18,0.05,0.08a2.13,2.13,0,0,1,.12.22l0,0.05a2.21,2.21,0,0,1,.14,1.26v7.78a2.23,2.23,0,0,1,0,.76v19.19a2.17,2.17,0,0,1-1.05,2.28L92.93,143.53a5.58,5.58,0,0,1-5.58,0L58.59,126.93a2.17,2.17,0,0,1-1.05-2.28V105.45A2.23,2.23,0,0,1,57.53,104.69Z" transform="translate(0 -0.52)"/><path class="cls-5" d="M57.53,124.65V96.52h65.21v28.13a2.17,2.17,0,0,1-1.05,2.28L92.93,143.53a5.58,5.58,0,0,1-5.58,0L58.59,126.93A2.17,2.17,0,0,1,57.53,124.65Z" transform="translate(0 -0.52)"/><path class="cls-6" d="M57.53,96.91a2.17,2.17,0,0,1,1.05-2.28L87.35,78a5.58,5.58,0,0,1,5.58,0L121.7,94.63a2.17,2.17,0,0,1,1.05,2.28v7.78A2.17,2.17,0,0,1,121.7,107L92.93,123.58a5.58,5.58,0,0,1-5.58,0L58.59,107a2.17,2.17,0,0,1-1.05-2.28V96.91Z" transform="translate(0 -0.52)"/><path class="cls-6" d="M120.3,107.78v9.62a5.89,5.89,0,0,1-2.83,4.46l-22,12.73c-1.56.9-2.83,0.36-2.83-1.2v-9.62Z" transform="translate(0 -0.52)"/><path class="cls-6" d="M96.77,131.78h0a3.5,3.5,0,0,0,2-2.91V124a1.32,1.32,0,0,0-2-1.18h0a3.5,3.5,0,0,0-2,2.91v4.83A1.32,1.32,0,0,0,96.77,131.78Z" transform="translate(0 -0.52)"/><path class="cls-6" d="M116.12,120.63h0a3.5,3.5,0,0,0,2-2.91V112.9a1.32,1.32,0,0,0-2-1.18h0a3.5,3.5,0,0,0-2,2.91v4.83A1.32,1.32,0,0,0,116.12,120.63Z" transform="translate(0 -0.52)"/><path class="cls-7" d="M101.56,124a0.45,0.45,0,0,0,.66.42,1,1,0,0,0,.66-0.9,0.45,0.45,0,0,0-.66-0.42A1,1,0,0,0,101.56,124Z" transform="translate(0 -0.52)"/><path class="cls-7" d="M103.67,122.69a0.45,0.45,0,0,0,.66.42,1,1,0,0,0,.66-0.9,0.45,0.45,0,0,0-.66-0.42A1,1,0,0,0,103.67,122.69Z" transform="translate(0 -0.52)"/><path class="cls-7" d="M105.78,121.4a0.45,0.45,0,0,0,.66.42,1,1,0,0,0,.66-0.9,0.45,0.45,0,0,0-.66-0.42A1,1,0,0,0,105.78,121.4Z" transform="translate(0 -0.52)"/><path class="cls-7" d="M107.89,120.1a0.45,0.45,0,0,0,.66.42,1,1,0,0,0,.66-0.9,0.45,0.45,0,0,0-.66-0.42A1,1,0,0,0,107.89,120.1Z" transform="translate(0 -0.52)"/><path class="cls-7" d="M110,118.81a0.45,0.45,0,0,0,.66.42,1,1,0,0,0,.66-0.9,0.45,0.45,0,0,0-.66-0.42A1,1,0,0,0,110,118.81Z" transform="translate(0 -0.52)"/><path class="cls-7" d="M103.67,125a0.45,0.45,0,0,0,.66.42,1,1,0,0,0,.66-0.9,0.45,0.45,0,0,0-.66-0.42A1,1,0,0,0,103.67,125Z" transform="translate(0 -0.52)"/><path class="cls-7" d="M105.78,123.69a0.45,0.45,0,0,0,.66.42,1,1,0,0,0,.66-0.9,0.45,0.45,0,0,0-.66-0.42A1,1,0,0,0,105.78,123.69Z" transform="translate(0 -0.52)"/><path class="cls-7" d="M107.89,122.39a0.45,0.45,0,0,0,.66.42,1,1,0,0,0,.66-0.9,0.45,0.45,0,0,0-.66-0.42A1,1,0,0,0,107.89,122.39Z" transform="translate(0 -0.52)"/><path class="cls-6" d="M60,107.78v9.62a5.89,5.89,0,0,0,2.83,4.46l22,12.73c1.56,0.9,2.83.36,2.83-1.2v-9.62Z" transform="translate(0 -0.52)"/><path class="cls-6" d="M83.51,131.78h0a3.5,3.5,0,0,1-2-2.91V124a1.32,1.32,0,0,1,2-1.18h0a3.5,3.5,0,0,1,2,2.91v4.83A1.32,1.32,0,0,1,83.51,131.78Z" transform="translate(0 -0.52)"/><path class="cls-6" d="M64.17,120.63h0a3.5,3.5,0,0,1-2-2.91V112.9a1.32,1.32,0,0,1,2-1.18h0a3.5,3.5,0,0,1,2,2.91v4.83A1.32,1.32,0,0,1,64.17,120.63Z" transform="translate(0 -0.52)"/><path class="cls-7" d="M78.72,124a0.45,0.45,0,0,1-.66.42,1,1,0,0,1-.66-0.9,0.45,0.45,0,0,1,.66-0.42A1,1,0,0,1,78.72,124Z" transform="translate(0 -0.52)"/><path class="cls-7" d="M76.61,122.69a0.45,0.45,0,0,1-.66.42,1,1,0,0,1-.66-0.9,0.45,0.45,0,0,1,.66-0.42A1,1,0,0,1,76.61,122.69Z" transform="translate(0 -0.52)"/><path class="cls-7" d="M74.5,121.4a0.45,0.45,0,0,1-.66.42,1,1,0,0,1-.66-0.9,0.45,0.45,0,0,1,.66-0.42A1,1,0,0,1,74.5,121.4Z" transform="translate(0 -0.52)"/><path class="cls-7" d="M72.39,120.1a0.45,0.45,0,0,1-.66.42,1,1,0,0,1-.66-0.9,0.45,0.45,0,0,1,.66-0.42A1,1,0,0,1,72.39,120.1Z" transform="translate(0 -0.52)"/><path class="cls-7" d="M70.28,118.81a0.45,0.45,0,0,1-.66.42,1,1,0,0,1-.66-0.9,0.45,0.45,0,0,1,.66-0.42A1,1,0,0,1,70.28,118.81Z" transform="translate(0 -0.52)"/><path class="cls-7" d="M76.61,125a0.45,0.45,0,0,1-.66.42,1,1,0,0,1-.66-0.9,0.45,0.45,0,0,1,.66-0.42A1,1,0,0,1,76.61,125Z" transform="translate(0 -0.52)"/><path class="cls-7" d="M74.5,123.69a0.45,0.45,0,0,1-.66.42,1,1,0,0,1-.66-0.9,0.45,0.45,0,0,1,.66-0.42A1,1,0,0,1,74.5,123.69Z" transform="translate(0 -0.52)"/><path class="cls-7" d="M72.39,122.39a0.45,0.45,0,0,1-.66.42,1,1,0,0,1-.66-0.9,0.45,0.45,0,0,1,.66-0.42A1,1,0,0,1,72.39,122.39Z" transform="translate(0 -0.52)"/><path class="cls-6" d="M92.93,78L121.7,94.63a2.18,2.18,0,0,1,0,3.78L92.93,115a5.58,5.58,0,0,1-5.58,0L58.59,98.41a2.18,2.18,0,0,1,0-3.78L87.35,78A5.58,5.58,0,0,1,92.93,78Z" transform="translate(0 -0.52)"/><ellipse class="cls-7" cx="114.08" cy="95.69" rx="1.76" ry="0.8"/><ellipse class="cls-8" cx="72.11" cy="91.54" rx="3.83" ry="1.75"/><path class="cls-7" d="M72.89,93.13a0.05,0.05,0,0,1,0,0l0,0-0.35.25-0.07,0a0.07,0.07,0,0,1,0-.05l-0.58-1.2-1.9-.13-0.08,0a0.08,0.08,0,0,1,0-.05l0.33-.24,0,0h0.05l1.36,0.1L71.29,91a0,0,0,0,1,0,0l0,0,0.33-.24,0.08,0a0.06,0.06,0,0,1,0,0l0.53,1.12,2,0.15,0.1,0a0.06,0.06,0,0,1,0,0L74,92.35l0,0H73.93l-1.47-.11Z" transform="translate(0 -0.52)"/><ellipse class="cls-8" cx="72.11" cy="99.53" rx="3.83" ry="1.75"/><path class="cls-7" d="M73.86,100.72a0.07,0.07,0,0,1,0,0,0.06,0.06,0,0,1,0,0l-0.29.21-0.06,0-0.07,0-1.08-.56-2.22-.2-0.08,0s0,0,0-.05l0.31-.23a0.16,0.16,0,0,1,.11,0l1.65,0.16-0.55-1a0,0,0,0,1,0-.07L72,98.83a0.09,0.09,0,0,1,.08,0,0.1,0.1,0,0,1,0,.05l0.67,1.31Z" transform="translate(0 -0.52)"/><ellipse class="cls-8" cx="65.17" cy="95.54" rx="3.83" ry="1.75"/><path class="cls-7" d="M65.81,97.26a0.11,0.11,0,0,1-.13,0l-0.25-.13,0,0,0,0-0.9-1.63-0.88.64-0.06,0-0.07,0-0.3-.15,0,0a0,0,0,0,1,0,0l1.31-1,0.06,0,0.06,0L64.88,95l0,0,0,0,0.86,1.64,1-.7,0.06,0,0.07,0,0.3,0.15,0,0a0,0,0,0,1,0,0Z" transform="translate(0 -0.52)"/><line class="cls-9" x1="67.5" y1="93.79" x2="68.79" y2="93.01"/><line class="cls-9" x1="68.18" y1="97.13" x2="69.53" y2="97.82"/><path class="cls-11" d="M69.7,124.44L41.89,140.5l-0.12.06" transform="translate(0 -0.52)"/><path class="cls-7" d="M33.48,146.07l-2.85,6.05a1.07,1.07,0,0,1-.13.21,0.75,0.75,0,0,1-.16.12l-1.9,1.1a0.37,0.37,0,0,1-.29.1,0.64,0.64,0,0,1,.13-0.41l3.92-8.35-3.74-3.5a0.21,0.21,0,0,1-.09-0.25,0.92,0.92,0,0,1,.33-0.27l1.79-1a0.62,0.62,0,0,1,.21-0.09,0.17,0.17,0,0,1,.13.05l2.65,2.55,2.65-5.62a0.86,0.86,0,0,1,.13-0.21,0.93,0.93,0,0,1,.21-0.15l1.79-1a0.49,0.49,0,0,1,.33-0.12,0.44,0.44,0,0,1-.09.35l-3.74,7.82,3.92,3.82a0.24,0.24,0,0,1,.13.26,0.75,0.75,0,0,1-.29.24l-1.9,1.1a0.48,0.48,0,0,1-.16.07,0.21,0.21,0,0,1-.13-0.06Z" transform="translate(0 -0.52)"/></svg>