<svg id="레이어_1" data-name="레이어 1" xmlns="http://www.w3.org/2000/svg" width="192" height="192" viewBox="0 0 192 192"><defs><style>.cls-1,.cls-4,.cls-5,.cls-7{fill:#fff;}.cls-1{opacity:0;}.cls-2{fill:#f1f1f1;}.cls-3{fill:none;}.cls-3,.cls-4,.cls-5{stroke:#26cad3;stroke-miterlimit:10;}.cls-3,.cls-4{stroke-width:1.5px;}.cls-6{fill:#26cad3;}</style></defs><title>drawing</title><rect class="cls-1" width="192" height="192"/><path class="cls-2" d="M92.35,98.68l-43,24.85a3.27,3.27,0,0,0,0,5.66l43,24.85a8.35,8.35,0,0,0,8.35,0l43-24.84a3.27,3.27,0,0,0,0-5.66l-43-24.85A8.35,8.35,0,0,0,92.35,98.68Z" transform="translate(-0.51 -1.56)"/><path class="cls-3" d="M136.67,94.34V84.76a2.72,2.72,0,0,0-.17-1.55l0-.07a2.63,2.63,0,0,0-.14-0.27l-0.06-.1-0.16-.22-0.09-.1-0.2-.19-0.09-.08a2.77,2.77,0,0,0-.34-0.23h0L100,61.49a6.87,6.87,0,0,0-3.44-.92H96.46a6.86,6.86,0,0,0-3.38.92l-5.81,3.35L57.66,81.94a2.76,2.76,0,0,0-.34.24l-0.09.08-0.2.19-0.09.1-0.16.22-0.06.1a2.63,2.63,0,0,0-.14.27l0,0.07a2.72,2.72,0,0,0-.17,1.55v9.58a2.75,2.75,0,0,0,0,.93V118.9a2.67,2.67,0,0,0,1.3,2.81l35.42,20.45a6.87,6.87,0,0,0,6.87,0l35.42-20.45a2.67,2.67,0,0,0,1.3-2.81V95.28A2.75,2.75,0,0,0,136.67,94.34Z" transform="translate(-0.51 -1.56)"/><path class="cls-4" d="M136.67,118.91V84.27H56.36V118.9a2.67,2.67,0,0,0,1.3,2.81l35.42,20.45a6.87,6.87,0,0,0,6.87,0l35.42-20.45A2.67,2.67,0,0,0,136.67,118.91Z" transform="translate(-0.51 -1.56)"/><path class="cls-5" d="M136.67,84.76a2.67,2.67,0,0,0-1.3-2.81L100,61.49a6.87,6.87,0,0,0-6.87,0L57.66,81.94a2.67,2.67,0,0,0-1.3,2.81v9.58a2.67,2.67,0,0,0,1.3,2.81L93.08,117.6a6.87,6.87,0,0,0,6.87,0l35.42-20.45a2.67,2.67,0,0,0,1.3-2.81V84.76Z" transform="translate(-0.51 -1.56)"/><path class="cls-5" d="M59.38,98.14V110a7.25,7.25,0,0,0,3.48,5.5L90,131.15c1.92,1.11,3.48.44,3.48-1.47V117.83Z" transform="translate(-0.51 -1.56)"/><path class="cls-5" d="M88.35,127.69h0a4.31,4.31,0,0,1-2.52-3.58v-5.94c0-1.38,1.13-2,2.52-1.45h0a4.31,4.31,0,0,1,2.52,3.58v5.94C90.87,127.62,89.73,128.27,88.35,127.69Z" transform="translate(-0.51 -1.56)"/><path class="cls-5" d="M64.53,114h0A4.31,4.31,0,0,1,62,110.39v-5.94c0-1.38,1.13-2,2.52-1.45h0A4.31,4.31,0,0,1,67,106.57v5.94C67,113.9,65.91,114.55,64.53,114Z" transform="translate(-0.51 -1.56)"/><path class="cls-6" d="M82.45,118.09a0.55,0.55,0,0,1-.81.52,1.29,1.29,0,0,1-.81-1.11,0.55,0.55,0,0,1,.81-0.52A1.29,1.29,0,0,1,82.45,118.09Z" transform="translate(-0.51 -1.56)"/><path class="cls-6" d="M79.85,116.5A0.55,0.55,0,0,1,79,117a1.29,1.29,0,0,1-.81-1.11,0.55,0.55,0,0,1,.81-0.52A1.29,1.29,0,0,1,79.85,116.5Z" transform="translate(-0.51 -1.56)"/><path class="cls-6" d="M77.25,114.91a0.55,0.55,0,0,1-.81.52,1.29,1.29,0,0,1-.81-1.11,0.55,0.55,0,0,1,.81-0.52A1.29,1.29,0,0,1,77.25,114.91Z" transform="translate(-0.51 -1.56)"/><path class="cls-6" d="M74.65,113.31a0.55,0.55,0,0,1-.81.52,1.29,1.29,0,0,1-.81-1.11,0.55,0.55,0,0,1,.81-0.52A1.29,1.29,0,0,1,74.65,113.31Z" transform="translate(-0.51 -1.56)"/><path class="cls-6" d="M72.06,111.72a0.55,0.55,0,0,1-.81.52,1.29,1.29,0,0,1-.81-1.11,0.55,0.55,0,0,1,.81-0.52A1.29,1.29,0,0,1,72.06,111.72Z" transform="translate(-0.51 -1.56)"/><path class="cls-6" d="M79.85,119.32a0.55,0.55,0,0,1-.81.52,1.29,1.29,0,0,1-.81-1.11,0.55,0.55,0,0,1,.81-0.52A1.29,1.29,0,0,1,79.85,119.32Z" transform="translate(-0.51 -1.56)"/><path class="cls-6" d="M77.25,117.73a0.55,0.55,0,0,1-.81.52,1.29,1.29,0,0,1-.81-1.11,0.55,0.55,0,0,1,.81-0.52A1.29,1.29,0,0,1,77.25,117.73Z" transform="translate(-0.51 -1.56)"/><path class="cls-6" d="M74.65,116.14a0.55,0.55,0,0,1-.81.52,1.29,1.29,0,0,1-.81-1.11,0.55,0.55,0,0,1,.81-0.52A1.29,1.29,0,0,1,74.65,116.14Z" transform="translate(-0.51 -1.56)"/><path class="cls-5" d="M133.65,98.14V110a7.25,7.25,0,0,1-3.48,5.5L103,131.15c-1.92,1.11-3.48.44-3.48-1.47V117.83Z" transform="translate(-0.51 -1.56)"/><path class="cls-5" d="M104.68,127.69h0a4.31,4.31,0,0,0,2.52-3.58v-5.94c0-1.38-1.13-2-2.52-1.45h0a4.31,4.31,0,0,0-2.52,3.58v5.94C102.16,127.62,103.29,128.27,104.68,127.69Z" transform="translate(-0.51 -1.56)"/><path class="cls-5" d="M128.5,114h0a4.31,4.31,0,0,0,2.52-3.58v-5.94c0-1.38-1.13-2-2.52-1.45h0a4.31,4.31,0,0,0-2.52,3.58v5.94C126,113.9,127.12,114.55,128.5,114Z" transform="translate(-0.51 -1.56)"/><path class="cls-6" d="M110.58,118.09a0.55,0.55,0,0,0,.81.52,1.29,1.29,0,0,0,.81-1.11,0.55,0.55,0,0,0-.81-0.52A1.29,1.29,0,0,0,110.58,118.09Z" transform="translate(-0.51 -1.56)"/><path class="cls-6" d="M113.18,116.5a0.55,0.55,0,0,0,.81.52,1.29,1.29,0,0,0,.81-1.11,0.55,0.55,0,0,0-.81-0.52A1.29,1.29,0,0,0,113.18,116.5Z" transform="translate(-0.51 -1.56)"/><path class="cls-6" d="M115.78,114.91a0.55,0.55,0,0,0,.81.52,1.29,1.29,0,0,0,.81-1.11,0.55,0.55,0,0,0-.81-0.52A1.29,1.29,0,0,0,115.78,114.91Z" transform="translate(-0.51 -1.56)"/><path class="cls-6" d="M118.37,113.31a0.55,0.55,0,0,0,.81.52,1.29,1.29,0,0,0,.81-1.11,0.55,0.55,0,0,0-.81-0.52A1.29,1.29,0,0,0,118.37,113.31Z" transform="translate(-0.51 -1.56)"/><path class="cls-6" d="M121,111.72a0.55,0.55,0,0,0,.81.52,1.29,1.29,0,0,0,.81-1.11,0.55,0.55,0,0,0-.81-0.52A1.29,1.29,0,0,0,121,111.72Z" transform="translate(-0.51 -1.56)"/><path class="cls-6" d="M113.18,119.32a0.55,0.55,0,0,0,.81.52,1.29,1.29,0,0,0,.81-1.11,0.55,0.55,0,0,0-.81-0.52A1.29,1.29,0,0,0,113.18,119.32Z" transform="translate(-0.51 -1.56)"/><path class="cls-6" d="M115.78,117.73a0.55,0.55,0,0,0,.81.52,1.29,1.29,0,0,0,.81-1.11,0.55,0.55,0,0,0-.81-0.52A1.29,1.29,0,0,0,115.78,117.73Z" transform="translate(-0.51 -1.56)"/><path class="cls-6" d="M118.37,116.14a0.55,0.55,0,0,0,.81.52,1.29,1.29,0,0,0,.81-1.11,0.55,0.55,0,0,0-.81-0.52A1.29,1.29,0,0,0,118.37,116.14Z" transform="translate(-0.51 -1.56)"/><path class="cls-5" d="M93.08,61.49L57.66,81.94a2.69,2.69,0,0,0,0,4.66l35.42,20.45a6.87,6.87,0,0,0,6.87,0L135.37,86.6a2.69,2.69,0,0,0,0-4.66L100,61.49A6.87,6.87,0,0,0,93.08,61.49Z" transform="translate(-0.51 -1.56)"/><polygon class="cls-6" points="120.64 78.49 96 64.26 64.06 82.7 64.06 82.71 88.7 96.93 120.64 78.49"/><polygon class="cls-7" points="103.58 86.17 103.58 86.17 101.55 87.34 99.52 86.17 99.52 86.17 101.55 85 103.58 86.17"/><polygon class="cls-7" points="99.52 86.17 99.52 86.17 97.48 87.34 95.45 86.17 95.45 86.17 97.48 85 99.52 86.17"/><polygon class="cls-7" points="95.45 86.17 95.45 86.17 93.42 87.34 91.38 86.17 91.38 86.17 93.42 85 95.45 86.17"/><polygon class="cls-7" points="91.38 86.17 91.38 86.17 89.35 87.34 87.31 86.17 87.31 86.17 89.35 85 91.38 86.17"/><polygon class="cls-7" points="87.31 86.17 87.31 86.17 85.28 87.34 83.25 86.17 83.25 86.17 85.28 85 87.31 86.17"/><polygon class="cls-7" points="83.25 86.17 83.25 86.17 81.21 87.34 79.18 86.17 79.18 86.17 81.21 85 83.25 86.17"/><polygon class="cls-7" points="81.21 85 81.21 85 79.18 86.17 77.14 85 77.14 85 79.18 83.82 81.21 85"/><polygon class="cls-7" points="103.58 83.82 103.58 83.82 101.55 85 99.52 83.82 99.52 83.82 101.55 82.65 103.58 83.82"/><polygon class="cls-7" points="79.18 83.82 79.18 83.82 77.14 85 75.11 83.82 75.11 83.82 77.14 82.65 79.18 83.82"/><polygon class="cls-7" points="103.58 81.47 103.58 81.47 101.55 82.65 99.52 81.47 99.52 81.47 101.55 80.3 103.58 81.47"/><polygon class="cls-7" points="79.18 81.47 79.18 81.47 77.14 82.65 75.11 81.47 75.11 81.47 77.14 80.3 79.18 81.47"/><polygon class="cls-7" points="103.58 79.12 103.58 79.12 101.55 80.3 99.52 79.12 99.52 79.12 101.55 77.95 103.58 79.12"/><polygon class="cls-7" points="79.18 79.12 79.18 79.12 77.14 80.3 75.11 79.12 75.11 79.12 77.14 77.95 79.18 79.12"/><polygon class="cls-7" points="89.35 77.95 89.35 77.95 87.31 79.12 85.28 77.95 85.28 77.95 87.31 76.78 89.35 77.95"/><polygon class="cls-7" points="85.28 77.95 85.28 77.95 83.25 79.12 81.21 77.95 81.21 77.95 83.25 76.78 85.28 77.95"/><polygon class="cls-7" points="81.21 77.95 81.21 77.95 79.18 79.12 77.14 77.95 77.14 77.95 79.18 76.78 81.21 77.95"/><polygon class="cls-7" points="103.58 76.77 103.58 76.78 101.55 77.95 99.52 76.78 99.52 76.77 101.55 75.6 103.58 76.77"/><polygon class="cls-7" points="89.35 75.6 89.35 75.6 87.31 76.78 85.28 75.6 85.28 75.6 87.31 74.43 89.35 75.6"/><polygon class="cls-7" points="103.58 74.42 103.58 74.43 101.55 75.6 99.52 74.43 99.52 74.42 101.55 73.25 103.58 74.42"/><polygon class="cls-7" points="101.55 73.25 101.55 73.25 99.52 74.43 97.48 73.25 97.48 73.25 99.52 72.08 101.55 73.25"/><polygon class="cls-7" points="89.35 73.25 89.35 73.25 87.31 74.43 85.28 73.25 85.28 73.25 87.31 72.08 89.35 73.25"/><polygon class="cls-7" points="99.52 72.08 99.52 72.08 97.48 73.25 95.45 72.08 95.45 72.08 97.48 70.9 99.52 72.08"/><polygon class="cls-7" points="95.45 72.08 95.45 72.08 93.42 73.25 91.38 72.08 91.38 72.08 93.42 70.9 95.45 72.08"/><polygon class="cls-7" points="91.38 72.08 91.38 72.08 89.35 73.25 87.31 72.08 87.31 72.08 89.35 70.9 91.38 72.08"/></svg>