<svg id="레이어_1" data-name="레이어 1" xmlns="http://www.w3.org/2000/svg" width="112" height="20" viewBox="0 0 112 20"><defs><style>.cls-1{fill:none;stroke:#26cad3;stroke-miterlimit:10;stroke-width:2px;}.cls-2{fill:#26cad3;}</style></defs><title>motorHelpClick</title><rect class="cls-1" x="1" y="1" width="110" height="18" rx="9" ry="9"/><path class="cls-2" d="M25.54,14.06a5.54,5.54,0,0,1-.82.2,6.56,6.56,0,0,1-1.12.08A5.07,5.07,0,0,1,21.7,14a4.19,4.19,0,0,1-1.47-1,4.45,4.45,0,0,1-1-1.51,5.39,5.39,0,0,1-.34-2,5.32,5.32,0,0,1,.34-1.94,4.45,4.45,0,0,1,1-1.51,4.24,4.24,0,0,1,1.47-1,5,5,0,0,1,1.89-.35,8,8,0,0,1,1,.07,5.77,5.77,0,0,1,.94.2,0.21,0.21,0,0,1,.17.14c0,0.06,0,.12,0,0.2l0,1a0.2,0.2,0,0,1-.1.23,0.68,0.68,0,0,1-.31,0,6.54,6.54,0,0,0-1-.21,7,7,0,0,0-.88-0.05,3,3,0,0,0-1.21.23,2.52,2.52,0,0,0-.91.66,3,3,0,0,0-.57,1,4,4,0,0,0-.2,1.3,3.65,3.65,0,0,0,.22,1.28,3.1,3.1,0,0,0,.6,1,3,3,0,0,0,.91.68,3.27,3.27,0,0,0,1.15.32,3.73,3.73,0,0,0,1.1,0,6.1,6.1,0,0,0,.86-0.22,0.27,0.27,0,0,1,.2,0,0.2,0.2,0,0,1,.06.15l0.06,1.08a0.23,0.23,0,0,1,0,.18A0.54,0.54,0,0,1,25.54,14.06Z" transform="translate(-1.01 0.33)"/><path class="cls-2" d="M27.27,14.17a0.19,0.19,0,0,1-.15,0,0.3,0.3,0,0,1,0-.19V4.56a0.35,0.35,0,0,1,0-.19,0.19,0.19,0,0,1,.16,0h1.19a0.22,0.22,0,0,1,.16,0,0.31,0.31,0,0,1,0,.19v9.37a0.31,0.31,0,0,1,0,.19,0.21,0.21,0,0,1-.16,0H27.27Z" transform="translate(-1.01 0.33)"/><path class="cls-2" d="M30.75,6.43a0.87,0.87,0,0,1-.66-0.28,0.93,0.93,0,0,1-.26-0.67,1,1,0,0,1,.26-0.68,0.86,0.86,0,0,1,.67-0.28,0.88,0.88,0,0,1,.67.28,1,1,0,0,1,.26.68,0.94,0.94,0,0,1-.26.67A0.89,0.89,0,0,1,30.75,6.43Zm-0.61,7.75a0.2,0.2,0,0,1-.15,0,0.31,0.31,0,0,1,0-.19V7.69a0.35,0.35,0,0,1,0-.19,0.19,0.19,0,0,1,.16,0h1.19a0.22,0.22,0,0,1,.16,0,0.31,0.31,0,0,1,0,.19v6.25a0.31,0.31,0,0,1,0,.19,0.22,0.22,0,0,1-.16,0H30.13Z" transform="translate(-1.01 0.33)"/><path class="cls-2" d="M37.53,14.14a1.91,1.91,0,0,1-.33.11l-0.43.08-0.49,0a3.83,3.83,0,0,1-.48,0A3.65,3.65,0,0,1,34.46,14a3,3,0,0,1-1-.75,3.14,3.14,0,0,1-.6-1.09,4.33,4.33,0,0,1-.2-1.36,4.05,4.05,0,0,1,.24-1.42,3.27,3.27,0,0,1,.68-1.12,3,3,0,0,1,1.06-.73A3.53,3.53,0,0,1,36,7.28a6.82,6.82,0,0,1,.76,0,3.69,3.69,0,0,1,.76.17,0.2,0.2,0,0,1,.13.08,0.49,0.49,0,0,1,0,.18l-0.12.92a0.34,0.34,0,0,1-.08.19,0.27,0.27,0,0,1-.23,0,2.61,2.61,0,0,0-.61-0.14,4,4,0,0,0-.64,0,1.6,1.6,0,0,0-1.28.59,2.37,2.37,0,0,0-.45,1.51,2.31,2.31,0,0,0,.43,1.45,1.66,1.66,0,0,0,1.19.64,2.85,2.85,0,0,0,.76,0,3.18,3.18,0,0,0,.67-0.14,0.37,0.37,0,0,1,.23,0,0.24,0.24,0,0,1,.05.16l0.07,0.92a0.39,0.39,0,0,1,0,.2A0.35,0.35,0,0,1,37.53,14.14Z" transform="translate(-1.01 0.33)"/><path class="cls-2" d="M42.88,14.18a0.59,0.59,0,0,1-.23,0A0.39,0.39,0,0,1,42.52,14L40.86,11.4,40.38,12v2a0.25,0.25,0,0,1-.05.19,0.28,0.28,0,0,1-.19,0H39a0.25,0.25,0,0,1-.18,0,0.28,0.28,0,0,1,0-.19V4.56A0.21,0.21,0,0,1,39,4.32h1.1a0.21,0.21,0,0,1,.24.24V9.79l1.87-2.27a0.27,0.27,0,0,1,.26-0.12h1.18a0.23,0.23,0,0,1,.23.08,0.41,0.41,0,0,1-.15.3l-2,2.48,2.3,3.6a0.35,0.35,0,0,1,.09.23,0.21,0.21,0,0,1-.22.08H42.88Z" transform="translate(-1.01 0.33)"/><path class="cls-2" d="M49.13,14.84A0.26,0.26,0,0,1,49,15a0.4,0.4,0,0,1-.16,0H47.63a0.31,0.31,0,0,1-.2-0.05,0.17,0.17,0,0,1,0-.2L50.52,5a0.19,0.19,0,0,1,.19-0.13H52q0.28,0,.2.24Z" transform="translate(-1.01 0.33)"/><path class="cls-2" d="M62,13.67a3.13,3.13,0,0,1-1,.53,4.24,4.24,0,0,1-2.38,0,2.94,2.94,0,0,1-1-.54,2.84,2.84,0,0,1-.91-1.21,4.41,4.41,0,0,1-.28-1.63V5.21a0.38,0.38,0,0,1,0-.19,0.21,0.21,0,0,1,.2-0.08h1.15a0.21,0.21,0,0,1,.24.24V11a2.06,2.06,0,0,0,.45,1.4,1.61,1.61,0,0,0,1.29.52,1.63,1.63,0,0,0,1.3-.51A2.08,2.08,0,0,0,61.54,11V5.18a0.21,0.21,0,0,1,.24-0.24h1.15a0.21,0.21,0,0,1,.2.08,0.38,0.38,0,0,1,0,.19v5.63a4.37,4.37,0,0,1-.29,1.63A2.92,2.92,0,0,1,62,13.67Z" transform="translate(-1.01 0.33)"/><path class="cls-2" d="M66.64,13.94a0.28,0.28,0,0,1,0,.19,0.26,0.26,0,0,1-.18,0H65.29a0.24,0.24,0,0,1-.19-0.06,0.3,0.3,0,0,1,0-.19V9.24c0-.3,0-0.61,0-0.92a4.87,4.87,0,0,0,0-.71,0.17,0.17,0,0,1,0-.17,0.41,0.41,0,0,1,.22,0h1.14a0.36,0.36,0,0,1,.17,0,0.16,0.16,0,0,1,0,.13V8a2.71,2.71,0,0,1,.65-0.49,1.68,1.68,0,0,1,.82-0.22A2.14,2.14,0,0,1,69.85,8a3.09,3.09,0,0,1,.56,2v4a0.29,0.29,0,0,1,0,.19,0.26,0.26,0,0,1-.18,0H69.06a0.22,0.22,0,0,1-.24-0.25V10.22q0-1.45-.87-1.45a1.21,1.21,0,0,0-1,.4,1.58,1.58,0,0,0-.35,1.08v3.7Z" transform="translate(-1.01 0.33)"/><path class="cls-2" d="M76.79,14.14a1.9,1.9,0,0,1-.33.11L76,14.32l-0.49,0a3.84,3.84,0,0,1-.48,0A3.66,3.66,0,0,1,73.72,14a3,3,0,0,1-1-.75,3.15,3.15,0,0,1-.6-1.09,4.35,4.35,0,0,1-.2-1.36,4.06,4.06,0,0,1,.24-1.42,3.26,3.26,0,0,1,.68-1.12,3,3,0,0,1,1.06-.73,3.53,3.53,0,0,1,1.37-.26,6.81,6.81,0,0,1,.76,0,3.69,3.69,0,0,1,.76.17,0.2,0.2,0,0,1,.13.08,0.49,0.49,0,0,1,0,.18l-0.12.92a0.33,0.33,0,0,1-.08.19,0.27,0.27,0,0,1-.23,0,2.61,2.61,0,0,0-.61-0.14,4,4,0,0,0-.64,0A1.6,1.6,0,0,0,74,9.29a2.37,2.37,0,0,0-.45,1.51A2.31,2.31,0,0,0,74,12.25a1.66,1.66,0,0,0,1.19.64,2.86,2.86,0,0,0,.76,0,3.18,3.18,0,0,0,.67-0.14,0.36,0.36,0,0,1,.23,0,0.23,0.23,0,0,1,.05.16l0.07,0.92a0.38,0.38,0,0,1,0,.2A0.35,0.35,0,0,1,76.79,14.14Z" transform="translate(-1.01 0.33)"/><path class="cls-2" d="M78.14,14.17a0.19,0.19,0,0,1-.15,0,0.31,0.31,0,0,1,0-.19V4.56a0.36,0.36,0,0,1,0-.19,0.19,0.19,0,0,1,.16,0h1.19a0.21,0.21,0,0,1,.16,0,0.31,0.31,0,0,1,0,.19v9.37a0.3,0.3,0,0,1,0,.19,0.21,0.21,0,0,1-.16,0H78.14Z" transform="translate(-1.01 0.33)"/><path class="cls-2" d="M81.63,6.43A0.87,0.87,0,0,1,81,6.15a0.94,0.94,0,0,1-.26-0.67A1,1,0,0,1,81,4.81a0.86,0.86,0,0,1,.67-0.28,0.88,0.88,0,0,1,.67.28,1,1,0,0,1,.26.68,0.94,0.94,0,0,1-.26.67A0.89,0.89,0,0,1,81.63,6.43ZM81,14.18a0.19,0.19,0,0,1-.15,0,0.3,0.3,0,0,1,0-.19V7.69a0.35,0.35,0,0,1,0-.19,0.19,0.19,0,0,1,.16,0H82.2a0.22,0.22,0,0,1,.16,0,0.32,0.32,0,0,1,0,.19v6.25a0.32,0.32,0,0,1,0,.19,0.22,0.22,0,0,1-.16,0H81Z" transform="translate(-1.01 0.33)"/><path class="cls-2" d="M88.4,14.14a1.87,1.87,0,0,1-.33.11l-0.43.08-0.49,0a3.81,3.81,0,0,1-.48,0A3.66,3.66,0,0,1,85.34,14a3.05,3.05,0,0,1-1-.75,3.14,3.14,0,0,1-.6-1.09,4.35,4.35,0,0,1-.2-1.36,4,4,0,0,1,.24-1.42,3.27,3.27,0,0,1,.68-1.12,3,3,0,0,1,1.06-.73,3.53,3.53,0,0,1,1.37-.26,6.81,6.81,0,0,1,.76,0,3.69,3.69,0,0,1,.76.17,0.2,0.2,0,0,1,.13.08,0.49,0.49,0,0,1,0,.18l-0.12.92a0.35,0.35,0,0,1-.08.19,0.27,0.27,0,0,1-.23,0,2.61,2.61,0,0,0-.61-0.14,4,4,0,0,0-.64,0,1.6,1.6,0,0,0-1.28.59,2.37,2.37,0,0,0-.45,1.51,2.31,2.31,0,0,0,.43,1.45,1.67,1.67,0,0,0,1.19.64,2.86,2.86,0,0,0,.76,0,3.18,3.18,0,0,0,.67-0.14,0.36,0.36,0,0,1,.23,0,0.23,0.23,0,0,1,.05.16l0.07,0.92a0.39,0.39,0,0,1,0,.2A0.35,0.35,0,0,1,88.4,14.14Z" transform="translate(-1.01 0.33)"/><path class="cls-2" d="M93.76,14.18a0.59,0.59,0,0,1-.23,0A0.39,0.39,0,0,1,93.4,14L91.74,11.4,91.26,12v2a0.25,0.25,0,0,1-.05.19,0.28,0.28,0,0,1-.19,0h-1.1a0.25,0.25,0,0,1-.18,0,0.28,0.28,0,0,1,0-.19V4.56a0.21,0.21,0,0,1,.23-0.24H91a0.21,0.21,0,0,1,.24.24V9.79l1.87-2.27a0.35,0.35,0,0,1,.11-0.1,0.36,0.36,0,0,1,.16,0h1.18a0.23,0.23,0,0,1,.23.08,0.41,0.41,0,0,1-.15.3l-2,2.48,2.3,3.6a0.35,0.35,0,0,1,.09.23,0.21,0.21,0,0,1-.22.08H93.76Z" transform="translate(-1.01 0.33)"/></svg>