<svg id="레이어_1" data-name="레이어 1" xmlns="http://www.w3.org/2000/svg" width="210" height="210" viewBox="0 0 210 210">
  <defs>
    <style>
      .cls-1, .cls-2, .cls-4, .cls-5, .cls-9 {
        fill: #fff;
      }

      .cls-1 {
        fill-opacity: 0;
      }

      .cls-10, .cls-3, .cls-7 {
        fill: none;
      }

      .cls-10, .cls-3, .cls-4, .cls-5, .cls-7, .cls-8, .cls-9 {
        stroke: #26cad3;
      }

      .cls-10, .cls-3, .cls-4, .cls-5, .cls-8, .cls-9 {
        stroke-miterlimit: 10;
      }

      .cls-3, .cls-4, .cls-8 {
        stroke-width: 1.5px;
      }

      .cls-6, .cls-8 {
        fill: #26cad3;
      }

      .cls-10, .cls-7 {
        stroke-linecap: round;
      }

      .cls-7 {
        stroke-linejoin: round;
        stroke-width: 2px;
        stroke-dasharray: 3 5;
      }

      .cls-9 {
        stroke-width: 0.8px;
      }

      .cls-10 {
        stroke-width: 0.5px;
      }
    </style>
  </defs>
  <title>helpGyroRoll</title>
  <rect class="cls-1" width="210" height="210"/>
  <path class="cls-2" d="M58.63,82.57c-4.48,4.81-7.11,11.67-7.11,20.1,0,22,17.81,46.27,39.79,54.27,10.69,3.89,20.38,3.2,27.53-1.06-7.19,7.71-19.14,10.13-32.68,5.2-22-8-39.79-32.3-39.79-54.27C46.37,95.54,51.08,87.07,58.63,82.57Z"/>
  <path class="cls-3" d="M70.87,101.2V92.68A2.42,2.42,0,0,1,71,91.3V91.24A2.34,2.34,0,0,1,71.18,91l0.06-.09,0.14-.19,0.08-.09,0.18-.17,0.08-.07a2.46,2.46,0,0,1,.3-0.21h0L103.53,72a6.11,6.11,0,0,1,3.06-.82h0a6.1,6.1,0,0,1,3,.82l5.17,3,26.35,15.21a2.46,2.46,0,0,1,.31.21l0.08,0.07,0.18,0.17,0.08,0.09,0.14,0.19L142,91a2.34,2.34,0,0,1,.13.24V91.3a2.42,2.42,0,0,1,.15,1.38v8.53a2.44,2.44,0,0,1,0,.83v21a2.38,2.38,0,0,1-1.15,2.5l-31.51,18.19a6.11,6.11,0,0,1-6.11,0L72,125.56a2.38,2.38,0,0,1-1.15-2.5V102A2.44,2.44,0,0,1,70.87,101.2Z"/>
  <path class="cls-4" d="M70.87,123.06V92.24h71.44V123a2.38,2.38,0,0,1-1.15,2.5l-31.51,18.19a6.11,6.11,0,0,1-6.11,0L72,125.56A2.38,2.38,0,0,1,70.87,123.06Z"/>
  <path class="cls-5" d="M70.87,92.68A2.38,2.38,0,0,1,72,90.18L103.53,72a6.11,6.11,0,0,1,6.11,0l31.51,18.19a2.38,2.38,0,0,1,1.15,2.5v8.53a2.38,2.38,0,0,1-1.15,2.5l-31.51,18.19a6.11,6.11,0,0,1-6.11,0L72,103.7a2.38,2.38,0,0,1-1.15-2.5V92.68h0Z"/>
  <path class="cls-5" d="M139.63,104.58v10.53a6.45,6.45,0,0,1-3.1,4.89l-24.15,13.94c-1.71,1-3.1.39-3.1-1.31V122.1Z"/>
  <path class="cls-5" d="M113.86,130.87h0a3.83,3.83,0,0,0,2.24-3.19v-5.29c0-1.23-1-1.81-2.24-1.29h0a3.83,3.83,0,0,0-2.24,3.19v5.29C111.62,130.8,112.62,131.39,113.86,130.87Z"/>
  <path class="cls-5" d="M135,118.66h0a3.83,3.83,0,0,0,2.24-3.19v-5.29c0-1.23-1-1.81-2.24-1.29h0a3.83,3.83,0,0,0-2.24,3.19v5.29A1.46,1.46,0,0,0,135,118.66Z"/>
  <path class="cls-6" d="M119.1,122.33a0.49,0.49,0,0,0,.72.46,1.15,1.15,0,0,0,.72-1,0.49,0.49,0,0,0-.72-0.46A1.15,1.15,0,0,0,119.1,122.33Z"/>
  <path class="cls-6" d="M121.42,120.91a0.49,0.49,0,0,0,.72.46,1.15,1.15,0,0,0,.72-1,0.49,0.49,0,0,0-.72-0.46A1.15,1.15,0,0,0,121.42,120.91Z"/>
  <path class="cls-6" d="M123.73,119.5a0.49,0.49,0,0,0,.72.46,1.15,1.15,0,0,0,.72-1,0.49,0.49,0,0,0-.72-0.46A1.15,1.15,0,0,0,123.73,119.5Z"/>
  <path class="cls-6" d="M126,118.08a0.49,0.49,0,0,0,.72.46,1.15,1.15,0,0,0,.72-1,0.49,0.49,0,0,0-.72-0.46A1.15,1.15,0,0,0,126,118.08Z"/>
  <path class="cls-6" d="M128.35,116.66a0.49,0.49,0,0,0,.72.46,1.15,1.15,0,0,0,.72-1,0.49,0.49,0,0,0-.72-0.46A1.15,1.15,0,0,0,128.35,116.66Z"/>
  <path class="cls-6" d="M121.42,123.42a0.49,0.49,0,0,0,.72.46,1.15,1.15,0,0,0,.72-1,0.49,0.49,0,0,0-.72-0.46A1.15,1.15,0,0,0,121.42,123.42Z"/>
  <path class="cls-6" d="M123.73,122a0.49,0.49,0,0,0,.72.46,1.15,1.15,0,0,0,.72-1,0.49,0.49,0,0,0-.72-0.46A1.15,1.15,0,0,0,123.73,122Z"/>
  <path class="cls-6" d="M126,120.59a0.49,0.49,0,0,0,.72.46,1.15,1.15,0,0,0,.72-1,0.49,0.49,0,0,0-.72-0.46A1.15,1.15,0,0,0,126,120.59Z"/>
  <path class="cls-5" d="M73.56,104.58v10.53a6.45,6.45,0,0,0,3.1,4.89l24.15,13.94c1.71,1,3.1.39,3.1-1.31V122.1Z"/>
  <path class="cls-5" d="M99.33,130.87h0a3.83,3.83,0,0,1-2.24-3.19v-5.29c0-1.23,1-1.81,2.24-1.29h0a3.83,3.83,0,0,1,2.24,3.19v5.29C101.57,130.8,100.56,131.39,99.33,130.87Z"/>
  <path class="cls-5" d="M78.14,118.66h0a3.83,3.83,0,0,1-2.24-3.19v-5.29c0-1.23,1-1.81,2.24-1.29h0a3.83,3.83,0,0,1,2.24,3.19v5.29C80.38,118.6,79.37,119.18,78.14,118.66Z"/>
  <path class="cls-6" d="M94.08,122.33a0.49,0.49,0,0,1-.72.46,1.15,1.15,0,0,1-.72-1,0.49,0.49,0,0,1,.72-0.46A1.15,1.15,0,0,1,94.08,122.33Z"/>
  <path class="cls-6" d="M91.77,120.91a0.49,0.49,0,0,1-.72.46,1.15,1.15,0,0,1-.72-1,0.49,0.49,0,0,1,.72-0.46A1.15,1.15,0,0,1,91.77,120.91Z"/>
  <path class="cls-6" d="M89.46,119.5a0.49,0.49,0,0,1-.72.46,1.15,1.15,0,0,1-.72-1,0.49,0.49,0,0,1,.72-0.46A1.15,1.15,0,0,1,89.46,119.5Z"/>
  <path class="cls-6" d="M87.15,118.08a0.49,0.49,0,0,1-.72.46,1.15,1.15,0,0,1-.72-1,0.49,0.49,0,0,1,.72-0.46A1.15,1.15,0,0,1,87.15,118.08Z"/>
  <path class="cls-6" d="M84.83,116.66a0.49,0.49,0,0,1-.72.46,1.15,1.15,0,0,1-.72-1,0.49,0.49,0,0,1,.72-0.46A1.15,1.15,0,0,1,84.83,116.66Z"/>
  <path class="cls-6" d="M91.77,123.42a0.49,0.49,0,0,1-.72.46,1.15,1.15,0,0,1-.72-1,0.49,0.49,0,0,1,.72-0.46A1.15,1.15,0,0,1,91.77,123.42Z"/>
  <path class="cls-6" d="M89.46,122a0.49,0.49,0,0,1-.72.46,1.15,1.15,0,0,1-.72-1,0.49,0.49,0,0,1,.72-0.46A1.15,1.15,0,0,1,89.46,122Z"/>
  <path class="cls-6" d="M87.15,120.59a0.49,0.49,0,0,1-.72.46,1.15,1.15,0,0,1-.72-1,0.49,0.49,0,0,1,.72-0.46A1.15,1.15,0,0,1,87.15,120.59Z"/>
  <path class="cls-5" d="M109.64,72l31.51,18.19a2.39,2.39,0,0,1,0,4.14l-31.51,18.19a6.11,6.11,0,0,1-6.11,0L72,94.32a2.39,2.39,0,0,1,0-4.14L103.53,72A6.11,6.11,0,0,1,109.64,72Z"/>
  <path class="cls-7" d="M159.08,79.62l-16.54,9.55h-0.07"/>
  <path class="cls-8" d="M91.31,77.37c10,3.63,19.08,10.62,26.06,19.22l4.2-2.12a144.3,144.3,0,0,1,0,15c-4.77-3-14.91-7.49-14.91-7.49l4.65-2.35C104.46,91.55,95.7,85,86.16,81.52c-10.69-3.89-20.38-3.2-27.53,1.06C65.82,74.86,77.77,72.44,91.31,77.37Z"/>
  <path class="cls-8" d="M123.39,120.82l5.46-3.15a47.25,47.25,0,0,1,2.24,14c0,11.29-4.71,19.76-12.26,24.25,4.48-4.81,7.11-11.67,7.11-20.1A47.74,47.74,0,0,0,123.39,120.82Z"/>
  <ellipse class="cls-6" cx="132.81" cy="91.91" rx="1.93" ry="0.88"/>
  <ellipse class="cls-9" cx="86.84" cy="87.36" rx="4.2" ry="1.91"/>
  <path class="cls-6" d="M87.7,88.53h0l-0.38.28H87.24a0.08,0.08,0,0,1-.05-0.06l-0.64-1.31-2.08-.14a0.12,0.12,0,0,1-.09,0,0.08,0.08,0,0,1,0-.06L84.74,87h0.11l1.49,0.11-0.43-.88h0L86.27,86H86.4L87,87.16l2.21,0.17h0.1a0.06,0.06,0,0,1,0,.05l-0.38.28H88.84l-1.61-.12Z"/>
  <ellipse class="cls-9" cx="86.84" cy="96.11" rx="4.2" ry="1.91"/>
  <path class="cls-6" d="M88.76,96.85h0l-0.31.23H88.3l-1.18-.61-2.43-.21H84.6V96.2L85,96a0.18,0.18,0,0,1,.12,0l1.81,0.17-0.6-1.05a0,0,0,0,1,0-.07h0l0.36-.26a0.09,0.09,0,0,1,.08,0,0.1,0.1,0,0,1,0,.06l0.74,1.43Z"/>
  <ellipse class="cls-9" cx="79.23" cy="91.73" rx="4.2" ry="1.91"/>
  <path class="cls-6" d="M79.94,93.06a0.12,0.12,0,0,1-.14,0l-0.27-.14h0l-1-1.78-1,.7H77.39L77,91.6h0l1.44-1h0.14l0.31,0.16h0l0.95,1.79L81,91.71h0.14l0.33,0.17h0Z"/>
  <line class="cls-10" x1="81.79" y1="89.82" x2="83.21" y2="88.97"/>
  <line class="cls-10" x1="82.54" y1="93.48" x2="84.01" y2="94.24"/>
  <path class="cls-7" d="M84.2,122.83L53.73,140.42l-0.13.07"/>
  <path class="cls-6" d="M44.52,146.52l-3.12,6.63a1.17,1.17,0,0,1-.14.23,0.82,0.82,0,0,1-.18.13L39,154.72a0.4,0.4,0,0,1-.32.11,0.7,0.7,0,0,1,.14-0.45l4.3-9.15L39,141.4a0.23,0.23,0,0,1-.1-0.27,1,1,0,0,1,.37-0.29l2-1.13a0.68,0.68,0,0,1,.23-0.1,0.19,0.19,0,0,1,.14.06l2.91,2.8,2.91-6.15a0.94,0.94,0,0,1,.14-0.23,1,1,0,0,1,.23-0.17l2-1.13a0.53,0.53,0,0,1,.37-0.13,0.48,0.48,0,0,1-.1.39L46,143.62l4.3,4.19a0.27,0.27,0,0,1,.14.28,0.82,0.82,0,0,1-.32.27L48,149.54a0.53,0.53,0,0,1-.18.08,0.23,0.23,0,0,1-.14-0.07Z"/>
  <path class="cls-5" d="M58.8,82.53c-4.48,4.81-7.11,11.67-7.11,20.1,0,22,17.81,46.27,39.79,54.27,10.69,3.89,20.38,3.2,27.53-1.06-7.19,7.71-19.14,10.13-32.68,5.2-22-8-39.79-32.3-39.79-54.27C46.54,95.49,51.25,87,58.8,82.53Z"/>
  <path class="cls-3" d="M71,101.15V92.63a2.42,2.42,0,0,1,.15-1.38V91.19l0.2-.19,0.06-.09,0.14-.19,0.08-.09,0.18-.17,0.08-.07a2.46,2.46,0,0,1,.3-0.21h0L103.7,72a6.11,6.11,0,0,1,3.06-.82h0a6.1,6.1,0,0,1,3,.82l5.17,3,26.35,15.21a2.46,2.46,0,0,1,.31.21l0.08,0.07,0.18,0.17,0.15,0,0.14,0.19,0,0.14a2.34,2.34,0,0,1,.13.24V91.3a2.42,2.42,0,0,1,.15,1.38v8.53a2.44,2.44,0,0,1,0,.83v21a2.38,2.38,0,0,1-1.15,2.5L109.81,143.7a6.11,6.11,0,0,1-6.11,0L72.2,125.51A2.38,2.38,0,0,1,71,123V102A2.44,2.44,0,0,1,71,101.15Z"/>
  <path class="cls-4" d="M71,123V92.2h71.44V123a2.38,2.38,0,0,1-1.15,2.5l-31.48,18.2a6.11,6.11,0,0,1-6.11,0L72.2,125.51A2.38,2.38,0,0,1,71,123Z"/>
  <path class="cls-5" d="M71,92.63a2.38,2.38,0,0,1,1.15-2.5l31.51-18.2a6.11,6.11,0,0,1,6.11,0l31.51,18.19a2.38,2.38,0,0,1,1.15,2.5v8.53a2.38,2.38,0,0,1-1.15,2.5l-31.51,18.19a6.11,6.11,0,0,1-6.11,0L72.2,103.66a2.38,2.38,0,0,1-1.15-2.5V92.63h0Z"/>
  <path class="cls-5" d="M139.8,104.53v10.53a6.45,6.45,0,0,1-3.1,4.89L112.55,133.9c-1.71,1-3.1.39-3.1-1.31V122.05Z"/>
  <path class="cls-5" d="M114,130.82h0a3.83,3.83,0,0,0,2.24-3.19v-5.29c0-1.23-1-1.81-2.24-1.29h0a3.83,3.83,0,0,0-2.24,3.19v5.29A1.45,1.45,0,0,0,114,130.82Z"/>
  <path class="cls-5" d="M135.22,118.61h0a3.83,3.83,0,0,0,2.24-3.19v-5.29c0-1.23-1-1.81-2.24-1.29h0A3.83,3.83,0,0,0,133,112v5.29C133,118.55,134,119.13,135.22,118.61Z"/>
  <path class="cls-6" d="M119.27,122.28a0.49,0.49,0,0,0,.72.46,1.15,1.15,0,0,0,.72-1,0.49,0.49,0,0,0-.72-0.46A1.15,1.15,0,0,0,119.27,122.28Z"/>
  <path class="cls-6" d="M121.59,120.87a0.49,0.49,0,0,0,.72.46,1.15,1.15,0,0,0,.72-1,0.49,0.49,0,0,0-.72-0.46A1.15,1.15,0,0,0,121.59,120.87Z"/>
  <path class="cls-6" d="M123.9,119.45a0.49,0.49,0,0,0,.72.46,1.15,1.15,0,0,0,.72-1,0.49,0.49,0,0,0-.72-0.46A1.15,1.15,0,0,0,123.9,119.45Z"/>
  <path class="cls-6" d="M126.21,118a0.49,0.49,0,0,0,.72.46,1.15,1.15,0,0,0,.72-1,0.49,0.49,0,0,0-.72-0.46A1.15,1.15,0,0,0,126.21,118Z"/>
  <path class="cls-6" d="M128.52,116.62a0.49,0.49,0,0,0,.72.46,1.15,1.15,0,0,0,.72-1,0.49,0.49,0,0,0-.72-0.46A1.15,1.15,0,0,0,128.52,116.62Z"/>
  <path class="cls-6" d="M121.59,123.38a0.49,0.49,0,0,0,.72.46,1.15,1.15,0,0,0,.72-1,0.49,0.49,0,0,0-.72-0.46A1.15,1.15,0,0,0,121.59,123.38Z"/>
  <path class="cls-6" d="M123.9,122a0.49,0.49,0,0,0,.72.46,1.15,1.15,0,0,0,.72-1,0.49,0.49,0,0,0-.72-0.46A1.15,1.15,0,0,0,123.9,122Z"/>
  <path class="cls-6" d="M126.21,120.54a0.49,0.49,0,0,0,.72.46,1.15,1.15,0,0,0,.72-1,0.49,0.49,0,0,0-.72-0.46A1.15,1.15,0,0,0,126.21,120.54Z"/>
  <path class="cls-5" d="M73.73,104.53v10.53a6.45,6.45,0,0,0,3.1,4.89L101,133.9c1.71,1,3.1.39,3.1-1.31V122.05Z"/>
  <path class="cls-5" d="M99.5,130.82h0a3.83,3.83,0,0,1-2.24-3.19v-5.29c0-1.23,1-1.81,2.24-1.29h0a3.83,3.83,0,0,1,2.24,3.19v5.29C101.74,130.76,100.73,131.34,99.5,130.82Z"/>
  <path class="cls-5" d="M78.31,118.61h0a3.83,3.83,0,0,1-2.24-3.19v-5.29c0-1.23,1-1.81,2.24-1.29h0A3.83,3.83,0,0,1,80.55,112v5.29C80.55,118.55,79.54,119.13,78.31,118.61Z"/>
  <path class="cls-6" d="M94.25,122.28a0.49,0.49,0,0,1-.72.46,1.15,1.15,0,0,1-.72-1,0.49,0.49,0,0,1,.72-0.46A1.15,1.15,0,0,1,94.25,122.28Z"/>
  <path class="cls-6" d="M91.94,120.87a0.49,0.49,0,0,1-.72.46,1.15,1.15,0,0,1-.72-1,0.49,0.49,0,0,1,.72-0.46A1.15,1.15,0,0,1,91.94,120.87Z"/>
  <path class="cls-6" d="M89.63,119.45a0.49,0.49,0,0,1-.72.46,1.15,1.15,0,0,1-.72-1,0.49,0.49,0,0,1,.72-0.46A1.15,1.15,0,0,1,89.63,119.45Z"/>
  <path class="cls-6" d="M87.32,118a0.49,0.49,0,0,1-.72.46,1.15,1.15,0,0,1-.72-1A0.49,0.49,0,0,1,86.6,117,1.15,1.15,0,0,1,87.32,118Z"/>
  <path class="cls-6" d="M85,116.62a0.49,0.49,0,0,1-.72.46,1.15,1.15,0,0,1-.72-1,0.49,0.49,0,0,1,.72-0.46A1.15,1.15,0,0,1,85,116.62Z"/>
  <path class="cls-6" d="M91.94,123.38a0.49,0.49,0,0,1-.72.46,1.15,1.15,0,0,1-.72-1,0.49,0.49,0,0,1,.72-0.46A1.15,1.15,0,0,1,91.94,123.38Z"/>
  <path class="cls-6" d="M89.63,122a0.49,0.49,0,0,1-.72.46,1.15,1.15,0,0,1-.72-1A0.49,0.49,0,0,1,88.9,121,1.15,1.15,0,0,1,89.63,122Z"/>
  <path class="cls-6" d="M87.32,120.54a0.49,0.49,0,0,1-.72.46,1.15,1.15,0,0,1-.72-1,0.49,0.49,0,0,1,.72-0.46A1.15,1.15,0,0,1,87.32,120.54Z"/>
  <path class="cls-5" d="M109.81,71.93l31.51,18.19a2.39,2.39,0,0,1,0,4.14l-31.51,18.19a6.11,6.11,0,0,1-6.11,0L72.2,94.27a2.39,2.39,0,0,1,0-4.14l31.51-18.2A6.11,6.11,0,0,1,109.81,71.93Z"/>
  <path class="cls-7" d="M159.25,79.58l-16.54,9.55h-0.07"/>
  <path class="cls-8" d="M91.48,77.32c10,3.63,19.08,10.62,26.06,19.22l4.2-2.12a144.3,144.3,0,0,1,0,15c-4.77-3-14.91-7.49-14.91-7.49l4.65-2.35c-6.86-8.1-15.61-14.65-25.15-18.13C75.64,77.56,66,78.25,58.8,82.51,66,74.81,77.94,72.4,91.48,77.32Z"/>
  <path class="cls-8" d="M123.56,120.77l5.46-3.15a47.25,47.25,0,0,1,2.24,14c0,11.29-4.71,19.76-12.26,24.25,4.48-4.81,7.11-11.67,7.11-20.1A47.74,47.74,0,0,0,123.56,120.77Z"/>
  <ellipse class="cls-6" cx="132.98" cy="91.86" rx="1.93" ry="0.88"/>
  <ellipse class="cls-9" cx="87.01" cy="87.31" rx="4.2" ry="1.91"/>
  <path class="cls-6" d="M87.87,88.48h0l-0.38.28H87.41a0.08,0.08,0,0,1-.05-0.06L86.7,87.49l-2.08-.14a0.12,0.12,0,0,1-.09,0,0.08,0.08,0,0,1,0-.06L84.94,87H85l1.49,0.11-0.43-.88h0L86.42,86h0.13l0.58,1.23,2.21,0.17h0.1a0.06,0.06,0,0,1,0,.05l-0.38.28H89l-1.61-.12Z"/>
  <ellipse class="cls-9" cx="87.01" cy="96.06" rx="4.2" ry="1.91"/>
  <path class="cls-6" d="M88.93,96.8h0L88.62,97H88.47l-1.18-.61-2.43-.21H84.77V96.15l0.4-.15a0.18,0.18,0,0,1,.12,0l1.81,0.17-0.6-1.05a0,0,0,0,1,0-.07h0l0.36-.26a0.09,0.09,0,0,1,.08,0,0.1,0.1,0,0,1,0,.06l0.74,1.43Z"/>
  <ellipse class="cls-9" cx="79.4" cy="91.69" rx="4.2" ry="1.91"/>
  <path class="cls-6" d="M80.11,93A0.12,0.12,0,0,1,80,93l-0.27-.14h0l-1-1.78-1,.7H77.59l-0.33-.17h0l1.44-1h0.14l0.31,0.16h0l0.95,1.79,1.05-.77h0.14L81.62,92h0Z"/>
  <line class="cls-10" x1="81.96" y1="89.77" x2="83.38" y2="88.92"/>
  <line class="cls-10" x1="82.71" y1="93.43" x2="84.18" y2="94.19"/>
  <path class="cls-7" d="M84.37,122.78L53.9,140.37l-0.13.07"/>
  <path class="cls-6" d="M44.69,146.48l-3.12,6.63a1.17,1.17,0,0,1-.14.23,0.82,0.82,0,0,1-.18.13l-2.09,1.2a0.4,0.4,0,0,1-.32.11,0.7,0.7,0,0,1,.14-0.45l4.3-9.15-4.1-3.84a0.23,0.23,0,0,1-.1-0.27,1,1,0,0,1,.37-0.29l2-1.13a0.68,0.68,0,0,1,.23-0.1,0.19,0.19,0,0,1,.14.06l2.91,2.8,2.91-6.15a0.94,0.94,0,0,1,.14-0.23,1,1,0,0,1,.23-0.17l2-1.13a0.53,0.53,0,0,1,.37-0.13,0.48,0.48,0,0,1-.1.39l-4.1,8.57,4.3,4.19a0.27,0.27,0,0,1,.14.28,0.82,0.82,0,0,1-.32.27l-2.09,1.2a0.53,0.53,0,0,1-.18.08,0.23,0.23,0,0,1-.14-0.07Z"/>
</svg>
