<svg id="레이어_1" data-name="레이어 1" xmlns="http://www.w3.org/2000/svg" width="210" height="210" viewBox="0 0 210 210">
  <defs>
    <style>
      .cls-1, .cls-5 {
        fill: none;
      }

      .cls-1, .cls-5, .cls-6, .cls-7 {
        stroke: #26cad3;
        stroke-miterlimit: 10;
      }

      .cls-2 {
        fill: #26cad3;
      }

      .cls-3, .cls-6, .cls-7 {
        fill: #fff;
      }

      .cls-3 {
        fill-opacity: 0;
      }

      .cls-4 {
        fill: #f1f1f1;
      }

      .cls-5, .cls-6 {
        stroke-width: 1.5px;
      }
    </style>
  </defs>
  <title>helpSpeakerBasic</title>
  <g>
    <path class="cls-1" d="M2.84,126.79A43.81,43.81,0,0,1,32.18,110.6a64.83,64.83,0,0,1,34.4,6.19S91,128.51,97.24,130.33A122.45,122.45,0,0,0,114,133.12"/>
    <path class="cls-1" d="M2.84,119.76a43.81,43.81,0,0,1,29.34-16.18,64.83,64.83,0,0,1,34.4,6.19S91,121.48,97.24,123.31A122.45,122.45,0,0,0,114,126.09"/>
    <path class="cls-1" d="M2.84,112.72A43.81,43.81,0,0,1,32.17,96.54a64.83,64.83,0,0,1,34.4,6.19S91,114.45,97.23,116.27A122.45,122.45,0,0,0,114,119.06"/>
    <path class="cls-1" d="M2.84,105.7A43.81,43.81,0,0,1,32.17,89.52a64.83,64.83,0,0,1,34.4,6.13S91,107.36,97.23,109.19A122.45,122.45,0,0,0,114,112"/>
    <path class="cls-1" d="M2.84,98.67A43.81,43.81,0,0,1,32.17,82.48a64.83,64.83,0,0,1,34.4,6.15S91,100.34,97.23,102.16A122.45,122.45,0,0,0,114,105"/>
    <path class="cls-2" d="M43.13,82c-1.56-4.68-8-5.42-10.54-12.29l-0.67.16L37,93.05c-1.31-.73-3.51-0.09-5.12,1.6-1.85,1.9-2.34,4.4-1.17,5.58s3.7,0.61,5.55-1.3A5.23,5.23,0,0,0,38,94.38h0L34.33,77.52c1.29,0.16,6.64,1.1,7.82,5.13a17.39,17.39,0,0,1,.16,8.76A13.48,13.48,0,0,0,43.13,82Z"/>
    <path class="cls-2" d="M52.34,97.48c0.73,1.31,2.89,1.92,5.19,1.36,2.58-.63,4.33-2.47,3.93-4.12s-2.81-2.48-5.39-1.85a5.23,5.23,0,0,0-3.83,3h0L43.7,119.55l0.66,0.23Z"/>
    <path class="cls-2" d="M21.88,98.66a6.17,6.17,0,0,0-6.49-1.17L13.8,93.72a14.9,14.9,0,0,0,2.69-7.65c0.22-6.1-3.51-8.86-4.29-9.21s-2.07,1-2.48,4.61,2,9.5,2,9.5-4,4-4.47,9.05c-0.48,5.5,4.91,8.94,6.74,9.37a9.78,9.78,0,0,0,5.34-.22l2.15,5.08a3.18,3.18,0,0,1-1.31,4.12,3.41,3.41,0,0,1-2.34.29,2.87,2.87,0,1,0-3-.09,0.85,0.85,0,0,0,.13.16,5.55,5.55,0,0,0,6,.39c2.86-1.59,1.48-5.25,1.48-5.25l-2.17-5.09a7.28,7.28,0,0,0,2-1.49C24.61,104.67,23.41,100.16,21.88,98.66ZM12.51,82.15c1.81-2.41,2.17,1.94,1.88,3.43a10.94,10.94,0,0,1-2,4.21s-1.69-5.23.12-7.65h0Zm3.16,26.38a5.62,5.62,0,0,1-2.93-1c-3.84-2.74-2.49-7.76-1.84-9.3a24.69,24.69,0,0,1,2.26-3.61L14.55,98q-0.26.16-.53,0.35c-3.27,2.45-1.33,6.33-1.33,6.33a3.62,3.62,0,0,0,4.12,1.8s-4-1.56-2.22-5.34a3.75,3.75,0,0,1,.81-1.17l3.31,7.82A6.23,6.23,0,0,1,15.68,108.53Zm5.58-5.85a5.32,5.32,0,0,1-1.73,4.55L16.2,99.4C18.37,98.43,21,100.34,21.26,102.68Z"/>
    <path class="cls-2" d="M82.47,138.25v-23.3c1.17,1,3.37.83,5.34-.48,2.21-1.46,3.24-3.79,2.34-5.21s-3.51-1.38-5.7.08a5.23,5.23,0,0,0-2.65,4.1h0V134l-12.62-7.09V108.06c1.17,1,3.37.83,5.34-.48,2.21-1.46,3.24-3.79,2.34-5.21s-3.51-1.38-5.7.08a5.23,5.23,0,0,0-2.65,4.1h0v23.83Z"/>
  </g>
  <rect class="cls-3" width="210" height="210"/>
  <path class="cls-4" d="M139.5,117.4l44.44,25.66a3.37,3.37,0,0,1,0,5.88L139.5,174.59a8.62,8.62,0,0,1-8.62,0L86.51,148.9a3.37,3.37,0,0,1,0-5.88l44.44-25.66A8.62,8.62,0,0,1,139.5,117.4Z"/>
  <path class="cls-5" d="M93.74,113v-9.9a2.81,2.81,0,0,1,.18-1.6v-0.07a2.71,2.71,0,0,1,.14-0.27l0.07-.11,0.16-.22,0.09-.11,0.21-.2,0.09-.08a2.86,2.86,0,0,1,.35-0.24h0L131.61,79a7.06,7.06,0,0,1,3.53-1h0a7.06,7.06,0,0,1,3.53,1l6,3.47,30.57,17.64a2.85,2.85,0,0,1,.35.25l0.09,0.08,0.21,0.2,0.09,0.11,0.16,0.22,0.07,0.11a2.71,2.71,0,0,1,.14.27v0.07a2.81,2.81,0,0,1,.18,1.6V113a2.83,2.83,0,0,1,0,1v24.4a2.76,2.76,0,0,1-1.34,2.9l-36.58,21.17a7.06,7.06,0,0,1-7.06,0L95,141.23a2.76,2.76,0,0,1-1.34-2.9V113.88A2.83,2.83,0,0,1,93.74,113Z"/>
  <path class="cls-6" d="M93.74,138.28V102.51h82.92v35.77a2.76,2.76,0,0,1-1.34,2.9l-36.58,21.17a7.06,7.06,0,0,1-7.06,0L95.11,141.18A2.76,2.76,0,0,1,93.74,138.28Z"/>
  <path class="cls-7" d="M93.74,103a2.76,2.76,0,0,1,1.34-2.9l36.57-21.17a7.06,7.06,0,0,1,7.06,0l36.58,21.17a2.76,2.76,0,0,1,1.34,2.9V113a2.76,2.76,0,0,1-1.34,2.9L138.7,137a7.06,7.06,0,0,1-7.06,0L95.08,115.87a2.76,2.76,0,0,1-1.34-2.9V103Z"/>
  <polygon class="cls-6" points="176.66 102.5 176.66 102.51 135.2 126.45 93.74 102.51 93.74 102.5 135.2 78.56 176.66 102.5"/>
  <path class="cls-7" d="M173.52,116.83v12.23a7.49,7.49,0,0,1-3.6,5.68l-28,16.19c-2,1.18-3.6.46-3.6-1.52V137.18Z"/>
  <path class="cls-7" d="M143.63,147.34h0a4.44,4.44,0,0,0,2.6-3.69v-6.14c0-1.43-1.18-2.1-2.6-1.51h0a4.44,4.44,0,0,0-2.6,3.69v6.18C141,147.27,142.2,147.94,143.63,147.34Z"/>
  <path class="cls-7" d="M168.23,133.17h0a4.44,4.44,0,0,0,2.6-3.69v-6.14c0-1.43-1.18-2.1-2.6-1.51h0a4.44,4.44,0,0,0-2.6,3.69v6.14C165.63,133.1,166.79,133.77,168.23,133.17Z"/>
  <path class="cls-2" d="M149.72,137.43a0.56,0.56,0,0,0,.83.53,1.33,1.33,0,0,0,.83-1.18,0.56,0.56,0,0,0-.83-0.53A1.33,1.33,0,0,0,149.72,137.43Z"/>
  <path class="cls-2" d="M152.35,135.79a0.56,0.56,0,0,0,.83.53,1.33,1.33,0,0,0,.83-1.18,0.56,0.56,0,0,0-.83-0.53A1.33,1.33,0,0,0,152.35,135.79Z"/>
  <path class="cls-2" d="M155.09,134.13a0.56,0.56,0,0,0,.83.53,1.33,1.33,0,0,0,.83-1.18,0.56,0.56,0,0,0-.88-0.53A1.33,1.33,0,0,0,155.09,134.13Z"/>
  <path class="cls-2" d="M157.78,132.5a0.56,0.56,0,0,0,.83.53,1.33,1.33,0,0,0,.83-1.18,0.56,0.56,0,0,0-.83-0.53A1.33,1.33,0,0,0,157.78,132.5Z"/>
  <path class="cls-2" d="M160.46,130.86a0.56,0.56,0,0,0,.83.53,1.33,1.33,0,0,0,.83-1.18,0.56,0.56,0,0,0-.83-0.53A1.33,1.33,0,0,0,160.46,130.86Z"/>
  <path class="cls-2" d="M152.35,138.7a0.56,0.56,0,0,0,.83.53,1.33,1.33,0,0,0,.83-1.18,0.56,0.56,0,0,0-.83-0.53A1.33,1.33,0,0,0,152.35,138.7Z"/>
  <path class="cls-2" d="M155.09,137.06a0.56,0.56,0,0,0,.83.53,1.33,1.33,0,0,0,.83-1.18,0.56,0.56,0,0,0-.83-0.53A1.33,1.33,0,0,0,155.09,137.06Z"/>
  <path class="cls-2" d="M157.78,135.42a0.56,0.56,0,0,0,.83.53,1.33,1.33,0,0,0,.83-1.18,0.56,0.56,0,0,0-.83-0.53A1.33,1.33,0,0,0,157.78,135.42Z"/>
  <path class="cls-7" d="M96.85,116.83v12.23a7.49,7.49,0,0,0,3.6,5.68l28,16.19c2,1.18,3.6.46,3.6-1.52V137.18Z"/>
  <path class="cls-7" d="M126.77,147.34h0a4.44,4.44,0,0,1-2.6-3.69v-6.14c0-1.43,1.18-2.1,2.6-1.51h0a4.44,4.44,0,0,1,2.6,3.69v6.18C129.37,147.27,128.19,147.94,126.77,147.34Z"/>
  <path class="cls-7" d="M102.17,133.17h0a4.44,4.44,0,0,1-2.6-3.75v-6.14c0-1.43,1.18-2.1,2.6-1.51h0a4.44,4.44,0,0,1,2.6,3.69v6.14C104.77,133.1,103.59,133.77,102.17,133.17Z"/>
  <path class="cls-2" d="M120.68,137.43a0.56,0.56,0,0,1-.83.53,1.33,1.33,0,0,1-.83-1.18,0.56,0.56,0,0,1,.83-0.53A1.33,1.33,0,0,1,120.68,137.43Z"/>
  <path class="cls-2" d="M118,135.79a0.56,0.56,0,0,1-.83.53,1.33,1.33,0,0,1-.83-1.18,0.56,0.56,0,0,1,.83-0.53A1.33,1.33,0,0,1,118,135.79Z"/>
  <path class="cls-2" d="M115.3,134.13a0.56,0.56,0,0,1-.83.53,1.33,1.33,0,0,1-.83-1.18,0.56,0.56,0,0,1,.83-0.53A1.33,1.33,0,0,1,115.3,134.13Z"/>
  <path class="cls-2" d="M112.62,132.5a0.56,0.56,0,0,1-.83.53,1.33,1.33,0,0,1-.83-1.18,0.56,0.56,0,0,1,.83-0.53A1.33,1.33,0,0,1,112.62,132.5Z"/>
  <path class="cls-2" d="M109.94,130.86a0.56,0.56,0,0,1-.83.53,1.33,1.33,0,0,1-.83-1.18,0.56,0.56,0,0,1,.83-0.53A1.33,1.33,0,0,1,109.94,130.86Z"/>
  <path class="cls-2" d="M118,138.7a0.56,0.56,0,0,1-.83.53,1.33,1.33,0,0,1-.83-1.18,0.56,0.56,0,0,1,.83-0.53A1.33,1.33,0,0,1,118,138.7Z"/>
  <path class="cls-2" d="M115.3,137.06a0.56,0.56,0,0,1-.83.53,1.33,1.33,0,0,1-.83-1.18,0.56,0.56,0,0,1,.83-0.53A1.33,1.33,0,0,1,115.3,137.06Z"/>
  <path class="cls-2" d="M112.62,135.42a0.56,0.56,0,0,1-.83.53,1.33,1.33,0,0,1-.83-1.18,0.56,0.56,0,0,1,.83-0.53A1.33,1.33,0,0,1,112.62,135.42Z"/>
  <path class="cls-7" d="M138.74,79l36.58,21.17a2.77,2.77,0,0,1,0,4.81l-36.58,21.17a7.06,7.06,0,0,1-7.06,0L95.11,105a2.77,2.77,0,0,1,0-4.81L131.68,79A7.06,7.06,0,0,1,138.74,79Z"/>
  <ellipse class="cls-2" cx="104.77" cy="102.23" rx="2.23" ry="1.02"/>
  <ellipse class="cls-2" cx="118.08" cy="100.28" rx="1.8" ry="0.82" transform="translate(-0.17 0.21) rotate(-0.1)"/>
  <ellipse class="cls-2" cx="122.03" cy="98" rx="1.8" ry="0.82" transform="translate(-0.17 0.21) rotate(-0.1)"/>
  <ellipse class="cls-2" cx="125.98" cy="95.7" rx="1.8" ry="0.82" transform="translate(-0.17 0.22) rotate(-0.1)"/>
  <ellipse class="cls-2" cx="129.93" cy="93.41" rx="1.8" ry="0.82" transform="translate(-0.16 0.23) rotate(-0.1)"/>
  <ellipse class="cls-2" cx="119.83" cy="103.31" rx="1.8" ry="0.82" transform="translate(-0.18 0.21) rotate(-0.1)"/>
  <ellipse class="cls-2" cx="123.78" cy="101.02" rx="1.8" ry="0.82" transform="translate(-0.18 0.22) rotate(-0.1)"/>
  <ellipse class="cls-2" cx="127.74" cy="98.72" rx="1.8" ry="0.82" transform="translate(-0.17 0.22) rotate(-0.1)"/>
  <ellipse class="cls-2" cx="131.7" cy="96.44" rx="1.8" ry="0.82" transform="translate(-0.17 0.23) rotate(-0.1)"/>
  <ellipse class="cls-2" cx="135.64" cy="94.14" rx="1.8" ry="0.82" transform="translate(-0.16 0.24) rotate(-0.1)"/>
  <ellipse class="cls-2" cx="121.59" cy="106.34" rx="1.8" ry="0.82" transform="translate(-0.19 0.21) rotate(-0.1)"/>
  <ellipse class="cls-2" cx="125.55" cy="104.05" rx="1.8" ry="0.82" transform="translate(-0.18 0.22) rotate(-0.1)"/>
  <ellipse class="cls-2" cx="129.5" cy="101.76" rx="1.8" ry="0.82" transform="translate(-0.18 0.23) rotate(-0.1)"/>
  <ellipse class="cls-2" cx="133.44" cy="99.46" rx="1.8" ry="0.82" transform="translate(-0.17 0.23) rotate(-0.1)"/>
  <ellipse class="cls-2" cx="137.4" cy="97.17" rx="1.8" ry="0.82" transform="translate(-0.17 0.24) rotate(-0.1)"/>
  <ellipse class="cls-2" cx="141.35" cy="94.89" rx="1.8" ry="0.82" transform="translate(-0.17 0.25) rotate(-0.1)"/>
  <ellipse class="cls-2" cx="123.35" cy="109.38" rx="1.8" ry="0.82" transform="translate(-0.19 0.22) rotate(-0.1)"/>
  <ellipse class="cls-2" cx="127.29" cy="107.08" rx="1.8" ry="0.82" transform="translate(-0.19 0.22) rotate(-0.1)"/>
  <ellipse class="cls-2" cx="131.25" cy="104.79" rx="1.8" ry="0.82" transform="translate(-0.18 0.23) rotate(-0.1)"/>
  <ellipse class="cls-2" cx="135.2" cy="102.49" rx="1.8" ry="0.82" transform="translate(-0.18 0.24) rotate(-0.1)"/>
  <ellipse class="cls-2" cx="139.16" cy="100.2" rx="1.8" ry="0.82" transform="translate(-0.17 0.24) rotate(-0.1)"/>
  <ellipse class="cls-2" cx="143.12" cy="97.92" rx="1.8" ry="0.82" transform="translate(-0.17 0.25) rotate(-0.1)"/>
  <ellipse class="cls-2" cx="147.06" cy="95.63" rx="1.8" ry="0.82" transform="translate(-0.17 0.26) rotate(-0.1)"/>
  <ellipse class="cls-2" cx="129.06" cy="110.11" rx="1.8" ry="0.82" transform="translate(-0.19 0.23) rotate(-0.1)"/>
  <ellipse class="cls-2" cx="133.01" cy="107.82" rx="1.8" ry="0.82" transform="translate(-0.19 0.23) rotate(-0.1)"/>
  <ellipse class="cls-2" cx="136.97" cy="105.53" rx="1.8" ry="0.82" transform="translate(-0.18 0.24) rotate(-0.1)"/>
  <ellipse class="cls-2" cx="140.92" cy="103.23" rx="1.8" ry="0.82" transform="translate(-0.18 0.25) rotate(-0.1)"/>
  <ellipse class="cls-2" cx="144.86" cy="100.95" rx="1.8" ry="0.82" transform="translate(-0.18 0.25) rotate(-0.1)"/>
  <ellipse class="cls-2" cx="148.81" cy="98.65" rx="1.8" ry="0.82" transform="translate(-0.17 0.26) rotate(-0.1)"/>
  <ellipse class="cls-2" cx="134.77" cy="110.84" rx="1.8" ry="0.82" transform="translate(-0.19 0.24) rotate(-0.1)"/>
  <ellipse class="cls-2" cx="138.71" cy="108.57" rx="1.8" ry="0.82" transform="translate(-0.19 0.24) rotate(-0.1)"/>
  <ellipse class="cls-2" cx="142.66" cy="106.27" rx="1.8" ry="0.82" transform="translate(-0.19 0.25) rotate(-0.1)"/>
  <ellipse class="cls-2" cx="146.63" cy="103.98" rx="1.8" ry="0.82" transform="translate(-0.18 0.26) rotate(-0.1)"/>
  <ellipse class="cls-2" cx="150.58" cy="101.69" rx="1.8" ry="0.82" transform="translate(-0.18 0.26) rotate(-0.1)"/>
  <ellipse class="cls-2" cx="140.48" cy="111.58" rx="1.8" ry="0.82" transform="translate(-0.19 0.25) rotate(-0.1)"/>
  <ellipse class="cls-2" cx="144.43" cy="109.3" rx="1.8" ry="0.82" transform="translate(-0.19 0.25) rotate(-0.1)"/>
  <ellipse class="cls-2" cx="148.38" cy="107.01" rx="1.8" ry="0.82" transform="translate(-0.19 0.26) rotate(-0.1)"/>
  <ellipse class="cls-2" cx="152.34" cy="104.72" rx="1.8" ry="0.82" transform="translate(-0.18 0.27) rotate(-0.1)"/>
</svg>
