<svg id="레이어_1" data-name="레이어 1" xmlns="http://www.w3.org/2000/svg" width="112" height="20" viewBox="0 0 112 20"><defs><style>.cls-1{fill:none;stroke:#26cad3;stroke-miterlimit:10;stroke-width:2px;}.cls-2{fill:#26cad3;}</style></defs><title>help0-100</title><rect class="cls-1" x="1" y="1" width="110" height="18" rx="9" ry="9"/><path class="cls-2" d="M38.06,7.14A2.6,2.6,0,0,1,35.7,5.83a4.71,4.71,0,0,1-.56-1.51,9.83,9.83,0,0,1-.18-2q0-.48,0-1A7.4,7.4,0,0,1,35.19.27a5.5,5.5,0,0,1,.35-1A3.27,3.27,0,0,1,36.1-1.6a2.57,2.57,0,0,1,.83-0.59,2.71,2.71,0,0,1,1.13-.22,2.67,2.67,0,0,1,1.13.22A2.59,2.59,0,0,1,40-1.6a3.16,3.16,0,0,1,.56.86,5.76,5.76,0,0,1,.34,1,7.56,7.56,0,0,1,.17,1.07q0,0.54,0,1a9.73,9.73,0,0,1-.18,2,4.78,4.78,0,0,1-.56,1.51,2.75,2.75,0,0,1-1,1A2.66,2.66,0,0,1,38.06,7.14Zm0-8a1.09,1.09,0,0,0-.56.16A1.29,1.29,0,0,0,37-.16a3.55,3.55,0,0,0-.31,1,8.61,8.61,0,0,0-.11,1.53,8.7,8.7,0,0,0,.11,1.54,3.45,3.45,0,0,0,.31,1,1.29,1.29,0,0,0,.46.53,1.1,1.1,0,0,0,1.13,0,1.3,1.3,0,0,0,.46-0.53,3.47,3.47,0,0,0,.31-1,8.7,8.7,0,0,0,.11-1.54A8.61,8.61,0,0,0,39.4.83a3.56,3.56,0,0,0-.31-1A1.3,1.3,0,0,0,38.63-.7,1.1,1.1,0,0,0,38.06-.85Z" transform="translate(-6.45 7.69)"/><path class="cls-2" d="M51.95,2.42a2.4,2.4,0,0,1-.76.76,1.88,1.88,0,0,1-1,.28,2.26,2.26,0,0,1-.67-0.11l-0.69-.24-0.64-.24a1.58,1.58,0,0,0-.53-0.11A0.93,0.93,0,0,0,47.1,3a3,3,0,0,0-.53.52,0.17,0.17,0,0,1-.16.1,0.42,0.42,0,0,1-.16-0.18L45.8,2.7a0.19,0.19,0,0,1,0-.14,0.66,0.66,0,0,1,0-.12,2,2,0,0,1,.78-0.76,2.27,2.27,0,0,1,1.09-.26,2.5,2.5,0,0,1,.67.1L49,1.73l0.62,0.22a1.44,1.44,0,0,0,.46.1A0.64,0.64,0,0,0,50.4,2a1.47,1.47,0,0,0,.28-0.18l0.25-.22,0.2-.2a0.38,0.38,0,0,1,.15-0.11,0.2,0.2,0,0,1,.15.11L52,2.13a0.22,0.22,0,0,1,.05.14A0.39,0.39,0,0,1,51.95,2.42Z" transform="translate(-6.45 7.69)"/><path class="cls-2" d="M59.47,7A0.24,0.24,0,0,1,59.29,7a0.3,0.3,0,0,1,0-.2V-0.09l-0.73.7c-0.13.12-.23,0.13-0.3,0L57.5-.16a0.14,0.14,0,0,1,0-.15A0.58,0.58,0,0,1,57.6-.47L59.45-2.2a0.44,0.44,0,0,1,.29-0.11h0.79a0.47,0.47,0,0,1,.31.06,0.75,0.75,0,0,1,0,.36V6.75a0.31,0.31,0,0,1,0,.19,0.22,0.22,0,0,1-.18.06H59.47Z" transform="translate(-6.45 7.69)"/><path class="cls-2" d="M67.25,7.14a2.6,2.6,0,0,1-2.36-1.31,4.71,4.71,0,0,1-.56-1.51,9.83,9.83,0,0,1-.18-2q0-.48,0-1A7.47,7.47,0,0,1,64.37.27a5.5,5.5,0,0,1,.35-1,3.27,3.27,0,0,1,.56-0.86,2.56,2.56,0,0,1,.83-0.59,2.71,2.71,0,0,1,1.13-.22,2.67,2.67,0,0,1,1.13.22,2.59,2.59,0,0,1,.82.59,3.18,3.18,0,0,1,.56.86,5.72,5.72,0,0,1,.34,1,7.49,7.49,0,0,1,.17,1.07q0,0.54,0,1a9.8,9.8,0,0,1-.18,2,4.8,4.8,0,0,1-.56,1.51,2.75,2.75,0,0,1-1,1A2.66,2.66,0,0,1,67.25,7.14Zm0-8a1.1,1.1,0,0,0-.56.16,1.29,1.29,0,0,0-.46.53,3.55,3.55,0,0,0-.31,1,8.61,8.61,0,0,0-.11,1.53,8.7,8.7,0,0,0,.11,1.54,3.45,3.45,0,0,0,.31,1,1.29,1.29,0,0,0,.46.53,1.1,1.1,0,0,0,1.13,0,1.29,1.29,0,0,0,.46-0.53,3.45,3.45,0,0,0,.31-1,8.7,8.7,0,0,0,.11-1.54A8.61,8.61,0,0,0,68.58.83a3.55,3.55,0,0,0-.31-1A1.29,1.29,0,0,0,67.81-.7,1.1,1.1,0,0,0,67.25-.85Z" transform="translate(-6.45 7.69)"/><path class="cls-2" d="M74.52,7.14a2.6,2.6,0,0,1-2.36-1.31,4.73,4.73,0,0,1-.56-1.51,9.91,9.91,0,0,1-.18-2c0-.32,0-0.66,0-1A7.34,7.34,0,0,1,71.64.27a5.49,5.49,0,0,1,.35-1,3.27,3.27,0,0,1,.56-0.86,2.56,2.56,0,0,1,.83-0.59,2.71,2.71,0,0,1,1.13-.22,2.68,2.68,0,0,1,1.13.22,2.6,2.6,0,0,1,.82.59A3.15,3.15,0,0,1,77-.74a5.72,5.72,0,0,1,.34,1,7.63,7.63,0,0,1,.17,1.07q0,0.54,0,1a9.73,9.73,0,0,1-.18,2,4.78,4.78,0,0,1-.56,1.51,2.75,2.75,0,0,1-1,1A2.66,2.66,0,0,1,74.52,7.14Zm0-8A1.09,1.09,0,0,0,74-.7a1.29,1.29,0,0,0-.46.53,3.55,3.55,0,0,0-.31,1,8.62,8.62,0,0,0-.11,1.53,8.71,8.71,0,0,0,.11,1.54,3.45,3.45,0,0,0,.31,1,1.29,1.29,0,0,0,.46.53,1.1,1.1,0,0,0,1.13,0,1.3,1.3,0,0,0,.46-0.53,3.49,3.49,0,0,0,.31-1A8.69,8.69,0,0,0,76,2.36,8.6,8.6,0,0,0,75.85.83a3.58,3.58,0,0,0-.31-1A1.3,1.3,0,0,0,75.08-.7,1.1,1.1,0,0,0,74.52-.85Z" transform="translate(-6.45 7.69)"/><path class="cls-2" d="M83.24,1.91a1.78,1.78,0,0,1-.71.56,2.47,2.47,0,0,1-1,.17,2.41,2.41,0,0,1-1-.19,1.85,1.85,0,0,1-.68-0.53,2.15,2.15,0,0,1-.39-0.8,4,4,0,0,1-.12-1,4,4,0,0,1,.12-1,2.25,2.25,0,0,1,.39-0.82,1.91,1.91,0,0,1,.68-0.56,2.29,2.29,0,0,1,1-.2,2.25,2.25,0,0,1,1,.2,1.92,1.92,0,0,1,.68.56,2.34,2.34,0,0,1,.4.82,3.82,3.82,0,0,1,.13,1,3.75,3.75,0,0,1-.13,1A2.14,2.14,0,0,1,83.24,1.91ZM81.56-1A0.57,0.57,0,0,0,81-.76a1.67,1.67,0,0,0-.17.87A1.94,1.94,0,0,0,81,.89a0.54,0.54,0,0,0,.53.34A0.55,0.55,0,0,0,82.05,1,1.67,1.67,0,0,0,82.22.11a1.66,1.66,0,0,0-.17-0.87A0.55,0.55,0,0,0,81.56-1ZM82.88,7a0.25,0.25,0,0,1-.14.14,0.79,0.79,0,0,1-.22,0H81.44a0.39,0.39,0,0,1-.23-0.05s0-.11,0-0.23l5.17-9.36a0.33,0.33,0,0,1,.11-0.12,0.42,0.42,0,0,1,.17,0h1.25a0.3,0.3,0,0,1,.25.07,0.28,0.28,0,0,1-.05.25Zm6.53-.73a1.78,1.78,0,0,1-.71.56,2.49,2.49,0,0,1-1,.17,2.41,2.41,0,0,1-1-.19A1.84,1.84,0,0,1,86,6.31a2.14,2.14,0,0,1-.39-0.8,4,4,0,0,1-.12-1,4,4,0,0,1,.12-1A2.26,2.26,0,0,1,86,2.69a1.91,1.91,0,0,1,.68-0.56,2.29,2.29,0,0,1,1-.2,2.25,2.25,0,0,1,1,.2,1.91,1.91,0,0,1,.68.56,2.36,2.36,0,0,1,.4.82,3.82,3.82,0,0,1,.13,1,3.75,3.75,0,0,1-.13,1A2.13,2.13,0,0,1,89.41,6.31ZM87.73,3.38a0.58,0.58,0,0,0-.52.26,1.68,1.68,0,0,0-.17.87,2,2,0,0,0,.15.79,0.54,0.54,0,0,0,.53.34,0.55,0.55,0,0,0,.49-0.26,1.67,1.67,0,0,0,.17-0.87,1.67,1.67,0,0,0-.17-0.87A0.55,0.55,0,0,0,87.73,3.38Z" transform="translate(-6.45 7.69)"/></svg>