<svg id="레이어_1" data-name="레이어 1" xmlns="http://www.w3.org/2000/svg" width="320" height="208" viewBox="0 0 320 208">
  <defs>
    <style>
      .cls-1, .cls-3 {
        fill: #fff;
      }

      .cls-1 {
        opacity: 0;
      }

      .cls-2 {
        fill: #dcaf57;
        stroke: #dcaf57;
      }

      .cls-2, .cls-3 {
        stroke-miterlimit: 10;
      }

      .cls-3 {
        stroke: #bcbcbc;
      }

      .cls-4 {
        fill: #010101;
      }
    </style>
  </defs>
  <title>helpText2</title>
  <g>
    <rect class="cls-1" width="320" height="208"/>
    <path class="cls-2" d="M175.85,55.76a.88.88,0,0,0-1-1h-1.3a.88.88,0,0,0-1,1V56"/>
    <path class="cls-2" d="M115.42,84.49a.88.88,0,0,0-1,1h0v.11h0v1.2h0a.88.88,0,0,0,1,1"/>
    <path class="cls-2" d="M204.58,116.18a.91.91,0,0,0,1-1h0V114h0v-.13a.91.91,0,0,0-.81-1h-.19v3.36h-.21"/>
    <path class="cls-2" d="M204.58,87.85a.88.88,0,0,0,1-1h0v-1.3a.88.88,0,0,0-1-1"/>
    <path class="cls-2" d="M204.58,102a.88.88,0,0,0,1-1h0V99.7a.88.88,0,0,0-1-1"/>
    <path class="cls-2" d="M115.42,98.66a.91.91,0,0,0-1,1h0V101a.91.91,0,0,0,.81,1h.19"/>
    <path class="cls-2" d="M154.59,55.76a.91.91,0,0,0-.81-1h-1.49a.88.88,0,0,0-1,1V56"/>
    <path class="cls-2" d="M115.42,105.74a.91.91,0,0,0-1,1h0V108a.91.91,0,0,0,.81,1h.19"/>
    <path class="cls-2" d="M115.42,112.83a.91.91,0,0,0-1,1h0v1.3a.91.91,0,0,0,.81,1h.19"/>
    <path class="cls-2" d="M147.51,55.76a.88.88,0,0,0-1-1H145.2a.88.88,0,0,0-1,1V56"/>
    <path class="cls-2" d="M161.68,55.76a.88.88,0,0,0-1-1h-1.3a.88.88,0,0,0-1,1V56"/>
    <path class="cls-2" d="M204.58,94.93a.88.88,0,0,0,1-1V92.6a.88.88,0,0,0-1-1"/>
    <path class="cls-2" d="M204.58,109.1a.88.88,0,0,0,1-1v-1.31a.88.88,0,0,0-1-1"/>
    <path class="cls-2" d="M115.42,91.57a.88.88,0,0,0-1,1v1.3a.88.88,0,0,0,1,1"/>
    <path class="cls-2" d="M165.41,55.76h3.36a.88.88,0,0,0-1-1h-1.3a.88.88,0,0,0-1.06,1Z"/>
    <path class="cls-3" d="M115.52,64.07V136.5a8.21,8.21,0,0,0,8.21,8.21h72.43a8.21,8.21,0,0,0,8.21-8.21h0V64.07a8.21,8.21,0,0,0-8.21-8.21H123.73a8.21,8.21,0,0,0-8.21,8.21Z"/>
    <rect class="cls-4" x="128" y="68" width="64" height="48"/>
  </g>
</svg>
