<svg id="레이어_1" data-name="레이어 1" xmlns="http://www.w3.org/2000/svg" width="210" height="210" viewBox="0 0 210 210"><defs><style>.cls-1,.cls-2,.cls-4{fill:#fff;}.cls-1,.cls-4,.cls-5{stroke:#26cad3;stroke-miterlimit:10;}.cls-1,.cls-5{stroke-width:1.5px;}.cls-2{fill-opacity:0;}.cls-3{fill:#f1f1f1;}.cls-5,.cls-6{fill:#26cad3;}</style></defs><title>helpDialTurn3</title><path class="cls-1" d="M101.28,58.67L62.72,80.93a2.93,2.93,0,0,0,0,5.07l38.56,22.26a7.48,7.48,0,0,0,7.48,0L147.31,86a2.93,2.93,0,0,0,0-5.07L108.76,58.67A7.48,7.48,0,0,0,101.28,58.67Z"/><rect class="cls-2" width="210" height="210"/><path class="cls-3" d="M100.48,99.15l-46.84,27a3.55,3.55,0,0,0,0,6.16l46.85,27a9.08,9.08,0,0,0,9.08,0l46.84-27a3.55,3.55,0,0,0,0-6.16L109.56,99.15A9.08,9.08,0,0,0,100.48,99.15Z"/><path class="cls-1" d="M148.72,121.17V83.46H61.31v37.7a2.91,2.91,0,0,0,1.41,3.06l38.56,22.26a7.48,7.48,0,0,0,7.48,0l38.55-22.26A2.91,2.91,0,0,0,148.72,121.17Z"/><path class="cls-4" d="M148.72,84a2.91,2.91,0,0,0-1.41-3.06L108.76,58.67a7.48,7.48,0,0,0-7.48,0L62.72,80.93A2.91,2.91,0,0,0,61.31,84V94.42a2.91,2.91,0,0,0,1.41,3.06l38.56,22.26a7.48,7.48,0,0,0,7.48,0l38.55-22.26a2.91,2.91,0,0,0,1.41-3.06V84Z"/><path class="cls-5" d="M105,58.77c-13.55,0-25.06,4-29.27,9.48A7.62,7.62,0,0,1,74,63.61c0-7.8,13.88-14.13,31-14.13s31,6.32,31,14.13a7.62,7.62,0,0,1-1.72,4.64C130.07,62.73,118.56,58.77,105,58.77Z"/><path class="cls-4" d="M101.28,58.67L62.72,80.93a2.93,2.93,0,0,0,0,5.07l38.56,22.26a7.48,7.48,0,0,0,7.48,0L147.31,86a2.93,2.93,0,0,0,0-5.07L108.76,58.67A7.48,7.48,0,0,0,101.28,58.67Z"/><path class="cls-4" d="M84.65,57.67v25c0,5.13,9.12,9.28,20.37,9.28s20.37-4.16,20.37-9.28v-25H84.65Z"/><ellipse class="cls-4" cx="105.02" cy="57.67" rx="20.37" ry="9.28"/><path class="cls-4" d="M64.59,98.56v12.89a7.9,7.9,0,0,0,3.79,6l29.55,17.06c2.09,1.2,3.79.48,3.79-1.6V120Z"/><path class="cls-4" d="M96.13,130.73h0a4.69,4.69,0,0,1-2.74-3.9v-6.47c0-1.51,1.23-2.22,2.74-1.58h0a4.69,4.69,0,0,1,2.74,3.9v6.47C98.87,130.65,97.63,131.36,96.13,130.73Z"/><path class="cls-4" d="M70.2,115.79h0a4.69,4.69,0,0,1-2.74-3.9v-6.47c0-1.51,1.23-2.22,2.74-1.58h0a4.69,4.69,0,0,1,2.74,3.9v6.47C72.94,115.71,71.7,116.43,70.2,115.79Z"/><path class="cls-6" d="M89.71,120.28a0.6,0.6,0,0,1-.89.56,1.4,1.4,0,0,1-.89-1.21,0.6,0.6,0,0,1,.89-0.56A1.4,1.4,0,0,1,89.71,120.28Z"/><path class="cls-6" d="M86.88,118.55a0.6,0.6,0,0,1-.89.56,1.4,1.4,0,0,1-.89-1.21,0.6,0.6,0,0,1,.89-0.56A1.4,1.4,0,0,1,86.88,118.55Z"/><path class="cls-6" d="M84,116.81a0.6,0.6,0,0,1-.89.56,1.4,1.4,0,0,1-.89-1.21,0.6,0.6,0,0,1,.89-0.56A1.4,1.4,0,0,1,84,116.81Z"/><path class="cls-6" d="M81.22,115.08a0.6,0.6,0,0,1-.89.56,1.4,1.4,0,0,1-.89-1.21,0.6,0.6,0,0,1,.89-0.56A1.4,1.4,0,0,1,81.22,115.08Z"/><path class="cls-6" d="M78.39,113.35a0.6,0.6,0,0,1-.89.56,1.4,1.4,0,0,1-.89-1.21,0.6,0.6,0,0,1,.89-0.56A1.4,1.4,0,0,1,78.39,113.35Z"/><path class="cls-6" d="M86.88,121.62a0.6,0.6,0,0,1-.89.56A1.4,1.4,0,0,1,85.1,121a0.6,0.6,0,0,1,.89-0.56A1.4,1.4,0,0,1,86.88,121.62Z"/><path class="cls-6" d="M84,119.88a0.6,0.6,0,0,1-.89.56,1.4,1.4,0,0,1-.89-1.21,0.6,0.6,0,0,1,.89-0.56A1.4,1.4,0,0,1,84,119.88Z"/><path class="cls-6" d="M81.22,118.15a0.6,0.6,0,0,1-.89.56,1.4,1.4,0,0,1-.89-1.21,0.6,0.6,0,0,1,.89-0.56A1.4,1.4,0,0,1,81.22,118.15Z"/><path class="cls-4" d="M145.44,98.56v12.89a7.9,7.9,0,0,1-3.79,6l-29.55,17.06c-2.09,1.2-3.79.48-3.79-1.6V120Z"/><path class="cls-4" d="M113.9,130.73h0a4.69,4.69,0,0,0,2.74-3.9v-6.47c0-1.51-1.23-2.22-2.74-1.58h0a4.69,4.69,0,0,0-2.74,3.9v6.47C111.16,130.65,112.4,131.36,113.9,130.73Z"/><path class="cls-4" d="M139.83,115.79h0a4.69,4.69,0,0,0,2.74-3.9v-6.47c0-1.51-1.23-2.22-2.74-1.58h0a4.69,4.69,0,0,0-2.74,3.9v6.47C137.09,115.71,138.33,116.43,139.83,115.79Z"/><path class="cls-6" d="M120.33,120.28a0.6,0.6,0,0,0,.89.56,1.4,1.4,0,0,0,.89-1.21,0.6,0.6,0,0,0-.89-0.56A1.4,1.4,0,0,0,120.33,120.28Z"/><path class="cls-6" d="M123.15,118.55a0.6,0.6,0,0,0,.89.56,1.4,1.4,0,0,0,.89-1.21,0.6,0.6,0,0,0-.89-0.56A1.4,1.4,0,0,0,123.15,118.55Z"/><path class="cls-6" d="M126,116.81a0.6,0.6,0,0,0,.89.56,1.4,1.4,0,0,0,.89-1.21,0.6,0.6,0,0,0-.89-0.56A1.4,1.4,0,0,0,126,116.81Z"/><path class="cls-6" d="M128.81,115.08a0.6,0.6,0,0,0,.89.56,1.4,1.4,0,0,0,.89-1.21,0.6,0.6,0,0,0-.89-0.56A1.4,1.4,0,0,0,128.81,115.08Z"/><path class="cls-6" d="M131.64,113.35a0.6,0.6,0,0,0,.89.56,1.4,1.4,0,0,0,.89-1.21,0.6,0.6,0,0,0-.89-0.56A1.4,1.4,0,0,0,131.64,113.35Z"/><path class="cls-6" d="M123.15,121.62a0.6,0.6,0,0,0,.89.56,1.4,1.4,0,0,0,.89-1.21,0.6,0.6,0,0,0-.89-0.56A1.4,1.4,0,0,0,123.15,121.62Z"/><path class="cls-6" d="M126,119.88a0.6,0.6,0,0,0,.89.56,1.4,1.4,0,0,0,.89-1.21,0.6,0.6,0,0,0-.89-0.56A1.4,1.4,0,0,0,126,119.88Z"/><path class="cls-6" d="M128.81,118.15a0.6,0.6,0,0,0,.89.56,1.4,1.4,0,0,0,.89-1.21,0.6,0.6,0,0,0-.89-0.56A1.4,1.4,0,0,0,128.81,118.15Z"/><ellipse class="cls-6" cx="137.1" cy="83.17" rx="2.36" ry="1.07"/><path class="cls-6" d="M94.83,63.49l5.28-3a0.9,0.9,0,0,0,0-1.57h0a0.9,0.9,0,0,0-.9,0l-5.28,3a0.9,0.9,0,0,0,0,1.57h0A0.9,0.9,0,0,0,94.83,63.49Z"/><path class="cls-1" d="M75.74,68.25c2.93,3.84,9.41,6.93,17.64,8.45V86C82,83.89,74,78.82,74,72.89V63.61A8.6,8.6,0,0,0,75.74,68.25Z"/><path class="cls-1" d="M101.24,82.1s11.42-5.59,19.09-13.2v7c6.47-1.68,11.48-4.39,14-7.64A8.26,8.26,0,0,0,136,63.61v9.28c0,5.26-6.32,9.84-15.68,12.27v7.75S108.44,88.9,101.24,82.1Z"/></svg>