<svg id="레이어_1" data-name="레이어 1" xmlns="http://www.w3.org/2000/svg" width="210" height="210" viewBox="0 0 210 210"><defs><style>.cls-1,.cls-2,.cls-5{fill:#fff;}.cls-1{opacity:0;}.cls-10,.cls-11,.cls-2,.cls-4,.cls-5,.cls-7,.cls-8,.cls-9{stroke:#26cad3;}.cls-2,.cls-4,.cls-5,.cls-7,.cls-8{stroke-miterlimit:10;}.cls-2,.cls-4{stroke-width:1.5px;}.cls-3{fill:#f1f1f1;}.cls-10,.cls-11,.cls-4,.cls-8,.cls-9{fill:none;}.cls-6,.cls-7{fill:#26cad3;}.cls-10,.cls-11,.cls-9{stroke-linecap:round;stroke-linejoin:round;stroke-width:2px;}.cls-10{stroke-dasharray:3.09 5.16;}.cls-11{stroke-dasharray:3.07 5.12;}</style></defs><title>helpInfraredDistance</title><rect class="cls-1" width="210" height="210"/><path class="cls-2" d="M93.63,73.55a2.67,2.67,0,0,0,0-.29l0-12.9s0-.05,0-0.08v0h0a2.57,2.57,0,0,0-1.29-2.18l-9.79-5.65L71.14,59,58,51.44a6.65,6.65,0,0,0-6.65,0L34.49,61.19,17.09,71.24a2.25,2.25,0,0,0-.29.23,2.56,2.56,0,0,0-1,2.09h0a2.65,2.65,0,0,0,0,.41v9.28A2.59,2.59,0,0,0,17.09,86l34.29,19.8a6.65,6.65,0,0,0,6.65,0L92.34,86a2.59,2.59,0,0,0,1.25-2.72l0-9.46C93.62,73.71,93.63,73.63,93.63,73.55Zm-77.4,1.37s-0.08-.09-0.1-0.14S16.21,74.88,16.24,74.93Zm0.3,0.39a2.64,2.64,0,0,0,.56.43A2.62,2.62,0,0,1,16.53,75.32Z" transform="translate(3.6)"/><path class="cls-3" d="M58.75,87.45l41.67,24.06a3.16,3.16,0,0,1,0,5.48L58.75,141a8.08,8.08,0,0,1-8.08,0L9,117a3.16,3.16,0,0,1,0-5.48L50.67,87.45A8.08,8.08,0,0,1,58.75,87.45Z" transform="translate(3.6)"/><path class="cls-4" d="M15.84,83.24V74a2.63,2.63,0,0,1,.17-1.5l0-.06a2.54,2.54,0,0,1,.14-0.26l0.06-.1,0.16-.21,0.08-.1,0.19-.19,0.09-.08a2.68,2.68,0,0,1,.33-0.23h0L51.39,51.44a6.65,6.65,0,0,1,3.33-.89h0.05a6.64,6.64,0,0,1,3.27.89l5.62,3.25L92.34,71.24a2.67,2.67,0,0,1,.33.23l0.09,0.08L93,71.74,93,71.83,93.2,72l0.06,0.09a2.55,2.55,0,0,1,.14.26l0,0.06a2.63,2.63,0,0,1,.17,1.5v9.28a2.66,2.66,0,0,1,0,.9V107a2.59,2.59,0,0,1-1.25,2.72L58,129.55a6.65,6.65,0,0,1-6.65,0l-34.29-19.8A2.59,2.59,0,0,1,15.84,107V84.15A2.66,2.66,0,0,1,15.84,83.24Z" transform="translate(3.6)"/><path class="cls-2" d="M15.84,107V73.49H93.59V107a2.59,2.59,0,0,1-1.25,2.72L58,129.55a6.65,6.65,0,0,1-6.65,0l-34.29-19.8A2.59,2.59,0,0,1,15.84,107Z" transform="translate(3.6)"/><path class="cls-5" d="M90.67,86.92V98.39a7,7,0,0,1-3.37,5.32L61,118.88c-1.86,1.07-3.37.43-3.37-1.43V106Z" transform="translate(3.6)"/><path class="cls-5" d="M18.76,86.92V98.39a7,7,0,0,0,3.37,5.32l26.29,15.18c1.86,1.07,3.37.43,3.37-1.43V106Z" transform="translate(3.6)"/><path class="cls-5" d="M46.81,115.53h0a4.17,4.17,0,0,1-2.44-3.47v-5.76c0-1.34,1.1-2,2.44-1.41h0a4.17,4.17,0,0,1,2.44,3.47v5.76C49.25,115.47,48.15,116.1,46.81,115.53Z" transform="translate(3.6)"/><path class="cls-5" d="M23.75,102.25h0a4.17,4.17,0,0,1-2.44-3.47V93c0-1.34,1.1-2,2.44-1.41h0a4.17,4.17,0,0,1,2.44,3.47v5.76C26.18,102.18,25.09,102.81,23.75,102.25Z" transform="translate(3.6)"/><path class="cls-6" d="M41.1,106.24a0.53,0.53,0,0,1-.79.5,1.25,1.25,0,0,1-.79-1.07,0.53,0.53,0,0,1,.79-0.5A1.25,1.25,0,0,1,41.1,106.24Z" transform="translate(3.6)"/><path class="cls-6" d="M38.58,104.7a0.53,0.53,0,0,1-.79.5,1.25,1.25,0,0,1-.79-1.07,0.53,0.53,0,0,1,.79-0.5A1.25,1.25,0,0,1,38.58,104.7Z" transform="translate(3.6)"/><path class="cls-6" d="M36.07,103.16a0.53,0.53,0,0,1-.79.5,1.25,1.25,0,0,1-.79-1.07,0.53,0.53,0,0,1,.79-0.5A1.25,1.25,0,0,1,36.07,103.16Z" transform="translate(3.6)"/><path class="cls-6" d="M33.55,101.62a0.53,0.53,0,0,1-.79.5A1.25,1.25,0,0,1,32,101a0.53,0.53,0,0,1,.79-0.5A1.25,1.25,0,0,1,33.55,101.62Z" transform="translate(3.6)"/><path class="cls-6" d="M31,100.07a0.53,0.53,0,0,1-.79.5,1.25,1.25,0,0,1-.79-1.07,0.53,0.53,0,0,1,.79-0.5A1.25,1.25,0,0,1,31,100.07Z" transform="translate(3.6)"/><path class="cls-6" d="M38.58,107.43a0.53,0.53,0,0,1-.79.5,1.25,1.25,0,0,1-.79-1.07,0.53,0.53,0,0,1,.79-0.5A1.25,1.25,0,0,1,38.58,107.43Z" transform="translate(3.6)"/><path class="cls-6" d="M36.07,105.89a0.53,0.53,0,0,1-.79.5,1.25,1.25,0,0,1-.79-1.07,0.53,0.53,0,0,1,.79-0.5A1.25,1.25,0,0,1,36.07,105.89Z" transform="translate(3.6)"/><path class="cls-6" d="M33.55,104.35a0.53,0.53,0,0,1-.79.5,1.25,1.25,0,0,1-.79-1.07,0.53,0.53,0,0,1,.79-0.5A1.25,1.25,0,0,1,33.55,104.35Z" transform="translate(3.6)"/><path class="cls-5" d="M58,51.44l34.3,19.8a2.6,2.6,0,0,1,0,4.51L58,95.55a6.65,6.65,0,0,1-6.65,0L17.09,75.75a2.6,2.6,0,0,1,0-4.51L51.39,51.44A6.65,6.65,0,0,1,58,51.44Z" transform="translate(3.6)"/><ellipse class="cls-6" cx="29.78" cy="73.23" rx="2.1" ry="0.96"/><path class="cls-5" d="M35.48,60.63L17.09,71.24a2.61,2.61,0,0,0-.51.4,2.62,2.62,0,0,1,.52-0.4Z" transform="translate(3.6)"/><path class="cls-5" d="M93.61,73.78c0-.08,0-0.15,0-0.23s0,0.1,0,.15l0-13.46L42.7,77.2s-2-1.88-3.57.84l-3.3,6.21s-1.15,1.61-3.39.32L17.09,75.75a2.57,2.57,0,0,1-1.29-2.2,2.65,2.65,0,0,0,0,.41v9.28A2.59,2.59,0,0,0,17.09,86l34.29,19.8a6.65,6.65,0,0,0,6.65,0L92.34,86a2.59,2.59,0,0,0,1.25-2.72Z" transform="translate(3.6)"/><path class="cls-5" d="M92.34,58.07l-9.79-5.65L41.19,76.3,41,76.39l10.38,6a6.65,6.65,0,0,0,6.65,0l34.3-19.8A2.6,2.6,0,0,0,92.34,58.07Z" transform="translate(3.6)"/><path class="cls-5" d="M197.27,110.71l-82.72,47.76-0.36.18" transform="translate(3.6)"/><path class="cls-7" d="M52.15,67.19l-11-6.34A4.13,4.13,0,1,0,37,68L43.88,72Z" transform="translate(3.6)"/><path class="cls-8" d="M66.84,81.16h0l0,0a11.05,11.05,0,0,1,1-.56l10.88-6.35a10.24,10.24,0,0,1,1.61-.76c4.25-1.55,7.69.64,7.69,4.89,0,3.61-2.49,7.54-5.85,9.59h0l-0.23.14-0.1.06L70.78,94.58l-0.3.18-0.13.07h0a10.1,10.1,0,0,1-1.31.6c-4.25,1.55-7.69-.64-7.69-4.89C61.35,87,63.66,83.27,66.84,81.16Z" transform="translate(3.6)"/><path class="cls-7" d="M76.15,85.79l-3.5-2h0a3.55,3.55,0,0,0-3.15-.16A7.06,7.06,0,0,0,65,89.7a3,3,0,0,0,1.63,2.85h0L70.86,95A5.3,5.3,0,1,0,76.15,85.79Z" transform="translate(3.6)"/><path class="cls-5" d="M87.92,78.72l-3.5-2h0a3.55,3.55,0,0,0-3.15-.16,7.06,7.06,0,0,0-4.46,6.09,3,3,0,0,0,1.63,2.85h0l4.21,2.42A5.3,5.3,0,1,0,87.92,78.72Z" transform="translate(3.6)"/><line class="cls-9" x1="91.62" y1="84.44" x2="92.86" y2="85.29"/><line class="cls-10" x1="97.1" y1="88.22" x2="156.13" y2="128.92"/><polyline class="cls-9" points="158.25 130.38 159.49 131.24 158.14 130.59"/><line class="cls-11" x1="153.52" y1="128.37" x2="81.95" y2="94.07"/><line class="cls-9" x1="79.64" y1="92.96" x2="78.29" y2="92.31"/></svg>