<svg id="레이어_1" data-name="레이어 1" xmlns="http://www.w3.org/2000/svg" width="210" height="210" viewBox="0 0 210 210"><defs><style>.cls-1,.cls-3,.cls-4,.cls-6{fill:#fff;}.cls-1{opacity:0;}.cls-2{fill:#f1f1f1;}.cls-10,.cls-11,.cls-3,.cls-4,.cls-7,.cls-8,.cls-9{stroke:#26cad3;stroke-miterlimit:10;}.cls-11,.cls-3,.cls-7{stroke-width:1.5px;}.cls-10,.cls-11,.cls-5{fill:#26cad3;}.cls-7,.cls-9{fill:#f4f5f5;}.cls-8{fill:none;}</style></defs><title>helpMotorSpeed</title><rect class="cls-1" width="210" height="210"/><path class="cls-2" d="M76.72,90l37.16,21.46a2.82,2.82,0,0,1,0,4.88L76.72,137.8a7.21,7.21,0,0,1-7.21,0L32.36,116.34a2.82,2.82,0,0,1,0-4.88L69.51,90A7.21,7.21,0,0,1,76.72,90Z"/><polyline class="cls-2" points="85.23 128.44 100.69 137.43 102.53 122.89 83.86 128.44"/><path class="cls-3" d="M104.62,108.54V80H38.54v28.5a2.2,2.2,0,0,0,1.07,2.31l29.15,16.83a5.65,5.65,0,0,0,5.65,0l29.15-16.83A2.2,2.2,0,0,0,104.62,108.54Z"/><path class="cls-3" d="M132.79,95.15L161.94,112a2.21,2.21,0,0,1,0,3.83l-29.15,16.83a5.65,5.65,0,0,1-5.65,0L98,115.82A2.21,2.21,0,0,1,98,112l29.15-16.83A5.65,5.65,0,0,1,132.79,95.15Z"/><path class="cls-3" d="M68.76,61.28L39.6,78.12a2.21,2.21,0,0,0,0,3.83L68.76,98.78a5.65,5.65,0,0,0,5.65,0L103.56,82a2.21,2.21,0,0,0,0-3.83L74.41,61.29A5.65,5.65,0,0,0,68.76,61.28Z"/><path class="cls-2" d="M133.61,122.63l37.16,21.46a2.82,2.82,0,0,1,0,4.88l-37.16,21.46a7.21,7.21,0,0,1-7.21,0L89.25,149a2.82,2.82,0,0,1,0-4.88l37.15-21.46A7.21,7.21,0,0,1,133.61,122.63Z"/><path class="cls-4" d="M104.62,80.43a2.2,2.2,0,0,0-1.07-2.31L74.41,61.29a5.65,5.65,0,0,0-5.65,0L39.6,78.12a2.2,2.2,0,0,0-1.07,2.31v7.89a2.2,2.2,0,0,0,1.07,2.31l29.15,16.83a5.65,5.65,0,0,0,5.65,0l29.15-16.83a2.2,2.2,0,0,0,1.07-2.31V80.43Z"/><polygon class="cls-3" points="38.54 80.02 38.54 80.03 71.58 99.11 104.62 80.03 104.62 80.02 71.58 60.95 38.54 80.02"/><path class="cls-4" d="M41,91.44v9.75a6,6,0,0,0,2.87,4.52l22.34,12.9c1.58,0.91,2.87.37,2.87-1.21v-9.75Z"/><path class="cls-4" d="M64.86,115.76h0a3.54,3.54,0,0,1-2.07-2.95v-4.89c0-1.14.93-1.68,2.07-1.2h0a3.54,3.54,0,0,1,2.07,2.95v4.89C66.93,115.71,66,116.24,64.86,115.76Z"/><path class="cls-4" d="M45.26,104.47h0a3.54,3.54,0,0,1-2.07-2.95V96.63c0-1.14.93-1.68,2.07-1.2h0a3.54,3.54,0,0,1,2.07,2.95v4.89C47.33,104.41,46.4,105,45.26,104.47Z"/><path class="cls-5" d="M60,107.87a0.45,0.45,0,0,1-.67.43,1.06,1.06,0,0,1-.67-0.91,0.45,0.45,0,0,1,.67-0.43A1.06,1.06,0,0,1,60,107.87Z"/><path class="cls-5" d="M57.87,106.55a0.45,0.45,0,0,1-.67.43,1.06,1.06,0,0,1-.67-0.91,0.45,0.45,0,0,1,.67-0.43A1.06,1.06,0,0,1,57.87,106.55Z"/><path class="cls-5" d="M55.73,105.24a0.45,0.45,0,0,1-.67.43,1.06,1.06,0,0,1-.67-0.91,0.45,0.45,0,0,1,.67-0.43A1.06,1.06,0,0,1,55.73,105.24Z"/><path class="cls-5" d="M53.59,103.93a0.45,0.45,0,0,1-.67.43,1.06,1.06,0,0,1-.67-0.91,0.45,0.45,0,0,1,.67-0.43A1.06,1.06,0,0,1,53.59,103.93Z"/><path class="cls-5" d="M51.45,102.62a0.45,0.45,0,0,1-.67.43,1.06,1.06,0,0,1-.67-0.91,0.45,0.45,0,0,1,.67-0.43A1.06,1.06,0,0,1,51.45,102.62Z"/><path class="cls-5" d="M57.87,108.88a0.45,0.45,0,0,1-.67.43,1.06,1.06,0,0,1-.67-0.91A0.45,0.45,0,0,1,57.2,108,1.06,1.06,0,0,1,57.87,108.88Z"/><path class="cls-5" d="M55.73,107.57a0.45,0.45,0,0,1-.67.43,1.06,1.06,0,0,1-.67-0.91,0.45,0.45,0,0,1,.67-0.43A1.06,1.06,0,0,1,55.73,107.57Z"/><path class="cls-5" d="M53.59,106.26a0.45,0.45,0,0,1-.67.43,1.06,1.06,0,0,1-.67-0.91,0.45,0.45,0,0,1,.67-0.43A1.06,1.06,0,0,1,53.59,106.26Z"/><path class="cls-4" d="M102.14,91.44v9.75a6,6,0,0,1-2.87,4.52l-22.34,12.9c-1.58.91-2.87,0.37-2.87-1.21v-9.75Z"/><path class="cls-4" d="M78.3,115.76h0a3.54,3.54,0,0,0,2.07-2.95v-4.89c0-1.14-.93-1.68-2.07-1.2h0a3.54,3.54,0,0,0-2.07,2.95v4.89C76.23,115.71,77.16,116.24,78.3,115.76Z"/><path class="cls-4" d="M97.9,104.47h0a3.54,3.54,0,0,0,2.07-2.95V96.63c0-1.14-.93-1.68-2.07-1.2h0a3.54,3.54,0,0,0-2.07,2.95v4.89C95.83,104.41,96.76,105,97.9,104.47Z"/><path class="cls-5" d="M83.15,107.87a0.45,0.45,0,0,0,.67.43,1.06,1.06,0,0,0,.67-0.91,0.45,0.45,0,0,0-.67-0.43A1.06,1.06,0,0,0,83.15,107.87Z"/><path class="cls-5" d="M85.29,106.55A0.45,0.45,0,0,0,86,107a1.06,1.06,0,0,0,.67-0.91,0.45,0.45,0,0,0-.67-0.43A1.06,1.06,0,0,0,85.29,106.55Z"/><path class="cls-5" d="M87.43,105.24a0.45,0.45,0,0,0,.67.43,1.06,1.06,0,0,0,.67-0.91,0.45,0.45,0,0,0-.67-0.43A1.06,1.06,0,0,0,87.43,105.24Z"/><path class="cls-5" d="M89.57,103.93a0.45,0.45,0,0,0,.67.43,1.06,1.06,0,0,0,.67-0.91,0.45,0.45,0,0,0-.67-0.43A1.06,1.06,0,0,0,89.57,103.93Z"/><path class="cls-5" d="M91.71,102.62a0.45,0.45,0,0,0,.67.43,1.06,1.06,0,0,0,.67-0.91,0.45,0.45,0,0,0-.67-0.43A1.06,1.06,0,0,0,91.71,102.62Z"/><path class="cls-5" d="M85.29,108.88a0.45,0.45,0,0,0,.67.43,1.06,1.06,0,0,0,.67-0.91A0.45,0.45,0,0,0,86,108,1.06,1.06,0,0,0,85.29,108.88Z"/><path class="cls-5" d="M87.43,107.57a0.45,0.45,0,0,0,.67.43,1.06,1.06,0,0,0,.67-0.91,0.45,0.45,0,0,0-.67-0.43A1.06,1.06,0,0,0,87.43,107.57Z"/><path class="cls-5" d="M89.57,106.26a0.45,0.45,0,0,0,.67.43,1.06,1.06,0,0,0,.67-0.91,0.45,0.45,0,0,0-.67-0.43A1.06,1.06,0,0,0,89.57,106.26Z"/><path class="cls-4" d="M68.76,61.28L39.6,78.12a2.21,2.21,0,0,0,0,3.83L68.76,98.78a5.65,5.65,0,0,0,5.65,0L103.56,82a2.21,2.21,0,0,0,0-3.83L74.41,61.29A5.65,5.65,0,0,0,68.76,61.28Z"/><ellipse class="cls-6" cx="95.84" cy="79.81" rx="1.78" ry="0.81"/><path class="cls-3" d="M96.9,142.57v-28.5H163v28.5a2.2,2.2,0,0,1-1.07,2.31l-29.15,16.83a5.65,5.65,0,0,1-5.65,0L98,144.89A2.2,2.2,0,0,1,96.9,142.57Z"/><polygon class="cls-7" points="163.01 113.89 163.01 113.9 129.97 132.98 96.92 113.9 96.92 113.89 129.97 94.82 163.01 113.89"/><path class="cls-4" d="M142,141.11c0,2.5,2,3.8,4.53,2.88a7.17,7.17,0,0,0,4.53-6.18c0-2.5-2-3.8-4.53-2.88A7.17,7.17,0,0,0,142,141.11Z"/><path class="cls-4" d="M132.79,95.15L161.94,112a2.21,2.21,0,0,1,0,3.83l-29.15,16.83a5.65,5.65,0,0,1-5.65,0L98,115.82A2.21,2.21,0,0,1,98,112l29.15-16.83A5.65,5.65,0,0,1,132.79,95.15Z"/><path class="cls-4" d="M146.89,137.57a1.73,1.73,0,0,1,1.56.09l7.23,4.07a1.53,1.53,0,0,1,.64,1.34,3.56,3.56,0,0,1-2.25,3.07,2.19,2.19,0,0,1-1.44,0l-0.22-.12-7-4.15a1.47,1.47,0,0,1-.67-1.33A3.46,3.46,0,0,1,146.89,137.57Z"/><path class="cls-4" d="M151.82,144.71a1.52,1.52,0,0,0,2.25,1.43,3.56,3.56,0,0,0,2.25-3.07,1.53,1.53,0,0,0-.64-1.34,1.78,1.78,0,0,0-1.61-.09A3.56,3.56,0,0,0,151.82,144.71Z"/><polygon class="cls-8" points="78.61 80.62 69.93 75.66 80.09 69.8 88.77 74.76 78.61 80.62"/><line class="cls-9" x1="74.01" y1="77.99" x2="77.61" y2="75.75"/><polygon class="cls-7" points="121.14 111.37 131.91 104.95 127.78 102.45 117.02 108.86 121.14 111.37"/><path class="cls-10" d="M129.18,104.51V79.11c0-3.24-2.63-7.39-5.87-9.26L90.55,50.94c-3.24-1.87-5.87-.76-5.87,2.48V75.26s1.5,1,2.54.33V57.87c0-2.88-.22-5.24,4.62-2.56L121,72.15c2.88,1.67,5.22,5.35,5.22,8.24v25.42C129.68,106.5,129.18,104.51,129.18,104.51Z"/><path class="cls-4" d="M127.41,105.59V80.19c0-3.24-2.63-7.39-5.87-9.26L88.78,52c-3.24-1.87-5.87-.76-5.87,2.48V76.34s1.5,1,2.54.33V58.95c0-2.88-.22-5.24,4.62-2.56l29.17,16.84c2.88,1.67,5.22,5.35,5.22,8.24v25.42C127.92,107.58,127.41,105.59,127.41,105.59Z"/><path class="cls-4" d="M125.65,106.67V81.27c0-3.24-2.63-7.39-5.87-9.26L87,53.1c-3.24-1.87-5.87-.76-5.87,2.48V77.42s1.5,1,2.54.33V60c0-2.88-.22-5.24,4.62-2.56l29.17,16.84c2.88,1.67,5.22,5.35,5.22,8.24V108C126.15,108.66,125.65,106.67,125.65,106.67Z"/><path class="cls-4" d="M123.88,107.75V82.35c0-3.24-2.63-7.39-5.87-9.26L85.25,54.18c-3.24-1.87-5.87-.76-5.87,2.48V78.5s1.5,1,2.54.33V61.11c0-2.88-.22-5.24,4.62-2.56l29.17,16.84c2.88,1.67,5.22,5.35,5.22,8.24V109C124.38,109.74,123.88,107.75,123.88,107.75Z"/><path class="cls-4" d="M122.11,108.83V83.43c0-3.24-2.63-7.39-5.87-9.26L83.48,55.26c-3.24-1.87-5.87-.76-5.87,2.48V79.58s1.5,1,2.54.33V62.19c0-2.88-.22-5.24,4.62-2.56l29.17,16.84c2.88,1.67,5.22,5.35,5.22,8.24v25C122.14,110.82,122.11,108.83,122.11,108.83Z"/><path class="cls-3" d="M148.23,158.09c-4.69,1.71-9,1.56-12.27-.06,2.82,5.88,9.59,8.28,17.51,5.39a24.58,24.58,0,0,0,2.79-1.22l-7.48-4.32Z"/><path class="cls-3" d="M178.82,144.66L172.09,141a20.68,20.68,0,0,0,.28-3.35c0-5.76-2.58-10-6.64-12a15.24,15.24,0,0,1,1.4,6.63,21.87,21.87,0,0,1-.76,5.56l-7.22-3.95c2,7.71,0,19.45,0,19.45C170.16,151.56,178.82,144.66,178.82,144.66Z"/><path class="cls-11" d="M165.73,125.66a8,8,0,0,1,2.17,1.4l-4.14-4.31c-3.41-3.67-9.1-4.82-15.53-2.48-10.44,3.8-18.91,15.35-18.91,25.79,0,4.59,1.64,8.19,4.36,10.47h0l5.18,5.28s-2.92-3.61-3.73-6a16.48,16.48,0,0,1-.57-4.39c0-10.44,8.47-22,18.91-25.79a17.65,17.65,0,0,1,8.55-1.06h0a14.57,14.57,0,0,1,3.18.88l0.54,0.24h0Z"/><ellipse class="cls-5" cx="95.91" cy="80.01" rx="1.79" ry="0.81"/></svg>