<svg id="레이어_1" data-name="레이어 1" xmlns="http://www.w3.org/2000/svg" width="210" height="210" viewBox="0 0 210 210">
  <defs>
    <style>
      .cls-1, .cls-4, .cls-5 {
        fill: #fff;
      }

      .cls-1 {
        fill-opacity: 0;
      }

      .cls-2 {
        fill: #f1f1f1;
      }

      .cls-3 {
        fill: none;
      }

      .cls-3, .cls-4, .cls-5 {
        stroke: #26cad3;
        stroke-miterlimit: 10;
      }

      .cls-3, .cls-4 {
        stroke-width: 1.5px;
      }

      .cls-6 {
        fill: #26cad3;
      }
    </style>
  </defs>
  <title>helpButton2</title>
  <rect class="cls-1" width="210" height="210"/>
  <path class="cls-2" d="M99.82,113.2L47,143.7a4,4,0,0,0,0,6.94l52.82,30.5a10.24,10.24,0,0,0,10.24,0l52.81-30.49a4,4,0,0,0,0-6.94l-52.81-30.5A10.24,10.24,0,0,0,99.82,113.2Z"/>
  <path class="cls-3" d="M154.22,107.87V96.11a3.34,3.34,0,0,0-.21-1.9l0-.08a3.23,3.23,0,0,0-.17-0.33l-0.08-.12-0.2-.26-0.11-.12-0.25-.24-0.12-.1a3.39,3.39,0,0,0-.41-0.29h0L109.16,67.55a8.43,8.43,0,0,0-4.22-1.13h-0.07a8.42,8.42,0,0,0-4.15,1.13l-7.13,4.12-36.35,21a3.39,3.39,0,0,0-.42.29l-0.11.1-0.25.24-0.11.12-0.2.27-0.08.12a3.23,3.23,0,0,0-.17.33l0,0.08a3.34,3.34,0,0,0-.21,1.9v11.77a3.37,3.37,0,0,0,0,1.14v29a3.28,3.28,0,0,0,1.59,3.45l43.48,25.1a8.43,8.43,0,0,0,8.43,0l43.47-25.1a3.28,3.28,0,0,0,1.59-3.45V109A3.37,3.37,0,0,0,154.22,107.87Z"/>
  <path class="cls-4" d="M154.22,138V95.51H55.65V138a3.28,3.28,0,0,0,1.59,3.45l43.48,25.1a8.43,8.43,0,0,0,8.43,0l43.47-25.1A3.28,3.28,0,0,0,154.22,138Z"/>
  <path class="cls-5" d="M154.22,96.11a3.28,3.28,0,0,0-1.59-3.45L109.16,67.55a8.43,8.43,0,0,0-8.43,0L57.24,92.66a3.28,3.28,0,0,0-1.59,3.45v11.76a3.28,3.28,0,0,0,1.59,3.45l43.48,25.1a8.43,8.43,0,0,0,8.43,0l43.47-25.1a3.28,3.28,0,0,0,1.59-3.45V96.11Z"/>
  <path class="cls-5" d="M59.35,112.53v14.54c0,2.35,1.93,5.39,4.28,6.75L97,153.05c2.35,1.36,4.28.54,4.28-1.81V136.71Z"/>
  <g>
    <path class="cls-5" d="M94.91,148.81h0a5.29,5.29,0,0,1-3.09-4.4v-7.3c0-1.7,1.39-2.5,3.09-1.78h0a5.29,5.29,0,0,1,3.09,4.4V147C98,148.72,96.61,149.52,94.91,148.81Z"/>
    <path class="cls-5" d="M65.67,132h0a5.29,5.29,0,0,1-3.09-4.4v-7.3c0-1.7,1.39-2.5,3.09-1.78h0a5.29,5.29,0,0,1,3.09,4.4v7.3C68.76,131.88,67.37,132.68,65.67,132Z"/>
  </g>
  <g>
    <path class="cls-6" d="M87.67,137a0.68,0.68,0,0,1-1,.64,1.58,1.58,0,0,1-1-1.36,0.68,0.68,0,0,1,1-.64A1.58,1.58,0,0,1,87.67,137Z"/>
    <path class="cls-6" d="M84.48,135.07a0.68,0.68,0,0,1-1,.64,1.58,1.58,0,0,1-1-1.36,0.68,0.68,0,0,1,1-.64A1.58,1.58,0,0,1,84.48,135.07Z"/>
    <path class="cls-6" d="M81.29,133.12a0.68,0.68,0,0,1-1,.64,1.58,1.58,0,0,1-1-1.36,0.68,0.68,0,0,1,1-.64A1.58,1.58,0,0,1,81.29,133.12Z"/>
    <path class="cls-6" d="M78.1,131.16a0.68,0.68,0,0,1-1,.64,1.58,1.58,0,0,1-1-1.36,0.68,0.68,0,0,1,1-.64A1.58,1.58,0,0,1,78.1,131.16Z"/>
    <path class="cls-6" d="M74.91,129.21a0.68,0.68,0,0,1-1,.64,1.58,1.58,0,0,1-1-1.36,0.68,0.68,0,0,1,1-.64A1.58,1.58,0,0,1,74.91,129.21Z"/>
    <path class="cls-6" d="M84.48,138.54a0.68,0.68,0,0,1-1,.64,1.58,1.58,0,0,1-1-1.36,0.68,0.68,0,0,1,1-.64A1.58,1.58,0,0,1,84.48,138.54Z"/>
    <path class="cls-6" d="M81.29,136.58a0.68,0.68,0,0,1-1,.64,1.58,1.58,0,0,1-1-1.36,0.68,0.68,0,0,1,1-.64A1.58,1.58,0,0,1,81.29,136.58Z"/>
    <path class="cls-6" d="M78.1,134.63a0.68,0.68,0,0,1-1,.64,1.58,1.58,0,0,1-1-1.36,0.68,0.68,0,0,1,1-.64A1.58,1.58,0,0,1,78.1,134.63Z"/>
  </g>
  <path class="cls-5" d="M150.52,112.53v14.54c0,2.35-1.93,5.39-4.28,6.75l-33.32,19.24c-2.35,1.36-4.28.54-4.28-1.81V136.71Z"/>
  <g>
    <path class="cls-5" d="M115,148.81h0a5.29,5.29,0,0,0,3.09-4.4v-7.3c0-1.7-1.39-2.5-3.09-1.78h0a5.29,5.29,0,0,0-3.09,4.4V147C111.87,148.72,113.26,149.52,115,148.81Z"/>
    <path class="cls-5" d="M144.2,132h0a5.29,5.29,0,0,0,3.09-4.4v-7.3c0-1.7-1.39-2.5-3.09-1.78h0a5.29,5.29,0,0,0-3.09,4.4v7.3C141.11,131.88,142.5,132.68,144.2,132Z"/>
  </g>
  <g>
    <path class="cls-6" d="M122.2,137a0.68,0.68,0,0,0,1,.64,1.58,1.58,0,0,0,1-1.36,0.68,0.68,0,0,0-1-.64A1.58,1.58,0,0,0,122.2,137Z"/>
    <path class="cls-6" d="M125.39,135.07a0.68,0.68,0,0,0,1,.64,1.58,1.58,0,0,0,1-1.36,0.68,0.68,0,0,0-1-.64A1.58,1.58,0,0,0,125.39,135.07Z"/>
    <path class="cls-6" d="M128.58,133.12a0.68,0.68,0,0,0,1,.64,1.58,1.58,0,0,0,1-1.36,0.68,0.68,0,0,0-1-.64A1.58,1.58,0,0,0,128.58,133.12Z"/>
    <path class="cls-6" d="M131.77,131.16a0.68,0.68,0,0,0,1,.64,1.58,1.58,0,0,0,1-1.36,0.68,0.68,0,0,0-1-.64A1.58,1.58,0,0,0,131.77,131.16Z"/>
    <path class="cls-6" d="M135,129.21a0.68,0.68,0,0,0,1,.64,1.58,1.58,0,0,0,1-1.36,0.68,0.68,0,0,0-1-.64A1.58,1.58,0,0,0,135,129.21Z"/>
    <path class="cls-6" d="M125.39,138.54a0.68,0.68,0,0,0,1,.64,1.58,1.58,0,0,0,1-1.36,0.68,0.68,0,0,0-1-.64A1.58,1.58,0,0,0,125.39,138.54Z"/>
    <path class="cls-6" d="M128.58,136.58a0.68,0.68,0,0,0,1,.64,1.58,1.58,0,0,0,1-1.36,0.68,0.68,0,0,0-1-.64A1.58,1.58,0,0,0,128.58,136.58Z"/>
    <path class="cls-6" d="M131.77,134.63a0.68,0.68,0,0,0,1,.64,1.58,1.58,0,0,0,1-1.36,0.68,0.68,0,0,0-1-.64A1.58,1.58,0,0,0,131.77,134.63Z"/>
  </g>
  <path class="cls-5" d="M100.72,67.55L57.24,92.66a3.3,3.3,0,0,0,0,5.71l43.48,25.1a8.43,8.43,0,0,0,8.43,0l43.47-25.1a3.3,3.3,0,0,0,0-5.71L109.16,67.55A8.43,8.43,0,0,0,100.72,67.55Z"/>
  <ellipse class="cls-6" cx="141.12" cy="95.18" rx="2.66" ry="1.21"/>
  <path class="cls-5" d="M122.78,91.73c-3.06-3.1-9.89-5.27-17.84-5.27S90.16,88.63,87.1,91.73H85.37v3.65c0,4.93,8.76,8.92,19.57,8.92s19.57-4,19.57-8.92V91.73h-1.73Z"/>
  <ellipse class="cls-5" cx="104.94" cy="91.73" rx="19.57" ry="8.92"/>
</svg>
