<svg id="레이어_1" data-name="레이어 1" xmlns="http://www.w3.org/2000/svg" width="210" height="210" viewBox="0 0 210 210"><defs><style>.cls-1,.cls-2,.cls-5,.cls-6,.cls-8,.cls-9{fill:#fff;}.cls-1{opacity:0;}.cls-2{stroke:#fff;}.cls-2,.cls-4,.cls-5,.cls-6,.cls-8,.cls-9{stroke-miterlimit:10;}.cls-2,.cls-4,.cls-5{stroke-width:1.5px;}.cls-3{opacity:0.25;}.cls-11,.cls-4{fill:none;}.cls-11,.cls-4,.cls-5,.cls-6,.cls-8,.cls-9{stroke:#26cad3;}.cls-7{fill:#26cad3;}.cls-8{stroke-width:0.8px;}.cls-11,.cls-9{stroke-linecap:round;}.cls-9{stroke-width:0.5px;}.cls-10{opacity:0.45;}.cls-11{stroke-linejoin:round;stroke-width:2px;stroke-dasharray:3 5;}</style></defs><title>helpGyroY</title><rect class="cls-1" width="210" height="210"/><path class="cls-2" d="M117.73,84.88V77.1a2.21,2.21,0,0,0-.14-1.26l0-.05a2.13,2.13,0,0,0-.11-0.22l-0.05-.08-0.13-.18-0.07-.08L117,75.08,117,75a2.25,2.25,0,0,0-.27-0.19h0L87.91,58.21a5.58,5.58,0,0,0-2.79-.75h0a5.57,5.57,0,0,0-2.75.74l-4.72,2.72L53.57,74.82a2.24,2.24,0,0,0-.28.19l-0.07.07L53,75.23,53,75.31l-0.13.18-0.05.08a2.13,2.13,0,0,0-.12.22l0,0.05a2.21,2.21,0,0,0-.14,1.26v7.78a2.23,2.23,0,0,0,0,.76v19.19a2.17,2.17,0,0,0,1.05,2.28l28.77,16.61a5.58,5.58,0,0,0,5.58,0l28.76-16.61a2.17,2.17,0,0,0,1.05-2.28V85.64A2.23,2.23,0,0,0,117.73,84.88Z" transform="translate(0 -0.52)"/><g class="cls-3"><path class="cls-4" d="M117.73,84.88V77.1a2.21,2.21,0,0,0-.14-1.26l0-.05a2.13,2.13,0,0,0-.11-0.22l-0.05-.08-0.13-.18-0.07-.08L117,75.08,117,75a2.25,2.25,0,0,0-.27-0.19h0L87.92,58.21a5.58,5.58,0,0,0-2.79-.75h0a5.57,5.57,0,0,0-2.75.74l-4.72,2.72L53.57,74.82a2.24,2.24,0,0,0-.28.19l-0.07.07-0.16.16L53,75.31l-0.13.18-0.05.08a2.13,2.13,0,0,0-.12.22l0,0.05a2.21,2.21,0,0,0-.14,1.26v7.78a2.23,2.23,0,0,0,0,.76v19.19a2.17,2.17,0,0,0,1.05,2.28l28.77,16.61a5.58,5.58,0,0,0,5.58,0l28.76-16.61a2.17,2.17,0,0,0,1.05-2.28V85.64A2.23,2.23,0,0,0,117.73,84.88Z" transform="translate(0 -0.52)"/><path class="cls-5" d="M117.73,104.84V76.71H52.52v28.13a2.17,2.17,0,0,0,1.05,2.28l28.77,16.61a5.58,5.58,0,0,0,5.58,0l28.76-16.61A2.17,2.17,0,0,0,117.73,104.84Z" transform="translate(0 -0.52)"/><path class="cls-6" d="M117.73,77.1a2.17,2.17,0,0,0-1.05-2.28L87.92,58.21a5.58,5.58,0,0,0-5.58,0L53.57,74.82a2.17,2.17,0,0,0-1.05,2.28v7.78a2.17,2.17,0,0,0,1.05,2.28l28.77,16.61a5.58,5.58,0,0,0,5.58,0l28.76-16.61a2.17,2.17,0,0,0,1.05-2.28V77.1Z" transform="translate(0 -0.52)"/><path class="cls-6" d="M55,88v9.62A5.89,5.89,0,0,0,57.8,102l22,12.73c1.56,0.9,2.83.36,2.83-1.2V104Z" transform="translate(0 -0.52)"/><path class="cls-6" d="M78.49,112h0a3.5,3.5,0,0,1-2-2.91v-4.83a1.32,1.32,0,0,1,2-1.18h0a3.5,3.5,0,0,1,2,2.91v4.83A1.32,1.32,0,0,1,78.49,112Z" transform="translate(0 -0.52)"/><path class="cls-6" d="M59.15,100.82h0a3.5,3.5,0,0,1-2-2.91V93.09a1.32,1.32,0,0,1,2-1.18h0a3.5,3.5,0,0,1,2,2.91v4.83A1.32,1.32,0,0,1,59.15,100.82Z" transform="translate(0 -0.52)"/><path class="cls-7" d="M73.7,104.17a0.45,0.45,0,0,1-.66.42,1,1,0,0,1-.66-0.9,0.45,0.45,0,0,1,.66-0.42A1,1,0,0,1,73.7,104.17Z" transform="translate(0 -0.52)"/><path class="cls-7" d="M71.59,102.88a0.45,0.45,0,0,1-.66.42,1,1,0,0,1-.66-0.9,0.45,0.45,0,0,1,.66-0.42A1,1,0,0,1,71.59,102.88Z" transform="translate(0 -0.52)"/><path class="cls-7" d="M69.48,101.59a0.45,0.45,0,0,1-.66.42,1,1,0,0,1-.66-0.9,0.45,0.45,0,0,1,.66-0.42A1,1,0,0,1,69.48,101.59Z" transform="translate(0 -0.52)"/><path class="cls-7" d="M67.37,100.29a0.45,0.45,0,0,1-.66.42,1,1,0,0,1-.66-0.9,0.45,0.45,0,0,1,.66-0.42A1,1,0,0,1,67.37,100.29Z" transform="translate(0 -0.52)"/><path class="cls-7" d="M65.26,99a0.45,0.45,0,0,1-.66.42,1,1,0,0,1-.66-0.9,0.45,0.45,0,0,1,.66-0.42A1,1,0,0,1,65.26,99Z" transform="translate(0 -0.52)"/><path class="cls-7" d="M71.59,105.17a0.45,0.45,0,0,1-.66.42,1,1,0,0,1-.66-0.9,0.45,0.45,0,0,1,.66-0.42A1,1,0,0,1,71.59,105.17Z" transform="translate(0 -0.52)"/><path class="cls-7" d="M69.48,103.88a0.45,0.45,0,0,1-.66.42,1,1,0,0,1-.66-0.9,0.45,0.45,0,0,1,.66-0.42A1,1,0,0,1,69.48,103.88Z" transform="translate(0 -0.52)"/><path class="cls-7" d="M67.37,102.58a0.45,0.45,0,0,1-.66.42,1,1,0,0,1-.66-0.9,0.45,0.45,0,0,1,.66-0.42A1,1,0,0,1,67.37,102.58Z" transform="translate(0 -0.52)"/><path class="cls-6" d="M115.28,88v9.62a5.89,5.89,0,0,1-2.83,4.46l-22,12.73c-1.56.9-2.83,0.36-2.83-1.2V104Z" transform="translate(0 -0.52)"/><path class="cls-6" d="M91.76,112h0a3.5,3.5,0,0,0,2-2.91v-4.83a1.32,1.32,0,0,0-2-1.18h0a3.5,3.5,0,0,0-2,2.91v4.83A1.32,1.32,0,0,0,91.76,112Z" transform="translate(0 -0.52)"/><path class="cls-6" d="M111.1,100.82h0a3.5,3.5,0,0,0,2-2.91V93.09a1.32,1.32,0,0,0-2-1.18h0a3.5,3.5,0,0,0-2,2.91v4.83A1.32,1.32,0,0,0,111.1,100.82Z" transform="translate(0 -0.52)"/><path class="cls-7" d="M96.55,104.17a0.45,0.45,0,0,0,.66.42,1,1,0,0,0,.66-0.9,0.45,0.45,0,0,0-.66-0.42A1,1,0,0,0,96.55,104.17Z" transform="translate(0 -0.52)"/><path class="cls-7" d="M98.66,102.88a0.45,0.45,0,0,0,.66.42,1,1,0,0,0,.66-0.9,0.45,0.45,0,0,0-.66-0.42A1,1,0,0,0,98.66,102.88Z" transform="translate(0 -0.52)"/><path class="cls-7" d="M100.77,101.59a0.45,0.45,0,0,0,.66.42,1,1,0,0,0,.66-0.9,0.45,0.45,0,0,0-.66-0.42A1,1,0,0,0,100.77,101.59Z" transform="translate(0 -0.52)"/><path class="cls-7" d="M102.88,100.29a0.45,0.45,0,0,0,.66.42,1,1,0,0,0,.66-0.9,0.45,0.45,0,0,0-.66-0.42A1,1,0,0,0,102.88,100.29Z" transform="translate(0 -0.52)"/><path class="cls-7" d="M105,99a0.45,0.45,0,0,0,.66.42,1,1,0,0,0,.66-0.9,0.45,0.45,0,0,0-.66-0.42A1,1,0,0,0,105,99Z" transform="translate(0 -0.52)"/><path class="cls-7" d="M98.66,105.17a0.45,0.45,0,0,0,.66.42,1,1,0,0,0,.66-0.9,0.45,0.45,0,0,0-.66-0.42A1,1,0,0,0,98.66,105.17Z" transform="translate(0 -0.52)"/><path class="cls-7" d="M100.77,103.88a0.45,0.45,0,0,0,.66.42,1,1,0,0,0,.66-0.9,0.45,0.45,0,0,0-.66-0.42A1,1,0,0,0,100.77,103.88Z" transform="translate(0 -0.52)"/><path class="cls-7" d="M102.88,102.58a0.45,0.45,0,0,0,.66.42,1,1,0,0,0,.66-0.9,0.45,0.45,0,0,0-.66-0.42A1,1,0,0,0,102.88,102.58Z" transform="translate(0 -0.52)"/><path class="cls-6" d="M82.34,58.21L53.57,74.82a2.18,2.18,0,0,0,0,3.78L82.34,95.21a5.58,5.58,0,0,0,5.58,0L116.68,78.6a2.18,2.18,0,0,0,0-3.78L87.92,58.21A5.58,5.58,0,0,0,82.34,58.21Z" transform="translate(0 -0.52)"/><ellipse class="cls-7" cx="109.06" cy="75.97" rx="1.76" ry="0.8"/><ellipse class="cls-8" cx="67.1" cy="71.82" rx="3.83" ry="1.75"/><path class="cls-7" d="M67.87,73.41a0.05,0.05,0,0,1,0,0l0,0-0.35.25-0.07,0a0.07,0.07,0,0,1,0-.05l-0.58-1.2-1.9-.13-0.08,0a0.08,0.08,0,0,1,0-.05l0.33-.24,0,0H65.3l1.36,0.1-0.39-.8a0,0,0,0,1,0,0l0,0L66.63,71l0.08,0a0.06,0.06,0,0,1,0,0l0.53,1.12,2,0.15,0.1,0a0.06,0.06,0,0,1,0,0L69,72.63l0,0H68.92l-1.47-.11Z" transform="translate(0 -0.52)"/><ellipse class="cls-8" cx="67.1" cy="79.81" rx="3.83" ry="1.75"/><path class="cls-7" d="M68.84,81a0.07,0.07,0,0,1,0,0,0.06,0.06,0,0,1,0,0l-0.29.21-0.06,0-0.07,0-1.08-.56-2.22-.2-0.08,0s0,0,0-.05l0.31-.23a0.16,0.16,0,0,1,.11,0l1.65,0.16-0.55-1a0,0,0,0,1,0-.07L67,79.11a0.09,0.09,0,0,1,.08,0,0.1,0.1,0,0,1,0,.05l0.67,1.31Z" transform="translate(0 -0.52)"/><ellipse class="cls-8" cx="60.15" cy="75.81" rx="3.83" ry="1.75"/><path class="cls-7" d="M60.79,77.54a0.11,0.11,0,0,1-.13,0l-0.25-.13,0,0,0,0-0.9-1.63-0.88.64-0.06,0-0.07,0-0.3-.15,0,0a0,0,0,0,1,0,0l1.31-1,0.06,0,0.06,0,0.28,0.15,0,0,0,0L60.78,77l1-.7,0.06,0,0.07,0,0.3,0.15,0,0a0,0,0,0,1,0,0Z" transform="translate(0 -0.52)"/><line class="cls-9" x1="62.48" y1="74.07" x2="63.78" y2="73.29"/><line class="cls-9" x1="63.17" y1="77.41" x2="64.51" y2="78.1"/></g><path class="cls-2" d="M137.27,96.16V88.38a2.21,2.21,0,0,0-.14-1.26l0-.05a2.13,2.13,0,0,0-.11-0.22l-0.05-.08-0.13-.18-0.07-.08-0.16-.16-0.08-.07a2.25,2.25,0,0,0-.27-0.19h0L107.46,69.48a5.58,5.58,0,0,0-2.79-.75h0a5.57,5.57,0,0,0-2.75.74l-4.72,2.72L73.11,86.09a2.24,2.24,0,0,0-.28.19l-0.07.07-0.16.16-0.07.08-0.13.18-0.05.08a2.13,2.13,0,0,0-.12.22l0,0.05a2.21,2.21,0,0,0-.14,1.26v7.78a2.23,2.23,0,0,0,0,.76v19.19a2.17,2.17,0,0,0,1.05,2.28L101.88,135a5.58,5.58,0,0,0,5.58,0l28.76-16.61a2.17,2.17,0,0,0,1.05-2.28V96.92A2.23,2.23,0,0,0,137.27,96.16Z" transform="translate(0 -0.52)"/><g class="cls-10"><path class="cls-4" d="M137.28,96.16V88.38a2.21,2.21,0,0,0-.14-1.26l0-.05a2.13,2.13,0,0,0-.11-0.22l-0.05-.08-0.13-.18-0.07-.08-0.16-.16-0.08-.07a2.25,2.25,0,0,0-.27-0.19h0L107.46,69.48a5.58,5.58,0,0,0-2.79-.75h0a5.57,5.57,0,0,0-2.75.74l-4.72,2.72L73.12,86.09a2.24,2.24,0,0,0-.28.19l-0.07.07-0.16.16-0.07.08-0.13.18-0.05.08a2.13,2.13,0,0,0-.12.22l0,0.05a2.21,2.21,0,0,0-.14,1.26v7.78a2.23,2.23,0,0,0,0,.76v19.19a2.17,2.17,0,0,0,1.05,2.28L101.88,135a5.58,5.58,0,0,0,5.58,0l28.76-16.61a2.17,2.17,0,0,0,1.05-2.28V96.92A2.23,2.23,0,0,0,137.28,96.16Z" transform="translate(0 -0.52)"/><path class="cls-5" d="M137.28,116.11V88H72.06v28.13a2.17,2.17,0,0,0,1.05,2.28L101.88,135a5.58,5.58,0,0,0,5.58,0l28.76-16.61A2.17,2.17,0,0,0,137.28,116.11Z" transform="translate(0 -0.52)"/><path class="cls-6" d="M137.28,88.38a2.17,2.17,0,0,0-1.05-2.28L107.46,69.48a5.58,5.58,0,0,0-5.58,0L73.12,86.09a2.17,2.17,0,0,0-1.05,2.28v7.78a2.17,2.17,0,0,0,1.05,2.28L101.88,115a5.58,5.58,0,0,0,5.58,0l28.76-16.61a2.17,2.17,0,0,0,1.05-2.28V88.38Z" transform="translate(0 -0.52)"/><path class="cls-6" d="M74.51,99.24v9.62a5.89,5.89,0,0,0,2.83,4.46l22,12.73c1.56,0.9,2.83.36,2.83-1.2v-9.62Z" transform="translate(0 -0.52)"/><path class="cls-6" d="M98,123.24h0a3.5,3.5,0,0,1-2-2.91v-4.83a1.32,1.32,0,0,1,2-1.18h0a3.5,3.5,0,0,1,2,2.91v4.83A1.32,1.32,0,0,1,98,123.24Z" transform="translate(0 -0.52)"/><path class="cls-6" d="M78.7,112.1h0a3.5,3.5,0,0,1-2-2.91v-4.83a1.32,1.32,0,0,1,2-1.18h0a3.5,3.5,0,0,1,2,2.91v4.83A1.32,1.32,0,0,1,78.7,112.1Z" transform="translate(0 -0.52)"/><path class="cls-7" d="M93.25,115.45a0.45,0.45,0,0,1-.66.42,1,1,0,0,1-.66-0.9,0.45,0.45,0,0,1,.66-0.42A1,1,0,0,1,93.25,115.45Z" transform="translate(0 -0.52)"/><path class="cls-7" d="M91.14,114.16a0.45,0.45,0,0,1-.66.42,1,1,0,0,1-.66-0.9,0.45,0.45,0,0,1,.66-0.42A1,1,0,0,1,91.14,114.16Z" transform="translate(0 -0.52)"/><path class="cls-7" d="M89,112.86a0.45,0.45,0,0,1-.66.42,1,1,0,0,1-.66-0.9,0.45,0.45,0,0,1,.66-0.42A1,1,0,0,1,89,112.86Z" transform="translate(0 -0.52)"/><path class="cls-7" d="M86.92,111.57a0.45,0.45,0,0,1-.66.42,1,1,0,0,1-.66-0.9,0.45,0.45,0,0,1,.66-0.42A1,1,0,0,1,86.92,111.57Z" transform="translate(0 -0.52)"/><path class="cls-7" d="M84.81,110.28a0.45,0.45,0,0,1-.66.42,1,1,0,0,1-.66-0.9,0.45,0.45,0,0,1,.66-0.42A1,1,0,0,1,84.81,110.28Z" transform="translate(0 -0.52)"/><path class="cls-7" d="M91.14,116.45a0.45,0.45,0,0,1-.66.42,1,1,0,0,1-.66-0.9,0.45,0.45,0,0,1,.66-0.42A1,1,0,0,1,91.14,116.45Z" transform="translate(0 -0.52)"/><path class="cls-7" d="M89,115.15a0.45,0.45,0,0,1-.66.42,1,1,0,0,1-.66-0.9,0.45,0.45,0,0,1,.66-0.42A1,1,0,0,1,89,115.15Z" transform="translate(0 -0.52)"/><path class="cls-7" d="M86.92,113.86a0.45,0.45,0,0,1-.66.42,1,1,0,0,1-.66-0.9,0.45,0.45,0,0,1,.66-0.42A1,1,0,0,1,86.92,113.86Z" transform="translate(0 -0.52)"/><path class="cls-6" d="M134.83,99.24v9.62a5.89,5.89,0,0,1-2.83,4.46l-22,12.73c-1.56.9-2.83,0.36-2.83-1.2v-9.62Z" transform="translate(0 -0.52)"/><path class="cls-6" d="M111.3,123.24h0a3.5,3.5,0,0,0,2-2.91v-4.83a1.32,1.32,0,0,0-2-1.18h0a3.5,3.5,0,0,0-2,2.91v4.83A1.32,1.32,0,0,0,111.3,123.24Z" transform="translate(0 -0.52)"/><path class="cls-6" d="M130.65,112.1h0a3.5,3.5,0,0,0,2-2.91v-4.83a1.32,1.32,0,0,0-2-1.18h0a3.5,3.5,0,0,0-2,2.91v4.83A1.32,1.32,0,0,0,130.65,112.1Z" transform="translate(0 -0.52)"/><path class="cls-7" d="M116.09,115.45a0.45,0.45,0,0,0,.66.42,1,1,0,0,0,.66-0.9,0.45,0.45,0,0,0-.66-0.42A1,1,0,0,0,116.09,115.45Z" transform="translate(0 -0.52)"/><path class="cls-7" d="M118.2,114.16a0.45,0.45,0,0,0,.66.42,1,1,0,0,0,.66-0.9,0.45,0.45,0,0,0-.66-0.42A1,1,0,0,0,118.2,114.16Z" transform="translate(0 -0.52)"/><path class="cls-7" d="M120.31,112.86a0.45,0.45,0,0,0,.66.42,1,1,0,0,0,.66-0.9A0.45,0.45,0,0,0,121,112,1,1,0,0,0,120.31,112.86Z" transform="translate(0 -0.52)"/><path class="cls-7" d="M122.42,111.57a0.45,0.45,0,0,0,.66.42,1,1,0,0,0,.66-0.9,0.45,0.45,0,0,0-.66-0.42A1,1,0,0,0,122.42,111.57Z" transform="translate(0 -0.52)"/><path class="cls-7" d="M124.53,110.28a0.45,0.45,0,0,0,.66.42,1,1,0,0,0,.66-0.9,0.45,0.45,0,0,0-.66-0.42A1,1,0,0,0,124.53,110.28Z" transform="translate(0 -0.52)"/><path class="cls-7" d="M118.2,116.45a0.45,0.45,0,0,0,.66.42,1,1,0,0,0,.66-0.9,0.45,0.45,0,0,0-.66-0.42A1,1,0,0,0,118.2,116.45Z" transform="translate(0 -0.52)"/><path class="cls-7" d="M120.31,115.15a0.45,0.45,0,0,0,.66.42,1,1,0,0,0,.66-0.9,0.45,0.45,0,0,0-.66-0.42A1,1,0,0,0,120.31,115.15Z" transform="translate(0 -0.52)"/><path class="cls-7" d="M122.42,113.86a0.45,0.45,0,0,0,.66.42,1,1,0,0,0,.66-0.9,0.45,0.45,0,0,0-.66-0.42A1,1,0,0,0,122.42,113.86Z" transform="translate(0 -0.52)"/><path class="cls-6" d="M101.88,69.48L73.12,86.09a2.18,2.18,0,0,0,0,3.78l28.77,16.61a5.58,5.58,0,0,0,5.58,0l28.76-16.61a2.18,2.18,0,0,0,0-3.78L107.46,69.48A5.58,5.58,0,0,0,101.88,69.48Z" transform="translate(0 -0.52)"/><ellipse class="cls-7" cx="128.61" cy="87.25" rx="1.76" ry="0.8"/><ellipse class="cls-8" cx="86.64" cy="83.1" rx="3.83" ry="1.75"/><path class="cls-7" d="M87.42,84.68a0.05,0.05,0,0,1,0,0l0,0L87.05,85,87,85a0.07,0.07,0,0,1,0-.05l-0.58-1.2-1.9-.13-0.08,0a0.08,0.08,0,0,1,0-.05l0.33-.24,0,0h0.05l1.36,0.1-0.39-.8a0,0,0,0,1,0,0l0,0,0.33-.24,0.08,0a0.06,0.06,0,0,1,0,0l0.53,1.12,2,0.15,0.1,0a0.06,0.06,0,0,1,0,0l-0.35.25,0,0H88.46L87,83.82Z" transform="translate(0 -0.52)"/><ellipse class="cls-8" cx="86.64" cy="91.08" rx="3.83" ry="1.75"/><path class="cls-7" d="M88.39,92.27a0.07,0.07,0,0,1,0,0,0.06,0.06,0,0,1,0,0l-0.29.21-0.06,0-0.07,0L86.91,92l-2.22-.2-0.08,0s0,0,0-.05L85,91.52a0.16,0.16,0,0,1,.11,0l1.65,0.16-0.55-1a0,0,0,0,1,0-.07l0.33-.24a0.09,0.09,0,0,1,.08,0,0.1,0.1,0,0,1,0,.05l0.67,1.31Z" transform="translate(0 -0.52)"/><ellipse class="cls-8" cx="79.69" cy="87.09" rx="3.83" ry="1.75"/><path class="cls-7" d="M80.34,88.82a0.11,0.11,0,0,1-.13,0L80,88.7l0,0,0,0L79,87l-0.88.64-0.06,0-0.07,0-0.3-.15,0,0a0,0,0,0,1,0,0l1.31-1,0.06,0,0.06,0,0.28,0.15,0,0,0,0,0.86,1.64,1-.7,0.06,0,0.07,0,0.3,0.15,0,0a0,0,0,0,1,0,0Z" transform="translate(0 -0.52)"/><line class="cls-9" x1="82.03" y1="85.34" x2="83.32" y2="84.57"/><line class="cls-9" x1="82.71" y1="88.68" x2="84.06" y2="89.38"/></g><path class="cls-4" d="M152.13,104.69V96.91a2.21,2.21,0,0,0-.14-1.26l0-.05a2.13,2.13,0,0,0-.11-0.22l-0.05-.08-0.13-.18L151.6,95l-0.16-.16-0.08-.07a2.25,2.25,0,0,0-.27-0.19h0L122.32,78a5.58,5.58,0,0,0-2.79-.75h0a5.57,5.57,0,0,0-2.75.74L112,80.74,88,94.63a2.24,2.24,0,0,0-.28.19l-0.07.07L87.45,95l-0.07.08-0.13.18-0.05.08a2.13,2.13,0,0,0-.12.22l0,0.05a2.21,2.21,0,0,0-.14,1.26v7.78a2.23,2.23,0,0,0,0,.76v19.19A2.17,2.17,0,0,0,88,126.93l28.77,16.61a5.58,5.58,0,0,0,5.58,0l28.76-16.61a2.17,2.17,0,0,0,1.05-2.28V105.45A2.23,2.23,0,0,0,152.13,104.69Z" transform="translate(0 -0.52)"/><path class="cls-5" d="M152.13,124.65V96.52H86.92v28.13A2.17,2.17,0,0,0,88,126.93l28.77,16.61a5.58,5.58,0,0,0,5.58,0l28.76-16.61A2.17,2.17,0,0,0,152.13,124.65Z" transform="translate(0 -0.52)"/><path class="cls-6" d="M152.13,96.91a2.17,2.17,0,0,0-1.05-2.28L122.32,78a5.58,5.58,0,0,0-5.58,0L88,94.63a2.17,2.17,0,0,0-1.05,2.28v7.78A2.17,2.17,0,0,0,88,107l28.77,16.61a5.58,5.58,0,0,0,5.58,0L151.08,107a2.17,2.17,0,0,0,1.05-2.28V96.91Z" transform="translate(0 -0.52)"/><path class="cls-6" d="M89.37,107.78v9.62a5.89,5.89,0,0,0,2.83,4.46l22,12.73c1.56,0.9,2.83.36,2.83-1.2v-9.62Z" transform="translate(0 -0.52)"/><path class="cls-6" d="M112.89,131.78h0a3.5,3.5,0,0,1-2-2.91V124a1.32,1.32,0,0,1,2-1.18h0a3.5,3.5,0,0,1,2,2.91v4.83A1.32,1.32,0,0,1,112.89,131.78Z" transform="translate(0 -0.52)"/><path class="cls-6" d="M93.55,120.63h0a3.5,3.5,0,0,1-2-2.91V112.9a1.32,1.32,0,0,1,2-1.18h0a3.5,3.5,0,0,1,2,2.91v4.83A1.32,1.32,0,0,1,93.55,120.63Z" transform="translate(0 -0.52)"/><path class="cls-7" d="M108.1,124a0.45,0.45,0,0,1-.66.42,1,1,0,0,1-.66-0.9,0.45,0.45,0,0,1,.66-0.42A1,1,0,0,1,108.1,124Z" transform="translate(0 -0.52)"/><path class="cls-7" d="M106,122.69a0.45,0.45,0,0,1-.66.42,1,1,0,0,1-.66-0.9,0.45,0.45,0,0,1,.66-0.42A1,1,0,0,1,106,122.69Z" transform="translate(0 -0.52)"/><path class="cls-7" d="M103.88,121.4a0.45,0.45,0,0,1-.66.42,1,1,0,0,1-.66-0.9,0.45,0.45,0,0,1,.66-0.42A1,1,0,0,1,103.88,121.4Z" transform="translate(0 -0.52)"/><path class="cls-7" d="M101.77,120.1a0.45,0.45,0,0,1-.66.42,1,1,0,0,1-.66-0.9,0.45,0.45,0,0,1,.66-0.42A1,1,0,0,1,101.77,120.1Z" transform="translate(0 -0.52)"/><path class="cls-7" d="M99.66,118.81a0.45,0.45,0,0,1-.66.42,1,1,0,0,1-.66-0.9,0.45,0.45,0,0,1,.66-0.42A1,1,0,0,1,99.66,118.81Z" transform="translate(0 -0.52)"/><path class="cls-7" d="M106,125a0.45,0.45,0,0,1-.66.42,1,1,0,0,1-.66-0.9,0.45,0.45,0,0,1,.66-0.42A1,1,0,0,1,106,125Z" transform="translate(0 -0.52)"/><path class="cls-7" d="M103.88,123.69a0.45,0.45,0,0,1-.66.42,1,1,0,0,1-.66-0.9,0.45,0.45,0,0,1,.66-0.42A1,1,0,0,1,103.88,123.69Z" transform="translate(0 -0.52)"/><path class="cls-7" d="M101.77,122.39a0.45,0.45,0,0,1-.66.42,1,1,0,0,1-.66-0.9,0.45,0.45,0,0,1,.66-0.42A1,1,0,0,1,101.77,122.39Z" transform="translate(0 -0.52)"/><path class="cls-6" d="M149.68,107.78v9.62a5.89,5.89,0,0,1-2.83,4.46l-22,12.73c-1.56.9-2.83,0.36-2.83-1.2v-9.62Z" transform="translate(0 -0.52)"/><path class="cls-6" d="M126.16,131.78h0a3.5,3.5,0,0,0,2-2.91V124a1.32,1.32,0,0,0-2-1.18h0a3.5,3.5,0,0,0-2,2.91v4.83A1.32,1.32,0,0,0,126.16,131.78Z" transform="translate(0 -0.52)"/><path class="cls-6" d="M145.5,120.63h0a3.5,3.5,0,0,0,2-2.91V112.9a1.32,1.32,0,0,0-2-1.18h0a3.5,3.5,0,0,0-2,2.91v4.83A1.32,1.32,0,0,0,145.5,120.63Z" transform="translate(0 -0.52)"/><path class="cls-7" d="M130.95,124a0.45,0.45,0,0,0,.66.42,1,1,0,0,0,.66-0.9,0.45,0.45,0,0,0-.66-0.42A1,1,0,0,0,130.95,124Z" transform="translate(0 -0.52)"/><path class="cls-7" d="M133.06,122.69a0.45,0.45,0,0,0,.66.42,1,1,0,0,0,.66-0.9,0.45,0.45,0,0,0-.66-0.42A1,1,0,0,0,133.06,122.69Z" transform="translate(0 -0.52)"/><path class="cls-7" d="M135.17,121.4a0.45,0.45,0,0,0,.66.42,1,1,0,0,0,.66-0.9,0.45,0.45,0,0,0-.66-0.42A1,1,0,0,0,135.17,121.4Z" transform="translate(0 -0.52)"/><path class="cls-7" d="M137.28,120.1a0.45,0.45,0,0,0,.66.42,1,1,0,0,0,.66-0.9,0.45,0.45,0,0,0-.66-0.42A1,1,0,0,0,137.28,120.1Z" transform="translate(0 -0.52)"/><path class="cls-7" d="M139.39,118.81a0.45,0.45,0,0,0,.66.42,1,1,0,0,0,.66-0.9,0.45,0.45,0,0,0-.66-0.42A1,1,0,0,0,139.39,118.81Z" transform="translate(0 -0.52)"/><path class="cls-7" d="M133.06,125a0.45,0.45,0,0,0,.66.42,1,1,0,0,0,.66-0.9,0.45,0.45,0,0,0-.66-0.42A1,1,0,0,0,133.06,125Z" transform="translate(0 -0.52)"/><path class="cls-7" d="M135.17,123.69a0.45,0.45,0,0,0,.66.42,1,1,0,0,0,.66-0.9,0.45,0.45,0,0,0-.66-0.42A1,1,0,0,0,135.17,123.69Z" transform="translate(0 -0.52)"/><path class="cls-7" d="M137.28,122.39a0.45,0.45,0,0,0,.66.42,1,1,0,0,0,.66-0.9,0.45,0.45,0,0,0-.66-0.42A1,1,0,0,0,137.28,122.39Z" transform="translate(0 -0.52)"/><path class="cls-6" d="M116.74,78L88,94.63a2.18,2.18,0,0,0,0,3.78L116.74,115a5.58,5.58,0,0,0,5.58,0l28.76-16.61a2.18,2.18,0,0,0,0-3.78L122.32,78A5.58,5.58,0,0,0,116.74,78Z" transform="translate(0 -0.52)"/><ellipse class="cls-7" cx="143.46" cy="95.78" rx="1.76" ry="0.8"/><ellipse class="cls-8" cx="101.5" cy="91.63" rx="3.83" ry="1.75"/><path class="cls-7" d="M102.27,93.22a0.05,0.05,0,0,1,0,0l0,0-0.35.25-0.07,0a0.07,0.07,0,0,1,0-.05l-0.58-1.2-1.9-.13-0.08,0a0.08,0.08,0,0,1,0-.05l0.33-.24,0,0H99.7l1.36,0.1-0.39-.8a0,0,0,0,1,0,0l0,0,0.33-.24,0.08,0a0.06,0.06,0,0,1,0,0L101.68,92l2,0.15,0.1,0a0.06,0.06,0,0,1,0,0l-0.35.25,0,0h-0.05l-1.47-.11Z" transform="translate(0 -0.52)"/><ellipse class="cls-8" cx="101.5" cy="99.62" rx="3.83" ry="1.75"/><path class="cls-7" d="M103.25,100.81a0.07,0.07,0,0,1,0,0,0.06,0.06,0,0,1,0,0l-0.29.21-0.06,0-0.07,0-1.08-.56-2.22-.2-0.08,0s0,0,0-.05l0.31-.23a0.16,0.16,0,0,1,.11,0l1.65,0.16-0.55-1a0,0,0,0,1,0-.07l0.33-.24a0.09,0.09,0,0,1,.08,0,0.1,0.1,0,0,1,0,.05l0.67,1.31Z" transform="translate(0 -0.52)"/><ellipse class="cls-8" cx="94.55" cy="95.62" rx="3.83" ry="1.75"/><path class="cls-7" d="M95.19,97.35a0.11,0.11,0,0,1-.13,0l-0.25-.13,0,0,0,0-0.9-1.63L93,96.17l-0.06,0-0.07,0L92.55,96l0,0a0,0,0,0,1,0,0l1.31-1,0.06,0L94,95l0.28,0.15,0,0,0,0,0.86,1.64,1-.7,0.06,0,0.07,0,0.3,0.15,0,0a0,0,0,0,1,0,0Z" transform="translate(0 -0.52)"/><line class="cls-9" x1="96.88" y1="93.88" x2="98.18" y2="93.1"/><line class="cls-9" x1="97.57" y1="97.22" x2="98.91" y2="97.91"/><path class="cls-7" d="M177.34,151.3a0.21,0.21,0,0,1-.07.22,0.38,0.38,0,0,1-.25-0.08l-1.56-.9a0.76,0.76,0,0,1-.25-0.21,0.54,0.54,0,0,1-.07-0.3v-5l-4.18-9.2a0.62,0.62,0,0,1-.1-0.36s0.12,0,.31.09l1.71,1a0.91,0.91,0,0,1,.37.43l3.06,6.88,3-3.4a0.25,0.25,0,0,1,.34,0l1.79,1a0.49,0.49,0,0,1,.28.28,0.3,0.3,0,0,1-.12.24l-4.21,4.32v5Z" transform="translate(0 -0.52)"/><path class="cls-11" d="M140,124.44l27.81,16.06,0.12,0.06" transform="translate(0 -0.52)"/></svg>