<svg id="레이어_1" data-name="레이어 1" xmlns="http://www.w3.org/2000/svg" width="210" height="210" viewBox="0 0 210 210">
  <defs>
    <style>
      .cls-1, .cls-10, .cls-4, .cls-5, .cls-9 {
        fill: #fff;
      }

      .cls-1 {
        fill-opacity: 0;
      }

      .cls-2 {
        fill: #f1f1f1;
      }

      .cls-3, .cls-7 {
        fill: none;
      }

      .cls-10, .cls-3, .cls-4, .cls-5, .cls-7, .cls-8 {
        stroke: #26cad3;
      }

      .cls-3, .cls-4, .cls-5, .cls-8 {
        stroke-miterlimit: 10;
      }

      .cls-10, .cls-3, .cls-4 {
        stroke-width: 1.5px;
      }

      .cls-6, .cls-8 {
        fill: #26cad3;
      }

      .cls-10, .cls-7 {
        stroke-linecap: round;
        stroke-linejoin: round;
      }
    </style>
  </defs>
  <title>helpButtonToggle</title>
  <rect class="cls-1" width="210" height="210"/>
  <path class="cls-2" d="M100.89,124.07L58.41,148.6a3.22,3.22,0,0,0,0,5.58l42.48,24.53a8.24,8.24,0,0,0,8.24,0l42.47-24.52a3.22,3.22,0,0,0,0-5.58l-42.47-24.54A8.24,8.24,0,0,0,100.89,124.07Z"/>
  <path class="cls-3" d="M144.64,119.79v-9.46a2.69,2.69,0,0,0-.17-1.53v-0.07a2.59,2.59,0,0,0-.14-0.26l-0.06-.1-0.16-.21-0.09-.1-0.2-.19-0.09-.08a2.73,2.73,0,0,0-.33-0.23h0l-35-20.19a6.78,6.78,0,0,0-3.39-.91H105a6.77,6.77,0,0,0-3.34.91l-5.74,3.3L66.65,107.55a2.73,2.73,0,0,0-.34.23l-0.09.08-0.2.19-0.08.1-0.16.21-0.06.1a2.59,2.59,0,0,0-.14.26v0.07a2.68,2.68,0,0,0-.17,1.53v9.46a2.71,2.71,0,0,0,0,.92v23.37a2.64,2.64,0,0,0,1.28,2.77l35,20.19a6.78,6.78,0,0,0,6.78,0l35-20.18a2.64,2.64,0,0,0,1.28-2.78V120.71A2.71,2.71,0,0,0,144.64,119.79Z"/>
  <path class="cls-4" d="M144.64,144.07V109.85H65.33v34.22a2.64,2.64,0,0,0,1.28,2.77l35,20.19a6.78,6.78,0,0,0,6.78,0l35-20.18A2.64,2.64,0,0,0,144.64,144.07Z"/>
  <path class="cls-5" d="M144.64,110.33a2.64,2.64,0,0,0-1.28-2.77l-35-20.19a6.78,6.78,0,0,0-6.78,0l-35,20.19a2.64,2.64,0,0,0-1.25,2.76v9.46a2.64,2.64,0,0,0,1.28,2.77l35,20.19a6.78,6.78,0,0,0,6.78,0l35-20.18a2.64,2.64,0,0,0,1.28-2.78v-9.46h0Z"/>
  <path class="cls-5" d="M68.33,123.53v11.69a7.16,7.16,0,0,0,3.44,5.43l26.8,15.47c1.89,1.09,3.44.44,3.44-1.45V143Z"/>
  <path class="cls-5" d="M96.94,152.71h0a4.25,4.25,0,0,1-2.48-3.53v-5.87c0-1.37,1.12-2,2.48-1.43h0a4.25,4.25,0,0,1,2.48,3.53v5.87C99.43,152.64,98.33,153.28,96.94,152.71Z"/>
  <path class="cls-5" d="M73.43,139.16h0a4.25,4.25,0,0,1-2.48-3.53v-5.87c0-1.37,1.12-2,2.48-1.43h0a4.25,4.25,0,0,1,2.48,3.53v5.87C75.91,139.07,74.79,139.74,73.43,139.16Z"/>
  <path class="cls-6" d="M91.12,143.23a0.54,0.54,0,0,1-.8.51,1.27,1.27,0,0,1-.8-1.1,0.54,0.54,0,0,1,.8-0.51A1.27,1.27,0,0,1,91.12,143.23Z"/>
  <path class="cls-6" d="M88.55,141.66a0.54,0.54,0,0,1-.8.51,1.27,1.27,0,0,1-.8-1.1,0.54,0.54,0,0,1,.8-0.51A1.27,1.27,0,0,1,88.55,141.66Z"/>
  <path class="cls-6" d="M86,140.07a0.54,0.54,0,0,1-.8.51,1.27,1.27,0,0,1-.8-1.1,0.54,0.54,0,0,1,.8-0.51A1.27,1.27,0,0,1,86,140.07Z"/>
  <path class="cls-6" d="M83.42,138.52a0.54,0.54,0,0,1-.8.51,1.27,1.27,0,0,1-.8-1.1,0.54,0.54,0,0,1,.8-0.51A1.27,1.27,0,0,1,83.42,138.52Z"/>
  <path class="cls-6" d="M80.86,136.94a0.54,0.54,0,0,1-.8.51,1.27,1.27,0,0,1-.8-1.1,0.54,0.54,0,0,1,.8-0.51A1.27,1.27,0,0,1,80.86,136.94Z"/>
  <path class="cls-6" d="M88.55,144.45a0.54,0.54,0,0,1-.8.51,1.27,1.27,0,0,1-.8-1.1,0.54,0.54,0,0,1,.8-0.51A1.27,1.27,0,0,1,88.55,144.45Z"/>
  <path class="cls-6" d="M86,142.87a0.54,0.54,0,0,1-.8.51,1.27,1.27,0,0,1-.8-1.1,0.54,0.54,0,0,1,.8-0.51A1.27,1.27,0,0,1,86,142.87Z"/>
  <path class="cls-6" d="M83.42,141.3a0.54,0.54,0,0,1-.8.51,1.27,1.27,0,0,1-.8-1.1,0.54,0.54,0,0,1,.8-0.51A1.27,1.27,0,0,1,83.42,141.3Z"/>
  <path class="cls-5" d="M141.66,123.53v11.69a7.16,7.16,0,0,1-3.44,5.43l-26.8,15.47c-1.89,1.09-3.44.44-3.44-1.45V143Z"/>
  <path class="cls-5" d="M113.06,152.71h0a4.25,4.25,0,0,0,2.48-3.53v-5.87c0-1.37-1.12-2-2.48-1.43h0a4.25,4.25,0,0,0-2.48,3.53v5.87C110.58,152.64,111.7,153.28,113.06,152.71Z"/>
  <path class="cls-5" d="M136.58,139.16h0a4.25,4.25,0,0,0,2.48-3.53v-5.87c0-1.37-1.12-2-2.48-1.43h0a4.25,4.25,0,0,0-2.48,3.53v5.87C134.09,139.07,135.21,139.74,136.58,139.16Z"/>
  <path class="cls-6" d="M118.89,143.23a0.54,0.54,0,0,0,.8.51,1.27,1.27,0,0,0,.8-1.1,0.54,0.54,0,0,0-.8-0.51A1.27,1.27,0,0,0,118.89,143.23Z"/>
  <path class="cls-6" d="M121.45,141.66a0.54,0.54,0,0,0,.8.51,1.27,1.27,0,0,0,.8-1.1,0.54,0.54,0,0,0-.8-0.51A1.27,1.27,0,0,0,121.45,141.66Z"/>
  <path class="cls-6" d="M124,140.07a0.54,0.54,0,0,0,.8.51,1.27,1.27,0,0,0,.8-1.1,0.54,0.54,0,0,0-.8-0.51A1.27,1.27,0,0,0,124,140.07Z"/>
  <path class="cls-6" d="M126.58,138.52a0.54,0.54,0,0,0,.8.51,1.27,1.27,0,0,0,.8-1.1,0.54,0.54,0,0,0-.8-0.51A1.27,1.27,0,0,0,126.58,138.52Z"/>
  <path class="cls-6" d="M129.15,136.94a0.54,0.54,0,0,0,.8.51,1.27,1.27,0,0,0,.8-1.1,0.54,0.54,0,0,0-.8-0.51A1.27,1.27,0,0,0,129.15,136.94Z"/>
  <path class="cls-6" d="M121.45,144.45a0.54,0.54,0,0,0,.8.51,1.27,1.27,0,0,0,.8-1.1,0.54,0.54,0,0,0-.8-0.51A1.27,1.27,0,0,0,121.45,144.45Z"/>
  <path class="cls-6" d="M124,142.87a0.54,0.54,0,0,0,.8.51,1.27,1.27,0,0,0,.8-1.1,0.54,0.54,0,0,0-.8-0.51A1.27,1.27,0,0,0,124,142.87Z"/>
  <path class="cls-6" d="M126.58,141.3a0.54,0.54,0,0,0,.8.51,1.27,1.27,0,0,0,.8-1.1,0.54,0.54,0,0,0-.8-0.51A1.27,1.27,0,0,0,126.58,141.3Z"/>
  <path class="cls-5" d="M101.61,87.36l-35,20.19a2.65,2.65,0,0,0,0,4.6l35,20.19a6.78,6.78,0,0,0,6.78,0l35-20.18a2.65,2.65,0,0,0,0-4.6l-35-20.19A6.78,6.78,0,0,0,101.61,87.36Z"/>
  <ellipse class="cls-6" cx="134.1" cy="109.58" rx="2.14" ry="0.97"/>
  <path class="cls-5" d="M119.33,106.81c-2.46-2.49-8-4.23-14.35-4.23s-11.88,1.74-14.35,4.23H89.26v2.94c0,4,7,7.17,15.74,7.17s15.74-3.21,15.74-7.17v-2.94h-1.41Z"/>
  <ellipse class="cls-5" cx="105" cy="106.81" rx="15.74" ry="7.17"/>
  <rect class="cls-7" x="39.89" y="67.41" width="33.81" height="16.9" rx="8.45" ry="8.45"/>
  <circle class="cls-8" cx="65.24" cy="75.86" r="7.74"/>
  <path class="cls-6" d="M48.33,75.85a3.32,3.32,0,0,1-.17,1.06,3.09,3.09,0,0,1-.44.86,2.37,2.37,0,0,1-.81.63,2.48,2.48,0,0,1-1.07.22,2.52,2.52,0,0,1-1.08-.22,2.36,2.36,0,0,1-.82-0.63,3,3,0,0,1-.43-0.86,3.41,3.41,0,0,1-.18-1.06,3,3,0,0,1,.59-1.92,2.3,2.3,0,0,1,1.93-.86,2.61,2.61,0,0,1,1.08.21,2.14,2.14,0,0,1,.81.64A3,3,0,0,1,48.33,75.85Zm-0.72,0A2.9,2.9,0,0,0,47.49,75a2.55,2.55,0,0,0-.34-0.71,1.61,1.61,0,0,0-1.31-.62,1.64,1.64,0,0,0-.73.16,1.76,1.76,0,0,0-.58.46,2.41,2.41,0,0,0-.35.71,2.93,2.93,0,0,0-.12.85,3,3,0,0,0,.12.87,2.28,2.28,0,0,0,.35.7,1.62,1.62,0,0,0,1.31.63,1.6,1.6,0,0,0,.73-0.16,1.84,1.84,0,0,0,.58-0.47,2.41,2.41,0,0,0,.34-0.7,2.94,2.94,0,0,0,.13-0.87h0Z"/>
  <path class="cls-6" d="M52,70.66a0.17,0.17,0,0,1,.12.2v0.28a0.08,0.08,0,0,1,0,.07,0.12,0.12,0,0,1-.09,0l-0.19-.05h-0.2a0.71,0.71,0,0,0-.74.57,4.69,4.69,0,0,0-.07,1V73.2h1.07a0.12,0.12,0,0,1,.14.14v0.29a0.12,0.12,0,0,1-.1.14H50.77v4.56a0.12,0.12,0,0,1-.1.14H50.26a0.12,0.12,0,0,1-.14-0.14V73.78H49.18A0.12,0.12,0,0,1,49,73.64V73.35a0.12,0.12,0,0,1,.1-0.14h1v-0.4a4.3,4.3,0,0,1,.21-1.52,1.18,1.18,0,0,1,1.21-.7A1.63,1.63,0,0,1,52,70.66Z"/>
  <path class="cls-6" d="M55.54,70.66a0.17,0.17,0,0,1,.12.2v0.28a0.08,0.08,0,0,1,0,.07,0.12,0.12,0,0,1-.09,0l-0.24,0h-0.2a0.71,0.71,0,0,0-.74.57,4.69,4.69,0,0,0-.07,1V73.2h1a0.12,0.12,0,0,1,.14.14v0.29a0.12,0.12,0,0,1-.1.14h-1v4.56a0.12,0.12,0,0,1-.1.14H53.78a0.12,0.12,0,0,1-.14-0.14V73.78H52.7a0.12,0.12,0,0,1-.14-0.14V73.35a0.12,0.12,0,0,1,.1-0.14h1v-0.4a4.3,4.3,0,0,1,.19-1.53,1.18,1.18,0,0,1,1.21-.7A1.63,1.63,0,0,1,55.54,70.66Z"/>
  <path class="cls-9" d="M65,75.85a3.32,3.32,0,0,1-.17,1.06,3.09,3.09,0,0,1-.44.86,2.37,2.37,0,0,1-.81.63,2.48,2.48,0,0,1-1.07.22,2.52,2.52,0,0,1-1.08-.22,2.36,2.36,0,0,1-.82-0.63,3,3,0,0,1-.43-0.86A3.41,3.41,0,0,1,60,75.85a3,3,0,0,1,.59-1.92,2.3,2.3,0,0,1,1.91-.86,2.61,2.61,0,0,1,1.08.21,2.14,2.14,0,0,1,.81.64A3,3,0,0,1,65,75.85Zm-0.72,0A2.9,2.9,0,0,0,64.15,75a2.55,2.55,0,0,0-.34-0.71,1.61,1.61,0,0,0-1.31-.62,1.64,1.64,0,0,0-.73.16,1.76,1.76,0,0,0-.58.46,2.41,2.41,0,0,0-.35.71,2.93,2.93,0,0,0-.12.85,3,3,0,0,0,.12.87,2.28,2.28,0,0,0,.35.7A1.62,1.62,0,0,0,62.5,78a1.6,1.6,0,0,0,.73-0.16,1.84,1.84,0,0,0,.58-0.47,2.41,2.41,0,0,0,.34-0.7,2.94,2.94,0,0,0,.13-0.87h0Z"/>
  <path class="cls-9" d="M70.47,78.34a0.12,0.12,0,0,1-.1.14H70a0.12,0.12,0,0,1-.14-0.14V75.28A2,2,0,0,0,69.49,74a1.13,1.13,0,0,0-.9-0.37,1.57,1.57,0,0,0-1.2.44A1.71,1.71,0,0,0,67,75.3v3a0.12,0.12,0,0,1-.1.14H66.45a0.12,0.12,0,0,1-.12-0.1v-5a0.1,0.1,0,0,1,0-.1,0.16,0.16,0,0,1,.1,0h0.35a0.12,0.12,0,0,1,.14.14v0.53a1.71,1.71,0,0,1,.66-0.61,2.36,2.36,0,0,1,1-.24A1.75,1.75,0,0,1,70,73.6a2.22,2.22,0,0,1,.47,1.51v3.22h0Z"/>
  <g>
    <path class="cls-10" d="M88,60.55s-3.58,7.17-3.58,12.31V85.54S84.06,89.4,87,89.4a2.88,2.88,0,0,0,2.94-2.82s0-.08,0-0.12v4.13a2.88,2.88,0,0,0,2.82,2.94h0.12a3.52,3.52,0,0,0,3.4-3v2.66a3,3,0,0,0,5.94-.09v10.45a3,3,0,0,0,3.31,3.22s2.94,0,2.94-3.58V81.13s0.37,3.12,2.85,2.11S114,77.91,114,77.91V73.78a15.43,15.43,0,0,0-8.27-12.68"/>
    <rect class="cls-6" x="89.19" y="81.71" width="1.5" height="6.67" rx="0.75" ry="0.75"/>
    <rect class="cls-6" x="95.53" y="83.1" width="1.5" height="9.33" rx="0.75" ry="0.75"/>
    <rect class="cls-6" x="101.47" y="83.79" width="1.5" height="10.75" rx="0.75" ry="0.75"/>
    <rect class="cls-6" x="107.72" y="76.82" width="1.5" height="12.38" rx="0.75" ry="0.75"/>
  </g>
</svg>
