<svg id="레이어_1" data-name="레이어 1" xmlns="http://www.w3.org/2000/svg" width="112" height="20" viewBox="0 0 112 20"><defs><style>.cls-1{fill:none;stroke:#26cad3;stroke-miterlimit:10;stroke-width:2px;}.cls-2{fill:#26cad3;}</style></defs><title>motorHelpOn</title><rect class="cls-1" x="1" y="1" width="110" height="18" rx="9" ry="9"/><path class="cls-2" d="M40.82,17.16a3.48,3.48,0,0,1-1.33,1,4.31,4.31,0,0,1-1.74.34,4.08,4.08,0,0,1-1.85-.39,3.56,3.56,0,0,1-1.27-1.06,4.48,4.48,0,0,1-.73-1.54,7,7,0,0,1-.23-1.83,6.75,6.75,0,0,1,.24-1.81,4.5,4.5,0,0,1,.74-1.54,3.69,3.69,0,0,1,1.27-1.06,4,4,0,0,1,1.84-.4,3.88,3.88,0,0,1,1.82.4,3.76,3.76,0,0,1,1.27,1.07,4.6,4.6,0,0,1,.75,1.53,6.25,6.25,0,0,1,.23,1.8,7.4,7.4,0,0,1-.25,1.91A4.34,4.34,0,0,1,40.82,17.16Zm-3.07-6.74a2,2,0,0,0-1.07.28,2.33,2.33,0,0,0-.74.75,3.44,3.44,0,0,0-.43,1.06,5.44,5.44,0,0,0,0,2.44A3.45,3.45,0,0,0,35.93,16a2.4,2.4,0,0,0,.74.76,2,2,0,0,0,1.07.29,1.92,1.92,0,0,0,1.06-.29A2.33,2.33,0,0,0,39.55,16,3.53,3.53,0,0,0,40,14.94a5.37,5.37,0,0,0,.14-1.21A5.24,5.24,0,0,0,40,12.54a3.54,3.54,0,0,0-.43-1.06,2.43,2.43,0,0,0-.73-0.76A1.89,1.89,0,0,0,37.75,10.42Z" transform="translate(-0.87 -2.39)"/><path class="cls-2" d="M45,18.1a0.28,0.28,0,0,1,0,.19,0.26,0.26,0,0,1-.18,0H43.62a0.24,0.24,0,0,1-.19-0.06,0.3,0.3,0,0,1,0-.19V13.4c0-.3,0-0.61,0-0.92a4.77,4.77,0,0,0,0-.71,0.17,0.17,0,0,1,0-.17,0.41,0.41,0,0,1,.22,0h1.14a0.36,0.36,0,0,1,.17,0,0.16,0.16,0,0,1,0,.13v0.46a2.72,2.72,0,0,1,.65-0.49,1.68,1.68,0,0,1,.82-0.22,2.14,2.14,0,0,1,1.76.68,3.09,3.09,0,0,1,.56,2v4a0.28,0.28,0,0,1,0,.19,0.26,0.26,0,0,1-.18,0H47.39a0.22,0.22,0,0,1-.24-0.25V14.38q0-1.45-.88-1.45a1.21,1.21,0,0,0-1,.4A1.58,1.58,0,0,0,45,14.4v3.7Z" transform="translate(-0.87 -2.39)"/><path class="cls-2" d="M54.67,19a0.26,0.26,0,0,1-.11.14,0.4,0.4,0,0,1-.16,0H53.17a0.31,0.31,0,0,1-.2-0.05,0.17,0.17,0,0,1,0-.2l3.11-9.8A0.19,0.19,0,0,1,56.26,9h1.31c0.18,0,.25.08,0.2,0.24Z" transform="translate(-0.87 -2.39)"/><path class="cls-2" d="M68.76,17.16a3.48,3.48,0,0,1-1.33,1,4.3,4.3,0,0,1-1.74.34,4.08,4.08,0,0,1-1.85-.39,3.56,3.56,0,0,1-1.27-1.06,4.48,4.48,0,0,1-.73-1.54,7,7,0,0,1-.23-1.83,6.75,6.75,0,0,1,.24-1.81,4.51,4.51,0,0,1,.74-1.54,3.69,3.69,0,0,1,1.27-1.06,4,4,0,0,1,1.84-.4,3.88,3.88,0,0,1,1.82.4,3.76,3.76,0,0,1,1.27,1.07,4.6,4.6,0,0,1,.75,1.53,6.25,6.25,0,0,1,.23,1.8,7.4,7.4,0,0,1-.25,1.91A4.34,4.34,0,0,1,68.76,17.16Zm-3.07-6.74a2,2,0,0,0-1.07.28,2.35,2.35,0,0,0-.74.75,3.45,3.45,0,0,0-.43,1.06,5.45,5.45,0,0,0,0,2.44A3.46,3.46,0,0,0,63.87,16a2.42,2.42,0,0,0,.74.76,2,2,0,0,0,1.07.29,1.93,1.93,0,0,0,1.06-.29A2.34,2.34,0,0,0,67.49,16a3.55,3.55,0,0,0,.43-1.07,5.4,5.4,0,0,0,.14-1.21,5.27,5.27,0,0,0-.14-1.19,3.55,3.55,0,0,0-.43-1.06,2.44,2.44,0,0,0-.73-0.76A1.89,1.89,0,0,0,65.69,10.42Z" transform="translate(-0.87 -2.39)"/><path class="cls-2" d="M74.58,9.76a0.13,0.13,0,0,1-.05.14,0.21,0.21,0,0,1-.15,0,1.34,1.34,0,0,0-.31-0.1,1.2,1.2,0,0,0-.34,0,0.53,0.53,0,0,0-.42.46,1.65,1.65,0,0,0,0,.29c0,0.13,0,.27,0,0.43v0.6h1a0.23,0.23,0,0,1,.19.05,0.31,0.31,0,0,1,0,.19v1a0.31,0.31,0,0,1,0,.19,0.23,0.23,0,0,1-.19.05h-1V18.1a0.25,0.25,0,0,1-.05.19,0.26,0.26,0,0,1-.17,0H71.92a0.26,0.26,0,0,1-.18,0,0.27,0.27,0,0,1,0-.19V13H70.85a0.21,0.21,0,0,1-.23-0.24v-1a0.21,0.21,0,0,1,.23-0.24h0.84V11a6.25,6.25,0,0,1,.08-1,2.62,2.62,0,0,1,.29-0.87,1.6,1.6,0,0,1,.58-0.6,2,2,0,0,1,.94-0.25,3,3,0,0,1,.53,0,1.58,1.58,0,0,1,.42.1,0.22,0.22,0,0,1,.11.08,0.23,0.23,0,0,1,0,.14Z" transform="translate(-0.87 -2.39)"/><path class="cls-2" d="M78.94,9.76a0.13,0.13,0,0,1-.05.14,0.21,0.21,0,0,1-.15,0,1.37,1.37,0,0,0-.31-0.1,1.2,1.2,0,0,0-.34,0,0.53,0.53,0,0,0-.42.46,1.63,1.63,0,0,0,0,.29c0,0.13,0,.27,0,0.43v0.6h1a0.23,0.23,0,0,1,.19.05,0.31,0.31,0,0,1,0,.19v1a0.31,0.31,0,0,1,0,.19,0.23,0.23,0,0,1-.19.05h-1V18.1a0.26,0.26,0,0,1-.05.19,0.26,0.26,0,0,1-.17,0H76.27a0.26,0.26,0,0,1-.18,0,0.28,0.28,0,0,1,0-.19V13H75.2A0.21,0.21,0,0,1,75,12.78v-1a0.21,0.21,0,0,1,.23-0.24H76V11a6.37,6.37,0,0,1,.08-1,2.63,2.63,0,0,1,.29-0.87A1.59,1.59,0,0,1,77,8.57a2,2,0,0,1,.94-0.25,3,3,0,0,1,.53,0,1.57,1.57,0,0,1,.42.1,0.16,0.16,0,0,1,.12.22Z" transform="translate(-0.87 -2.39)"/></svg>