<svg id="레이어_1" data-name="레이어 1" xmlns="http://www.w3.org/2000/svg" width="90" height="28" viewBox="0 0 90 28"><defs><style>.cls-1,.cls-4{fill:#fff;}.cls-1{opacity:0;}.cls-2,.cls-3{fill:#26cad3;}.cls-3{stroke:#26cad3;stroke-miterlimit:10;stroke-width:4px;}</style></defs><title>note</title><rect class="cls-1" width="90" height="28"/><polygon class="cls-2" points="90 19.14 79.46 0 69.55 19.14 90 19.14"/><path class="cls-3" d="M13.45,22.54a0.84,0.84,0,0,1-.4-0.06,1,1,0,0,1-.25-0.33l-7.13-13V21.95a1,1,0,0,1-.07.49,0.67,0.67,0,0,1-.47.1H2.88a0.73,0.73,0,0,1-.47-0.1,0.78,0.78,0,0,1-.1-0.49V4.15A1.09,1.09,0,0,1,2.4,3.61a0.7,0.7,0,0,1,.53-0.12H5.37a0.71,0.71,0,0,1,.39.07A1.39,1.39,0,0,1,6,4l7,12.91V4.08a0.88,0.88,0,0,1,.09-0.48,0.61,0.61,0,0,1,.46-0.11h2.22a0.66,0.66,0,0,1,.52.12,1,1,0,0,1,.07.47V21.85a1,1,0,0,1-.1.58,0.82,0.82,0,0,1-.54.11H13.45Z"/><path class="cls-3" d="M30.87,20.62a5.85,5.85,0,0,1-2.19,1.74,6.73,6.73,0,0,1-2.83.58A6.46,6.46,0,0,1,23,22.34a6,6,0,0,1-2-1.59,6.83,6.83,0,0,1-1.25-2.33,9.3,9.3,0,0,1-.42-2.81,9.58,9.58,0,0,1,.41-2.81,6.66,6.66,0,0,1,1.23-2.33A5.87,5.87,0,0,1,23,8.88a6.67,6.67,0,0,1,2.86-.58,6.54,6.54,0,0,1,2.86.59,6,6,0,0,1,2.06,1.59A6.86,6.86,0,0,1,32,12.8a9.52,9.52,0,0,1,0,5.55A6.93,6.93,0,0,1,30.87,20.62Zm-5-9.43a2.66,2.66,0,0,0-1.43.38,3.31,3.31,0,0,0-1,1A4.7,4.7,0,0,0,22.79,14a6.42,6.42,0,0,0,0,3.26,4.86,4.86,0,0,0,.62,1.42,3.25,3.25,0,0,0,1,1,2.66,2.66,0,0,0,1.43.38,2.71,2.71,0,0,0,1.46-.38,3.25,3.25,0,0,0,1-1,4.67,4.67,0,0,0,.6-1.42,6.68,6.68,0,0,0,.2-1.63,6.58,6.58,0,0,0-.2-1.6,4.69,4.69,0,0,0-.6-1.42,3.27,3.27,0,0,0-1-1A2.71,2.71,0,0,0,25.86,11.19Z"/><path class="cls-3" d="M41.93,22.37a6.52,6.52,0,0,1-1.19.38,6.22,6.22,0,0,1-1.58.14,3.42,3.42,0,0,1-1.65-.46,2.84,2.84,0,0,1-1.09-1A4.52,4.52,0,0,1,36,19.76q-0.07-.9-0.07-2.33V11.61H34.18a0.43,0.43,0,0,1-.47-0.49v-2a0.43,0.43,0,0,1,.47-0.49h1.75V5.29a0.44,0.44,0,0,1,.49-0.49H38.7a0.43,0.43,0,0,1,.47.49V8.57h2.1a0.48,0.48,0,0,1,.38.11,0.64,0.64,0,0,1,.09.38v2a0.64,0.64,0,0,1-.09.38,0.48,0.48,0,0,1-.38.11h-2.1v7a3.28,3.28,0,0,0,0,.73,0.73,0.73,0,0,0,.42.59,1.38,1.38,0,0,0,.69.07A3.52,3.52,0,0,0,41,19.8a5,5,0,0,0,.54-0.22,0.26,0.26,0,0,1,.3,0,0.55,0.55,0,0,1,.12.36l0.22,1.85a0.81,0.81,0,0,1,0,.36A0.47,0.47,0,0,1,41.93,22.37Z"/><path class="cls-3" d="M54.87,16.1a0.93,0.93,0,0,1-.14.46,0.46,0.46,0,0,1-.41.16H46.6a3.68,3.68,0,0,0,1,2.44,3.22,3.22,0,0,0,2.09.84,5.71,5.71,0,0,0,2-.22A7.26,7.26,0,0,0,53.36,19a0.45,0.45,0,0,1,.47-0.12,0.7,0.7,0,0,1,.12.52v1.85a0.77,0.77,0,0,1-.06.37,1.32,1.32,0,0,1-.28.27,5.19,5.19,0,0,1-1.81.74,9.86,9.86,0,0,1-2.16.25A6,6,0,0,1,45,21a7.79,7.79,0,0,1-1.72-5.41A10.21,10.21,0,0,1,43.58,13a7,7,0,0,1,1.11-2.36,6.19,6.19,0,0,1,1.88-1.7,5.12,5.12,0,0,1,2.64-.65,5.56,5.56,0,0,1,2.63.57,4.94,4.94,0,0,1,1.75,1.53,6.31,6.31,0,0,1,1,2.23,11.85,11.85,0,0,1,.3,2.7V16.1Zm-5.58-5a2,2,0,0,0-1,.25,2.77,2.77,0,0,0-.78.64,4.2,4.2,0,0,0-.58.91A3.59,3.59,0,0,0,46.65,14h5a3.42,3.42,0,0,0-.16-1,3.36,3.36,0,0,0-.44-0.93,2.4,2.4,0,0,0-.73-0.68A1.94,1.94,0,0,0,49.29,11.11Z"/><path class="cls-4" d="M13.45,22.54a0.84,0.84,0,0,1-.4-0.06,1,1,0,0,1-.25-0.33l-7.13-13V21.95a1,1,0,0,1-.07.49,0.67,0.67,0,0,1-.47.1H2.88a0.73,0.73,0,0,1-.47-0.1,0.78,0.78,0,0,1-.1-0.49V4.15A1.09,1.09,0,0,1,2.4,3.61a0.7,0.7,0,0,1,.53-0.12H5.37a0.71,0.71,0,0,1,.39.07A1.39,1.39,0,0,1,6,4l7,12.91V4.08a0.88,0.88,0,0,1,.09-0.48,0.61,0.61,0,0,1,.46-0.11h2.22a0.66,0.66,0,0,1,.52.12,1,1,0,0,1,.07.47V21.85a1,1,0,0,1-.1.58,0.82,0.82,0,0,1-.54.11H13.45Z"/><path class="cls-4" d="M30.87,20.62a5.85,5.85,0,0,1-2.19,1.74,6.73,6.73,0,0,1-2.83.58A6.46,6.46,0,0,1,23,22.34a6,6,0,0,1-2-1.59,6.83,6.83,0,0,1-1.25-2.33,9.3,9.3,0,0,1-.42-2.81,9.58,9.58,0,0,1,.41-2.81,6.66,6.66,0,0,1,1.23-2.33A5.87,5.87,0,0,1,23,8.88a6.67,6.67,0,0,1,2.86-.58,6.54,6.54,0,0,1,2.86.59,6,6,0,0,1,2.06,1.59A6.86,6.86,0,0,1,32,12.8a9.52,9.52,0,0,1,0,5.55A6.93,6.93,0,0,1,30.87,20.62Zm-5-9.43a2.66,2.66,0,0,0-1.43.38,3.31,3.31,0,0,0-1,1A4.7,4.7,0,0,0,22.79,14a6.42,6.42,0,0,0,0,3.26,4.86,4.86,0,0,0,.62,1.42,3.25,3.25,0,0,0,1,1,2.66,2.66,0,0,0,1.43.38,2.71,2.71,0,0,0,1.46-.38,3.25,3.25,0,0,0,1-1,4.67,4.67,0,0,0,.6-1.42,6.68,6.68,0,0,0,.2-1.63,6.58,6.58,0,0,0-.2-1.6,4.69,4.69,0,0,0-.6-1.42,3.27,3.27,0,0,0-1-1A2.71,2.71,0,0,0,25.86,11.19Z"/><path class="cls-4" d="M41.93,22.37a6.52,6.52,0,0,1-1.19.38,6.22,6.22,0,0,1-1.58.14,3.42,3.42,0,0,1-1.65-.46,2.84,2.84,0,0,1-1.09-1A4.52,4.52,0,0,1,36,19.76q-0.07-.9-0.07-2.33V11.61H34.18a0.43,0.43,0,0,1-.47-0.49v-2a0.43,0.43,0,0,1,.47-0.49h1.75V5.29a0.44,0.44,0,0,1,.49-0.49H38.7a0.43,0.43,0,0,1,.47.49V8.57h2.1a0.48,0.48,0,0,1,.38.11,0.64,0.64,0,0,1,.09.38v2a0.64,0.64,0,0,1-.09.38,0.48,0.48,0,0,1-.38.11h-2.1v7a3.28,3.28,0,0,0,0,.73,0.73,0.73,0,0,0,.42.59,1.38,1.38,0,0,0,.69.07A3.52,3.52,0,0,0,41,19.8a5,5,0,0,0,.54-0.22,0.26,0.26,0,0,1,.3,0,0.55,0.55,0,0,1,.12.36l0.22,1.85a0.81,0.81,0,0,1,0,.36A0.47,0.47,0,0,1,41.93,22.37Z"/><path class="cls-4" d="M54.87,16.1a0.93,0.93,0,0,1-.14.46,0.46,0.46,0,0,1-.41.16H46.6a3.68,3.68,0,0,0,1,2.44,3.22,3.22,0,0,0,2.09.84,5.71,5.71,0,0,0,2-.22A7.26,7.26,0,0,0,53.36,19a0.45,0.45,0,0,1,.47-0.12,0.7,0.7,0,0,1,.12.52v1.85a0.77,0.77,0,0,1-.06.37,1.32,1.32,0,0,1-.28.27,5.19,5.19,0,0,1-1.81.74,9.86,9.86,0,0,1-2.16.25A6,6,0,0,1,45,21a7.79,7.79,0,0,1-1.72-5.41A10.21,10.21,0,0,1,43.58,13a7,7,0,0,1,1.11-2.36,6.19,6.19,0,0,1,1.88-1.7,5.12,5.12,0,0,1,2.64-.65,5.56,5.56,0,0,1,2.63.57,4.94,4.94,0,0,1,1.75,1.53,6.31,6.31,0,0,1,1,2.23,11.85,11.85,0,0,1,.3,2.7V16.1Zm-5.58-5a2,2,0,0,0-1,.25,2.77,2.77,0,0,0-.78.64,4.2,4.2,0,0,0-.58.91A3.59,3.59,0,0,0,46.65,14h5a3.42,3.42,0,0,0-.16-1,3.36,3.36,0,0,0-.44-0.93,2.4,2.4,0,0,0-.73-0.68A1.94,1.94,0,0,0,49.29,11.11Z"/></svg>