<svg id="레이어_1" data-name="레이어 1" xmlns="http://www.w3.org/2000/svg" width="28" height="28" viewBox="0 0 28 28"><defs><style>.cls-1{fill:#fff;opacity:0;}.cls-2{fill:#26cad3;}</style></defs><title>pen</title><rect class="cls-1" width="28" height="28"/><rect class="cls-2" x="20.4" y="3.44" width="1.88" height="7.45" rx="0.28" ry="0.28" transform="translate(6.36 17.46) rotate(-54.76)"/><path class="cls-2" d="M16.86,6.38L6.8,20.62l0,7.07,6.67-2.33h0L23.57,11.12Zm0,2.1a0.49,0.49,0,0,1,.68-0.12l3.94,2.79a0.49,0.49,0,0,1,.12.68L13.52,23.26a0.49,0.49,0,0,1-.68.12L8.9,20.59a0.49,0.49,0,0,1-.12-0.68ZM9.18,25.62L8,24.79l0-3.33,4.34,3.07Z" transform="translate(3.19 -3)"/><path class="cls-2" d="M6.34,28.88a0.76,0.76,0,0,1-.76.76h-8a0.76,0.76,0,0,1-.76-0.76h0a0.76,0.76,0,0,1,.76-0.76h8a0.76,0.76,0,0,1,.76.76h0Z" transform="translate(3.19 -3)"/></svg>