<svg id="레이어_1" data-name="레이어 1" xmlns="http://www.w3.org/2000/svg" width="79" height="28.76" viewBox="0 0 79 28.76"><defs><style>.cls-1,.cls-4{fill:#fff;}.cls-1{opacity:0;}.cls-2{fill:#26cad3;}.cls-3{fill:none;stroke:#26cad3;stroke-miterlimit:10;stroke-width:4px;}</style></defs><title>tip</title><rect class="cls-1" width="79" height="28"/><polygon class="cls-2" points="79 19.14 68.46 0 58.55 19.14 79 19.14"/><path class="cls-2" d="M21.23,7.46v15.4a0.4,0.4,0,0,1-.47.49H18.34a0.4,0.4,0,0,1-.47-0.49V7.46H13.49a0.58,0.58,0,0,1-.38-0.1A0.49,0.49,0,0,1,13,7V4.84a0.44,0.44,0,0,1,.39-0.48H25.64a0.52,0.52,0,0,1,.41.11,0.64,0.64,0,0,1,.09.38V7a0.58,0.58,0,0,1-.09.37,0.57,0.57,0,0,1-.41.1H21.23Z" transform="translate(-11)"/><path class="cls-2" d="M29.37,7.41A1.8,1.8,0,0,1,28,6.84a1.92,1.92,0,0,1-.52-1.38A2,2,0,0,1,28,4.07a1.77,1.77,0,0,1,1.37-.58,1.81,1.81,0,0,1,1.38.58,2,2,0,0,1,.54,1.39,1.93,1.93,0,0,1-.54,1.38A1.83,1.83,0,0,1,29.37,7.41ZM28.11,23.36a0.4,0.4,0,0,1-.31-0.1,0.63,0.63,0,0,1-.09-0.39V10a0.72,0.72,0,0,1,.07-0.4,0.39,0.39,0,0,1,.32-0.1h2.44a0.44,0.44,0,0,1,.33.1A0.63,0.63,0,0,1,31,10V22.86a0.63,0.63,0,0,1-.09.39,0.44,0.44,0,0,1-.33.1H28.11Z" transform="translate(-11)"/><path class="cls-3" d="M21.23,7.46v15.4a0.4,0.4,0,0,1-.47.49H18.34a0.4,0.4,0,0,1-.47-0.49V7.46H13.49a0.58,0.58,0,0,1-.38-0.1A0.49,0.49,0,0,1,13,7V4.84a0.44,0.44,0,0,1,.39-0.48H25.64a0.52,0.52,0,0,1,.41.11,0.64,0.64,0,0,1,.09.38V7a0.58,0.58,0,0,1-.09.37,0.57,0.57,0,0,1-.41.1H21.23Z" transform="translate(-11)"/><path class="cls-3" d="M29.37,7.41A1.8,1.8,0,0,1,28,6.84a1.92,1.92,0,0,1-.52-1.38A2,2,0,0,1,28,4.07a1.77,1.77,0,0,1,1.37-.58,1.81,1.81,0,0,1,1.38.58,2,2,0,0,1,.54,1.39,1.93,1.93,0,0,1-.54,1.38A1.83,1.83,0,0,1,29.37,7.41ZM28.11,23.36a0.4,0.4,0,0,1-.31-0.1,0.63,0.63,0,0,1-.09-0.39V10a0.72,0.72,0,0,1,.07-0.4,0.39,0.39,0,0,1,.32-0.1h2.44a0.44,0.44,0,0,1,.33.1A0.63,0.63,0,0,1,31,10V22.86a0.63,0.63,0,0,1-.09.39,0.44,0.44,0,0,1-.33.1H28.11Z" transform="translate(-11)"/><path class="cls-3" d="M34,27.94c0-.14,0-1.05,0-1.19V10a0.58,0.58,0,0,1,.14-0.46,0.64,0.64,0,0,1,.33-0.11h2.22a0.7,0.7,0,0,1,.41.09,0.44,0.44,0,0,1,.11.36v1a3.39,3.39,0,0,1,.57-0.58,4.06,4.06,0,0,1,.77-0.49,4.5,4.5,0,0,1,.9-0.33,3.83,3.83,0,0,1,1-.12,4.83,4.83,0,0,1,2.26.52,5,5,0,0,1,1.69,1.45,7.07,7.07,0,0,1,1.07,2.3,11.29,11.29,0,0,1,.38,3.06,10.31,10.31,0,0,1-.4,2.94,6.83,6.83,0,0,1-1.14,2.28,5.22,5.22,0,0,1-1.8,1.48,5.28,5.28,0,0,1-2.35.53,4,4,0,0,1-1.57-.35,3.7,3.7,0,0,1-1.39-1.06v4.22c0,0.42,0,.63,0,1.15m2.66-15.55a2.08,2.08,0,0,0-1,.26,2.48,2.48,0,0,0-.85.79,4.52,4.52,0,0,0-.6,1.34,7,7,0,0,0-.23,1.92,8,8,0,0,0,.21,2A4.16,4.16,0,0,0,38,20a2.16,2.16,0,0,0,.85.75,2.43,2.43,0,0,0,1.06.24,2.34,2.34,0,0,0,2-1,7.51,7.51,0,0,0,0-6.58A2.38,2.38,0,0,0,39.88,12.36Z" transform="translate(-11)"/><path class="cls-4" d="M21.23,7.46v15.4a0.4,0.4,0,0,1-.47.49H18.34a0.4,0.4,0,0,1-.47-0.49V7.46H13.49a0.58,0.58,0,0,1-.38-0.1A0.49,0.49,0,0,1,13,7V4.84a0.44,0.44,0,0,1,.39-0.48H25.64a0.52,0.52,0,0,1,.41.11,0.64,0.64,0,0,1,.09.38V7a0.58,0.58,0,0,1-.09.37,0.57,0.57,0,0,1-.41.1H21.23Z" transform="translate(-11)"/><path class="cls-4" d="M29.37,7.41A1.8,1.8,0,0,1,28,6.84a1.92,1.92,0,0,1-.52-1.38A2,2,0,0,1,28,4.07a1.77,1.77,0,0,1,1.37-.58,1.81,1.81,0,0,1,1.38.58,2,2,0,0,1,.54,1.39,1.93,1.93,0,0,1-.54,1.38A1.83,1.83,0,0,1,29.37,7.41ZM28.11,23.36a0.4,0.4,0,0,1-.31-0.1,0.63,0.63,0,0,1-.09-0.39V10a0.72,0.72,0,0,1,.07-0.4,0.39,0.39,0,0,1,.32-0.1h2.44a0.44,0.44,0,0,1,.33.1A0.63,0.63,0,0,1,31,10V22.86a0.63,0.63,0,0,1-.09.39,0.44,0.44,0,0,1-.33.1H28.11Z" transform="translate(-11)"/><path class="cls-4" d="M40.18,23.95a4,4,0,0,1-1.57-.35,3.7,3.7,0,0,1-1.39-1.06v4.22a0.64,0.64,0,0,1-.09.38,0.48,0.48,0,0,1-.38.11H34.49a0.48,0.48,0,0,1-.37-0.11,0.58,0.58,0,0,1-.1-0.38V10a0.58,0.58,0,0,1,.14-0.46,0.64,0.64,0,0,1,.33-0.11h2.22a0.7,0.7,0,0,1,.41.09,0.44,0.44,0,0,1,.11.36v1a3.39,3.39,0,0,1,.57-0.58,4.06,4.06,0,0,1,.77-0.49,4.5,4.5,0,0,1,.9-0.33,3.83,3.83,0,0,1,1-.12,4.83,4.83,0,0,1,2.26.52,5,5,0,0,1,1.69,1.45,7.07,7.07,0,0,1,1.07,2.3,11.29,11.29,0,0,1,.38,3.06,10.31,10.31,0,0,1-.4,2.94,6.83,6.83,0,0,1-1.14,2.28,5.22,5.22,0,0,1-1.8,1.48A5.28,5.28,0,0,1,40.18,23.95Zm-0.3-11.59a2.08,2.08,0,0,0-1,.26,2.48,2.48,0,0,0-.85.79,4.52,4.52,0,0,0-.6,1.34,7,7,0,0,0-.23,1.92,8,8,0,0,0,.21,2A4.16,4.16,0,0,0,38,20a2.16,2.16,0,0,0,.85.75,2.43,2.43,0,0,0,1.06.24,2.34,2.34,0,0,0,2-1,7.51,7.51,0,0,0,0-6.58A2.38,2.38,0,0,0,39.88,12.36Z" transform="translate(-11)"/></svg>