<svg id="레이어_1" data-name="레이어 1" xmlns="http://www.w3.org/2000/svg" width="50" height="50" viewBox="0 0 50 50"><defs><style>.cls-1,.cls-4{fill:#fff;}.cls-1{stroke:#7c64ed;stroke-miterlimit:10;stroke-width:1.4px;}.cls-2{fill:#7c64ed;}.cls-3{fill:#b7afef;}</style></defs><title>dial</title><rect class="cls-1" x="0.7" y="0.7" width="48.6" height="48.6" rx="8.1" ry="8.1"/><path class="cls-2" d="M26.3,9.44h0a0.78,0.78,0,0,0-.77.77v2.5a0.78,0.78,0,0,0,.77.77h0a0.78,0.78,0,0,0,.77-0.77v-2.5A0.78,0.78,0,0,0,26.3,9.44Z" transform="translate(-1.3 0.67)"/><path class="cls-3" d="M14.68,13.68h0a0.78,0.78,0,0,0-.1,1.09l1.61,1.92a0.78,0.78,0,0,0,1.09.1h0a0.78,0.78,0,0,0,.1-1.09l-1.61-1.92A0.78,0.78,0,0,0,14.68,13.68Z" transform="translate(-1.3 0.67)"/><path class="cls-3" d="M8.49,24.39h0a0.78,0.78,0,0,0,.63.9l2.46,0.43a0.78,0.78,0,0,0,.9-0.63h0a0.78,0.78,0,0,0-.63-0.9l-2.46-.43A0.78,0.78,0,0,0,8.49,24.39Z" transform="translate(-1.3 0.67)"/><path class="cls-3" d="M10.64,36.58h0a0.78,0.78,0,0,0,1.06.28l2.17-1.25a0.78,0.78,0,0,0,.28-1.06h0a0.78,0.78,0,0,0-1.06-.28l-2.17,1.25A0.78,0.78,0,0,0,10.64,36.58Z" transform="translate(-1.3 0.67)"/><path class="cls-3" d="M42,36.58h0a0.78,0.78,0,0,0-.28-1.06l-2.17-1.25a0.78,0.78,0,0,0-1.06.28h0a0.78,0.78,0,0,0,.28,1.06l2.17,1.25A0.78,0.78,0,0,0,42,36.58Z" transform="translate(-1.3 0.67)"/><path class="cls-3" d="M44.12,24.39h0a0.78,0.78,0,0,0-.9-0.63l-2.46.43a0.78,0.78,0,0,0-.63.9h0a0.78,0.78,0,0,0,.9.63l2.46-.43A0.78,0.78,0,0,0,44.12,24.39Z" transform="translate(-1.3 0.67)"/><path class="cls-3" d="M37.93,13.68h0a0.78,0.78,0,0,0-1.09.1l-1.61,1.92a0.78,0.78,0,0,0,.1,1.09h0a0.78,0.78,0,0,0,1.09-.1L38,14.77A0.78,0.78,0,0,0,37.93,13.68Z" transform="translate(-1.3 0.67)"/><circle class="cls-2" cx="25" cy="28.2" r="11.69"/><circle class="cls-4" cx="20.29" cy="22" r="2.17"/></svg>