<svg id="레이어_1" data-name="레이어 1" xmlns="http://www.w3.org/2000/svg" width="50" height="50" viewBox="0 0 50 50"><defs><style>.cls-1{fill:#fff;stroke:#ff8e1d;stroke-miterlimit:10;stroke-width:1.4px;}.cls-2{fill:#ff8e1d;}.cls-3{fill:#ffc088;}</style></defs><title>monitor</title><rect class="cls-1" x="0.7" y="0.7" width="48.6" height="48.6" rx="8.1" ry="8.1"/><path class="cls-2" d="M34.92,9.11H3.53a1.74,1.74,0,0,0-1.74,1.74V33.52a1.74,1.74,0,0,0,1.74,1.74H34.92a1.74,1.74,0,0,0,1.74-1.74V10.86A1.74,1.74,0,0,0,34.92,9.11Zm-0.7,22.79h-30V11.12h30V31.91Z" transform="translate(5.77 0.79)"/><rect class="cls-3" x="10.82" y="12.72" width="28.37" height="19.16"/><path class="cls-2" d="M27.08,37.73H11.37a1.58,1.58,0,0,0-1.58,1.58H28.66A1.58,1.58,0,0,0,27.08,37.73Z" transform="translate(5.77 0.79)"/><rect class="cls-2" x="24.22" y="36.06" width="1.51" height="2.46"/></svg>