<svg id="레이어_1" data-name="레이어 1" xmlns="http://www.w3.org/2000/svg" width="50" height="50" viewBox="0 0 50 50"><defs><style>.cls-1{fill:#fff;stroke:#7c64ed;stroke-miterlimit:10;stroke-width:1.4px;}.cls-2{fill:#b7afef;}.cls-3{fill:#7c64ed;}.cls-4{fill:#382faf;}</style></defs><title>env</title><rect class="cls-1" x="0.7" y="0.7" width="48.6" height="48.6" rx="8.1" ry="8.1"/><path class="cls-2" d="M25.63,15v0C26,10.92,30.82,4.48,30.82,4.48S35.6,10.92,36,15v0a5,5,0,0,1,0,.51,5.22,5.22,0,0,1-10.43,0C25.6,15.36,25.61,15.18,25.63,15Z" transform="translate(0.64 3.17)"/><path class="cls-3" d="M12.7,28.55V13.16h3.7V28.55A4.7,4.7,0,1,1,12.7,28.55Z" transform="translate(0.64 3.17)"/><path class="cls-3" d="M25.31,30.67a5.41,5.41,0,0,0,5.41,5.41V25.26A5.41,5.41,0,0,0,25.31,30.67Z" transform="translate(0.64 3.17)"/><path class="cls-2" d="M36.13,30.67a5.41,5.41,0,0,0-5.41-5.41V36.07A5.41,5.41,0,0,0,36.13,30.67Z" transform="translate(0.64 3.17)"/><path class="cls-3" d="M40.14,30.31H37.85a0.35,0.35,0,0,0-.35.35h0a0.35,0.35,0,0,0,.35.35h2.29a0.35,0.35,0,0,0,.35-0.35h0A0.35,0.35,0,0,0,40.14,30.31Z" transform="translate(0.64 3.17)"/><path class="cls-3" d="M39.05,35.07l-2-1.15a0.35,0.35,0,0,0-.48.13h0a0.35,0.35,0,0,0,.13.48l2,1.15a0.35,0.35,0,0,0,.48-0.13h0A0.35,0.35,0,0,0,39.05,35.07Z" transform="translate(0.64 3.17)"/><path class="cls-3" d="M35.73,38.65l-1.15-2a0.35,0.35,0,0,0-.48-0.13h0A0.35,0.35,0,0,0,34,37l1.15,2a0.35,0.35,0,0,0,.48.13h0A0.35,0.35,0,0,0,35.73,38.65Z" transform="translate(0.64 3.17)"/><path class="cls-3" d="M38.7,25.65l-2,1.15a0.35,0.35,0,0,0-.13.48h0a0.35,0.35,0,0,0,.48.13l2-1.15a0.35,0.35,0,0,0,.13-0.48h0A0.35,0.35,0,0,0,38.7,25.65Z" transform="translate(0.64 3.17)"/><path class="cls-3" d="M35.13,22.33l-1.15,2a0.35,0.35,0,0,0,.13.48h0a0.35,0.35,0,0,0,.48-0.13l1.15-2a0.35,0.35,0,0,0-.13-0.48h0A0.35,0.35,0,0,0,35.13,22.33Z" transform="translate(0.64 3.17)"/><line class="cls-4" x1="31.36" y1="33.84" x2="33.02" y2="32.85"/><path class="cls-3" d="M18.07,27.6V8A3.53,3.53,0,1,0,11,8V27.6A6.32,6.32,0,1,0,18.07,27.6ZM14.55,38.36a5.51,5.51,0,0,1-2.71-10.31V8a2.71,2.71,0,0,1,5.42,0V28A5.51,5.51,0,0,1,14.55,38.36Z" transform="translate(0.64 3.17)"/></svg>