<svg id="레이어_1" data-name="레이어 1" xmlns="http://www.w3.org/2000/svg" width="50" height="50" viewBox="0 0 50 50"><defs><style>.cls-1{fill:#fff;stroke:#7c64ed;stroke-miterlimit:10;stroke-width:1.4px;}.cls-2{fill:#b7afef;}.cls-3{fill:#7c64ed;}</style></defs><title>gyro</title><rect class="cls-1" x="0.7" y="0.7" width="48.6" height="48.6" rx="8.1" ry="8.1"/><polygon class="cls-2" points="25 28.5 15.89 23.05 15.26 23.41 15.26 34.67 25 40.29 34.74 34.67 34.74 23.41 34.63 23.35 25 28.5"/><path class="cls-3" d="M26.31,34.42L23.85,33a1.84,1.84,0,0,0,0-.31V22.18A1.87,1.87,0,0,0,23,20.56l-9.1-5.25h0V12.17a0.91,0.91,0,0,0-1.82,0V15.3h0l-9.1,5.25a1.87,1.87,0,0,0-.94,1.62V32.69A1.84,1.84,0,0,0,2,33l-2.46,1.42A0.91,0.91,0,0,0-.8,35.67,0.91,0.91,0,0,0,.44,36l2.69-1.55L12,39.56a1.87,1.87,0,0,0,1.87,0l8.86-5.11L25.4,36A0.91,0.91,0,1,0,26.31,34.42ZM12,37.1a0.36,0.36,0,0,1-.54.32L4,33.13a0.36,0.36,0,0,1-.18-0.32V23.26a0.36,0.36,0,0,1,.54-0.32l7.5,4.28a0.36,0.36,0,0,1,.18.32V37.1Zm0.73-11.59-7.06-4a0.36,0.36,0,0,1,0-.63l7.07-4a0.36,0.36,0,0,1,.36,0l7.06,4a0.36,0.36,0,0,1,0,.63l-7.07,4A0.36,0.36,0,0,1,12.74,25.51Zm9.14,7.62-7.5,4.28a0.36,0.36,0,0,1-.54-0.32V27.54A0.36,0.36,0,0,1,14,27.22l7.5-4.28a0.36,0.36,0,0,1,.54.32v9.56A0.36,0.36,0,0,1,21.87,33.13Z" transform="translate(12.08 1.8)"/><path class="cls-3" d="M-2.26,39.32h-2l2.4-2.4a0.54,0.54,0,0,0,.12-0.17,0.54,0.54,0,0,0,0-.41A0.54,0.54,0,0,0-2.06,36a0.54,0.54,0,0,0-.21,0H-5.58a0.54,0.54,0,0,0-.54.54,0.54,0.54,0,0,0,.54.54h2L-6,39.48a0.53,0.53,0,0,0-.17.39,0.54,0.54,0,0,0,.34.5h0.07l0.13,0h3.32a0.54,0.54,0,0,0,.54-0.54A0.54,0.54,0,0,0-2.26,39.32Z" transform="translate(12.08 1.8)"/><path class="cls-3" d="M30.52,38.2l1.28-1.28A0.54,0.54,0,1,0,31,36.16l-1.28,1.28-1.28-1.28a0.54,0.54,0,0,0-.76.76L29,38.2l-1.28,1.28a0.54,0.54,0,1,0,.76.76L29.76,39,31,40.24a0.54,0.54,0,1,0,.76-0.76Z" transform="translate(12.08 1.8)"/><path class="cls-3" d="M15,6.16a0.54,0.54,0,0,0-.76,0L12.92,7.44,11.64,6.16a0.54,0.54,0,0,0-.76.76l1.5,1.5V9.86a0.54,0.54,0,0,0,1.08,0V8.42L15,6.92A0.54,0.54,0,0,0,15,6.16Z" transform="translate(12.08 1.8)"/></svg>