<svg id="레이어_1" data-name="레이어 1" xmlns="http://www.w3.org/2000/svg" width="50" height="50" viewBox="0 0 50 50"><defs><style>.cls-1{fill:#fff;stroke:#7c64ed;stroke-miterlimit:10;stroke-width:1.4px;}.cls-2{fill:#7c64ed;}.cls-3{fill:#b7afef;}.cls-4{fill:#382faf;}</style></defs><title>ir</title><rect class="cls-1" x="0.7" y="0.7" width="48.6" height="48.6" rx="8.1" ry="8.1"/><path class="cls-2" d="M16.86,10H5.57V29.15H16.86a0.76,0.76,0,0,0,.76-0.76V10.73A0.76,0.76,0,0,0,16.86,10Z" transform="translate(2.03 5.44)"/><path class="cls-3" d="M17.59,21.28V26A2.36,2.36,0,0,0,17.59,21.28Z" transform="translate(2.03 5.44)"/><path class="cls-3" d="M17.59,13.12v4.73A2.36,2.36,0,0,0,17.59,13.12Z" transform="translate(2.03 5.44)"/><circle class="cls-4" cx="21.82" cy="15.02" r="0.52" transform="translate(3.13 36.95) rotate(-73.07)"/><circle class="cls-4" cx="23.56" cy="15.55" r="0.52" transform="translate(3.83 38.96) rotate(-72.97)"/><circle class="cls-4" cx="25.3" cy="16.08" r="0.52" transform="translate(4.58 41.04) rotate(-73.06)"/><circle class="cls-4" cx="27.05" cy="16.61" r="0.52" transform="translate(5.31 43.08) rotate(-73.06)"/><circle class="cls-4" cx="28.79" cy="17.14" r="0.52" transform="translate(6.01 45.1) rotate(-72.99)"/><circle class="cls-4" cx="30.54" cy="17.67" r="0.52" transform="translate(6.76 47.17) rotate(-73.05)"/><circle class="cls-4" cx="32.28" cy="18.2" r="0.52" transform="translate(7.52 49.24) rotate(-73.12)"/><circle class="cls-4" cx="34.02" cy="18.74" r="0.52" transform="translate(8.2 51.24) rotate(-73.02)"/><circle class="cls-4" cx="35.77" cy="19.27" r="0.52" transform="translate(8.96 53.31) rotate(-73.08)"/><circle class="cls-4" cx="37.51" cy="19.8" r="0.52" transform="translate(-2.09 17.11) rotate(-16.79)"/><circle class="cls-4" cx="35.77" cy="20.33" r="0.52" transform="translate(-2.35 16.77) rotate(-16.98)"/><circle class="cls-4" cx="34.02" cy="20.86" r="0.52" transform="translate(-2.58 16.28) rotate(-16.97)"/><circle class="cls-4" cx="32.28" cy="21.39" r="0.52" transform="translate(-2.8 15.78) rotate(-16.95)"/><circle class="cls-4" cx="30.54" cy="21.92" r="0.52" transform="translate(-3.04 15.3) rotate(-16.97)"/><circle class="cls-4" cx="28.79" cy="22.45" r="0.52" transform="matrix(0.96, -0.29, 0.29, 0.96, -3.27, 14.82)"/><circle class="cls-4" cx="27.05" cy="22.99" r="0.52" transform="translate(-3.49 14.31) rotate(-16.94)"/><polygon class="cls-4" points="27.59 28.94 27.98 30.07 26.33 30.01 24.67 29.96 25.93 28.89 27.2 27.82 27.59 28.94"/><path class="cls-3" d="M40.37,25a0.67,0.67,0,0,1-.67.67h0A0.67,0.67,0,0,1,39,25V14.16a0.67,0.67,0,0,1,.67-0.67h0a0.67,0.67,0,0,1,.67.67V25Z" transform="translate(2.03 5.44)"/></svg>