<svg id="레이어_1" data-name="레이어 1" xmlns="http://www.w3.org/2000/svg" width="50" height="50" viewBox="0 0 50 50"><defs><style>.cls-1{fill:#fff;stroke:#ff8e1d;stroke-miterlimit:10;stroke-width:1.4px;}.cls-2{fill:#ff8e1d;}.cls-3{fill:#ffc088;}</style></defs><title>led</title><rect class="cls-1" x="0.7" y="0.7" width="48.6" height="48.6" rx="8.1" ry="8.1"/><rect class="cls-2" x="14.97" y="34.67" width="20.07" height="2.16"/><path class="cls-3" d="M21.5,8.72h0a0.78,0.78,0,0,1-.78-0.78V3.3a0.78,0.78,0,0,1,.78-0.78h0a0.78,0.78,0,0,1,.78.78V7.94A0.78,0.78,0,0,1,21.5,8.72Z" transform="translate(3.5 5)"/><path class="cls-3" d="M16.08,10.17h0A0.78,0.78,0,0,1,15,9.88l-2.32-4A0.78,0.78,0,0,1,13,4.8h0A0.78,0.78,0,0,1,14,5.09l2.32,4A0.78,0.78,0,0,1,16.08,10.17Z" transform="translate(3.5 5)"/><path class="cls-3" d="M12.12,14.13h0a0.78,0.78,0,0,1-1.06.28L7,12.1A0.78,0.78,0,0,1,6.75,11h0a0.78,0.78,0,0,1,1.06-.28l4,2.32A0.78,0.78,0,0,1,12.12,14.13Z" transform="translate(3.5 5)"/><path class="cls-3" d="M30.88,14.13h0a0.78,0.78,0,0,1,.28-1.06l4-2.32a0.78,0.78,0,0,1,1.06.28h0A0.78,0.78,0,0,1,36,12.1l-4,2.32A0.78,0.78,0,0,1,30.88,14.13Z" transform="translate(3.5 5)"/><path class="cls-3" d="M26.92,10.17h0a0.78,0.78,0,0,1-.28-1.06l2.32-4A0.78,0.78,0,0,1,30,4.8h0a0.78,0.78,0,0,1,.28,1.06L28,9.88A0.78,0.78,0,0,1,26.92,10.17Z" transform="translate(3.5 5)"/><path class="cls-2" d="M16.1,32.63v3.87a1,1,0,1,0,1.93,0V32.63H16.1Z" transform="translate(3.5 5)"/><path class="cls-2" d="M25,32.63v3.87a1,1,0,0,0,1.93,0V32.63H25Z" transform="translate(3.5 5)"/><path class="cls-2" d="M30.07,28.85V19.63a8.57,8.57,0,1,0-17.15,0v9.22H30.07Z" transform="translate(3.5 5)"/></svg>