<svg id="레이어_1" data-name="레이어 1" xmlns="http://www.w3.org/2000/svg" width="50" height="50" viewBox="0 0 50 50"><defs><style>.cls-1{fill:#fff;stroke:#7c64ed;stroke-miterlimit:10;stroke-width:1.4px;}.cls-2{fill:#7c64ed;}.cls-3{fill:#b7afef;}</style></defs><title>mic</title><rect class="cls-1" x="0.7" y="0.7" width="48.6" height="48.6" rx="8.1" ry="8.1"/><path class="cls-2" d="M30,10.52V9.63a7.28,7.28,0,1,0-14.56,0v0.89h6.34v1.8H15.41v2.09h6.34v1.8H15.41V18.3h6.34v1.8H15.41v2.09h6.34V24H15.41v0.89a7.28,7.28,0,0,0,14.56,0V24H23.62v-1.8H30V20.1H23.62V18.3H30V16.21H23.62v-1.8H30V12.32H23.62v-1.8H30Z" transform="translate(2.31 5.32)"/><path class="cls-3" d="M31.75,24v1.1a9.06,9.06,0,0,1-18.11,0V24H10.95v1.27a11.74,11.74,0,1,0,23.48,0V24H31.75Z" transform="translate(2.31 5.32)"/></svg>