<svg id="레이어_1" data-name="레이어 1" xmlns="http://www.w3.org/2000/svg" width="50" height="50" viewBox="0 0 50 50"><defs><style>.cls-1{fill:#fff;stroke:#ff8e1d;stroke-miterlimit:10;stroke-width:1.4px;}.cls-2{fill:#ffc088;}.cls-3{fill:#ff8e1d;}</style></defs><title>motor</title><rect class="cls-1" x="0.7" y="0.7" width="48.6" height="48.6" rx="8.1" ry="8.1"/><rect class="cls-2" x="7.55" y="24.31" width="3.93" height="1.38"/><path class="cls-2" d="M35.21,16.79V14.92a3.76,3.76,0,0,0-3.76-3.76H29.74V30.48h1.71a3.76,3.76,0,0,0,3.76-3.76V24.86h1.52V16.79H35.21Z" transform="translate(5.72 4.18)"/><rect class="cls-3" x="11.48" y="21.83" width="1.59" height="6.35"/><path class="cls-3" d="M11.12,11.16a3.76,3.76,0,0,0-3.76,3.76V26.72a3.76,3.76,0,0,0,3.76,3.76H28.93V11.16H11.12Z" transform="translate(5.72 4.18)"/></svg>