<svg id="레이어_1" data-name="레이어 1" xmlns="http://www.w3.org/2000/svg" width="50" height="50" viewBox="0 0 50 50"><defs><style>.cls-1{fill:#fff;stroke:#fc0;stroke-miterlimit:10;stroke-width:1.4px;}.cls-2{fill:#ffdc00;}.cls-3{fill:#fc0;}</style></defs><title>network</title><rect class="cls-1" x="0.7" y="0.7" width="48.6" height="48.6" rx="8.1" ry="8.1"/><path class="cls-2" d="M38.26,21.3s0-.08,0-0.12c0-.4-0.06-0.8-0.11-1.19V19.94q-0.09-.61-0.23-1.2l0-.06q-0.14-.58-0.34-1.14l0-.13c-0.06-.17-0.12-0.34-0.19-0.51l-0.06-.15-0.15-.35L37,16.18c-0.06-.13-0.13-0.27-0.2-0.4l-0.15-.28-0.1-.17c-0.1-.18-0.21-0.36-0.32-0.54l0-.08L36,14.39l0-.06q-0.2-.28-0.41-0.56l-0.07-.1L35,13.13l0,0-0.25-.27-0.1-.11-0.24-.25-0.19-.17L34,12.14l-0.42-.38-0.15-.13-0.27-.22-0.27-.2L32.6,11l-0.21-.14-0.2-.14h0l0,0.08L31.29,12.1h0a11.63,11.63,0,0,1,1.13.83l0.05,0,0.47,0.41L33,13.46l0.44,0.44,0,0a11.65,11.65,0,0,1,1.29,1.66l0,0c0.12,0.18.22,0.37,0.33,0.56l0,0.08c0.1,0.18.2,0.37,0.29,0.56l0,0.06c0.1,0.21.2,0.42,0.28,0.64v0q0.11,0.28.21,0.57l0.07,0.21,0.12,0.42c0,0.08,0,.16.06,0.25s0.08,0.32.11,0.48l0,0.21c0,0.19.07,0.39,0.09,0.58l0,0.24c0,0.15,0,.3,0,0.45s0,0.15,0,.23,0,0.43,0,.65v0c0,0.22,0,.44,0,0.65s0,0.15,0,.23,0,0.3,0,.45l0,0.24c0,0.19-.06.38-0.09,0.57l0,0.23c0,0.16-.07.31-0.11,0.47L36.19,25l-0.12.41L36,25.63c-0.06.19-.13,0.37-0.2,0.56l0,0c-0.09.22-.18,0.43-0.28,0.64l0,0.07c-0.09.19-.19,0.37-0.28,0.55l0,0.08c-0.11.19-.22,0.37-0.33,0.55l0,0a11.56,11.56,0,0,1-1.29,1.66l0,0L33,30.31l-0.08.07-0.46.41-0.06.05-0.53.42h0l-0.58.41,0.9,1.4h0l0.22-.15,0.18-.12,0.49-.36,0.12-.09,0.28-.23L33.61,32,34,31.62l0.15-.14,0.19-.17,0.23-.24L34.71,31,35,30.68l0-.06,0.44-.53,0.08-.1c0.14-.18.28-0.37,0.41-0.56l0-.06,0.21-.31L36.23,29c0.11-.18.22-0.36,0.32-0.54l0.1-.17L36.8,28c0.07-.13.14-0.26,0.2-0.4l0.1-.23L37.25,27l0.06-.15,0.19-.51,0-.13q0.19-.56.34-1.14l0-.06q0.14-.59.23-1.2V23.77c0.06-.39.09-0.79,0.11-1.18,0,0,0-.08,0-0.12,0-.19,0-0.39,0-0.58S38.27,21.49,38.26,21.3Z" transform="translate(0 0)"/><path class="cls-2" d="M31.61,21.88a6.66,6.66,0,0,0-3-5.59l-0.91,1.4a5,5,0,0,1,0,8.39l0.91,1.4A6.66,6.66,0,0,0,31.61,21.88Z" transform="translate(0 0)"/><path class="cls-2" d="M34.95,21.88a10,10,0,0,0-4.56-8.39l-0.9,1.4a8.33,8.33,0,0,1,0,14l0.9,1.4A10,10,0,0,0,34.95,21.88Z" transform="translate(0 0)"/><path class="cls-3" d="M25,19.28a2.6,2.6,0,0,0-1,5v15h2v-15A2.6,2.6,0,0,0,25,19.28Z" transform="translate(0 0)"/><path class="cls-2" d="M17.53,30.79l-0.47-.41L17,30.31l-0.44-.44,0,0a11.61,11.61,0,0,1-1.29-1.66l0,0C15.09,28,15,27.77,14.87,27.58l0-.08c-0.1-.18-0.2-0.37-0.29-0.56l0-.06c-0.1-.21-0.19-0.42-0.28-0.64l0,0q-0.11-.28-0.21-0.57l-0.07-.21L13.81,25l-0.06-.25c0-.16-0.08-0.32-0.11-0.48l0-.21q-0.05-.29-0.09-0.58c0-.08,0-0.16,0-0.24s0-.3,0-0.45l0-.23c0-.22,0-0.43,0-0.65v0c0-.22,0-0.43,0-0.65l0-.23c0-.15,0-0.3,0-0.45s0-.16,0-0.24,0.06-.38.09-0.57,0-.15,0-0.23,0.07-.31.11-0.47l0.07-.25c0-.14.08-0.28,0.12-0.41L14,18.14c0.06-.19.13-0.38,0.21-0.56l0,0c0.09-.22.18-0.43,0.28-0.64l0-.07q0.14-.28.28-0.55l0-.09c0.1-.19.21-0.37,0.33-0.55l0,0a11.72,11.72,0,0,1,1.29-1.66l0,0L17,13.46l0.08-.07L17.53,13l0.06-.05,0.53-.42h0l0.59-.41L17.8,10.7h0l-0.22.15L17.41,11l-0.49.36-0.11.09-0.28.23-0.13.11L16,12.15l-0.15.14-0.19.18-0.23.24-0.11.11L15,13.09l0,0.06-0.44.53-0.08.1c-0.14.18-.28,0.37-0.41,0.56l0,0.06-0.21.31-0.05.08c-0.11.18-.22,0.36-0.32,0.54l-0.09.17-0.15.28c-0.07.13-.13,0.26-0.2,0.4l-0.1.22-0.15.34-0.06.15c-0.07.17-.13,0.34-0.19,0.51l0,0.13c-0.13.37-.24,0.75-0.34,1.14l0,0.06c-0.09.39-.17,0.79-0.23,1.2V20c-0.06.39-.09,0.78-0.11,1.18,0,0,0,.08,0,0.12,0,0.19,0,.39,0,0.58s0,0.39,0,.58c0,0,0,.08,0,0.12,0,0.4.06,0.8,0.11,1.19v0.06c0.06,0.41.14,0.81,0.23,1.2l0,0.06q0.14,0.58.34,1.14l0,0.13c0.06,0.17.12,0.34,0.19,0.51L12.75,27l0.15,0.35L13,27.59c0.06,0.13.13,0.27,0.2,0.4l0.15,0.28,0.09,0.17c0.1,0.18.21,0.37,0.33,0.54l0,0.08L14,29.38l0,0.06L14.48,30l0.08,0.1L15,30.64l0,0L15.29,31l0.1,0.11,0.24,0.25,0.19,0.18L16,31.63,16.38,32l0.15,0.13,0.27,0.22,0.27,0.2,0.33,0.24,0.21,0.14,0.2,0.14h0L17.85,33l0.85-1.32h0a11.88,11.88,0,0,1-1.13-.83Z" transform="translate(0 0)"/><path class="cls-2" d="M22.34,17.69l-0.91-1.4a6.66,6.66,0,0,0,0,11.19l0.91-1.4A5,5,0,0,1,22.34,17.69Z" transform="translate(0 0)"/><path class="cls-2" d="M16.72,21.89a8.32,8.32,0,0,1,3.8-7l-0.9-1.4a10,10,0,0,0,0,16.78l0.9-1.4A8.32,8.32,0,0,1,16.72,21.89Z" transform="translate(0 0)"/></svg>