<svg id="레이어_1" data-name="레이어 1" xmlns="http://www.w3.org/2000/svg" width="50" height="50" viewBox="0 0 50 50"><defs><style>.cls-1{fill:#fff;stroke:#ff8e1d;stroke-miterlimit:10;stroke-width:1.4px;}.cls-2{fill:#ffc088;}.cls-3{fill:#ff8e1d;}</style></defs><title>speaker</title><rect class="cls-1" x="0.7" y="0.7" width="48.6" height="48.6" rx="8.1" ry="8.1"/><path class="cls-2" d="M25.65,17.25l1.5-1.5a6.36,6.36,0,0,1,0,9l-1.5-1.5A4.24,4.24,0,0,0,25.65,17.25Z" transform="translate(4.44 4.75)"/><path class="cls-2" d="M30.15,27.74l-1.5-1.5a8.48,8.48,0,0,0,0-12l1.5-1.5A10.59,10.59,0,0,1,30.15,27.74Z" transform="translate(4.44 4.75)"/><path class="cls-2" d="M31.65,29.24l1.5,1.5a14.83,14.83,0,0,0,0-21l-1.5,1.5A12.71,12.71,0,0,1,31.65,29.24Z" transform="translate(4.44 4.75)"/><polygon class="cls-3" points="13.49 18.91 8.07 18.91 8.07 25 8.07 31.09 13.49 31.09 13.49 18.91"/><path class="cls-3" d="M20,5.49a3.63,3.63,0,0,0-1.63,1L9.85,14.15v12.2L18.41,34A3.63,3.63,0,0,0,20,35a1.28,1.28,0,0,0,1.37-1.28v-27A1.28,1.28,0,0,0,20,5.49Z" transform="translate(4.44 4.75)"/></svg>