<svg id="레이어_1" data-name="레이어 1" xmlns="http://www.w3.org/2000/svg" width="50" height="50" viewBox="0 0 50 50"><defs><style>.cls-1{fill:#fff;stroke:#7c64ed;stroke-miterlimit:10;stroke-width:1.4px;}.cls-2{fill:#7c64ed;}.cls-3{fill:#b7afef;}</style></defs><title>ultrasonic</title><rect class="cls-1" x="0.7" y="0.7" width="48.6" height="48.6" rx="8.1" ry="8.1"/><path class="cls-2" d="M16.12,9.34A10.63,10.63,0,1,0,26.75,20,10.63,10.63,0,0,0,16.12,9.34ZM24,19.16h-1.3a6.65,6.65,0,0,0-5.79-5.79v-1.3A7.94,7.94,0,0,1,24,19.16Zm-8.71-1.89a2.82,2.82,0,0,0-1.89,1.89H11.82a4.37,4.37,0,0,1,3.48-3.48v1.59Zm-1.89,3.51a2.83,2.83,0,0,0,1.89,1.89v1.59a4.37,4.37,0,0,1-3.48-3.48h1.59Zm3.51,1.89a2.82,2.82,0,0,0,1.89-1.89h1.59a4.37,4.37,0,0,1-3.48,3.48V22.67Zm1.89-3.51a2.82,2.82,0,0,0-1.89-1.89V15.68a4.37,4.37,0,0,1,3.48,3.48H18.82Zm-3.51-7.09v1.3a6.65,6.65,0,0,0-5.79,5.79H8.22A7.94,7.94,0,0,1,15.31,12.07ZM8.22,20.78h1.3a6.65,6.65,0,0,0,5.79,5.79v1.3A7.94,7.94,0,0,1,8.22,20.78Zm8.71,7.08v-1.3a6.65,6.65,0,0,0,5.79-5.79H24A7.94,7.94,0,0,1,16.93,27.87Z" transform="translate(2.15 5.03)"/><path class="cls-3" d="M28.38,17l1.5-1.5a6.36,6.36,0,0,1,0,9L28.38,23A4.24,4.24,0,0,0,28.38,17Z" transform="translate(2.15 5.03)"/><path class="cls-3" d="M32.87,27.46L31.37,26a8.48,8.48,0,0,0,0-12l1.5-1.5A10.59,10.59,0,0,1,32.87,27.46Z" transform="translate(2.15 5.03)"/><path class="cls-3" d="M34.37,29l1.5,1.5a14.83,14.83,0,0,0,0-21L34.37,11A12.71,12.71,0,0,1,34.37,29Z" transform="translate(2.15 5.03)"/></svg>