<svg id="레이어_1" data-name="레이어 1" xmlns="http://www.w3.org/2000/svg" width="29" height="29" viewBox="0 0 29 29"><defs><style>.cls-1{fill:#fff;opacity:0;}.cls-2{fill:#7c64ed;}.cls-3{fill:#b7afef;}</style></defs><title>dial</title><rect class="cls-1" width="29" height="29"/><path class="cls-2" d="M11.7-.57h0a0.54,0.54,0,0,0-.54.54V1.73a0.54,0.54,0,0,0,.54.54h0a0.54,0.54,0,0,0,.54-0.54V0A0.54,0.54,0,0,0,11.7-.57Z" transform="translate(2.8 4.87)"/><path class="cls-3" d="M3.55,2.4h0a0.54,0.54,0,0,0-.07.77L4.61,4.51a0.54,0.54,0,0,0,.76.07h0a0.54,0.54,0,0,0,.07-0.77L4.32,2.47A0.54,0.54,0,0,0,3.55,2.4Z" transform="translate(2.8 4.87)"/><path class="cls-3" d="M-0.78,9.91h0a0.54,0.54,0,0,0,.44.63l1.73,0.3A0.54,0.54,0,0,0,2,10.41H2a0.54,0.54,0,0,0-.44-0.63l-1.73-.3A0.54,0.54,0,0,0-.78,9.91Z" transform="translate(2.8 4.87)"/><path class="cls-3" d="M24.19,9.91h0a0.54,0.54,0,0,0-.63-0.44l-1.73.3a0.54,0.54,0,0,0-.44.63h0a0.54,0.54,0,0,0,.63.44l1.73-.3A0.54,0.54,0,0,0,24.19,9.91Z" transform="translate(2.8 4.87)"/><path class="cls-3" d="M19.85,2.4h0a0.54,0.54,0,0,0-.76.07L18,3.81a0.54,0.54,0,0,0,.07.77h0a0.54,0.54,0,0,0,.76-0.07l1.13-1.34A0.54,0.54,0,0,0,19.85,2.4Z" transform="translate(2.8 4.87)"/><path class="cls-2" d="M11.7,4.41a7.71,7.71,0,1,0,7.7,7.71A7.71,7.71,0,0,0,11.7,4.41Zm-3.1,5A1.43,1.43,0,1,1,10,8,1.43,1.43,0,0,1,8.6,9.46Z" transform="translate(2.8 4.87)"/></svg>