<svg id="레이어_1" data-name="레이어 1" xmlns="http://www.w3.org/2000/svg" width="29" height="29" viewBox="0 0 29 29"><defs><style>.cls-1{fill:#fff;opacity:0;}.cls-2{fill:#ff8e1d;}.cls-3{fill:#ffc088;}</style></defs><title>display</title><rect class="cls-1" width="29" height="29"/><path class="cls-2" d="M24.41,1H1.92A1.25,1.25,0,0,0,.67,2.24V18.49a1.25,1.25,0,0,0,1.25,1.25H12.6V21.5H7.53A1.13,1.13,0,0,0,6.4,22.63H19.92a1.13,1.13,0,0,0-1.13-1.13h-5.1V19.74H24.41a1.25,1.25,0,0,0,1.25-1.25V2.24A1.25,1.25,0,0,0,24.41,1Z" transform="translate(1.34 2.69)"/><rect class="cls-3" x="3.76" y="5.12" width="21.49" height="14.9"/></svg>