<svg id="레이어_1" data-name="레이어 1" xmlns="http://www.w3.org/2000/svg" width="29" height="29" viewBox="0 0 29 29"><defs><style>.cls-1{fill:#fff;opacity:0;}.cls-2{fill:#b7afef;}.cls-3{fill:#7c64ed;}</style></defs><title>env</title><rect class="cls-1" width="29" height="29"/><path class="cls-2" d="M13.46,5.73v0c0.3-3,3.84-7.78,3.84-7.78S20.85,2.7,21.15,5.7v0a3.33,3.33,0,0,1,0,.38,3.87,3.87,0,1,1-7.73,0C13.44,6,13.45,5.86,13.46,5.73Z" transform="translate(2.5 4.78)"/><path class="cls-3" d="M17.3,21.52a4.65,4.65,0,1,0-4.65-4.65A4.65,4.65,0,0,0,17.3,21.52Zm0-8.65a4,4,0,0,1,0,8v-8Z" transform="translate(2.5 4.78)"/><path class="cls-3" d="M9.13,13.88V-0.24A2.54,2.54,0,0,0,6.59-2.78,2.54,2.54,0,0,0,4.05-.24V13.88A4.55,4.55,0,1,0,9.13,13.88ZM7.85,5.51H5.31V-0.13A1.27,1.27,0,0,1,6.58-1.4,1.27,1.27,0,0,1,7.85-.13V5.51Z" transform="translate(2.5 4.78)"/></svg>