<svg id="레이어_1" data-name="레이어 1" xmlns="http://www.w3.org/2000/svg" width="29" height="29" viewBox="0 0 29 29"><defs><style>.cls-1{fill:#fff;fill-opacity:0;}.cls-2{fill:#58595b;}</style></defs><title>equalTo</title><rect class="cls-1" width="29" height="29"/><path class="cls-2" d="M-35.8,39.53h8.37a1.6,1.6,0,0,1,1.6,1.6h0a1.6,1.6,0,0,1-1.6,1.6H-35.8a1.6,1.6,0,0,1-1.6-1.58h0a1.6,1.6,0,0,1,1.6-1.6h0v0Z" transform="translate(38.91 -23.33)"/><path class="cls-2" d="M-35.8,32.94h8.37a1.6,1.6,0,0,1,1.6,1.6h0a1.6,1.6,0,0,1-1.6,1.6H-35.8a1.6,1.6,0,0,1-1.6-1.58h0a1.6,1.6,0,0,1,1.58-1.62h0Z" transform="translate(38.91 -23.33)"/><path class="cls-2" d="M-21.39,39.53H-13a1.6,1.6,0,0,1,1.6,1.6h0a1.6,1.6,0,0,1-1.6,1.6h-8.37a1.6,1.6,0,0,1-1.6-1.6h0A1.6,1.6,0,0,1-21.39,39.53Z" transform="translate(38.91 -23.33)"/><path class="cls-2" d="M-21.39,32.94H-13a1.6,1.6,0,0,1,1.6,1.6h0a1.6,1.6,0,0,1-1.6,1.6h-8.37a1.6,1.6,0,0,1-1.6-1.6h0A1.6,1.6,0,0,1-21.39,32.94Z" transform="translate(38.91 -23.33)"/></svg>