<svg id="레이어_1" data-name="레이어 1" xmlns="http://www.w3.org/2000/svg" width="29" height="29" viewBox="0 0 29 29"><defs><style>.cls-1{fill:#fff;fill-opacity:0;}.cls-2{fill:#58595b;}</style></defs><title>greaterThanOrEqualTo</title><rect class="cls-1" width="29" height="29"/><path class="cls-2" d="M-1.08,12.2H11.49a1.6,1.6,0,0,1,1.6,1.6h0a1.6,1.6,0,0,1-1.6,1.6H-1.08a1.6,1.6,0,0,1-1.66-1.54h0a1.6,1.6,0,0,1,1.6-1.6h0Z" transform="translate(9.33 8.5)"/><path class="cls-2" d="M-2.48-2.57h0A1.6,1.6,0,0,1-.36-3.36L12.1,2.37a1.6,1.6,0,0,1,.79,2.12h0a1.6,1.6,0,0,1-2.12.79L-1.69-.45A1.6,1.6,0,0,1-2.48-2.57Z" transform="translate(9.33 8.5)"/><path class="cls-2" d="M-1.69,8.12l12.46-5.8a1.6,1.6,0,0,1,2.12.79h0a1.6,1.6,0,0,1-.79,2.12L-0.35,11a1.6,1.6,0,0,1-2.13-.78v0h0A1.6,1.6,0,0,1-1.69,8.12Z" transform="translate(9.33 8.5)"/></svg>