<svg id="레이어_1" data-name="레이어 1" xmlns="http://www.w3.org/2000/svg" width="29" height="29" viewBox="0 0 29 29"><defs><style>.cls-1{fill:#fff;fill-opacity:0;}.cls-2{fill:#58595b;}</style></defs><title>greaterThan</title><rect class="cls-1" width="29" height="29"/><path class="cls-2" d="M-24.71-5.53L-12.27.21a1.6,1.6,0,0,1,.79,2.12h0a1.6,1.6,0,0,1-2.12.79L-26.05-2.62a1.6,1.6,0,0,1-.77-2.12h0A1.6,1.6,0,0,1-24.71-5.53Z" transform="translate(33.66 12.83)"/><path class="cls-2" d="M-26.05,6L-13.59.21A1.6,1.6,0,0,1-11.48,1h0a1.6,1.6,0,0,1-.79,2.12L-24.71,8.86a1.6,1.6,0,0,1-2.12-.79h0A1.6,1.6,0,0,1-26.05,6Z" transform="translate(33.66 12.83)"/></svg>