<svg id="레이어_1" data-name="레이어 1" xmlns="http://www.w3.org/2000/svg" width="29" height="29" viewBox="0 0 29 29"><defs><style>.cls-1{fill:#fff;opacity:0;}.cls-2{fill:#7c64ed;}.cls-3{fill:#b7afef;}</style></defs><title>gyro</title><rect class="cls-1" width="29" height="29"/><path class="cls-2" d="M23.52,17.09L21.58,16V6.59a1.2,1.2,0,0,0-.6-1L12.86,0.86V-1.45a1,1,0,0,0-1-1,1,1,0,0,0-1,1V0.86L2.8,5.55a1.2,1.2,0,0,0-.6,1V16L0.26,17.09a1,1,0,0,0,1,1.68l1.94-1.12,8.12,4.69a1.19,1.19,0,0,0,1.19,0l8.12-4.69,1.94,1.12A1,1,0,0,0,23.52,17.09Z" transform="translate(2.61 4.46)"/><path class="cls-3" d="M10.35,19.55L4.43,16.13a0.33,0.33,0,0,1-.17-0.29V8.52a0.33,0.33,0,0,1,.49-0.29l5.93,3.42a0.33,0.33,0,0,1,.17.29v7.32A0.33,0.33,0,0,1,10.35,19.55Z" transform="translate(2.61 4.46)"/><path class="cls-3" d="M13.42,19.55l5.93-3.42a0.33,0.33,0,0,0,.17-0.29V8.52A0.33,0.33,0,0,0,19,8.23L13.1,11.65a0.33,0.33,0,0,0-.17.29v7.32A0.33,0.33,0,0,0,13.42,19.55Z" transform="translate(2.61 4.46)"/><path class="cls-3" d="M17.47,6.36L12.08,9.41a0.39,0.39,0,0,1-.38,0L6.31,6.36a0.39,0.39,0,0,1,0-.67L11.7,2.63a0.39,0.39,0,0,1,.38,0l5.39,3.06A0.39,0.39,0,0,1,17.47,6.36Z" transform="translate(2.61 4.46)"/></svg>