<svg id="레이어_1" data-name="레이어 1" xmlns="http://www.w3.org/2000/svg" width="29" height="29" viewBox="0 0 29 29"><defs><style>.cls-1{fill:#fff;opacity:0;}.cls-2{fill:#7c64ed;}.cls-3{fill:#b7afef;}</style></defs><title>ir</title><rect class="cls-1" width="29" height="29"/><path class="cls-2" d="M7.69,3.4H-0.41V17.17H7.69a0.54,0.54,0,0,0,.54-0.54V3.95A0.54,0.54,0,0,0,7.69,3.4Z" transform="translate(2.42 4.21)"/><path class="cls-3" d="M8.22,11.52v3.39A1.7,1.7,0,0,0,8.22,11.52Z" transform="translate(2.42 4.21)"/><path class="cls-3" d="M8.22,5.66v3.4A1.7,1.7,0,0,0,8.22,5.66Z" transform="translate(2.42 4.21)"/><path class="cls-3" d="M24.58,14.17a0.49,0.49,0,0,1-.48.48h0a0.48,0.48,0,0,1-.48-0.48V6.4a0.48,0.48,0,0,1,.48-0.48h0a0.48,0.48,0,0,1,.48.48v7.76Z" transform="translate(2.42 4.21)"/><polygon class="cls-2" points="23.65 15.16 24.68 14.77 23.65 14.39 23.65 14.38 13.88 10.77 13.59 11.61 22.14 14.77 17.39 16.53 17.09 15.64 15.68 16.88 14.27 18.11 16.12 18.17 17.97 18.23 17.68 17.37 23.65 15.16 23.65 15.16"/></svg>