<svg id="레이어_1" data-name="레이어 1" xmlns="http://www.w3.org/2000/svg" width="29" height="29" viewBox="0 0 29 29"><defs><style>.cls-1{fill:#fff;opacity:0;}.cls-2{fill:#ff8e1d;}.cls-3{fill:#ffc088;}</style></defs><title>led</title><rect class="cls-1" width="29" height="29"/><path class="cls-2" d="M21.88,24.74V16.44a7.42,7.42,0,1,0-14.83,0v8.31H5.79V27H23.15V24.74H21.88Z"/><path class="cls-3" d="M16.88,7.33h0a0.77,0.77,0,0,1-.55-0.94l1-3.79A0.77,0.77,0,0,1,18.3,2h0a0.77,0.77,0,0,1,.55.94l-1,3.79A0.77,0.77,0,0,1,16.88,7.33Z"/><path class="cls-3" d="M12.08,7.37h0a0.77,0.77,0,0,1-.94-0.55L10.11,3a0.77,0.77,0,0,1,.55-0.94h0a0.77,0.77,0,0,1,.94.55l1,3.79A0.77,0.77,0,0,1,12.08,7.37Z"/><path class="cls-3" d="M7.93,9.81h0a0.77,0.77,0,0,1-1.09,0L4.07,7a0.77,0.77,0,0,1,0-1.09h0a0.77,0.77,0,0,1,1.09,0L7.93,8.72A0.77,0.77,0,0,1,7.93,9.81Z"/><path class="cls-3" d="M21.07,9.69h0a0.77,0.77,0,0,1,0-1.09l2.78-2.78a0.77,0.77,0,0,1,1.09,0h0a0.77,0.77,0,0,1,0,1.09L22.16,9.69A0.77,0.77,0,0,1,21.07,9.69Z"/></svg>