<svg id="레이어_1" data-name="레이어 1" xmlns="http://www.w3.org/2000/svg" width="29" height="29" viewBox="0 0 29 29"><defs><style>.cls-1{fill:#fff;fill-opacity:0;}.cls-2{fill:#58595b;}</style></defs><title>lessThanOrEqualTo</title><rect class="cls-1" width="29" height="29"/><path class="cls-2" d="M20.81,20.7H8.24a1.6,1.6,0,0,0-1.6,1.6H6.59a1.6,1.6,0,0,0,1.6,1.6H20.81a1.6,1.6,0,0,0,1.6-1.6h0a1.6,1.6,0,0,0-1.6-1.6h0Z"/><rect class="cls-2" x="6.07" y="7.86" width="16.91" height="3.2" rx="1.6" ry="1.6" transform="translate(-2.62 6.94) rotate(-24.71)"/><path class="cls-2" d="M20.09,19.52L7.64,13.78a1.6,1.6,0,0,1-.79-2.12h0a1.6,1.6,0,0,1,2.09-.86l0,0,12.46,5.72a1.6,1.6,0,0,1,.79,2.12h0a1.6,1.6,0,0,1-2.08.89Z"/></svg>