<svg id="레이어_1" data-name="레이어 1" xmlns="http://www.w3.org/2000/svg" width="29" height="29" viewBox="0 0 29 29"><defs><style>.cls-1{fill:#fff;fill-opacity:0;}.cls-2{fill:#58595b;}</style></defs><title>lessThan</title><rect class="cls-1" width="29" height="29"/><path class="cls-2" d="M18.36,1.85h0A1.6,1.6,0,0,1,17.59,4L5.13,9.7A1.6,1.6,0,0,1,3,8.91H3A1.6,1.6,0,0,1,3.8,6.8L16.24,1.05A1.6,1.6,0,0,1,18.36,1.85Z" transform="translate(3.82 6.25)"/><path class="cls-2" d="M18.36,14.65h0a1.6,1.6,0,0,1-2.12.79L3.8,9.7A1.6,1.6,0,0,1,3,7.59H3A1.6,1.6,0,0,1,5.13,6.8l12.46,5.74A1.6,1.6,0,0,1,18.36,14.65Z" transform="translate(3.82 6.25)"/></svg>