<svg id="레이어_1" data-name="레이어 1" xmlns="http://www.w3.org/2000/svg" width="29" height="29" viewBox="0 0 29 29"><defs><style>.cls-1{fill:#fff;opacity:0;}.cls-2{fill:#b7afef;}.cls-3{fill:#7c64ed;}</style></defs><title>mic</title><rect class="cls-1" width="29" height="29"/><path class="cls-2" d="M19.51,15v0.79a6.53,6.53,0,1,1-13.06,0V15H4.52V16a8.46,8.46,0,1,0,16.93,0V15H19.51Z" transform="translate(1.52 2.57)"/><path class="cls-2" d="M19.51,15v0.79a6.53,6.53,0,1,1-13.06,0V15H4.52V16a8.46,8.46,0,1,0,16.93,0V15H19.51Z" transform="translate(1.52 2.57)"/><path class="cls-3" d="M14.79,14.48V13.07h3.44V10.89H14.79V9.48h3.44V7.3H14.79V5.89h3.44V4.68a5.25,5.25,0,1,0-10.5,0V5.89h3.44V7.3H7.73V9.48h3.44v1.41H7.73v2.18h3.44v1.41H7.73v1.21a5.25,5.25,0,1,0,10.5,0V14.48H14.79Z" transform="translate(1.52 2.57)"/></svg>