<svg id="레이어_1" data-name="레이어 1" xmlns="http://www.w3.org/2000/svg" width="29" height="29" viewBox="0 0 29 29"><defs><style>.cls-1{fill:#fff;opacity:0;}.cls-2{fill:#ffc088;}.cls-3{fill:#ff8e1d;}</style></defs><title>motor</title><rect class="cls-1" width="29" height="29"/><path class="cls-2" d="M25.76,11.65V10.33A2.66,2.66,0,0,0,23.1,7.67H21.89V21.33H23.1a2.66,2.66,0,0,0,2.66-2.66V17.35h1.07V11.65H25.76Z" transform="translate(0 0)"/><path class="cls-3" d="M21.05,7.67H8.73a2.66,2.66,0,0,0-2.66,2.66v1.93H4.94v1.63H2.17v1.23H4.94v1.63H6.07v1.93a2.66,2.66,0,0,0,2.66,2.66H21.05V7.67Z" transform="translate(0 0)"/></svg>