<svg id="레이어_1" data-name="레이어 1" xmlns="http://www.w3.org/2000/svg" width="29" height="29" viewBox="0 0 29 29"><defs><style>.cls-1{fill:#fff;opacity:0;}.cls-2{fill:#fc0;}</style></defs><title>network</title><rect class="cls-1" width="29" height="29"/><path class="cls-2" d="M23.85,7.66s0-.07,0-0.1a10,10,0,0,0-.1-1V6.47q-0.08-.53-0.2-1V5.37q-0.13-.51-0.29-1l0-.11L23,3.81,23,3.68l-0.13-.3-0.09-.2C22.69,3.07,22.63,3,22.57,2.84l-0.13-.24-0.08-.15C22.26,2.28,22.17,2.12,22.07,2l0-.07-0.18-.28,0-.05-0.36-.49L21.39,1,21,0.52l0,0-0.22-.24-0.09-.09L20.45-.07,20.29-.22,20.16-.34,19.79-.67,19.66-.79,19.42-1l-0.24-.18L18.9-1.37l-0.18-.12-0.18-.12h0l0,0.07L17.76-.39h0a10.09,10.09,0,0,1,1,.73l0,0,0.41,0.36L19.25,0.8l0.39,0.39,0,0A10.17,10.17,0,0,1,20.8,2.68v0l0.29,0.49,0,0.07c0.09,0.16.17,0.32,0.25,0.49l0,0c0.09,0.18.17,0.37,0.25,0.56v0c0.06,0.16.13,0.33,0.18,0.5l0.06,0.19L22,5.44c0,0.07,0,.14.06,0.21s0.07,0.28.1,0.42l0,0.19c0,0.17.06,0.34,0.08,0.51l0,0.21c0,0.13,0,.26,0,0.4v0.2c0,0.19,0,.38,0,0.57v0c0,0.19,0,.38,0,0.57V9c0,0.13,0,.26,0,0.39l0,0.21c0,0.17-.05.34-0.08,0.5l0,0.2c0,0.14-.06.27-0.09,0.41L22,10.89l-0.11.36-0.06.19c-0.05.17-.11,0.33-0.18,0.49l0,0c-0.07.19-.16,0.37-0.24,0.56l0,0.06q-0.12.25-.25,0.48l0,0.07-0.29.48,0,0a10.22,10.22,0,0,1-1.13,1.45l0,0-0.38.38-0.07.06-0.4.36-0.05,0-0.46.37h0l-0.51.36,0.79,1.22h0l0.19-.13,0.15-.11,0.42-.31,0.1-.08,0.24-.2,0.11-.1,0.38-.34,0.13-.12,0.16-.15,0.2-.21,0.09-.1L21,15.86l0,0c0.13-.15.26-0.31,0.38-0.47l0.07-.09,0.36-.49,0-.05L22,14.44l0-.07,0.28-.47,0.08-.15,0.13-.25c0.06-.11.12-0.23,0.17-0.35l0.09-.2,0.13-.3L23,12.52l0.17-.44,0-.12c0.11-.32.21-0.65,0.29-1V10.92q0.12-.51.2-1V9.82a10.11,10.11,0,0,0,.1-1s0-.07,0-0.1,0-.34,0-0.51S23.85,7.83,23.85,7.66Z" transform="translate(2.24 3.61)"/><path class="cls-2" d="M18,8.17a5.82,5.82,0,0,0-2.66-4.89L14.59,4.5a4.36,4.36,0,0,1,0,7.33l0.79,1.22A5.82,5.82,0,0,0,18,8.17Z" transform="translate(2.24 3.61)"/><path class="cls-2" d="M20.95,8.17A8.73,8.73,0,0,0,17,.84L16.17,2.06a7.28,7.28,0,0,1,0,12.22L17,15.5A8.73,8.73,0,0,0,20.95,8.17Z" transform="translate(2.24 3.61)"/><path class="cls-2" d="M12.26,5.89a2.28,2.28,0,0,0-.88,4.37V23.39h1.76V10.27A2.28,2.28,0,0,0,12.26,5.89Z" transform="translate(2.24 3.61)"/><path class="cls-2" d="M5.73,16l-0.41-.36-0.06-.06-0.39-.39,0,0a10.1,10.1,0,0,1-1.13-1.45l0,0c-0.1-.16-0.2-0.32-0.29-0.49l0-.07c-0.09-.16-0.17-0.32-0.25-0.49l0,0C3,12.35,2.93,12.17,2.85,12v0c-0.06-.16-0.12-0.33-0.18-0.5l-0.06-.19-0.11-.36-0.06-.22c0-.14-0.07-0.28-0.1-0.42l0-.19c0-.17-0.06-0.34-0.08-0.51l0-.21c0-.13,0-0.26,0-0.4V8.76c0-.19,0-0.38,0-0.57v0c0-.19,0-0.38,0-0.57V7.38c0-.13,0-0.26,0-0.39l0-.21c0-.17.05-0.34,0.08-0.5s0-.13,0-0.2,0.06-.27.1-0.41l0.06-.22c0-.12.07-0.24,0.11-0.36l0.06-.19q0.08-.25.18-0.49l0,0C2.93,4.17,3,4,3.1,3.8l0-.06,0.25-.48,0-.08C3.5,3,3.6,2.87,3.7,2.71l0,0A10.28,10.28,0,0,1,4.84,1.23l0,0L5.26,0.8l0.07-.06,0.4-.36,0.05,0L6.25,0h0L6.76-.39,6-1.61H6l-0.2.13-0.15.11L5.2-1.06,5.1-1l-0.24.2-0.11.1L4.36-.34,4.23-.22,4.07-.07l-0.2.21-0.09.1-0.22.24,0,0L3.13,1l-0.07.09-0.36.49,0,0.05-0.18.27L2.45,2l-0.28.47-0.08.15-0.13.25C1.89,3,1.83,3.07,1.78,3.18l-0.09.2-0.13.3L1.5,3.82l-0.17.44,0,0.12C1.18,4.7,1.08,5,1,5.37V5.42c-0.08.34-.15,0.69-0.2,1V6.52c-0.05.34-.08,0.69-0.1,1,0,0,0,.07,0,0.1s0,0.34,0,.51,0,0.34,0,.51,0,0.07,0,.1c0,0.35,0,.7.1,1V9.87c0.05,0.36.12,0.71,0.2,1V11q0.12,0.51.29,1l0,0.11c0.05,0.15.11,0.3,0.17,0.44l0.06,0.13L1.69,13l0.09,0.2L1.95,13.5l0.13,0.24L2.16,13.9l0.28,0.48,0,0.07,0.18,0.28,0,0,0.36,0.49,0.07,0.09,0.39,0.48,0,0L3.77,16.1l0.09,0.09,0.21,0.22,0.16,0.15,0.13,0.12L4.73,17l0.13,0.11,0.24,0.19,0.23,0.18L5.62,17.7,5.8,17.83,6,17.95H6l0-.07,0.75-1.15h0a10.15,10.15,0,0,1-1-.73Z" transform="translate(2.24 3.61)"/><path class="cls-2" d="M9.93,4.5L9.14,3.28a5.83,5.83,0,0,0,0,9.78l0.79-1.22A4.36,4.36,0,0,1,9.93,4.5Z" transform="translate(2.24 3.61)"/><path class="cls-2" d="M5,8.17A7.28,7.28,0,0,1,8.35,2.06L7.56,0.84a8.74,8.74,0,0,0,0,14.66l0.79-1.22A7.28,7.28,0,0,1,5,8.17Z" transform="translate(2.24 3.61)"/></svg>