<svg id="레이어_1" data-name="레이어 1" xmlns="http://www.w3.org/2000/svg" width="29" height="29" viewBox="0 0 29 29"><defs><style>.cls-1{fill:#fff;fill-opacity:0;}.cls-2{fill:#58595b;}</style></defs><title>notEqualTo</title><rect class="cls-1" width="29" height="29"/><path class="cls-2" d="M-3.4-1h0A1.6,1.6,0,0,1-1.79.56V13.13a1.6,1.6,0,0,1-1.6,1.6h0A1.6,1.6,0,0,1-5,13.17s0,0,0,0V0.56A1.6,1.6,0,0,1-3.43-1h0Z" transform="translate(8.33 4.5)"/><circle class="cls-2" cx="4.91" cy="23.72" r="1.82"/><path class="cls-2" d="M7.65,11.69H16a1.6,1.6,0,0,1,1.6,1.6h0A1.6,1.6,0,0,1,16,14.9H7.65A1.6,1.6,0,0,1,6,13.29H6A1.6,1.6,0,0,1,7.65,11.69Z" transform="translate(8.33 4.5)"/><path class="cls-2" d="M7.65,5.1H16a1.6,1.6,0,0,1,1.6,1.6h0A1.6,1.6,0,0,1,16,8.31H7.65A1.6,1.6,0,0,1,6,6.71H6A1.6,1.6,0,0,1,7.65,5.1Z" transform="translate(8.33 4.5)"/><rect class="cls-1" width="29" height="29"/></svg>