<svg id="레이어_1" data-name="레이어 1" xmlns="http://www.w3.org/2000/svg" width="29" height="29" viewBox="0 0 29 29"><defs><style>.cls-1,.cls-2{fill:#fff;}.cls-1{opacity:0;}.cls-2{fill-opacity:0;}.cls-3{fill:#facb1b;}.cls-4{fill:#f3b607;}.cls-5{fill:#fcf6c2;}</style></defs><title>pro</title><rect class="cls-1" width="29" height="29"/><rect class="cls-2" x="1" y="1" width="27" height="27"/><polygon class="cls-3" points="14.5 25.95 1 20.16 1 8.56 14.5 14.35 14.5 25.95"/><polygon class="cls-4" points="14.5 25.95 28 20.16 28 8.56 14.5 14.35 14.5 25.95"/><polygon class="cls-5" points="28 8.56 14.5 14.35 1 8.56 14.5 3.05 28 8.56"/><path class="cls-4" d="M11.8,9.26V11.1c0,0.61,1.21,1.09,2.7,1.09s2.7-.49,2.7-1.09V9.26H11.8Z" transform="translate(0 0)"/><ellipse class="cls-5" cx="14.5" cy="9.26" rx="2.7" ry="1.09"/><path class="cls-4" d="M11.8,4.15V6c0,0.61,1.21,1.09,2.7,1.09S17.2,6.59,17.2,6V4.15H11.8Z" transform="translate(0 0)"/><ellipse class="cls-5" cx="14.5" cy="4.15" rx="2.7" ry="1.09"/><path class="cls-4" d="M19.56,6.71V8.53c0,0.61,1.21,1.09,2.7,1.09S25,9.14,25,8.53V6.71h-5.4Z" transform="translate(0 0)"/><ellipse class="cls-5" cx="22.26" cy="6.71" rx="2.7" ry="1.09"/><path class="cls-4" d="M4,6.71V8.53c0,0.61,1.22,1.09,2.7,1.09s2.7-.49,2.7-1.09V6.71H4Z" transform="translate(0 0)"/><ellipse class="cls-5" cx="6.74" cy="6.71" rx="2.7" ry="1.09"/></svg>