<svg id="레이어_1" data-name="레이어 1" xmlns="http://www.w3.org/2000/svg" width="29" height="29" viewBox="0 0 29 29"><defs><style>.cls-1{fill:#fff;opacity:0;}.cls-2{fill:#ffc088;}.cls-3{fill:#ff8e1d;}</style></defs><title>speaker</title><rect class="cls-1" width="29" height="29"/><path class="cls-2" d="M16.49,9.61L17.6,8.5a4.7,4.7,0,0,1,0,6.64L16.49,14A3.13,3.13,0,0,0,16.49,9.61Z" transform="translate(1.77 2.68)"/><path class="cls-2" d="M19.81,17.35L18.7,16.24a6.26,6.26,0,0,0,0-8.85l1.11-1.11A7.82,7.82,0,0,1,19.81,17.35Z" transform="translate(1.77 2.68)"/><path class="cls-2" d="M20.91,18.46l1.1,1.1A11,11,0,0,0,22,4.08l-1.1,1.11A9.39,9.39,0,0,1,20.91,18.46Z" transform="translate(1.77 2.68)"/><path class="cls-3" d="M12.35,0.93a2.67,2.67,0,0,0-1.2.76L4.82,7.32H0.23v9H4.82L11.14,22a2.67,2.67,0,0,0,1.2.76,1,1,0,0,0,1-.94V1.87A0.94,0.94,0,0,0,12.35.93Z" transform="translate(1.77 2.68)"/><rect class="cls-3" x="2.01" y="10.01" width="4.48" height="8.99"/></svg>