<svg id="레이어_1" data-name="레이어 1" xmlns="http://www.w3.org/2000/svg" width="29" height="29" viewBox="0 0 29 29"><defs><style>.cls-1{fill:#fff;opacity:0;}.cls-2{fill:#7c64ed;}.cls-3{fill:#b7afef;}.cls-4{fill:none;}</style></defs><title>ultrasonic</title><rect class="cls-1" width="29" height="29"/><path class="cls-2" d="M9.65,6.85A7.65,7.65,0,1,0,17.3,14.5,7.65,7.65,0,0,0,9.65,6.85Zm5.68,7.07H14.4a4.79,4.79,0,0,0-4.17-4.17V8.81A5.72,5.72,0,0,1,15.34,13.92ZM9.07,12.55a2,2,0,0,0-1.36,1.36H6.56a3.15,3.15,0,0,1,2.51-2.51v1.15ZM7.71,15.08a2,2,0,0,0,1.36,1.36v1.15a3.15,3.15,0,0,1-2.51-2.51H7.71Zm2.53,1.36a2,2,0,0,0,1.36-1.36h1.15a3.15,3.15,0,0,1-2.51,2.51V16.45Zm1.36-2.53a2,2,0,0,0-1.36-1.36V11.41a3.15,3.15,0,0,1,2.51,2.51H11.6ZM9.07,8.81V9.75a4.79,4.79,0,0,0-4.17,4.17H4A5.72,5.72,0,0,1,9.07,8.81ZM4,15.08H4.91a4.78,4.78,0,0,0,4.17,4.17v0.94A5.72,5.72,0,0,1,4,15.08Zm6.27,5.1V19.25a4.79,4.79,0,0,0,4.17-4.17h0.93A5.72,5.72,0,0,1,10.24,20.19Z" transform="translate(0)"/><path class="cls-3" d="M18.48,12.34l1.08-1.08a4.58,4.58,0,0,1,0,6.47l-1.08-1.08A3.05,3.05,0,0,0,18.48,12.34Z" transform="translate(0)"/><path class="cls-3" d="M21.71,19.89l-1.08-1.08a6.1,6.1,0,0,0,0-8.63l1.08-1.08A7.63,7.63,0,0,1,21.71,19.89Z" transform="translate(0)"/><path class="cls-3" d="M22.79,21l1.08,1.08a10.68,10.68,0,0,0,0-15.1L22.79,8A9.16,9.16,0,0,1,22.79,21Z" transform="translate(0)"/><ellipse class="cls-4" cx="9.65" cy="14.5" rx="7.65" ry="7.65"/></svg>