<svg id="레이어_1" data-name="레이어 1" xmlns="http://www.w3.org/2000/svg" width="29" height="29" viewBox="0 0 29 29"><defs><style>.cls-1,.cls-4{fill:#fff;}.cls-1{fill-opacity:0;}.cls-2{fill:#754c29;}.cls-3{fill:#c49a6c;}</style></defs><title>var</title><rect class="cls-1" width="29" height="29"/><polygon class="cls-2" points="21.75 7.22 7.25 7.22 4.86 10.4 24.16 10.4 21.75 7.22"/><path class="cls-3" d="M4.16,5.73a0.59,0.59,0,0,0-.46,0L0.17,7h0a0.35,0.35,0,0,0,0,.58l4.68,2.84L7.25,7.25Z"/><path class="cls-3" d="M24.84,5.73a0.59,0.59,0,0,1,.46,0L28.81,7h0a0.35,0.35,0,0,1,0,.58l-4.65,2.84L21.75,7.25Z"/><path class="cls-3" d="M4.86,10.41v12a1,1,0,0,0,1,1H23.2a1,1,0,0,0,1-1v-12H4.86Z"/><path class="cls-4" d="M15.56,15.05a2.45,2.45,0,1,0,1.13,4.64V20H18V17.5a2.45,2.45,0,0,0-2.45-2.45h0Zm0,3.58a1.13,1.13,0,1,1,1.13-1.13h0A1.13,1.13,0,0,1,15.56,18.63Z"/><path class="cls-4" d="M20.3,20V17.5a1.13,1.13,0,0,1,1.13-1.13V15.05a2.45,2.45,0,0,0-1.13.28V15.05H19V20H20.3Z"/><polygon class="cls-4" points="11.12 19.97 12.96 15.05 11.54 15.05 10.27 18.46 8.99 15.05 7.57 15.05 9.43 19.97 11.12 19.97"/></svg>