<?xml version="1.0" encoding="utf-8"?>
<!-- Generator: Adobe Illustrator 16.0.0, SVG Export Plug-In . SVG Version: 6.00 Build 0)  -->
<!DOCTYPE svg PUBLIC "-//W3C//DTD SVG 1.1//EN" "http://www.w3.org/Graphics/SVG/1.1/DTD/svg11.dtd">
<svg version="1.1" id="Layer_1" xmlns="http://www.w3.org/2000/svg" xmlns:xlink="http://www.w3.org/1999/xlink" x="0px" y="0px"
	 width="16px" height="16px" viewBox="0 0 16 16" enable-background="new 0 0 16 16" xml:space="preserve">
<rect opacity="0" fill="#FFFFFF" fill-opacity="0" width="16" height="16"/>
<path fill="#FFFFFF" d="M9.704,7.999l4.948-4.946c0.472-0.471,0.472-1.233,0-1.705c-0.471-0.471-1.236-0.471-1.707,0L7.996,6.294
	L3.054,1.349c-0.471-0.471-1.234-0.471-1.705,0c-0.471,0.471-0.471,1.233,0,1.705L6.295,8l-4.946,4.945
	c-0.471,0.473-0.471,1.234,0,1.705c0.471,0.473,1.234,0.473,1.705,0l4.942-4.944l4.949,4.944c0.471,0.473,1.236,0.473,1.707,0
	c0.472-0.471,0.472-1.232,0-1.705L9.704,7.999z"/>
</svg>
