<svg id="레이어_1" data-name="레이어 1" xmlns="http://www.w3.org/2000/svg" width="23.07" height="25" viewBox="0 0 23.07 25">
  <defs>
    <style>
      .cls-1 {
        fill: #414141;
      }
    </style>
  </defs>
  <title>eraserMouse</title>
  <g>
    <path class="cls-1" d="M5.32,11.06l6.91-4.88a.31.31,0,0,1,.43,0l.67.94a.31.31,0,0,1-.14.41L6.28,12.42a.31.31,0,0,1-.43,0l-.67-.94A.31.31,0,0,1,5.32,11.06Z"/>
    <path class="cls-1" d="M0,7.49,12.37,25l10.7-7.49L10.7,0h0L9.24,1h0L4.16,4.55Zm2.43.87a.6.6,0,0,1,.15-.84L9.87,2.44a.6.6,0,0,1,.84.14l9.93,14.05a.6.6,0,0,1-.15.84L13.2,22.56a.6.6,0,0,1-.84-.15Z"/>
  </g>
</svg>
