<svg id="레이어_1" data-name="레이어 1" xmlns="http://www.w3.org/2000/svg" width="19.44" height="25" viewBox="0 0 19.44 25">
  <defs>
    <style>
      .cls-1 {
        fill: #fff;
        opacity: 0;
      }

      .cls-2 {
        fill: #414141;
      }
    </style>
  </defs>
  <title>penMouse</title>
  <rect class="cls-1" width="19.37" height="25"/>
  <g>
    <path class="cls-2" d="M12.11,23.3l6-4.28a.31.31,0,0,1,.43.07l.82,1.15a.3.3,0,0,1-.07.42l-6,4.29a.31.31,0,0,1-.43-.07L12,23.7A.31.31,0,0,1,12.11,23.3Z"/>
    <path class="cls-2" d="M18,17.73,7.19,2.48h0L0,0V7.59L10.85,22.84ZM2.13,8.35a.53.53,0,0,1,.12-.73l4.22-3a.53.53,0,0,1,.73.12L15.91,17a.53.53,0,0,1-.12.73l-4.22,3a.53.53,0,0,1-.73-.12Zm3.79-5L1.27,6.69V3.11l1.26-.9Z"/>
  </g>
</svg>
