<?xml version="1.0" encoding="utf-8"?>
<!-- Generator: Adobe Illustrator 16.0.0, SVG Export Plug-In . SVG Version: 6.00 Build 0)  -->
<!DOCTYPE svg PUBLIC "-//W3C//DTD SVG 1.1//EN" "http://www.w3.org/Graphics/SVG/1.1/DTD/svg11.dtd">
<svg version="1.1" id="Layer_1" xmlns="http://www.w3.org/2000/svg" xmlns:xlink="http://www.w3.org/1999/xlink" x="0px" y="0px"
	 width="13px" height="13px" viewBox="0 0 13 13" enable-background="new 0 0 13 13" xml:space="preserve">
<path fill="#808080" d="M4.788,7.147L3.95,7.983L3.454,7.485l-3.047,3.048c-0.522,0.521-0.522,1.364,0,1.885l0.175,0.178
	c0.522,0.521,1.364,0.521,1.885,0l3.049-3.048l-0.498-0.5l0.834-0.835c1.764,1.255,4.226,1.094,5.808-0.486
	c1.761-1.764,1.761-4.624,0-6.385c-1.763-1.764-4.621-1.764-6.386,0C3.693,2.922,3.532,5.385,4.788,7.147z M6.175,6.827
	c-1.269-1.267-1.269-3.323,0-4.588c1.264-1.267,3.321-1.268,4.587,0c1.266,1.265,1.266,3.321,0,4.588
	C9.496,8.094,7.439,8.094,6.175,6.827z"/>
</svg>
