<svg id="레이어_1" data-name="레이어 1" xmlns="http://www.w3.org/2000/svg" width="30" height="30" viewBox="0 0 30 30"><defs><style>.cls-1{fill:#fff;fill-opacity:0;}.cls-2{fill:#382faf;}.cls-3{fill:#7c64ed;}</style></defs><title>dial</title><rect class="cls-1" width="30" height="30"/><path class="cls-2" d="M15,3.62h0a0.61,0.61,0,0,0-.61.61v2a0.61,0.61,0,0,0,.61.61h0a0.61,0.61,0,0,0,.61-0.61v-2A0.61,0.61,0,0,0,15,3.62Z"/><path class="cls-2" d="M5.9,6.93h0a0.61,0.61,0,0,0-.07.85l1.26,1.5a0.61,0.61,0,0,0,.85.07h0A0.61,0.61,0,0,0,8,8.51L6.75,7A0.61,0.61,0,0,0,5.9,6.93Z"/><path class="cls-2" d="M1.06,15.32h0a0.61,0.61,0,0,0,.49.7l1.93,0.34a0.61,0.61,0,0,0,.7-0.49h0a0.61,0.61,0,0,0-.49-0.7l-1.93-.34A0.61,0.61,0,0,0,1.06,15.32Z"/><path class="cls-2" d="M2.74,24.86h0a0.61,0.61,0,0,0,.83.22l1.7-1a0.61,0.61,0,0,0,.22-0.83h0A0.61,0.61,0,0,0,4.67,23h0L3,24a0.61,0.61,0,0,0-.28.81Z"/><path class="cls-2" d="M27.26,24.86h0A0.61,0.61,0,0,0,27,24l0,0-1.7-1a0.61,0.61,0,0,0-.83.22h0a0.61,0.61,0,0,0,.22.83l1.7,1a0.61,0.61,0,0,0,.85-0.16Z"/><path class="cls-2" d="M28.94,15.32h0a0.61,0.61,0,0,0-.7-0.49l-1.93.34a0.61,0.61,0,0,0-.49.7h0a0.61,0.61,0,0,0,.7.49L28.45,16A0.61,0.61,0,0,0,28.94,15.32Z"/><path class="cls-2" d="M24.1,6.93h0a0.61,0.61,0,0,0-.85.07L22,8.51a0.61,0.61,0,0,0,.07.85h0a0.61,0.61,0,0,0,.85-0.07l1.26-1.5a0.61,0.61,0,0,0-.08-0.86h0Z"/><path class="cls-3" d="M15,9.18a8.6,8.6,0,1,0,8.6,8.6h0A8.6,8.6,0,0,0,15,9.18Zm-3.46,5.63a1.59,1.59,0,1,1,1.59-1.59,1.59,1.59,0,0,1-1.59,1.59h0Z"/></svg>