<svg id="레이어_1" data-name="레이어 1" xmlns="http://www.w3.org/2000/svg" width="30" height="30" viewBox="0 0 30 30"><defs><style>.cls-1{fill:#fff;fill-opacity:0;}.cls-2{fill:#ff8e1d;}.cls-3{fill:#ffc088;}</style></defs><title>display</title><rect class="cls-1" width="30" height="30"/><path class="cls-2" d="M27.58,2.9H2.42A1.4,1.4,0,0,0,1,4.28V22.47a1.4,1.4,0,0,0,1.4,1.4h12v2H8.7A1.27,1.27,0,0,0,7.44,27.1H22.56a1.27,1.27,0,0,0-1.27-1.27h-5.7v-2h12a1.4,1.4,0,0,0,1.4-1.4V4.3a1.4,1.4,0,0,0-1.4-1.4h0Z"/><rect class="cls-3" x="2.98" y="4.51" width="24.04" height="16.66"/></svg>