<svg id="레이어_1" data-name="레이어 1" xmlns="http://www.w3.org/2000/svg" width="30" height="30" viewBox="0 0 30 30"><defs><style>.cls-1{fill:#fff;fill-opacity:0;}.cls-2{fill:#b7afef;}.cls-3{fill:#7c64ed;}</style></defs><title>environment</title><rect class="cls-1" width="30" height="30"/><path class="cls-2" d="M16.63,9.78h0C17,6.41,20.91,1.09,20.91,1.09s4,5.31,4.28,8.66h0a3.7,3.7,0,0,1,0,.42,4.31,4.31,0,0,1-8.61,0h0A2,2,0,0,0,16.63,9.78Z"/><path class="cls-3" d="M20.91,27.34a5.17,5.17,0,1,0-5.17-5.17h0A5.17,5.17,0,0,0,20.91,27.34Zm0-9.62a4.45,4.45,0,0,1,0,8.9v-8.9Z"/><path class="cls-3" d="M11.82,19.63V3.92a2.83,2.83,0,0,0-5.65,0V19.63A5.07,5.07,0,1,0,11.82,19.63Zm-1.43-9.31H7.56V4a1.41,1.41,0,0,1,2.83,0v6.32Z"/></svg>