<svg id="레이어_1" data-name="레이어 1" xmlns="http://www.w3.org/2000/svg" width="30" height="30" viewBox="0 0 30 30"><defs><style>.cls-1{fill:#fff;fill-opacity:0;}.cls-2{fill:#7c64ed;}.cls-3{fill:#b7afef;}.cls-4{fill:#382faf;}.cls-5{fill:none;stroke:#382faf;stroke-miterlimit:10;}</style></defs><title>ir</title><rect class="cls-1" width="30" height="30"/><path class="cls-2" d="M10.1,7.32h-9V22.68h9a0.61,0.61,0,0,0,.61-0.61h0V7.92A0.61,0.61,0,0,0,10.1,7.32Z"/><path class="cls-3" d="M10.69,16.38v3.79A1.89,1.89,0,0,0,10.69,16.38Z"/><path class="cls-3" d="M10.69,9.84v3.79A1.89,1.89,0,0,0,10.69,9.84Z"/><polygon class="cls-4" points="18.12 17.82 18.62 19.27 16.49 19.2 14.36 19.13 15.99 17.76 17.61 16.38 18.12 17.82"/><path class="cls-4" d="M29,19.33a0.54,0.54,0,0,1-.54.54h0a0.54,0.54,0,0,1-.54-0.54h0V10.67a0.54,0.54,0,0,1,.54-0.54h0a0.54,0.54,0,0,1,.54.54h0v8.66Z"/><polyline class="cls-5" points="14.08 11.36 25.14 15.19 16.58 18.34"/></svg>