<svg id="레이어_1" data-name="레이어 1" xmlns="http://www.w3.org/2000/svg" width="30" height="30" viewBox="0 0 30 30"><defs><style>.cls-1{fill:#fff;fill-opacity:0;}.cls-2{fill:#ff8e1d;}.cls-3{fill:#ffc088;}</style></defs><title>led</title><rect class="cls-1" width="30" height="30"/><path class="cls-2" d="M21.75,24.36V16.77a6.78,6.78,0,0,0-13.56,0h0v7.59H7v2H22.91v-2H21.75Z"/><path class="cls-3" d="M17.18,8.44h0a0.71,0.71,0,0,1-.5-0.86l0.93-3.47a0.71,0.71,0,0,1,.86-0.5h0a0.71,0.71,0,0,1,.5.86L18,7.94A0.71,0.71,0,0,1,17.18,8.44Z"/><path class="cls-3" d="M12.78,8.48h0A0.71,0.71,0,0,1,11.92,8L11,4.52a0.71,0.71,0,0,1,.5-0.86h0a0.71,0.71,0,0,1,.86.5l0.93,3.47A0.71,0.71,0,0,1,12.78,8.48Z"/><path class="cls-3" d="M9,10.71H9a0.71,0.71,0,0,1-1,0L5.46,8.18a0.71,0.71,0,0,1,0-1h0a0.71,0.71,0,0,1,1,0L9,9.72A0.71,0.71,0,0,1,9,10.71Z"/><path class="cls-3" d="M21,10.61h0a0.71,0.71,0,0,1,0-1l2.54-2.54a0.71,0.71,0,0,1,1,0h0a0.71,0.71,0,0,1,0,1L22,10.61A0.71,0.71,0,0,1,21,10.61Z"/></svg>