<svg id="Layer_1" data-name="Layer 1" xmlns="http://www.w3.org/2000/svg" width="30" height="30" viewBox="0 0 30 30"><defs><style>.cls-1{fill:#fff;fill-opacity:0;}.cls-2{fill:#7c64ed;}</style></defs><title>light</title><rect class="cls-1" width="30" height="30"/><path class="cls-2" d="M11.85,22.51A7.51,7.51,0,1,0,4.34,15,7.51,7.51,0,0,0,11.85,22.51Zm0-14a6.46,6.46,0,1,1,0,12.93V8.54Z"/><path class="cls-2" d="M25.23,18l-3.14-.84a0.58,0.58,0,0,0-.71.41h0a0.58,0.58,0,0,0,.41.71l3.14,0.84a0.58,0.58,0,0,0,.72-0.41h0A0.58,0.58,0,0,0,25.23,18Z"/><path class="cls-2" d="M24.92,10.88l-3.14.84a0.58,0.58,0,0,0-.41.71h0a0.58,0.58,0,0,0,.71.41L25.23,12a0.58,0.58,0,0,0,.41-0.71h0A0.58,0.58,0,0,0,24.92,10.88Z"/><path class="cls-2" d="M21.11,4.88l-2.3,2.3a0.58,0.58,0,0,0,0,.82h0a0.58,0.58,0,0,0,.82,0l2.3-2.3a0.58,0.58,0,0,0,0-.82h0A0.58,0.58,0,0,0,21.11,4.88Z"/><path class="cls-2" d="M21.93,24.3L19.64,22a0.58,0.58,0,0,0-.82,0h0a0.58,0.58,0,0,0,0,.82l2.3,2.3a0.58,0.58,0,0,0,.82,0h0A0.58,0.58,0,0,0,21.93,24.3Z"/></svg>