<svg id="레이어_1" data-name="레이어 1" xmlns="http://www.w3.org/2000/svg" width="30" height="30" viewBox="0 0 30 30"><defs><style>.cls-1{fill:#fff;fill-opacity:0;}.cls-2{fill:#b7afef;}.cls-3{fill:#7c64ed;}</style></defs><title>mic</title><rect class="cls-1" width="30" height="30"/><path class="cls-2" d="M22.26,18.46v0.88a7.26,7.26,0,0,1-14.52,0h0V18.46H5.59v1a9.41,9.41,0,1,0,18.82,0v-1H22.26Z"/><path class="cls-2" d="M22.26,18.46v0.88a7.26,7.26,0,0,1-14.52,0h0V18.46H5.59v1a9.41,9.41,0,1,0,18.82,0v-1H22.26Z"/><path class="cls-3" d="M17,17.83V16.27h3.82V13.84H17V12.28h3.82V9.85H17V8.28h3.82V6.94a5.84,5.84,0,1,0-11.67,0V8.28H13V9.85H9.17v2.43H13v1.57H9.17v2.43H13v1.57H9.17v1.34a5.84,5.84,0,1,0,11.67,0V17.83H17Z"/></svg>