<?xml version="1.0" encoding="utf-8"?>
<!-- Generator: Adobe Illustrator 16.0.0, SVG Export Plug-In . SVG Version: 6.00 Build 0)  -->
<!DOCTYPE svg PUBLIC "-//W3C//DTD SVG 1.1//EN" "http://www.w3.org/Graphics/SVG/1.1/DTD/svg11.dtd">
<svg version="1.1" id="Layer_1" xmlns="http://www.w3.org/2000/svg" xmlns:xlink="http://www.w3.org/1999/xlink" x="0px" y="0px"
	 width="30px" height="30px" viewBox="0 0 30 30" enable-background="new 0 0 30 30" xml:space="preserve">
<rect opacity="0" fill="#FFFFFF" width="30" height="30.001"/>
<g>
	<path fill="#FFC088" d="M27.814,7.778c-2.939,0-5.879,0-8.82-0.001c0.207,0.533,0.248,1.113,0.129,1.666c2.09,0,4.174,0,6.262,0
		c0,3.706,0,7.409,0,11.114c-2.088,0-4.174,0-6.262,0c0.119,0.554,0.078,1.134-0.129,1.666c2.941,0,5.881,0,8.82,0
		c0.645,0,1.166-0.521,1.166-1.165c0-4.039,0-8.078,0-12.117C28.98,8.298,28.459,7.778,27.814,7.778z"/>
	<path fill="#FF8E1D" d="M14.224,15c1.371-1.372,2.743-2.744,4.116-4.115c1.137-1.138,1.137-2.98,0-4.117s-2.98-1.137-4.116,0
		c-1.374,1.372-2.746,2.744-4.117,4.117C8.733,9.511,7.361,8.139,5.99,6.767c-1.137-1.137-2.98-1.137-4.117,0s-1.137,2.979,0,4.117
		C3.246,12.255,4.616,13.627,5.99,15c-1.374,1.373-2.744,2.744-4.117,4.117c-1.137,1.137-1.137,2.979,0,4.116
		c1.137,1.138,2.98,1.138,4.117,0c1.371-1.372,2.743-2.744,4.116-4.116c1.371,1.372,2.743,2.744,4.117,4.116
		c1.136,1.138,2.979,1.138,4.116,0c1.137-1.137,1.137-2.979,0-4.116C16.967,17.743,15.594,16.372,14.224,15z M8.706,16.399
		c-0.773-0.772-0.773-2.026,0-2.799s2.026-0.773,2.8,0c0.772,0.772,0.772,2.026,0,2.798C10.731,17.173,9.479,17.173,8.706,16.399z"
		/>
</g>
</svg>
