<svg id="레이어_1" data-name="레이어 1" xmlns="http://www.w3.org/2000/svg" width="30" height="30" viewBox="0 0 30 30"><defs><style>.cls-1{fill:#fff;fill-opacity:0;}.cls-2{fill:#ffc088;}.cls-3{fill:#ff8e1d;}</style></defs><title>speaker</title><rect class="cls-1" width="30" height="30"/><path class="cls-2" d="M19.22,12.52l1.24-1.24a5.27,5.27,0,0,1,0,7.44l-1.24-1.24A3.51,3.51,0,0,0,19.22,12.52Z"/><path class="cls-2" d="M22.94,21.2L21.7,20a7,7,0,0,0,0-9.9l0,0L22.94,8.8A8.77,8.77,0,0,1,22.94,21.2Z"/><path class="cls-2" d="M24.18,22.44l1.24,1.24a12.28,12.28,0,0,0,0-17.36L24.18,7.56A10.53,10.53,0,0,1,24.18,22.44Z"/><path class="cls-3" d="M14.57,2.79a3,3,0,0,0-1.35.85L6.13,10H1V20H6.13l7.09,6.33a3,3,0,0,0,1.35.85,1.06,1.06,0,0,0,1.13-1s0,0,0-.07V3.84a1.06,1.06,0,0,0-1.07-1.05H14.57Z"/></svg>