<svg id="레이어_1" data-name="레이어 1" xmlns="http://www.w3.org/2000/svg" width="30" height="30" viewBox="0 0 30 30"><defs><style>.cls-1{fill:#fff;fill-opacity:0;}.cls-2{fill:#7c64ed;}.cls-3{fill:#b7afef;}.cls-4{fill:none;}</style></defs><title>ultrasonic</title><rect class="cls-1" width="30" height="30"/><path class="cls-2" d="M9.6,6.48A8.52,8.52,0,1,0,18.12,15h0A8.52,8.52,0,0,0,9.6,6.48Zm6.33,7.87h-1a5.34,5.34,0,0,0-4.64-4.64v-1A6.36,6.36,0,0,1,15.93,14.35ZM9,12.83a2.26,2.26,0,0,0-1.52,1.52H6.16A3.51,3.51,0,0,1,9,11.56v1.28H9ZM7.44,15.65A2.26,2.26,0,0,0,9,17.17v1.28a3.5,3.5,0,0,1-2.79-2.79H7.44Zm2.81,1.52a2.26,2.26,0,0,0,1.52-1.52H13a3.51,3.51,0,0,1-2.79,2.79V17.17h0Zm1.52-2.82a2.26,2.26,0,0,0-1.52-1.52V11.56A3.51,3.51,0,0,1,13,14.35H11.77ZM9,8.67v1a5.33,5.33,0,0,0-4.64,4.64h-1A6.37,6.37,0,0,1,9,8.67Zm-5.68,7h1A5.33,5.33,0,0,0,9,20.29v1a6.37,6.37,0,0,1-5.73-5.64Zm7,5.68v-1A5.33,5.33,0,0,0,15,15.71h1a6.36,6.36,0,0,1-5.71,5.62Z"/><path class="cls-3" d="M19.43,12.6l1.2-1.2a5.1,5.1,0,0,1,0,7.21l-1.2-1.2a3.39,3.39,0,0,0,0-4.79Z"/><path class="cls-3" d="M23,21l-1.2-1.2a6.79,6.79,0,0,0,0-9.6h0L23,9A8.49,8.49,0,0,1,23,21Z"/><path class="cls-3" d="M24.23,22.21l1.2,1.2a11.89,11.89,0,0,0,0-16.81l-1.2,1.2A10.19,10.19,0,0,1,24.23,22.21Z"/><circle class="cls-4" cx="9.6" cy="15" r="8.52"/></svg>