<svg id="레이어_1" data-name="레이어 1" xmlns="http://www.w3.org/2000/svg" width="30" height="30" viewBox="0 0 30 30"><defs><style>.cls-1,.cls-4{fill:#fff;}.cls-1{fill-opacity:0;}.cls-2{fill:#754c29;}.cls-3{fill:#c49a6c;}</style></defs><title>var</title><rect class="cls-1" width="30" height="30"/><polygon class="cls-2" points="21.86 8.11 8.14 8.11 5.87 11.12 24.13 11.12 21.86 8.11"/><path class="cls-3" d="M5.21,6.7a0.55,0.55,0,0,0-.44,0L1.45,7.9h0a0.33,0.33,0,0,0,0,.55L5.9,11.12l2.27-3Z"/><path class="cls-3" d="M24.79,6.7a0.55,0.55,0,0,1,.44,0l3.33,1.2h0a0.33,0.33,0,0,1,0,.55l-4.45,2.67-2.27-3Z"/><path class="cls-3" d="M5.87,11.12V22.44a0.91,0.91,0,0,0,.91.91H23.22a0.91,0.91,0,0,0,.91-0.91V11.12H5.87Z"/><path class="cls-4" d="M16,15.52a2.32,2.32,0,1,0,1.06,4.39v0.26h1.26V17.84A2.32,2.32,0,0,0,16,15.52Zm0,3.39a1.06,1.06,0,1,1,1.06-1.07A1.06,1.06,0,0,1,16,18.91Z"/><path class="cls-4" d="M20.48,20.17V17.84a1.07,1.07,0,0,1,1.07-1.07V15.52a2.34,2.34,0,0,0-1.07.26V15.52H19.23v4.65h1.25Z"/><polygon class="cls-4" points="11.8 20.17 13.54 15.52 12.2 15.52 10.99 18.74 9.78 15.52 8.45 15.52 10.19 20.17 11.8 20.17"/></svg>