<?xml version="1.0" encoding="utf-8"?>
<!-- Generator: Adobe Illustrator 16.0.0, SVG Export Plug-In . SVG Version: 6.00 Build 0)  -->
<!DOCTYPE svg PUBLIC "-//W3C//DTD SVG 1.1//EN" "http://www.w3.org/Graphics/SVG/1.1/DTD/svg11.dtd">
<svg version="1.1" id="Layer_1" xmlns="http://www.w3.org/2000/svg" xmlns:xlink="http://www.w3.org/1999/xlink" x="0px" y="0px"
	 width="40px" height="40px" viewBox="0 0 40 40" enable-background="new 0 0 40 40" xml:space="preserve">
<g>
	<path fill="#A7A7A7" stroke="#808285" stroke-width="0.8" stroke-miterlimit="10" d="M39.445,31.679c0,4.3-3.486,7.788-7.786,7.788
		H8.3c-4.3,0-7.787-3.488-7.787-7.788V8.319C0.513,4.018,4,0.533,8.3,0.533h23.359c4.3,0,7.786,3.484,7.786,7.786V31.679z"/>
	<g>
		<path fill="#6D6E71" d="M15.979,26.236l2.752-2.751c0.395-0.395,0.396-1.037,0-1.431c-0.398-0.396-1.037-0.396-1.432,0
			l-2.752,2.751l-2.751-2.751c-0.396-0.396-1.037-0.396-1.432,0c-0.396,0.394-0.395,1.036,0,1.431l2.75,2.751l-2.75,2.753
			c-0.395,0.394-0.396,1.037,0,1.431c0.395,0.397,1.036,0.397,1.432,0l2.751-2.751l2.752,2.751c0.395,0.397,1.034,0.397,1.432,0
			c0.396-0.394,0.395-1.035,0-1.431L15.979,26.236z"/>
		<path fill="#6D6E71" d="M30.314,14.185c0,0.562-0.453,1.013-1.012,1.013H21.52c-0.558,0-1.013-0.451-1.013-1.013l0,0
			c0-0.559,0.455-1.01,1.013-1.01h7.783C29.861,13.175,30.314,13.625,30.314,14.185L30.314,14.185z"/>
		<path fill="#6D6E71" d="M30.314,25.578c0,0.562-0.453,1.012-1.012,1.012H21.52c-0.558,0-1.013-0.45-1.013-1.012l0,0
			c0-0.558,0.455-1.013,1.013-1.013h7.783C29.861,24.565,30.314,25.021,30.314,25.578L30.314,25.578z"/>
		<path fill="#6D6E71" d="M18.438,13.175h-2.877v-2.879c0-0.56-0.453-1.013-1.013-1.013c-0.558,0-1.013,0.453-1.013,1.013v2.879
			h-2.878c-0.56,0-1.013,0.451-1.013,1.01c0,0.562,0.453,1.013,1.013,1.013h2.878v2.879c0,0.559,0.455,1.012,1.013,1.012
			c0.56,0,1.013-0.453,1.013-1.012v-2.879h2.877c0.561,0,1.015-0.451,1.015-1.013C19.452,13.625,18.998,13.175,18.438,13.175z"/>
		<path fill="#6D6E71" d="M26.422,29.399c0,0.559-0.453,1.016-1.012,1.016s-1.014-0.457-1.014-1.016
			c0-0.558,0.455-1.012,1.014-1.012S26.422,28.842,26.422,29.399z"/>
		<circle fill="#6D6E71" cx="25.409" cy="21.757" r="1.013"/>
	</g>
</g>
<g>
	<path fill="#A7A7A7" stroke="#808285" stroke-width="0.8" stroke-miterlimit="10" d="M39.544,31.737
		c0,4.322-3.503,7.827-7.825,7.827H8.241c-4.321,0-7.826-3.505-7.826-7.827V8.261c0-4.323,3.505-7.826,7.826-7.826h23.478
		c4.322,0,7.825,3.503,7.825,7.826V31.737z"/>
	<g>
		<path fill="#6D6E71" d="M21.854,18.738c0,0.541-0.434,0.974-0.971,0.974h-7.368c-0.538,0-0.974-0.434-0.974-0.974l0,0
			c0-0.537,0.437-0.972,0.974-0.972h7.368C21.42,17.766,21.854,18.202,21.854,18.738L21.854,18.738z"/>
		<path fill="#6D6E71" d="M18.588,22.606c0,0.536-0.434,0.973-0.973,0.973h-4.1c-0.538,0-0.974-0.437-0.974-0.973l0,0
			c0-0.539,0.437-0.974,0.974-0.974h4.1C18.154,21.633,18.588,22.067,18.588,22.606L18.588,22.606z"/>
		<path fill="#6D6E71" d="M28.943,11.869H11.018c-1.013,0-1.831,0.82-1.831,1.832v12.598c0,1.013,0.818,1.831,1.831,1.831h17.925
			c1.012,0,1.829-0.818,1.829-1.831V13.701C30.772,12.689,29.955,11.869,28.943,11.869z M28.97,26.184h-17.98V15.132h17.98V26.184z"
			/>
	</g>
</g>
</svg>
