<?xml version="1.0" encoding="utf-8"?>
<!-- Generator: Adobe Illustrator 16.0.0, SVG Export Plug-In . SVG Version: 6.00 Build 0)  -->
<!DOCTYPE svg PUBLIC "-//W3C//DTD SVG 1.1//EN" "http://www.w3.org/Graphics/SVG/1.1/DTD/svg11.dtd">
<svg version="1.1" id="Layer_1" xmlns="http://www.w3.org/2000/svg" xmlns:xlink="http://www.w3.org/1999/xlink" x="0px" y="0px"
	 width="40px" height="40px" viewBox="0 0 40 40" enable-background="new 0 0 40 40" xml:space="preserve">
<path fill="#FFFFFF" stroke="#939393" stroke-miterlimit="10" d="M39.544,31.736c0,4.322-3.503,7.828-7.825,7.828H8.241
	c-4.321,0-7.826-3.506-7.826-7.828V8.261c0-4.323,3.505-7.826,7.826-7.826h23.478c4.322,0,7.825,3.503,7.825,7.826V31.736z"/>
<g>
	<path fill="#A7A7A7" d="M21.854,18.738c0,0.541-0.434,0.974-0.971,0.974h-7.368c-0.538,0-0.974-0.434-0.974-0.974l0,0
		c0-0.537,0.437-0.972,0.974-0.972h7.368C21.42,17.766,21.854,18.202,21.854,18.738L21.854,18.738z"/>
	<path fill="#A7A7A7" d="M18.588,22.605c0,0.537-0.434,0.974-0.973,0.974h-4.1c-0.538,0-0.974-0.437-0.974-0.974l0,0
		c0-0.539,0.437-0.976,0.974-0.976h4.1C18.154,21.633,18.588,22.066,18.588,22.605L18.588,22.605z"/>
	<path fill="#A7A7A7" d="M28.943,11.869H11.018c-1.013,0-1.831,0.82-1.831,1.832v12.598c0,1.014,0.818,1.831,1.831,1.831h17.925
		c1.012,0,1.828-0.817,1.828-1.831V13.701C30.771,12.689,29.955,11.869,28.943,11.869z M28.971,26.184H10.99V15.132h17.98V26.184
		L28.971,26.184z"/>
</g>
</svg>
