<svg id="Layer_1" data-name="Layer 1" xmlns="http://www.w3.org/2000/svg" width="40.15" height="40.15" viewBox="0 0 40.15 40.15">
  <defs>
    <style>
      .cls-1 {
        fill: #414141;
        stroke: #303030;
        stroke-miterlimit: 10;
      }

      .cls-2 {
        fill: #fff;
      }
    </style>
  </defs>
  <title>paletteIf</title>
  <path class="cls-1" d="M39.57,31.74a7.83,7.83,0,0,1-7.83,7.83H8.26A7.83,7.83,0,0,1,.43,31.74V8.25A7.83,7.83,0,0,1,8.26.42H31.74a7.83,7.83,0,0,1,7.83,7.83Z" transform="translate(0.07 0.08)"/>
  <g>
    <path class="cls-2" d="M13.31,30.54a.4.4,0,0,1-.32-.1.64.64,0,0,1-.09-.4V16.89a.74.74,0,0,1,.08-.4.4.4,0,0,1,.33-.1h2.5a.45.45,0,0,1,.34.1.65.65,0,0,1,.09.4V30a.65.65,0,0,1-.09.4.45.45,0,0,1-.34.1Z" transform="translate(0.07 0.08)"/>
    <rect class="cls-2" x="13.01" y="10.22" width="3.34" height="3.34" rx="0.47" ry="0.47"/>
    <path class="cls-2" d="M26.76,12.16,26.13,12a3.46,3.46,0,0,0-.64-.06,1.17,1.17,0,0,0-.92.32,2,2,0,0,0-.41.8c0,.17-.07.4-.1.69a8.28,8.28,0,0,0-.05,1v1.71h2.44a.27.27,0,0,1,.31.31v2a.3.3,0,0,1-.31.3H24V30.23a.27.27,0,0,1-.31.31H21.62a.27.27,0,0,1-.31-.31V19H19.18a.3.3,0,0,1-.3-.3v-2a.3.3,0,0,1,.3-.31h2.11V14.91a13.47,13.47,0,0,1,.17-2.21,5,5,0,0,1,.62-1.76,3.18,3.18,0,0,1,1.16-1.06,3.85,3.85,0,0,1,1.9-.42,8.08,8.08,0,0,1,1,.06,3.7,3.7,0,0,1,.78.17.38.38,0,0,1,.18.36L27,11.78C27,12.07,26.92,12.19,26.76,12.16Z" transform="translate(0.07 0.08)"/>
  </g>
</svg>
