<svg id="Layer_1" data-name="Layer 1" xmlns="http://www.w3.org/2000/svg" width="40.15" height="40.15" viewBox="0 0 40.15 40.15">
  <defs>
    <style>
      .cls-1 {
        fill: #fff;
        stroke: #939393;
        stroke-miterlimit: 10;
      }

      .cls-2 {
        fill: #585858;
      }

      .cls-3 {
        fill: #57b3ff;
      }
    </style>
  </defs>
  <title>paletteLoopOn</title>
  <path class="cls-1" d="M40.11,31.74a7.83,7.83,0,0,1-7.83,7.83H8.79A7.83,7.83,0,0,1,1,31.74V8.25A7.83,7.83,0,0,1,8.79.42H32.28a7.83,7.83,0,0,1,7.83,7.83Z" transform="translate(-0.46 0.08)"/>
  <g>
    <path class="cls-2" d="M5.8,25.52a.27.27,0,0,1-.21-.07.42.42,0,0,1-.06-.27v-13a.49.49,0,0,1,.05-.27.27.27,0,0,1,.22-.07H7.45a.3.3,0,0,1,.23.07.43.43,0,0,1,.06.27v13a.43.43,0,0,1-.06.27.3.3,0,0,1-.23.07Z" transform="translate(-0.46 0.08)"/>
    <path class="cls-2" d="M31.67,25.94a2.67,2.67,0,0,1-1.06-.23,2.52,2.52,0,0,1-.94-.72v2.85a.43.43,0,0,1-.06.26s-.13.07-.26.07H27.8a.33.33,0,0,1-.25-.07.39.39,0,0,1-.07-.26V16.53a.39.39,0,0,1,.09-.31.43.43,0,0,1,.28-.07h1.5a.47.47,0,0,1,.27.06.3.3,0,0,1,.08.24v.65a2.26,2.26,0,0,1,.38-.39,2.7,2.7,0,0,1,.52-.33,3.07,3.07,0,0,1,.61-.23,2.56,2.56,0,0,1,.64-.08,3.25,3.25,0,0,1,1.53.35,3.37,3.37,0,0,1,1.16,1A4.78,4.78,0,0,1,35.28,19,7.62,7.62,0,0,1,35.53,21a7,7,0,0,1-.27,2,4.63,4.63,0,0,1-.77,1.54,3.48,3.48,0,0,1-2.83,1.36Zm-.2-7.84a1.41,1.41,0,0,0-.68.18,1.68,1.68,0,0,0-.57.53,3,3,0,0,0-.41.91,4.72,4.72,0,0,0-.16,1.3,5.42,5.42,0,0,0,.14,1.33,2.79,2.79,0,0,0,.38.9,1.45,1.45,0,0,0,.58.51,1.65,1.65,0,0,0,.72.16,1.58,1.58,0,0,0,1.34-.7,3.78,3.78,0,0,0,.51-2.2,3.76,3.76,0,0,0-.52-2.24A1.61,1.61,0,0,0,31.47,18.1Z" transform="translate(-0.46 0.08)"/>
    <path class="cls-3" d="M25.32,17.79a4.38,4.38,0,0,0-6.19,0l-.11.12-.77.77h0a.8.8,0,0,1-1.27,0h0l-.77-.77-.11-.12a4.37,4.37,0,1,0,0,6.18l.91-.91a.8.8,0,0,1,1.23,0l.91.91a4.37,4.37,0,1,0,6.19-6.18Zm-10.8,4.62a2.16,2.16,0,1,1,0-3h0l.47.47,1,1Zm9.23,0a2.15,2.15,0,0,1-3,0l-1.53-1.52,1-1,.47-.47h0a2.16,2.16,0,0,1,3,3Z" transform="translate(-0.46 0.08)"/>
  </g>
</svg>
