<svg id="Layer_1" data-name="Layer 1" xmlns="http://www.w3.org/2000/svg" width="39.95" height="39.95" viewBox="0 0 39.95 39.95">
  <defs>
    <style>
      .cls-1 {
        fill: #a7a7a7;
        stroke: #808285;
        stroke-miterlimit: 10;
        stroke-width: 0.8px;
      }

      .cls-2 {
        fill: #6d6e71;
      }

      .cls-3 {
        fill: #fff;
      }
    </style>
  </defs>
  <title>paletteBreak</title>
  <path class="cls-1" d="M39.57,31.74a7.83,7.83,0,0,1-7.83,7.83H8.26A7.83,7.83,0,0,1,.43,31.74V8.25A7.83,7.83,0,0,1,8.26.42H31.74a7.83,7.83,0,0,1,7.83,7.83Z" transform="translate(-0.03 -0.02)"/>
  <g>
    <path class="cls-2" d="M16.6,11.09a1.9,1.9,0,1,0,2.53-.91A1.9,1.9,0,0,0,16.6,11.09Z" transform="translate(-0.03 -0.02)"/>
    <path class="cls-2" d="M12.09,19.58a1.17,1.17,0,0,0,.56,1.56l1.87.88a1.17,1.17,0,0,0,1.56-.57l2.63-5.61a1.17,1.17,0,0,0-.56-1.56l-1.87-.87a1.17,1.17,0,0,0-1.56.56Z" transform="translate(-0.03 -0.02)"/>
    <path class="cls-2" d="M17.5,28.81A1,1,0,0,1,16.72,30h0a1,1,0,0,1-1.17-.78L14,21.45a1,1,0,0,1,.79-1.17h0a1,1,0,0,1,1.17.79Z" transform="translate(-0.03 -0.02)"/>
    <path class="cls-2" d="M7.42,21.34l3.15,1.47L12,19.67a1,1,0,0,1,1.81.85L12,24.57a1,1,0,0,1-1.33.48h0l-4.05-1.9a1,1,0,0,1,.84-1.81Z" transform="translate(-0.03 -0.02)"/>
    <path class="cls-2" d="M17.79,14.66a.82.82,0,0,1,1,.54l.85,2.74,2.74-.84a.82.82,0,0,1,.49,1.57l-3.53,1.09h0a.82.82,0,0,1-1-.55l-1.09-3.53A.82.82,0,0,1,17.79,14.66Z" transform="translate(-0.03 -0.02)"/>
    <path class="cls-2" d="M16.62,14.31a.83.83,0,0,1-1,.6l-2.78-.69L12.15,17a.82.82,0,1,1-1.6-.4L11.44,13h0a.83.83,0,0,1,.52-.58.86.86,0,0,1,.48,0l3.58.89A.82.82,0,0,1,16.62,14.31Z" transform="translate(-0.03 -0.02)"/>
  </g>
  <path class="cls-3" d="M24.23,12.67V27.33a2.44,2.44,0,0,0,2.44,2.44h4.89A2.44,2.44,0,0,0,34,27.33V12.67a2.44,2.44,0,0,0-2.44-2.44H26.67A2.44,2.44,0,0,0,24.23,12.67Zm2,14.17v-6h1.54V22l1.37-1,1.37-1L29.1,19l-1.37-1v1.12H26.18v-6a1.12,1.12,0,0,1,1.17-1.05h3.51A1.12,1.12,0,0,1,32,13.16V26.84a1.12,1.12,0,0,1-1.17,1.05H27.35A1.11,1.11,0,0,1,26.18,26.84Z" transform="translate(-0.03 -0.02)"/>
</svg>
