<?xml version="1.0" encoding="utf-8"?>
<!-- Generator: Adobe Illustrator 16.0.0, SVG Export Plug-In . SVG Version: 6.00 Build 0)  -->
<!DOCTYPE svg PUBLIC "-//W3C//DTD SVG 1.1//EN" "http://www.w3.org/Graphics/SVG/1.1/DTD/svg11.dtd">
<svg version="1.1" id="Layer_1" xmlns="http://www.w3.org/2000/svg" xmlns:xlink="http://www.w3.org/1999/xlink" x="0px" y="0px"
	 width="40px" height="40px" viewBox="0 0 40 40" enable-background="new 0 0 40 40" xml:space="preserve">
<path fill="#FFFFFF" stroke="#939393" stroke-miterlimit="10" d="M39.548,31.743c0,4.319-3.504,7.825-7.823,7.825H8.252
	c-4.319,0-7.822-3.506-7.822-7.825V8.273c0-4.321,3.502-7.822,7.822-7.822h23.473c4.319,0,7.823,3.5,7.823,7.822V31.743z"/>
<g>
	<path fill="#A7A7A7" d="M17.392,26.193c-0.307,0.521-0.981,0.695-1.503,0.39l0,0c-0.523-0.308-0.698-0.979-0.39-1.503l6.17-10.484
		c0.308-0.521,0.981-0.697,1.505-0.39l0,0c0.521,0.308,0.696,0.982,0.391,1.506L17.392,26.193z"/>
	<path fill="#A7A7A7" d="M9.06,20.008l4.848-4.849c0.433-0.43,0.433-1.129,0.002-1.557c-0.431-0.429-1.127-0.429-1.555,0
		l-5.621,5.62c-0.216,0.216-0.324,0.502-0.321,0.786c-0.003,0.283,0.105,0.57,0.321,0.786l5.621,5.621
		c0.428,0.431,1.125,0.431,1.555,0c0.43-0.431,0.431-1.126-0.002-1.558L9.06,20.008z"/>
	<path fill="#A7A7A7" d="M30.014,19.988l-4.824,4.875c-0.426,0.431-0.424,1.125,0.006,1.554c0.437,0.431,1.132,0.426,1.559-0.006
		l5.594-5.647c0.217-0.221,0.32-0.504,0.316-0.79c0-0.284-0.105-0.567-0.324-0.783l-5.646-5.592
		c-0.432-0.43-1.127-0.426-1.557,0.008c-0.428,0.43-0.425,1.127,0.008,1.553L30.014,19.988z"/>
</g>
</svg>
