<?xml version="1.0" encoding="utf-8"?>
<!-- Generator: Adobe Illustrator 16.0.0, SVG Export Plug-In . SVG Version: 6.00 Build 0)  -->
<!DOCTYPE svg PUBLIC "-//W3C//DTD SVG 1.1//EN" "http://www.w3.org/Graphics/SVG/1.1/DTD/svg11.dtd">
<svg version="1.1" id="Layer_1" xmlns="http://www.w3.org/2000/svg" xmlns:xlink="http://www.w3.org/1999/xlink" x="0px" y="0px"
	 width="40px" height="40px" viewBox="0 0 40 40" enable-background="new 0 0 40 40" xml:space="preserve">
<path fill="#FFFFFF" stroke="#939393" stroke-miterlimit="10" d="M39.563,31.761c0,4.317-3.502,7.822-7.82,7.822H8.267
	c-4.32,0-7.823-3.504-7.823-7.822V8.288c0-4.322,3.504-7.824,7.823-7.824h23.471c4.318,0,7.824,3.502,7.824,7.824V31.761
	L39.563,31.761z"/>
<path fill="#A7A7A7" d="M20.979,24.042c0.104,0.144,0.074,0.341-0.063,0.44L12.86,30.43c-0.142,0.104-0.341,0.073-0.444-0.066
	L6.47,22.309c-0.104-0.142-0.077-0.34,0.066-0.441l8.057-5.947c0.14-0.104,0.338-0.075,0.442,0.066L20.979,24.042z"/>
<path fill="#A7A7A7" d="M30.598,11.051c0.172,0.026,0.291,0.189,0.269,0.361l-1.492,9.9c-0.022,0.172-0.188,0.291-0.36,0.266
	l-9.9-1.492c-0.172-0.024-0.292-0.188-0.269-0.361l1.493-9.899c0.027-0.174,0.188-0.292,0.361-0.268L30.598,11.051z"/>
<g>
	<path fill="#FFFFFF" d="M10.078,21.695c0.503,0.074,0.851,0.541,0.774,1.047c-0.074,0.506-0.545,0.851-1.05,0.771
		C9.3,23.441,8.951,22.97,9.029,22.467C9.107,21.966,9.575,21.618,10.078,21.695z"/>
	<path fill="#FFFFFF" d="M13.86,22.262c0.504,0.077,0.85,0.547,0.774,1.053c-0.076,0.502-0.543,0.852-1.048,0.771
		c-0.503-0.07-0.851-0.543-0.774-1.045C12.887,22.534,13.356,22.188,13.86,22.262z"/>
	<circle fill="#FFFFFF" cx="17.505" cy="23.746" r="0.921"/>
	<circle fill="#FFFFFF" cx="21.775" cy="17.841" r="0.921"/>
	<circle fill="#FFFFFF" cx="27.122" cy="18.647" r="0.922"/>
	<circle fill="#FFFFFF" cx="22.583" cy="12.489" r="0.921"/>
	<circle fill="#FFFFFF" cx="27.93" cy="13.294" r="0.921"/>
	<path fill="#FFFFFF" d="M24.305,14.827c0.41-0.303,0.986-0.217,1.291,0.197c0.301,0.406,0.215,0.984-0.197,1.288
		c-0.407,0.302-0.984,0.216-1.287-0.193C23.807,15.707,23.895,15.127,24.305,14.827z"/>
</g>
</svg>
