<?xml version="1.0" encoding="utf-8"?>
<!-- Generator: Adobe Illustrator 16.0.0, SVG Export Plug-In . SVG Version: 6.00 Build 0)  -->
<!DOCTYPE svg PUBLIC "-//W3C//DTD SVG 1.1//EN" "http://www.w3.org/Graphics/SVG/1.1/DTD/svg11.dtd">
<svg version="1.1" id="Layer_1" xmlns="http://www.w3.org/2000/svg" xmlns:xlink="http://www.w3.org/1999/xlink" x="0px" y="0px"
	 width="40px" height="40px" viewBox="0 0 40 40" enable-background="new 0 0 40 40" xml:space="preserve">
<path fill="#FFFFFF" stroke="#939393" stroke-miterlimit="10" d="M39.563,31.748c0,4.327-3.506,7.838-7.834,7.838h-23.5
	c-4.325,0-7.834-3.511-7.834-7.838v-23.5c0-4.326,3.509-7.833,7.834-7.833h23.5c4.328,0,7.834,3.507,7.834,7.833V31.748z"/>
<g>
	<path fill="#A7A7A7" d="M19.98,9.361c-5.875,0-10.639,4.762-10.639,10.638s4.764,10.64,10.639,10.64
		c5.875,0,10.638-4.764,10.638-10.64C30.618,14.124,25.854,9.361,19.98,9.361z M19.98,28.576c-4.737,0-8.578-3.84-8.578-8.577
		c0-4.737,3.841-8.575,8.578-8.575c4.736,0,8.579,3.837,8.579,8.575C28.559,24.736,24.716,28.576,19.98,28.576z"/>
	<g>
		<path fill="#A7A7A7" d="M19.98,21.148c-0.516,0-0.936-0.42-0.936-0.938l0,0c0-0.516,0.419-0.937,0.936-0.937h2.721
			c0.518,0,0.936,0.42,0.936,0.937l0,0c0,0.518-0.418,0.938-0.936,0.938H19.98z"/>
		<path fill="#A7A7A7" d="M20.915,20.213c0,0.516-0.418,0.936-0.935,0.936l0,0c-0.517,0-0.936-0.42-0.936-0.936v-4.959
			c0-0.518,0.418-0.938,0.936-0.938l0,0c0.516,0,0.935,0.42,0.935,0.938V20.213z"/>
	</g>
</g>
</svg>
