<?xml version="1.0" encoding="utf-8"?>
<!-- Generator: Adobe Illustrator 16.0.0, SVG Export Plug-In . SVG Version: 6.00 Build 0)  -->
<!DOCTYPE svg PUBLIC "-//W3C//DTD SVG 1.1//EN" "http://www.w3.org/Graphics/SVG/1.1/DTD/svg11.dtd">
<svg version="1.1" id="Layer_1" xmlns="http://www.w3.org/2000/svg" xmlns:xlink="http://www.w3.org/1999/xlink" x="0px" y="0px"
	 width="40px" height="40px" viewBox="0 0 40 40" enable-background="new 0 0 40 40" xml:space="preserve">
<g>
	<path fill="#A7A7A7" stroke="#808285" stroke-width="0.8" stroke-miterlimit="10" d="M39.574,31.743
		c0,4.323-3.506,7.831-7.83,7.831H8.255c-4.324,0-7.83-3.508-7.83-7.831V8.253c0-4.325,3.505-7.829,7.83-7.829h23.489
		c4.324,0,7.83,3.503,7.83,7.829V31.743z"/>
	<g>
		<path fill="#6D6E71" d="M15.978,26.271l2.768-2.767c0.397-0.396,0.398-1.042,0-1.438c-0.4-0.398-1.043-0.398-1.44,0l-2.767,2.767
			l-2.766-2.767c-0.398-0.398-1.043-0.398-1.44,0c-0.398,0.396-0.397,1.043,0,1.438l2.766,2.767l-2.766,2.768
			c-0.397,0.396-0.398,1.044,0,1.439c0.397,0.399,1.042,0.399,1.44,0l2.766-2.767l2.767,2.767c0.397,0.399,1.04,0.399,1.44,0
			c0.398-0.396,0.397-1.041,0-1.439L15.978,26.271z"/>
		<path fill="#6D6E71" d="M30.393,14.152c0,0.565-0.457,1.018-1.018,1.018h-7.826c-0.561,0-1.019-0.453-1.019-1.018l0,0
			c0-0.563,0.458-1.016,1.019-1.016h7.826C29.936,13.136,30.393,13.589,30.393,14.152L30.393,14.152z"/>
		<path fill="#6D6E71" d="M30.393,25.608c0,0.565-0.457,1.018-1.018,1.018h-7.826c-0.561,0-1.019-0.452-1.019-1.018l0,0
			c0-0.561,0.458-1.019,1.019-1.019h7.826C29.936,24.59,30.393,25.048,30.393,25.608L30.393,25.608z"/>
		<path fill="#6D6E71" d="M18.45,13.136h-2.894v-2.895c0-0.563-0.456-1.019-1.018-1.019c-0.562,0-1.019,0.455-1.019,1.019v2.895
			h-2.894c-0.563,0-1.019,0.453-1.019,1.016c0,0.565,0.456,1.018,1.019,1.018h2.894v2.895c0,0.562,0.457,1.018,1.019,1.018
			c0.563,0,1.018-0.456,1.018-1.018V15.17h2.894c0.563,0,1.02-0.453,1.02-1.018C19.47,13.589,19.013,13.136,18.45,13.136z"/>
		<path fill="#6D6E71" d="M26.479,29.451c0,0.562-0.457,1.021-1.018,1.021c-0.563,0-1.02-0.459-1.02-1.021
			c0-0.561,0.457-1.018,1.02-1.018C26.021,28.434,26.479,28.891,26.479,29.451z"/>
		<circle fill="#6D6E71" cx="25.46" cy="21.767" r="1.019"/>
	</g>
</g>
</svg>
