<?xml version="1.0" encoding="utf-8"?>
<!-- Generator: Adobe Illustrator 16.0.0, SVG Export Plug-In . SVG Version: 6.00 Build 0)  -->
<!DOCTYPE svg PUBLIC "-//W3C//DTD SVG 1.1//EN" "http://www.w3.org/Graphics/SVG/1.1/DTD/svg11.dtd">
<svg version="1.1" id="Layer_1" xmlns="http://www.w3.org/2000/svg" xmlns:xlink="http://www.w3.org/1999/xlink" x="0px" y="0px"
	 width="40px" height="40px" viewBox="0 0 40 40" enable-background="new 0 0 40 40" xml:space="preserve">
<g>
	<path fill="#A7A7A7" stroke="#808285" stroke-width="0.8" stroke-miterlimit="10" d="M39.445,31.679c0,4.3-3.486,7.788-7.786,7.788
		H8.3c-4.3,0-7.787-3.488-7.787-7.788V8.319C0.513,4.018,4,0.533,8.3,0.533h23.359c4.3,0,7.786,3.484,7.786,7.786V31.679z"/>
	<g>
		<path fill="#6D6E71" d="M15.979,26.236l2.752-2.751c0.395-0.395,0.396-1.037,0-1.431c-0.398-0.396-1.037-0.396-1.432,0
			l-2.752,2.751l-2.751-2.751c-0.396-0.396-1.037-0.396-1.432,0c-0.396,0.394-0.395,1.036,0,1.431l2.75,2.751l-2.75,2.753
			c-0.395,0.394-0.396,1.037,0,1.431c0.395,0.397,1.036,0.397,1.432,0l2.751-2.751l2.752,2.751c0.395,0.397,1.034,0.397,1.432,0
			c0.396-0.394,0.395-1.035,0-1.431L15.979,26.236z"/>
		<path fill="#6D6E71" d="M30.314,14.185c0,0.562-0.453,1.013-1.012,1.013H21.52c-0.558,0-1.013-0.451-1.013-1.013l0,0
			c0-0.559,0.455-1.01,1.013-1.01h7.783C29.861,13.175,30.314,13.625,30.314,14.185L30.314,14.185z"/>
		<path fill="#6D6E71" d="M30.314,25.578c0,0.562-0.453,1.012-1.012,1.012H21.52c-0.558,0-1.013-0.45-1.013-1.012l0,0
			c0-0.558,0.455-1.013,1.013-1.013h7.783C29.861,24.565,30.314,25.021,30.314,25.578L30.314,25.578z"/>
		<path fill="#6D6E71" d="M18.438,13.175h-2.877v-2.879c0-0.56-0.453-1.013-1.013-1.013c-0.558,0-1.013,0.453-1.013,1.013v2.879
			h-2.878c-0.56,0-1.013,0.451-1.013,1.01c0,0.562,0.453,1.013,1.013,1.013h2.878v2.879c0,0.559,0.455,1.012,1.013,1.012
			c0.56,0,1.013-0.453,1.013-1.012v-2.879h2.877c0.561,0,1.015-0.451,1.015-1.013C19.452,13.625,18.998,13.175,18.438,13.175z"/>
		<path fill="#6D6E71" d="M26.422,29.399c0,0.559-0.453,1.016-1.012,1.016s-1.014-0.457-1.014-1.016
			c0-0.558,0.455-1.012,1.014-1.012S26.422,28.842,26.422,29.399z"/>
		<circle fill="#6D6E71" cx="25.409" cy="21.757" r="1.013"/>
	</g>
</g>
<g>
	<path fill="#A7A7A7" stroke="#808285" stroke-width="0.8" stroke-miterlimit="10" d="M39.544,31.737
		c0,4.322-3.503,7.827-7.825,7.827H8.241c-4.321,0-7.826-3.505-7.826-7.827V8.261c0-4.323,3.505-7.826,7.826-7.826h23.478
		c4.322,0,7.825,3.503,7.825,7.826V31.737z"/>
	<g>
		<path fill="#6D6E71" d="M21.854,18.738c0,0.541-0.434,0.974-0.971,0.974h-7.368c-0.538,0-0.974-0.434-0.974-0.974l0,0
			c0-0.537,0.437-0.972,0.974-0.972h7.368C21.42,17.766,21.854,18.202,21.854,18.738L21.854,18.738z"/>
		<path fill="#6D6E71" d="M18.588,22.606c0,0.536-0.434,0.973-0.973,0.973h-4.1c-0.538,0-0.974-0.437-0.974-0.973l0,0
			c0-0.539,0.437-0.974,0.974-0.974h4.1C18.154,21.633,18.588,22.067,18.588,22.606L18.588,22.606z"/>
		<path fill="#6D6E71" d="M28.943,11.869H11.018c-1.013,0-1.831,0.82-1.831,1.832v12.598c0,1.013,0.818,1.831,1.831,1.831h17.925
			c1.012,0,1.829-0.818,1.829-1.831V13.701C30.772,12.689,29.955,11.869,28.943,11.869z M28.97,26.184h-17.98V15.132h17.98V26.184z"
			/>
	</g>
</g>
<g>
	<path fill="#A7A7A7" stroke="#808285" stroke-width="0.8" stroke-miterlimit="10" d="M39.478,31.697c0,4.308-3.492,7.801-7.8,7.801
		H8.28c-4.306,0-7.798-3.493-7.798-7.801V8.3c0-4.307,3.493-7.799,7.798-7.799h23.398c4.308,0,7.8,3.492,7.8,7.799V31.697z"/>
	<g>
		<path fill="#6D6E71" d="M25.25,20.705h-3.74c-0.057,0-0.114,0.008-0.174,0.01c-0.027-0.002-0.057-0.01-0.087-0.01
			c-0.561,0-1.014,0.452-1.014,1.014v8.004c0,0.56,0.454,1.015,1.014,1.015c0.028,0,0.059-0.008,0.087-0.01
			c0.058,0.004,0.117,0.01,0.174,0.01h3.74c2.771,0,5.015-2.247,5.015-5.017S28.021,20.705,25.25,20.705z M25.287,28.745h-2.256
			c-0.035,0-0.071-0.002-0.105-0.006c-0.017,0.002-0.034,0.006-0.051,0.006c-0.339,0-0.614-0.275-0.614-0.614v-4.823
			c0-0.338,0.275-0.61,0.614-0.61c0.017,0,0.034,0.004,0.051,0.006c0.034-0.002,0.07-0.006,0.105-0.006h2.256
			c1.67,0,3.021,1.354,3.021,3.023C28.309,27.39,26.957,28.745,25.287,28.745z"/>
		<path fill="#6D6E71" d="M17.557,26.168c-0.418,0-0.778,0.262-0.923,0.631l-0.006-0.002c-0.433,1.134-1.529,1.942-2.817,1.942
			c-1.665,0-3.017-1.353-3.017-3.019l0,0l0,0c0-1.666,1.352-3.018,3.017-3.018c1.288,0,2.385,0.808,2.817,1.942l0.006-0.002
			c0.146,0.369,0.505,0.63,0.923,0.63c0.551,0,0.997-0.446,0.997-0.994c0-0.116-0.021-0.23-0.058-0.331
			c-0.009-0.03-0.022-0.058-0.035-0.082l0.006-0.002c-0.74-1.851-2.543-3.159-4.657-3.159c-2.77,0-5.014,2.246-5.014,5.016l0,0l0,0
			c0,2.77,2.244,5.017,5.014,5.017c2.113,0,3.917-1.309,4.657-3.16l-0.006-0.002c0.013-0.025,0.026-0.051,0.035-0.08
			c0.037-0.104,0.058-0.216,0.058-0.332C18.554,26.613,18.107,26.168,17.557,26.168z"/>
		<path fill="#6D6E71" d="M18.686,17.905l-3.989-8.086c-0.161-0.331-0.481-0.527-0.826-0.552c-0.025-0.002-0.052-0.002-0.078-0.002
			c-0.027,0-0.056,0-0.081,0.002c-0.343,0.024-0.664,0.221-0.826,0.552l-3.987,8.086c-0.243,0.497-0.039,1.096,0.456,1.34
			c0.495,0.243,1.094,0.039,1.338-0.456l0.552-1.122h5.093l0.554,1.122c0.245,0.495,0.842,0.699,1.338,0.456
			C18.725,19.001,18.929,18.402,18.686,17.905z M12.246,15.64l1.547-3.139l1.546,3.139H12.246z"/>
		<path fill="#6D6E71" d="M29.081,13.898c0.282-0.459,0.448-1.001,0.448-1.582c0-1.671-1.356-3.026-3.026-3.026h-5.212v0.002
			c-0.014,0-0.027-0.002-0.042-0.002c-0.561,0-1.014,0.453-1.014,1.015v8c0,0.562,0.454,1.017,1.014,1.017
			c0.016,0,0.031-0.004,0.049-0.004v0.002l5.941,0.004c1.67,0,3.025-1.354,3.025-3.026C30.265,15.317,29.799,14.451,29.081,13.898z
			 M23.168,11.317h3.731c0.5,0,0.907,0.407,0.907,0.907s-0.407,0.907-0.907,0.907h-3.731c-0.5,0-0.907-0.407-0.907-0.907
			S22.668,11.317,23.168,11.317z M27.426,17.295h-4.095c-0.593,0-1.07-0.479-1.07-1.07c0-0.588,0.478-1.065,1.07-1.065h4.095
			c0.589,0,1.066,0.478,1.066,1.065C28.492,16.816,28.015,17.295,27.426,17.295z"/>
	</g>
</g>
<g>
	<path fill="#A7A7A7" stroke="#808285" stroke-width="0.8" stroke-miterlimit="10" d="M39.516,31.723
		c0,4.313-3.499,7.813-7.814,7.813H8.258c-4.315,0-7.814-3.499-7.814-7.813V8.279c0-4.317,3.5-7.815,7.814-7.815h23.443
		c4.315,0,7.814,3.498,7.814,7.815V31.723z"/>
	<path fill="#6D6E71" d="M20.953,24.013c0.104,0.143,0.074,0.341-0.065,0.441l-8.045,5.941c-0.142,0.103-0.34,0.074-0.444-0.067
		l-5.938-8.046c-0.104-0.139-0.076-0.338,0.066-0.442l8.047-5.939c0.14-0.104,0.338-0.075,0.441,0.066L20.953,24.013z"/>
	<path fill="#6D6E71" d="M30.56,11.038c0.172,0.026,0.292,0.189,0.267,0.361l-1.49,9.889c-0.025,0.172-0.188,0.291-0.361,0.265
		l-9.887-1.49c-0.172-0.024-0.292-0.188-0.268-0.361l1.491-9.887c0.027-0.174,0.188-0.292,0.361-0.268L30.56,11.038z"/>
	<g>
		<path fill="#A7A7A7" d="M10.067,21.67c0.502,0.074,0.85,0.542,0.773,1.045c-0.075,0.506-0.545,0.85-1.049,0.772
			c-0.501-0.073-0.85-0.544-0.772-1.045C9.096,21.94,9.564,21.593,10.067,21.67z"/>
		<path fill="#A7A7A7" d="M13.844,22.236c0.503,0.077,0.849,0.545,0.773,1.05c-0.075,0.502-0.543,0.85-1.047,0.771
			c-0.502-0.073-0.85-0.544-0.773-1.044C12.872,22.508,13.341,22.162,13.844,22.236z"/>
		<circle fill="#A7A7A7" cx="17.485" cy="23.718" r="0.92"/>
		<circle fill="#A7A7A7" cx="21.75" cy="17.82" r="0.92"/>
		<circle fill="#A7A7A7" cx="27.091" cy="18.625" r="0.921"/>
		<circle fill="#A7A7A7" cx="22.556" cy="12.474" r="0.92"/>
		<circle fill="#A7A7A7" cx="27.896" cy="13.279" r="0.92"/>
		<path fill="#A7A7A7" d="M24.276,14.81c0.409-0.302,0.985-0.216,1.288,0.197c0.302,0.405,0.215,0.982-0.195,1.286
			c-0.409,0.302-0.986,0.216-1.287-0.193C23.78,15.688,23.865,15.11,24.276,14.81z"/>
	</g>
</g>
<g>
	<path fill="#A7A7A7" stroke="#808285" stroke-width="0.8" stroke-miterlimit="10" d="M39.563,31.748
		c0,4.327-3.507,7.838-7.834,7.838h-23.5c-4.325,0-7.834-3.511-7.834-7.838v-23.5c0-4.326,3.509-7.833,7.834-7.833h23.5
		c4.327,0,7.834,3.507,7.834,7.833V31.748z"/>
	<g>
		<path fill="#6D6E71" d="M19.98,9.361c-5.875,0-10.639,4.762-10.639,10.638c0,5.876,4.764,10.64,10.639,10.64
			c5.875,0,10.638-4.764,10.638-10.64C30.618,14.124,25.854,9.361,19.98,9.361z M19.98,28.576c-4.737,0-8.578-3.84-8.578-8.577
			s3.841-8.575,8.578-8.575c4.736,0,8.578,3.837,8.578,8.575S24.716,28.576,19.98,28.576z"/>
		<g>
			<path fill="#6D6E71" d="M19.98,21.149c-0.516,0-0.936-0.42-0.936-0.936l0,0c0-0.516,0.419-0.937,0.936-0.937h2.721
				c0.518,0,0.935,0.42,0.935,0.937l0,0c0,0.516-0.417,0.936-0.935,0.936H19.98z"/>
			<path fill="#6D6E71" d="M20.915,20.213c0,0.516-0.418,0.936-0.935,0.936l0,0c-0.517,0-0.936-0.42-0.936-0.936v-4.959
				c0-0.518,0.418-0.938,0.936-0.938l0,0c0.516,0,0.935,0.42,0.935,0.938V20.213z"/>
		</g>
	</g>
</g>
</svg>
