<svg id="Layer_1" data-name="Layer 1" xmlns="http://www.w3.org/2000/svg" width="40.15" height="40.15" viewBox="0 0 40.15 40.15">
  <defs>
    <style>
      .cls-1 {
        fill: #414141;
        stroke: #303030;
        stroke-miterlimit: 10;
      }

      .cls-2 {
        fill: #fff;
      }
    </style>
  </defs>
  <title>paletteWhile</title>
  <path class="cls-1" d="M39.57,31.67a7.83,7.83,0,0,1-7.83,7.83H8.26A7.83,7.83,0,0,1,.43,31.67V8.18A7.83,7.83,0,0,1,8.26.35H31.74a7.83,7.83,0,0,1,7.83,7.83Z" transform="translate(0.07 0.15)"/>
  <g>
    <path class="cls-2" d="M10.6,20.39,9.08,25.73a.26.26,0,0,1-.07.15.37.37,0,0,1-.19,0H7.55a.33.33,0,0,1-.16,0,.21.21,0,0,1-.08-.15L5,17.9c0-.15-.05-.24,0-.28s.12-.06.27-.06H6.51a.37.37,0,0,1,.18,0,.24.24,0,0,1,.07.15l1.45,5.38,1.49-5.38a.26.26,0,0,1,.07-.15.36.36,0,0,1,.19,0h1.28a.36.36,0,0,1,.19,0,.26.26,0,0,1,.07.15L13,23.12l1.45-5.38a.24.24,0,0,1,.07-.15.37.37,0,0,1,.18,0H15.9q.23,0,.27.06s0,.13,0,.28l-2.27,7.83a.22.22,0,0,1-.08.15.34.34,0,0,1-.16,0H12.36a.37.37,0,0,1-.19,0,.26.26,0,0,1-.07-.15Z" transform="translate(0.07 0.15)"/>
    <path class="cls-2" d="M21.33,25.91a.29.29,0,0,1-.21-.06.34.34,0,0,1-.06-.24V20.93q0-1.87-1-1.87a1.6,1.6,0,0,0-.92.24,1.36,1.36,0,0,0-.52.67v5.65a.32.32,0,0,1-.07.24.3.3,0,0,1-.2.06H17.14a.27.27,0,0,1-.2-.06.38.38,0,0,1-.05-.24V14c0-.2.08-.3.25-.3h1.22c.18,0,.27.1.27.3v4a3,3,0,0,1,.76-.52,1.8,1.8,0,0,1,.78-.2,2.31,2.31,0,0,1,2,.87,4.65,4.65,0,0,1,.65,2.74v4.71a.34.34,0,0,1-.06.24.27.27,0,0,1-.19.06Z" transform="translate(0.07 0.15)"/>
    <path class="cls-2" d="M26.39,25.9a.2.2,0,0,1-.17-.06.41.41,0,0,1,0-.24V14.07a.47.47,0,0,1,0-.24s.08-.06.17-.06H27.7a.22.22,0,0,1,.18.06.41.41,0,0,1,0,.24V25.6a.41.41,0,0,1,0,.24.22.22,0,0,1-.18.06Z" transform="translate(0.07 0.15)"/>
    <path class="cls-2" d="M35,22.06a.62.62,0,0,1-.07.27.24.24,0,0,1-.22.09H30.55a2.31,2.31,0,0,0,.57,1.46,1.64,1.64,0,0,0,1.12.5,2.79,2.79,0,0,0,1.07-.13,3.75,3.75,0,0,0,.88-.46q.19-.13.25-.07s.07.14.07.31v1.11a.5.5,0,0,1,0,.22.71.71,0,0,1-.15.16,2.63,2.63,0,0,1-1,.44,4.82,4.82,0,0,1-1.16.15A3.07,3.07,0,0,1,29.66,25a5,5,0,0,1-.92-3.24,6.75,6.75,0,0,1,.19-1.56,4.4,4.4,0,0,1,.6-1.41,3.51,3.51,0,0,1,1-1A2.54,2.54,0,0,1,32,17.36a2.62,2.62,0,0,1,2.36,1.26A4,4,0,0,1,34.84,20,7.88,7.88,0,0,1,35,21.57Zm-3-3a1,1,0,0,0-.52.15,1.53,1.53,0,0,0-.42.38,2.57,2.57,0,0,0-.31.55,2.31,2.31,0,0,0-.17.65h2.7a2.26,2.26,0,0,0-.09-.61,2.09,2.09,0,0,0-.24-.55,1.35,1.35,0,0,0-.39-.41A1,1,0,0,0,32,19.07Z" transform="translate(0.07 0.15)"/>
    <g>
      <path class="cls-2" d="M23.82,25.91a.2.2,0,0,1-.17-.06.41.41,0,0,1,0-.24v-7.7a.46.46,0,0,1,0-.24s.08-.06.17-.06h1.32a.22.22,0,0,1,.18.06.4.4,0,0,1,0,.24v7.7a.41.41,0,0,1,0,.24.22.22,0,0,1-.18.06Z" transform="translate(0.07 0.15)"/>
      <rect class="cls-2" x="23.69" y="14.49" width="1.73" height="1.73" rx="0.26" ry="0.26"/>
    </g>
  </g>
</svg>
