<svg id="레이어_1" data-name="레이어 1" xmlns="http://www.w3.org/2000/svg" width="60" height="60" viewBox="0 0 60 60"><defs><style>.cls-1{fill:#c8c8c8;stroke:#c8c8c8;stroke-miterlimit:10;stroke-width:1.4px;}.cls-2{fill:#a0a0a0;}</style></defs><title>display</title><rect class="cls-1" x="0.7" y="0.7" width="58.6" height="58.6" rx="9" ry="9"/><path class="cls-2" d="M49.38,11.36H10.63A2.15,2.15,0,0,0,8.47,13.5h0v28a2.15,2.15,0,0,0,2.15,2.15H49.38a2.15,2.15,0,0,0,2.16-2.14s0,0,0,0v-28a2.15,2.15,0,0,0-2.16-2.14h0ZM48.54,39.5h-37V13.84h37V39.5Z" transform="translate(0 0)"/><path class="cls-2" d="M39.7,46.66H20.3a2,2,0,0,0-2,2H41.6A2,2,0,0,0,39.7,46.66Z" transform="translate(0 0)"/><rect class="cls-2" x="29.04" y="43.65" width="1.87" height="3.04"/></svg>