<svg id="레이어_1" data-name="레이어 1" xmlns="http://www.w3.org/2000/svg" width="60" height="60" viewBox="0 0 60 60"><defs><style>.cls-1{fill:#c8c8c8;stroke:#c8c8c8;stroke-miterlimit:10;stroke-width:1.4px;}.cls-2{fill:#a0a0a0;}.cls-3{fill:none;}</style></defs><title>environment</title><rect class="cls-1" x="0.7" y="0.7" width="58.6" height="58.6" rx="9" ry="9"/><path class="cls-2" d="M31.56,21.58h0c0.49-5,6.4-13,6.4-13s5.91,7.95,6.4,13h0a6.14,6.14,0,0,1,0,.64,6.44,6.44,0,0,1-12.88,0A4.48,4.48,0,0,0,31.56,21.58Z" transform="translate(0 0)"/><path class="cls-2" d="M15.6,38.29v-19h4.61v19A5.8,5.8,0,1,1,15.6,38.29Z" transform="translate(0 0)"/><path class="cls-2" d="M31.21,40.91a6.68,6.68,0,0,0,6.68,6.67V34.24a6.67,6.67,0,0,0-6.68,6.66h0Z" transform="translate(0 0)"/><path class="cls-2" d="M44.53,40.91a6.67,6.67,0,0,0-6.67-6.67h0V47.59a6.67,6.67,0,0,0,6.67-6.67h0Z" transform="translate(0 0)"/><path class="cls-2" d="M49.48,40.48H46.65a0.43,0.43,0,0,0-.43.43h0a0.43,0.43,0,0,0,.43.43h2.83a0.43,0.43,0,0,0,.43-0.43h0A0.43,0.43,0,0,0,49.48,40.48Z" transform="translate(0 0)"/><path class="cls-2" d="M48.14,46.35l-2.45-1.41a0.43,0.43,0,0,0-.59.16h0a0.43,0.43,0,0,0,.16.59h0l2.45,1.43A0.43,0.43,0,0,0,48.3,47h0a0.43,0.43,0,0,0-.13-0.59Z" transform="translate(0 0)"/><path class="cls-2" d="M44,50.77l-1.41-2.45a0.43,0.43,0,0,0-.57-0.22l0,0h0a0.43,0.43,0,0,0-.16.59h0l1.41,2.45a0.43,0.43,0,0,0,.59.16h0A0.43,0.43,0,0,0,44,50.77Z" transform="translate(0 0)"/><path class="cls-2" d="M47.71,34.72l-2.5,1.4a0.43,0.43,0,0,0-.16.59h0a0.43,0.43,0,0,0,.59.16h0l2.45-1.41a0.43,0.43,0,0,0,.16-0.59h0A0.43,0.43,0,0,0,47.71,34.72Z" transform="translate(0 0)"/><path class="cls-2" d="M43.29,30.62l-1.41,2.5a0.43,0.43,0,0,0,.16.59h0a0.43,0.43,0,0,0,.59-0.16h0L44,31.1a0.43,0.43,0,0,0-.16-0.59h0A0.43,0.43,0,0,0,43.29,30.62Z" transform="translate(0 0)"/><line class="cls-3" x1="37.86" y1="40.91" x2="39.9" y2="39.69"/><path class="cls-2" d="M22.21,37.12V12.94a4.35,4.35,0,0,0-4.35-4.35h0a4.35,4.35,0,0,0-4.33,4.35V37.12A7.81,7.81,0,1,0,22.21,37.12ZM17.89,50.41a6.81,6.81,0,0,1-3.35-12.73V12.92a3.34,3.34,0,0,1,3.34-3.34h0a3.34,3.34,0,0,1,3.33,3.34V37.68A6.81,6.81,0,0,1,17.89,50.41Z" transform="translate(0 0)"/></svg>