<svg id="레이어_1" data-name="레이어 1" xmlns="http://www.w3.org/2000/svg" width="60" height="60" viewBox="0 0 60 60"><defs><style>.cls-1{fill:#c8c8c8;stroke:#c8c8c8;stroke-miterlimit:10;stroke-width:1.4px;}.cls-2{fill:#a0a0a0;}</style></defs><title>gyro</title><rect class="cls-1" x="0.7" y="0.7" width="58.6" height="58.6" rx="9" ry="9"/><polygon class="cls-2" points="30 34.32 18.75 27.59 17.97 28.04 17.97 41.94 30 48.88 42.03 41.94 42.03 28.04 41.89 27.96 30 34.32"/><path class="cls-2" d="M46.53,43.89l-3-1.75a2.27,2.27,0,0,0,0-.39v-13a2.31,2.31,0,0,0-1.15-2l-11.27-6.5h0V16.38a1.12,1.12,0,0,0-1.11-1.13H30a1.12,1.12,0,0,0-1.12,1.12h0v3.86h0l-11.27,6.5a2.31,2.31,0,0,0-1.15,2v13a2.27,2.27,0,0,0,.05.39l-3,1.76A1.12,1.12,0,0,0,14.6,45.8l3.31-1.91L28.84,50.2a2.31,2.31,0,0,0,2.31,0L42.1,43.89l3.32,1.92A1.12,1.12,0,1,0,46.53,43.89ZM28.88,47.16a0.45,0.45,0,0,1-.67.39L19,42.26a0.45,0.45,0,0,1-.23-0.37V30.07a0.45,0.45,0,0,1,.67-0.39L28.65,35a0.45,0.45,0,0,1,.23.39v11.8Zm0.9-14.27-8.68-5a0.44,0.44,0,0,1,0-.77l8.72-5a0.44,0.44,0,0,1,.44,0l8.72,5a0.44,0.44,0,0,1,0,.77l-8.73,5A0.44,0.44,0,0,1,29.78,32.89ZM41.1,42.26l-9.3,5.29a0.45,0.45,0,0,1-.7-0.39V35.36A0.45,0.45,0,0,1,31.33,35l9.26-5.29a0.45,0.45,0,0,1,.67.39V41.89A0.45,0.45,0,0,1,41.1,42.26Z" transform="translate(0 0)"/><path class="cls-2" d="M11.26,49.89H8.76l3-3a0.66,0.66,0,0,0-.47-1.13H7.19a0.66,0.66,0,1,0,0,1.32h2.5l-3,3a0.65,0.65,0,0,0,.21,1.09h4.34A0.66,0.66,0,0,0,11.26,49.89Z" transform="translate(0 0)"/><path class="cls-2" d="M51.73,48.52l1.58-1.58A0.66,0.66,0,0,0,52.37,46h0L50.8,47.58,49.22,46a0.66,0.66,0,0,0-.94.94l1.58,1.58L48.28,50.1a0.66,0.66,0,0,0,.94.94h0l1.58-1.58L52.38,51a0.66,0.66,0,0,0,.94-0.94h0Z" transform="translate(0 0)"/><path class="cls-2" d="M32.52,9a0.66,0.66,0,0,0-.93,0h0L30,10.55,28.42,9a0.66,0.66,0,0,0-.93,0h0a0.66,0.66,0,0,0,0,.93h0l1.85,1.85v1.78a0.66,0.66,0,1,0,1.32,0V11.76l1.87-1.87A0.66,0.66,0,0,0,32.52,9Z" transform="translate(0 0)"/></svg>