<svg id="레이어_1" data-name="레이어 1" xmlns="http://www.w3.org/2000/svg" width="60" height="60" viewBox="0 0 60 60"><defs><style>.cls-1{fill:#c8c8c8;stroke:#c8c8c8;stroke-miterlimit:10;stroke-width:1.4px;}.cls-2{fill:#a0a0a0;}</style></defs><title>ir</title><rect class="cls-1" x="0.7" y="0.7" width="58.6" height="58.6" rx="9" ry="9"/><path class="cls-2" d="M22.45,18.17H8.52v23.7H22.45a0.93,0.93,0,0,0,.93-0.93s0,0,0-.07V19.1A0.93,0.93,0,0,0,22.45,18.17Z" transform="translate(0 0)"/><path class="cls-2" d="M23.36,32.12v5.83A2.92,2.92,0,0,0,23.36,32.12Z" transform="translate(0 0)"/><path class="cls-2" d="M23.36,22v5.82A2.92,2.92,0,0,0,23.36,22Z" transform="translate(0 0)"/><circle class="cls-2" cx="28.58" cy="24.39" r="0.64" transform="translate(-3.08 44.63) rotate(-73.07)"/><circle class="cls-2" cx="30.73" cy="25.03" r="0.64" transform="translate(-2.21 47.08) rotate(-72.97)"/><circle class="cls-2" cx="32.88" cy="25.7" r="0.64" transform="translate(-1.29 49.67) rotate(-73.06)"/><circle class="cls-2" cx="35.04" cy="26.36" r="0.64" transform="translate(-0.38 52.2) rotate(-73.06)"/><circle class="cls-2" cx="37.19" cy="27.01" r="0.64" transform="translate(0.49 54.67) rotate(-72.99)"/><circle class="cls-2" cx="39.34" cy="27.67" r="0.64" transform="translate(1.41 57.24) rotate(-73.05)"/><circle class="cls-2" cx="41.5" cy="28.21" r="0.64" transform="translate(2.49 59.78) rotate(-73.19)"/><circle class="cls-2" cx="43.65" cy="28.98" r="0.64" transform="translate(3.19 62.26) rotate(-73.02)"/><circle class="cls-2" cx="45.8" cy="29.63" r="0.64" transform="translate(4.12 64.83) rotate(-73.08)"/><circle class="cls-2" cx="47.95" cy="30.29" r="0.64" transform="translate(-6.7 15.14) rotate(-16.79)"/><circle class="cls-2" cx="45.8" cy="30.95" r="0.64" transform="translate(-7.04 14.72) rotate(-16.98)"/><circle class="cls-2" cx="43.65" cy="31.6" r="0.64" transform="translate(-7.32 14.12) rotate(-16.97)"/><circle class="cls-2" cx="41.49" cy="32.26" r="0.64" transform="translate(-7.6 13.5) rotate(-16.95)"/><circle class="cls-2" cx="39.35" cy="32.92" r="0.64" transform="translate(-7.89 12.92) rotate(-16.97)"/><circle class="cls-2" cx="37.19" cy="33.57" r="0.64" transform="translate(-8.18 12.32) rotate(-16.97)"/><circle class="cls-2" cx="35.03" cy="34.22" r="0.64" transform="translate(-8.45 11.69) rotate(-16.94)"/><polygon class="cls-2" points="33.2 34.87 33.68 36.25 31.64 36.19 29.6 36.12 31.16 34.8 32.72 33.48 33.2 34.87"/><path class="cls-2" d="M51.48,36.67a0.83,0.83,0,0,1-.83.83h0a0.83,0.83,0,0,1-.83-0.83h0V23.33a0.83,0.83,0,0,1,.83-0.83h0a0.83,0.83,0,0,1,.83.83h0V36.67Z" transform="translate(0 0)"/></svg>