<svg id="레이어_1" data-name="레이어 1" xmlns="http://www.w3.org/2000/svg" width="60" height="60" viewBox="0 0 60 60"><defs><style>.cls-1{fill:#c8c8c8;stroke:#c8c8c8;stroke-miterlimit:10;stroke-width:1.4px;}.cls-2{fill:#a0a0a0;}</style></defs><title>led</title><rect class="cls-1" x="0.7" y="0.7" width="58.6" height="58.6" rx="9" ry="9"/><rect class="cls-2" x="17.61" y="41.93" width="24.77" height="2.67"/><path class="cls-2" d="M30,16.07h0a1,1,0,0,1-1-1V9.38a1,1,0,0,1,1-1h0a1,1,0,0,1,1,1v5.73A1,1,0,0,1,30,16.07Z" transform="translate(0 0)"/><path class="cls-2" d="M23.31,17.86h0A1,1,0,0,1,22,17.51l-2.86-5a1,1,0,0,1,.35-1.27h0a1,1,0,0,1,1.31.35l2.86,5A1,1,0,0,1,23.31,17.86Z" transform="translate(0 0)"/><path class="cls-2" d="M18.42,22.76h0a1,1,0,0,1-1.31.35l-5-2.86a1,1,0,0,1-.35-1.31h0a1,1,0,0,1,1.34-.35l5,2.86A1,1,0,0,1,18.42,22.76Z" transform="translate(0 0)"/><path class="cls-2" d="M41.6,22.76h0a1,1,0,0,1,.35-1.31l5-2.86a1,1,0,0,1,1.31.35h0a1,1,0,0,1-.35,1.31l-5,2.86A1,1,0,0,1,41.6,22.76Z" transform="translate(0 0)"/><path class="cls-2" d="M36.69,17.86h0a1,1,0,0,1-.35-1.31l2.86-5a1,1,0,0,1,1.31-.31h0a1,1,0,0,1,.35,1.31l-2.86,5A1,1,0,0,1,36.69,17.86Z" transform="translate(0 0)"/><path class="cls-2" d="M23.33,45.6v4.78a1.19,1.19,0,0,0,2.39,0V45.6H23.33Z" transform="translate(0 0)"/><path class="cls-2" d="M34.28,45.6v4.78a1.19,1.19,0,0,0,2.39,0V45.6H34.28Z" transform="translate(0 0)"/><path class="cls-2" d="M40.6,40.93V29.55a10.59,10.59,0,1,0-21.17,0V40.93H40.6Z" transform="translate(0 0)"/></svg>