<svg id="레이어_1" data-name="레이어 1" xmlns="http://www.w3.org/2000/svg" width="60" height="60" viewBox="0 0 60 60"><defs><style>.cls-1{fill:#c8c8c8;stroke:#c8c8c8;stroke-miterlimit:10;stroke-width:1.4px;}.cls-2{fill:#a0a0a0;}</style></defs><title>mic</title><rect class="cls-1" x="0.7" y="0.7" width="58.6" height="58.6" rx="9" ry="9"/><path class="cls-2" d="M39,18.69v-1.1a9,9,0,0,0-18,0v1.1h7.86v2.22H21v2.58h7.8v2.23H21V28.3h7.8v2.22H21v2.55h7.8v2.22H21v1.1a9,9,0,0,0,18,0v-1.1H31.15V33.07H39V30.52H31.15V28.3H39V25.72H31.15V23.49H39V20.91H31.15V18.69H39Z" transform="translate(0 0)"/><path class="cls-2" d="M41.18,35.33v1.36a11.18,11.18,0,1,1-22.36,0h0V35.33H15.5V36.9a14.5,14.5,0,0,0,29,0V35.33H41.18Z" transform="translate(0 0)"/></svg>