<svg id="레이어_1" data-name="레이어 1" xmlns="http://www.w3.org/2000/svg" width="60" height="60" viewBox="0 0 60 60"><defs><style>.cls-1{fill:#c8c8c8;stroke:#c8c8c8;stroke-miterlimit:10;stroke-width:1.4px;}.cls-2{fill:#a0a0a0;}</style></defs><title>network</title><rect class="cls-1" x="0.7" y="0.7" width="58.6" height="58.6" rx="9" ry="9"/><path class="cls-2" d="M30,22.93a3.21,3.21,0,0,0-1.24,6.18V47.69h2.47V29.15A3.21,3.21,0,0,0,30,22.93Z" transform="translate(0 0)"/><path class="cls-2" d="M46.37,25.46V25.32a10,10,0,0,0-.14-1.47V23.77q-0.11-.76-0.29-1.49V22.21q-0.21-.72-0.45-1.41l-0.06-.16c-0.07-.21-0.15-0.42-0.21-0.63l-0.1-.19-0.19-.43-0.13-.28c-0.08-.18-0.16-0.33-0.24-0.49l-0.18-.35-0.16-.21c-0.13-.23-0.26-0.45-0.4-0.67l-0.06-.1-0.23-.36V16.86L43,16.13,42.88,16c-0.18-.23-0.37-0.45-0.56-0.67V15.28L42,14.93l-0.13-.13-0.29-.31-0.23-.21-0.18-.17-0.52-.47-0.19-.16-0.33-.27-0.34-.28-0.41-.3-0.25-.18-0.25-.17h0l-0.06.1L37.73,14h0a14.42,14.42,0,0,1,1.4,1l0.09,0.09,0.58,0.51,0,0.08,0.55,0.55v0A14.44,14.44,0,0,1,42,18.39h0a6.88,6.88,0,0,1,.48.74l0,0.1q0.2,0.35.36,0.69V20a2.76,2.76,0,0,1,.39.79h0q0.14,0.35.26,0.71l0.09,0.27,0.15,0.52a1.67,1.67,0,0,0,.08.3c0,0.1.1,0.39,0.14,0.59l0,0.27a4.51,4.51,0,0,0,.12.72v0.3a2.13,2.13,0,0,0,0,.56,0.5,0.5,0,0,1,0,.28v2a2.49,2.49,0,0,1,0,.56v0.3a4.2,4.2,0,0,1-.11.71,0.5,0.5,0,0,1-.06.28,3.68,3.68,0,0,0-.13.58L43.79,30l-0.15.51-0.09.27c-0.08.23-.16,0.46-0.25,0.69v0.06c-0.11.27-.22,0.53-0.35,0.79v0.08c-0.11.23-.23,0.46-0.35,0.68l-0.06.1c-0.13.23-.27,0.46-0.41,0.68h0A14.33,14.33,0,0,1,40.53,36l0,0.06-0.54.55-0.09.09-0.63.55-0.08.06q-0.32.27-.66,0.52h0c-0.24.18-.48,0.34-0.72,0.5L38.88,40h0l0.27-.19,0.22-.15,0.6-.44,0.14-.11,0.32-.21,0.16-.14,0.54-.48,0.18-.17,0.23-.22,0.29-.3L42,37.48l0.3-.33,0.06-.07,0.55-.66L43,36.3c0.18-.23.34-0.46,0.51-0.69l0-.07,0.26-.39,0.06-.1c0.14-.22.27-0.45,0.4-0.67l0.12-.21,0.18-.35c0.09-.16.17-0.33,0.25-0.49l0.14-.4,0.18-.43,0.11-.14,0.24-.63,0.06-.16q0.24-.69.42-1.41V30.08q0.17-.73.29-1.48V28.52c0.07-.48.12-1,0.14-1.47V26.18C46.37,25.94,46.38,25.7,46.37,25.46Z" transform="translate(0 0)"/><path class="cls-2" d="M38.16,26.18a8.22,8.22,0,0,0-3.76-6.9L33.28,21a6.16,6.16,0,0,1,0,10.35l1.12,1.73A8.22,8.22,0,0,0,38.16,26.18Z" transform="translate(0 0)"/><path class="cls-2" d="M42.22,26.18a12.38,12.38,0,0,0-5.66-10.4l-1.08,1.74a10.32,10.32,0,0,1,0,17.33l1.12,1.73A12.38,12.38,0,0,0,42.22,26.18Z" transform="translate(0 0)"/><path class="cls-2" d="M20.77,37.18c-0.2-.16-0.39-0.34-0.57-0.51l-0.08-.08L19.57,36v0a14.33,14.33,0,0,1-1.65-2.06h0c-0.14-.22-0.28-0.45-0.41-0.69l-0.05-.1c-0.15-.21-0.24-0.48-0.38-0.72V32.35c-0.12-.26-0.24-0.52-0.35-0.79h0l-0.26-.7-0.09-.26A1.41,1.41,0,0,1,16.22,30l-0.12-.3C16,29.53,16,29.34,16,29.14l-0.06-.26q-0.06-.36-0.11-0.72v-0.3a2.49,2.49,0,0,0-.05-0.56V25.08a2.53,2.53,0,0,1,.05-0.56,0.58,0.58,0,0,0,0-.3c0-.1.07-0.47,0.11-0.71A0.47,0.47,0,0,1,16,23.23a3.68,3.68,0,0,0,.13-0.58,1,1,0,0,1,.12-0.32,3.54,3.54,0,0,0,.15-0.51l0.05-.27c0.08-.23.16-0.46,0.25-0.69V20.8c0.14-.26.25-0.52,0.38-0.78V19.94q0.17-.35.35-0.68l0.06-.11c0.13-.23.26-0.46,0.4-0.68h0a14.47,14.47,0,0,1,1.66-2.09l0.05-.06c0.18-.19.35-0.37,0.54-0.54l0.11-.09,0.56-.5,0.07-.06c0.21-.18.43-0.35,0.66-0.52h0c0.23-.17.48-0.34,0.72-0.5l-1.12-1.74h0l-0.28.19-0.21.15-0.6.44-0.14.11-0.35.28-0.16.14-0.54.48-0.18.17-0.23.22-0.29.3L18,15l-0.3.33-0.06.07q-0.28.33-.54,0.66l-0.1.12c-0.17.22-.34,0.46-0.5,0.69l0,0.07-0.23.39-0.06.1c-0.14.22-.27,0.44-0.4,0.67l-0.12.21-0.19.35a0.83,0.83,0,0,0-.23.49l-0.16.28-0.19.43L14.79,20c-0.08.2-.16,0.41-0.23,0.62l-0.06.16c-0.16.46-.28,0.93-0.42,1.41V22.3c-0.12.48-.21,1-0.29,1.48v0.08c-0.07.48-.12,1-0.14,1.46V27a9.9,9.9,0,0,0,.14,1.46v0.08a14.34,14.34,0,0,0,.29,1.48v0.07q0.18,0.71.41,1.41l0.06,0.16c0.08,0.23.16,0.43,0.24,0.63l0.08,0.19,0.19,0.41,0.16,0.29,0.24,0.49L15.65,34l0.12,0.21c0.13,0.23.26,0.45,0.4,0.67L16.22,35l0.26,0.39V35.5L17,36.19l0.09,0.12c0.18,0.23.37,0.45,0.56,0.67V37l0.3,0.34,0.13,0.13,0.29,0.31L18.58,38l0.18,0.17,0.52,0.46,0.19,0.16L19.8,39.1l0.42,0.26,0.41,0.29,0.25,0.17L21.13,40h0l0.09-.06,1-1.66h0a14.66,14.66,0,0,1-1.39-1Z" transform="translate(0 0)"/><path class="cls-2" d="M26.71,21l-1.12-1.73a8.22,8.22,0,0,0,0,13.81l1.12-1.73a6.14,6.14,0,0,1-1.9-8.49A5.81,5.81,0,0,1,26.71,21Z" transform="translate(0 0)"/><path class="cls-2" d="M19.77,26.18a10.28,10.28,0,0,1,4.69-8.63l-1.11-1.72a12.34,12.34,0,0,0,0,20.71l1.12-1.73A10.28,10.28,0,0,1,19.77,26.18Z" transform="translate(0 0)"/></svg>