<svg id="레이어_1" data-name="레이어 1" xmlns="http://www.w3.org/2000/svg" width="60" height="60" viewBox="0 0 60 60"><defs><style>.cls-1{fill:#c8c8c8;stroke:#c8c8c8;stroke-miterlimit:10;stroke-width:1.4px;}.cls-2{fill:#a0a0a0;}</style></defs><title>ultrasonic</title><rect class="cls-1" x="0.7" y="0.7" width="58.6" height="58.6" rx="9" ry="9"/><path class="cls-2" d="M21.69,16.88A13.12,13.12,0,1,0,34.81,30h0A13.12,13.12,0,0,0,21.69,16.88ZM31.44,29h-1.6a8.22,8.22,0,0,0-7.15-7.14v-1.6A9.8,9.8,0,0,1,31.44,29ZM20.69,26.67A3.49,3.49,0,0,0,18.36,29h-2a5.4,5.4,0,0,1,4.3-4.3v2ZM18.36,31a3.49,3.49,0,0,0,2.33,2.33v2a5.4,5.4,0,0,1-4.3-4.3h2Zm4.34,2.33A3.49,3.49,0,0,0,25,31h2a5.4,5.4,0,0,1-4.3,4.3v-2ZM25,29a3.48,3.48,0,0,0-2.34-2.34v-2a5.4,5.4,0,0,1,4.3,4.3H25Zm-4.35-8.74v1.6A8.21,8.21,0,0,0,13.55,29h-1.6A9.81,9.81,0,0,1,20.69,20.25ZM11.94,31h1.6a8.21,8.21,0,0,0,7.15,7.18v1.6A9.8,9.8,0,0,1,11.94,31Zm10.75,8.75V38.18A8.21,8.21,0,0,0,29.84,31h1.6A9.8,9.8,0,0,1,22.69,39.75Z" transform="translate(0 0)"/><path class="cls-2" d="M36.83,26.3l1.85-1.85a7.85,7.85,0,0,1,0,11.1L36.83,33.7a5.23,5.23,0,0,0,0-7.4h0Z" transform="translate(0 0)"/><path class="cls-2" d="M42.37,39.25L40.52,37.4a10.46,10.46,0,0,0,0-14.79h0l1.85-1.85a13.08,13.08,0,0,1,0,18.5h0Z" transform="translate(0 0)"/><path class="cls-2" d="M44.22,41.1l1.86,1.85a18.31,18.31,0,0,0,0-25.89l-1.86,1.85a15.69,15.69,0,0,1,0,22.19h0Z" transform="translate(0 0)"/></svg>