<svg id="레이어_1" data-name="레이어 1" xmlns="http://www.w3.org/2000/svg" width="60" height="60" viewBox="0 0 60 60"><defs><style>.cls-1{fill:#c8c8c8;stroke:#c8c8c8;stroke-miterlimit:10;stroke-width:1.4px;}.cls-2{fill:#a0a0a0;}</style></defs><title>volume</title><rect class="cls-1" x="0.7" y="0.7" width="58.6" height="58.6" rx="9" ry="9"/><path class="cls-2" d="M30,11.62h0a1,1,0,0,0-1,1v3.09a1,1,0,0,0,1,1h0a1,1,0,0,0,1-1V12.57A1,1,0,0,0,30,11.62Z" transform="translate(0 0)"/><path class="cls-2" d="M15.67,16.8h0a1,1,0,0,0-.12,1.35l2,2.37a1,1,0,0,0,1.35.12h0A1,1,0,0,0,19,19.29l-2-2.37A1,1,0,0,0,15.67,16.8Z" transform="translate(0 0)"/><path class="cls-2" d="M8,30.07H8a1,1,0,0,0,.78,1.11l3,0.54a1,1,0,0,0,1.11-.78h0a1,1,0,0,0-.74-1.14l-3-.54A1,1,0,0,0,8,30.07Z" transform="translate(0 0)"/><path class="cls-2" d="M10.67,45.11h0a1,1,0,0,0,1.31.35l2.69-1.54A1,1,0,0,0,15,42.61h0a1,1,0,0,0-1.35-.35L11,43.8A1,1,0,0,0,10.67,45.11Z" transform="translate(0 0)"/><path class="cls-2" d="M49.34,45.11h0A1,1,0,0,0,49,43.8l-2.67-1.54a1,1,0,0,0-1.31.35h0a1,1,0,0,0,.35,1.31L48,45.46A1,1,0,0,0,49.34,45.11Z" transform="translate(0 0)"/><path class="cls-2" d="M52,30.07h0a1,1,0,0,0-1.11-.78l-3,.54a1,1,0,0,0-.78,1.11h0a1,1,0,0,0,1.11.78l3-.54A1,1,0,0,0,52,30.07Z" transform="translate(0 0)"/><path class="cls-2" d="M44.36,16.8h0a1,1,0,0,0-1.35.12l-2,2.37a1,1,0,0,0,.12,1.35h0a1,1,0,0,0,1.35-.12l2-2.37A1,1,0,0,0,44.36,16.8Z" transform="translate(0 0)"/><path class="cls-2" d="M30,19.51A14.43,14.43,0,1,0,44.44,33.95,14.43,14.43,0,0,0,30,19.51h0ZM24.19,29a2.67,2.67,0,1,1,2.68-2.67A2.67,2.67,0,0,1,24.19,29h0Z" transform="translate(0 0)"/></svg>