<svg id="레이어_1" data-name="레이어 1" xmlns="http://www.w3.org/2000/svg" width="54" height="54" viewBox="0 0 54 54"><defs><style>.cls-1{fill:#fff;opacity:0;}.cls-2{fill:#414141;}.cls-3{fill:#939393;}.cls-4{fill:#26cad3;}</style></defs><title>module box</title><rect class="cls-1" width="54" height="54"/><polygon class="cls-2" points="33.18 24.27 20.82 24.27 18.77 26.98 35.23 26.98 33.18 24.27"/><path class="cls-3" d="M-10.9,18.83a0.51,0.51,0,0,0-.4,0l-3,1.08h0a0.29,0.29,0,0,0,0,.5l4,2.41,2-2.72Z" transform="translate(29.08 4.16)"/><path class="cls-3" d="M6.75,18.83a0.51,0.51,0,0,1,.4,0l3,1.08h0a0.29,0.29,0,0,1,0,.5l-4,2.41L4.11,20.11Z" transform="translate(29.08 4.16)"/><path class="cls-3" d="M-10.31,22.82V33a0.82,0.82,0,0,0,.82.82H5.33A0.82,0.82,0,0,0,6.16,33V22.82H-10.31Z" transform="translate(29.08 4.16)"/><rect class="cls-4" x="-0.73" y="14.76" width="3.68" height="3.68" transform="translate(15.91 12.22) rotate(-55.28)"/><rect class="cls-4" x="23.28" y="15.99" width="3.68" height="3.68"/><rect class="cls-4" x="-5.15" y="18.47" width="3.96" height="3.96" transform="translate(18.74 5.19) rotate(-29.07)"/></svg>