<svg id="레이어_1" data-name="레이어 1" xmlns="http://www.w3.org/2000/svg" width="54" height="54" viewBox="0 0 54 54"><defs><style>.cls-1{fill:#fff;opacity:0;}.cls-2{fill:#dff5f5;}.cls-3{fill:#96e0e4;}.cls-4{fill:#26cad3;}</style></defs><title>moduleBoxOn</title><rect class="cls-1" width="54" height="54"/><polygon class="cls-2" points="33.18 24.27 20.82 24.27 18.77 26.98 35.23 26.98 33.18 24.27"/><path class="cls-3" d="M18.18,23a0.51,0.51,0,0,0-.4,0l-3,1.08h0a0.29,0.29,0,0,0,0,.5l4,2.41,2-2.72Z" transform="translate(0)"/><path class="cls-3" d="M35.83,23a0.51,0.51,0,0,1,.4,0l3,1.08h0a0.29,0.29,0,0,1,0,.5l-4,2.41-2.05-2.72Z" transform="translate(0)"/><path class="cls-3" d="M18.77,27v10.2a0.82,0.82,0,0,0,.82.82H34.41a0.82,0.82,0,0,0,.82-0.82V27H18.77Z" transform="translate(0)"/><rect class="cls-4" x="28.35" y="18.92" width="3.68" height="3.68" transform="translate(-4.07 33.75) rotate(-55.28)"/><rect class="cls-4" x="23.28" y="15.99" width="3.68" height="3.68"/><rect class="cls-4" x="23.92" y="22.63" width="3.96" height="3.96" transform="translate(-8.69 15.69) rotate(-29.07)"/></svg>