<svg id="레이어_1" data-name="레이어 1" xmlns="http://www.w3.org/2000/svg" viewBox="0 0 49.51 20"><defs><style>.cls-1{fill:#fff;opacity:0;}.cls-2{fill:#a7a7a7;}</style></defs><title>always</title><rect class="cls-1" width="49.51" height="20"/><path class="cls-2" d="M-143.88-15.48a4,4,0,0,0-4,4,4,4,0,0,0,4,4,4,4,0,0,0,1.82-.44v0.45h2.17v-4a4,4,0,0,0-4-4h0Zm0,5.83a1.83,1.83,0,0,1-1.83-1.83,1.83,1.83,0,0,1,1.83-1.83,1.83,1.83,0,0,1,1.83,1.83,1.83,1.83,0,0,1-1.83,1.83h0Z" transform="translate(147.88 22)"/><path class="cls-2" d="M-120.37-15.48a4,4,0,0,0-4,4,4,4,0,0,0,4,4,4,4,0,0,0,1.82-.44v0.45h2.17v-4a4,4,0,0,0-4-4h0Zm0,5.83a1.83,1.83,0,0,1-1.83-1.83,1.83,1.83,0,0,1,1.83-1.83,1.83,1.83,0,0,1,1.83,1.83,1.83,1.83,0,0,1-1.83,1.83h0Z" transform="translate(147.88 22)"/><path class="cls-2" d="M-136.79-11.44v-9.42h-2.13v9.42a3.92,3.92,0,0,0,4,4V-9.6A1.84,1.84,0,0,1-136.79-11.44Z" transform="translate(147.88 22)"/><path class="cls-2" d="M-109.55-15.08v3.6h0a1.92,1.92,0,0,1-1.85,1.85,1.92,1.92,0,0,1-1.85-1.85v-4h-2.14v4h0a4,4,0,0,0,4,4A4,4,0,0,0-109.55-8v1.36h0a1.85,1.85,0,0,1-1.85,1.85v2.24a4,4,0,0,0,4-4v-5h0v-4h-2.14v0.39Z" transform="translate(147.88 22)"/><path class="cls-2" d="M-127.35-15.47v5.27a0.63,0.63,0,0,1-.59.59,0.63,0.63,0,0,1-.59-0.59v-5.27h-2.15v5.27a0.63,0.63,0,0,1-.59.59,0.63,0.63,0,0,1-.59-0.59v-5.27H-134v5.27h0a2.79,2.79,0,0,0,2.73,2.73,2.29,2.29,0,0,0,1.66-.59,2.65,2.65,0,0,0,1.66.59,2.73,2.73,0,0,0,2.73-2.73h0v-5.27h-2.15Z" transform="translate(147.88 22)"/><path class="cls-2" d="M-100.88-12.47h-3a0.46,0.46,0,0,1-.48-0.48,0.46,0.46,0,0,1,.48-0.48h4.74v-2H-104A2.56,2.56,0,0,0-106.49-13,2.56,2.56,0,0,0-104-10.44h3a0.46,0.46,0,0,1,.48.48,0.46,0.46,0,0,1-.48.48h-4.74v2h4.84A2.56,2.56,0,0,0-98.36-10,2.5,2.5,0,0,0-100.88-12.47Z" transform="translate(147.88 22)"/></svg>