<svg id="레이어_1" data-name="레이어 1" xmlns="http://www.w3.org/2000/svg" width="71.04" height="55" viewBox="0 0 71.04 55">
  <defs>
    <style>
      .cls-1, .cls-2 {
        fill: #fff;
      }

      .cls-2, .cls-3 {
        stroke: #bcbcbc;
        stroke-miterlimit: 10;
      }

      .cls-3 {
        fill: none;
      }

      .cls-4 {
        fill: #9e9e9f;
      }
    </style>
  </defs>
  <title>and</title>
  <rect class="cls-1" width="71.04" height="55"/>
  <path class="cls-2" d="M17.08,27.5h0C10.71,15.34,4.21,3,3.74,2.11A3.68,3.68,0,0,0,.61.5" transform="translate(0 0)"/>
  <path class="cls-2" d="M17.12,27.5h0C23.5,39.66,30,52,30.47,52.89A3.68,3.68,0,0,0,33.6,54.5" transform="translate(0 0)"/>
  <path class="cls-2" d="M17.12,27.5h0C23.5,15.34,30,3,30.47,2.11A3.68,3.68,0,0,1,33.6.5" transform="translate(0 0)"/>
  <path class="cls-2" d="M17.08,27.5h0C10.71,39.66,4.21,52,3.74,52.89A3.68,3.68,0,0,1,.61,54.5" transform="translate(0 0)"/>
  <line class="cls-3" x1="0.74" y1="0.5" y2="0.5"/>
  <line class="cls-3" x1="0.74" y1="54.5" y2="54.5"/>
  <line class="cls-3" x1="71.04" y1="54.5" x2="33.17" y2="54.5"/>
  <line class="cls-3" x1="71.04" y1="0.5" x2="33.17" y2="0.5"/>
  <g>
    <path class="cls-4" d="M45.22,31.65a.26.26,0,0,1-.14,0s0-.06,0-.14V31a1.6,1.6,0,0,1-.67.55,2.06,2.06,0,0,1-.92.23,3.26,3.26,0,0,1-.95-.14,1.76,1.76,0,0,1-.75-.43,2.1,2.1,0,0,1-.46-.71,2.48,2.48,0,0,1-.17-.94,2.17,2.17,0,0,1,1.1-1.91,3.78,3.78,0,0,1,1.18-.41,6.32,6.32,0,0,1,1.51-.08q-.07-.95-.82-1a2,2,0,0,0-.49,0,2.77,2.77,0,0,0-.48.11,4.06,4.06,0,0,0-.45.18,3.54,3.54,0,0,0-.38.21.82.82,0,0,1-.36.17c-.07,0-.11-.08-.11-.24v-1a.58.58,0,0,1,0-.22.36.36,0,0,1,.17-.14,5.94,5.94,0,0,1,.85-.34A3.76,3.76,0,0,1,44,24.67a2.44,2.44,0,0,1,1.83.62,2.68,2.68,0,0,1,.61,1.93v3.08q0,.19,0,.38v.37c0,.12,0,.22,0,.31s0,.25,0,.26a.42.42,0,0,1-.17,0Zm-.17-3.31a6.43,6.43,0,0,0-1.13.1,2.42,2.42,0,0,0-.71.25.84.84,0,0,0-.37.37,1.16,1.16,0,0,0-.1.48.77.77,0,0,0,.23.59.9.9,0,0,0,.64.21,1.28,1.28,0,0,0,1-.47A2.45,2.45,0,0,0,45.05,28.33Z" transform="translate(0 0)"/>
    <path class="cls-4" d="M49.78,31.38a.27.27,0,0,1,0,.19.25.25,0,0,1-.18,0H48.44a.24.24,0,0,1-.19-.06.3.3,0,0,1,0-.19V26.68q0-.46,0-.92a4.86,4.86,0,0,0,0-.71c0-.09,0-.14,0-.17a.42.42,0,0,1,.22,0h1.14a.37.37,0,0,1,.17,0s0,.06,0,.13v.46a2.71,2.71,0,0,1,.65-.49,1.68,1.68,0,0,1,.82-.22,2.14,2.14,0,0,1,1.76.68,3.09,3.09,0,0,1,.56,2v4a.27.27,0,0,1,0,.19.25.25,0,0,1-.18,0H52.2c-.16,0-.24-.08-.24-.25V27.66q0-1.45-.88-1.45a1.21,1.21,0,0,0-1,.4,1.58,1.58,0,0,0-.35,1.08Z" transform="translate(0 0)"/>
    <path class="cls-4" d="M59.43,31a1.37,1.37,0,0,1-.26.26,2.06,2.06,0,0,1-.37.23,2.48,2.48,0,0,1-.41.16,1.6,1.6,0,0,1-.43.06,2.39,2.39,0,0,1-2-1,4.28,4.28,0,0,1-.71-2.62,5.22,5.22,0,0,1,.19-1.47,3.31,3.31,0,0,1,.55-1.11,2.4,2.4,0,0,1,.86-.7A2.63,2.63,0,0,1,58,24.63a1.86,1.86,0,0,1,.79.19,2.08,2.08,0,0,1,.66.47V21.94a.37.37,0,0,1,0-.21s.08,0,.18,0h1.14a.28.28,0,0,1,.18,0,.3.3,0,0,1,0,.21v9.44c0,.11,0,.18-.05.21a.34.34,0,0,1-.2,0H59.63a.24.24,0,0,1-.16,0,.25.25,0,0,1,0-.17Zm-1.3-5a1.12,1.12,0,0,0-1,.5,2.76,2.76,0,0,0-.36,1.58,2.76,2.76,0,0,0,.37,1.63,1.14,1.14,0,0,0,.95.49,1,1,0,0,0,.49-.13,1.21,1.21,0,0,0,.41-.38,2.19,2.19,0,0,0,.29-.66,3.51,3.51,0,0,0,.11-1,3.93,3.93,0,0,0-.1-1,1.88,1.88,0,0,0-.28-.64,1.12,1.12,0,0,0-.42-.36A1.17,1.17,0,0,0,58.13,26.07Z" transform="translate(0 0)"/>
  </g>
</svg>
