<svg id="Layer_1" data-name="Layer 1" xmlns="http://www.w3.org/2000/svg" width="40" height="40" viewBox="0 0 40 40">
  <defs>
    <style>
      .cls-1 {
        fill: #fff;
        fill-opacity: 0;
      }

      .cls-2 {
        fill: #a7a7a7;
      }

      .cls-3 {
        fill: #585858;
      }
    </style>
  </defs>
  <title>boxBreak</title>
  <rect class="cls-1" width="40" height="40"/>
  <g>
    <circle class="cls-2" cx="18.24" cy="11.39" r="2" transform="translate(0.19 23.07) rotate(-64.89)"/>
    <path class="cls-2" d="M23.7,17.5a.86.86,0,0,0-1.1-.6l-2.9.9-.9-2.9v-.1a1.27,1.27,0,0,0-.7-.9L16,13h-.1l-.1-.1L12,12h-.5a.9.9,0,0,0-.6.6L10,16.4a1,1,0,0,0,.6,1.1,1,1,0,0,0,1.1-.6l.7-3,1.7.4-2.5,5.3v.1h0L9.9,23,6.5,21.4a1.05,1.05,0,1,0-.9,1.9l4.3,2a1.11,1.11,0,0,0,1.4-.5l1.5-3.3.7.3L15,29.7a1,1,0,0,0,1.2.8,1,1,0,0,0,.8-1.2l-1.5-7.8h0l1.9-4,.5,1.7a1.38,1.38,0,0,0,.3.4,1.08,1.08,0,0,0,.8.2l3.8-1.2C23.5,18.4,23.8,17.9,23.7,17.5Z"/>
  </g>
  <path class="cls-3" d="M24.5,12.2V27.8a2.65,2.65,0,0,0,2.6,2.6h5.2a2.65,2.65,0,0,0,2.6-2.6V12.2a2.65,2.65,0,0,0-2.6-2.6H27.1A2.65,2.65,0,0,0,24.5,12.2Zm2.1,15.1V20.9h1.6v1.2L29.7,21l1.5-1.1-1.5-1.1-1.5-1.1v1.2H26.6V12.5a1.2,1.2,0,0,1,1.2-1.1h3.7a1.13,1.13,0,0,1,1.2,1.1V27.1a1.2,1.2,0,0,1-1.2,1.1H27.8A.91.91,0,0,1,26.6,27.3Z"/>
</svg>
