<?xml version="1.0" encoding="utf-8"?>
<!-- Generator: Adobe Illustrator 16.0.0, SVG Export Plug-In . SVG Version: 6.00 Build 0)  -->
<!DOCTYPE svg PUBLIC "-//W3C//DTD SVG 1.1//EN" "http://www.w3.org/Graphics/SVG/1.1/DTD/svg11.dtd">
<svg version="1.1" id="Layer_1" xmlns="http://www.w3.org/2000/svg" xmlns:xlink="http://www.w3.org/1999/xlink" x="0px" y="0px"
	 width="40px" height="40px" viewBox="0 0 40 40" enable-background="new 0 0 40 40" xml:space="preserve">
<rect y="0" opacity="0" fill="#FFFFFF" width="40.001" height="40"/>
<g>
	<path fill="#A7A7A7" d="M17.407,27.48c-0.371,0.631-1.187,0.842-1.817,0.47l0,0c-0.634-0.372-0.845-1.187-0.473-1.819l7.461-12.676
		c0.373-0.631,1.188-0.844,1.819-0.471l0,0c0.633,0.371,0.845,1.187,0.472,1.82L17.407,27.48z"/>
	<path fill="#A7A7A7" d="M7.331,20l5.864-5.863c0.521-0.521,0.521-1.366,0.001-1.884s-1.362-0.518-1.881,0L4.519,19.05
		C4.258,19.312,4.128,19.658,4.13,20c-0.002,0.342,0.127,0.688,0.388,0.95l6.796,6.796c0.52,0.521,1.361,0.521,1.881,0
		c0.52-0.52,0.52-1.361-0.001-1.884L7.331,20z"/>
	<path fill="#A7A7A7" d="M32.668,19.977l-5.832,5.894c-0.516,0.521-0.514,1.363,0.009,1.881s1.366,0.513,1.881-0.009l6.761-6.829
		c0.263-0.267,0.39-0.608,0.385-0.952c0.003-0.345-0.128-0.687-0.392-0.948l-6.83-6.762c-0.522-0.52-1.363-0.515-1.881,0.01
		c-0.516,0.52-0.514,1.363,0.01,1.879L32.668,19.977z"/>
</g>
</svg>
