<?xml version="1.0" encoding="utf-8"?>
<!-- Generator: Adobe Illustrator 16.0.0, SVG Export Plug-In . SVG Version: 6.00 Build 0)  -->
<!DOCTYPE svg PUBLIC "-//W3C//DTD SVG 1.1//EN" "http://www.w3.org/Graphics/SVG/1.1/DTD/svg11.dtd">
<svg version="1.1" id="Layer_1" xmlns="http://www.w3.org/2000/svg" xmlns:xlink="http://www.w3.org/1999/xlink" x="0px" y="0px"
	 width="40px" height="40px" viewBox="0 0 40 40" enable-background="new 0 0 40 40" xml:space="preserve">
<rect opacity="0" fill="#FFFFFF" width="40.001" height="40"/>
<g>
	<path fill="#A7A7A7" d="M20.001,5.228c-8.158,0-14.773,6.611-14.773,14.77c0,8.158,6.615,14.773,14.773,14.773
		c8.159,0,14.771-6.615,14.771-14.773C34.772,11.839,28.16,5.228,20.001,5.228z M20.001,31.907c-6.577,0-11.912-5.331-11.912-11.909
		c0-6.578,5.334-11.906,11.912-11.906c6.576,0,11.908,5.328,11.908,11.906C31.909,26.576,26.577,31.907,20.001,31.907z"/>
	<g>
		<path fill="#A7A7A7" d="M20.001,21.595c-0.717,0-1.299-0.583-1.299-1.3l0,0c0-0.716,0.582-1.299,1.299-1.299h3.778
			c0.717,0,1.298,0.583,1.298,1.299l0,0c0,0.717-0.581,1.3-1.298,1.3H20.001z"/>
		<path fill="#A7A7A7" d="M21.298,20.294c0,0.717-0.581,1.3-1.297,1.3l0,0c-0.718,0-1.299-0.583-1.299-1.3V13.41
			c0-0.719,0.581-1.302,1.299-1.302l0,0c0.716,0,1.297,0.583,1.297,1.302V20.294z"/>
	</g>
</g>
</svg>
