<svg id="레이어_1" data-name="레이어 1" xmlns="http://www.w3.org/2000/svg" viewBox="0 0 16 16"><defs><style>.cls-1{fill:#fff;opacity:0;}.cls-2{fill:#bcbcbc;}</style></defs><title>boxExit</title><path class="cls-1" d="M12,16H4a4,4,0,0,1-4-4V4A4,4,0,0,1,4,0h8a4,4,0,0,1,4,4v8A4,4,0,0,1,12,16Z"/><path class="cls-2" d="M9.2,8l3.4-3.4a0.91,0.91,0,0,0,0-1.2,0.91,0.91,0,0,0-1.2,0L8,6.8,4.6,3.4a0.75,0.75,0,0,0-1.2,0,0.82,0.82,0,0,0,0,1.2L6.8,8,3.4,11.4a0.91,0.91,0,0,0,0,1.2,0.91,0.91,0,0,0,1.2,0L8,9.2l3.4,3.4a0.85,0.85,0,0,0,1.2-1.2Z"/></svg>