<svg id="레이어_1" data-name="레이어 1" xmlns="http://www.w3.org/2000/svg" width="40" height="40" viewBox="0 0 40 40">
  <defs>
    <style>
      .cls-1 {
        fill: #fff;
        opacity: 0;
      }

      .cls-2 {
        fill: #62b700;
      }

      .cls-3 {
        fill: #585858;
      }
    </style>
  </defs>
  <title>if</title>
  <rect class="cls-1" width="40" height="40"/>
  <g>
    <path class="cls-2" d="M-98.61,34.05a.54.54,0,0,1-.42-.14.86.86,0,0,1-.12-.54V15.85a1,1,0,0,1,.1-.54.53.53,0,0,1,.44-.14h3.33a.6.6,0,0,1,.45.14.87.87,0,0,1,.12.54V33.38a.87.87,0,0,1-.12.54.6.6,0,0,1-.45.14Z" transform="translate(109.69)"/>
    <rect class="cls-2" x="10.58" y="6.86" width="4.46" height="4.46" rx="0.47" ry="0.47"/>
    <path class="cls-3" d="M-80.67,9.54l-.85-.19a4.61,4.61,0,0,0-.85-.09,1.56,1.56,0,0,0-1.22.43,2.6,2.6,0,0,0-.54,1.07c0,.23-.09.53-.14.92A11,11,0,0,0-84.33,13v2.27h3.26a.36.36,0,0,1,.41.41v2.61a.39.39,0,0,1-.12.29.39.39,0,0,1-.29.12h-3.26v15a.36.36,0,0,1-.41.41h-2.78a.36.36,0,0,1-.41-.41v-15h-2.85a.39.39,0,0,1-.29-.12.38.38,0,0,1-.12-.29V15.66a.39.39,0,0,1,.12-.29.4.4,0,0,1,.29-.12H-88v-2a18,18,0,0,1,.22-3,6.6,6.6,0,0,1,.83-2.34,4.24,4.24,0,0,1,1.54-1.41,5.14,5.14,0,0,1,2.53-.56A10.77,10.77,0,0,1-81.5,6a4.93,4.93,0,0,1,1,.22.5.5,0,0,1,.24.48L-80.36,9C-80.36,9.42-80.46,9.59-80.67,9.54Z" transform="translate(109.69)"/>
  </g>
</svg>
