<?xml version="1.0" encoding="utf-8"?>
<!-- Generator: Adobe Illustrator 16.0.0, SVG Export Plug-In . SVG Version: 6.00 Build 0)  -->
<!DOCTYPE svg PUBLIC "-//W3C//DTD SVG 1.1//EN" "http://www.w3.org/Graphics/SVG/1.1/DTD/svg11.dtd">
<svg version="1.1" id="Layer_1" xmlns="http://www.w3.org/2000/svg" xmlns:xlink="http://www.w3.org/1999/xlink" x="0px" y="0px"
	 width="40px" height="40px" viewBox="0 0 40 40" enable-background="new 0 0 40 40" xml:space="preserve">
<rect fill="#FFFFFF" fill-opacity="0" width="40" height="40"/>
<g>
	<path fill="#A7A7A7" d="M14.296,28.891l3.925-3.922c0.562-0.564,0.562-1.479,0-2.04c-0.567-0.565-1.481-0.565-2.042,0l-3.924,3.923
		l-3.923-3.923c-0.563-0.565-1.478-0.565-2.042,0c-0.564,0.562-0.563,1.476,0,2.04l3.921,3.922l-3.921,3.926
		c-0.563,0.561-0.564,1.479,0,2.039c0.563,0.566,1.478,0.566,2.042,0l3.923-3.922l3.924,3.922c0.562,0.566,1.475,0.566,2.042,0
		c0.562-0.563,0.562-1.476,0-2.039L14.296,28.891z"/>
	<path fill="#A7A7A7" d="M34.737,11.707c0,0.801-0.648,1.442-1.442,1.442H22.196c-0.797,0-1.445-0.642-1.445-1.442l0,0
		c0-0.799,0.648-1.441,1.445-1.441h11.099C34.089,10.267,34.737,10.91,34.737,11.707L34.737,11.707z"/>
	<path fill="#A7A7A7" d="M34.737,27.95c0,0.802-0.648,1.442-1.442,1.442H22.196c-0.797,0-1.445-0.642-1.445-1.442l0,0
		c0-0.795,0.648-1.442,1.445-1.442h11.099C34.089,26.508,34.737,27.155,34.737,27.95L34.737,27.95z"/>
	<path fill="#A7A7A7" d="M17.802,10.267h-4.104V6.162c0-0.798-0.645-1.443-1.443-1.443c-0.796,0-1.443,0.646-1.443,1.443v4.104
		H6.707c-0.799,0-1.444,0.643-1.444,1.441c0,0.801,0.647,1.443,1.444,1.443h4.104v4.104c0,0.797,0.648,1.443,1.443,1.443
		c0.799,0,1.443-0.646,1.443-1.443v-4.104h4.104c0.801,0,1.448-0.643,1.448-1.443C19.25,10.91,18.602,10.267,17.802,10.267z"/>
	<circle fill="#A7A7A7" cx="27.742" cy="33.402" r="1.443"/>
	<circle fill="#A7A7A7" cx="27.742" cy="22.504" r="1.443"/>
</g>
</svg>
