<svg id="레이어_1" data-name="레이어 1" xmlns="http://www.w3.org/2000/svg" width="40" height="40" viewBox="0 0 40 40"><defs><style>.cls-1{fill:#fff;opacity:0;}.cls-2{fill:#a7a7a7;}</style></defs><title>number40</title><rect class="cls-1" width="40" height="40"/><path class="cls-2" d="M2,10.48v17H-0.56V13.05H-2l0.64-2.57H2Z" transform="translate(9.16 0.96)"/><path class="cls-2" d="M11.91,27.45H3.34l1.13-1.93Q9.79,16.35,9.79,15a2.11,2.11,0,0,0-.5-1.46A1.67,1.67,0,0,0,8,13a1.61,1.61,0,0,0-1,.3A1.74,1.74,0,0,0,6.4,14H3.69a5.51,5.51,0,0,1,1.83-2.81A4.11,4.11,0,0,1,8,10.39a4.15,4.15,0,0,1,3.13,1.32A4.58,4.58,0,0,1,12.37,15a9.28,9.28,0,0,1-1.09,3.58q-0.9,1.9-3.46,6.32h4.1v2.57Z" transform="translate(9.16 0.96)"/><path class="cls-2" d="M21.66,18.26A4.64,4.64,0,1,0,13.82,14h2.74a2.07,2.07,0,1,1,1.81,3.14v2.59a2.71,2.71,0,1,1-2.07,4.44H13.38A5.29,5.29,0,1,0,21.66,18.26Z" transform="translate(9.16 0.96)"/></svg>