<?xml version="1.0" encoding="utf-8"?>
<!-- Generator: Adobe Illustrator 16.0.0, SVG Export Plug-In . SVG Version: 6.00 Build 0)  -->
<!DOCTYPE svg PUBLIC "-//W3C//DTD SVG 1.1//EN" "http://www.w3.org/Graphics/SVG/1.1/DTD/svg11.dtd">
<svg version="1.1" id="Layer_1" xmlns="http://www.w3.org/2000/svg" xmlns:xlink="http://www.w3.org/1999/xlink" x="0px" y="0px"
	 width="40px" height="40px" viewBox="0 0 40 40" enable-background="new 0 0 40 40" xml:space="preserve">
<rect opacity="0" fill="#FFFFFF" width="40" height="40"/>
<g>
	<path fill="#A7A7A7" d="M22.846,24.881l-7.223-9.786c-0.124-0.172-0.365-0.207-0.535-0.081L5.3,22.236
		c-0.172,0.129-0.207,0.369-0.081,0.539l7.222,9.786c0.127,0.172,0.367,0.207,0.541,0.081l9.784-7.225
		C22.936,25.295,22.973,25.053,22.846,24.881z M9.27,24.242c-0.608-0.091-1.032-0.662-0.938-1.271
		c0.093-0.611,0.662-1.033,1.274-0.941c0.61,0.092,1.032,0.66,0.939,1.271C10.455,23.916,9.883,24.335,9.27,24.242z M13.866,24.935
		c-0.611-0.091-1.034-0.662-0.94-1.271c0.092-0.613,0.662-1.035,1.273-0.943c0.612,0.092,1.034,0.662,0.94,1.275
		C15.049,24.607,14.479,25.029,13.866,24.935z M18.46,25.629c-0.61-0.093-1.032-0.664-0.939-1.275
		c0.093-0.613,0.662-1.033,1.274-0.939c0.611,0.092,1.032,0.661,0.939,1.274C19.644,25.299,19.072,25.72,18.46,25.629z"/>
	<path fill="#A7A7A7" d="M34.528,9.099L22.502,7.287c-0.21-0.03-0.404,0.114-0.438,0.325L20.25,19.637
		c-0.027,0.211,0.116,0.409,0.326,0.439l12.026,1.812c0.21,0.031,0.407-0.113,0.438-0.324l1.813-12.026
		C34.884,9.33,34.738,9.131,34.528,9.099z M24.48,18.248c-0.498,0.37-1.199,0.263-1.565-0.234c-0.368-0.499-0.263-1.201,0.234-1.565
		c0.497-0.367,1.201-0.263,1.567,0.234C25.082,17.179,24.976,17.878,24.48,18.248z M25.459,11.748
		c-0.498,0.367-1.199,0.263-1.566-0.237c-0.367-0.497-0.262-1.198,0.237-1.565c0.497-0.367,1.198-0.261,1.565,0.237
		C26.063,10.679,25.956,11.378,25.459,11.748z M28.218,15.49c-0.499,0.367-1.2,0.263-1.567-0.234
		c-0.367-0.499-0.262-1.203,0.237-1.568c0.497-0.367,1.198-0.262,1.565,0.239C28.822,14.419,28.716,15.121,28.218,15.49z
		 M30.977,19.228c-0.498,0.367-1.199,0.261-1.566-0.236c-0.367-0.498-0.262-1.199,0.234-1.566c0.498-0.367,1.201-0.263,1.568,0.234
		C31.58,18.158,31.474,18.859,30.977,19.228z M31.955,12.726c-0.498,0.369-1.197,0.262-1.565-0.235s-0.261-1.198,0.235-1.565
		c0.5-0.367,1.199-0.263,1.566,0.232C32.559,11.657,32.453,12.356,31.955,12.726z"/>
</g>
</svg>
