<svg id="레이어_1" data-name="레이어 1" xmlns="http://www.w3.org/2000/svg" width="40" height="40" viewBox="0 0 40 40">
  <defs>
    <style>
      .cls-1 {
        fill: #fff;
        opacity: 0;
      }

      .cls-2 {
        fill: #f66;
      }

      .cls-3 {
        fill: #585858;
      }
    </style>
  </defs>
  <title>while</title>
  <rect class="cls-1" width="40" height="40"/>
  <g>
    <path class="cls-2" d="M-186.2,16.84l-2,7.13a.35.35,0,0,1-.09.2.49.49,0,0,1-.25,0h-1.7a.44.44,0,0,1-.21,0,.29.29,0,0,1-.11-.2l-3-10.44c-.06-.2-.07-.32,0-.37s.16-.08.36-.08h1.63a.49.49,0,0,1,.24,0,.32.32,0,0,1,.1.2l1.93,7.17,2-7.17a.35.35,0,0,1,.09-.2.48.48,0,0,1,.25,0h1.7a.48.48,0,0,1,.25,0,.35.35,0,0,1,.09.2l2,7.17,1.93-7.17a.31.31,0,0,1,.1-.2.49.49,0,0,1,.24,0h1.63q.3,0,.36.08t0,.37l-3,10.44a.29.29,0,0,1-.11.2.45.45,0,0,1-.21,0h-1.7a.49.49,0,0,1-.25,0,.35.35,0,0,1-.09-.2Z" transform="translate(193.67)"/>
    <path class="cls-3" d="M-171.9,24.2a.39.39,0,0,1-.27-.08.45.45,0,0,1-.08-.31V17.56q0-2.49-1.33-2.49a2.14,2.14,0,0,0-1.22.32,1.82,1.82,0,0,0-.69.89v7.53a.42.42,0,0,1-.09.31.4.4,0,0,1-.27.08h-1.63a.36.36,0,0,1-.27-.08.5.5,0,0,1-.07-.32V8.35c0-.26.11-.39.34-.39h1.63c.24,0,.35.13.35.39v5.34a4,4,0,0,1,1-.7,2.4,2.4,0,0,1,1-.27,3.08,3.08,0,0,1,2.65,1.16,6.19,6.19,0,0,1,.86,3.66v6.27a.45.45,0,0,1-.08.31.36.36,0,0,1-.26.08Z" transform="translate(193.67)"/>
    <path class="cls-3" d="M-165.15,24.18a.27.27,0,0,1-.22-.08.55.55,0,0,1-.06-.31V8.41a.62.62,0,0,1,.05-.32c0-.05.11-.08.23-.08h1.75a.3.3,0,0,1,.24.08.55.55,0,0,1,.06.32V23.79a.54.54,0,0,1-.06.31.29.29,0,0,1-.24.08Z" transform="translate(193.67)"/>
    <path class="cls-3" d="M-153.67,19.06a.82.82,0,0,1-.1.37.31.31,0,0,1-.29.13h-5.55a3.08,3.08,0,0,0,.75,1.95,2.19,2.19,0,0,0,1.5.67,3.72,3.72,0,0,0,1.43-.18,5,5,0,0,0,1.18-.61q.25-.17.34-.1c.06.05.09.19.09.41v1.48a.67.67,0,0,1,0,.3,1,1,0,0,1-.2.22,3.5,3.5,0,0,1-1.3.59,6.43,6.43,0,0,1-1.55.2A4.09,4.09,0,0,1-160.78,23,6.68,6.68,0,0,1-162,18.65a9,9,0,0,1,.25-2.09,5.87,5.87,0,0,1,.8-1.88,4.68,4.68,0,0,1,1.35-1.36,3.39,3.39,0,0,1,1.9-.52,3.67,3.67,0,0,1,1.89.45,3.69,3.69,0,0,1,1.26,1.22,5.35,5.35,0,0,1,.7,1.78,10.5,10.5,0,0,1,.21,2.16Zm-4-4a1.3,1.3,0,0,0-.69.2,2,2,0,0,0-.56.51,3.42,3.42,0,0,0-.42.73,3.08,3.08,0,0,0-.23.87h3.6a3,3,0,0,0-.12-.81,2.79,2.79,0,0,0-.32-.74,1.8,1.8,0,0,0-.52-.54A1.29,1.29,0,0,0-157.67,15.08Z" transform="translate(193.67)"/>
    <g>
      <path class="cls-3" d="M-168.57,24.2a.27.27,0,0,1-.22-.08.55.55,0,0,1-.06-.32V13.55a.62.62,0,0,1,.05-.31c0-.05.11-.08.23-.08h1.76a.29.29,0,0,1,.24.08.54.54,0,0,1,.06.31V23.81a.55.55,0,0,1-.06.32.3.3,0,0,1-.24.08Z" transform="translate(193.67)"/>
      <rect class="cls-3" x="24.82" y="8.77" width="2.3" height="2.3" rx="0.26" ry="0.26"/>
    </g>
  </g>
</svg>
