<svg id="레이어_1" data-name="레이어 1" xmlns="http://www.w3.org/2000/svg" width="36" height="20" viewBox="0 0 36 20">
  <defs>
    <style>
      .cls-1 {
        fill: #fff;
        opacity: 0;
      }

      .cls-2 {
        fill: #9e9e9f;
      }
    </style>
  </defs>
  <title>break</title>
  <rect class="cls-1" width="36" height="20"/>
  <g>
    <path class="cls-2" d="M15.48,14.12a.48.48,0,0,1-.17,0s-.06-.08-.06-.19V5.15a.5.5,0,0,1,0-.2s.09-.07.2-.07h2.14A4.61,4.61,0,0,1,18.83,5a2.62,2.62,0,0,1,.93.45,2,2,0,0,1,.59.76,2.58,2.58,0,0,1,.21,1.07,2,2,0,0,1-.09.59,2.18,2.18,0,0,1-.26.55,2.26,2.26,0,0,1-.41.47,2.39,2.39,0,0,1-.54.35,2.4,2.4,0,0,1,1.12.83,2.11,2.11,0,0,1,.3.57,1.86,1.86,0,0,1,.1.6,2.6,2.6,0,0,1-.86,2.1,4,4,0,0,1-2.62.73ZM16.86,10v2.68h.48a3.21,3.21,0,0,0,.89-.1,1.54,1.54,0,0,0,.56-.28.93.93,0,0,0,.29-.42,1.64,1.64,0,0,0,.08-.53,1.54,1.54,0,0,0-.09-.53,1,1,0,0,0-.31-.43,1.62,1.62,0,0,0-.6-.28,3.69,3.69,0,0,0-.94-.1Zm0-3.66V8.65h.53a2.29,2.29,0,0,0,.72-.1,1.2,1.2,0,0,0,.46-.26,1,1,0,0,0,.25-.39,1.57,1.57,0,0,0,.07-.49A1.42,1.42,0,0,0,18.85,7a.78.78,0,0,0-.21-.34,1.12,1.12,0,0,0-.4-.23,1.87,1.87,0,0,0-.62-.09Z" transform="translate(-12.26 0)"/>
    <path class="cls-2" d="M25.7,8.84a1.43,1.43,0,0,0-.42-.11.82.82,0,0,0-.34,0,1,1,0,0,0-.46.31,1.51,1.51,0,0,0-.26.5,2.68,2.68,0,0,0-.11.6q0,.31,0,.6v3.1a.33.33,0,0,1,0,.2.21.21,0,0,1-.17.05H22.72c-.09,0-.14,0-.17,0a.41.41,0,0,1,0-.22V9.11q0-.38,0-.8t0-.7a.3.3,0,0,1,0-.2.26.26,0,0,1,.18,0h1.15q.18,0,.18.19V8a2.48,2.48,0,0,1,.4-.44,1,1,0,0,1,.5-.26,1.93,1.93,0,0,1,.5,0,.73.73,0,0,1,.38.11.26.26,0,0,1,.08.09.39.39,0,0,1,0,.14v1a.31.31,0,0,1,0,.19S25.78,8.88,25.7,8.84Z" transform="translate(-12.26 0)"/>
    <path class="cls-2" d="M32.08,11a.46.46,0,0,1-.07.22.23.23,0,0,1-.2.08H28.06a1.78,1.78,0,0,0,.51,1.19,1.56,1.56,0,0,0,1,.41,2.77,2.77,0,0,0,1-.11,3.51,3.51,0,0,0,.8-.37c.11-.07.19-.09.23-.06s.06.12.06.25v.9a.37.37,0,0,1,0,.18.62.62,0,0,1-.14.13,2.52,2.52,0,0,1-.88.36,4.77,4.77,0,0,1-1,.12,2.91,2.91,0,0,1-2.27-.92,3.78,3.78,0,0,1-.83-2.63,5,5,0,0,1,.17-1.27,3.4,3.4,0,0,1,.54-1.15A3,3,0,0,1,28,7.49a2.49,2.49,0,0,1,1.28-.32,2.71,2.71,0,0,1,1.28.28,2.4,2.4,0,0,1,.85.74,3.08,3.08,0,0,1,.47,1.09,5.77,5.77,0,0,1,.14,1.31ZM29.36,8.57a1,1,0,0,0-.47.12,1.35,1.35,0,0,0-.38.31,2,2,0,0,0-.28.44,1.74,1.74,0,0,0-.16.53h2.44a1.65,1.65,0,0,0-.08-.49A1.62,1.62,0,0,0,30.22,9a1.18,1.18,0,0,0-.35-.33A1,1,0,0,0,29.36,8.57Z" transform="translate(-12.26 0)"/>
    <path class="cls-2" d="M37,14.15a.26.26,0,0,1-.14,0s0-.06,0-.14v-.52a1.59,1.59,0,0,1-.67.55,2.05,2.05,0,0,1-.92.23,3.26,3.26,0,0,1-.95-.14,1.76,1.76,0,0,1-.75-.43A2.11,2.11,0,0,1,33,13a2.48,2.48,0,0,1-.17-.94A2.17,2.17,0,0,1,34,10.11a3.77,3.77,0,0,1,1.18-.41,6.33,6.33,0,0,1,1.51-.08q-.07-.95-.82-1a2,2,0,0,0-.49,0,2.77,2.77,0,0,0-.48.11,4.06,4.06,0,0,0-.45.18,3.5,3.5,0,0,0-.38.21.82.82,0,0,1-.36.17c-.07,0-.11-.08-.11-.24V8a.59.59,0,0,1,0-.22.37.37,0,0,1,.17-.14,6,6,0,0,1,.85-.34,3.76,3.76,0,0,1,1.15-.16,2.44,2.44,0,0,1,1.83.62,2.68,2.68,0,0,1,.61,1.93v3.08q0,.19,0,.38t0,.37c0,.12,0,.22,0,.31s0,.25,0,.26a.42.42,0,0,1-.17,0Zm-.17-3.31a6.38,6.38,0,0,0-1.13.1,2.41,2.41,0,0,0-.71.25.84.84,0,0,0-.37.37,1.17,1.17,0,0,0-.1.48.77.77,0,0,0,.23.59.9.9,0,0,0,.64.21,1.28,1.28,0,0,0,1-.47A2.45,2.45,0,0,0,36.79,10.83Z" transform="translate(-12.26 0)"/>
    <path class="cls-2" d="M43.94,14.12a.59.59,0,0,1-.23,0,.41.41,0,0,1-.13-.14l-1.66-2.62-.48.56v2a.26.26,0,0,1-.05.19.28.28,0,0,1-.19,0H40.1a.25.25,0,0,1-.18,0,.28.28,0,0,1,0-.19V4.5q0-.24.23-.24h1.1a.21.21,0,0,1,.24.24V9.73l1.87-2.27a.37.37,0,0,1,.11-.1.38.38,0,0,1,.16,0h1.18c.14,0,.21,0,.23.08s0,.16-.15.3l-2,2.48,2.3,3.6a.34.34,0,0,1,.09.23c0,.05-.09.08-.22.08Z" transform="translate(-12.26 0)"/>
  </g>
</svg>
