<svg id="레이어_1" data-name="레이어 1" xmlns="http://www.w3.org/2000/svg" width="58" height="20" viewBox="0 0 58 20">
  <defs>
    <style>
      .cls-1 {
        fill: #fff;
        opacity: 0;
      }

      .cls-2 {
        fill: #9e9e9f;
      }
    </style>
  </defs>
  <title>conditionText</title>
  <rect class="cls-1" width="58" height="20"/>
  <g>
    <path class="cls-2" d="M21.63,14a5.54,5.54,0,0,1-.82.2,6.56,6.56,0,0,1-1.12.08,5,5,0,0,1-1.89-.34,4.17,4.17,0,0,1-1.47-1,4.45,4.45,0,0,1-1-1.51,5.39,5.39,0,0,1-.34-2,5.32,5.32,0,0,1,.34-1.94,4.45,4.45,0,0,1,1-1.51,4.25,4.25,0,0,1,1.47-1,5,5,0,0,1,1.89-.35,8,8,0,0,1,1,.07,5.77,5.77,0,0,1,.94.2q.17.06.17.14c0,.06,0,.12,0,.2l0,1q0,.2-.1.23a.69.69,0,0,1-.31,0,6.42,6.42,0,0,0-1-.21,7,7,0,0,0-.88-.05,3,3,0,0,0-1.21.23,2.54,2.54,0,0,0-.91.66,3,3,0,0,0-.57,1,4,4,0,0,0-.2,1.3,3.64,3.64,0,0,0,.22,1.28,3.09,3.09,0,0,0,.6,1,3,3,0,0,0,.91.68,3.27,3.27,0,0,0,1.15.32,3.77,3.77,0,0,0,1.1,0,6.08,6.08,0,0,0,.86-.22q.16-.06.2,0s.05.07.06.15l.06,1.08a.22.22,0,0,1,0,.18A.52.52,0,0,1,21.63,14Z" transform="translate(-12.65 0)"/>
    <path class="cls-2" d="M28.53,13.19a2.84,2.84,0,0,1-1.06.85,3.27,3.27,0,0,1-1.37.28A3.14,3.14,0,0,1,24.71,14a2.94,2.94,0,0,1-1-.77,3.32,3.32,0,0,1-.61-1.13,4.52,4.52,0,0,1-.2-1.37,4.65,4.65,0,0,1,.2-1.37,3.24,3.24,0,0,1,.6-1.13,2.86,2.86,0,0,1,1-.77A3.24,3.24,0,0,1,26.1,7.2a3.18,3.18,0,0,1,1.39.29,2.92,2.92,0,0,1,1,.77,3.34,3.34,0,0,1,.61,1.13,4.64,4.64,0,0,1,0,2.7A3.37,3.37,0,0,1,28.53,13.19ZM26.1,8.6a1.29,1.29,0,0,0-.7.19,1.6,1.6,0,0,0-.5.49,2.31,2.31,0,0,0-.3.68,3.12,3.12,0,0,0,0,1.58,2.39,2.39,0,0,0,.3.69,1.58,1.58,0,0,0,.5.49,1.29,1.29,0,0,0,.7.19,1.32,1.32,0,0,0,.71-.19,1.58,1.58,0,0,0,.5-.49,2.28,2.28,0,0,0,.29-.69,3.26,3.26,0,0,0,.1-.79,3.21,3.21,0,0,0-.1-.78,2.28,2.28,0,0,0-.29-.69,1.57,1.57,0,0,0-.5-.49A1.32,1.32,0,0,0,26.1,8.6Z" transform="translate(-12.65 0)"/>
    <path class="cls-2" d="M32.2,13.88a.28.28,0,0,1,0,.19.25.25,0,0,1-.18,0H30.86a.24.24,0,0,1-.19-.06.3.3,0,0,1,0-.19V9.18q0-.46,0-.92a4.76,4.76,0,0,0,0-.71c0-.09,0-.14,0-.17a.41.41,0,0,1,.22,0H32a.37.37,0,0,1,.17,0s0,.06,0,.13V8a2.71,2.71,0,0,1,.65-.49,1.68,1.68,0,0,1,.82-.22,2.14,2.14,0,0,1,1.76.68,3.09,3.09,0,0,1,.56,2v4a.28.28,0,0,1,0,.19.26.26,0,0,1-.18,0H34.63q-.24,0-.24-.25V10.16q0-1.45-.88-1.45a1.21,1.21,0,0,0-1,.4,1.58,1.58,0,0,0-.35,1.08Z" transform="translate(-12.65 0)"/>
    <path class="cls-2" d="M41.85,13.52a1.4,1.4,0,0,1-.26.26,2,2,0,0,1-.37.23,2.49,2.49,0,0,1-.41.16,1.61,1.61,0,0,1-.43.06,2.39,2.39,0,0,1-2-1,4.29,4.29,0,0,1-.71-2.62,5.22,5.22,0,0,1,.19-1.47,3.32,3.32,0,0,1,.55-1.11,2.4,2.4,0,0,1,.86-.7,2.63,2.63,0,0,1,1.16-.25,1.86,1.86,0,0,1,.79.19,2.08,2.08,0,0,1,.66.47V4.44a.37.37,0,0,1,0-.21s.08,0,.18,0h1.14a.28.28,0,0,1,.18,0s0,.1,0,.21v9.44c0,.11,0,.18-.05.21a.34.34,0,0,1-.2,0H42.05a.24.24,0,0,1-.16,0,.26.26,0,0,1,0-.17Zm-1.3-5a1.12,1.12,0,0,0-1,.5,2.76,2.76,0,0,0-.36,1.58,2.76,2.76,0,0,0,.37,1.63,1.14,1.14,0,0,0,.95.49,1,1,0,0,0,.49-.13,1.21,1.21,0,0,0,.41-.38,2.19,2.19,0,0,0,.29-.66,3.53,3.53,0,0,0,.11-1,4,4,0,0,0-.1-1A1.88,1.88,0,0,0,41.48,9a1.12,1.12,0,0,0-.42-.36A1.17,1.17,0,0,0,40.55,8.57Z" transform="translate(-12.65 0)"/>
    <path class="cls-2" d="M45.75,6.37a.88.88,0,0,1-.66-.28.93.93,0,0,1-.26-.67,1,1,0,0,1,.26-.68.86.86,0,0,1,.67-.28.88.88,0,0,1,.67.28,1,1,0,0,1,.26.68.94.94,0,0,1-.26.67A.89.89,0,0,1,45.75,6.37Zm-.61,7.75a.19.19,0,0,1-.15,0,.3.3,0,0,1,0-.19V7.63a.35.35,0,0,1,0-.19.19.19,0,0,1,.16,0h1.19a.21.21,0,0,1,.16,0,.31.31,0,0,1,0,.19v6.25a.31.31,0,0,1,0,.19.21.21,0,0,1-.16,0Z" transform="translate(-12.65 0)"/>
    <path class="cls-2" d="M51.35,14a3.2,3.2,0,0,1-.58.19,3.06,3.06,0,0,1-.77.07,1.66,1.66,0,0,1-.8-.22,1.38,1.38,0,0,1-.53-.51,2.2,2.2,0,0,1-.2-.79q0-.44,0-1.13V8.81h-.85q-.23,0-.23-.24v-1q0-.24.23-.24h.85V5.73a.21.21,0,0,1,.24-.24h1.1q.23,0,.23.24v1.6h1a.24.24,0,0,1,.19.05.31.31,0,0,1,0,.19v1a.31.31,0,0,1,0,.19.23.23,0,0,1-.19.05H50V12.2a1.61,1.61,0,0,0,0,.35.35.35,0,0,0,.2.29.68.68,0,0,0,.34,0,1.74,1.74,0,0,0,.35-.08l.26-.11c.06,0,.11,0,.14,0a.27.27,0,0,1,.06.17l.11.9a.4.4,0,0,1,0,.17A.23.23,0,0,1,51.35,14Z" transform="translate(-12.65 0)"/>
    <path class="cls-2" d="M53,6.37a.88.88,0,0,1-.66-.28.93.93,0,0,1-.26-.67,1,1,0,0,1,.26-.68A.86.86,0,0,1,53,4.46a.88.88,0,0,1,.67.28,1,1,0,0,1,.26.68.94.94,0,0,1-.26.67A.89.89,0,0,1,53,6.37Zm-.61,7.75a.19.19,0,0,1-.15,0,.3.3,0,0,1,0-.19V7.63a.35.35,0,0,1,0-.19.19.19,0,0,1,.16,0h1.19a.21.21,0,0,1,.16,0,.31.31,0,0,1,0,.19v6.25a.31.31,0,0,1,0,.19.21.21,0,0,1-.16,0Z" transform="translate(-12.65 0)"/>
    <path class="cls-2" d="M60.51,13.19a2.84,2.84,0,0,1-1.06.85,3.27,3.27,0,0,1-1.37.28A3.14,3.14,0,0,1,56.69,14a2.94,2.94,0,0,1-1-.77,3.32,3.32,0,0,1-.61-1.13,4.52,4.52,0,0,1-.2-1.37,4.65,4.65,0,0,1,.2-1.37,3.24,3.24,0,0,1,.6-1.13,2.86,2.86,0,0,1,1-.77,3.24,3.24,0,0,1,1.39-.28,3.18,3.18,0,0,1,1.39.29,2.92,2.92,0,0,1,1,.77,3.34,3.34,0,0,1,.61,1.13,4.64,4.64,0,0,1,0,2.7A3.37,3.37,0,0,1,60.51,13.19ZM58.07,8.6a1.29,1.29,0,0,0-.7.19,1.6,1.6,0,0,0-.5.49,2.31,2.31,0,0,0-.3.68,3.12,3.12,0,0,0,0,1.58,2.39,2.39,0,0,0,.3.69,1.58,1.58,0,0,0,.5.49,1.29,1.29,0,0,0,.7.19,1.32,1.32,0,0,0,.71-.19,1.58,1.58,0,0,0,.5-.49,2.28,2.28,0,0,0,.29-.69,3.26,3.26,0,0,0,.1-.79,3.21,3.21,0,0,0-.1-.78,2.28,2.28,0,0,0-.29-.69,1.57,1.57,0,0,0-.5-.49A1.32,1.32,0,0,0,58.07,8.6Z" transform="translate(-12.65 0)"/>
    <path class="cls-2" d="M64.18,13.88a.28.28,0,0,1,0,.19.25.25,0,0,1-.18,0H62.84a.24.24,0,0,1-.19-.06.3.3,0,0,1,0-.19V9.18q0-.46,0-.92a4.76,4.76,0,0,0,0-.71c0-.09,0-.14,0-.17a.41.41,0,0,1,.22,0H64a.37.37,0,0,1,.17,0s0,.06,0,.13V8a2.71,2.71,0,0,1,.65-.49,1.68,1.68,0,0,1,.82-.22,2.14,2.14,0,0,1,1.76.68,3.09,3.09,0,0,1,.56,2v4a.28.28,0,0,1,0,.19.26.26,0,0,1-.18,0H66.61q-.24,0-.24-.25V10.16q0-1.45-.88-1.45a1.21,1.21,0,0,0-1,.4,1.58,1.58,0,0,0-.35,1.08Z" transform="translate(-12.65 0)"/>
  </g>
</svg>
