<svg id="레이어_1" data-name="레이어 1" xmlns="http://www.w3.org/2000/svg" viewBox="0 0 16 12"><defs><style>.cls-1{fill:#fff;opacity:0;}.cls-2{fill:#58595b;}</style></defs><title>크다</title><rect class="cls-1" width="16" height="12"/><path class="cls-2" d="M4.35,3.85L9.16,6,4.35,8.15a0.87,0.87,0,1,0,.71,1.59l6.53-2.92h0.06l0,0a0.85,0.85,0,0,0,.21-0.15A0.84,0.84,0,0,0,12,6.49a0.83,0.83,0,0,0,.1-0.14s0,0,0,0a0.86,0.86,0,0,0,0-.16,0.88,0.88,0,0,0,0-.16,0.88,0.88,0,0,0,0-.16,0.86,0.86,0,0,0,0-.16v0A0.83,0.83,0,0,0,12,5.51a0.84,0.84,0,0,0-.08-0.11,0.85,0.85,0,0,0-.21-0.15l0,0H11.59L5.07,2.26A0.87,0.87,0,1,0,4.35,3.85Z" transform="translate(0 0)"/></svg>