<svg id="레이어_1" data-name="레이어 1" xmlns="http://www.w3.org/2000/svg" viewBox="0 0 70 70"><defs><style>.cls-1,.cls-2{fill:#fff;}.cls-1{opacity:0;}.cls-2{stroke:#bcbcbc;}.cls-2,.cls-7{stroke-miterlimit:10;}.cls-3{fill:#ff8e1d;}.cls-4{fill:#dbc158;}.cls-5{fill:#f0f0f0;}.cls-6{fill:#26cad3;}.cls-7{stroke:#d2d2d2;}</style></defs><title>ledOff</title><rect class="cls-1" width="70" height="70"/><path class="cls-2" d="M3.25,35V9.12A5.37,5.37,0,0,1,5,5,5.37,5.37,0,0,1,9.12,3.25H60.88a5.87,5.87,0,0,1,5.87,5.87V35q0,12.94,0,25.88a5.87,5.87,0,0,1-5.87,5.87H9.12A5.37,5.37,0,0,1,5,65a5.37,5.37,0,0,1-1.72-4.15V35Z"/><path class="cls-3" d="M15.52,10.47a0.39,0.39,0,0,0,.62.16l1.56-.9a0.39,0.39,0,0,0,.17-0.62,0.39,0.39,0,0,0-.62-0.16l-1.56.9A0.39,0.39,0,0,0,15.52,10.47Z"/><path class="cls-3" d="M13.4,8.68A0.39,0.39,0,0,0,14,8.41l0.62-1.69a0.45,0.45,0,0,0-.85-0.31L13.13,8.1A0.39,0.39,0,0,0,13.4,8.68Z"/><path class="cls-3" d="M10.62,8.68a0.39,0.39,0,0,0,.27-0.58L10.27,6.41A0.39,0.39,0,0,0,9.7,6.14a0.39,0.39,0,0,0-.27.58L10,8.41A0.39,0.39,0,0,0,10.62,8.68Z"/><path class="cls-3" d="M8.49,10.47a0.39,0.39,0,0,0-.17-0.62l-1.56-.9a0.39,0.39,0,0,0-.62.16,0.39,0.39,0,0,0,.16.62l1.56,0.9A0.39,0.39,0,0,0,8.49,10.47Z"/><path class="cls-3" d="M9.3,16.55H8V17.9h8.11V16.55H14.71V12.49a2.7,2.7,0,1,0-5.41,0v4.06Z"/><path class="cls-4" d="M36.49,2.81A0.69,0.69,0,0,0,35.68,2H34.32a0.69,0.69,0,0,0-.81.81"/><path class="cls-4" d="M2.81,46.77A0.69,0.69,0,0,1,2,46H2V44.61H2a0.69,0.69,0,0,1,.81-0.81"/><path class="cls-4" d="M2.81,33.51a0.69,0.69,0,0,0-.81.81H2v1.34H2a0.69,0.69,0,0,0,.81.81"/><path class="cls-4" d="M2.81,23.23A0.69,0.69,0,0,0,2,24H2v1.34H2a0.69,0.69,0,0,0,.81.81"/><path class="cls-4" d="M23.23,2.81A0.69,0.69,0,0,1,24,2H25.4a0.69,0.69,0,0,1,.81.81"/><path class="cls-4" d="M28.37,2.81A0.69,0.69,0,0,1,29.18,2h1.35a0.69,0.69,0,0,1,.81.81"/><path class="cls-4" d="M46.77,2.81A0.69,0.69,0,0,0,46,2H44.6a0.69,0.69,0,0,0-.81.81"/><path class="cls-4" d="M28.37,67.19a0.69,0.69,0,0,0,.81.81h1.35a0.69,0.69,0,0,0,.81-0.81"/><path class="cls-4" d="M41.63,2.81A0.69,0.69,0,0,0,40.82,2H39.46a0.69,0.69,0,0,0-.81.81"/><path class="cls-4" d="M33.51,67.19a0.69,0.69,0,0,0,.81.81h1.35a0.69,0.69,0,0,0,.81-0.81"/><path class="cls-4" d="M23.23,67.19A0.69,0.69,0,0,0,24,68H25.4a0.69,0.69,0,0,0,.81-0.81"/><path class="cls-4" d="M46.77,67.19A0.69,0.69,0,0,1,46,68H44.6a0.69,0.69,0,0,1-.81-0.81"/><path class="cls-4" d="M41.63,67.19a0.69,0.69,0,0,1-.81.81H39.46a0.69,0.69,0,0,1-.81-0.81"/><path class="cls-4" d="M2.81,28.37a0.69,0.69,0,0,0-.81.81H2v1.34H2a0.69,0.69,0,0,0,.81.81"/><path class="cls-4" d="M2.81,41.63A0.69,0.69,0,0,1,2,40.82H2V39.47H2a0.69,0.69,0,0,1,.81-0.81"/><path class="cls-4" d="M67.19,46.77A0.69,0.69,0,0,0,68,46h0V44.61h0a0.69,0.69,0,0,0-.81-0.81"/><path class="cls-4" d="M67.19,23.23A0.69,0.69,0,0,1,68,24h0v1.34h0a0.69,0.69,0,0,1-.81.81"/><path class="cls-4" d="M67.19,36.49A0.69,0.69,0,0,0,68,35.68h0V34.33h0a0.69,0.69,0,0,0-.81-0.81"/><path class="cls-4" d="M67.19,28.37a0.69,0.69,0,0,1,.81.81h0v1.34h0a0.69,0.69,0,0,1-.81.81"/><path class="cls-4" d="M67.19,41.63A0.69,0.69,0,0,0,68,40.82h0V39.47h0a0.69,0.69,0,0,0-.81-0.81"/><rect class="cls-5" x="18.61" y="18.61" width="32.79" height="32.79" rx="4.05" ry="4.05"/><path class="cls-6" d="M56.5,55.29a1.35,1.35,0,1,1,0,2.69A1.35,1.35,0,0,1,56.5,55.29Z"/><rect class="cls-7" x="25.5" y="25.5" width="19" height="19"/></svg>