<?xml version="1.0" encoding="utf-8"?>
<!-- Generator: Adobe Illustrator 19.2.1, SVG Export Plug-In . SVG Version: 6.00 Build 0)  -->
<svg version="1.1" id="레이어_1" xmlns="http://www.w3.org/2000/svg" xmlns:xlink="http://www.w3.org/1999/xlink" x="0px"
	 y="0px" viewBox="0 0 64 210" style="enable-background:new 0 0 64 210;" xml:space="preserve">
<style type="text/css">
	.st0{fill:#D1D1D1;}
	.st1{fill:#FFFFFF;}
	.st2{fill:#26CAD3;}
	.st3{fill:#FF755A;}
	.st4{fill:#FFF200;}
	.st5{fill:#C10C4F;}
	.st6{fill:#FF9902;}
	.st7{fill:#27AAE1;}
	.st8{fill:#9E7AC2;}
</style>
<path class="st0" d="M0,210h60c2.2,0,4-1.8,4-4V0H0V210z"/>
<title>ledPalette</title>
<path class="st1" d="M33.7,27l-4.1,4.1c-0.4-1.6-0.4-3.2,0-4.8l-4.2-4.1c-1,0.2-2,0.2-3,0l8.6-8.6c0.2,1,0.2,2,0,3l4.1,4.1
	c1.6-0.4,3.2-0.4,4.8,0l-4.1,4.1l5.7,7.9L33.7,27z"/>
<path class="st1" d="M33.8,185.2l5.1-5.1c0.5-0.5,0.5-1.3,0-1.8s-1.3-0.5-1.8,0l-5.1,5.1l-5.1-5.1c-0.5-0.5-1.3-0.5-1.8,0
	s-0.5,1.3,0,1.8l5.1,5.1l-5.1,5.1c-0.5,0.5-0.5,1.3,0,1.8s1.3,0.5,1.8,0l0,0L32,187l5.1,5.1c0.4,0.5,1.2,0.6,1.8,0.2
	s0.6-1.2,0.2-1.8c0-0.1-0.1-0.1-0.2-0.2L33.8,185.2z"/>
<rect x="11" y="47.2" class="st2" width="18" height="18"/>
<rect x="35" y="47.2" class="st3" width="18" height="18"/>
<rect x="11" y="71.2" class="st4" width="18" height="18"/>
<rect x="35" y="71.2" class="st5" width="18" height="18"/>
<rect x="11" y="95.2" class="st6" width="18" height="18"/>
<rect x="35" y="95.2" class="st7" width="18" height="18"/>
<rect x="11" y="119.2" class="st8" width="18" height="18"/>
<rect x="35" y="119.2" class="st1" width="18" height="18"/>
<rect x="11" y="143.2" class="st1" width="18" height="18"/>
<rect x="35" y="143.2" class="st1" width="18" height="18"/>
</svg>
