<svg id="레이어_1" data-name="레이어 1" xmlns="http://www.w3.org/2000/svg" viewBox="0 0 16 12"><defs><style>.cls-1{fill:#fff;opacity:0;}.cls-2{fill:#58595b;}</style></defs><title>작거나같다</title><rect class="cls-1" width="16" height="12"/><rect class="cls-2" x="3.71" y="9.37" width="8.57" height="1.74" rx="0.87" ry="0.87"/><path class="cls-2" d="M11.65,6.85L6.84,4.7l4.8-2.15A0.87,0.87,0,1,0,10.93,1L4.41,3.88H4.35l0,0a0.85,0.85,0,0,0-.21.15A0.84,0.84,0,0,0,4,4.21a0.83,0.83,0,0,0-.1.14s0,0,0,0a0.86,0.86,0,0,0,0,.16,0.88,0.88,0,0,0,0,.16,0.88,0.88,0,0,0,0,.16A0.86,0.86,0,0,0,3.9,5v0A0.83,0.83,0,0,0,4,5.2a0.84,0.84,0,0,0,.08.11,0.85,0.85,0,0,0,.21.15l0,0H4.41l6.53,2.92A0.87,0.87,0,1,0,11.65,6.85Z" transform="translate(0 0)"/></svg>