<svg id="레이어_1" data-name="레이어 1" xmlns="http://www.w3.org/2000/svg" viewBox="0 0 16 12"><defs><style>.cls-1{fill:#fff;opacity:0;}.cls-2{fill:#58595b;}</style></defs><title>작다</title><rect class="cls-1" width="16" height="12"/><path class="cls-2" d="M11.65,8.15L6.84,6l4.8-2.15a0.87,0.87,0,1,0-.71-1.59L4.41,5.18H4.35l0,0a0.85,0.85,0,0,0-.21.15A0.84,0.84,0,0,0,4,5.51a0.83,0.83,0,0,0-.1.14s0,0,0,0a0.86,0.86,0,0,0,0,.16,0.88,0.88,0,0,0,0,.16,0.88,0.88,0,0,0,0,.16,0.86,0.86,0,0,0,0,.16v0a0.83,0.83,0,0,0,.1.14,0.84,0.84,0,0,0,.08.11,0.85,0.85,0,0,0,.21.15l0,0H4.41l6.53,2.92A0.87,0.87,0,1,0,11.65,8.15Z" transform="translate(0 0)"/></svg>