<svg id="레이어_1" data-name="레이어 1" xmlns="http://www.w3.org/2000/svg" width="28" height="20" viewBox="0 0 28 20">
  <defs>
    <style>
      .cls-1 {
        fill: #fff;
        opacity: 0;
      }

      .cls-2 {
        fill: #9e9e9f;
      }
    </style>
  </defs>
  <title>max</title>
  <rect class="cls-1" width="28" height="20"/>
  <g>
    <path class="cls-2" d="M10.43,14.12c-.1,0-.17,0-.19,0a.32.32,0,0,1,0-.19v-6l-2.34,6a.46.46,0,0,1-.11.17.31.31,0,0,1-.18,0h-1a.35.35,0,0,1-.19,0,.34.34,0,0,1-.1-.17l-2.34-6v6a.32.32,0,0,1,0,.19s-.09,0-.19,0H2.5c-.1,0-.17,0-.19,0a.32.32,0,0,1,0-.19V5.24a.51.51,0,0,1,.05-.31.48.48,0,0,1,.29-.05H4a.33.33,0,0,1,.17,0,.32.32,0,0,1,.11.16L7,12l2.82-7a.29.29,0,0,1,.3-.19h1.31a.51.51,0,0,1,.31.05.52.52,0,0,1,.05.31v8.65a.18.18,0,0,1-.23.23Z" transform="translate(0.57 0)"/>
    <path class="cls-2" d="M17.4,14.15a.26.26,0,0,1-.14,0s0-.06,0-.14v-.52a1.59,1.59,0,0,1-.67.55,2.05,2.05,0,0,1-.92.23,3.26,3.26,0,0,1-.95-.14,1.76,1.76,0,0,1-.75-.43,2.11,2.11,0,0,1-.46-.71,2.48,2.48,0,0,1-.17-.94,2.17,2.17,0,0,1,1.1-1.91A3.77,3.77,0,0,1,15.6,9.7a6.33,6.33,0,0,1,1.51-.08q-.07-.95-.82-1a2,2,0,0,0-.49,0,2.77,2.77,0,0,0-.48.11,4.06,4.06,0,0,0-.45.18,3.5,3.5,0,0,0-.38.21.82.82,0,0,1-.36.17c-.07,0-.11-.08-.11-.24V8a.59.59,0,0,1,0-.22.37.37,0,0,1,.17-.14,6,6,0,0,1,.85-.34,3.76,3.76,0,0,1,1.15-.16,2.44,2.44,0,0,1,1.83.62,2.68,2.68,0,0,1,.61,1.93v3.08q0,.19,0,.38t0,.37c0,.12,0,.22,0,.31s0,.25,0,.26a.42.42,0,0,1-.17,0Zm-.17-3.31a6.38,6.38,0,0,0-1.13.1,2.41,2.41,0,0,0-.71.25.84.84,0,0,0-.37.37,1.17,1.17,0,0,0-.1.48.77.77,0,0,0,.23.59.9.9,0,0,0,.64.21,1.28,1.28,0,0,0,1-.47A2.45,2.45,0,0,0,17.24,10.83Z" transform="translate(0.57 0)"/>
    <path class="cls-2" d="M21.24,14a.29.29,0,0,1-.1.11l-.1,0H19.68c-.09,0-.14,0-.14-.05s0-.11.1-.22l2-3.25-1.9-2.94q-.12-.18-.1-.24s.09-.06.23-.06h1.28a.24.24,0,0,1,.22.12L22.52,9.3l1.12-1.84a.24.24,0,0,1,.22-.12h1.28c.14,0,.21,0,.23.06s0,.12-.1.24l-1.9,2.94,2,3.25c.07.11.1.19.1.22s-.06.05-.14.05H24l-.1,0a.29.29,0,0,1-.1-.11l-1.27-2.11Z" transform="translate(0.57 0)"/>
  </g>
</svg>
