<svg id="레이어_1" data-name="레이어 1" xmlns="http://www.w3.org/2000/svg" width="25" height="20" viewBox="0 0 25 20">
  <defs>
    <style>
      .cls-1 {
        fill: #fff;
        opacity: 0;
      }

      .cls-2 {
        fill: #9e9e9f;
      }
    </style>
  </defs>
  <title>min</title>
  <rect class="cls-1" width="25" height="20"/>
  <g>
    <path class="cls-2" d="M10.74,14.12c-.1,0-.17,0-.19,0a.32.32,0,0,1,0-.19v-6l-2.34,6a.46.46,0,0,1-.11.17.31.31,0,0,1-.18,0h-1a.35.35,0,0,1-.19,0,.34.34,0,0,1-.1-.17l-2.34-6v6a.32.32,0,0,1,0,.19s-.09,0-.19,0H2.81c-.1,0-.17,0-.19,0a.32.32,0,0,1,0-.19V5.24a.51.51,0,0,1,.05-.31.48.48,0,0,1,.29-.05H4.27a.33.33,0,0,1,.17,0,.32.32,0,0,1,.11.16l2.81,7,2.82-7a.29.29,0,0,1,.3-.19h1.31a.51.51,0,0,1,.31.05.52.52,0,0,1,.05.31v8.65a.18.18,0,0,1-.23.23Z" transform="translate(0 0)"/>
    <path class="cls-2" d="M14.74,6.37a.88.88,0,0,1-.66-.28.93.93,0,0,1-.26-.67,1,1,0,0,1,.26-.68.86.86,0,0,1,.67-.28.88.88,0,0,1,.67.28,1,1,0,0,1,.26.68.94.94,0,0,1-.26.67A.89.89,0,0,1,14.74,6.37Zm-.61,7.75a.19.19,0,0,1-.15,0,.3.3,0,0,1,0-.19V7.63a.35.35,0,0,1,0-.19.19.19,0,0,1,.16,0h1.19a.21.21,0,0,1,.16,0,.31.31,0,0,1,0,.19v6.25a.31.31,0,0,1,0,.19.21.21,0,0,1-.16,0Z" transform="translate(0 0)"/>
    <path class="cls-2" d="M18.64,13.88a.28.28,0,0,1,0,.19.25.25,0,0,1-.18,0H17.29a.24.24,0,0,1-.19-.06.3.3,0,0,1,0-.19V9.18q0-.46,0-.92a4.76,4.76,0,0,0,0-.71c0-.09,0-.14,0-.17a.41.41,0,0,1,.22,0h1.14a.37.37,0,0,1,.17,0s0,.06,0,.13V8a2.71,2.71,0,0,1,.65-.49,1.68,1.68,0,0,1,.82-.22,2.14,2.14,0,0,1,1.76.68,3.09,3.09,0,0,1,.56,2v4a.28.28,0,0,1,0,.19.26.26,0,0,1-.18,0H21.06q-.24,0-.24-.25V10.16q0-1.45-.88-1.45a1.21,1.21,0,0,0-1,.4,1.58,1.58,0,0,0-.35,1.08Z" transform="translate(0 0)"/>
  </g>
</svg>
