<svg id="레이어_1" data-name="레이어 1" xmlns="http://www.w3.org/2000/svg" width="14.86" height="20" viewBox="0 0 14.86 20">
  <defs>
    <style>
      .cls-1 {
        fill: #fff;
        opacity: 0;
      }

      .cls-2 {
        fill: #9e9e9f;
      }
    </style>
  </defs>
  <title>ms</title>
  <rect class="cls-1" width="14.86" height="20"/>
  <g>
    <path class="cls-2" d="M20.46,14.12a.28.28,0,0,1-.19-.05.26.26,0,0,1-.06-.2v-4a1.12,1.12,0,0,0-.26-.77.85.85,0,0,0-.66-.29,1.06,1.06,0,0,0-.54.14,1.27,1.27,0,0,0-.41.38,1.84,1.84,0,0,0-.26.55,2.33,2.33,0,0,0-.09.65v3.4q0,.24-.23.24H16.63a.28.28,0,0,1-.19-.05.26.26,0,0,1-.06-.2v-4A1.22,1.22,0,0,0,16.16,9a.81.81,0,0,0-.64-.25,1.14,1.14,0,0,0-.91.39,1.38,1.38,0,0,0-.34.93v3.79a.27.27,0,0,1,0,.19.25.25,0,0,1-.18,0H12.92a.24.24,0,0,1-.19-.06.3.3,0,0,1,0-.19V8.27c0-.3,0-.53,0-.69a.2.2,0,0,1,0-.19.35.35,0,0,1,.23-.05H14a.37.37,0,0,1,.17,0s0,.06,0,.13V8a2.69,2.69,0,0,1,.64-.49,1.56,1.56,0,0,1,.76-.21,2.11,2.11,0,0,1,1.09.3,2.08,2.08,0,0,1,.79.8A3,3,0,0,1,17.88,8a2.91,2.91,0,0,1,.44-.36,2.29,2.29,0,0,1,.5-.25,1.66,1.66,0,0,1,.56-.1,3,3,0,0,1,1,.16,2.12,2.12,0,0,1,.76.46,2,2,0,0,1,.49.74,2.7,2.7,0,0,1,.17,1v4.27a.25.25,0,0,1-.05.19.28.28,0,0,1-.19,0Z" transform="translate(-12.65 0)"/>
    <path class="cls-2" d="M26.69,13.87a1.89,1.89,0,0,1-.71.34,4,4,0,0,1-.84.11l-.49,0-.5-.07-.44-.1L23.39,14a.64.64,0,0,1-.17-.1.23.23,0,0,1,0-.17l.1-.88a.26.26,0,0,1,.06-.18s.09,0,.18,0a7.72,7.72,0,0,0,.77.23,3.61,3.61,0,0,0,.83.1.84.84,0,0,0,.64-.22.76.76,0,0,0,.2-.54.66.66,0,0,0-.21-.45,2.85,2.85,0,0,0-.5-.41q-.29-.19-.59-.35l-.48-.27a2.23,2.23,0,0,1-.67-.62,1.48,1.48,0,0,1-.27-.88,2.14,2.14,0,0,1,.19-.93,1.85,1.85,0,0,1,.49-.64,2,2,0,0,1,.71-.37,2.87,2.87,0,0,1,.82-.12l.46,0,.47.08.41.11.3.11c.08,0,.13.08.14.11a.33.33,0,0,1,0,.14l-.11.91c0,.1,0,.15-.08.16a.31.31,0,0,1-.19,0,2.81,2.81,0,0,0-1.33-.28.8.8,0,0,0-.56.19.66.66,0,0,0-.17.49.56.56,0,0,0,.16.32,1.89,1.89,0,0,0,.55.41l.67.39.46.29a2.92,2.92,0,0,1,.65.67,1.61,1.61,0,0,1,.22.9,2.18,2.18,0,0,1-.2,1A1.9,1.9,0,0,1,26.69,13.87Z" transform="translate(-12.65 0)"/>
  </g>
</svg>
