<svg id="레이어_1" data-name="레이어 1" xmlns="http://www.w3.org/2000/svg" width="16" height="12" viewBox="0 0 16 12">
  <defs>
    <style>
      .cls-1 {
        fill: #fff;
        fill-opacity: 0;
      }

      .cls-2 {
        fill: #58595b;
      }
    </style>
  </defs>
  <title>numberEqual</title>
  <rect class="cls-1" width="16" height="12"/>
  <path class="cls-2" d="M4.58,6.92h6.83a.87.87,0,0,1,.87.87h0a.87.87,0,0,1-.87.87H4.58a.87.87,0,0,1-.87-.87h0A.87.87,0,0,1,4.58,6.92Z"/>
  <path class="cls-2" d="M4.58,3.34h6.83a.87.87,0,0,1,.87.87h0a.87.87,0,0,1-.87.87H4.58a.87.87,0,0,1-.87-.87h0A.87.87,0,0,1,4.58,3.34Z"/>
</svg>
