<svg id="레이어_1" data-name="레이어 1" xmlns="http://www.w3.org/2000/svg" width="57.58" height="55" viewBox="0 0 57.58 55">
  <defs>
    <style>
      .cls-1, .cls-2 {
        fill: #fff;
      }

      .cls-2, .cls-3 {
        stroke: #bcbcbc;
        stroke-miterlimit: 10;
      }

      .cls-3 {
        fill: none;
      }

      .cls-4 {
        fill: #9e9e9f;
      }
    </style>
  </defs>
  <title>or</title>
  <rect class="cls-1" width="57.58" height="55"/>
  <path class="cls-2" d="M17.08,27.5h0C10.71,15.34,4.21,3,3.74,2.11A3.68,3.68,0,0,0,.61.5" transform="translate(0 0)"/>
  <path class="cls-2" d="M17.12,27.5h0C23.5,39.66,30,52,30.47,52.89A3.68,3.68,0,0,0,33.6,54.5" transform="translate(0 0)"/>
  <path class="cls-2" d="M17.12,27.5h0C23.5,15.34,30,3,30.47,2.11A3.68,3.68,0,0,1,33.6.5" transform="translate(0 0)"/>
  <path class="cls-2" d="M17.08,27.5h0C10.71,39.66,4.21,52,3.74,52.89A3.68,3.68,0,0,1,.61,54.5" transform="translate(0 0)"/>
  <line class="cls-3" x1="0.74" y1="0.5" y2="0.5"/>
  <line class="cls-3" x1="0.74" y1="54.5" y2="54.5"/>
  <line class="cls-3" x1="57.58" y1="54.5" x2="33.17" y2="54.5"/>
  <line class="cls-3" x1="57.58" y1="0.5" x2="33.17" y2="0.5"/>
  <g>
    <path class="cls-4" d="M42.07,30.69a2.84,2.84,0,0,1-1.06.85,3.27,3.27,0,0,1-1.37.28,3.13,3.13,0,0,1-1.39-.29,2.93,2.93,0,0,1-1-.77,3.33,3.33,0,0,1-.61-1.13,4.53,4.53,0,0,1-.2-1.37,4.66,4.66,0,0,1,.2-1.37,3.23,3.23,0,0,1,.6-1.13,2.85,2.85,0,0,1,1-.77,3.23,3.23,0,0,1,1.39-.28A3.19,3.19,0,0,1,41,25a2.93,2.93,0,0,1,1,.77,3.34,3.34,0,0,1,.61,1.13,4.63,4.63,0,0,1,0,2.7A3.37,3.37,0,0,1,42.07,30.69ZM39.64,26.1a1.3,1.3,0,0,0-.7.19,1.62,1.62,0,0,0-.5.49,2.32,2.32,0,0,0-.3.68,3.14,3.14,0,0,0,0,1.58,2.4,2.4,0,0,0,.3.69,1.6,1.6,0,0,0,.5.49,1.3,1.3,0,0,0,.7.19,1.32,1.32,0,0,0,.71-.19,1.58,1.58,0,0,0,.5-.49,2.29,2.29,0,0,0,.29-.69,3.23,3.23,0,0,0,.1-.79,3.19,3.19,0,0,0-.1-.78,2.29,2.29,0,0,0-.29-.69,1.57,1.57,0,0,0-.5-.49A1.32,1.32,0,0,0,39.64,26.1Z" transform="translate(0 0)"/>
    <path class="cls-4" d="M47.36,26.34a1.43,1.43,0,0,0-.42-.11.82.82,0,0,0-.34,0,1,1,0,0,0-.46.31,1.5,1.5,0,0,0-.26.5,2.65,2.65,0,0,0-.11.6q0,.31,0,.6v3.1a.33.33,0,0,1,0,.2.21.21,0,0,1-.17.05H44.38c-.09,0-.14,0-.17,0a.42.42,0,0,1,0-.22V26.61q0-.38,0-.8t0-.7a.3.3,0,0,1,0-.2.26.26,0,0,1,.18,0h1.15c.12,0,.18.06.18.19v.46a2.52,2.52,0,0,1,.4-.44,1,1,0,0,1,.5-.26,1.93,1.93,0,0,1,.5,0,.73.73,0,0,1,.38.11.25.25,0,0,1,.08.09.39.39,0,0,1,0,.14v1a.31.31,0,0,1,0,.19S47.44,26.38,47.36,26.34Z" transform="translate(0 0)"/>
  </g>
</svg>
