<svg id="레이어_1" data-name="레이어 1" xmlns="http://www.w3.org/2000/svg" width="29.24" height="20" viewBox="0 0 29.24 20">
  <defs>
    <style>
      .cls-1 {
        fill: #fff;
        opacity: 0;
      }

      .cls-2 {
        fill: #9e9e9f;
      }
    </style>
  </defs>
  <title>times</title>
  <rect class="cls-1" width="29.24" height="20"/>
  <g>
    <path class="cls-2" d="M16.65,14a3.2,3.2,0,0,1-.58.19,3.06,3.06,0,0,1-.77.07,1.66,1.66,0,0,1-.8-.22,1.38,1.38,0,0,1-.53-.51,2.2,2.2,0,0,1-.2-.79q0-.44,0-1.13V8.81h-.85q-.23,0-.23-.24v-1q0-.24.23-.24h.85V5.73A.21.21,0,0,1,14,5.49h1.1q.23,0,.23.24v1.6h1a.24.24,0,0,1,.19.05.31.31,0,0,1,0,.19v1a.31.31,0,0,1,0,.19.23.23,0,0,1-.19.05h-1V12.2a1.61,1.61,0,0,0,0,.35.35.35,0,0,0,.2.29.68.68,0,0,0,.34,0,1.74,1.74,0,0,0,.35-.08l.26-.11c.06,0,.11,0,.14,0a.27.27,0,0,1,.06.17l.11.9a.4.4,0,0,1,0,.17A.23.23,0,0,1,16.65,14Z" transform="translate(-12.65 0)"/>
    <path class="cls-2" d="M18.31,6.37a.88.88,0,0,1-.66-.28.93.93,0,0,1-.26-.67,1,1,0,0,1,.26-.68.86.86,0,0,1,.67-.28.88.88,0,0,1,.67.28,1,1,0,0,1,.26.68.94.94,0,0,1-.26.67A.89.89,0,0,1,18.31,6.37Zm-.61,7.75a.19.19,0,0,1-.15,0,.3.3,0,0,1,0-.19V7.63a.35.35,0,0,1,0-.19.19.19,0,0,1,.16,0h1.19a.21.21,0,0,1,.16,0,.31.31,0,0,1,0,.19v6.25a.31.31,0,0,1,0,.19.21.21,0,0,1-.16,0Z" transform="translate(-12.65 0)"/>
    <path class="cls-2" d="M28.3,14.12a.28.28,0,0,1-.19-.05.26.26,0,0,1-.06-.2v-4a1.12,1.12,0,0,0-.26-.77.85.85,0,0,0-.66-.29,1.06,1.06,0,0,0-.54.14,1.27,1.27,0,0,0-.41.38,1.84,1.84,0,0,0-.26.55,2.33,2.33,0,0,0-.09.65v3.4q0,.24-.23.24H24.47a.28.28,0,0,1-.19-.05.26.26,0,0,1-.06-.2v-4A1.22,1.22,0,0,0,24,9a.81.81,0,0,0-.64-.25,1.14,1.14,0,0,0-.91.39,1.38,1.38,0,0,0-.34.93v3.79a.27.27,0,0,1,0,.19.25.25,0,0,1-.18,0H20.76a.24.24,0,0,1-.19-.06.3.3,0,0,1,0-.19V8.27c0-.3,0-.53,0-.69a.2.2,0,0,1,0-.19.35.35,0,0,1,.23-.05h1.12a.37.37,0,0,1,.17,0s0,.06,0,.13V8a2.69,2.69,0,0,1,.64-.49,1.56,1.56,0,0,1,.76-.21,2.11,2.11,0,0,1,1.09.3,2.08,2.08,0,0,1,.79.8A3,3,0,0,1,25.72,8a2.91,2.91,0,0,1,.44-.36,2.29,2.29,0,0,1,.5-.25,1.66,1.66,0,0,1,.56-.1,3,3,0,0,1,1,.16,2.12,2.12,0,0,1,.76.46,2,2,0,0,1,.49.74,2.7,2.7,0,0,1,.17,1v4.27a.25.25,0,0,1-.05.19.28.28,0,0,1-.19,0Z" transform="translate(-12.65 0)"/>
    <path class="cls-2" d="M36.74,11a.46.46,0,0,1-.07.22.23.23,0,0,1-.2.08H32.72a1.78,1.78,0,0,0,.51,1.19,1.56,1.56,0,0,0,1,.41,2.77,2.77,0,0,0,1-.11,3.51,3.51,0,0,0,.8-.37c.11-.07.19-.09.23-.06s.06.12.06.25v.9a.37.37,0,0,1,0,.18.62.62,0,0,1-.14.13,2.52,2.52,0,0,1-.88.36,4.77,4.77,0,0,1-1,.12,2.91,2.91,0,0,1-2.27-.92,3.78,3.78,0,0,1-.83-2.63,5,5,0,0,1,.17-1.27,3.4,3.4,0,0,1,.54-1.15,3,3,0,0,1,.91-.83A2.49,2.49,0,0,1,34,7.17a2.71,2.71,0,0,1,1.28.28,2.4,2.4,0,0,1,.85.74,3.08,3.08,0,0,1,.47,1.09,5.77,5.77,0,0,1,.14,1.31ZM34,8.57a1,1,0,0,0-.47.12,1.35,1.35,0,0,0-.38.31,2,2,0,0,0-.28.44,1.74,1.74,0,0,0-.16.53h2.44a1.65,1.65,0,0,0-.08-.49A1.62,1.62,0,0,0,34.88,9a1.18,1.18,0,0,0-.35-.33A1,1,0,0,0,34,8.57Z" transform="translate(-12.65 0)"/>
    <path class="cls-2" d="M41.07,13.87a1.89,1.89,0,0,1-.71.34,4,4,0,0,1-.84.11l-.49,0-.5-.07-.44-.1L37.77,14a.64.64,0,0,1-.17-.1.23.23,0,0,1,0-.17l.1-.88a.26.26,0,0,1,.06-.18s.09,0,.18,0a7.72,7.72,0,0,0,.77.23,3.61,3.61,0,0,0,.83.1.84.84,0,0,0,.64-.22.76.76,0,0,0,.2-.54.66.66,0,0,0-.21-.45,2.85,2.85,0,0,0-.5-.41q-.29-.19-.59-.35l-.48-.27a2.23,2.23,0,0,1-.67-.62,1.48,1.48,0,0,1-.27-.88,2.14,2.14,0,0,1,.19-.93,1.85,1.85,0,0,1,.49-.64A2,2,0,0,1,39,7.32a2.87,2.87,0,0,1,.82-.12l.46,0,.47.08.41.11.3.11c.08,0,.13.08.14.11a.33.33,0,0,1,0,.14l-.11.91c0,.1,0,.15-.08.16a.31.31,0,0,1-.19,0,2.81,2.81,0,0,0-1.33-.28.8.8,0,0,0-.56.19.66.66,0,0,0-.17.49.56.56,0,0,0,.16.32,1.89,1.89,0,0,0,.55.41l.67.39.46.29a2.92,2.92,0,0,1,.65.67,1.61,1.61,0,0,1,.22.9,2.18,2.18,0,0,1-.2,1A1.9,1.9,0,0,1,41.07,13.87Z" transform="translate(-12.65 0)"/>
  </g>
</svg>
