<svg id="레이어_1" data-name="레이어 1" xmlns="http://www.w3.org/2000/svg" width="100" height="28" viewBox="0 0 100 28">
  <defs>
    <style>
      .cls-1 {
        fill: #fff;
        opacity: 0;
      }

      .cls-2 {
        fill: none;
        stroke: #7f7f80;
      }

      .cls-2, .cls-3 {
        stroke-miterlimit: 10;
      }

      .cls-3, .cls-4 {
        fill: #26cad3;
      }

      .cls-3 {
        stroke: #fff;
      }
    </style>
  </defs>
  <title>collapse</title>
  <g>
    <rect class="cls-1" width="100" height="28"/>
    <rect class="cls-2" x="67.32" y="53.89" width="19.71" height="6.8" transform="translate(91.15 67.89) rotate(180)"/>
    <path class="cls-3" d="M68.92,61.25l4.75-4.76h0a1.45,1.45,0,0,1,.22-.18l.12-.07.13-.07.16,0,.12,0,.29,0,.29,0,.11,0,.17.05.12.07.13.07a1.48,1.48,0,0,1,.21.17h0l4.76,4.76a1.49,1.49,0,1,1-2.1,2.1l-2.22-2.22v6.46a1.49,1.49,0,0,1-3,0V61.13L71,63.35a1.49,1.49,0,0,1-2.1-2.1Z" transform="translate(-63.2 -46.7)"/>
    <circle class="cls-4" cx="20.84" cy="11.66" r="1.42"/>
  </g>
</svg>
