<svg id="레이어_1" data-name="레이어 1" xmlns="http://www.w3.org/2000/svg" width="100" height="28" viewBox="0 0 100 28">
  <defs>
    <style>
      .cls-1 {
        fill: #fff;
        opacity: 0;
      }

      .cls-2 {
        fill: none;
        stroke: #7f7f80;
      }

      .cls-2, .cls-3 {
        stroke-miterlimit: 10;
      }

      .cls-3 {
        fill: #26cad3;
        stroke: #fff;
      }
    </style>
  </defs>
  <title>expand</title>
  <g>
    <rect class="cls-1" width="100" height="28"/>
    <rect class="cls-2" x="4.12" y="6.86" width="19.71" height="6.8"/>
    <path class="cls-3" d="M85.78,64.68,81,69.43h0a1.45,1.45,0,0,1-.22.18l-.12.07-.13.07-.16,0-.12,0-.29,0-.29,0-.11,0-.17-.05-.12-.07-.13-.07a1.48,1.48,0,0,1-.21-.17h0l-4.76-4.76a1.49,1.49,0,1,1,2.1-2.1l2.22,2.22V58.34a1.49,1.49,0,0,1,3,0v6.46l2.22-2.22a1.49,1.49,0,1,1,2.1,2.1Z" transform="translate(-63.2 -46.7)"/>
  </g>
</svg>
