<?xml version="1.0" encoding="utf-8"?>
<!-- Generator: Adobe Illustrator 16.0.0, SVG Export Plug-In . SVG Version: 6.00 Build 0)  -->
<!DOCTYPE svg PUBLIC "-//W3C//DTD SVG 1.1//EN" "http://www.w3.org/Graphics/SVG/1.1/DTD/svg11.dtd">
<svg version="1.1" id="Layer_1" xmlns="http://www.w3.org/2000/svg" xmlns:xlink="http://www.w3.org/1999/xlink" x="0px" y="0px"
	 width="16px" height="16px" viewBox="0 0 16 16" enable-background="new 0 0 16 16" xml:space="preserve">
<rect x="0" y="0" opacity="0" fill="#FFFFFF" width="16" height="16"/>
<path fill="#414042" d="M5.514,3.021L5.51,3.02L0.531,8l4.979,4.979v0.002h9.959V3.021H5.514z M12.756,9.748
	c0.314,0.313,0.314,0.82,0,1.137c-0.311,0.309-0.82,0.309-1.131,0l-1.75-1.75l-1.744,1.75c-0.316,0.311-0.826,0.309-1.135-0.004
	c-0.314-0.313-0.314-0.82,0-1.133L8.74,8.002L6.996,6.254c-0.316-0.314-0.316-0.822,0-1.137c0.309-0.313,0.816-0.313,1.131,0.004
	l1.748,1.744l1.75-1.744c0.311-0.316,0.82-0.316,1.131-0.004c0.314,0.314,0.314,0.824,0,1.137l-1.746,1.75L12.756,9.748z"/>
</svg>
