<?xml version="1.0" encoding="utf-8"?>
<!-- Generator: Adobe Illustrator 16.0.0, SVG Export Plug-In . SVG Version: 6.00 Build 0)  -->
<!DOCTYPE svg PUBLIC "-//W3C//DTD SVG 1.1//EN" "http://www.w3.org/Graphics/SVG/1.1/DTD/svg11.dtd">
<svg version="1.1" id="Layer_1" xmlns="http://www.w3.org/2000/svg" xmlns:xlink="http://www.w3.org/1999/xlink" x="0px" y="0px"
	 width="16px" height="16px" viewBox="0 0 16 16" enable-background="new 0 0 16 16" xml:space="preserve">
<rect y="0" opacity="0" fill="#FFFFFF" width="16" height="16"/>
<g>
	<path fill="#6D6E71" d="M15.216,8.002c0,0.82-0.669,1.486-1.494,1.486H2.274c-0.823,0-1.49-0.666-1.49-1.486l0,0
		c0-0.824,0.667-1.491,1.49-1.491h11.447C14.547,6.511,15.216,7.178,15.216,8.002L15.216,8.002z"/>
	<path fill="#6D6E71" d="M9.487,13.625c0,0.82-0.665,1.486-1.487,1.486c-0.824,0-1.49-0.666-1.49-1.486
		c0-0.826,0.666-1.492,1.49-1.492C8.822,12.133,9.487,12.799,9.487,13.625z"/>
	<circle fill="#6D6E71" cx="7.999" cy="2.378" r="1.489"/>
</g>
</svg>
