<?xml version="1.0" encoding="utf-8"?>
<!-- Generator: Adobe Illustrator 16.0.0, SVG Export Plug-In . SVG Version: 6.00 Build 0)  -->
<!DOCTYPE svg PUBLIC "-//W3C//DTD SVG 1.1//EN" "http://www.w3.org/Graphics/SVG/1.1/DTD/svg11.dtd">
<svg version="1.1" id="Layer_1" xmlns="http://www.w3.org/2000/svg" xmlns:xlink="http://www.w3.org/1999/xlink" x="0px" y="0px"
	 width="16px" height="16px" viewBox="0 0 16 16" enable-background="new 0 0 16 16" xml:space="preserve">
<rect x="-0.001" y="0" opacity="0" fill="#FFFFFF" width="16.001" height="16"/>
<path fill="#6D6E71" d="M13.722,6.51H9.486V2.275c0-0.82-0.665-1.49-1.487-1.49c-0.824,0-1.49,0.67-1.49,1.49V6.51H2.273
	c-0.823,0-1.49,0.666-1.49,1.491c0,0.82,0.667,1.486,1.49,1.486h4.235v4.235c0,0.825,0.666,1.493,1.49,1.493
	c0.822,0,1.487-0.668,1.487-1.493V9.487h4.235c0.824,0,1.494-0.666,1.494-1.486C15.216,7.176,14.546,6.51,13.722,6.51z"/>
</svg>
