<?xml version="1.0" encoding="utf-8"?>
<!-- Generator: Adobe Illustrator 16.0.0, SVG Export Plug-In . SVG Version: 6.00 Build 0)  -->
<!DOCTYPE svg PUBLIC "-//W3C//DTD SVG 1.1//EN" "http://www.w3.org/Graphics/SVG/1.1/DTD/svg11.dtd">
<svg version="1.1" id="Layer_1" xmlns="http://www.w3.org/2000/svg" xmlns:xlink="http://www.w3.org/1999/xlink" x="0px" y="0px"
	 width="16px" height="16px" viewBox="0 0 16 16" enable-background="new 0 0 16 16" xml:space="preserve">
<rect x="0" opacity="0" fill="#FFFFFF" width="16" height="16"/>
<path fill="#6D6E71" d="M10.305,8.002l4.428-4.43c0.633-0.636,0.633-1.667,0-2.3c-0.641-0.64-1.672-0.64-2.305,0L8.002,5.695
	L3.576,1.272c-0.637-0.64-1.67-0.64-2.303,0c-0.641,0.633-0.641,1.664,0,2.3l4.426,4.43l-4.426,4.423
	c-0.641,0.637-0.641,1.67,0,2.307c0.633,0.637,1.667,0.633,2.303,0l4.426-4.429l4.426,4.429c0.633,0.633,1.664,0.637,2.305,0
	c0.633-0.637,0.633-1.666,0-2.307L10.305,8.002z"/>
</svg>
