<svg id="레이어_1" data-name="레이어 1" xmlns="http://www.w3.org/2000/svg" width="60" height="60" viewBox="0 0 60 60"><defs><style>.cls-1{fill:#fff;stroke:#fc0;stroke-miterlimit:10;stroke-width:1.4px;}.cls-2{fill:#fc0;}.cls-3{fill:#ffdc00;}</style></defs><title>battery</title><rect class="cls-1" x="0.7" y="0.7" width="58.6" height="58.6" rx="9" ry="9"/><path class="cls-2" d="M11.47,25.95H9.71a0.88,0.88,0,0,0-.88.88v6.32a0.88,0.88,0,0,0,.88.88h1.76V25.95Z" transform="translate(0 0)"/><path class="cls-2" d="M48.9,19.13H13.18a2.28,2.28,0,0,0-2.3,2.26v17.2a2.28,2.28,0,0,0,2.29,2.27H48.9a2.28,2.28,0,0,0,2.28-2.27V21.41A2.28,2.28,0,0,0,48.9,19.13Zm1,19.45a0.91,0.91,0,0,1-.91.91H13.18a0.91,0.91,0,0,1-.89-0.93V21.42a0.91,0.91,0,0,1,.89-0.89H49a0.91,0.91,0,0,1,.91.91V38.53Z" transform="translate(0 0)"/><path class="cls-3" d="M31.93,21.53l-9.81,17H48a0.82,0.82,0,0,0,.82-0.82V22.32A0.82,0.82,0,0,0,48,21.53H31.93Z" transform="translate(0 0)"/></svg>