<svg id="레이어_1" data-name="레이어 1" xmlns="http://www.w3.org/2000/svg" width="60" height="60" viewBox="0 0 60 60"><defs><style>.cls-1{fill:#fff;stroke:#7c64ed;stroke-miterlimit:10;stroke-width:1.4px;}.cls-2{fill:#b7afef;}.cls-3{fill:#7c64ed;}.cls-4{fill:none;}</style></defs><title>environment</title><rect class="cls-1" x="0.7" y="0.7" width="58.6" height="58.6" rx="9" ry="9"/><path class="cls-2" d="M31.57,21.58h0c0.49-5,6.4-13,6.4-13s5.91,8,6.4,13h0a6.14,6.14,0,0,1,0,.64,6.44,6.44,0,1,1-12.88,0h0A4.48,4.48,0,0,0,31.57,21.58Z" transform="translate(0 0)"/><path class="cls-3" d="M15.61,38.29v-19h4.57v19A5.8,5.8,0,1,1,15.61,38.29Z" transform="translate(0 0)"/><path class="cls-3" d="M31.18,40.92a6.68,6.68,0,0,0,6.68,6.67V34.24a6.67,6.67,0,0,0-6.68,6.66S31.18,40.91,31.18,40.92Z" transform="translate(0 0)"/><path class="cls-2" d="M44.53,40.92a6.67,6.67,0,0,0-6.67-6.67V47.59A6.67,6.67,0,0,0,44.53,40.92Z" transform="translate(0 0)"/><path class="cls-3" d="M49.49,40.48H46.68a0.43,0.43,0,0,0-.43.43h0a0.43,0.43,0,0,0,.43.43h2.83a0.43,0.43,0,0,0,.41-0.42h0a0.43,0.43,0,0,0-.42-0.44h0Z" transform="translate(0 0)"/><path class="cls-3" d="M48.15,46.35l-2.47-1.43a0.43,0.43,0,0,0-.59.16h0a0.43,0.43,0,0,0,.16.59h0l2.43,1.43a0.43,0.43,0,0,0,.6-0.12l0-.06h0A0.43,0.43,0,0,0,48.15,46.35Z" transform="translate(0 0)"/><path class="cls-3" d="M44.05,50.77l-1.37-2.45a0.43,0.43,0,0,0-.59-0.16h0a0.43,0.43,0,0,0-.16.59h0l1.41,2.45a0.43,0.43,0,0,0,.59.16h0A0.43,0.43,0,0,0,44.05,50.77Z" transform="translate(0 0)"/><path class="cls-3" d="M47.68,34.72l-2.45,1.41a0.43,0.43,0,0,0-.16.59h0a0.43,0.43,0,0,0,.57.22l0,0,2.45-1.41a0.43,0.43,0,0,0,.19-0.58h0a0.43,0.43,0,0,0-.56-0.24Z" transform="translate(0 0)"/><path class="cls-3" d="M43.3,30.62l-1.42,2.45a0.43,0.43,0,0,0,.16.59h0a0.43,0.43,0,0,0,.6-0.09l0-.06,1.41-2.45a0.43,0.43,0,0,0-.16-0.59h0a0.43,0.43,0,0,0-.6.1Z" transform="translate(0 0)"/><line class="cls-4" x1="37.86" y1="40.91" x2="39.9" y2="39.69"/><path class="cls-3" d="M22.25,37.13V12.92a4.35,4.35,0,1,0-8.71,0V37.13A7.81,7.81,0,1,0,22.25,37.13ZM17.89,50.41a6.81,6.81,0,0,1-3.35-12.73V12.92a3.34,3.34,0,1,1,6.69,0V37.67A6.81,6.81,0,0,1,17.89,50.41Z" transform="translate(0 0)"/></svg>