<svg id="레이어_1" data-name="레이어 1" xmlns="http://www.w3.org/2000/svg" width="60" height="60" viewBox="0 0 60 60"><defs><style>.cls-1{fill:#fff;stroke:#7c64ed;stroke-miterlimit:10;stroke-width:1.4px;}.cls-2{fill:#b7afef;}.cls-3{fill:#7c64ed;}</style></defs><title>gyro</title><rect class="cls-1" x="0.7" y="0.7" width="58.6" height="58.6" rx="9" ry="9"/><polygon class="cls-2" points="30 34.32 18.75 27.59 17.97 28.04 17.97 41.94 30 48.88 42.03 41.94 42.03 28.04 41.89 27.96 30 34.32"/><path class="cls-3" d="M46.52,43.85l-3-1.75a2.27,2.27,0,0,0,.05-0.39v-13a2.31,2.31,0,0,0-1.15-2L31.19,20.26h0V16.38a1.13,1.13,0,0,0-2.25,0v3.88h0L17.61,26.74a2.31,2.31,0,0,0-1.15,2v13a2.27,2.27,0,0,0,0,.39l-3,1.75a1.13,1.13,0,0,0,1.13,2L18,43.91l10.93,6.31a2.31,2.31,0,0,0,2.31,0l10.93-6.31,3.32,1.92A1.13,1.13,0,1,0,46.52,43.85ZM28.87,47.16a0.45,0.45,0,0,1-.67.39l-9.26-5.29a0.45,0.45,0,0,1-.23-0.39V30.07a0.45,0.45,0,0,1,.67-0.39L28.64,35a0.45,0.45,0,0,1,.23.39v11.8Zm0.9-14.31-8.72-5a0.44,0.44,0,0,1,0-.77l8.72-5a0.44,0.44,0,0,1,.44,0l8.72,5a0.44,0.44,0,0,1,0,.77l-8.73,5A0.44,0.44,0,0,1,29.77,32.85Zm11.28,9.41-9.26,5.29a0.45,0.45,0,0,1-.67-0.39V35.36A0.45,0.45,0,0,1,31.35,35l9.26-5.29a0.45,0.45,0,0,1,.67.39v11.8A0.45,0.45,0,0,1,41.05,42.26Z" transform="translate(0 0)"/><path class="cls-3" d="M11.25,49.91H8.76l3-3a0.66,0.66,0,0,0-.47-1.13H7.19a0.67,0.67,0,0,0,0,1.33h2.5l-3,3A0.66,0.66,0,0,0,6.9,51.2H7a0.64,0.64,0,0,0,.21.06h4.1a0.68,0.68,0,0,0,0-1.35h0Z" transform="translate(0 0)"/><path class="cls-3" d="M51.73,48.52l1.58-1.58A0.66,0.66,0,1,0,52.37,46l-1.58,1.58L49.19,46a0.66,0.66,0,1,0-.94.94l1.58,1.58-1.58,1.58a0.66,0.66,0,1,0,.94.94l1.6-1.59L52.37,51a0.66,0.66,0,1,0,.94-0.94h0Z" transform="translate(0 0)"/><path class="cls-3" d="M32.51,9a0.66,0.66,0,0,0-.93,0h0L30,10.55,28.41,9a0.66,0.66,0,0,0-.94.94h0l1.85,1.85v1.78a0.67,0.67,0,0,0,1.33,0V11.76L32.5,9.91a0.66,0.66,0,0,0,0-.93h0Z" transform="translate(0 0)"/></svg>