<svg id="레이어_1" data-name="레이어 1" xmlns="http://www.w3.org/2000/svg" width="60" height="60" viewBox="0 0 60 60"><defs><style>.cls-1{fill:#fff;stroke:#7c64ed;stroke-miterlimit:10;stroke-width:1.4px;}.cls-2{fill:#7c64ed;}.cls-3{fill:#b7afef;}.cls-4{fill:#382faf;}</style></defs><title>ir</title><rect class="cls-1" x="0.7" y="0.7" width="58.6" height="58.6" rx="9" ry="9"/><path class="cls-2" d="M22.45,18.16H8.52V41.83H22.45a0.93,0.93,0,0,0,.93-0.93h0V19.1a0.93,0.93,0,0,0-.92-0.94h0Z" transform="translate(0 0)"/><path class="cls-3" d="M23.36,32.12v5.83A2.92,2.92,0,0,0,23.36,32.12Z" transform="translate(0 0)"/><path class="cls-3" d="M23.36,22v5.84A2.92,2.92,0,0,0,23.36,22Z" transform="translate(0 0)"/><circle class="cls-4" cx="28.58" cy="24.39" r="0.64" transform="translate(-3.08 44.63) rotate(-73.07)"/><circle class="cls-4" cx="30.73" cy="25.03" r="0.64" transform="matrix(0.29, -0.96, 0.96, 0.29, -2.21, 47.08)"/><circle class="cls-4" cx="32.89" cy="25.71" r="0.64" transform="translate(-1.28 49.68) rotate(-73.06)"/><circle class="cls-4" cx="35.03" cy="26.36" r="0.64" transform="translate(-0.39 52.19) rotate(-73.06)"/><circle class="cls-4" cx="37.2" cy="27.01" r="0.64" transform="translate(0.49 54.68) rotate(-72.99)"/><circle class="cls-4" cx="39.34" cy="27.67" r="0.64" transform="translate(1.41 57.23) rotate(-73.05)"/><circle class="cls-4" cx="41.49" cy="28.32" r="0.64" transform="translate(2.34 59.8) rotate(-73.12)"/><circle class="cls-4" cx="43.65" cy="28.98" r="0.64" transform="translate(3.19 62.27) rotate(-73.02)"/><circle class="cls-4" cx="45.8" cy="29.63" r="0.64" transform="translate(4.13 64.82) rotate(-73.08)"/><circle class="cls-4" cx="47.96" cy="30.29" r="0.64" transform="translate(-6.71 15.14) rotate(-16.79)"/><circle class="cls-4" cx="45.8" cy="30.94" r="0.64" transform="translate(-7.04 14.72) rotate(-16.98)"/><circle class="cls-4" cx="43.65" cy="31.6" r="0.64" transform="translate(-7.32 14.12) rotate(-16.97)"/><circle class="cls-4" cx="41.5" cy="32.27" r="0.64" transform="translate(-7.6 13.5) rotate(-16.95)"/><circle class="cls-4" cx="39.35" cy="32.91" r="0.64" transform="translate(-7.89 12.92) rotate(-16.97)"/><circle class="cls-4" cx="37.19" cy="33.57" r="0.64" transform="translate(-8.18 12.32) rotate(-16.97)"/><circle class="cls-4" cx="35.04" cy="34.21" r="0.64" transform="translate(-8.45 11.69) rotate(-16.94)"/><polygon class="cls-4" points="33.2 34.87 33.68 36.25 31.64 36.19 29.6 36.12 31.16 34.8 32.72 33.48 33.2 34.87"/><path class="cls-3" d="M51.48,36.71a0.83,0.83,0,0,1-.83.83h0a0.83,0.83,0,0,1-.84-0.82h0V23.33a0.83,0.83,0,0,1,.83-0.83h0a0.83,0.83,0,0,1,.83.83h0V36.71h0Z" transform="translate(0 0)"/></svg>