<svg id="레이어_1" data-name="레이어 1" xmlns="http://www.w3.org/2000/svg" width="60" height="60" viewBox="0 0 60 60"><defs><style>.cls-1{fill:#fff;stroke:#7c64ed;stroke-miterlimit:10;stroke-width:1.4px;}.cls-2{fill:#7c64ed;}.cls-3{fill:#b7afef;}</style></defs><title>mic</title><rect class="cls-1" x="0.7" y="0.7" width="58.6" height="58.6" rx="9" ry="9"/><path class="cls-2" d="M39,18.7V17.6a9,9,0,1,0-18,0h0v1.1h7.83v2.22H21v2.62h7.83v2.22H21v2.58h7.83v2.2H21v2.58h7.83v2.22H21v1.1a9,9,0,0,0,18,0v-1.1H31.15V33.11H39V30.54H31.15V28.3H39V25.72H31.15V23.54H39V20.92H31.15V18.7H39Z" transform="translate(0 0)"/><path class="cls-3" d="M41.18,35.33v1.36a11.18,11.18,0,0,1-22.36,0h0V35.33H15.5V36.9a14.5,14.5,0,0,0,29,0V35.33H41.18Z" transform="translate(0 0)"/></svg>