<svg id="레이어_1" data-name="레이어 1" xmlns="http://www.w3.org/2000/svg" width="60" height="60" viewBox="0 0 60 60"><defs><style>.cls-1{fill:#fff;stroke:#fc0;stroke-miterlimit:10;stroke-width:1.4px;}.cls-2{fill:#ffdc00;}.cls-3{fill:#fc0;}</style></defs><title>network</title><rect class="cls-1" x="0.7" y="0.7" width="58.6" height="58.6" rx="9" ry="9"/><path class="cls-2" d="M46.37,25.43V25.29a9.77,9.77,0,0,0-.14-1.46V23.75q-0.11-.75-0.29-1.48V22.2q-0.18-.71-0.41-1.41l-0.06-.16c-0.08-.21-0.15-0.42-0.24-0.63l-0.08-.19L45,19.38l-0.13-.28-0.24-.49-0.18-.34-0.12-.21c-0.12-.23-0.26-0.45-0.4-0.67l-0.09-.05-0.21-.44V16.83a7.77,7.77,0,0,1-.6-0.69L42.9,16l-0.56-.68V15.28L42,15l-0.12-.13-0.28-.31-0.25-.18-0.18-.17-0.57-.51L40.4,13.5l-0.33-.27L39.79,13l-0.41-.29-0.25-.17-0.25-.18h0l-0.06.1-1.06,1.63h0a14.36,14.36,0,0,1,1.39,1l0.06,0.05,0.58,0.55,0.09,0.08,0.54,0.59v0.05A14.38,14.38,0,0,1,42,18.44h0c0.14,0.22.28,0.45,0.41,0.69l0.16,0.09c0.13,0.23.24,0.46,0.36,0.69V20c0.13,0.26.24,0.52,0.35,0.79h0q0.14,0.35.26,0.71l0.09,0.26,0.16,0.6a1.67,1.67,0,0,0,.08.3c0,0.1.1,0.39,0.14,0.59l0,0.26a4.51,4.51,0,0,0,.12.72v0.3a2.13,2.13,0,0,0,0,.56,0.5,0.5,0,0,1,0,.28v1.94a2.53,2.53,0,0,1,0,.56v0.3a4.36,4.36,0,0,1-.11.71,0.47,0.47,0,0,1-.06.28,3.68,3.68,0,0,0-.13.58L43.82,30l-0.15.51-0.08.24c-0.08.23-.16,0.46-0.25,0.69v0.06c-0.11.27-.22,0.53-0.35,0.78v0.08c-0.11.23-.23,0.46-0.35,0.68l-0.06.1c-0.13.23-.27,0.46-0.41,0.68h0a14.27,14.27,0,0,1-1.59,2l0,0.06L40,36.5l-0.09.09-0.56.5-0.08.06q-0.32.27-.66,0.52h0c-0.23.17-.47,0.34-0.72,0.5L39,39.89h0l0.27-.19,0.22-.15,0.6-.44L40.23,39l0.35-.28V38.66l0.54-.48L41.31,38l0.28-.22,0.29-.3L42,37.34l0.3-.33,0.06-.07q0.28-.33.54-0.66L43,36.16c0.18-.23.34-0.46,0.5-0.69l0.11-.07L43.85,35l0.06-.1c0.14-.22.27-0.45,0.4-0.67L44.43,34l0.16-.34c0.09-.16.17-0.33,0.24-0.49L45,32.92l0.18-.42,0.06-.16,0.24-.63,0.06-.16q0.24-.69.41-1.4V30.07q0.17-.73.29-1.48V28.48c0.07-.48.12-1,0.14-1.46V26.16C46.34,25.92,46.38,25.67,46.37,25.43Z" transform="translate(0 0)"/><path class="cls-2" d="M38.16,26.15a8.22,8.22,0,0,0-3.76-6.9L33.28,21a6.16,6.16,0,0,1,0,10.35l1.12,1.73A8.22,8.22,0,0,0,38.16,26.15Z" transform="translate(0 0)"/><path class="cls-2" d="M42.27,26.15A12.33,12.33,0,0,0,36.64,15.8l-1.12,1.72a10.28,10.28,0,0,1,0,17.26l1.12,1.73A12.33,12.33,0,0,0,42.27,26.15Z" transform="translate(0 0)"/><path class="cls-3" d="M30,22.94a3.21,3.21,0,0,0-1.24,6.18V47.66h2.49V29.12A3.21,3.21,0,0,0,30,22.94Z" transform="translate(0 0)"/><path class="cls-2" d="M20.77,37.15c-0.2-.16-0.39-0.34-0.57-0.51l-0.08-.08c-0.19-.22-0.37-0.36-0.53-0.55v0a14.33,14.33,0,0,1-1.6-2h0c-0.14-.22-0.28-0.45-0.41-0.69l0-.1c-0.13-.23-0.24-0.46-0.36-0.69V32.36c-0.12-.26-0.24-0.52-0.35-0.79h0l-0.26-.7-0.09-.26-0.15-.52-0.08-.3c0-.19-0.09-0.39-0.13-0.59l0-.26q-0.07-.36-0.12-0.72v-0.3a2.49,2.49,0,0,0,0-.56V25a2.53,2.53,0,0,1,0-.56,0.58,0.58,0,0,0,0-.3c0-.1.07-0.47,0.11-0.71a0.47,0.47,0,0,1,.06-0.28,3.68,3.68,0,0,0,.13-0.58c0-.19,0-0.21.08-0.31l0.15-.51,0.09-.27c0.08-.23.16-0.46,0.25-0.69V20.78c0.11-.27.22-0.53,0.35-0.79V19.91q0.17-.35.35-0.68l0.06-.11c0.13-.23.26-0.46,0.4-0.68h0a14.47,14.47,0,0,1,1.55-2.1h0.07c0.18-.19.35-0.37,0.54-0.54l0.09-.09a5.71,5.71,0,0,1,.55-0.55l0.07-.06c0.21-.18.43-0.35,0.66-0.52h0c0.23-.17.48-0.34,0.72-0.5l-1.11-1.74h0l-0.28.19-0.24.15-0.6.44-0.14.11-0.35.28-0.16.14-0.54.48-0.15.21-0.23.22-0.29.3L18,15l-0.3.34H17.64q-0.29.33-.54,0.66l-0.1.12c-0.17.22-.34,0.46-0.5,0.69l0,0.07-0.26.46-0.06.1c-0.14.22-.27,0.44-0.4,0.67l-0.14.16-0.19.35c-0.09.16-.17,0.33-0.24,0.49L15,19.39l-0.19.43L14.76,20c-0.08.21-.16,0.41-0.23,0.63l-0.06.16a14,14,0,0,0-.41,1.4v0.07c-0.12.48-.21,1-0.29,1.48v0.08c-0.07.48-.12,1-0.14,1.46V27a9.9,9.9,0,0,0,.14,1.46v0.07A14.34,14.34,0,0,0,14.06,30v0.07q0.18,0.71.41,1.41l0.12,0.18q0.1,0.31.24,0.63l0.08,0.19,0.19,0.43,0.13,0.28,0.24,0.49L15.59,34l0.12,0.21c0.13,0.23.26,0.45,0.4,0.67L16.17,35l0.26,0.39v0.07l0.5,0.69L17,36.28c0.18,0.23.37,0.45,0.56,0.67V37L18,37.34l0.13,0.13,0.29,0.31L18.65,38l0.18,0.17,0.52,0.46,0.24,0.17,0.33,0.27,0.28,0.27,0.39,0.28,0.25,0.17L21.09,40h0l0.06-.1,1-1.63h0a14.66,14.66,0,0,1-1.39-1Z" transform="translate(0 0)"/><path class="cls-2" d="M26.71,21l-1.12-1.73a8.22,8.22,0,0,0,0,13.81l1.12-1.72A6.16,6.16,0,0,1,26.71,21Z" transform="translate(0 0)"/><path class="cls-2" d="M19.77,26.15a10.28,10.28,0,0,1,4.69-8.63L23.35,15.8a12.34,12.34,0,0,0,0,20.71l1.12-1.73A10.28,10.28,0,0,1,19.77,26.15Z" transform="translate(0 0)"/></svg>