<svg id="레이어_1" data-name="레이어 1" xmlns="http://www.w3.org/2000/svg" width="60" height="60" viewBox="0 0 60 60"><defs><style>.cls-1{fill:#fff;stroke:#ff8e1d;stroke-miterlimit:10;stroke-width:1.4px;}.cls-2{fill:#ffc088;}.cls-3{fill:#ff8e1d;}</style></defs><title>speaker</title><rect class="cls-1" x="0.7" y="0.7" width="58.6" height="58.6" rx="9" ry="9"/><path class="cls-2" d="M36.3,26.3l1.85-1.85a7.85,7.85,0,0,1,0,11.1L36.3,33.69A5.23,5.23,0,0,0,36.3,26.3Z" transform="translate(0 0)"/><path class="cls-2" d="M41.84,39.24L40,37.39A10.46,10.46,0,0,0,40,22.6h0l1.85-1.85a13.08,13.08,0,0,1,0,18.5h0Z" transform="translate(0 0)"/><path class="cls-2" d="M43.69,41.09l1.85,1.85a18.31,18.31,0,0,0,0-25.89L43.69,18.9a15.69,15.69,0,0,1,0,22.19h0Z" transform="translate(0 0)"/><polygon class="cls-3" points="15.79 22.48 9.1 22.48 9.1 30 9.1 37.52 15.79 37.52 15.79 22.48"/><path class="cls-3" d="M29.36,11.78a4.49,4.49,0,0,0-2,1.26L16.79,22.47v15l10.56,9.42a4.49,4.49,0,0,0,2,1.26A1.58,1.58,0,0,0,31,46.74s0-.1,0-0.14V13.36a1.58,1.58,0,0,0-1.58-1.58H29.36Z" transform="translate(0 0)"/></svg>