<svg id="레이어_1" data-name="레이어 1" xmlns="http://www.w3.org/2000/svg" width="60" height="60" viewBox="0 0 60 60"><defs><style>.cls-1{fill:#fff;stroke:#7c64ed;stroke-miterlimit:10;stroke-width:1.4px;}.cls-2{fill:#7c64ed;}.cls-3{fill:#b7afef;}</style></defs><title>ultrasonic</title><rect class="cls-1" x="0.7" y="0.7" width="58.6" height="58.6" rx="9" ry="9"/><path class="cls-2" d="M21.68,16.88A13.12,13.12,0,1,0,34.81,30,13.12,13.12,0,0,0,21.68,16.88h0ZM31.43,29h-1.6a8.22,8.22,0,0,0-7.15-7.15v-1.6A9.8,9.8,0,0,1,31.43,29ZM20.68,26.66A3.49,3.49,0,0,0,18.35,29h-2a5.4,5.4,0,0,1,4.3-4.3v2ZM18.35,31a3.49,3.49,0,0,0,2.33,2.33v2a5.4,5.4,0,0,1-4.3-4.3h2Zm4.34,2.33A3.49,3.49,0,0,0,25,31h2a5.4,5.4,0,0,1-4.3,4.3v-2ZM25,29a3.48,3.48,0,0,0-2.34-2.34v-2A5.4,5.4,0,0,1,27,29H25Zm-4.34-8.75v1.6A8.21,8.21,0,0,0,13.54,29h-1.6A9.81,9.81,0,0,1,20.68,20.25ZM11.94,31h1.6a8.21,8.21,0,0,0,7.14,7.1v1.6A9.8,9.8,0,0,1,11.94,31Zm10.75,8.75V38.1A8.21,8.21,0,0,0,29.84,31h1.6a9.8,9.8,0,0,1-8.76,8.79h0Z" transform="translate(0 0)"/><path class="cls-3" d="M36.82,26.3l1.85-1.85a7.85,7.85,0,0,1,0,11.1L36.82,33.7a5.23,5.23,0,0,0,0-7.4h0Z" transform="translate(0 0)"/><path class="cls-3" d="M42.36,39.25L40.52,37.4a10.46,10.46,0,0,0,0-14.79h0l1.85-1.85a13.08,13.08,0,0,1,0,18.5h0Z" transform="translate(0 0)"/><path class="cls-3" d="M44.22,41.1l1.85,1.85a18.31,18.31,0,0,0,0-25.89L44.22,18.9a15.69,15.69,0,0,1,0,22.19h0Z" transform="translate(0 0)"/></svg>