<svg id="레이어_1" data-name="레이어 1" xmlns="http://www.w3.org/2000/svg" width="60" height="60" viewBox="0 0 60 60"><defs><style>.cls-1,.cls-4{fill:#fff;}.cls-1{stroke:#7c64ed;stroke-miterlimit:10;stroke-width:1.4px;}.cls-2{fill:#7c64ed;}.cls-3{fill:#b7afef;}</style></defs><title>volume</title><rect class="cls-1" x="0.7" y="0.7" width="58.6" height="58.6" rx="9" ry="9"/><path class="cls-2" d="M30,11.62h0a1,1,0,0,0-1,1v3.09a1,1,0,0,0,1,1h0a1,1,0,0,0,1-1V12.57A1,1,0,0,0,30,11.62Z" transform="translate(0 0)"/><path class="cls-3" d="M15.64,16.84h0a1,1,0,0,0-.12,1.35l2,2.37a1,1,0,0,0,1.35.12h0A1,1,0,0,0,19,19.32l-2-2.37A1,1,0,0,0,15.64,16.84Z" transform="translate(0 0)"/><path class="cls-3" d="M8,30.07H8a1,1,0,0,0,.78,1.11l3,0.54a1,1,0,0,0,1.11-.78h0a1,1,0,0,0-.78-1.11l-3-.54A1,1,0,0,0,8,30.07Z" transform="translate(0 0)"/><path class="cls-3" d="M10.66,45.11h0a1,1,0,0,0,1.31.35l2.67-1.54A1,1,0,0,0,15,42.61h0a1,1,0,0,0-1.31-.35L11,43.78A1,1,0,0,0,10.66,45.11Z" transform="translate(0 0)"/><path class="cls-3" d="M49.34,45.11h0A1,1,0,0,0,49,43.78l-2.67-1.54a1,1,0,0,0-1.31.35h0a1,1,0,0,0,.35,1.31L48,45.44A1,1,0,0,0,49.34,45.11Z" transform="translate(0 0)"/><path class="cls-3" d="M52,30.07h0a1,1,0,0,0-1.11-.78l-3,.54a1,1,0,0,0-.78,1.11h0a1,1,0,0,0,1.11.78l3-.54A1,1,0,0,0,52,30.07Z" transform="translate(0 0)"/><path class="cls-3" d="M44.35,16.84h0A1,1,0,0,0,43,17l-2,2.37a1,1,0,0,0,.12,1.35h0a1,1,0,0,0,1.35-.12l2-2.37A1,1,0,0,0,44.35,16.84Z" transform="translate(0 0)"/><circle class="cls-2" cx="30" cy="33.95" r="14.43"/><circle class="cls-4" cx="24.19" cy="26.29" r="2.67"/></svg>